M48
; DRILL file {KiCad 5.1.5-52549c5~86~ubuntu18.04.1} date za 04 apr 2020 12:24:08 CEST
; FORMAT={-:-/ absolute / metric / decimal}
; #@! TF.CreationDate,2020-04-04T12:24:08+02:00
; #@! TF.GenerationSoftware,Kicad,Pcbnew,5.1.5-52549c5~86~ubuntu18.04.1
; #@! TF.FileFunction,Plated,1,2,PTH
FMAT,2
METRIC
T1C0.400
T2C0.700
T3C0.800
T4C0.899
T5C0.900
T6C0.990
T7C1.000
T8C1.300
T9C1.500
T10C1.999
T11C3.200
%
G90
G05
T1
X79.502Y-83.82
X79.502Y-94.996
X79.756Y-69.088
X81.28Y-134.112
X82.296Y-106.172
X82.55Y-126.365
X82.55Y-128.27
X84.074Y-83.82
X84.455Y-128.27
X84.582Y-144.018
X85.852Y-139.446
X86.36Y-44.45
X86.36Y-101.346
X86.995Y-128.27
X87.884Y-109.982
X89.154Y-90.17
X91.186Y-49.53
X91.694Y-128.778
X92.202Y-127.254
X92.202Y-140.716
X92.202Y-144.018
X93.345Y-71.12
X93.345Y-73.66
X93.345Y-77.47
X93.345Y-80.645
X94.742Y-49.276
X94.742Y-126.238
X94.996Y-44.704
X94.996Y-52.578
X94.996Y-143.764
X95.25Y-66.548
X95.25Y-140.716
X95.504Y-116.332
X96.012Y-59.182
X97.79Y-119.634
X98.806Y-44.704
X98.806Y-115.824
X99.568Y-133.604
X100.584Y-127.508
X100.584Y-147.066
X100.838Y-133.604
X101.6Y-66.548
X101.854Y-50.8
X102.108Y-140.97
X102.108Y-144.78
X102.87Y-131.826
X103.886Y-116.586
X104.394Y-66.548
X105.156Y-136.652
X105.41Y-54.61
X105.41Y-58.674
X105.918Y-70.358
X106.172Y-48.26
X106.426Y-45.72
X106.426Y-98.298
X106.68Y-88.138
X107.696Y-142.494
X108.204Y-108.204
X108.458Y-66.802
X108.458Y-113.284
X108.458Y-145.796
X108.712Y-129.286
X108.959Y-142.409
X108.966Y-136.652
X110.49Y-78.232
X110.49Y-106.934
X111.76Y-50.8
X111.76Y-56.515
X112.776Y-130.81
X113.03Y-78.232
X113.03Y-106.934
X113.03Y-113.284
X113.792Y-135.89
X114.935Y-78.232
X115.062Y-145.542
X115.316Y-136.652
X115.57Y-106.934
X115.57Y-113.284
X115.57Y-128.778
X116.332Y-133.35
X116.586Y-66.04
X118.11Y-106.934
X118.11Y-113.284
X118.364Y-141.224
X118.618Y-78.232
X119.634Y-70.104
X120.65Y-106.934
X120.65Y-113.284
X120.65Y-133.858
X121.158Y-78.232
X122.174Y-128.016
X122.428Y-144.526
X122.936Y-66.294
X123.19Y-106.934
X123.19Y-113.284
X123.698Y-78.232
X124.714Y-128.016
X125.222Y-134.366
X125.222Y-138.176
X125.73Y-106.934
X125.73Y-113.284
X126.238Y-78.232
X128.27Y-106.934
X128.27Y-113.284
X128.524Y-141.478
X128.778Y-78.232
X130.81Y-106.934
X130.81Y-113.284
X131.318Y-78.232
X132.334Y-139.446
X133.096Y-66.294
X133.096Y-144.78
X133.35Y-106.934
X133.35Y-113.284
X133.35Y-135.128
X133.604Y-127.0
X133.858Y-78.232
X134.62Y-33.782
X135.128Y-140.208
X135.255Y-136.398
X135.636Y-66.294
X135.89Y-44.958
X135.89Y-47.244
X135.89Y-117.094
X136.398Y-78.232
X137.16Y-106.426
X137.414Y-99.06
X137.795Y-79.375
X137.922Y-127.0
X138.176Y-66.294
X138.176Y-91.44
X138.684Y-48.768
X139.192Y-42.164
X139.192Y-82.296
X139.7Y-139.7
X139.7Y-145.288
X140.716Y-66.294
X140.97Y-126.492
X141.732Y-115.824
X143.256Y-66.294
X143.256Y-128.778
X143.51Y-44.958
X143.764Y-48.768
X143.764Y-134.874
X145.034Y-88.646
X145.288Y-133.096
X145.796Y-66.294
X146.05Y-44.958
X146.05Y-49.784
X146.05Y-81.915
X146.05Y-120.142
X146.05Y-126.746
X146.558Y-133.096
X147.32Y-81.915
X147.574Y-138.684
X147.574Y-140.208
X148.336Y-51.308
X148.336Y-66.294
X148.59Y-46.482
X148.59Y-120.142
X148.844Y-91.44
X149.098Y-71.12
X149.098Y-129.286
X149.86Y-87.63
X150.114Y-96.012
X150.876Y-66.294
X150.876Y-135.382
X151.13Y-46.482
X151.13Y-120.142
X151.13Y-126.492
X151.384Y-50.292
X153.162Y-73.66
X153.416Y-91.694
X153.67Y-46.482
X153.67Y-50.292
X153.67Y-120.142
X153.67Y-126.492
X154.178Y-66.294
X154.178Y-134.366
X154.178Y-140.97
X154.94Y-80.01
X155.448Y-91.694
X155.448Y-141.478
X155.956Y-46.482
X155.956Y-54.61
X156.21Y-120.142
X156.718Y-129.032
X157.48Y-138.938
X157.48Y-144.272
X158.496Y-73.66
X158.496Y-77.47
X158.75Y-88.138
X158.75Y-120.142
X158.75Y-126.492
X160.02Y-134.366
X160.274Y-139.446
X161.29Y-120.142
X161.29Y-126.492
X162.56Y-77.47
X163.068Y-137.16
X163.068Y-139.7
X163.068Y-143.51
X163.83Y-120.142
X164.084Y-126.492
X164.338Y-55.626
X164.592Y-100.33
X165.608Y-83.312
T2
X85.852Y-114.3
X86.36Y-117.475
X87.884Y-54.864
X88.9Y-45.212
X96.52Y-57.912
X100.076Y-43.942
X100.076Y-58.928
X108.712Y-39.624
X110.236Y-45.72
X112.776Y-46.228
X125.984Y-132.08
X143.256Y-118.618
X147.066Y-99.568
X158.75Y-94.234
X160.782Y-45.974
X164.084Y-51.054
T3
X83.82Y-46.1
X83.82Y-48.2
X83.82Y-50.8
X83.82Y-52.9
X86.62Y-46.1
X86.62Y-52.9
X158.75Y-81.32
X158.75Y-83.82
X94.655Y-132.715
X97.155Y-132.715
X139.74Y-132.08
X142.24Y-132.08
X107.95Y-48.46
X107.95Y-53.34
X144.78Y-104.18
X144.78Y-106.68
T4
X95.56Y-40.279
X98.059Y-40.279
X100.061Y-40.279
X102.56Y-40.279
T5
X167.64Y-72.93
X167.64Y-74.93
X167.64Y-76.93
T6
X76.835Y-130.12
X76.835Y-134.62
X76.835Y-109.8
X76.835Y-114.3
X76.835Y-119.96
X76.835Y-124.46
T7
X111.76Y-35.56
X111.76Y-38.1
X114.3Y-35.56
X114.3Y-38.1
X116.84Y-35.56
X116.84Y-38.1
X119.38Y-35.56
X119.38Y-38.1
X121.92Y-35.56
X121.92Y-38.1
X124.46Y-35.56
X124.46Y-38.1
X127.0Y-35.56
X127.0Y-38.1
X129.54Y-35.56
X129.54Y-38.1
X132.08Y-35.56
X132.08Y-38.1
X134.62Y-35.56
X134.62Y-38.1
X157.48Y-50.8
X111.76Y-101.6
X111.76Y-104.14
X114.3Y-101.6
X114.3Y-104.14
X116.84Y-101.6
X116.84Y-104.14
X119.38Y-101.6
X119.38Y-104.14
X121.92Y-101.6
X121.92Y-104.14
X124.46Y-101.6
X124.46Y-104.14
X127.0Y-101.6
X127.0Y-104.14
X129.54Y-101.6
X129.54Y-104.14
X132.08Y-101.6
X132.08Y-104.14
X134.62Y-101.6
X134.62Y-104.14
X138.43Y-35.56
X138.43Y-38.1
X138.43Y-40.64
X111.76Y-96.52
X111.76Y-99.06
X114.3Y-96.52
X114.3Y-99.06
X116.84Y-96.52
X116.84Y-99.06
X119.38Y-96.52
X119.38Y-99.06
X121.92Y-96.52
X121.92Y-99.06
X124.46Y-96.52
X124.46Y-99.06
X127.0Y-96.52
X127.0Y-99.06
X129.54Y-96.52
X129.54Y-99.06
X132.08Y-96.52
X132.08Y-99.06
X134.62Y-96.52
X134.62Y-99.06
X93.695Y-148.463
X95.08Y-151.303
X96.465Y-148.463
X97.85Y-151.303
X99.235Y-148.463
X100.62Y-151.303
X102.005Y-148.463
X103.39Y-151.303
X104.775Y-148.463
X88.9Y-60.96
X88.9Y-63.5
X91.44Y-60.96
X91.44Y-63.5
X93.98Y-60.96
X93.98Y-63.5
X96.52Y-60.96
X96.52Y-63.5
X99.06Y-60.96
X99.06Y-63.5
X101.6Y-60.96
X101.6Y-63.5
X104.14Y-60.96
X104.14Y-63.5
X106.68Y-60.96
X106.68Y-63.5
X109.22Y-60.96
X109.22Y-63.5
X111.76Y-60.96
X111.76Y-63.5
X114.3Y-60.96
X114.3Y-63.5
X116.84Y-60.96
X116.84Y-63.5
X119.38Y-60.96
X119.38Y-63.5
X121.92Y-60.96
X121.92Y-63.5
X124.46Y-60.96
X124.46Y-63.5
X127.0Y-60.96
X127.0Y-63.5
X129.54Y-60.96
X129.54Y-63.5
X132.08Y-60.96
X132.08Y-63.5
X134.62Y-60.96
X134.62Y-63.5
X137.16Y-60.96
X137.16Y-63.5
X139.7Y-60.96
X139.7Y-63.5
X142.24Y-60.96
X142.24Y-63.5
X144.78Y-60.96
X144.78Y-63.5
X147.32Y-60.96
X147.32Y-63.5
X149.86Y-60.96
X149.86Y-63.5
X152.4Y-60.96
X152.4Y-63.5
X154.94Y-60.96
X154.94Y-63.5
X157.48Y-60.96
X157.48Y-63.5
X160.02Y-60.96
X160.02Y-63.5
X162.56Y-60.96
X162.56Y-63.5
X165.1Y-60.96
X165.1Y-63.5
X167.64Y-60.96
X167.64Y-63.5
X111.76Y-91.44
X111.76Y-93.98
X114.3Y-91.44
X114.3Y-93.98
X116.84Y-91.44
X116.84Y-93.98
X119.38Y-91.44
X119.38Y-93.98
X121.92Y-91.44
X121.92Y-93.98
X124.46Y-91.44
X124.46Y-93.98
X127.0Y-91.44
X127.0Y-93.98
X129.54Y-91.44
X129.54Y-93.98
X132.08Y-91.44
X132.08Y-93.98
X134.62Y-91.44
X134.62Y-93.98
X88.9Y-121.92
X88.9Y-124.46
X91.44Y-121.92
X91.44Y-124.46
X93.98Y-121.92
X93.98Y-124.46
X96.52Y-121.92
X96.52Y-124.46
X99.06Y-121.92
X99.06Y-124.46
X101.6Y-121.92
X101.6Y-124.46
X104.14Y-121.92
X104.14Y-124.46
X106.68Y-121.92
X106.68Y-124.46
X109.22Y-121.92
X109.22Y-124.46
X111.76Y-121.92
X111.76Y-124.46
X114.3Y-121.92
X114.3Y-124.46
X116.84Y-121.92
X116.84Y-124.46
X119.38Y-121.92
X119.38Y-124.46
X121.92Y-121.92
X121.92Y-124.46
X124.46Y-121.92
X124.46Y-124.46
X127.0Y-121.92
X127.0Y-124.46
X129.54Y-121.92
X129.54Y-124.46
X132.08Y-121.92
X132.08Y-124.46
X134.62Y-121.92
X134.62Y-124.46
X137.16Y-121.92
X137.16Y-124.46
X139.7Y-121.92
X139.7Y-124.46
X142.24Y-121.92
X142.24Y-124.46
X144.78Y-121.92
X144.78Y-124.46
X147.32Y-121.92
X147.32Y-124.46
X149.86Y-121.92
X149.86Y-124.46
X152.4Y-121.92
X152.4Y-124.46
X154.94Y-121.92
X154.94Y-124.46
X157.48Y-121.92
X157.48Y-124.46
X160.02Y-121.92
X160.02Y-124.46
X162.56Y-121.92
X162.56Y-124.46
X165.1Y-121.92
X165.1Y-124.46
X167.64Y-121.92
X167.64Y-124.46
X166.37Y-43.18
X166.37Y-45.72
X166.37Y-48.26
X166.37Y-50.8
X166.37Y-53.34
X166.37Y-55.88
X111.76Y-86.36
X111.76Y-88.9
X114.3Y-86.36
X114.3Y-88.9
X116.84Y-86.36
X116.84Y-88.9
X119.38Y-86.36
X119.38Y-88.9
X121.92Y-86.36
X121.92Y-88.9
X124.46Y-86.36
X124.46Y-88.9
X127.0Y-86.36
X127.0Y-88.9
X129.54Y-86.36
X129.54Y-88.9
X132.08Y-86.36
X132.08Y-88.9
X134.62Y-86.36
X134.62Y-88.9
X142.24Y-35.56
X144.78Y-35.56
X147.32Y-35.56
X149.86Y-35.56
X152.4Y-35.56
X154.94Y-35.56
X157.48Y-35.56
X160.02Y-35.56
X141.335Y-145.415
X141.335Y-150.493
X142.48Y-147.954
X143.625Y-145.415
X143.625Y-150.493
X144.77Y-147.954
X145.915Y-145.415
X145.915Y-150.493
X147.06Y-147.954
X148.205Y-145.415
X148.205Y-150.493
X149.35Y-147.954
X150.495Y-145.415
X150.495Y-150.493
X151.64Y-147.954
X111.76Y-81.28
X111.76Y-83.82
X114.3Y-81.28
X114.3Y-83.82
X116.84Y-81.28
X116.84Y-83.82
X119.38Y-81.28
X119.38Y-83.82
X121.92Y-81.28
X121.92Y-83.82
X124.46Y-81.28
X124.46Y-83.82
X127.0Y-81.28
X127.0Y-83.82
X129.54Y-81.28
X129.54Y-83.82
X132.08Y-81.28
X132.08Y-83.82
X134.62Y-81.28
X134.62Y-83.82
T8
X79.325Y-128.86
X79.325Y-135.87
X83.82Y-68.58
X83.82Y-72.58
X83.82Y-76.58
X83.82Y-80.58
X83.82Y-87.08
X83.82Y-91.08
X83.82Y-95.08
X79.325Y-108.54
X79.325Y-115.55
X79.325Y-118.7
X79.325Y-125.71
T9
X167.64Y-70.83
X167.64Y-79.03
T10
X92.489Y-37.569
X105.631Y-37.569
T11
X133.68Y-147.953
X158.68Y-147.953
X86.735Y-149.883
X111.735Y-149.883
T5
G00X159.08Y-104.38
M15
G01X158.68Y-104.38
M16
G05
G00X160.18Y-108.98
M15
G01X159.78Y-108.98
M16
G05
G00X164.18Y-108.98
M15
G01X163.78Y-108.98
M16
G05
G00X167.18Y-108.98
M15
G01X166.78Y-108.98
M16
G05
T7
G00X80.17Y-48.5
M15
G01X80.17Y-50.5
M16
G05
G00X81.72Y-42.65
M15
G01X80.22Y-42.65
M16
G05
G00X81.72Y-56.35
M15
G01X80.22Y-56.35
M16
G05
T0
M30
