G04 #@! TF.GenerationSoftware,KiCad,Pcbnew,5.1.5-52549c5~86~ubuntu18.04.1*
G04 #@! TF.CreationDate,2020-04-04T12:23:38+02:00*
G04 #@! TF.ProjectId,FPGC4IOboard,46504743-3449-44f6-926f-6172642e6b69,rev?*
G04 #@! TF.SameCoordinates,Original*
G04 #@! TF.FileFunction,Legend,Bot*
G04 #@! TF.FilePolarity,Positive*
%FSLAX46Y46*%
G04 Gerber Fmt 4.6, Leading zero omitted, Abs format (unit mm)*
G04 Created by KiCad (PCBNEW 5.1.5-52549c5~86~ubuntu18.04.1) date 2020-04-04 12:23:38*
%MOMM*%
%LPD*%
G04 APERTURE LIST*
%ADD10C,0.150000*%
%ADD11C,0.120000*%
G04 APERTURE END LIST*
D10*
X109346904Y-83320000D02*
X109442142Y-83272380D01*
X109585000Y-83272380D01*
X109727857Y-83320000D01*
X109823095Y-83415238D01*
X109870714Y-83510476D01*
X109918333Y-83700952D01*
X109918333Y-83843809D01*
X109870714Y-84034285D01*
X109823095Y-84129523D01*
X109727857Y-84224761D01*
X109585000Y-84272380D01*
X109489761Y-84272380D01*
X109346904Y-84224761D01*
X109299285Y-84177142D01*
X109299285Y-83843809D01*
X109489761Y-83843809D01*
X108870714Y-84272380D02*
X108870714Y-83272380D01*
X108299285Y-84272380D01*
X108299285Y-83272380D01*
X107823095Y-84272380D02*
X107823095Y-83272380D01*
X107585000Y-83272380D01*
X107442142Y-83320000D01*
X107346904Y-83415238D01*
X107299285Y-83510476D01*
X107251666Y-83700952D01*
X107251666Y-83843809D01*
X107299285Y-84034285D01*
X107346904Y-84129523D01*
X107442142Y-84224761D01*
X107585000Y-84272380D01*
X107823095Y-84272380D01*
X109346904Y-101100000D02*
X109442142Y-101052380D01*
X109585000Y-101052380D01*
X109727857Y-101100000D01*
X109823095Y-101195238D01*
X109870714Y-101290476D01*
X109918333Y-101480952D01*
X109918333Y-101623809D01*
X109870714Y-101814285D01*
X109823095Y-101909523D01*
X109727857Y-102004761D01*
X109585000Y-102052380D01*
X109489761Y-102052380D01*
X109346904Y-102004761D01*
X109299285Y-101957142D01*
X109299285Y-101623809D01*
X109489761Y-101623809D01*
X108870714Y-102052380D02*
X108870714Y-101052380D01*
X108299285Y-102052380D01*
X108299285Y-101052380D01*
X107823095Y-102052380D02*
X107823095Y-101052380D01*
X107585000Y-101052380D01*
X107442142Y-101100000D01*
X107346904Y-101195238D01*
X107299285Y-101290476D01*
X107251666Y-101480952D01*
X107251666Y-101623809D01*
X107299285Y-101814285D01*
X107346904Y-101909523D01*
X107442142Y-102004761D01*
X107585000Y-102052380D01*
X107823095Y-102052380D01*
X137350476Y-101052380D02*
X137826666Y-101052380D01*
X137874285Y-101528571D01*
X137826666Y-101480952D01*
X137731428Y-101433333D01*
X137493333Y-101433333D01*
X137398095Y-101480952D01*
X137350476Y-101528571D01*
X137302857Y-101623809D01*
X137302857Y-101861904D01*
X137350476Y-101957142D01*
X137398095Y-102004761D01*
X137493333Y-102052380D01*
X137731428Y-102052380D01*
X137826666Y-102004761D01*
X137874285Y-101957142D01*
X137017142Y-101052380D02*
X136683809Y-102052380D01*
X136350476Y-101052380D01*
X139271190Y-83272380D02*
X138652142Y-83272380D01*
X138985476Y-83653333D01*
X138842619Y-83653333D01*
X138747380Y-83700952D01*
X138699761Y-83748571D01*
X138652142Y-83843809D01*
X138652142Y-84081904D01*
X138699761Y-84177142D01*
X138747380Y-84224761D01*
X138842619Y-84272380D01*
X139128333Y-84272380D01*
X139223571Y-84224761D01*
X139271190Y-84177142D01*
X138223571Y-84177142D02*
X138175952Y-84224761D01*
X138223571Y-84272380D01*
X138271190Y-84224761D01*
X138223571Y-84177142D01*
X138223571Y-84272380D01*
X137842619Y-83272380D02*
X137223571Y-83272380D01*
X137556904Y-83653333D01*
X137414047Y-83653333D01*
X137318809Y-83700952D01*
X137271190Y-83748571D01*
X137223571Y-83843809D01*
X137223571Y-84081904D01*
X137271190Y-84177142D01*
X137318809Y-84224761D01*
X137414047Y-84272380D01*
X137699761Y-84272380D01*
X137795000Y-84224761D01*
X137842619Y-84177142D01*
X136937857Y-83272380D02*
X136604523Y-84272380D01*
X136271190Y-83272380D01*
X112774285Y-106145000D02*
X112488571Y-106145000D01*
X112831428Y-106316428D02*
X112631428Y-105716428D01*
X112431428Y-106316428D01*
X112031428Y-106002142D02*
X111945714Y-106030714D01*
X111917142Y-106059285D01*
X111888571Y-106116428D01*
X111888571Y-106202142D01*
X111917142Y-106259285D01*
X111945714Y-106287857D01*
X112002857Y-106316428D01*
X112231428Y-106316428D01*
X112231428Y-105716428D01*
X112031428Y-105716428D01*
X111974285Y-105745000D01*
X111945714Y-105773571D01*
X111917142Y-105830714D01*
X111917142Y-105887857D01*
X111945714Y-105945000D01*
X111974285Y-105973571D01*
X112031428Y-106002142D01*
X112231428Y-106002142D01*
X111317142Y-106316428D02*
X111660000Y-106316428D01*
X111488571Y-106316428D02*
X111488571Y-105716428D01*
X111545714Y-105802142D01*
X111602857Y-105859285D01*
X111660000Y-105887857D01*
X111117142Y-105716428D02*
X110717142Y-105716428D01*
X110974285Y-106316428D01*
X128028571Y-105606904D02*
X127761904Y-106406904D01*
X127495238Y-105606904D01*
X127266666Y-105683095D02*
X127228571Y-105645000D01*
X127152380Y-105606904D01*
X126961904Y-105606904D01*
X126885714Y-105645000D01*
X126847619Y-105683095D01*
X126809523Y-105759285D01*
X126809523Y-105835476D01*
X126847619Y-105949761D01*
X127304761Y-106406904D01*
X126809523Y-106406904D01*
X126047619Y-106406904D02*
X126504761Y-106406904D01*
X126276190Y-106406904D02*
X126276190Y-105606904D01*
X126352380Y-105721190D01*
X126428571Y-105797380D01*
X126504761Y-105835476D01*
X122681904Y-106025952D02*
X122681904Y-106406904D01*
X122948571Y-105606904D02*
X122681904Y-106025952D01*
X122415238Y-105606904D01*
X122186666Y-105683095D02*
X122148571Y-105645000D01*
X122072380Y-105606904D01*
X121881904Y-105606904D01*
X121805714Y-105645000D01*
X121767619Y-105683095D01*
X121729523Y-105759285D01*
X121729523Y-105835476D01*
X121767619Y-105949761D01*
X122224761Y-106406904D01*
X121729523Y-106406904D01*
X120967619Y-106406904D02*
X121424761Y-106406904D01*
X121196190Y-106406904D02*
X121196190Y-105606904D01*
X121272380Y-105721190D01*
X121348571Y-105797380D01*
X121424761Y-105835476D01*
X115314285Y-106145000D02*
X115028571Y-106145000D01*
X115371428Y-106316428D02*
X115171428Y-105716428D01*
X114971428Y-106316428D01*
X114571428Y-106002142D02*
X114485714Y-106030714D01*
X114457142Y-106059285D01*
X114428571Y-106116428D01*
X114428571Y-106202142D01*
X114457142Y-106259285D01*
X114485714Y-106287857D01*
X114542857Y-106316428D01*
X114771428Y-106316428D01*
X114771428Y-105716428D01*
X114571428Y-105716428D01*
X114514285Y-105745000D01*
X114485714Y-105773571D01*
X114457142Y-105830714D01*
X114457142Y-105887857D01*
X114485714Y-105945000D01*
X114514285Y-105973571D01*
X114571428Y-106002142D01*
X114771428Y-106002142D01*
X113857142Y-106316428D02*
X114200000Y-106316428D01*
X114028571Y-106316428D02*
X114028571Y-105716428D01*
X114085714Y-105802142D01*
X114142857Y-105859285D01*
X114200000Y-105887857D01*
X113514285Y-105973571D02*
X113571428Y-105945000D01*
X113600000Y-105916428D01*
X113628571Y-105859285D01*
X113628571Y-105830714D01*
X113600000Y-105773571D01*
X113571428Y-105745000D01*
X113514285Y-105716428D01*
X113400000Y-105716428D01*
X113342857Y-105745000D01*
X113314285Y-105773571D01*
X113285714Y-105830714D01*
X113285714Y-105859285D01*
X113314285Y-105916428D01*
X113342857Y-105945000D01*
X113400000Y-105973571D01*
X113514285Y-105973571D01*
X113571428Y-106002142D01*
X113600000Y-106030714D01*
X113628571Y-106087857D01*
X113628571Y-106202142D01*
X113600000Y-106259285D01*
X113571428Y-106287857D01*
X113514285Y-106316428D01*
X113400000Y-106316428D01*
X113342857Y-106287857D01*
X113314285Y-106259285D01*
X113285714Y-106202142D01*
X113285714Y-106087857D01*
X113314285Y-106030714D01*
X113342857Y-106002142D01*
X113400000Y-105973571D01*
X132594285Y-106406904D02*
X132860952Y-106025952D01*
X133051428Y-106406904D02*
X133051428Y-105606904D01*
X132746666Y-105606904D01*
X132670476Y-105645000D01*
X132632380Y-105683095D01*
X132594285Y-105759285D01*
X132594285Y-105873571D01*
X132632380Y-105949761D01*
X132670476Y-105987857D01*
X132746666Y-106025952D01*
X133051428Y-106025952D01*
X132289523Y-105683095D02*
X132251428Y-105645000D01*
X132175238Y-105606904D01*
X131984761Y-105606904D01*
X131908571Y-105645000D01*
X131870476Y-105683095D01*
X131832380Y-105759285D01*
X131832380Y-105835476D01*
X131870476Y-105949761D01*
X132327619Y-106406904D01*
X131832380Y-106406904D01*
X131070476Y-106406904D02*
X131527619Y-106406904D01*
X131299047Y-106406904D02*
X131299047Y-105606904D01*
X131375238Y-105721190D01*
X131451428Y-105797380D01*
X131527619Y-105835476D01*
X117854285Y-106145000D02*
X117568571Y-106145000D01*
X117911428Y-106316428D02*
X117711428Y-105716428D01*
X117511428Y-106316428D01*
X117111428Y-106002142D02*
X117025714Y-106030714D01*
X116997142Y-106059285D01*
X116968571Y-106116428D01*
X116968571Y-106202142D01*
X116997142Y-106259285D01*
X117025714Y-106287857D01*
X117082857Y-106316428D01*
X117311428Y-106316428D01*
X117311428Y-105716428D01*
X117111428Y-105716428D01*
X117054285Y-105745000D01*
X117025714Y-105773571D01*
X116997142Y-105830714D01*
X116997142Y-105887857D01*
X117025714Y-105945000D01*
X117054285Y-105973571D01*
X117111428Y-106002142D01*
X117311428Y-106002142D01*
X116397142Y-106316428D02*
X116740000Y-106316428D01*
X116568571Y-106316428D02*
X116568571Y-105716428D01*
X116625714Y-105802142D01*
X116682857Y-105859285D01*
X116740000Y-105887857D01*
X116111428Y-106316428D02*
X115997142Y-106316428D01*
X115940000Y-106287857D01*
X115911428Y-106259285D01*
X115854285Y-106173571D01*
X115825714Y-106059285D01*
X115825714Y-105830714D01*
X115854285Y-105773571D01*
X115882857Y-105745000D01*
X115940000Y-105716428D01*
X116054285Y-105716428D01*
X116111428Y-105745000D01*
X116140000Y-105773571D01*
X116168571Y-105830714D01*
X116168571Y-105973571D01*
X116140000Y-106030714D01*
X116111428Y-106059285D01*
X116054285Y-106087857D01*
X115940000Y-106087857D01*
X115882857Y-106059285D01*
X115854285Y-106030714D01*
X115825714Y-105973571D01*
X130530476Y-105606904D02*
X130530476Y-106254523D01*
X130492380Y-106330714D01*
X130454285Y-106368809D01*
X130378095Y-106406904D01*
X130225714Y-106406904D01*
X130149523Y-106368809D01*
X130111428Y-106330714D01*
X130073333Y-106254523D01*
X130073333Y-105606904D01*
X129730476Y-105683095D02*
X129692380Y-105645000D01*
X129616190Y-105606904D01*
X129425714Y-105606904D01*
X129349523Y-105645000D01*
X129311428Y-105683095D01*
X129273333Y-105759285D01*
X129273333Y-105835476D01*
X129311428Y-105949761D01*
X129768571Y-106406904D01*
X129273333Y-106406904D01*
X128511428Y-106406904D02*
X128968571Y-106406904D01*
X128740000Y-106406904D02*
X128740000Y-105606904D01*
X128816190Y-105721190D01*
X128892380Y-105797380D01*
X128968571Y-105835476D01*
X125564761Y-105606904D02*
X125374285Y-106406904D01*
X125221904Y-105835476D01*
X125069523Y-106406904D01*
X124879047Y-105606904D01*
X124612380Y-105683095D02*
X124574285Y-105645000D01*
X124498095Y-105606904D01*
X124307619Y-105606904D01*
X124231428Y-105645000D01*
X124193333Y-105683095D01*
X124155238Y-105759285D01*
X124155238Y-105835476D01*
X124193333Y-105949761D01*
X124650476Y-106406904D01*
X124155238Y-106406904D01*
X123393333Y-106406904D02*
X123850476Y-106406904D01*
X123621904Y-106406904D02*
X123621904Y-105606904D01*
X123698095Y-105721190D01*
X123774285Y-105797380D01*
X123850476Y-105835476D01*
X120394285Y-106145000D02*
X120108571Y-106145000D01*
X120451428Y-106316428D02*
X120251428Y-105716428D01*
X120051428Y-106316428D01*
X119651428Y-106002142D02*
X119565714Y-106030714D01*
X119537142Y-106059285D01*
X119508571Y-106116428D01*
X119508571Y-106202142D01*
X119537142Y-106259285D01*
X119565714Y-106287857D01*
X119622857Y-106316428D01*
X119851428Y-106316428D01*
X119851428Y-105716428D01*
X119651428Y-105716428D01*
X119594285Y-105745000D01*
X119565714Y-105773571D01*
X119537142Y-105830714D01*
X119537142Y-105887857D01*
X119565714Y-105945000D01*
X119594285Y-105973571D01*
X119651428Y-106002142D01*
X119851428Y-106002142D01*
X119280000Y-105773571D02*
X119251428Y-105745000D01*
X119194285Y-105716428D01*
X119051428Y-105716428D01*
X118994285Y-105745000D01*
X118965714Y-105773571D01*
X118937142Y-105830714D01*
X118937142Y-105887857D01*
X118965714Y-105973571D01*
X119308571Y-106316428D01*
X118937142Y-106316428D01*
X118565714Y-105716428D02*
X118508571Y-105716428D01*
X118451428Y-105745000D01*
X118422857Y-105773571D01*
X118394285Y-105830714D01*
X118365714Y-105945000D01*
X118365714Y-106087857D01*
X118394285Y-106202142D01*
X118422857Y-106259285D01*
X118451428Y-106287857D01*
X118508571Y-106316428D01*
X118565714Y-106316428D01*
X118622857Y-106287857D01*
X118651428Y-106259285D01*
X118680000Y-106202142D01*
X118708571Y-106087857D01*
X118708571Y-105945000D01*
X118680000Y-105830714D01*
X118651428Y-105773571D01*
X118622857Y-105745000D01*
X118565714Y-105716428D01*
X135591428Y-106406904D02*
X135591428Y-105606904D01*
X135286666Y-105606904D01*
X135210476Y-105645000D01*
X135172380Y-105683095D01*
X135134285Y-105759285D01*
X135134285Y-105873571D01*
X135172380Y-105949761D01*
X135210476Y-105987857D01*
X135286666Y-106025952D01*
X135591428Y-106025952D01*
X134829523Y-105683095D02*
X134791428Y-105645000D01*
X134715238Y-105606904D01*
X134524761Y-105606904D01*
X134448571Y-105645000D01*
X134410476Y-105683095D01*
X134372380Y-105759285D01*
X134372380Y-105835476D01*
X134410476Y-105949761D01*
X134867619Y-106406904D01*
X134372380Y-106406904D01*
X133610476Y-106406904D02*
X134067619Y-106406904D01*
X133839047Y-106406904D02*
X133839047Y-105606904D01*
X133915238Y-105721190D01*
X133991428Y-105797380D01*
X134067619Y-105835476D01*
X132784761Y-79317857D02*
X132670476Y-79355952D01*
X132632380Y-79394047D01*
X132594285Y-79470238D01*
X132594285Y-79584523D01*
X132632380Y-79660714D01*
X132670476Y-79698809D01*
X132746666Y-79736904D01*
X133051428Y-79736904D01*
X133051428Y-78936904D01*
X132784761Y-78936904D01*
X132708571Y-78975000D01*
X132670476Y-79013095D01*
X132632380Y-79089285D01*
X132632380Y-79165476D01*
X132670476Y-79241666D01*
X132708571Y-79279761D01*
X132784761Y-79317857D01*
X133051428Y-79317857D01*
X131832380Y-79736904D02*
X132289523Y-79736904D01*
X132060952Y-79736904D02*
X132060952Y-78936904D01*
X132137142Y-79051190D01*
X132213333Y-79127380D01*
X132289523Y-79165476D01*
X131146666Y-78936904D02*
X131299047Y-78936904D01*
X131375238Y-78975000D01*
X131413333Y-79013095D01*
X131489523Y-79127380D01*
X131527619Y-79279761D01*
X131527619Y-79584523D01*
X131489523Y-79660714D01*
X131451428Y-79698809D01*
X131375238Y-79736904D01*
X131222857Y-79736904D01*
X131146666Y-79698809D01*
X131108571Y-79660714D01*
X131070476Y-79584523D01*
X131070476Y-79394047D01*
X131108571Y-79317857D01*
X131146666Y-79279761D01*
X131222857Y-79241666D01*
X131375238Y-79241666D01*
X131451428Y-79279761D01*
X131489523Y-79317857D01*
X131527619Y-79394047D01*
X117163809Y-79317857D02*
X117049523Y-79355952D01*
X117011428Y-79394047D01*
X116973333Y-79470238D01*
X116973333Y-79584523D01*
X117011428Y-79660714D01*
X117049523Y-79698809D01*
X117125714Y-79736904D01*
X117430476Y-79736904D01*
X117430476Y-78936904D01*
X117163809Y-78936904D01*
X117087619Y-78975000D01*
X117049523Y-79013095D01*
X117011428Y-79089285D01*
X117011428Y-79165476D01*
X117049523Y-79241666D01*
X117087619Y-79279761D01*
X117163809Y-79317857D01*
X117430476Y-79317857D01*
X116516190Y-79279761D02*
X116592380Y-79241666D01*
X116630476Y-79203571D01*
X116668571Y-79127380D01*
X116668571Y-79089285D01*
X116630476Y-79013095D01*
X116592380Y-78975000D01*
X116516190Y-78936904D01*
X116363809Y-78936904D01*
X116287619Y-78975000D01*
X116249523Y-79013095D01*
X116211428Y-79089285D01*
X116211428Y-79127380D01*
X116249523Y-79203571D01*
X116287619Y-79241666D01*
X116363809Y-79279761D01*
X116516190Y-79279761D01*
X116592380Y-79317857D01*
X116630476Y-79355952D01*
X116668571Y-79432142D01*
X116668571Y-79584523D01*
X116630476Y-79660714D01*
X116592380Y-79698809D01*
X116516190Y-79736904D01*
X116363809Y-79736904D01*
X116287619Y-79698809D01*
X116249523Y-79660714D01*
X116211428Y-79584523D01*
X116211428Y-79432142D01*
X116249523Y-79355952D01*
X116287619Y-79317857D01*
X116363809Y-79279761D01*
X130244761Y-79317857D02*
X130130476Y-79355952D01*
X130092380Y-79394047D01*
X130054285Y-79470238D01*
X130054285Y-79584523D01*
X130092380Y-79660714D01*
X130130476Y-79698809D01*
X130206666Y-79736904D01*
X130511428Y-79736904D01*
X130511428Y-78936904D01*
X130244761Y-78936904D01*
X130168571Y-78975000D01*
X130130476Y-79013095D01*
X130092380Y-79089285D01*
X130092380Y-79165476D01*
X130130476Y-79241666D01*
X130168571Y-79279761D01*
X130244761Y-79317857D01*
X130511428Y-79317857D01*
X129292380Y-79736904D02*
X129749523Y-79736904D01*
X129520952Y-79736904D02*
X129520952Y-78936904D01*
X129597142Y-79051190D01*
X129673333Y-79127380D01*
X129749523Y-79165476D01*
X128568571Y-78936904D02*
X128949523Y-78936904D01*
X128987619Y-79317857D01*
X128949523Y-79279761D01*
X128873333Y-79241666D01*
X128682857Y-79241666D01*
X128606666Y-79279761D01*
X128568571Y-79317857D01*
X128530476Y-79394047D01*
X128530476Y-79584523D01*
X128568571Y-79660714D01*
X128606666Y-79698809D01*
X128682857Y-79736904D01*
X128873333Y-79736904D01*
X128949523Y-79698809D01*
X128987619Y-79660714D01*
X125164761Y-79317857D02*
X125050476Y-79355952D01*
X125012380Y-79394047D01*
X124974285Y-79470238D01*
X124974285Y-79584523D01*
X125012380Y-79660714D01*
X125050476Y-79698809D01*
X125126666Y-79736904D01*
X125431428Y-79736904D01*
X125431428Y-78936904D01*
X125164761Y-78936904D01*
X125088571Y-78975000D01*
X125050476Y-79013095D01*
X125012380Y-79089285D01*
X125012380Y-79165476D01*
X125050476Y-79241666D01*
X125088571Y-79279761D01*
X125164761Y-79317857D01*
X125431428Y-79317857D01*
X124212380Y-79736904D02*
X124669523Y-79736904D01*
X124440952Y-79736904D02*
X124440952Y-78936904D01*
X124517142Y-79051190D01*
X124593333Y-79127380D01*
X124669523Y-79165476D01*
X123945714Y-78936904D02*
X123450476Y-78936904D01*
X123717142Y-79241666D01*
X123602857Y-79241666D01*
X123526666Y-79279761D01*
X123488571Y-79317857D01*
X123450476Y-79394047D01*
X123450476Y-79584523D01*
X123488571Y-79660714D01*
X123526666Y-79698809D01*
X123602857Y-79736904D01*
X123831428Y-79736904D01*
X123907619Y-79698809D01*
X123945714Y-79660714D01*
X114623809Y-79317857D02*
X114509523Y-79355952D01*
X114471428Y-79394047D01*
X114433333Y-79470238D01*
X114433333Y-79584523D01*
X114471428Y-79660714D01*
X114509523Y-79698809D01*
X114585714Y-79736904D01*
X114890476Y-79736904D01*
X114890476Y-78936904D01*
X114623809Y-78936904D01*
X114547619Y-78975000D01*
X114509523Y-79013095D01*
X114471428Y-79089285D01*
X114471428Y-79165476D01*
X114509523Y-79241666D01*
X114547619Y-79279761D01*
X114623809Y-79317857D01*
X114890476Y-79317857D01*
X114166666Y-78936904D02*
X113633333Y-78936904D01*
X113976190Y-79736904D01*
X122624761Y-79317857D02*
X122510476Y-79355952D01*
X122472380Y-79394047D01*
X122434285Y-79470238D01*
X122434285Y-79584523D01*
X122472380Y-79660714D01*
X122510476Y-79698809D01*
X122586666Y-79736904D01*
X122891428Y-79736904D01*
X122891428Y-78936904D01*
X122624761Y-78936904D01*
X122548571Y-78975000D01*
X122510476Y-79013095D01*
X122472380Y-79089285D01*
X122472380Y-79165476D01*
X122510476Y-79241666D01*
X122548571Y-79279761D01*
X122624761Y-79317857D01*
X122891428Y-79317857D01*
X121672380Y-79736904D02*
X122129523Y-79736904D01*
X121900952Y-79736904D02*
X121900952Y-78936904D01*
X121977142Y-79051190D01*
X122053333Y-79127380D01*
X122129523Y-79165476D01*
X121177142Y-78936904D02*
X121100952Y-78936904D01*
X121024761Y-78975000D01*
X120986666Y-79013095D01*
X120948571Y-79089285D01*
X120910476Y-79241666D01*
X120910476Y-79432142D01*
X120948571Y-79584523D01*
X120986666Y-79660714D01*
X121024761Y-79698809D01*
X121100952Y-79736904D01*
X121177142Y-79736904D01*
X121253333Y-79698809D01*
X121291428Y-79660714D01*
X121329523Y-79584523D01*
X121367619Y-79432142D01*
X121367619Y-79241666D01*
X121329523Y-79089285D01*
X121291428Y-79013095D01*
X121253333Y-78975000D01*
X121177142Y-78936904D01*
X119703809Y-79317857D02*
X119589523Y-79355952D01*
X119551428Y-79394047D01*
X119513333Y-79470238D01*
X119513333Y-79584523D01*
X119551428Y-79660714D01*
X119589523Y-79698809D01*
X119665714Y-79736904D01*
X119970476Y-79736904D01*
X119970476Y-78936904D01*
X119703809Y-78936904D01*
X119627619Y-78975000D01*
X119589523Y-79013095D01*
X119551428Y-79089285D01*
X119551428Y-79165476D01*
X119589523Y-79241666D01*
X119627619Y-79279761D01*
X119703809Y-79317857D01*
X119970476Y-79317857D01*
X119132380Y-79736904D02*
X118980000Y-79736904D01*
X118903809Y-79698809D01*
X118865714Y-79660714D01*
X118789523Y-79546428D01*
X118751428Y-79394047D01*
X118751428Y-79089285D01*
X118789523Y-79013095D01*
X118827619Y-78975000D01*
X118903809Y-78936904D01*
X119056190Y-78936904D01*
X119132380Y-78975000D01*
X119170476Y-79013095D01*
X119208571Y-79089285D01*
X119208571Y-79279761D01*
X119170476Y-79355952D01*
X119132380Y-79394047D01*
X119056190Y-79432142D01*
X118903809Y-79432142D01*
X118827619Y-79394047D01*
X118789523Y-79355952D01*
X118751428Y-79279761D01*
X135324761Y-79317857D02*
X135210476Y-79355952D01*
X135172380Y-79394047D01*
X135134285Y-79470238D01*
X135134285Y-79584523D01*
X135172380Y-79660714D01*
X135210476Y-79698809D01*
X135286666Y-79736904D01*
X135591428Y-79736904D01*
X135591428Y-78936904D01*
X135324761Y-78936904D01*
X135248571Y-78975000D01*
X135210476Y-79013095D01*
X135172380Y-79089285D01*
X135172380Y-79165476D01*
X135210476Y-79241666D01*
X135248571Y-79279761D01*
X135324761Y-79317857D01*
X135591428Y-79317857D01*
X134372380Y-79736904D02*
X134829523Y-79736904D01*
X134600952Y-79736904D02*
X134600952Y-78936904D01*
X134677142Y-79051190D01*
X134753333Y-79127380D01*
X134829523Y-79165476D01*
X134105714Y-78936904D02*
X133572380Y-78936904D01*
X133915238Y-79736904D01*
X112026666Y-79317857D02*
X112293333Y-79317857D01*
X112293333Y-79736904D02*
X112293333Y-78936904D01*
X111912380Y-78936904D01*
X111188571Y-79736904D02*
X111645714Y-79736904D01*
X111417142Y-79736904D02*
X111417142Y-78936904D01*
X111493333Y-79051190D01*
X111569523Y-79127380D01*
X111645714Y-79165476D01*
X127704761Y-79317857D02*
X127590476Y-79355952D01*
X127552380Y-79394047D01*
X127514285Y-79470238D01*
X127514285Y-79584523D01*
X127552380Y-79660714D01*
X127590476Y-79698809D01*
X127666666Y-79736904D01*
X127971428Y-79736904D01*
X127971428Y-78936904D01*
X127704761Y-78936904D01*
X127628571Y-78975000D01*
X127590476Y-79013095D01*
X127552380Y-79089285D01*
X127552380Y-79165476D01*
X127590476Y-79241666D01*
X127628571Y-79279761D01*
X127704761Y-79317857D01*
X127971428Y-79317857D01*
X126752380Y-79736904D02*
X127209523Y-79736904D01*
X126980952Y-79736904D02*
X126980952Y-78936904D01*
X127057142Y-79051190D01*
X127133333Y-79127380D01*
X127209523Y-79165476D01*
X126066666Y-79203571D02*
X126066666Y-79736904D01*
X126257142Y-78898809D02*
X126447619Y-79470238D01*
X125952380Y-79470238D01*
D11*
X92058748Y-55170000D02*
X92581252Y-55170000D01*
X92058748Y-56590000D02*
X92581252Y-56590000D01*
X110475000Y-54100000D02*
X110475000Y-47700000D01*
X105425000Y-54100000D02*
X105425000Y-47700000D01*
X105425000Y-54100000D02*
G75*
G03X110475000Y-54100000I2525000J0D01*
G01*
X105425000Y-47700000D02*
G75*
G02X110475000Y-47700000I2525000J0D01*
G01*
X85650000Y-42171252D02*
X85650000Y-41648748D01*
X87070000Y-42171252D02*
X87070000Y-41648748D01*
X114316252Y-52630000D02*
X113793748Y-52630000D01*
X114316252Y-54050000D02*
X113793748Y-54050000D01*
X113793748Y-47550000D02*
X114316252Y-47550000D01*
X113793748Y-48970000D02*
X114316252Y-48970000D01*
X97030000Y-54920000D02*
X98490000Y-54920000D01*
X97030000Y-51760000D02*
X99190000Y-51760000D01*
X97030000Y-51760000D02*
X97030000Y-52690000D01*
X97030000Y-54920000D02*
X97030000Y-53990000D01*
X97030000Y-49840000D02*
X98490000Y-49840000D01*
X97030000Y-46680000D02*
X99190000Y-46680000D01*
X97030000Y-46680000D02*
X97030000Y-47610000D01*
X97030000Y-49840000D02*
X97030000Y-48910000D01*
X92058748Y-44375000D02*
X92581252Y-44375000D01*
X92058748Y-45795000D02*
X92581252Y-45795000D01*
X102310000Y-53078748D02*
X102310000Y-53601252D01*
X100890000Y-53078748D02*
X100890000Y-53601252D01*
X100890000Y-47998748D02*
X100890000Y-48521252D01*
X102310000Y-47998748D02*
X102310000Y-48521252D01*
D10*
X92962857Y-54427380D02*
X93296190Y-53951190D01*
X93534285Y-54427380D02*
X93534285Y-53427380D01*
X93153333Y-53427380D01*
X93058095Y-53475000D01*
X93010476Y-53522619D01*
X92962857Y-53617857D01*
X92962857Y-53760714D01*
X93010476Y-53855952D01*
X93058095Y-53903571D01*
X93153333Y-53951190D01*
X93534285Y-53951190D01*
X92581904Y-53522619D02*
X92534285Y-53475000D01*
X92439047Y-53427380D01*
X92200952Y-53427380D01*
X92105714Y-53475000D01*
X92058095Y-53522619D01*
X92010476Y-53617857D01*
X92010476Y-53713095D01*
X92058095Y-53855952D01*
X92629523Y-54427380D01*
X92010476Y-54427380D01*
X91105714Y-53427380D02*
X91581904Y-53427380D01*
X91629523Y-53903571D01*
X91581904Y-53855952D01*
X91486666Y-53808333D01*
X91248571Y-53808333D01*
X91153333Y-53855952D01*
X91105714Y-53903571D01*
X91058095Y-53998809D01*
X91058095Y-54236904D01*
X91105714Y-54332142D01*
X91153333Y-54379761D01*
X91248571Y-54427380D01*
X91486666Y-54427380D01*
X91581904Y-54379761D01*
X91629523Y-54332142D01*
X108426190Y-43791190D02*
X108426190Y-44267380D01*
X108759523Y-43267380D02*
X108426190Y-43791190D01*
X108092857Y-43267380D01*
X107235714Y-44267380D02*
X107807142Y-44267380D01*
X107521428Y-44267380D02*
X107521428Y-43267380D01*
X107616666Y-43410238D01*
X107711904Y-43505476D01*
X107807142Y-43553095D01*
X86526666Y-39727142D02*
X86574285Y-39774761D01*
X86717142Y-39822380D01*
X86812380Y-39822380D01*
X86955238Y-39774761D01*
X87050476Y-39679523D01*
X87098095Y-39584285D01*
X87145714Y-39393809D01*
X87145714Y-39250952D01*
X87098095Y-39060476D01*
X87050476Y-38965238D01*
X86955238Y-38870000D01*
X86812380Y-38822380D01*
X86717142Y-38822380D01*
X86574285Y-38870000D01*
X86526666Y-38917619D01*
X86050476Y-39822380D02*
X85860000Y-39822380D01*
X85764761Y-39774761D01*
X85717142Y-39727142D01*
X85621904Y-39584285D01*
X85574285Y-39393809D01*
X85574285Y-39012857D01*
X85621904Y-38917619D01*
X85669523Y-38870000D01*
X85764761Y-38822380D01*
X85955238Y-38822380D01*
X86050476Y-38870000D01*
X86098095Y-38917619D01*
X86145714Y-39012857D01*
X86145714Y-39250952D01*
X86098095Y-39346190D01*
X86050476Y-39393809D01*
X85955238Y-39441428D01*
X85764761Y-39441428D01*
X85669523Y-39393809D01*
X85621904Y-39346190D01*
X85574285Y-39250952D01*
X118117857Y-53697142D02*
X118165476Y-53744761D01*
X118308333Y-53792380D01*
X118403571Y-53792380D01*
X118546428Y-53744761D01*
X118641666Y-53649523D01*
X118689285Y-53554285D01*
X118736904Y-53363809D01*
X118736904Y-53220952D01*
X118689285Y-53030476D01*
X118641666Y-52935238D01*
X118546428Y-52840000D01*
X118403571Y-52792380D01*
X118308333Y-52792380D01*
X118165476Y-52840000D01*
X118117857Y-52887619D01*
X117165476Y-53792380D02*
X117736904Y-53792380D01*
X117451190Y-53792380D02*
X117451190Y-52792380D01*
X117546428Y-52935238D01*
X117641666Y-53030476D01*
X117736904Y-53078095D01*
X116832142Y-52792380D02*
X116213095Y-52792380D01*
X116546428Y-53173333D01*
X116403571Y-53173333D01*
X116308333Y-53220952D01*
X116260714Y-53268571D01*
X116213095Y-53363809D01*
X116213095Y-53601904D01*
X116260714Y-53697142D01*
X116308333Y-53744761D01*
X116403571Y-53792380D01*
X116689285Y-53792380D01*
X116784523Y-53744761D01*
X116832142Y-53697142D01*
X118117857Y-48617142D02*
X118165476Y-48664761D01*
X118308333Y-48712380D01*
X118403571Y-48712380D01*
X118546428Y-48664761D01*
X118641666Y-48569523D01*
X118689285Y-48474285D01*
X118736904Y-48283809D01*
X118736904Y-48140952D01*
X118689285Y-47950476D01*
X118641666Y-47855238D01*
X118546428Y-47760000D01*
X118403571Y-47712380D01*
X118308333Y-47712380D01*
X118165476Y-47760000D01*
X118117857Y-47807619D01*
X117165476Y-48712380D02*
X117736904Y-48712380D01*
X117451190Y-48712380D02*
X117451190Y-47712380D01*
X117546428Y-47855238D01*
X117641666Y-47950476D01*
X117736904Y-47998095D01*
X116308333Y-48045714D02*
X116308333Y-48712380D01*
X116546428Y-47664761D02*
X116784523Y-48379047D01*
X116165476Y-48379047D01*
X97885238Y-56427619D02*
X97980476Y-56380000D01*
X98075714Y-56284761D01*
X98218571Y-56141904D01*
X98313809Y-56094285D01*
X98409047Y-56094285D01*
X98361428Y-56332380D02*
X98456666Y-56284761D01*
X98551904Y-56189523D01*
X98599523Y-55999047D01*
X98599523Y-55665714D01*
X98551904Y-55475238D01*
X98456666Y-55380000D01*
X98361428Y-55332380D01*
X98170952Y-55332380D01*
X98075714Y-55380000D01*
X97980476Y-55475238D01*
X97932857Y-55665714D01*
X97932857Y-55999047D01*
X97980476Y-56189523D01*
X98075714Y-56284761D01*
X98170952Y-56332380D01*
X98361428Y-56332380D01*
X96980476Y-56332380D02*
X97551904Y-56332380D01*
X97266190Y-56332380D02*
X97266190Y-55332380D01*
X97361428Y-55475238D01*
X97456666Y-55570476D01*
X97551904Y-55618095D01*
X97885238Y-46267619D02*
X97980476Y-46220000D01*
X98075714Y-46124761D01*
X98218571Y-45981904D01*
X98313809Y-45934285D01*
X98409047Y-45934285D01*
X98361428Y-46172380D02*
X98456666Y-46124761D01*
X98551904Y-46029523D01*
X98599523Y-45839047D01*
X98599523Y-45505714D01*
X98551904Y-45315238D01*
X98456666Y-45220000D01*
X98361428Y-45172380D01*
X98170952Y-45172380D01*
X98075714Y-45220000D01*
X97980476Y-45315238D01*
X97932857Y-45505714D01*
X97932857Y-45839047D01*
X97980476Y-46029523D01*
X98075714Y-46124761D01*
X98170952Y-46172380D01*
X98361428Y-46172380D01*
X97551904Y-45267619D02*
X97504285Y-45220000D01*
X97409047Y-45172380D01*
X97170952Y-45172380D01*
X97075714Y-45220000D01*
X97028095Y-45267619D01*
X96980476Y-45362857D01*
X96980476Y-45458095D01*
X97028095Y-45600952D01*
X97599523Y-46172380D01*
X96980476Y-46172380D01*
X92962857Y-47442380D02*
X93296190Y-46966190D01*
X93534285Y-47442380D02*
X93534285Y-46442380D01*
X93153333Y-46442380D01*
X93058095Y-46490000D01*
X93010476Y-46537619D01*
X92962857Y-46632857D01*
X92962857Y-46775714D01*
X93010476Y-46870952D01*
X93058095Y-46918571D01*
X93153333Y-46966190D01*
X93534285Y-46966190D01*
X92581904Y-46537619D02*
X92534285Y-46490000D01*
X92439047Y-46442380D01*
X92200952Y-46442380D01*
X92105714Y-46490000D01*
X92058095Y-46537619D01*
X92010476Y-46632857D01*
X92010476Y-46728095D01*
X92058095Y-46870952D01*
X92629523Y-47442380D01*
X92010476Y-47442380D01*
X91153333Y-46442380D02*
X91343809Y-46442380D01*
X91439047Y-46490000D01*
X91486666Y-46537619D01*
X91581904Y-46680476D01*
X91629523Y-46870952D01*
X91629523Y-47251904D01*
X91581904Y-47347142D01*
X91534285Y-47394761D01*
X91439047Y-47442380D01*
X91248571Y-47442380D01*
X91153333Y-47394761D01*
X91105714Y-47347142D01*
X91058095Y-47251904D01*
X91058095Y-47013809D01*
X91105714Y-46918571D01*
X91153333Y-46870952D01*
X91248571Y-46823333D01*
X91439047Y-46823333D01*
X91534285Y-46870952D01*
X91581904Y-46918571D01*
X91629523Y-47013809D01*
X102242857Y-56332380D02*
X102576190Y-55856190D01*
X102814285Y-56332380D02*
X102814285Y-55332380D01*
X102433333Y-55332380D01*
X102338095Y-55380000D01*
X102290476Y-55427619D01*
X102242857Y-55522857D01*
X102242857Y-55665714D01*
X102290476Y-55760952D01*
X102338095Y-55808571D01*
X102433333Y-55856190D01*
X102814285Y-55856190D01*
X101861904Y-55427619D02*
X101814285Y-55380000D01*
X101719047Y-55332380D01*
X101480952Y-55332380D01*
X101385714Y-55380000D01*
X101338095Y-55427619D01*
X101290476Y-55522857D01*
X101290476Y-55618095D01*
X101338095Y-55760952D01*
X101909523Y-56332380D01*
X101290476Y-56332380D01*
X100957142Y-55332380D02*
X100290476Y-55332380D01*
X100719047Y-56332380D01*
X102242857Y-46172380D02*
X102576190Y-45696190D01*
X102814285Y-46172380D02*
X102814285Y-45172380D01*
X102433333Y-45172380D01*
X102338095Y-45220000D01*
X102290476Y-45267619D01*
X102242857Y-45362857D01*
X102242857Y-45505714D01*
X102290476Y-45600952D01*
X102338095Y-45648571D01*
X102433333Y-45696190D01*
X102814285Y-45696190D01*
X101861904Y-45267619D02*
X101814285Y-45220000D01*
X101719047Y-45172380D01*
X101480952Y-45172380D01*
X101385714Y-45220000D01*
X101338095Y-45267619D01*
X101290476Y-45362857D01*
X101290476Y-45458095D01*
X101338095Y-45600952D01*
X101909523Y-46172380D01*
X101290476Y-46172380D01*
X100719047Y-45600952D02*
X100814285Y-45553333D01*
X100861904Y-45505714D01*
X100909523Y-45410476D01*
X100909523Y-45362857D01*
X100861904Y-45267619D01*
X100814285Y-45220000D01*
X100719047Y-45172380D01*
X100528571Y-45172380D01*
X100433333Y-45220000D01*
X100385714Y-45267619D01*
X100338095Y-45362857D01*
X100338095Y-45410476D01*
X100385714Y-45505714D01*
X100433333Y-45553333D01*
X100528571Y-45600952D01*
X100719047Y-45600952D01*
X100814285Y-45648571D01*
X100861904Y-45696190D01*
X100909523Y-45791428D01*
X100909523Y-45981904D01*
X100861904Y-46077142D01*
X100814285Y-46124761D01*
X100719047Y-46172380D01*
X100528571Y-46172380D01*
X100433333Y-46124761D01*
X100385714Y-46077142D01*
X100338095Y-45981904D01*
X100338095Y-45791428D01*
X100385714Y-45696190D01*
X100433333Y-45648571D01*
X100528571Y-45600952D01*
M02*
