G04 #@! TF.GenerationSoftware,KiCad,Pcbnew,5.1.10-88a1d61d58~90~ubuntu20.04.1*
G04 #@! TF.CreationDate,2021-11-05T20:40:26+01:00*
G04 #@! TF.ProjectId,FPGC4IOboard,46504743-3449-44f6-926f-6172642e6b69,rev?*
G04 #@! TF.SameCoordinates,Original*
G04 #@! TF.FileFunction,Copper,L1,Top*
G04 #@! TF.FilePolarity,Positive*
%FSLAX46Y46*%
G04 Gerber Fmt 4.6, Leading zero omitted, Abs format (unit mm)*
G04 Created by KiCad (PCBNEW 5.1.10-88a1d61d58~90~ubuntu20.04.1) date 2021-11-05 20:40:26*
%MOMM*%
%LPD*%
G01*
G04 APERTURE LIST*
G04 #@! TA.AperFunction,ComponentPad*
%ADD10C,2.100000*%
G04 #@! TD*
G04 #@! TA.AperFunction,ComponentPad*
%ADD11C,1.750000*%
G04 #@! TD*
G04 #@! TA.AperFunction,SMDPad,CuDef*
%ADD12R,2.440000X1.120000*%
G04 #@! TD*
G04 #@! TA.AperFunction,ComponentPad*
%ADD13R,1.700000X1.700000*%
G04 #@! TD*
G04 #@! TA.AperFunction,ComponentPad*
%ADD14O,1.700000X1.700000*%
G04 #@! TD*
G04 #@! TA.AperFunction,SMDPad,CuDef*
%ADD15R,0.300000X1.400000*%
G04 #@! TD*
G04 #@! TA.AperFunction,ComponentPad*
%ADD16R,1.600000X1.600000*%
G04 #@! TD*
G04 #@! TA.AperFunction,ComponentPad*
%ADD17C,1.600000*%
G04 #@! TD*
G04 #@! TA.AperFunction,ComponentPad*
%ADD18R,1.200000X1.200000*%
G04 #@! TD*
G04 #@! TA.AperFunction,ComponentPad*
%ADD19C,1.200000*%
G04 #@! TD*
G04 #@! TA.AperFunction,ComponentPad*
%ADD20O,2.000000X1.600000*%
G04 #@! TD*
G04 #@! TA.AperFunction,ComponentPad*
%ADD21O,2.600000X1.800000*%
G04 #@! TD*
G04 #@! TA.AperFunction,SMDPad,CuDef*
%ADD22R,3.000000X1.500000*%
G04 #@! TD*
G04 #@! TA.AperFunction,ComponentPad*
%ADD23O,4.000000X2.000000*%
G04 #@! TD*
G04 #@! TA.AperFunction,ComponentPad*
%ADD24O,2.000000X3.500000*%
G04 #@! TD*
G04 #@! TA.AperFunction,ComponentPad*
%ADD25C,1.500000*%
G04 #@! TD*
G04 #@! TA.AperFunction,ComponentPad*
%ADD26C,3.000000*%
G04 #@! TD*
G04 #@! TA.AperFunction,ComponentPad*
%ADD27R,1.500000X1.500000*%
G04 #@! TD*
G04 #@! TA.AperFunction,ComponentPad*
%ADD28O,2.300000X1.500000*%
G04 #@! TD*
G04 #@! TA.AperFunction,ComponentPad*
%ADD29O,3.500000X1.700000*%
G04 #@! TD*
G04 #@! TA.AperFunction,SMDPad,CuDef*
%ADD30R,2.600000X0.300000*%
G04 #@! TD*
G04 #@! TA.AperFunction,ComponentPad*
%ADD31C,6.400000*%
G04 #@! TD*
G04 #@! TA.AperFunction,SMDPad,CuDef*
%ADD32R,1.350000X0.450000*%
G04 #@! TD*
G04 #@! TA.AperFunction,SMDPad,CuDef*
%ADD33R,2.500000X2.200000*%
G04 #@! TD*
G04 #@! TA.AperFunction,SMDPad,CuDef*
%ADD34R,1.200000X2.000000*%
G04 #@! TD*
G04 #@! TA.AperFunction,ComponentPad*
%ADD35O,1.900000X1.200000*%
G04 #@! TD*
G04 #@! TA.AperFunction,SMDPad,CuDef*
%ADD36R,1.060000X0.650000*%
G04 #@! TD*
G04 #@! TA.AperFunction,SMDPad,CuDef*
%ADD37R,0.650000X1.060000*%
G04 #@! TD*
G04 #@! TA.AperFunction,ComponentPad*
%ADD38C,2.550000*%
G04 #@! TD*
G04 #@! TA.AperFunction,ComponentPad*
%ADD39C,3.616000*%
G04 #@! TD*
G04 #@! TA.AperFunction,ViaPad*
%ADD40C,1.400000*%
G04 #@! TD*
G04 #@! TA.AperFunction,ViaPad*
%ADD41C,0.800000*%
G04 #@! TD*
G04 #@! TA.AperFunction,Conductor*
%ADD42C,0.500000*%
G04 #@! TD*
G04 #@! TA.AperFunction,Conductor*
%ADD43C,0.250000*%
G04 #@! TD*
G04 #@! TA.AperFunction,Conductor*
%ADD44C,0.200000*%
G04 #@! TD*
G04 APERTURE END LIST*
D10*
X83770000Y-66020000D03*
D11*
X81280000Y-64770000D03*
X81280000Y-60270000D03*
D10*
X83770000Y-59010000D03*
D12*
X80785000Y-51435000D03*
X89395000Y-43815000D03*
X80785000Y-48895000D03*
X89395000Y-46355000D03*
X80785000Y-46355000D03*
X89395000Y-48895000D03*
X80785000Y-43815000D03*
X89395000Y-51435000D03*
D13*
X132715000Y-102870000D03*
D14*
X132715000Y-100330000D03*
X130175000Y-102870000D03*
X130175000Y-100330000D03*
X127635000Y-102870000D03*
X127635000Y-100330000D03*
X125095000Y-102870000D03*
X125095000Y-100330000D03*
X122555000Y-102870000D03*
X122555000Y-100330000D03*
X120015000Y-102870000D03*
X120015000Y-100330000D03*
X117475000Y-102870000D03*
X117475000Y-100330000D03*
X114935000Y-102870000D03*
X114935000Y-100330000D03*
X112395000Y-102870000D03*
X112395000Y-100330000D03*
X109855000Y-102870000D03*
X109855000Y-100330000D03*
X109855000Y-95250000D03*
X109855000Y-97790000D03*
X112395000Y-95250000D03*
X112395000Y-97790000D03*
X114935000Y-95250000D03*
X114935000Y-97790000D03*
X117475000Y-95250000D03*
X117475000Y-97790000D03*
X120015000Y-95250000D03*
X120015000Y-97790000D03*
X122555000Y-95250000D03*
X122555000Y-97790000D03*
X125095000Y-95250000D03*
X125095000Y-97790000D03*
X127635000Y-95250000D03*
X127635000Y-97790000D03*
X130175000Y-95250000D03*
X130175000Y-97790000D03*
X132715000Y-95250000D03*
D13*
X132715000Y-97790000D03*
X133985000Y-56515000D03*
D15*
X129270000Y-73320000D03*
X128770000Y-73320000D03*
X128270000Y-73320000D03*
X127770000Y-73320000D03*
X127270000Y-73320000D03*
X127270000Y-68920000D03*
X127770000Y-68920000D03*
X128270000Y-68920000D03*
X128770000Y-68920000D03*
X129270000Y-68920000D03*
D16*
X154305000Y-99060000D03*
D17*
X154305000Y-101060000D03*
D18*
X104140000Y-51435000D03*
D19*
X102140000Y-51435000D03*
D20*
X163980000Y-75960000D03*
X166980000Y-75960000D03*
X159980000Y-75960000D03*
X158880000Y-71360000D03*
D13*
X104140000Y-133985000D03*
D14*
X101600000Y-133985000D03*
X99060000Y-133985000D03*
X96520000Y-133985000D03*
X93980000Y-133985000D03*
X91440000Y-133985000D03*
X88900000Y-133985000D03*
D13*
X131445000Y-133985000D03*
D14*
X128905000Y-133985000D03*
X126365000Y-133985000D03*
X123825000Y-133985000D03*
X121285000Y-133985000D03*
X118745000Y-133985000D03*
X116205000Y-133985000D03*
X113665000Y-133985000D03*
X111125000Y-133985000D03*
X108585000Y-133985000D03*
X143510000Y-56515000D03*
X146050000Y-56515000D03*
X148590000Y-56515000D03*
X151130000Y-56515000D03*
X153670000Y-56515000D03*
D13*
X156210000Y-56515000D03*
X156210000Y-36195000D03*
D14*
X153670000Y-36195000D03*
X151130000Y-36195000D03*
X148590000Y-36195000D03*
X146050000Y-36195000D03*
X143510000Y-36195000D03*
D13*
X128905000Y-36195000D03*
D14*
X131445000Y-36195000D03*
X133985000Y-36195000D03*
D10*
X83770000Y-119970000D03*
D11*
X81280000Y-121230000D03*
X81280000Y-125730000D03*
D10*
X83770000Y-126980000D03*
D21*
X89535000Y-105690000D03*
X89535000Y-110490000D03*
X89535000Y-115290000D03*
D22*
X82035000Y-103990000D03*
X82035000Y-116990000D03*
D23*
X118140000Y-38895000D03*
D17*
X121540000Y-45345000D03*
X114740000Y-45345000D03*
X121540000Y-42545000D03*
X114740000Y-42545000D03*
X119440000Y-42545000D03*
D16*
X116840000Y-42545000D03*
D24*
X111290000Y-39695000D03*
X124990000Y-39695000D03*
D25*
X97140000Y-43735000D03*
X99640000Y-43735000D03*
X101640000Y-43735000D03*
X104140000Y-43735000D03*
D26*
X94070000Y-41025000D03*
X107210000Y-41025000D03*
D25*
X97140000Y-46355000D03*
X99640000Y-46355000D03*
X101640000Y-46355000D03*
D27*
X104140000Y-46355000D03*
D26*
X107210000Y-46705000D03*
X94070000Y-46705000D03*
D28*
X166370000Y-116724000D03*
X166370000Y-102224000D03*
D29*
X160410000Y-116724000D03*
X160410000Y-102224000D03*
D30*
X159650000Y-113974000D03*
X159650000Y-113474000D03*
X159650000Y-112974000D03*
X159650000Y-112474000D03*
X159650000Y-111974000D03*
X159650000Y-111474000D03*
X159650000Y-110974000D03*
X159650000Y-110474000D03*
X159650000Y-109974000D03*
X159650000Y-109474000D03*
X159650000Y-108974000D03*
X159650000Y-108474000D03*
X159650000Y-107974000D03*
X159650000Y-107474000D03*
X159650000Y-106974000D03*
X159650000Y-106474000D03*
X159650000Y-105974000D03*
X159650000Y-105474000D03*
X159650000Y-104974000D03*
D31*
X166370000Y-37465000D03*
X82550000Y-37465000D03*
X82550000Y-132715000D03*
X166370000Y-132715000D03*
D14*
X167640000Y-121920000D03*
X167640000Y-124460000D03*
X165100000Y-121920000D03*
X165100000Y-124460000D03*
X162560000Y-121920000D03*
X162560000Y-124460000D03*
X160020000Y-121920000D03*
X160020000Y-124460000D03*
X157480000Y-121920000D03*
X157480000Y-124460000D03*
X154940000Y-121920000D03*
X154940000Y-124460000D03*
X152400000Y-121920000D03*
X152400000Y-124460000D03*
X149860000Y-121920000D03*
X149860000Y-124460000D03*
X147320000Y-121920000D03*
X147320000Y-124460000D03*
X144780000Y-121920000D03*
X144780000Y-124460000D03*
X142240000Y-121920000D03*
X142240000Y-124460000D03*
X139700000Y-121920000D03*
X139700000Y-124460000D03*
X137160000Y-121920000D03*
X137160000Y-124460000D03*
X134620000Y-121920000D03*
X134620000Y-124460000D03*
X132080000Y-121920000D03*
X132080000Y-124460000D03*
X129540000Y-121920000D03*
X129540000Y-124460000D03*
X127000000Y-121920000D03*
X127000000Y-124460000D03*
X124460000Y-121920000D03*
X124460000Y-124460000D03*
X121920000Y-121920000D03*
X121920000Y-124460000D03*
X119380000Y-121920000D03*
X119380000Y-124460000D03*
X116840000Y-121920000D03*
X116840000Y-124460000D03*
X114300000Y-121920000D03*
X114300000Y-124460000D03*
X111760000Y-121920000D03*
X111760000Y-124460000D03*
X109220000Y-121920000D03*
X109220000Y-124460000D03*
X106680000Y-121920000D03*
X106680000Y-124460000D03*
X104140000Y-121920000D03*
X104140000Y-124460000D03*
X101600000Y-121920000D03*
X101600000Y-124460000D03*
X99060000Y-121920000D03*
X99060000Y-124460000D03*
X96520000Y-121920000D03*
X96520000Y-124460000D03*
X93980000Y-121920000D03*
X93980000Y-124460000D03*
X91440000Y-121920000D03*
X91440000Y-124460000D03*
X88900000Y-121920000D03*
D13*
X88900000Y-124460000D03*
X88900000Y-63500000D03*
D14*
X88900000Y-60960000D03*
X91440000Y-63500000D03*
X91440000Y-60960000D03*
X93980000Y-63500000D03*
X93980000Y-60960000D03*
X96520000Y-63500000D03*
X96520000Y-60960000D03*
X99060000Y-63500000D03*
X99060000Y-60960000D03*
X101600000Y-63500000D03*
X101600000Y-60960000D03*
X104140000Y-63500000D03*
X104140000Y-60960000D03*
X106680000Y-63500000D03*
X106680000Y-60960000D03*
X109220000Y-63500000D03*
X109220000Y-60960000D03*
X111760000Y-63500000D03*
X111760000Y-60960000D03*
X114300000Y-63500000D03*
X114300000Y-60960000D03*
X116840000Y-63500000D03*
X116840000Y-60960000D03*
X119380000Y-63500000D03*
X119380000Y-60960000D03*
X121920000Y-63500000D03*
X121920000Y-60960000D03*
X124460000Y-63500000D03*
X124460000Y-60960000D03*
X127000000Y-63500000D03*
X127000000Y-60960000D03*
X129540000Y-63500000D03*
X129540000Y-60960000D03*
X132080000Y-63500000D03*
X132080000Y-60960000D03*
X134620000Y-63500000D03*
X134620000Y-60960000D03*
X137160000Y-63500000D03*
X137160000Y-60960000D03*
X139700000Y-63500000D03*
X139700000Y-60960000D03*
X142240000Y-63500000D03*
X142240000Y-60960000D03*
X144780000Y-63500000D03*
X144780000Y-60960000D03*
X147320000Y-63500000D03*
X147320000Y-60960000D03*
X149860000Y-63500000D03*
X149860000Y-60960000D03*
X152400000Y-63500000D03*
X152400000Y-60960000D03*
X154940000Y-63500000D03*
X154940000Y-60960000D03*
X157480000Y-63500000D03*
X157480000Y-60960000D03*
X160020000Y-63500000D03*
X160020000Y-60960000D03*
X162560000Y-63500000D03*
X162560000Y-60960000D03*
X165100000Y-63500000D03*
X165100000Y-60960000D03*
X167640000Y-63500000D03*
X167640000Y-60960000D03*
G04 #@! TA.AperFunction,SMDPad,CuDef*
G36*
G01*
X139652500Y-117635000D02*
X139652500Y-118585000D01*
G75*
G02*
X139402500Y-118835000I-250000J0D01*
G01*
X138727500Y-118835000D01*
G75*
G02*
X138477500Y-118585000I0J250000D01*
G01*
X138477500Y-117635000D01*
G75*
G02*
X138727500Y-117385000I250000J0D01*
G01*
X139402500Y-117385000D01*
G75*
G02*
X139652500Y-117635000I0J-250000D01*
G01*
G37*
G04 #@! TD.AperFunction*
G04 #@! TA.AperFunction,SMDPad,CuDef*
G36*
G01*
X137577500Y-117635000D02*
X137577500Y-118585000D01*
G75*
G02*
X137327500Y-118835000I-250000J0D01*
G01*
X136652500Y-118835000D01*
G75*
G02*
X136402500Y-118585000I0J250000D01*
G01*
X136402500Y-117635000D01*
G75*
G02*
X136652500Y-117385000I250000J0D01*
G01*
X137327500Y-117385000D01*
G75*
G02*
X137577500Y-117635000I0J-250000D01*
G01*
G37*
G04 #@! TD.AperFunction*
G04 #@! TA.AperFunction,SMDPad,CuDef*
G36*
G01*
X143035000Y-114750000D02*
X143985000Y-114750000D01*
G75*
G02*
X144235000Y-115000000I0J-250000D01*
G01*
X144235000Y-115675000D01*
G75*
G02*
X143985000Y-115925000I-250000J0D01*
G01*
X143035000Y-115925000D01*
G75*
G02*
X142785000Y-115675000I0J250000D01*
G01*
X142785000Y-115000000D01*
G75*
G02*
X143035000Y-114750000I250000J0D01*
G01*
G37*
G04 #@! TD.AperFunction*
G04 #@! TA.AperFunction,SMDPad,CuDef*
G36*
G01*
X143035000Y-112675000D02*
X143985000Y-112675000D01*
G75*
G02*
X144235000Y-112925000I0J-250000D01*
G01*
X144235000Y-113600000D01*
G75*
G02*
X143985000Y-113850000I-250000J0D01*
G01*
X143035000Y-113850000D01*
G75*
G02*
X142785000Y-113600000I0J250000D01*
G01*
X142785000Y-112925000D01*
G75*
G02*
X143035000Y-112675000I250000J0D01*
G01*
G37*
G04 #@! TD.AperFunction*
G04 #@! TA.AperFunction,SMDPad,CuDef*
G36*
G01*
X122972500Y-71280000D02*
X122972500Y-72230000D01*
G75*
G02*
X122722500Y-72480000I-250000J0D01*
G01*
X122047500Y-72480000D01*
G75*
G02*
X121797500Y-72230000I0J250000D01*
G01*
X121797500Y-71280000D01*
G75*
G02*
X122047500Y-71030000I250000J0D01*
G01*
X122722500Y-71030000D01*
G75*
G02*
X122972500Y-71280000I0J-250000D01*
G01*
G37*
G04 #@! TD.AperFunction*
G04 #@! TA.AperFunction,SMDPad,CuDef*
G36*
G01*
X125047500Y-71280000D02*
X125047500Y-72230000D01*
G75*
G02*
X124797500Y-72480000I-250000J0D01*
G01*
X124122500Y-72480000D01*
G75*
G02*
X123872500Y-72230000I0J250000D01*
G01*
X123872500Y-71280000D01*
G75*
G02*
X124122500Y-71030000I250000J0D01*
G01*
X124797500Y-71030000D01*
G75*
G02*
X125047500Y-71280000I0J-250000D01*
G01*
G37*
G04 #@! TD.AperFunction*
G04 #@! TA.AperFunction,SMDPad,CuDef*
G36*
G01*
X125047500Y-68740000D02*
X125047500Y-69690000D01*
G75*
G02*
X124797500Y-69940000I-250000J0D01*
G01*
X124122500Y-69940000D01*
G75*
G02*
X123872500Y-69690000I0J250000D01*
G01*
X123872500Y-68740000D01*
G75*
G02*
X124122500Y-68490000I250000J0D01*
G01*
X124797500Y-68490000D01*
G75*
G02*
X125047500Y-68740000I0J-250000D01*
G01*
G37*
G04 #@! TD.AperFunction*
G04 #@! TA.AperFunction,SMDPad,CuDef*
G36*
G01*
X122972500Y-68740000D02*
X122972500Y-69690000D01*
G75*
G02*
X122722500Y-69940000I-250000J0D01*
G01*
X122047500Y-69940000D01*
G75*
G02*
X121797500Y-69690000I0J250000D01*
G01*
X121797500Y-68740000D01*
G75*
G02*
X122047500Y-68490000I250000J0D01*
G01*
X122722500Y-68490000D01*
G75*
G02*
X122972500Y-68740000I0J-250000D01*
G01*
G37*
G04 #@! TD.AperFunction*
G04 #@! TA.AperFunction,SMDPad,CuDef*
G36*
G01*
X122972500Y-73820000D02*
X122972500Y-74770000D01*
G75*
G02*
X122722500Y-75020000I-250000J0D01*
G01*
X122047500Y-75020000D01*
G75*
G02*
X121797500Y-74770000I0J250000D01*
G01*
X121797500Y-73820000D01*
G75*
G02*
X122047500Y-73570000I250000J0D01*
G01*
X122722500Y-73570000D01*
G75*
G02*
X122972500Y-73820000I0J-250000D01*
G01*
G37*
G04 #@! TD.AperFunction*
G04 #@! TA.AperFunction,SMDPad,CuDef*
G36*
G01*
X125047500Y-73820000D02*
X125047500Y-74770000D01*
G75*
G02*
X124797500Y-75020000I-250000J0D01*
G01*
X124122500Y-75020000D01*
G75*
G02*
X123872500Y-74770000I0J250000D01*
G01*
X123872500Y-73820000D01*
G75*
G02*
X124122500Y-73570000I250000J0D01*
G01*
X124797500Y-73570000D01*
G75*
G02*
X125047500Y-73820000I0J-250000D01*
G01*
G37*
G04 #@! TD.AperFunction*
G04 #@! TA.AperFunction,SMDPad,CuDef*
G36*
G01*
X102075000Y-85212500D02*
X101125000Y-85212500D01*
G75*
G02*
X100875000Y-84962500I0J250000D01*
G01*
X100875000Y-84287500D01*
G75*
G02*
X101125000Y-84037500I250000J0D01*
G01*
X102075000Y-84037500D01*
G75*
G02*
X102325000Y-84287500I0J-250000D01*
G01*
X102325000Y-84962500D01*
G75*
G02*
X102075000Y-85212500I-250000J0D01*
G01*
G37*
G04 #@! TD.AperFunction*
G04 #@! TA.AperFunction,SMDPad,CuDef*
G36*
G01*
X102075000Y-83137500D02*
X101125000Y-83137500D01*
G75*
G02*
X100875000Y-82887500I0J250000D01*
G01*
X100875000Y-82212500D01*
G75*
G02*
X101125000Y-81962500I250000J0D01*
G01*
X102075000Y-81962500D01*
G75*
G02*
X102325000Y-82212500I0J-250000D01*
G01*
X102325000Y-82887500D01*
G75*
G02*
X102075000Y-83137500I-250000J0D01*
G01*
G37*
G04 #@! TD.AperFunction*
G04 #@! TA.AperFunction,SMDPad,CuDef*
G36*
G01*
X104615000Y-85212500D02*
X103665000Y-85212500D01*
G75*
G02*
X103415000Y-84962500I0J250000D01*
G01*
X103415000Y-84287500D01*
G75*
G02*
X103665000Y-84037500I250000J0D01*
G01*
X104615000Y-84037500D01*
G75*
G02*
X104865000Y-84287500I0J-250000D01*
G01*
X104865000Y-84962500D01*
G75*
G02*
X104615000Y-85212500I-250000J0D01*
G01*
G37*
G04 #@! TD.AperFunction*
G04 #@! TA.AperFunction,SMDPad,CuDef*
G36*
G01*
X104615000Y-83137500D02*
X103665000Y-83137500D01*
G75*
G02*
X103415000Y-82887500I0J250000D01*
G01*
X103415000Y-82212500D01*
G75*
G02*
X103665000Y-81962500I250000J0D01*
G01*
X104615000Y-81962500D01*
G75*
G02*
X104865000Y-82212500I0J-250000D01*
G01*
X104865000Y-82887500D01*
G75*
G02*
X104615000Y-83137500I-250000J0D01*
G01*
G37*
G04 #@! TD.AperFunction*
G04 #@! TA.AperFunction,SMDPad,CuDef*
G36*
G01*
X98585000Y-87847500D02*
X99535000Y-87847500D01*
G75*
G02*
X99785000Y-88097500I0J-250000D01*
G01*
X99785000Y-88772500D01*
G75*
G02*
X99535000Y-89022500I-250000J0D01*
G01*
X98585000Y-89022500D01*
G75*
G02*
X98335000Y-88772500I0J250000D01*
G01*
X98335000Y-88097500D01*
G75*
G02*
X98585000Y-87847500I250000J0D01*
G01*
G37*
G04 #@! TD.AperFunction*
G04 #@! TA.AperFunction,SMDPad,CuDef*
G36*
G01*
X98585000Y-85772500D02*
X99535000Y-85772500D01*
G75*
G02*
X99785000Y-86022500I0J-250000D01*
G01*
X99785000Y-86697500D01*
G75*
G02*
X99535000Y-86947500I-250000J0D01*
G01*
X98585000Y-86947500D01*
G75*
G02*
X98335000Y-86697500I0J250000D01*
G01*
X98335000Y-86022500D01*
G75*
G02*
X98585000Y-85772500I250000J0D01*
G01*
G37*
G04 #@! TD.AperFunction*
G04 #@! TA.AperFunction,SMDPad,CuDef*
G36*
G01*
X94455000Y-86947500D02*
X93505000Y-86947500D01*
G75*
G02*
X93255000Y-86697500I0J250000D01*
G01*
X93255000Y-86022500D01*
G75*
G02*
X93505000Y-85772500I250000J0D01*
G01*
X94455000Y-85772500D01*
G75*
G02*
X94705000Y-86022500I0J-250000D01*
G01*
X94705000Y-86697500D01*
G75*
G02*
X94455000Y-86947500I-250000J0D01*
G01*
G37*
G04 #@! TD.AperFunction*
G04 #@! TA.AperFunction,SMDPad,CuDef*
G36*
G01*
X94455000Y-89022500D02*
X93505000Y-89022500D01*
G75*
G02*
X93255000Y-88772500I0J250000D01*
G01*
X93255000Y-88097500D01*
G75*
G02*
X93505000Y-87847500I250000J0D01*
G01*
X94455000Y-87847500D01*
G75*
G02*
X94705000Y-88097500I0J-250000D01*
G01*
X94705000Y-88772500D01*
G75*
G02*
X94455000Y-89022500I-250000J0D01*
G01*
G37*
G04 #@! TD.AperFunction*
G04 #@! TA.AperFunction,SMDPad,CuDef*
G36*
G01*
X111285000Y-85772500D02*
X112235000Y-85772500D01*
G75*
G02*
X112485000Y-86022500I0J-250000D01*
G01*
X112485000Y-86697500D01*
G75*
G02*
X112235000Y-86947500I-250000J0D01*
G01*
X111285000Y-86947500D01*
G75*
G02*
X111035000Y-86697500I0J250000D01*
G01*
X111035000Y-86022500D01*
G75*
G02*
X111285000Y-85772500I250000J0D01*
G01*
G37*
G04 #@! TD.AperFunction*
G04 #@! TA.AperFunction,SMDPad,CuDef*
G36*
G01*
X111285000Y-87847500D02*
X112235000Y-87847500D01*
G75*
G02*
X112485000Y-88097500I0J-250000D01*
G01*
X112485000Y-88772500D01*
G75*
G02*
X112235000Y-89022500I-250000J0D01*
G01*
X111285000Y-89022500D01*
G75*
G02*
X111035000Y-88772500I0J250000D01*
G01*
X111035000Y-88097500D01*
G75*
G02*
X111285000Y-87847500I250000J0D01*
G01*
G37*
G04 #@! TD.AperFunction*
G04 #@! TA.AperFunction,SMDPad,CuDef*
G36*
G01*
X107155000Y-86947500D02*
X106205000Y-86947500D01*
G75*
G02*
X105955000Y-86697500I0J250000D01*
G01*
X105955000Y-86022500D01*
G75*
G02*
X106205000Y-85772500I250000J0D01*
G01*
X107155000Y-85772500D01*
G75*
G02*
X107405000Y-86022500I0J-250000D01*
G01*
X107405000Y-86697500D01*
G75*
G02*
X107155000Y-86947500I-250000J0D01*
G01*
G37*
G04 #@! TD.AperFunction*
G04 #@! TA.AperFunction,SMDPad,CuDef*
G36*
G01*
X107155000Y-89022500D02*
X106205000Y-89022500D01*
G75*
G02*
X105955000Y-88772500I0J250000D01*
G01*
X105955000Y-88097500D01*
G75*
G02*
X106205000Y-87847500I250000J0D01*
G01*
X107155000Y-87847500D01*
G75*
G02*
X107405000Y-88097500I0J-250000D01*
G01*
X107405000Y-88772500D01*
G75*
G02*
X107155000Y-89022500I-250000J0D01*
G01*
G37*
G04 #@! TD.AperFunction*
G04 #@! TA.AperFunction,SMDPad,CuDef*
G36*
G01*
X155735000Y-78617500D02*
X156685000Y-78617500D01*
G75*
G02*
X156935000Y-78867500I0J-250000D01*
G01*
X156935000Y-79542500D01*
G75*
G02*
X156685000Y-79792500I-250000J0D01*
G01*
X155735000Y-79792500D01*
G75*
G02*
X155485000Y-79542500I0J250000D01*
G01*
X155485000Y-78867500D01*
G75*
G02*
X155735000Y-78617500I250000J0D01*
G01*
G37*
G04 #@! TD.AperFunction*
G04 #@! TA.AperFunction,SMDPad,CuDef*
G36*
G01*
X155735000Y-80692500D02*
X156685000Y-80692500D01*
G75*
G02*
X156935000Y-80942500I0J-250000D01*
G01*
X156935000Y-81617500D01*
G75*
G02*
X156685000Y-81867500I-250000J0D01*
G01*
X155735000Y-81867500D01*
G75*
G02*
X155485000Y-81617500I0J250000D01*
G01*
X155485000Y-80942500D01*
G75*
G02*
X155735000Y-80692500I250000J0D01*
G01*
G37*
G04 #@! TD.AperFunction*
G04 #@! TA.AperFunction,SMDPad,CuDef*
G36*
G01*
X132555000Y-69802500D02*
X131605000Y-69802500D01*
G75*
G02*
X131355000Y-69552500I0J250000D01*
G01*
X131355000Y-68877500D01*
G75*
G02*
X131605000Y-68627500I250000J0D01*
G01*
X132555000Y-68627500D01*
G75*
G02*
X132805000Y-68877500I0J-250000D01*
G01*
X132805000Y-69552500D01*
G75*
G02*
X132555000Y-69802500I-250000J0D01*
G01*
G37*
G04 #@! TD.AperFunction*
G04 #@! TA.AperFunction,SMDPad,CuDef*
G36*
G01*
X132555000Y-71877500D02*
X131605000Y-71877500D01*
G75*
G02*
X131355000Y-71627500I0J250000D01*
G01*
X131355000Y-70952500D01*
G75*
G02*
X131605000Y-70702500I250000J0D01*
G01*
X132555000Y-70702500D01*
G75*
G02*
X132805000Y-70952500I0J-250000D01*
G01*
X132805000Y-71627500D01*
G75*
G02*
X132555000Y-71877500I-250000J0D01*
G01*
G37*
G04 #@! TD.AperFunction*
G04 #@! TA.AperFunction,SMDPad,CuDef*
G36*
G01*
X119502500Y-75725000D02*
X119502500Y-76675000D01*
G75*
G02*
X119252500Y-76925000I-250000J0D01*
G01*
X118577500Y-76925000D01*
G75*
G02*
X118327500Y-76675000I0J250000D01*
G01*
X118327500Y-75725000D01*
G75*
G02*
X118577500Y-75475000I250000J0D01*
G01*
X119252500Y-75475000D01*
G75*
G02*
X119502500Y-75725000I0J-250000D01*
G01*
G37*
G04 #@! TD.AperFunction*
G04 #@! TA.AperFunction,SMDPad,CuDef*
G36*
G01*
X117427500Y-75725000D02*
X117427500Y-76675000D01*
G75*
G02*
X117177500Y-76925000I-250000J0D01*
G01*
X116502500Y-76925000D01*
G75*
G02*
X116252500Y-76675000I0J250000D01*
G01*
X116252500Y-75725000D01*
G75*
G02*
X116502500Y-75475000I250000J0D01*
G01*
X117177500Y-75475000D01*
G75*
G02*
X117427500Y-75725000I0J-250000D01*
G01*
G37*
G04 #@! TD.AperFunction*
G04 #@! TA.AperFunction,SMDPad,CuDef*
G36*
G01*
X119502500Y-78265000D02*
X119502500Y-79215000D01*
G75*
G02*
X119252500Y-79465000I-250000J0D01*
G01*
X118577500Y-79465000D01*
G75*
G02*
X118327500Y-79215000I0J250000D01*
G01*
X118327500Y-78265000D01*
G75*
G02*
X118577500Y-78015000I250000J0D01*
G01*
X119252500Y-78015000D01*
G75*
G02*
X119502500Y-78265000I0J-250000D01*
G01*
G37*
G04 #@! TD.AperFunction*
G04 #@! TA.AperFunction,SMDPad,CuDef*
G36*
G01*
X117427500Y-78265000D02*
X117427500Y-79215000D01*
G75*
G02*
X117177500Y-79465000I-250000J0D01*
G01*
X116502500Y-79465000D01*
G75*
G02*
X116252500Y-79215000I0J250000D01*
G01*
X116252500Y-78265000D01*
G75*
G02*
X116502500Y-78015000I250000J0D01*
G01*
X117177500Y-78015000D01*
G75*
G02*
X117427500Y-78265000I0J-250000D01*
G01*
G37*
G04 #@! TD.AperFunction*
G04 #@! TA.AperFunction,SMDPad,CuDef*
G36*
G01*
X135095000Y-69802500D02*
X134145000Y-69802500D01*
G75*
G02*
X133895000Y-69552500I0J250000D01*
G01*
X133895000Y-68877500D01*
G75*
G02*
X134145000Y-68627500I250000J0D01*
G01*
X135095000Y-68627500D01*
G75*
G02*
X135345000Y-68877500I0J-250000D01*
G01*
X135345000Y-69552500D01*
G75*
G02*
X135095000Y-69802500I-250000J0D01*
G01*
G37*
G04 #@! TD.AperFunction*
G04 #@! TA.AperFunction,SMDPad,CuDef*
G36*
G01*
X135095000Y-71877500D02*
X134145000Y-71877500D01*
G75*
G02*
X133895000Y-71627500I0J250000D01*
G01*
X133895000Y-70952500D01*
G75*
G02*
X134145000Y-70702500I250000J0D01*
G01*
X135095000Y-70702500D01*
G75*
G02*
X135345000Y-70952500I0J-250000D01*
G01*
X135345000Y-71627500D01*
G75*
G02*
X135095000Y-71877500I-250000J0D01*
G01*
G37*
G04 #@! TD.AperFunction*
G04 #@! TA.AperFunction,SMDPad,CuDef*
G36*
G01*
X129700000Y-76882500D02*
X130650000Y-76882500D01*
G75*
G02*
X130900000Y-77132500I0J-250000D01*
G01*
X130900000Y-77807500D01*
G75*
G02*
X130650000Y-78057500I-250000J0D01*
G01*
X129700000Y-78057500D01*
G75*
G02*
X129450000Y-77807500I0J250000D01*
G01*
X129450000Y-77132500D01*
G75*
G02*
X129700000Y-76882500I250000J0D01*
G01*
G37*
G04 #@! TD.AperFunction*
G04 #@! TA.AperFunction,SMDPad,CuDef*
G36*
G01*
X129700000Y-78957500D02*
X130650000Y-78957500D01*
G75*
G02*
X130900000Y-79207500I0J-250000D01*
G01*
X130900000Y-79882500D01*
G75*
G02*
X130650000Y-80132500I-250000J0D01*
G01*
X129700000Y-80132500D01*
G75*
G02*
X129450000Y-79882500I0J250000D01*
G01*
X129450000Y-79207500D01*
G75*
G02*
X129700000Y-78957500I250000J0D01*
G01*
G37*
G04 #@! TD.AperFunction*
G04 #@! TA.AperFunction,SMDPad,CuDef*
G36*
G01*
X137635000Y-72977500D02*
X136685000Y-72977500D01*
G75*
G02*
X136435000Y-72727500I0J250000D01*
G01*
X136435000Y-72052500D01*
G75*
G02*
X136685000Y-71802500I250000J0D01*
G01*
X137635000Y-71802500D01*
G75*
G02*
X137885000Y-72052500I0J-250000D01*
G01*
X137885000Y-72727500D01*
G75*
G02*
X137635000Y-72977500I-250000J0D01*
G01*
G37*
G04 #@! TD.AperFunction*
G04 #@! TA.AperFunction,SMDPad,CuDef*
G36*
G01*
X137635000Y-75052500D02*
X136685000Y-75052500D01*
G75*
G02*
X136435000Y-74802500I0J250000D01*
G01*
X136435000Y-74127500D01*
G75*
G02*
X136685000Y-73877500I250000J0D01*
G01*
X137635000Y-73877500D01*
G75*
G02*
X137885000Y-74127500I0J-250000D01*
G01*
X137885000Y-74802500D01*
G75*
G02*
X137635000Y-75052500I-250000J0D01*
G01*
G37*
G04 #@! TD.AperFunction*
G04 #@! TA.AperFunction,SMDPad,CuDef*
G36*
G01*
X127160000Y-78957500D02*
X128110000Y-78957500D01*
G75*
G02*
X128360000Y-79207500I0J-250000D01*
G01*
X128360000Y-79882500D01*
G75*
G02*
X128110000Y-80132500I-250000J0D01*
G01*
X127160000Y-80132500D01*
G75*
G02*
X126910000Y-79882500I0J250000D01*
G01*
X126910000Y-79207500D01*
G75*
G02*
X127160000Y-78957500I250000J0D01*
G01*
G37*
G04 #@! TD.AperFunction*
G04 #@! TA.AperFunction,SMDPad,CuDef*
G36*
G01*
X127160000Y-76882500D02*
X128110000Y-76882500D01*
G75*
G02*
X128360000Y-77132500I0J-250000D01*
G01*
X128360000Y-77807500D01*
G75*
G02*
X128110000Y-78057500I-250000J0D01*
G01*
X127160000Y-78057500D01*
G75*
G02*
X126910000Y-77807500I0J250000D01*
G01*
X126910000Y-77132500D01*
G75*
G02*
X127160000Y-76882500I250000J0D01*
G01*
G37*
G04 #@! TD.AperFunction*
G04 #@! TA.AperFunction,SMDPad,CuDef*
G36*
G01*
X141557500Y-92235000D02*
X141557500Y-93185000D01*
G75*
G02*
X141307500Y-93435000I-250000J0D01*
G01*
X140632500Y-93435000D01*
G75*
G02*
X140382500Y-93185000I0J250000D01*
G01*
X140382500Y-92235000D01*
G75*
G02*
X140632500Y-91985000I250000J0D01*
G01*
X141307500Y-91985000D01*
G75*
G02*
X141557500Y-92235000I0J-250000D01*
G01*
G37*
G04 #@! TD.AperFunction*
G04 #@! TA.AperFunction,SMDPad,CuDef*
G36*
G01*
X139482500Y-92235000D02*
X139482500Y-93185000D01*
G75*
G02*
X139232500Y-93435000I-250000J0D01*
G01*
X138557500Y-93435000D01*
G75*
G02*
X138307500Y-93185000I0J250000D01*
G01*
X138307500Y-92235000D01*
G75*
G02*
X138557500Y-91985000I250000J0D01*
G01*
X139232500Y-91985000D01*
G75*
G02*
X139482500Y-92235000I0J-250000D01*
G01*
G37*
G04 #@! TD.AperFunction*
G04 #@! TA.AperFunction,SMDPad,CuDef*
G36*
G01*
X140382500Y-88105000D02*
X140382500Y-87155000D01*
G75*
G02*
X140632500Y-86905000I250000J0D01*
G01*
X141307500Y-86905000D01*
G75*
G02*
X141557500Y-87155000I0J-250000D01*
G01*
X141557500Y-88105000D01*
G75*
G02*
X141307500Y-88355000I-250000J0D01*
G01*
X140632500Y-88355000D01*
G75*
G02*
X140382500Y-88105000I0J250000D01*
G01*
G37*
G04 #@! TD.AperFunction*
G04 #@! TA.AperFunction,SMDPad,CuDef*
G36*
G01*
X138307500Y-88105000D02*
X138307500Y-87155000D01*
G75*
G02*
X138557500Y-86905000I250000J0D01*
G01*
X139232500Y-86905000D01*
G75*
G02*
X139482500Y-87155000I0J-250000D01*
G01*
X139482500Y-88105000D01*
G75*
G02*
X139232500Y-88355000I-250000J0D01*
G01*
X138557500Y-88355000D01*
G75*
G02*
X138307500Y-88105000I0J250000D01*
G01*
G37*
G04 #@! TD.AperFunction*
G04 #@! TA.AperFunction,SMDPad,CuDef*
G36*
G01*
X132240000Y-81327500D02*
X133190000Y-81327500D01*
G75*
G02*
X133440000Y-81577500I0J-250000D01*
G01*
X133440000Y-82252500D01*
G75*
G02*
X133190000Y-82502500I-250000J0D01*
G01*
X132240000Y-82502500D01*
G75*
G02*
X131990000Y-82252500I0J250000D01*
G01*
X131990000Y-81577500D01*
G75*
G02*
X132240000Y-81327500I250000J0D01*
G01*
G37*
G04 #@! TD.AperFunction*
G04 #@! TA.AperFunction,SMDPad,CuDef*
G36*
G01*
X132240000Y-83402500D02*
X133190000Y-83402500D01*
G75*
G02*
X133440000Y-83652500I0J-250000D01*
G01*
X133440000Y-84327500D01*
G75*
G02*
X133190000Y-84577500I-250000J0D01*
G01*
X132240000Y-84577500D01*
G75*
G02*
X131990000Y-84327500I0J250000D01*
G01*
X131990000Y-83652500D01*
G75*
G02*
X132240000Y-83402500I250000J0D01*
G01*
G37*
G04 #@! TD.AperFunction*
G04 #@! TA.AperFunction,SMDPad,CuDef*
G36*
G01*
X125570000Y-84577500D02*
X124620000Y-84577500D01*
G75*
G02*
X124370000Y-84327500I0J250000D01*
G01*
X124370000Y-83652500D01*
G75*
G02*
X124620000Y-83402500I250000J0D01*
G01*
X125570000Y-83402500D01*
G75*
G02*
X125820000Y-83652500I0J-250000D01*
G01*
X125820000Y-84327500D01*
G75*
G02*
X125570000Y-84577500I-250000J0D01*
G01*
G37*
G04 #@! TD.AperFunction*
G04 #@! TA.AperFunction,SMDPad,CuDef*
G36*
G01*
X125570000Y-82502500D02*
X124620000Y-82502500D01*
G75*
G02*
X124370000Y-82252500I0J250000D01*
G01*
X124370000Y-81577500D01*
G75*
G02*
X124620000Y-81327500I250000J0D01*
G01*
X125570000Y-81327500D01*
G75*
G02*
X125820000Y-81577500I0J-250000D01*
G01*
X125820000Y-82252500D01*
G75*
G02*
X125570000Y-82502500I-250000J0D01*
G01*
G37*
G04 #@! TD.AperFunction*
G04 #@! TA.AperFunction,SMDPad,CuDef*
G36*
G01*
X81485000Y-72205001D02*
X81485000Y-71304999D01*
G75*
G02*
X81734999Y-71055000I249999J0D01*
G01*
X82385001Y-71055000D01*
G75*
G02*
X82635000Y-71304999I0J-249999D01*
G01*
X82635000Y-72205001D01*
G75*
G02*
X82385001Y-72455000I-249999J0D01*
G01*
X81734999Y-72455000D01*
G75*
G02*
X81485000Y-72205001I0J249999D01*
G01*
G37*
G04 #@! TD.AperFunction*
G04 #@! TA.AperFunction,SMDPad,CuDef*
G36*
G01*
X79435000Y-72205001D02*
X79435000Y-71304999D01*
G75*
G02*
X79684999Y-71055000I249999J0D01*
G01*
X80335001Y-71055000D01*
G75*
G02*
X80585000Y-71304999I0J-249999D01*
G01*
X80585000Y-72205001D01*
G75*
G02*
X80335001Y-72455000I-249999J0D01*
G01*
X79684999Y-72455000D01*
G75*
G02*
X79435000Y-72205001I0J249999D01*
G01*
G37*
G04 #@! TD.AperFunction*
G04 #@! TA.AperFunction,SMDPad,CuDef*
G36*
G01*
X79435000Y-89985001D02*
X79435000Y-89084999D01*
G75*
G02*
X79684999Y-88835000I249999J0D01*
G01*
X80335001Y-88835000D01*
G75*
G02*
X80585000Y-89084999I0J-249999D01*
G01*
X80585000Y-89985001D01*
G75*
G02*
X80335001Y-90235000I-249999J0D01*
G01*
X79684999Y-90235000D01*
G75*
G02*
X79435000Y-89985001I0J249999D01*
G01*
G37*
G04 #@! TD.AperFunction*
G04 #@! TA.AperFunction,SMDPad,CuDef*
G36*
G01*
X81485000Y-89985001D02*
X81485000Y-89084999D01*
G75*
G02*
X81734999Y-88835000I249999J0D01*
G01*
X82385001Y-88835000D01*
G75*
G02*
X82635000Y-89084999I0J-249999D01*
G01*
X82635000Y-89985001D01*
G75*
G02*
X82385001Y-90235000I-249999J0D01*
G01*
X81734999Y-90235000D01*
G75*
G02*
X81485000Y-89985001I0J249999D01*
G01*
G37*
G04 #@! TD.AperFunction*
G04 #@! TA.AperFunction,SMDPad,CuDef*
G36*
G01*
X81485000Y-84905001D02*
X81485000Y-84004999D01*
G75*
G02*
X81734999Y-83755000I249999J0D01*
G01*
X82385001Y-83755000D01*
G75*
G02*
X82635000Y-84004999I0J-249999D01*
G01*
X82635000Y-84905001D01*
G75*
G02*
X82385001Y-85155000I-249999J0D01*
G01*
X81734999Y-85155000D01*
G75*
G02*
X81485000Y-84905001I0J249999D01*
G01*
G37*
G04 #@! TD.AperFunction*
G04 #@! TA.AperFunction,SMDPad,CuDef*
G36*
G01*
X79435000Y-84905001D02*
X79435000Y-84004999D01*
G75*
G02*
X79684999Y-83755000I249999J0D01*
G01*
X80335001Y-83755000D01*
G75*
G02*
X80585000Y-84004999I0J-249999D01*
G01*
X80585000Y-84905001D01*
G75*
G02*
X80335001Y-85155000I-249999J0D01*
G01*
X79684999Y-85155000D01*
G75*
G02*
X79435000Y-84905001I0J249999D01*
G01*
G37*
G04 #@! TD.AperFunction*
G04 #@! TA.AperFunction,SMDPad,CuDef*
G36*
G01*
X79435000Y-79825001D02*
X79435000Y-78924999D01*
G75*
G02*
X79684999Y-78675000I249999J0D01*
G01*
X80335001Y-78675000D01*
G75*
G02*
X80585000Y-78924999I0J-249999D01*
G01*
X80585000Y-79825001D01*
G75*
G02*
X80335001Y-80075000I-249999J0D01*
G01*
X79684999Y-80075000D01*
G75*
G02*
X79435000Y-79825001I0J249999D01*
G01*
G37*
G04 #@! TD.AperFunction*
G04 #@! TA.AperFunction,SMDPad,CuDef*
G36*
G01*
X81485000Y-79825001D02*
X81485000Y-78924999D01*
G75*
G02*
X81734999Y-78675000I249999J0D01*
G01*
X82385001Y-78675000D01*
G75*
G02*
X82635000Y-78924999I0J-249999D01*
G01*
X82635000Y-79825001D01*
G75*
G02*
X82385001Y-80075000I-249999J0D01*
G01*
X81734999Y-80075000D01*
G75*
G02*
X81485000Y-79825001I0J249999D01*
G01*
G37*
G04 #@! TD.AperFunction*
G04 #@! TA.AperFunction,SMDPad,CuDef*
G36*
G01*
X79435000Y-82365001D02*
X79435000Y-81464999D01*
G75*
G02*
X79684999Y-81215000I249999J0D01*
G01*
X80335001Y-81215000D01*
G75*
G02*
X80585000Y-81464999I0J-249999D01*
G01*
X80585000Y-82365001D01*
G75*
G02*
X80335001Y-82615000I-249999J0D01*
G01*
X79684999Y-82615000D01*
G75*
G02*
X79435000Y-82365001I0J249999D01*
G01*
G37*
G04 #@! TD.AperFunction*
G04 #@! TA.AperFunction,SMDPad,CuDef*
G36*
G01*
X81485000Y-82365001D02*
X81485000Y-81464999D01*
G75*
G02*
X81734999Y-81215000I249999J0D01*
G01*
X82385001Y-81215000D01*
G75*
G02*
X82635000Y-81464999I0J-249999D01*
G01*
X82635000Y-82365001D01*
G75*
G02*
X82385001Y-82615000I-249999J0D01*
G01*
X81734999Y-82615000D01*
G75*
G02*
X81485000Y-82365001I0J249999D01*
G01*
G37*
G04 #@! TD.AperFunction*
G04 #@! TA.AperFunction,SMDPad,CuDef*
G36*
G01*
X81485000Y-100145001D02*
X81485000Y-99244999D01*
G75*
G02*
X81734999Y-98995000I249999J0D01*
G01*
X82385001Y-98995000D01*
G75*
G02*
X82635000Y-99244999I0J-249999D01*
G01*
X82635000Y-100145001D01*
G75*
G02*
X82385001Y-100395000I-249999J0D01*
G01*
X81734999Y-100395000D01*
G75*
G02*
X81485000Y-100145001I0J249999D01*
G01*
G37*
G04 #@! TD.AperFunction*
G04 #@! TA.AperFunction,SMDPad,CuDef*
G36*
G01*
X79435000Y-100145001D02*
X79435000Y-99244999D01*
G75*
G02*
X79684999Y-98995000I249999J0D01*
G01*
X80335001Y-98995000D01*
G75*
G02*
X80585000Y-99244999I0J-249999D01*
G01*
X80585000Y-100145001D01*
G75*
G02*
X80335001Y-100395000I-249999J0D01*
G01*
X79684999Y-100395000D01*
G75*
G02*
X79435000Y-100145001I0J249999D01*
G01*
G37*
G04 #@! TD.AperFunction*
G04 #@! TA.AperFunction,SMDPad,CuDef*
G36*
G01*
X79435000Y-92525001D02*
X79435000Y-91624999D01*
G75*
G02*
X79684999Y-91375000I249999J0D01*
G01*
X80335001Y-91375000D01*
G75*
G02*
X80585000Y-91624999I0J-249999D01*
G01*
X80585000Y-92525001D01*
G75*
G02*
X80335001Y-92775000I-249999J0D01*
G01*
X79684999Y-92775000D01*
G75*
G02*
X79435000Y-92525001I0J249999D01*
G01*
G37*
G04 #@! TD.AperFunction*
G04 #@! TA.AperFunction,SMDPad,CuDef*
G36*
G01*
X81485000Y-92525001D02*
X81485000Y-91624999D01*
G75*
G02*
X81734999Y-91375000I249999J0D01*
G01*
X82385001Y-91375000D01*
G75*
G02*
X82635000Y-91624999I0J-249999D01*
G01*
X82635000Y-92525001D01*
G75*
G02*
X82385001Y-92775000I-249999J0D01*
G01*
X81734999Y-92775000D01*
G75*
G02*
X81485000Y-92525001I0J249999D01*
G01*
G37*
G04 #@! TD.AperFunction*
G04 #@! TA.AperFunction,SMDPad,CuDef*
G36*
G01*
X81485000Y-87445001D02*
X81485000Y-86544999D01*
G75*
G02*
X81734999Y-86295000I249999J0D01*
G01*
X82385001Y-86295000D01*
G75*
G02*
X82635000Y-86544999I0J-249999D01*
G01*
X82635000Y-87445001D01*
G75*
G02*
X82385001Y-87695000I-249999J0D01*
G01*
X81734999Y-87695000D01*
G75*
G02*
X81485000Y-87445001I0J249999D01*
G01*
G37*
G04 #@! TD.AperFunction*
G04 #@! TA.AperFunction,SMDPad,CuDef*
G36*
G01*
X79435000Y-87445001D02*
X79435000Y-86544999D01*
G75*
G02*
X79684999Y-86295000I249999J0D01*
G01*
X80335001Y-86295000D01*
G75*
G02*
X80585000Y-86544999I0J-249999D01*
G01*
X80585000Y-87445001D01*
G75*
G02*
X80335001Y-87695000I-249999J0D01*
G01*
X79684999Y-87695000D01*
G75*
G02*
X79435000Y-87445001I0J249999D01*
G01*
G37*
G04 #@! TD.AperFunction*
G04 #@! TA.AperFunction,SMDPad,CuDef*
G36*
G01*
X81485000Y-95065001D02*
X81485000Y-94164999D01*
G75*
G02*
X81734999Y-93915000I249999J0D01*
G01*
X82385001Y-93915000D01*
G75*
G02*
X82635000Y-94164999I0J-249999D01*
G01*
X82635000Y-95065001D01*
G75*
G02*
X82385001Y-95315000I-249999J0D01*
G01*
X81734999Y-95315000D01*
G75*
G02*
X81485000Y-95065001I0J249999D01*
G01*
G37*
G04 #@! TD.AperFunction*
G04 #@! TA.AperFunction,SMDPad,CuDef*
G36*
G01*
X79435000Y-95065001D02*
X79435000Y-94164999D01*
G75*
G02*
X79684999Y-93915000I249999J0D01*
G01*
X80335001Y-93915000D01*
G75*
G02*
X80585000Y-94164999I0J-249999D01*
G01*
X80585000Y-95065001D01*
G75*
G02*
X80335001Y-95315000I-249999J0D01*
G01*
X79684999Y-95315000D01*
G75*
G02*
X79435000Y-95065001I0J249999D01*
G01*
G37*
G04 #@! TD.AperFunction*
G04 #@! TA.AperFunction,SMDPad,CuDef*
G36*
G01*
X81485000Y-97605001D02*
X81485000Y-96704999D01*
G75*
G02*
X81734999Y-96455000I249999J0D01*
G01*
X82385001Y-96455000D01*
G75*
G02*
X82635000Y-96704999I0J-249999D01*
G01*
X82635000Y-97605001D01*
G75*
G02*
X82385001Y-97855000I-249999J0D01*
G01*
X81734999Y-97855000D01*
G75*
G02*
X81485000Y-97605001I0J249999D01*
G01*
G37*
G04 #@! TD.AperFunction*
G04 #@! TA.AperFunction,SMDPad,CuDef*
G36*
G01*
X79435000Y-97605001D02*
X79435000Y-96704999D01*
G75*
G02*
X79684999Y-96455000I249999J0D01*
G01*
X80335001Y-96455000D01*
G75*
G02*
X80585000Y-96704999I0J-249999D01*
G01*
X80585000Y-97605001D01*
G75*
G02*
X80335001Y-97855000I-249999J0D01*
G01*
X79684999Y-97855000D01*
G75*
G02*
X79435000Y-97605001I0J249999D01*
G01*
G37*
G04 #@! TD.AperFunction*
G04 #@! TA.AperFunction,SMDPad,CuDef*
G36*
G01*
X79435000Y-77285001D02*
X79435000Y-76384999D01*
G75*
G02*
X79684999Y-76135000I249999J0D01*
G01*
X80335001Y-76135000D01*
G75*
G02*
X80585000Y-76384999I0J-249999D01*
G01*
X80585000Y-77285001D01*
G75*
G02*
X80335001Y-77535000I-249999J0D01*
G01*
X79684999Y-77535000D01*
G75*
G02*
X79435000Y-77285001I0J249999D01*
G01*
G37*
G04 #@! TD.AperFunction*
G04 #@! TA.AperFunction,SMDPad,CuDef*
G36*
G01*
X81485000Y-77285001D02*
X81485000Y-76384999D01*
G75*
G02*
X81734999Y-76135000I249999J0D01*
G01*
X82385001Y-76135000D01*
G75*
G02*
X82635000Y-76384999I0J-249999D01*
G01*
X82635000Y-77285001D01*
G75*
G02*
X82385001Y-77535000I-249999J0D01*
G01*
X81734999Y-77535000D01*
G75*
G02*
X81485000Y-77285001I0J249999D01*
G01*
G37*
G04 #@! TD.AperFunction*
G04 #@! TA.AperFunction,SMDPad,CuDef*
G36*
G01*
X79435000Y-74745001D02*
X79435000Y-73844999D01*
G75*
G02*
X79684999Y-73595000I249999J0D01*
G01*
X80335001Y-73595000D01*
G75*
G02*
X80585000Y-73844999I0J-249999D01*
G01*
X80585000Y-74745001D01*
G75*
G02*
X80335001Y-74995000I-249999J0D01*
G01*
X79684999Y-74995000D01*
G75*
G02*
X79435000Y-74745001I0J249999D01*
G01*
G37*
G04 #@! TD.AperFunction*
G04 #@! TA.AperFunction,SMDPad,CuDef*
G36*
G01*
X81485000Y-74745001D02*
X81485000Y-73844999D01*
G75*
G02*
X81734999Y-73595000I249999J0D01*
G01*
X82385001Y-73595000D01*
G75*
G02*
X82635000Y-73844999I0J-249999D01*
G01*
X82635000Y-74745001D01*
G75*
G02*
X82385001Y-74995000I-249999J0D01*
G01*
X81734999Y-74995000D01*
G75*
G02*
X81485000Y-74745001I0J249999D01*
G01*
G37*
G04 #@! TD.AperFunction*
G04 #@! TA.AperFunction,SMDPad,CuDef*
G36*
G01*
X156510000Y-97335001D02*
X156510000Y-94434999D01*
G75*
G02*
X156759999Y-94185000I249999J0D01*
G01*
X157560001Y-94185000D01*
G75*
G02*
X157810000Y-94434999I0J-249999D01*
G01*
X157810000Y-97335001D01*
G75*
G02*
X157560001Y-97585000I-249999J0D01*
G01*
X156759999Y-97585000D01*
G75*
G02*
X156510000Y-97335001I0J249999D01*
G01*
G37*
G04 #@! TD.AperFunction*
G04 #@! TA.AperFunction,SMDPad,CuDef*
G36*
G01*
X160960000Y-97335001D02*
X160960000Y-94434999D01*
G75*
G02*
X161209999Y-94185000I249999J0D01*
G01*
X162010001Y-94185000D01*
G75*
G02*
X162260000Y-94434999I0J-249999D01*
G01*
X162260000Y-97335001D01*
G75*
G02*
X162010001Y-97585000I-249999J0D01*
G01*
X161209999Y-97585000D01*
G75*
G02*
X160960000Y-97335001I0J249999D01*
G01*
G37*
G04 #@! TD.AperFunction*
D32*
X165462000Y-88235000D03*
X165462000Y-88885000D03*
X165462000Y-89535000D03*
X165462000Y-90185000D03*
X165462000Y-90835000D03*
D33*
X168162000Y-93485000D03*
X168162000Y-85585000D03*
D34*
X165662000Y-86035000D03*
X165662000Y-93035000D03*
D35*
X168362000Y-86235000D03*
X168362000Y-92835000D03*
G04 #@! TA.AperFunction,SMDPad,CuDef*
G36*
G01*
X116655001Y-116805000D02*
X115754999Y-116805000D01*
G75*
G02*
X115505000Y-116555001I0J249999D01*
G01*
X115505000Y-115854999D01*
G75*
G02*
X115754999Y-115605000I249999J0D01*
G01*
X116655001Y-115605000D01*
G75*
G02*
X116905000Y-115854999I0J-249999D01*
G01*
X116905000Y-116555001D01*
G75*
G02*
X116655001Y-116805000I-249999J0D01*
G01*
G37*
G04 #@! TD.AperFunction*
G04 #@! TA.AperFunction,SMDPad,CuDef*
G36*
G01*
X116655001Y-118805000D02*
X115754999Y-118805000D01*
G75*
G02*
X115505000Y-118555001I0J249999D01*
G01*
X115505000Y-117854999D01*
G75*
G02*
X115754999Y-117605000I249999J0D01*
G01*
X116655001Y-117605000D01*
G75*
G02*
X116905000Y-117854999I0J-249999D01*
G01*
X116905000Y-118555001D01*
G75*
G02*
X116655001Y-118805000I-249999J0D01*
G01*
G37*
G04 #@! TD.AperFunction*
G04 #@! TA.AperFunction,SMDPad,CuDef*
G36*
G01*
X114115001Y-116805000D02*
X113214999Y-116805000D01*
G75*
G02*
X112965000Y-116555001I0J249999D01*
G01*
X112965000Y-115854999D01*
G75*
G02*
X113214999Y-115605000I249999J0D01*
G01*
X114115001Y-115605000D01*
G75*
G02*
X114365000Y-115854999I0J-249999D01*
G01*
X114365000Y-116555001D01*
G75*
G02*
X114115001Y-116805000I-249999J0D01*
G01*
G37*
G04 #@! TD.AperFunction*
G04 #@! TA.AperFunction,SMDPad,CuDef*
G36*
G01*
X114115001Y-114805000D02*
X113214999Y-114805000D01*
G75*
G02*
X112965000Y-114555001I0J249999D01*
G01*
X112965000Y-113854999D01*
G75*
G02*
X113214999Y-113605000I249999J0D01*
G01*
X114115001Y-113605000D01*
G75*
G02*
X114365000Y-113854999I0J-249999D01*
G01*
X114365000Y-114555001D01*
G75*
G02*
X114115001Y-114805000I-249999J0D01*
G01*
G37*
G04 #@! TD.AperFunction*
G04 #@! TA.AperFunction,SMDPad,CuDef*
G36*
G01*
X117875000Y-114115001D02*
X117875000Y-113214999D01*
G75*
G02*
X118124999Y-112965000I249999J0D01*
G01*
X118825001Y-112965000D01*
G75*
G02*
X119075000Y-113214999I0J-249999D01*
G01*
X119075000Y-114115001D01*
G75*
G02*
X118825001Y-114365000I-249999J0D01*
G01*
X118124999Y-114365000D01*
G75*
G02*
X117875000Y-114115001I0J249999D01*
G01*
G37*
G04 #@! TD.AperFunction*
G04 #@! TA.AperFunction,SMDPad,CuDef*
G36*
G01*
X115875000Y-114115001D02*
X115875000Y-113214999D01*
G75*
G02*
X116124999Y-112965000I249999J0D01*
G01*
X116825001Y-112965000D01*
G75*
G02*
X117075000Y-113214999I0J-249999D01*
G01*
X117075000Y-114115001D01*
G75*
G02*
X116825001Y-114365000I-249999J0D01*
G01*
X116124999Y-114365000D01*
G75*
G02*
X115875000Y-114115001I0J249999D01*
G01*
G37*
G04 #@! TD.AperFunction*
G04 #@! TA.AperFunction,SMDPad,CuDef*
G36*
G01*
X119195001Y-118805000D02*
X118294999Y-118805000D01*
G75*
G02*
X118045000Y-118555001I0J249999D01*
G01*
X118045000Y-117854999D01*
G75*
G02*
X118294999Y-117605000I249999J0D01*
G01*
X119195001Y-117605000D01*
G75*
G02*
X119445000Y-117854999I0J-249999D01*
G01*
X119445000Y-118555001D01*
G75*
G02*
X119195001Y-118805000I-249999J0D01*
G01*
G37*
G04 #@! TD.AperFunction*
G04 #@! TA.AperFunction,SMDPad,CuDef*
G36*
G01*
X119195001Y-116805000D02*
X118294999Y-116805000D01*
G75*
G02*
X118045000Y-116555001I0J249999D01*
G01*
X118045000Y-115854999D01*
G75*
G02*
X118294999Y-115605000I249999J0D01*
G01*
X119195001Y-115605000D01*
G75*
G02*
X119445000Y-115854999I0J-249999D01*
G01*
X119445000Y-116555001D01*
G75*
G02*
X119195001Y-116805000I-249999J0D01*
G01*
G37*
G04 #@! TD.AperFunction*
G04 #@! TA.AperFunction,SMDPad,CuDef*
G36*
G01*
X99295000Y-67494999D02*
X99295000Y-68395001D01*
G75*
G02*
X99045001Y-68645000I-249999J0D01*
G01*
X98344999Y-68645000D01*
G75*
G02*
X98095000Y-68395001I0J249999D01*
G01*
X98095000Y-67494999D01*
G75*
G02*
X98344999Y-67245000I249999J0D01*
G01*
X99045001Y-67245000D01*
G75*
G02*
X99295000Y-67494999I0J-249999D01*
G01*
G37*
G04 #@! TD.AperFunction*
G04 #@! TA.AperFunction,SMDPad,CuDef*
G36*
G01*
X101295000Y-67494999D02*
X101295000Y-68395001D01*
G75*
G02*
X101045001Y-68645000I-249999J0D01*
G01*
X100344999Y-68645000D01*
G75*
G02*
X100095000Y-68395001I0J249999D01*
G01*
X100095000Y-67494999D01*
G75*
G02*
X100344999Y-67245000I249999J0D01*
G01*
X101045001Y-67245000D01*
G75*
G02*
X101295000Y-67494999I0J-249999D01*
G01*
G37*
G04 #@! TD.AperFunction*
G04 #@! TA.AperFunction,SMDPad,CuDef*
G36*
G01*
X118415000Y-111575001D02*
X118415000Y-110674999D01*
G75*
G02*
X118664999Y-110425000I249999J0D01*
G01*
X119365001Y-110425000D01*
G75*
G02*
X119615000Y-110674999I0J-249999D01*
G01*
X119615000Y-111575001D01*
G75*
G02*
X119365001Y-111825000I-249999J0D01*
G01*
X118664999Y-111825000D01*
G75*
G02*
X118415000Y-111575001I0J249999D01*
G01*
G37*
G04 #@! TD.AperFunction*
G04 #@! TA.AperFunction,SMDPad,CuDef*
G36*
G01*
X120415000Y-111575001D02*
X120415000Y-110674999D01*
G75*
G02*
X120664999Y-110425000I249999J0D01*
G01*
X121365001Y-110425000D01*
G75*
G02*
X121615000Y-110674999I0J-249999D01*
G01*
X121615000Y-111575001D01*
G75*
G02*
X121365001Y-111825000I-249999J0D01*
G01*
X120664999Y-111825000D01*
G75*
G02*
X120415000Y-111575001I0J249999D01*
G01*
G37*
G04 #@! TD.AperFunction*
G04 #@! TA.AperFunction,SMDPad,CuDef*
G36*
G01*
X121735001Y-116805000D02*
X120834999Y-116805000D01*
G75*
G02*
X120585000Y-116555001I0J249999D01*
G01*
X120585000Y-115854999D01*
G75*
G02*
X120834999Y-115605000I249999J0D01*
G01*
X121735001Y-115605000D01*
G75*
G02*
X121985000Y-115854999I0J-249999D01*
G01*
X121985000Y-116555001D01*
G75*
G02*
X121735001Y-116805000I-249999J0D01*
G01*
G37*
G04 #@! TD.AperFunction*
G04 #@! TA.AperFunction,SMDPad,CuDef*
G36*
G01*
X121735001Y-118805000D02*
X120834999Y-118805000D01*
G75*
G02*
X120585000Y-118555001I0J249999D01*
G01*
X120585000Y-117854999D01*
G75*
G02*
X120834999Y-117605000I249999J0D01*
G01*
X121735001Y-117605000D01*
G75*
G02*
X121985000Y-117854999I0J-249999D01*
G01*
X121985000Y-118555001D01*
G75*
G02*
X121735001Y-118805000I-249999J0D01*
G01*
G37*
G04 #@! TD.AperFunction*
G04 #@! TA.AperFunction,SMDPad,CuDef*
G36*
G01*
X122955000Y-114115001D02*
X122955000Y-113214999D01*
G75*
G02*
X123204999Y-112965000I249999J0D01*
G01*
X123905001Y-112965000D01*
G75*
G02*
X124155000Y-113214999I0J-249999D01*
G01*
X124155000Y-114115001D01*
G75*
G02*
X123905001Y-114365000I-249999J0D01*
G01*
X123204999Y-114365000D01*
G75*
G02*
X122955000Y-114115001I0J249999D01*
G01*
G37*
G04 #@! TD.AperFunction*
G04 #@! TA.AperFunction,SMDPad,CuDef*
G36*
G01*
X120955000Y-114115001D02*
X120955000Y-113214999D01*
G75*
G02*
X121204999Y-112965000I249999J0D01*
G01*
X121905001Y-112965000D01*
G75*
G02*
X122155000Y-113214999I0J-249999D01*
G01*
X122155000Y-114115001D01*
G75*
G02*
X121905001Y-114365000I-249999J0D01*
G01*
X121204999Y-114365000D01*
G75*
G02*
X120955000Y-114115001I0J249999D01*
G01*
G37*
G04 #@! TD.AperFunction*
G04 #@! TA.AperFunction,SMDPad,CuDef*
G36*
G01*
X124275001Y-118805000D02*
X123374999Y-118805000D01*
G75*
G02*
X123125000Y-118555001I0J249999D01*
G01*
X123125000Y-117854999D01*
G75*
G02*
X123374999Y-117605000I249999J0D01*
G01*
X124275001Y-117605000D01*
G75*
G02*
X124525000Y-117854999I0J-249999D01*
G01*
X124525000Y-118555001D01*
G75*
G02*
X124275001Y-118805000I-249999J0D01*
G01*
G37*
G04 #@! TD.AperFunction*
G04 #@! TA.AperFunction,SMDPad,CuDef*
G36*
G01*
X124275001Y-116805000D02*
X123374999Y-116805000D01*
G75*
G02*
X123125000Y-116555001I0J249999D01*
G01*
X123125000Y-115854999D01*
G75*
G02*
X123374999Y-115605000I249999J0D01*
G01*
X124275001Y-115605000D01*
G75*
G02*
X124525000Y-115854999I0J-249999D01*
G01*
X124525000Y-116555001D01*
G75*
G02*
X124275001Y-116805000I-249999J0D01*
G01*
G37*
G04 #@! TD.AperFunction*
G04 #@! TA.AperFunction,SMDPad,CuDef*
G36*
G01*
X123495000Y-111575001D02*
X123495000Y-110674999D01*
G75*
G02*
X123744999Y-110425000I249999J0D01*
G01*
X124445001Y-110425000D01*
G75*
G02*
X124695000Y-110674999I0J-249999D01*
G01*
X124695000Y-111575001D01*
G75*
G02*
X124445001Y-111825000I-249999J0D01*
G01*
X123744999Y-111825000D01*
G75*
G02*
X123495000Y-111575001I0J249999D01*
G01*
G37*
G04 #@! TD.AperFunction*
G04 #@! TA.AperFunction,SMDPad,CuDef*
G36*
G01*
X125495000Y-111575001D02*
X125495000Y-110674999D01*
G75*
G02*
X125744999Y-110425000I249999J0D01*
G01*
X126445001Y-110425000D01*
G75*
G02*
X126695000Y-110674999I0J-249999D01*
G01*
X126695000Y-111575001D01*
G75*
G02*
X126445001Y-111825000I-249999J0D01*
G01*
X125744999Y-111825000D01*
G75*
G02*
X125495000Y-111575001I0J249999D01*
G01*
G37*
G04 #@! TD.AperFunction*
G04 #@! TA.AperFunction,SMDPad,CuDef*
G36*
G01*
X111630000Y-67494999D02*
X111630000Y-68395001D01*
G75*
G02*
X111380001Y-68645000I-249999J0D01*
G01*
X110679999Y-68645000D01*
G75*
G02*
X110430000Y-68395001I0J249999D01*
G01*
X110430000Y-67494999D01*
G75*
G02*
X110679999Y-67245000I249999J0D01*
G01*
X111380001Y-67245000D01*
G75*
G02*
X111630000Y-67494999I0J-249999D01*
G01*
G37*
G04 #@! TD.AperFunction*
G04 #@! TA.AperFunction,SMDPad,CuDef*
G36*
G01*
X113630000Y-67494999D02*
X113630000Y-68395001D01*
G75*
G02*
X113380001Y-68645000I-249999J0D01*
G01*
X112679999Y-68645000D01*
G75*
G02*
X112430000Y-68395001I0J249999D01*
G01*
X112430000Y-67494999D01*
G75*
G02*
X112679999Y-67245000I249999J0D01*
G01*
X113380001Y-67245000D01*
G75*
G02*
X113630000Y-67494999I0J-249999D01*
G01*
G37*
G04 #@! TD.AperFunction*
G04 #@! TA.AperFunction,SMDPad,CuDef*
G36*
G01*
X126815001Y-116805000D02*
X125914999Y-116805000D01*
G75*
G02*
X125665000Y-116555001I0J249999D01*
G01*
X125665000Y-115854999D01*
G75*
G02*
X125914999Y-115605000I249999J0D01*
G01*
X126815001Y-115605000D01*
G75*
G02*
X127065000Y-115854999I0J-249999D01*
G01*
X127065000Y-116555001D01*
G75*
G02*
X126815001Y-116805000I-249999J0D01*
G01*
G37*
G04 #@! TD.AperFunction*
G04 #@! TA.AperFunction,SMDPad,CuDef*
G36*
G01*
X126815001Y-118805000D02*
X125914999Y-118805000D01*
G75*
G02*
X125665000Y-118555001I0J249999D01*
G01*
X125665000Y-117854999D01*
G75*
G02*
X125914999Y-117605000I249999J0D01*
G01*
X126815001Y-117605000D01*
G75*
G02*
X127065000Y-117854999I0J-249999D01*
G01*
X127065000Y-118555001D01*
G75*
G02*
X126815001Y-118805000I-249999J0D01*
G01*
G37*
G04 #@! TD.AperFunction*
G04 #@! TA.AperFunction,SMDPad,CuDef*
G36*
G01*
X128035000Y-114115001D02*
X128035000Y-113214999D01*
G75*
G02*
X128284999Y-112965000I249999J0D01*
G01*
X128985001Y-112965000D01*
G75*
G02*
X129235000Y-113214999I0J-249999D01*
G01*
X129235000Y-114115001D01*
G75*
G02*
X128985001Y-114365000I-249999J0D01*
G01*
X128284999Y-114365000D01*
G75*
G02*
X128035000Y-114115001I0J249999D01*
G01*
G37*
G04 #@! TD.AperFunction*
G04 #@! TA.AperFunction,SMDPad,CuDef*
G36*
G01*
X126035000Y-114115001D02*
X126035000Y-113214999D01*
G75*
G02*
X126284999Y-112965000I249999J0D01*
G01*
X126985001Y-112965000D01*
G75*
G02*
X127235000Y-113214999I0J-249999D01*
G01*
X127235000Y-114115001D01*
G75*
G02*
X126985001Y-114365000I-249999J0D01*
G01*
X126284999Y-114365000D01*
G75*
G02*
X126035000Y-114115001I0J249999D01*
G01*
G37*
G04 #@! TD.AperFunction*
G04 #@! TA.AperFunction,SMDPad,CuDef*
G36*
G01*
X129355001Y-118805000D02*
X128454999Y-118805000D01*
G75*
G02*
X128205000Y-118555001I0J249999D01*
G01*
X128205000Y-117854999D01*
G75*
G02*
X128454999Y-117605000I249999J0D01*
G01*
X129355001Y-117605000D01*
G75*
G02*
X129605000Y-117854999I0J-249999D01*
G01*
X129605000Y-118555001D01*
G75*
G02*
X129355001Y-118805000I-249999J0D01*
G01*
G37*
G04 #@! TD.AperFunction*
G04 #@! TA.AperFunction,SMDPad,CuDef*
G36*
G01*
X129355001Y-116805000D02*
X128454999Y-116805000D01*
G75*
G02*
X128205000Y-116555001I0J249999D01*
G01*
X128205000Y-115854999D01*
G75*
G02*
X128454999Y-115605000I249999J0D01*
G01*
X129355001Y-115605000D01*
G75*
G02*
X129605000Y-115854999I0J-249999D01*
G01*
X129605000Y-116555001D01*
G75*
G02*
X129355001Y-116805000I-249999J0D01*
G01*
G37*
G04 #@! TD.AperFunction*
G04 #@! TA.AperFunction,SMDPad,CuDef*
G36*
G01*
X128575000Y-111575001D02*
X128575000Y-110674999D01*
G75*
G02*
X128824999Y-110425000I249999J0D01*
G01*
X129525001Y-110425000D01*
G75*
G02*
X129775000Y-110674999I0J-249999D01*
G01*
X129775000Y-111575001D01*
G75*
G02*
X129525001Y-111825000I-249999J0D01*
G01*
X128824999Y-111825000D01*
G75*
G02*
X128575000Y-111575001I0J249999D01*
G01*
G37*
G04 #@! TD.AperFunction*
G04 #@! TA.AperFunction,SMDPad,CuDef*
G36*
G01*
X130575000Y-111575001D02*
X130575000Y-110674999D01*
G75*
G02*
X130824999Y-110425000I249999J0D01*
G01*
X131525001Y-110425000D01*
G75*
G02*
X131775000Y-110674999I0J-249999D01*
G01*
X131775000Y-111575001D01*
G75*
G02*
X131525001Y-111825000I-249999J0D01*
G01*
X130824999Y-111825000D01*
G75*
G02*
X130575000Y-111575001I0J249999D01*
G01*
G37*
G04 #@! TD.AperFunction*
G04 #@! TA.AperFunction,SMDPad,CuDef*
G36*
G01*
X131895001Y-116805000D02*
X130994999Y-116805000D01*
G75*
G02*
X130745000Y-116555001I0J249999D01*
G01*
X130745000Y-115854999D01*
G75*
G02*
X130994999Y-115605000I249999J0D01*
G01*
X131895001Y-115605000D01*
G75*
G02*
X132145000Y-115854999I0J-249999D01*
G01*
X132145000Y-116555001D01*
G75*
G02*
X131895001Y-116805000I-249999J0D01*
G01*
G37*
G04 #@! TD.AperFunction*
G04 #@! TA.AperFunction,SMDPad,CuDef*
G36*
G01*
X131895001Y-118805000D02*
X130994999Y-118805000D01*
G75*
G02*
X130745000Y-118555001I0J249999D01*
G01*
X130745000Y-117854999D01*
G75*
G02*
X130994999Y-117605000I249999J0D01*
G01*
X131895001Y-117605000D01*
G75*
G02*
X132145000Y-117854999I0J-249999D01*
G01*
X132145000Y-118555001D01*
G75*
G02*
X131895001Y-118805000I-249999J0D01*
G01*
G37*
G04 #@! TD.AperFunction*
G04 #@! TA.AperFunction,SMDPad,CuDef*
G36*
G01*
X131115000Y-114115001D02*
X131115000Y-113214999D01*
G75*
G02*
X131364999Y-112965000I249999J0D01*
G01*
X132065001Y-112965000D01*
G75*
G02*
X132315000Y-113214999I0J-249999D01*
G01*
X132315000Y-114115001D01*
G75*
G02*
X132065001Y-114365000I-249999J0D01*
G01*
X131364999Y-114365000D01*
G75*
G02*
X131115000Y-114115001I0J249999D01*
G01*
G37*
G04 #@! TD.AperFunction*
G04 #@! TA.AperFunction,SMDPad,CuDef*
G36*
G01*
X133115000Y-114115001D02*
X133115000Y-113214999D01*
G75*
G02*
X133364999Y-112965000I249999J0D01*
G01*
X134065001Y-112965000D01*
G75*
G02*
X134315000Y-113214999I0J-249999D01*
G01*
X134315000Y-114115001D01*
G75*
G02*
X134065001Y-114365000I-249999J0D01*
G01*
X133364999Y-114365000D01*
G75*
G02*
X133115000Y-114115001I0J249999D01*
G01*
G37*
G04 #@! TD.AperFunction*
G04 #@! TA.AperFunction,SMDPad,CuDef*
G36*
G01*
X134435001Y-116805000D02*
X133534999Y-116805000D01*
G75*
G02*
X133285000Y-116555001I0J249999D01*
G01*
X133285000Y-115854999D01*
G75*
G02*
X133534999Y-115605000I249999J0D01*
G01*
X134435001Y-115605000D01*
G75*
G02*
X134685000Y-115854999I0J-249999D01*
G01*
X134685000Y-116555001D01*
G75*
G02*
X134435001Y-116805000I-249999J0D01*
G01*
G37*
G04 #@! TD.AperFunction*
G04 #@! TA.AperFunction,SMDPad,CuDef*
G36*
G01*
X134435001Y-118805000D02*
X133534999Y-118805000D01*
G75*
G02*
X133285000Y-118555001I0J249999D01*
G01*
X133285000Y-117854999D01*
G75*
G02*
X133534999Y-117605000I249999J0D01*
G01*
X134435001Y-117605000D01*
G75*
G02*
X134685000Y-117854999I0J-249999D01*
G01*
X134685000Y-118555001D01*
G75*
G02*
X134435001Y-118805000I-249999J0D01*
G01*
G37*
G04 #@! TD.AperFunction*
G04 #@! TA.AperFunction,SMDPad,CuDef*
G36*
G01*
X134435001Y-111725000D02*
X133534999Y-111725000D01*
G75*
G02*
X133285000Y-111475001I0J249999D01*
G01*
X133285000Y-110774999D01*
G75*
G02*
X133534999Y-110525000I249999J0D01*
G01*
X134435001Y-110525000D01*
G75*
G02*
X134685000Y-110774999I0J-249999D01*
G01*
X134685000Y-111475001D01*
G75*
G02*
X134435001Y-111725000I-249999J0D01*
G01*
G37*
G04 #@! TD.AperFunction*
G04 #@! TA.AperFunction,SMDPad,CuDef*
G36*
G01*
X134435001Y-109725000D02*
X133534999Y-109725000D01*
G75*
G02*
X133285000Y-109475001I0J249999D01*
G01*
X133285000Y-108774999D01*
G75*
G02*
X133534999Y-108525000I249999J0D01*
G01*
X134435001Y-108525000D01*
G75*
G02*
X134685000Y-108774999I0J-249999D01*
G01*
X134685000Y-109475001D01*
G75*
G02*
X134435001Y-109725000I-249999J0D01*
G01*
G37*
G04 #@! TD.AperFunction*
G04 #@! TA.AperFunction,SMDPad,CuDef*
G36*
G01*
X141420001Y-115900000D02*
X140519999Y-115900000D01*
G75*
G02*
X140270000Y-115650001I0J249999D01*
G01*
X140270000Y-114949999D01*
G75*
G02*
X140519999Y-114700000I249999J0D01*
G01*
X141420001Y-114700000D01*
G75*
G02*
X141670000Y-114949999I0J-249999D01*
G01*
X141670000Y-115650001D01*
G75*
G02*
X141420001Y-115900000I-249999J0D01*
G01*
G37*
G04 #@! TD.AperFunction*
G04 #@! TA.AperFunction,SMDPad,CuDef*
G36*
G01*
X141420001Y-113900000D02*
X140519999Y-113900000D01*
G75*
G02*
X140270000Y-113650001I0J249999D01*
G01*
X140270000Y-112949999D01*
G75*
G02*
X140519999Y-112700000I249999J0D01*
G01*
X141420001Y-112700000D01*
G75*
G02*
X141670000Y-112949999I0J-249999D01*
G01*
X141670000Y-113650001D01*
G75*
G02*
X141420001Y-113900000I-249999J0D01*
G01*
G37*
G04 #@! TD.AperFunction*
G04 #@! TA.AperFunction,SMDPad,CuDef*
G36*
G01*
X142370000Y-111575001D02*
X142370000Y-110674999D01*
G75*
G02*
X142619999Y-110425000I249999J0D01*
G01*
X143320001Y-110425000D01*
G75*
G02*
X143570000Y-110674999I0J-249999D01*
G01*
X143570000Y-111575001D01*
G75*
G02*
X143320001Y-111825000I-249999J0D01*
G01*
X142619999Y-111825000D01*
G75*
G02*
X142370000Y-111575001I0J249999D01*
G01*
G37*
G04 #@! TD.AperFunction*
G04 #@! TA.AperFunction,SMDPad,CuDef*
G36*
G01*
X140370000Y-111575001D02*
X140370000Y-110674999D01*
G75*
G02*
X140619999Y-110425000I249999J0D01*
G01*
X141320001Y-110425000D01*
G75*
G02*
X141570000Y-110674999I0J-249999D01*
G01*
X141570000Y-111575001D01*
G75*
G02*
X141320001Y-111825000I-249999J0D01*
G01*
X140619999Y-111825000D01*
G75*
G02*
X140370000Y-111575001I0J249999D01*
G01*
G37*
G04 #@! TD.AperFunction*
G04 #@! TA.AperFunction,SMDPad,CuDef*
G36*
G01*
X142424999Y-79680000D02*
X143325001Y-79680000D01*
G75*
G02*
X143575000Y-79929999I0J-249999D01*
G01*
X143575000Y-80630001D01*
G75*
G02*
X143325001Y-80880000I-249999J0D01*
G01*
X142424999Y-80880000D01*
G75*
G02*
X142175000Y-80630001I0J249999D01*
G01*
X142175000Y-79929999D01*
G75*
G02*
X142424999Y-79680000I249999J0D01*
G01*
G37*
G04 #@! TD.AperFunction*
G04 #@! TA.AperFunction,SMDPad,CuDef*
G36*
G01*
X142424999Y-81680000D02*
X143325001Y-81680000D01*
G75*
G02*
X143575000Y-81929999I0J-249999D01*
G01*
X143575000Y-82630001D01*
G75*
G02*
X143325001Y-82880000I-249999J0D01*
G01*
X142424999Y-82880000D01*
G75*
G02*
X142175000Y-82630001I0J249999D01*
G01*
X142175000Y-81929999D01*
G75*
G02*
X142424999Y-81680000I249999J0D01*
G01*
G37*
G04 #@! TD.AperFunction*
G04 #@! TA.AperFunction,SMDPad,CuDef*
G36*
G01*
X145865001Y-80880000D02*
X144964999Y-80880000D01*
G75*
G02*
X144715000Y-80630001I0J249999D01*
G01*
X144715000Y-79929999D01*
G75*
G02*
X144964999Y-79680000I249999J0D01*
G01*
X145865001Y-79680000D01*
G75*
G02*
X146115000Y-79929999I0J-249999D01*
G01*
X146115000Y-80630001D01*
G75*
G02*
X145865001Y-80880000I-249999J0D01*
G01*
G37*
G04 #@! TD.AperFunction*
G04 #@! TA.AperFunction,SMDPad,CuDef*
G36*
G01*
X145865001Y-82880000D02*
X144964999Y-82880000D01*
G75*
G02*
X144715000Y-82630001I0J249999D01*
G01*
X144715000Y-81929999D01*
G75*
G02*
X144964999Y-81680000I249999J0D01*
G01*
X145865001Y-81680000D01*
G75*
G02*
X146115000Y-81929999I0J-249999D01*
G01*
X146115000Y-82630001D01*
G75*
G02*
X145865001Y-82880000I-249999J0D01*
G01*
G37*
G04 #@! TD.AperFunction*
G04 #@! TA.AperFunction,SMDPad,CuDef*
G36*
G01*
X159928000Y-91636001D02*
X159928000Y-90735999D01*
G75*
G02*
X160177999Y-90486000I249999J0D01*
G01*
X160878001Y-90486000D01*
G75*
G02*
X161128000Y-90735999I0J-249999D01*
G01*
X161128000Y-91636001D01*
G75*
G02*
X160878001Y-91886000I-249999J0D01*
G01*
X160177999Y-91886000D01*
G75*
G02*
X159928000Y-91636001I0J249999D01*
G01*
G37*
G04 #@! TD.AperFunction*
G04 #@! TA.AperFunction,SMDPad,CuDef*
G36*
G01*
X157928000Y-91636001D02*
X157928000Y-90735999D01*
G75*
G02*
X158177999Y-90486000I249999J0D01*
G01*
X158878001Y-90486000D01*
G75*
G02*
X159128000Y-90735999I0J-249999D01*
G01*
X159128000Y-91636001D01*
G75*
G02*
X158878001Y-91886000I-249999J0D01*
G01*
X158177999Y-91886000D01*
G75*
G02*
X157928000Y-91636001I0J249999D01*
G01*
G37*
G04 #@! TD.AperFunction*
G04 #@! TA.AperFunction,SMDPad,CuDef*
G36*
G01*
X157928000Y-89096001D02*
X157928000Y-88195999D01*
G75*
G02*
X158177999Y-87946000I249999J0D01*
G01*
X158878001Y-87946000D01*
G75*
G02*
X159128000Y-88195999I0J-249999D01*
G01*
X159128000Y-89096001D01*
G75*
G02*
X158878001Y-89346000I-249999J0D01*
G01*
X158177999Y-89346000D01*
G75*
G02*
X157928000Y-89096001I0J249999D01*
G01*
G37*
G04 #@! TD.AperFunction*
G04 #@! TA.AperFunction,SMDPad,CuDef*
G36*
G01*
X159928000Y-89096001D02*
X159928000Y-88195999D01*
G75*
G02*
X160177999Y-87946000I249999J0D01*
G01*
X160878001Y-87946000D01*
G75*
G02*
X161128000Y-88195999I0J-249999D01*
G01*
X161128000Y-89096001D01*
G75*
G02*
X160878001Y-89346000I-249999J0D01*
G01*
X160177999Y-89346000D01*
G75*
G02*
X159928000Y-89096001I0J249999D01*
G01*
G37*
G04 #@! TD.AperFunction*
G04 #@! TA.AperFunction,SMDPad,CuDef*
G36*
G01*
X132264999Y-78870000D02*
X133165001Y-78870000D01*
G75*
G02*
X133415000Y-79119999I0J-249999D01*
G01*
X133415000Y-79820001D01*
G75*
G02*
X133165001Y-80070000I-249999J0D01*
G01*
X132264999Y-80070000D01*
G75*
G02*
X132015000Y-79820001I0J249999D01*
G01*
X132015000Y-79119999D01*
G75*
G02*
X132264999Y-78870000I249999J0D01*
G01*
G37*
G04 #@! TD.AperFunction*
G04 #@! TA.AperFunction,SMDPad,CuDef*
G36*
G01*
X132264999Y-76870000D02*
X133165001Y-76870000D01*
G75*
G02*
X133415000Y-77119999I0J-249999D01*
G01*
X133415000Y-77820001D01*
G75*
G02*
X133165001Y-78070000I-249999J0D01*
G01*
X132264999Y-78070000D01*
G75*
G02*
X132015000Y-77820001I0J249999D01*
G01*
X132015000Y-77119999D01*
G75*
G02*
X132264999Y-76870000I249999J0D01*
G01*
G37*
G04 #@! TD.AperFunction*
G04 #@! TA.AperFunction,SMDPad,CuDef*
G36*
G01*
X125545001Y-80070000D02*
X124644999Y-80070000D01*
G75*
G02*
X124395000Y-79820001I0J249999D01*
G01*
X124395000Y-79119999D01*
G75*
G02*
X124644999Y-78870000I249999J0D01*
G01*
X125545001Y-78870000D01*
G75*
G02*
X125795000Y-79119999I0J-249999D01*
G01*
X125795000Y-79820001D01*
G75*
G02*
X125545001Y-80070000I-249999J0D01*
G01*
G37*
G04 #@! TD.AperFunction*
G04 #@! TA.AperFunction,SMDPad,CuDef*
G36*
G01*
X125545001Y-78070000D02*
X124644999Y-78070000D01*
G75*
G02*
X124395000Y-77820001I0J249999D01*
G01*
X124395000Y-77119999D01*
G75*
G02*
X124644999Y-76870000I249999J0D01*
G01*
X125545001Y-76870000D01*
G75*
G02*
X125795000Y-77119999I0J-249999D01*
G01*
X125795000Y-77820001D01*
G75*
G02*
X125545001Y-78070000I-249999J0D01*
G01*
G37*
G04 #@! TD.AperFunction*
G04 #@! TA.AperFunction,SMDPad,CuDef*
G36*
G01*
X130625001Y-82515000D02*
X129724999Y-82515000D01*
G75*
G02*
X129475000Y-82265001I0J249999D01*
G01*
X129475000Y-81564999D01*
G75*
G02*
X129724999Y-81315000I249999J0D01*
G01*
X130625001Y-81315000D01*
G75*
G02*
X130875000Y-81564999I0J-249999D01*
G01*
X130875000Y-82265001D01*
G75*
G02*
X130625001Y-82515000I-249999J0D01*
G01*
G37*
G04 #@! TD.AperFunction*
G04 #@! TA.AperFunction,SMDPad,CuDef*
G36*
G01*
X130625001Y-84515000D02*
X129724999Y-84515000D01*
G75*
G02*
X129475000Y-84265001I0J249999D01*
G01*
X129475000Y-83564999D01*
G75*
G02*
X129724999Y-83315000I249999J0D01*
G01*
X130625001Y-83315000D01*
G75*
G02*
X130875000Y-83564999I0J-249999D01*
G01*
X130875000Y-84265001D01*
G75*
G02*
X130625001Y-84515000I-249999J0D01*
G01*
G37*
G04 #@! TD.AperFunction*
G04 #@! TA.AperFunction,SMDPad,CuDef*
G36*
G01*
X128085001Y-84515000D02*
X127184999Y-84515000D01*
G75*
G02*
X126935000Y-84265001I0J249999D01*
G01*
X126935000Y-83564999D01*
G75*
G02*
X127184999Y-83315000I249999J0D01*
G01*
X128085001Y-83315000D01*
G75*
G02*
X128335000Y-83564999I0J-249999D01*
G01*
X128335000Y-84265001D01*
G75*
G02*
X128085001Y-84515000I-249999J0D01*
G01*
G37*
G04 #@! TD.AperFunction*
G04 #@! TA.AperFunction,SMDPad,CuDef*
G36*
G01*
X128085001Y-82515000D02*
X127184999Y-82515000D01*
G75*
G02*
X126935000Y-82265001I0J249999D01*
G01*
X126935000Y-81564999D01*
G75*
G02*
X127184999Y-81315000I249999J0D01*
G01*
X128085001Y-81315000D01*
G75*
G02*
X128335000Y-81564999I0J-249999D01*
G01*
X128335000Y-82265001D01*
G75*
G02*
X128085001Y-82515000I-249999J0D01*
G01*
G37*
G04 #@! TD.AperFunction*
G04 #@! TA.AperFunction,SMDPad,CuDef*
G36*
G01*
X130625001Y-86960000D02*
X129724999Y-86960000D01*
G75*
G02*
X129475000Y-86710001I0J249999D01*
G01*
X129475000Y-86009999D01*
G75*
G02*
X129724999Y-85760000I249999J0D01*
G01*
X130625001Y-85760000D01*
G75*
G02*
X130875000Y-86009999I0J-249999D01*
G01*
X130875000Y-86710001D01*
G75*
G02*
X130625001Y-86960000I-249999J0D01*
G01*
G37*
G04 #@! TD.AperFunction*
G04 #@! TA.AperFunction,SMDPad,CuDef*
G36*
G01*
X130625001Y-88960000D02*
X129724999Y-88960000D01*
G75*
G02*
X129475000Y-88710001I0J249999D01*
G01*
X129475000Y-88009999D01*
G75*
G02*
X129724999Y-87760000I249999J0D01*
G01*
X130625001Y-87760000D01*
G75*
G02*
X130875000Y-88009999I0J-249999D01*
G01*
X130875000Y-88710001D01*
G75*
G02*
X130625001Y-88960000I-249999J0D01*
G01*
G37*
G04 #@! TD.AperFunction*
G04 #@! TA.AperFunction,SMDPad,CuDef*
G36*
G01*
X128085001Y-88960000D02*
X127184999Y-88960000D01*
G75*
G02*
X126935000Y-88710001I0J249999D01*
G01*
X126935000Y-88009999D01*
G75*
G02*
X127184999Y-87760000I249999J0D01*
G01*
X128085001Y-87760000D01*
G75*
G02*
X128335000Y-88009999I0J-249999D01*
G01*
X128335000Y-88710001D01*
G75*
G02*
X128085001Y-88960000I-249999J0D01*
G01*
G37*
G04 #@! TD.AperFunction*
G04 #@! TA.AperFunction,SMDPad,CuDef*
G36*
G01*
X128085001Y-86960000D02*
X127184999Y-86960000D01*
G75*
G02*
X126935000Y-86710001I0J249999D01*
G01*
X126935000Y-86009999D01*
G75*
G02*
X127184999Y-85760000I249999J0D01*
G01*
X128085001Y-85760000D01*
G75*
G02*
X128335000Y-86009999I0J-249999D01*
G01*
X128335000Y-86710001D01*
G75*
G02*
X128085001Y-86960000I-249999J0D01*
G01*
G37*
G04 #@! TD.AperFunction*
G04 #@! TA.AperFunction,SMDPad,CuDef*
G36*
G01*
X93380000Y-70300001D02*
X93380000Y-69399999D01*
G75*
G02*
X93629999Y-69150000I249999J0D01*
G01*
X94330001Y-69150000D01*
G75*
G02*
X94580000Y-69399999I0J-249999D01*
G01*
X94580000Y-70300001D01*
G75*
G02*
X94330001Y-70550000I-249999J0D01*
G01*
X93629999Y-70550000D01*
G75*
G02*
X93380000Y-70300001I0J249999D01*
G01*
G37*
G04 #@! TD.AperFunction*
G04 #@! TA.AperFunction,SMDPad,CuDef*
G36*
G01*
X91380000Y-70300001D02*
X91380000Y-69399999D01*
G75*
G02*
X91629999Y-69150000I249999J0D01*
G01*
X92330001Y-69150000D01*
G75*
G02*
X92580000Y-69399999I0J-249999D01*
G01*
X92580000Y-70300001D01*
G75*
G02*
X92330001Y-70550000I-249999J0D01*
G01*
X91629999Y-70550000D01*
G75*
G02*
X91380000Y-70300001I0J249999D01*
G01*
G37*
G04 #@! TD.AperFunction*
G04 #@! TA.AperFunction,SMDPad,CuDef*
G36*
G01*
X91380000Y-74745001D02*
X91380000Y-73844999D01*
G75*
G02*
X91629999Y-73595000I249999J0D01*
G01*
X92330001Y-73595000D01*
G75*
G02*
X92580000Y-73844999I0J-249999D01*
G01*
X92580000Y-74745001D01*
G75*
G02*
X92330001Y-74995000I-249999J0D01*
G01*
X91629999Y-74995000D01*
G75*
G02*
X91380000Y-74745001I0J249999D01*
G01*
G37*
G04 #@! TD.AperFunction*
G04 #@! TA.AperFunction,SMDPad,CuDef*
G36*
G01*
X93380000Y-74745001D02*
X93380000Y-73844999D01*
G75*
G02*
X93629999Y-73595000I249999J0D01*
G01*
X94330001Y-73595000D01*
G75*
G02*
X94580000Y-73844999I0J-249999D01*
G01*
X94580000Y-74745001D01*
G75*
G02*
X94330001Y-74995000I-249999J0D01*
G01*
X93629999Y-74995000D01*
G75*
G02*
X93380000Y-74745001I0J249999D01*
G01*
G37*
G04 #@! TD.AperFunction*
G04 #@! TA.AperFunction,SMDPad,CuDef*
G36*
G01*
X119440000Y-80829999D02*
X119440000Y-81730001D01*
G75*
G02*
X119190001Y-81980000I-249999J0D01*
G01*
X118489999Y-81980000D01*
G75*
G02*
X118240000Y-81730001I0J249999D01*
G01*
X118240000Y-80829999D01*
G75*
G02*
X118489999Y-80580000I249999J0D01*
G01*
X119190001Y-80580000D01*
G75*
G02*
X119440000Y-80829999I0J-249999D01*
G01*
G37*
G04 #@! TD.AperFunction*
G04 #@! TA.AperFunction,SMDPad,CuDef*
G36*
G01*
X117440000Y-80829999D02*
X117440000Y-81730001D01*
G75*
G02*
X117190001Y-81980000I-249999J0D01*
G01*
X116489999Y-81980000D01*
G75*
G02*
X116240000Y-81730001I0J249999D01*
G01*
X116240000Y-80829999D01*
G75*
G02*
X116489999Y-80580000I249999J0D01*
G01*
X117190001Y-80580000D01*
G75*
G02*
X117440000Y-80829999I0J-249999D01*
G01*
G37*
G04 #@! TD.AperFunction*
G04 #@! TA.AperFunction,SMDPad,CuDef*
G36*
G01*
X117440000Y-83369999D02*
X117440000Y-84270001D01*
G75*
G02*
X117190001Y-84520000I-249999J0D01*
G01*
X116489999Y-84520000D01*
G75*
G02*
X116240000Y-84270001I0J249999D01*
G01*
X116240000Y-83369999D01*
G75*
G02*
X116489999Y-83120000I249999J0D01*
G01*
X117190001Y-83120000D01*
G75*
G02*
X117440000Y-83369999I0J-249999D01*
G01*
G37*
G04 #@! TD.AperFunction*
G04 #@! TA.AperFunction,SMDPad,CuDef*
G36*
G01*
X119440000Y-83369999D02*
X119440000Y-84270001D01*
G75*
G02*
X119190001Y-84520000I-249999J0D01*
G01*
X118489999Y-84520000D01*
G75*
G02*
X118240000Y-84270001I0J249999D01*
G01*
X118240000Y-83369999D01*
G75*
G02*
X118489999Y-83120000I249999J0D01*
G01*
X119190001Y-83120000D01*
G75*
G02*
X119440000Y-83369999I0J-249999D01*
G01*
G37*
G04 #@! TD.AperFunction*
D36*
X152738000Y-113030000D03*
X152738000Y-112080000D03*
X152738000Y-113980000D03*
X150538000Y-113980000D03*
X150538000Y-113030000D03*
X150538000Y-112080000D03*
G04 #@! TA.AperFunction,SMDPad,CuDef*
G36*
G01*
X102520000Y-71115000D02*
X102720000Y-71115000D01*
G75*
G02*
X102820000Y-71215000I0J-100000D01*
G01*
X102820000Y-72915000D01*
G75*
G02*
X102720000Y-73015000I-100000J0D01*
G01*
X102520000Y-73015000D01*
G75*
G02*
X102420000Y-72915000I0J100000D01*
G01*
X102420000Y-71215000D01*
G75*
G02*
X102520000Y-71115000I100000J0D01*
G01*
G37*
G04 #@! TD.AperFunction*
G04 #@! TA.AperFunction,SMDPad,CuDef*
G36*
G01*
X101870000Y-71115000D02*
X102070000Y-71115000D01*
G75*
G02*
X102170000Y-71215000I0J-100000D01*
G01*
X102170000Y-72915000D01*
G75*
G02*
X102070000Y-73015000I-100000J0D01*
G01*
X101870000Y-73015000D01*
G75*
G02*
X101770000Y-72915000I0J100000D01*
G01*
X101770000Y-71215000D01*
G75*
G02*
X101870000Y-71115000I100000J0D01*
G01*
G37*
G04 #@! TD.AperFunction*
G04 #@! TA.AperFunction,SMDPad,CuDef*
G36*
G01*
X101220000Y-71115000D02*
X101420000Y-71115000D01*
G75*
G02*
X101520000Y-71215000I0J-100000D01*
G01*
X101520000Y-72915000D01*
G75*
G02*
X101420000Y-73015000I-100000J0D01*
G01*
X101220000Y-73015000D01*
G75*
G02*
X101120000Y-72915000I0J100000D01*
G01*
X101120000Y-71215000D01*
G75*
G02*
X101220000Y-71115000I100000J0D01*
G01*
G37*
G04 #@! TD.AperFunction*
G04 #@! TA.AperFunction,SMDPad,CuDef*
G36*
G01*
X100570000Y-71115000D02*
X100770000Y-71115000D01*
G75*
G02*
X100870000Y-71215000I0J-100000D01*
G01*
X100870000Y-72915000D01*
G75*
G02*
X100770000Y-73015000I-100000J0D01*
G01*
X100570000Y-73015000D01*
G75*
G02*
X100470000Y-72915000I0J100000D01*
G01*
X100470000Y-71215000D01*
G75*
G02*
X100570000Y-71115000I100000J0D01*
G01*
G37*
G04 #@! TD.AperFunction*
G04 #@! TA.AperFunction,SMDPad,CuDef*
G36*
G01*
X99920000Y-71115000D02*
X100120000Y-71115000D01*
G75*
G02*
X100220000Y-71215000I0J-100000D01*
G01*
X100220000Y-72915000D01*
G75*
G02*
X100120000Y-73015000I-100000J0D01*
G01*
X99920000Y-73015000D01*
G75*
G02*
X99820000Y-72915000I0J100000D01*
G01*
X99820000Y-71215000D01*
G75*
G02*
X99920000Y-71115000I100000J0D01*
G01*
G37*
G04 #@! TD.AperFunction*
G04 #@! TA.AperFunction,SMDPad,CuDef*
G36*
G01*
X99270000Y-71115000D02*
X99470000Y-71115000D01*
G75*
G02*
X99570000Y-71215000I0J-100000D01*
G01*
X99570000Y-72915000D01*
G75*
G02*
X99470000Y-73015000I-100000J0D01*
G01*
X99270000Y-73015000D01*
G75*
G02*
X99170000Y-72915000I0J100000D01*
G01*
X99170000Y-71215000D01*
G75*
G02*
X99270000Y-71115000I100000J0D01*
G01*
G37*
G04 #@! TD.AperFunction*
G04 #@! TA.AperFunction,SMDPad,CuDef*
G36*
G01*
X98620000Y-71115000D02*
X98820000Y-71115000D01*
G75*
G02*
X98920000Y-71215000I0J-100000D01*
G01*
X98920000Y-72915000D01*
G75*
G02*
X98820000Y-73015000I-100000J0D01*
G01*
X98620000Y-73015000D01*
G75*
G02*
X98520000Y-72915000I0J100000D01*
G01*
X98520000Y-71215000D01*
G75*
G02*
X98620000Y-71115000I100000J0D01*
G01*
G37*
G04 #@! TD.AperFunction*
G04 #@! TA.AperFunction,SMDPad,CuDef*
G36*
G01*
X97970000Y-71115000D02*
X98170000Y-71115000D01*
G75*
G02*
X98270000Y-71215000I0J-100000D01*
G01*
X98270000Y-72915000D01*
G75*
G02*
X98170000Y-73015000I-100000J0D01*
G01*
X97970000Y-73015000D01*
G75*
G02*
X97870000Y-72915000I0J100000D01*
G01*
X97870000Y-71215000D01*
G75*
G02*
X97970000Y-71115000I100000J0D01*
G01*
G37*
G04 #@! TD.AperFunction*
G04 #@! TA.AperFunction,SMDPad,CuDef*
G36*
G01*
X97320000Y-71115000D02*
X97520000Y-71115000D01*
G75*
G02*
X97620000Y-71215000I0J-100000D01*
G01*
X97620000Y-72915000D01*
G75*
G02*
X97520000Y-73015000I-100000J0D01*
G01*
X97320000Y-73015000D01*
G75*
G02*
X97220000Y-72915000I0J100000D01*
G01*
X97220000Y-71215000D01*
G75*
G02*
X97320000Y-71115000I100000J0D01*
G01*
G37*
G04 #@! TD.AperFunction*
G04 #@! TA.AperFunction,SMDPad,CuDef*
G36*
G01*
X96670000Y-71115000D02*
X96870000Y-71115000D01*
G75*
G02*
X96970000Y-71215000I0J-100000D01*
G01*
X96970000Y-72915000D01*
G75*
G02*
X96870000Y-73015000I-100000J0D01*
G01*
X96670000Y-73015000D01*
G75*
G02*
X96570000Y-72915000I0J100000D01*
G01*
X96570000Y-71215000D01*
G75*
G02*
X96670000Y-71115000I100000J0D01*
G01*
G37*
G04 #@! TD.AperFunction*
G04 #@! TA.AperFunction,SMDPad,CuDef*
G36*
G01*
X96670000Y-78115000D02*
X96870000Y-78115000D01*
G75*
G02*
X96970000Y-78215000I0J-100000D01*
G01*
X96970000Y-79915000D01*
G75*
G02*
X96870000Y-80015000I-100000J0D01*
G01*
X96670000Y-80015000D01*
G75*
G02*
X96570000Y-79915000I0J100000D01*
G01*
X96570000Y-78215000D01*
G75*
G02*
X96670000Y-78115000I100000J0D01*
G01*
G37*
G04 #@! TD.AperFunction*
G04 #@! TA.AperFunction,SMDPad,CuDef*
G36*
G01*
X97320000Y-78115000D02*
X97520000Y-78115000D01*
G75*
G02*
X97620000Y-78215000I0J-100000D01*
G01*
X97620000Y-79915000D01*
G75*
G02*
X97520000Y-80015000I-100000J0D01*
G01*
X97320000Y-80015000D01*
G75*
G02*
X97220000Y-79915000I0J100000D01*
G01*
X97220000Y-78215000D01*
G75*
G02*
X97320000Y-78115000I100000J0D01*
G01*
G37*
G04 #@! TD.AperFunction*
G04 #@! TA.AperFunction,SMDPad,CuDef*
G36*
G01*
X97970000Y-78115000D02*
X98170000Y-78115000D01*
G75*
G02*
X98270000Y-78215000I0J-100000D01*
G01*
X98270000Y-79915000D01*
G75*
G02*
X98170000Y-80015000I-100000J0D01*
G01*
X97970000Y-80015000D01*
G75*
G02*
X97870000Y-79915000I0J100000D01*
G01*
X97870000Y-78215000D01*
G75*
G02*
X97970000Y-78115000I100000J0D01*
G01*
G37*
G04 #@! TD.AperFunction*
G04 #@! TA.AperFunction,SMDPad,CuDef*
G36*
G01*
X98620000Y-78115000D02*
X98820000Y-78115000D01*
G75*
G02*
X98920000Y-78215000I0J-100000D01*
G01*
X98920000Y-79915000D01*
G75*
G02*
X98820000Y-80015000I-100000J0D01*
G01*
X98620000Y-80015000D01*
G75*
G02*
X98520000Y-79915000I0J100000D01*
G01*
X98520000Y-78215000D01*
G75*
G02*
X98620000Y-78115000I100000J0D01*
G01*
G37*
G04 #@! TD.AperFunction*
G04 #@! TA.AperFunction,SMDPad,CuDef*
G36*
G01*
X99270000Y-78115000D02*
X99470000Y-78115000D01*
G75*
G02*
X99570000Y-78215000I0J-100000D01*
G01*
X99570000Y-79915000D01*
G75*
G02*
X99470000Y-80015000I-100000J0D01*
G01*
X99270000Y-80015000D01*
G75*
G02*
X99170000Y-79915000I0J100000D01*
G01*
X99170000Y-78215000D01*
G75*
G02*
X99270000Y-78115000I100000J0D01*
G01*
G37*
G04 #@! TD.AperFunction*
G04 #@! TA.AperFunction,SMDPad,CuDef*
G36*
G01*
X99920000Y-78115000D02*
X100120000Y-78115000D01*
G75*
G02*
X100220000Y-78215000I0J-100000D01*
G01*
X100220000Y-79915000D01*
G75*
G02*
X100120000Y-80015000I-100000J0D01*
G01*
X99920000Y-80015000D01*
G75*
G02*
X99820000Y-79915000I0J100000D01*
G01*
X99820000Y-78215000D01*
G75*
G02*
X99920000Y-78115000I100000J0D01*
G01*
G37*
G04 #@! TD.AperFunction*
G04 #@! TA.AperFunction,SMDPad,CuDef*
G36*
G01*
X100570000Y-78115000D02*
X100770000Y-78115000D01*
G75*
G02*
X100870000Y-78215000I0J-100000D01*
G01*
X100870000Y-79915000D01*
G75*
G02*
X100770000Y-80015000I-100000J0D01*
G01*
X100570000Y-80015000D01*
G75*
G02*
X100470000Y-79915000I0J100000D01*
G01*
X100470000Y-78215000D01*
G75*
G02*
X100570000Y-78115000I100000J0D01*
G01*
G37*
G04 #@! TD.AperFunction*
G04 #@! TA.AperFunction,SMDPad,CuDef*
G36*
G01*
X101220000Y-78115000D02*
X101420000Y-78115000D01*
G75*
G02*
X101520000Y-78215000I0J-100000D01*
G01*
X101520000Y-79915000D01*
G75*
G02*
X101420000Y-80015000I-100000J0D01*
G01*
X101220000Y-80015000D01*
G75*
G02*
X101120000Y-79915000I0J100000D01*
G01*
X101120000Y-78215000D01*
G75*
G02*
X101220000Y-78115000I100000J0D01*
G01*
G37*
G04 #@! TD.AperFunction*
G04 #@! TA.AperFunction,SMDPad,CuDef*
G36*
G01*
X101870000Y-78115000D02*
X102070000Y-78115000D01*
G75*
G02*
X102170000Y-78215000I0J-100000D01*
G01*
X102170000Y-79915000D01*
G75*
G02*
X102070000Y-80015000I-100000J0D01*
G01*
X101870000Y-80015000D01*
G75*
G02*
X101770000Y-79915000I0J100000D01*
G01*
X101770000Y-78215000D01*
G75*
G02*
X101870000Y-78115000I100000J0D01*
G01*
G37*
G04 #@! TD.AperFunction*
G04 #@! TA.AperFunction,SMDPad,CuDef*
G36*
G01*
X102520000Y-78115000D02*
X102720000Y-78115000D01*
G75*
G02*
X102820000Y-78215000I0J-100000D01*
G01*
X102820000Y-79915000D01*
G75*
G02*
X102720000Y-80015000I-100000J0D01*
G01*
X102520000Y-80015000D01*
G75*
G02*
X102420000Y-79915000I0J100000D01*
G01*
X102420000Y-78215000D01*
G75*
G02*
X102520000Y-78115000I100000J0D01*
G01*
G37*
G04 #@! TD.AperFunction*
G04 #@! TA.AperFunction,SMDPad,CuDef*
G36*
G01*
X113950000Y-78115000D02*
X114150000Y-78115000D01*
G75*
G02*
X114250000Y-78215000I0J-100000D01*
G01*
X114250000Y-79915000D01*
G75*
G02*
X114150000Y-80015000I-100000J0D01*
G01*
X113950000Y-80015000D01*
G75*
G02*
X113850000Y-79915000I0J100000D01*
G01*
X113850000Y-78215000D01*
G75*
G02*
X113950000Y-78115000I100000J0D01*
G01*
G37*
G04 #@! TD.AperFunction*
G04 #@! TA.AperFunction,SMDPad,CuDef*
G36*
G01*
X113300000Y-78115000D02*
X113500000Y-78115000D01*
G75*
G02*
X113600000Y-78215000I0J-100000D01*
G01*
X113600000Y-79915000D01*
G75*
G02*
X113500000Y-80015000I-100000J0D01*
G01*
X113300000Y-80015000D01*
G75*
G02*
X113200000Y-79915000I0J100000D01*
G01*
X113200000Y-78215000D01*
G75*
G02*
X113300000Y-78115000I100000J0D01*
G01*
G37*
G04 #@! TD.AperFunction*
G04 #@! TA.AperFunction,SMDPad,CuDef*
G36*
G01*
X112650000Y-78115000D02*
X112850000Y-78115000D01*
G75*
G02*
X112950000Y-78215000I0J-100000D01*
G01*
X112950000Y-79915000D01*
G75*
G02*
X112850000Y-80015000I-100000J0D01*
G01*
X112650000Y-80015000D01*
G75*
G02*
X112550000Y-79915000I0J100000D01*
G01*
X112550000Y-78215000D01*
G75*
G02*
X112650000Y-78115000I100000J0D01*
G01*
G37*
G04 #@! TD.AperFunction*
G04 #@! TA.AperFunction,SMDPad,CuDef*
G36*
G01*
X112000000Y-78115000D02*
X112200000Y-78115000D01*
G75*
G02*
X112300000Y-78215000I0J-100000D01*
G01*
X112300000Y-79915000D01*
G75*
G02*
X112200000Y-80015000I-100000J0D01*
G01*
X112000000Y-80015000D01*
G75*
G02*
X111900000Y-79915000I0J100000D01*
G01*
X111900000Y-78215000D01*
G75*
G02*
X112000000Y-78115000I100000J0D01*
G01*
G37*
G04 #@! TD.AperFunction*
G04 #@! TA.AperFunction,SMDPad,CuDef*
G36*
G01*
X111350000Y-78115000D02*
X111550000Y-78115000D01*
G75*
G02*
X111650000Y-78215000I0J-100000D01*
G01*
X111650000Y-79915000D01*
G75*
G02*
X111550000Y-80015000I-100000J0D01*
G01*
X111350000Y-80015000D01*
G75*
G02*
X111250000Y-79915000I0J100000D01*
G01*
X111250000Y-78215000D01*
G75*
G02*
X111350000Y-78115000I100000J0D01*
G01*
G37*
G04 #@! TD.AperFunction*
G04 #@! TA.AperFunction,SMDPad,CuDef*
G36*
G01*
X110700000Y-78115000D02*
X110900000Y-78115000D01*
G75*
G02*
X111000000Y-78215000I0J-100000D01*
G01*
X111000000Y-79915000D01*
G75*
G02*
X110900000Y-80015000I-100000J0D01*
G01*
X110700000Y-80015000D01*
G75*
G02*
X110600000Y-79915000I0J100000D01*
G01*
X110600000Y-78215000D01*
G75*
G02*
X110700000Y-78115000I100000J0D01*
G01*
G37*
G04 #@! TD.AperFunction*
G04 #@! TA.AperFunction,SMDPad,CuDef*
G36*
G01*
X110050000Y-78115000D02*
X110250000Y-78115000D01*
G75*
G02*
X110350000Y-78215000I0J-100000D01*
G01*
X110350000Y-79915000D01*
G75*
G02*
X110250000Y-80015000I-100000J0D01*
G01*
X110050000Y-80015000D01*
G75*
G02*
X109950000Y-79915000I0J100000D01*
G01*
X109950000Y-78215000D01*
G75*
G02*
X110050000Y-78115000I100000J0D01*
G01*
G37*
G04 #@! TD.AperFunction*
G04 #@! TA.AperFunction,SMDPad,CuDef*
G36*
G01*
X109400000Y-78115000D02*
X109600000Y-78115000D01*
G75*
G02*
X109700000Y-78215000I0J-100000D01*
G01*
X109700000Y-79915000D01*
G75*
G02*
X109600000Y-80015000I-100000J0D01*
G01*
X109400000Y-80015000D01*
G75*
G02*
X109300000Y-79915000I0J100000D01*
G01*
X109300000Y-78215000D01*
G75*
G02*
X109400000Y-78115000I100000J0D01*
G01*
G37*
G04 #@! TD.AperFunction*
G04 #@! TA.AperFunction,SMDPad,CuDef*
G36*
G01*
X108750000Y-78115000D02*
X108950000Y-78115000D01*
G75*
G02*
X109050000Y-78215000I0J-100000D01*
G01*
X109050000Y-79915000D01*
G75*
G02*
X108950000Y-80015000I-100000J0D01*
G01*
X108750000Y-80015000D01*
G75*
G02*
X108650000Y-79915000I0J100000D01*
G01*
X108650000Y-78215000D01*
G75*
G02*
X108750000Y-78115000I100000J0D01*
G01*
G37*
G04 #@! TD.AperFunction*
G04 #@! TA.AperFunction,SMDPad,CuDef*
G36*
G01*
X108100000Y-78115000D02*
X108300000Y-78115000D01*
G75*
G02*
X108400000Y-78215000I0J-100000D01*
G01*
X108400000Y-79915000D01*
G75*
G02*
X108300000Y-80015000I-100000J0D01*
G01*
X108100000Y-80015000D01*
G75*
G02*
X108000000Y-79915000I0J100000D01*
G01*
X108000000Y-78215000D01*
G75*
G02*
X108100000Y-78115000I100000J0D01*
G01*
G37*
G04 #@! TD.AperFunction*
G04 #@! TA.AperFunction,SMDPad,CuDef*
G36*
G01*
X108100000Y-71115000D02*
X108300000Y-71115000D01*
G75*
G02*
X108400000Y-71215000I0J-100000D01*
G01*
X108400000Y-72915000D01*
G75*
G02*
X108300000Y-73015000I-100000J0D01*
G01*
X108100000Y-73015000D01*
G75*
G02*
X108000000Y-72915000I0J100000D01*
G01*
X108000000Y-71215000D01*
G75*
G02*
X108100000Y-71115000I100000J0D01*
G01*
G37*
G04 #@! TD.AperFunction*
G04 #@! TA.AperFunction,SMDPad,CuDef*
G36*
G01*
X108750000Y-71115000D02*
X108950000Y-71115000D01*
G75*
G02*
X109050000Y-71215000I0J-100000D01*
G01*
X109050000Y-72915000D01*
G75*
G02*
X108950000Y-73015000I-100000J0D01*
G01*
X108750000Y-73015000D01*
G75*
G02*
X108650000Y-72915000I0J100000D01*
G01*
X108650000Y-71215000D01*
G75*
G02*
X108750000Y-71115000I100000J0D01*
G01*
G37*
G04 #@! TD.AperFunction*
G04 #@! TA.AperFunction,SMDPad,CuDef*
G36*
G01*
X109400000Y-71115000D02*
X109600000Y-71115000D01*
G75*
G02*
X109700000Y-71215000I0J-100000D01*
G01*
X109700000Y-72915000D01*
G75*
G02*
X109600000Y-73015000I-100000J0D01*
G01*
X109400000Y-73015000D01*
G75*
G02*
X109300000Y-72915000I0J100000D01*
G01*
X109300000Y-71215000D01*
G75*
G02*
X109400000Y-71115000I100000J0D01*
G01*
G37*
G04 #@! TD.AperFunction*
G04 #@! TA.AperFunction,SMDPad,CuDef*
G36*
G01*
X110050000Y-71115000D02*
X110250000Y-71115000D01*
G75*
G02*
X110350000Y-71215000I0J-100000D01*
G01*
X110350000Y-72915000D01*
G75*
G02*
X110250000Y-73015000I-100000J0D01*
G01*
X110050000Y-73015000D01*
G75*
G02*
X109950000Y-72915000I0J100000D01*
G01*
X109950000Y-71215000D01*
G75*
G02*
X110050000Y-71115000I100000J0D01*
G01*
G37*
G04 #@! TD.AperFunction*
G04 #@! TA.AperFunction,SMDPad,CuDef*
G36*
G01*
X110700000Y-71115000D02*
X110900000Y-71115000D01*
G75*
G02*
X111000000Y-71215000I0J-100000D01*
G01*
X111000000Y-72915000D01*
G75*
G02*
X110900000Y-73015000I-100000J0D01*
G01*
X110700000Y-73015000D01*
G75*
G02*
X110600000Y-72915000I0J100000D01*
G01*
X110600000Y-71215000D01*
G75*
G02*
X110700000Y-71115000I100000J0D01*
G01*
G37*
G04 #@! TD.AperFunction*
G04 #@! TA.AperFunction,SMDPad,CuDef*
G36*
G01*
X111350000Y-71115000D02*
X111550000Y-71115000D01*
G75*
G02*
X111650000Y-71215000I0J-100000D01*
G01*
X111650000Y-72915000D01*
G75*
G02*
X111550000Y-73015000I-100000J0D01*
G01*
X111350000Y-73015000D01*
G75*
G02*
X111250000Y-72915000I0J100000D01*
G01*
X111250000Y-71215000D01*
G75*
G02*
X111350000Y-71115000I100000J0D01*
G01*
G37*
G04 #@! TD.AperFunction*
G04 #@! TA.AperFunction,SMDPad,CuDef*
G36*
G01*
X112000000Y-71115000D02*
X112200000Y-71115000D01*
G75*
G02*
X112300000Y-71215000I0J-100000D01*
G01*
X112300000Y-72915000D01*
G75*
G02*
X112200000Y-73015000I-100000J0D01*
G01*
X112000000Y-73015000D01*
G75*
G02*
X111900000Y-72915000I0J100000D01*
G01*
X111900000Y-71215000D01*
G75*
G02*
X112000000Y-71115000I100000J0D01*
G01*
G37*
G04 #@! TD.AperFunction*
G04 #@! TA.AperFunction,SMDPad,CuDef*
G36*
G01*
X112650000Y-71115000D02*
X112850000Y-71115000D01*
G75*
G02*
X112950000Y-71215000I0J-100000D01*
G01*
X112950000Y-72915000D01*
G75*
G02*
X112850000Y-73015000I-100000J0D01*
G01*
X112650000Y-73015000D01*
G75*
G02*
X112550000Y-72915000I0J100000D01*
G01*
X112550000Y-71215000D01*
G75*
G02*
X112650000Y-71115000I100000J0D01*
G01*
G37*
G04 #@! TD.AperFunction*
G04 #@! TA.AperFunction,SMDPad,CuDef*
G36*
G01*
X113300000Y-71115000D02*
X113500000Y-71115000D01*
G75*
G02*
X113600000Y-71215000I0J-100000D01*
G01*
X113600000Y-72915000D01*
G75*
G02*
X113500000Y-73015000I-100000J0D01*
G01*
X113300000Y-73015000D01*
G75*
G02*
X113200000Y-72915000I0J100000D01*
G01*
X113200000Y-71215000D01*
G75*
G02*
X113300000Y-71115000I100000J0D01*
G01*
G37*
G04 #@! TD.AperFunction*
G04 #@! TA.AperFunction,SMDPad,CuDef*
G36*
G01*
X113950000Y-71115000D02*
X114150000Y-71115000D01*
G75*
G02*
X114250000Y-71215000I0J-100000D01*
G01*
X114250000Y-72915000D01*
G75*
G02*
X114150000Y-73015000I-100000J0D01*
G01*
X113950000Y-73015000D01*
G75*
G02*
X113850000Y-72915000I0J100000D01*
G01*
X113850000Y-71215000D01*
G75*
G02*
X113950000Y-71115000I100000J0D01*
G01*
G37*
G04 #@! TD.AperFunction*
X152738000Y-106172000D03*
X152738000Y-105222000D03*
X152738000Y-107122000D03*
X150538000Y-107122000D03*
X150538000Y-106172000D03*
X150538000Y-105222000D03*
G04 #@! TA.AperFunction,SMDPad,CuDef*
G36*
G01*
X147910000Y-72240000D02*
X147910000Y-72540000D01*
G75*
G02*
X147760000Y-72690000I-150000J0D01*
G01*
X146460000Y-72690000D01*
G75*
G02*
X146310000Y-72540000I0J150000D01*
G01*
X146310000Y-72240000D01*
G75*
G02*
X146460000Y-72090000I150000J0D01*
G01*
X147760000Y-72090000D01*
G75*
G02*
X147910000Y-72240000I0J-150000D01*
G01*
G37*
G04 #@! TD.AperFunction*
G04 #@! TA.AperFunction,SMDPad,CuDef*
G36*
G01*
X147910000Y-70970000D02*
X147910000Y-71270000D01*
G75*
G02*
X147760000Y-71420000I-150000J0D01*
G01*
X146460000Y-71420000D01*
G75*
G02*
X146310000Y-71270000I0J150000D01*
G01*
X146310000Y-70970000D01*
G75*
G02*
X146460000Y-70820000I150000J0D01*
G01*
X147760000Y-70820000D01*
G75*
G02*
X147910000Y-70970000I0J-150000D01*
G01*
G37*
G04 #@! TD.AperFunction*
G04 #@! TA.AperFunction,SMDPad,CuDef*
G36*
G01*
X147910000Y-69700000D02*
X147910000Y-70000000D01*
G75*
G02*
X147760000Y-70150000I-150000J0D01*
G01*
X146460000Y-70150000D01*
G75*
G02*
X146310000Y-70000000I0J150000D01*
G01*
X146310000Y-69700000D01*
G75*
G02*
X146460000Y-69550000I150000J0D01*
G01*
X147760000Y-69550000D01*
G75*
G02*
X147910000Y-69700000I0J-150000D01*
G01*
G37*
G04 #@! TD.AperFunction*
G04 #@! TA.AperFunction,SMDPad,CuDef*
G36*
G01*
X147910000Y-68430000D02*
X147910000Y-68730000D01*
G75*
G02*
X147760000Y-68880000I-150000J0D01*
G01*
X146460000Y-68880000D01*
G75*
G02*
X146310000Y-68730000I0J150000D01*
G01*
X146310000Y-68430000D01*
G75*
G02*
X146460000Y-68280000I150000J0D01*
G01*
X147760000Y-68280000D01*
G75*
G02*
X147910000Y-68430000I0J-150000D01*
G01*
G37*
G04 #@! TD.AperFunction*
G04 #@! TA.AperFunction,SMDPad,CuDef*
G36*
G01*
X140710000Y-68430000D02*
X140710000Y-68730000D01*
G75*
G02*
X140560000Y-68880000I-150000J0D01*
G01*
X139260000Y-68880000D01*
G75*
G02*
X139110000Y-68730000I0J150000D01*
G01*
X139110000Y-68430000D01*
G75*
G02*
X139260000Y-68280000I150000J0D01*
G01*
X140560000Y-68280000D01*
G75*
G02*
X140710000Y-68430000I0J-150000D01*
G01*
G37*
G04 #@! TD.AperFunction*
G04 #@! TA.AperFunction,SMDPad,CuDef*
G36*
G01*
X140710000Y-69700000D02*
X140710000Y-70000000D01*
G75*
G02*
X140560000Y-70150000I-150000J0D01*
G01*
X139260000Y-70150000D01*
G75*
G02*
X139110000Y-70000000I0J150000D01*
G01*
X139110000Y-69700000D01*
G75*
G02*
X139260000Y-69550000I150000J0D01*
G01*
X140560000Y-69550000D01*
G75*
G02*
X140710000Y-69700000I0J-150000D01*
G01*
G37*
G04 #@! TD.AperFunction*
G04 #@! TA.AperFunction,SMDPad,CuDef*
G36*
G01*
X140710000Y-70970000D02*
X140710000Y-71270000D01*
G75*
G02*
X140560000Y-71420000I-150000J0D01*
G01*
X139260000Y-71420000D01*
G75*
G02*
X139110000Y-71270000I0J150000D01*
G01*
X139110000Y-70970000D01*
G75*
G02*
X139260000Y-70820000I150000J0D01*
G01*
X140560000Y-70820000D01*
G75*
G02*
X140710000Y-70970000I0J-150000D01*
G01*
G37*
G04 #@! TD.AperFunction*
G04 #@! TA.AperFunction,SMDPad,CuDef*
G36*
G01*
X140710000Y-72240000D02*
X140710000Y-72540000D01*
G75*
G02*
X140560000Y-72690000I-150000J0D01*
G01*
X139260000Y-72690000D01*
G75*
G02*
X139110000Y-72540000I0J150000D01*
G01*
X139110000Y-72240000D01*
G75*
G02*
X139260000Y-72090000I150000J0D01*
G01*
X140560000Y-72090000D01*
G75*
G02*
X140710000Y-72240000I0J-150000D01*
G01*
G37*
G04 #@! TD.AperFunction*
D37*
X137795000Y-115400000D03*
X138745000Y-115400000D03*
X136845000Y-115400000D03*
X136845000Y-113200000D03*
X137795000Y-113200000D03*
X138745000Y-113200000D03*
G04 #@! TA.AperFunction,SMDPad,CuDef*
G36*
G01*
X152503000Y-81557000D02*
X152503000Y-81257000D01*
G75*
G02*
X152653000Y-81107000I150000J0D01*
G01*
X154303000Y-81107000D01*
G75*
G02*
X154453000Y-81257000I0J-150000D01*
G01*
X154453000Y-81557000D01*
G75*
G02*
X154303000Y-81707000I-150000J0D01*
G01*
X152653000Y-81707000D01*
G75*
G02*
X152503000Y-81557000I0J150000D01*
G01*
G37*
G04 #@! TD.AperFunction*
G04 #@! TA.AperFunction,SMDPad,CuDef*
G36*
G01*
X152503000Y-82827000D02*
X152503000Y-82527000D01*
G75*
G02*
X152653000Y-82377000I150000J0D01*
G01*
X154303000Y-82377000D01*
G75*
G02*
X154453000Y-82527000I0J-150000D01*
G01*
X154453000Y-82827000D01*
G75*
G02*
X154303000Y-82977000I-150000J0D01*
G01*
X152653000Y-82977000D01*
G75*
G02*
X152503000Y-82827000I0J150000D01*
G01*
G37*
G04 #@! TD.AperFunction*
G04 #@! TA.AperFunction,SMDPad,CuDef*
G36*
G01*
X152503000Y-84097000D02*
X152503000Y-83797000D01*
G75*
G02*
X152653000Y-83647000I150000J0D01*
G01*
X154303000Y-83647000D01*
G75*
G02*
X154453000Y-83797000I0J-150000D01*
G01*
X154453000Y-84097000D01*
G75*
G02*
X154303000Y-84247000I-150000J0D01*
G01*
X152653000Y-84247000D01*
G75*
G02*
X152503000Y-84097000I0J150000D01*
G01*
G37*
G04 #@! TD.AperFunction*
G04 #@! TA.AperFunction,SMDPad,CuDef*
G36*
G01*
X152503000Y-85367000D02*
X152503000Y-85067000D01*
G75*
G02*
X152653000Y-84917000I150000J0D01*
G01*
X154303000Y-84917000D01*
G75*
G02*
X154453000Y-85067000I0J-150000D01*
G01*
X154453000Y-85367000D01*
G75*
G02*
X154303000Y-85517000I-150000J0D01*
G01*
X152653000Y-85517000D01*
G75*
G02*
X152503000Y-85367000I0J150000D01*
G01*
G37*
G04 #@! TD.AperFunction*
G04 #@! TA.AperFunction,SMDPad,CuDef*
G36*
G01*
X152503000Y-86637000D02*
X152503000Y-86337000D01*
G75*
G02*
X152653000Y-86187000I150000J0D01*
G01*
X154303000Y-86187000D01*
G75*
G02*
X154453000Y-86337000I0J-150000D01*
G01*
X154453000Y-86637000D01*
G75*
G02*
X154303000Y-86787000I-150000J0D01*
G01*
X152653000Y-86787000D01*
G75*
G02*
X152503000Y-86637000I0J150000D01*
G01*
G37*
G04 #@! TD.AperFunction*
G04 #@! TA.AperFunction,SMDPad,CuDef*
G36*
G01*
X152503000Y-87907000D02*
X152503000Y-87607000D01*
G75*
G02*
X152653000Y-87457000I150000J0D01*
G01*
X154303000Y-87457000D01*
G75*
G02*
X154453000Y-87607000I0J-150000D01*
G01*
X154453000Y-87907000D01*
G75*
G02*
X154303000Y-88057000I-150000J0D01*
G01*
X152653000Y-88057000D01*
G75*
G02*
X152503000Y-87907000I0J150000D01*
G01*
G37*
G04 #@! TD.AperFunction*
G04 #@! TA.AperFunction,SMDPad,CuDef*
G36*
G01*
X152503000Y-89177000D02*
X152503000Y-88877000D01*
G75*
G02*
X152653000Y-88727000I150000J0D01*
G01*
X154303000Y-88727000D01*
G75*
G02*
X154453000Y-88877000I0J-150000D01*
G01*
X154453000Y-89177000D01*
G75*
G02*
X154303000Y-89327000I-150000J0D01*
G01*
X152653000Y-89327000D01*
G75*
G02*
X152503000Y-89177000I0J150000D01*
G01*
G37*
G04 #@! TD.AperFunction*
G04 #@! TA.AperFunction,SMDPad,CuDef*
G36*
G01*
X152503000Y-90447000D02*
X152503000Y-90147000D01*
G75*
G02*
X152653000Y-89997000I150000J0D01*
G01*
X154303000Y-89997000D01*
G75*
G02*
X154453000Y-90147000I0J-150000D01*
G01*
X154453000Y-90447000D01*
G75*
G02*
X154303000Y-90597000I-150000J0D01*
G01*
X152653000Y-90597000D01*
G75*
G02*
X152503000Y-90447000I0J150000D01*
G01*
G37*
G04 #@! TD.AperFunction*
G04 #@! TA.AperFunction,SMDPad,CuDef*
G36*
G01*
X147553000Y-90447000D02*
X147553000Y-90147000D01*
G75*
G02*
X147703000Y-89997000I150000J0D01*
G01*
X149353000Y-89997000D01*
G75*
G02*
X149503000Y-90147000I0J-150000D01*
G01*
X149503000Y-90447000D01*
G75*
G02*
X149353000Y-90597000I-150000J0D01*
G01*
X147703000Y-90597000D01*
G75*
G02*
X147553000Y-90447000I0J150000D01*
G01*
G37*
G04 #@! TD.AperFunction*
G04 #@! TA.AperFunction,SMDPad,CuDef*
G36*
G01*
X147553000Y-89177000D02*
X147553000Y-88877000D01*
G75*
G02*
X147703000Y-88727000I150000J0D01*
G01*
X149353000Y-88727000D01*
G75*
G02*
X149503000Y-88877000I0J-150000D01*
G01*
X149503000Y-89177000D01*
G75*
G02*
X149353000Y-89327000I-150000J0D01*
G01*
X147703000Y-89327000D01*
G75*
G02*
X147553000Y-89177000I0J150000D01*
G01*
G37*
G04 #@! TD.AperFunction*
G04 #@! TA.AperFunction,SMDPad,CuDef*
G36*
G01*
X147553000Y-87907000D02*
X147553000Y-87607000D01*
G75*
G02*
X147703000Y-87457000I150000J0D01*
G01*
X149353000Y-87457000D01*
G75*
G02*
X149503000Y-87607000I0J-150000D01*
G01*
X149503000Y-87907000D01*
G75*
G02*
X149353000Y-88057000I-150000J0D01*
G01*
X147703000Y-88057000D01*
G75*
G02*
X147553000Y-87907000I0J150000D01*
G01*
G37*
G04 #@! TD.AperFunction*
G04 #@! TA.AperFunction,SMDPad,CuDef*
G36*
G01*
X147553000Y-86637000D02*
X147553000Y-86337000D01*
G75*
G02*
X147703000Y-86187000I150000J0D01*
G01*
X149353000Y-86187000D01*
G75*
G02*
X149503000Y-86337000I0J-150000D01*
G01*
X149503000Y-86637000D01*
G75*
G02*
X149353000Y-86787000I-150000J0D01*
G01*
X147703000Y-86787000D01*
G75*
G02*
X147553000Y-86637000I0J150000D01*
G01*
G37*
G04 #@! TD.AperFunction*
G04 #@! TA.AperFunction,SMDPad,CuDef*
G36*
G01*
X147553000Y-85367000D02*
X147553000Y-85067000D01*
G75*
G02*
X147703000Y-84917000I150000J0D01*
G01*
X149353000Y-84917000D01*
G75*
G02*
X149503000Y-85067000I0J-150000D01*
G01*
X149503000Y-85367000D01*
G75*
G02*
X149353000Y-85517000I-150000J0D01*
G01*
X147703000Y-85517000D01*
G75*
G02*
X147553000Y-85367000I0J150000D01*
G01*
G37*
G04 #@! TD.AperFunction*
G04 #@! TA.AperFunction,SMDPad,CuDef*
G36*
G01*
X147553000Y-84097000D02*
X147553000Y-83797000D01*
G75*
G02*
X147703000Y-83647000I150000J0D01*
G01*
X149353000Y-83647000D01*
G75*
G02*
X149503000Y-83797000I0J-150000D01*
G01*
X149503000Y-84097000D01*
G75*
G02*
X149353000Y-84247000I-150000J0D01*
G01*
X147703000Y-84247000D01*
G75*
G02*
X147553000Y-84097000I0J150000D01*
G01*
G37*
G04 #@! TD.AperFunction*
G04 #@! TA.AperFunction,SMDPad,CuDef*
G36*
G01*
X147553000Y-82827000D02*
X147553000Y-82527000D01*
G75*
G02*
X147703000Y-82377000I150000J0D01*
G01*
X149353000Y-82377000D01*
G75*
G02*
X149503000Y-82527000I0J-150000D01*
G01*
X149503000Y-82827000D01*
G75*
G02*
X149353000Y-82977000I-150000J0D01*
G01*
X147703000Y-82977000D01*
G75*
G02*
X147553000Y-82827000I0J150000D01*
G01*
G37*
G04 #@! TD.AperFunction*
G04 #@! TA.AperFunction,SMDPad,CuDef*
G36*
G01*
X147553000Y-81557000D02*
X147553000Y-81257000D01*
G75*
G02*
X147703000Y-81107000I150000J0D01*
G01*
X149353000Y-81107000D01*
G75*
G02*
X149503000Y-81257000I0J-150000D01*
G01*
X149503000Y-81557000D01*
G75*
G02*
X149353000Y-81707000I-150000J0D01*
G01*
X147703000Y-81707000D01*
G75*
G02*
X147553000Y-81557000I0J150000D01*
G01*
G37*
G04 #@! TD.AperFunction*
D25*
X93980000Y-83820000D03*
X98860000Y-83820000D03*
X111560000Y-83820000D03*
X106680000Y-83820000D03*
X143510000Y-92510000D03*
X143510000Y-87630000D03*
D38*
X141605000Y-128670000D03*
D39*
X136605000Y-128670000D03*
X146605000Y-128670000D03*
X141605000Y-133858000D03*
D38*
X156210000Y-128670000D03*
D39*
X151210000Y-128670000D03*
X161210000Y-128670000D03*
X156210000Y-133858000D03*
D40*
X82042000Y-115062000D03*
X82042000Y-105918000D03*
D41*
X149225000Y-106172000D03*
X149225000Y-113030000D03*
X113665000Y-112395000D03*
X132080000Y-109220000D03*
X135509000Y-119380000D03*
D40*
X120650000Y-77470000D03*
X102870000Y-86360000D03*
X97790000Y-74295000D03*
D41*
X100965000Y-69850000D03*
D40*
X125730000Y-45085000D03*
X108585000Y-69850000D03*
D41*
X98425000Y-66040000D03*
X112395000Y-69850000D03*
X111125000Y-66040000D03*
X120650000Y-70485000D03*
X120650000Y-73025000D03*
X128270000Y-71120000D03*
D40*
X133350000Y-66675000D03*
X147320000Y-66675000D03*
D41*
X123190000Y-81915000D03*
X123190000Y-77470000D03*
X134620000Y-77470000D03*
X134620000Y-81915000D03*
X137160000Y-87630000D03*
X137160000Y-92710000D03*
D40*
X148590000Y-79375000D03*
X154305000Y-79375000D03*
X163703000Y-88138000D03*
X165735000Y-95250000D03*
X137795000Y-111760000D03*
D41*
X80772000Y-42164000D03*
X80772000Y-53086000D03*
X162052000Y-106934000D03*
X162052000Y-108458000D03*
X162052000Y-109982000D03*
X162052000Y-105410000D03*
X162052000Y-113030000D03*
D40*
X100076000Y-40386000D03*
X100076000Y-37592000D03*
X163703000Y-85979000D03*
D41*
X113284000Y-88392000D03*
X105029000Y-88392000D03*
X100711000Y-88392000D03*
X92329000Y-88392000D03*
D40*
X139065000Y-74549000D03*
X104140000Y-80645000D03*
D41*
X88265000Y-99695000D03*
X88265000Y-97155000D03*
X88265000Y-94615000D03*
X88265000Y-92075000D03*
X88265000Y-89535000D03*
X88265000Y-86995000D03*
X88265000Y-84455000D03*
X88265000Y-81915000D03*
X88265000Y-79375000D03*
X88265000Y-76835000D03*
X88265000Y-74295000D03*
X88265000Y-71755000D03*
X98670000Y-69850000D03*
X93980000Y-67945000D03*
X110490000Y-69850000D03*
D40*
X117475000Y-74295000D03*
D41*
X146685000Y-85090000D03*
D40*
X156210000Y-83185000D03*
D41*
X83820000Y-42291000D03*
X83820000Y-52959000D03*
X81534000Y-62230000D03*
X81534000Y-123190000D03*
X117475000Y-46355000D03*
X123190000Y-46355000D03*
X112395000Y-46355000D03*
X128270000Y-38100000D03*
X135890000Y-37465000D03*
X116840000Y-85344000D03*
D40*
X134620000Y-73025000D03*
X137033000Y-70485000D03*
D41*
X151668002Y-113030000D03*
X151668002Y-106172000D03*
X155575000Y-113030000D03*
D40*
X147320000Y-99060000D03*
X161925000Y-46990000D03*
X149860000Y-46990000D03*
D41*
X83185000Y-71755000D03*
X83185000Y-89535000D03*
X133985000Y-86995000D03*
X160020000Y-78105000D03*
X83185000Y-84455000D03*
X83185000Y-79375000D03*
X131445000Y-45720000D03*
X131445000Y-48260000D03*
X133985000Y-45720000D03*
X133985000Y-48260000D03*
X87376000Y-51435000D03*
X107315000Y-65405000D03*
X106172000Y-67310000D03*
X87376000Y-48895000D03*
X87376000Y-46355000D03*
X87376000Y-43815000D03*
X97155000Y-65405000D03*
X95885000Y-65405000D03*
X108585000Y-65405000D03*
X109855000Y-65405000D03*
X88265000Y-73025000D03*
X88265000Y-80645000D03*
X83185000Y-81915000D03*
X83185000Y-99695000D03*
X83185000Y-92075000D03*
X83185000Y-86995000D03*
X83185000Y-94615000D03*
X83185000Y-97155000D03*
X83185000Y-76835000D03*
X83185000Y-74295000D03*
X152908000Y-115316000D03*
X150622000Y-115316000D03*
X152908000Y-110744000D03*
X150622000Y-110744000D03*
X152908000Y-108458000D03*
X150622000Y-108458000D03*
X152908000Y-103886000D03*
X150622000Y-103886000D03*
X132715000Y-86995000D03*
X135890000Y-108585000D03*
X135890000Y-104775000D03*
X143510000Y-109220000D03*
D40*
X152400000Y-95885000D03*
D42*
X82035000Y-115069000D02*
X82042000Y-115062000D01*
X82035000Y-116990000D02*
X82035000Y-115069000D01*
X82035000Y-105911000D02*
X82042000Y-105918000D01*
X82035000Y-103990000D02*
X82035000Y-105911000D01*
D43*
X150538000Y-106172000D02*
X149225000Y-106172000D01*
X150538000Y-113030000D02*
X149225000Y-113030000D01*
X113665000Y-114205000D02*
X113665000Y-112395000D01*
X132175000Y-109125000D02*
X132080000Y-109220000D01*
X133985000Y-109125000D02*
X132175000Y-109125000D01*
X136779000Y-118110000D02*
X135509000Y-119380000D01*
X136990000Y-118110000D02*
X136779000Y-118110000D01*
D42*
X119380000Y-78740000D02*
X120650000Y-77470000D01*
X119380000Y-76200000D02*
X120650000Y-77470000D01*
X118915000Y-76200000D02*
X119380000Y-76200000D01*
X101600000Y-85090000D02*
X102870000Y-86360000D01*
X101600000Y-84625000D02*
X101600000Y-85090000D01*
X104140000Y-85090000D02*
X102870000Y-86360000D01*
X104140000Y-84625000D02*
X104140000Y-85090000D01*
X96770000Y-73275000D02*
X97790000Y-74295000D01*
X96770000Y-72065000D02*
X96770000Y-73275000D01*
D43*
X101320000Y-70205000D02*
X100965000Y-69850000D01*
X101320000Y-72065000D02*
X101320000Y-70205000D01*
D42*
X108200000Y-70235000D02*
X108585000Y-69850000D01*
X108200000Y-72065000D02*
X108200000Y-70235000D01*
D43*
X98695000Y-66310000D02*
X98425000Y-66040000D01*
X98695000Y-67945000D02*
X98695000Y-66310000D01*
X112750000Y-70205000D02*
X112395000Y-69850000D01*
X112750000Y-72065000D02*
X112750000Y-70205000D01*
X111030000Y-66135000D02*
X111125000Y-66040000D01*
X111030000Y-67945000D02*
X111030000Y-66135000D01*
X121920000Y-69215000D02*
X120650000Y-70485000D01*
X122385000Y-69215000D02*
X121920000Y-69215000D01*
X121920000Y-71755000D02*
X120650000Y-70485000D01*
X122385000Y-71755000D02*
X121920000Y-71755000D01*
X121920000Y-74295000D02*
X120650000Y-73025000D01*
X122385000Y-74295000D02*
X121920000Y-74295000D01*
X128270000Y-73320000D02*
X128270000Y-71120000D01*
D42*
X132080000Y-67945000D02*
X133350000Y-66675000D01*
X132080000Y-69215000D02*
X132080000Y-67945000D01*
X134620000Y-67945000D02*
X133350000Y-66675000D01*
X134620000Y-69215000D02*
X134620000Y-67945000D01*
X147110000Y-66885000D02*
X147320000Y-66675000D01*
X147110000Y-68580000D02*
X147110000Y-66885000D01*
D43*
X125095000Y-81915000D02*
X123190000Y-81915000D01*
X125095000Y-77470000D02*
X123190000Y-77470000D01*
X132715000Y-77470000D02*
X134620000Y-77470000D01*
X132715000Y-81915000D02*
X134620000Y-81915000D01*
X138895000Y-87630000D02*
X137160000Y-87630000D01*
X138895000Y-92710000D02*
X137160000Y-92710000D01*
D42*
X148528000Y-79437000D02*
X148590000Y-79375000D01*
X148528000Y-81407000D02*
X148528000Y-79437000D01*
X154475000Y-79205000D02*
X154305000Y-79375000D01*
X156210000Y-79205000D02*
X154475000Y-79205000D01*
X164246999Y-88209999D02*
X165462000Y-88209999D01*
X164175000Y-88138000D02*
X164246999Y-88209999D01*
X163703000Y-88138000D02*
X164175000Y-88138000D01*
X166112000Y-85585000D02*
X165662000Y-86035000D01*
X168162000Y-85585000D02*
X166112000Y-85585000D01*
X166112000Y-93485000D02*
X165662000Y-93035000D01*
X168162000Y-93485000D02*
X166112000Y-93485000D01*
X165662000Y-95177000D02*
X165735000Y-95250000D01*
X165662000Y-93035000D02*
X165662000Y-95177000D01*
X137795000Y-113200000D02*
X137795000Y-111760000D01*
D43*
X80785000Y-51435000D02*
X80785000Y-48895000D01*
X80785000Y-48895000D02*
X80785000Y-46355000D01*
X80785000Y-46355000D02*
X80785000Y-43815000D01*
X80785000Y-42177000D02*
X80772000Y-42164000D01*
X80785000Y-43815000D02*
X80785000Y-42177000D01*
X80785000Y-53073000D02*
X80772000Y-53086000D01*
X80785000Y-51435000D02*
X80785000Y-53073000D01*
X162012000Y-106974000D02*
X162052000Y-106934000D01*
X159650000Y-106974000D02*
X162012000Y-106974000D01*
X162036000Y-108474000D02*
X162052000Y-108458000D01*
X159650000Y-108474000D02*
X162036000Y-108474000D01*
X162044000Y-109974000D02*
X162052000Y-109982000D01*
X159650000Y-109974000D02*
X162044000Y-109974000D01*
X161988000Y-105474000D02*
X162052000Y-105410000D01*
X159650000Y-105474000D02*
X161988000Y-105474000D01*
X161996000Y-112974000D02*
X162052000Y-113030000D01*
X159650000Y-112974000D02*
X161996000Y-112974000D01*
D42*
X163759000Y-86035000D02*
X163703000Y-85979000D01*
X165662000Y-86035000D02*
X163759000Y-86035000D01*
D43*
X113241000Y-88435000D02*
X113284000Y-88392000D01*
X111760000Y-88435000D02*
X113241000Y-88435000D01*
X105072000Y-88435000D02*
X105029000Y-88392000D01*
X106680000Y-88435000D02*
X105072000Y-88435000D01*
X100668000Y-88435000D02*
X100711000Y-88392000D01*
X99060000Y-88435000D02*
X100668000Y-88435000D01*
X92372000Y-88435000D02*
X92329000Y-88392000D01*
X93980000Y-88435000D02*
X92372000Y-88435000D01*
D42*
X138981000Y-74465000D02*
X139065000Y-74549000D01*
X137160000Y-74465000D02*
X138981000Y-74465000D01*
D43*
X143472500Y-115300000D02*
X143510000Y-115337500D01*
X140970000Y-115300000D02*
X143472500Y-115300000D01*
X136845000Y-114620000D02*
X137165000Y-114300000D01*
X136845000Y-115400000D02*
X136845000Y-114620000D01*
X139970000Y-114300000D02*
X140970000Y-115300000D01*
X137165000Y-114300000D02*
X139970000Y-114300000D01*
D42*
X104140000Y-82550000D02*
X101600000Y-82550000D01*
X102620000Y-81530000D02*
X101600000Y-82550000D01*
X102620000Y-79065000D02*
X102620000Y-81530000D01*
X104140000Y-82550000D02*
X104140000Y-80645000D01*
D43*
X98720000Y-69900000D02*
X98670000Y-69850000D01*
X98720000Y-72065000D02*
X98720000Y-69900000D01*
X93980000Y-69850000D02*
X93980000Y-67945000D01*
X110150000Y-70190000D02*
X110490000Y-69850000D01*
X110150000Y-72065000D02*
X110150000Y-70190000D01*
D42*
X116840000Y-76200000D02*
X116840000Y-78740000D01*
X116840000Y-78740000D02*
X115570000Y-78740000D01*
X115245000Y-79065000D02*
X114050000Y-79065000D01*
X115570000Y-78740000D02*
X115245000Y-79065000D01*
X116840000Y-74930000D02*
X117475000Y-74295000D01*
X116840000Y-76200000D02*
X116840000Y-74930000D01*
D43*
X128770000Y-71890000D02*
X128770000Y-73320000D01*
X129370000Y-71290000D02*
X128770000Y-71890000D01*
D42*
X139910000Y-72390000D02*
X137160000Y-72390000D01*
D43*
X146812000Y-85217000D02*
X146685000Y-85090000D01*
X148528000Y-85217000D02*
X146812000Y-85217000D01*
D42*
X156083000Y-81407000D02*
X156210000Y-81280000D01*
X153478000Y-81407000D02*
X156083000Y-81407000D01*
X156210000Y-81280000D02*
X156210000Y-83185000D01*
X134620000Y-71290000D02*
X132080000Y-71290000D01*
D43*
X132080000Y-71290000D02*
X129370000Y-71290000D01*
X116840000Y-83820000D02*
X116840000Y-85344000D01*
D42*
X134620000Y-71290000D02*
X134620000Y-73025000D01*
X137160000Y-70612000D02*
X137033000Y-70485000D01*
X137160000Y-72390000D02*
X137160000Y-70612000D01*
D43*
X159650000Y-113474000D02*
X157036000Y-113474000D01*
X152738000Y-113030000D02*
X151668002Y-113030000D01*
X152738000Y-106172000D02*
X151668002Y-106172000D01*
D42*
X137795000Y-115400000D02*
X138745000Y-115400000D01*
X138745000Y-115400000D02*
X138745000Y-116520000D01*
X139065000Y-116840000D02*
X139065000Y-118110000D01*
X138745000Y-116520000D02*
X139065000Y-116840000D01*
D43*
X156019000Y-113474000D02*
X155575000Y-113030000D01*
X157036000Y-113474000D02*
X156019000Y-113474000D01*
D42*
X144145000Y-118110000D02*
X139065000Y-118110000D01*
X145034000Y-117221000D02*
X144145000Y-118110000D01*
X145034000Y-106426000D02*
X145034000Y-117221000D01*
X147320000Y-104140000D02*
X145034000Y-106426000D01*
X147320000Y-99060000D02*
X147320000Y-104140000D01*
X104140000Y-51435000D02*
X104140000Y-46355000D01*
X161925000Y-46990000D02*
X149860000Y-46990000D01*
X147320000Y-99060000D02*
X154305000Y-99060000D01*
D43*
X96770000Y-81030000D02*
X93980000Y-83820000D01*
X96770000Y-79065000D02*
X96770000Y-81030000D01*
X93980000Y-83820000D02*
X93980000Y-86360000D01*
X108850000Y-81110000D02*
X108850000Y-79065000D01*
X111560000Y-83820000D02*
X108850000Y-81110000D01*
X111560000Y-83820000D02*
X111560000Y-84890000D01*
X111760000Y-85090000D02*
X111760000Y-86360000D01*
X111560000Y-84890000D02*
X111760000Y-85090000D01*
X82060000Y-71755000D02*
X83185000Y-71755000D01*
X82060000Y-89535000D02*
X83185000Y-89535000D01*
X127635000Y-88360000D02*
X128810000Y-89535000D01*
X128810000Y-89535000D02*
X131445000Y-89535000D01*
X131445000Y-89535000D02*
X133985000Y-86995000D01*
X161835000Y-78105000D02*
X163980000Y-75960000D01*
X160020000Y-78105000D02*
X161835000Y-78105000D01*
X97420000Y-82380000D02*
X98860000Y-83820000D01*
X97420000Y-79065000D02*
X97420000Y-82380000D01*
X98860000Y-83820000D02*
X98860000Y-84890000D01*
X99060000Y-85090000D02*
X99060000Y-86360000D01*
X98860000Y-84890000D02*
X99060000Y-85090000D01*
X106680000Y-83820000D02*
X106680000Y-86360000D01*
X108200000Y-82300000D02*
X106680000Y-83820000D01*
X108200000Y-79065000D02*
X108200000Y-82300000D01*
X127770000Y-73320000D02*
X127770000Y-74795000D01*
X127635000Y-74930000D02*
X127635000Y-77470000D01*
X127770000Y-74795000D02*
X127635000Y-74930000D01*
X82060000Y-84455000D02*
X83185000Y-84455000D01*
X82060000Y-79375000D02*
X83185000Y-79375000D01*
X131445000Y-45720000D02*
X131445000Y-48260000D01*
X133985000Y-45720000D02*
X133985000Y-48260000D01*
X114536000Y-124696000D02*
X114300000Y-124460000D01*
X89395000Y-51435000D02*
X91440000Y-51435000D01*
X91440000Y-51435000D02*
X92710000Y-52705000D01*
X102235000Y-59055000D02*
X104140000Y-60960000D01*
X92710001Y-57786411D02*
X93978590Y-59055000D01*
X92710000Y-52705000D02*
X92710001Y-57786411D01*
X93978590Y-59055000D02*
X102235000Y-59055000D01*
X89395000Y-51435000D02*
X87376000Y-51435000D01*
X107315000Y-66167000D02*
X106172000Y-67310000D01*
X107315000Y-65405000D02*
X107315000Y-66167000D01*
X89395000Y-48895000D02*
X89536410Y-48895000D01*
X89536410Y-48895000D02*
X93160010Y-52518600D01*
X93160010Y-52518600D02*
X93160010Y-57600010D01*
X93160010Y-57600010D02*
X94164990Y-58604990D01*
X104324990Y-58604990D02*
X106680000Y-60960000D01*
X94164990Y-58604990D02*
X104324990Y-58604990D01*
X89395000Y-48895000D02*
X87376000Y-48895000D01*
X116205000Y-116205000D02*
X116205000Y-115570000D01*
X116475000Y-115300000D02*
X116475000Y-113665000D01*
X116205000Y-115570000D02*
X116475000Y-115300000D01*
X116205000Y-116205000D02*
X113665000Y-116205000D01*
X89395000Y-46355000D02*
X91440000Y-48400000D01*
X91440000Y-48400000D02*
X91440000Y-50162180D01*
X91440000Y-50162180D02*
X93610020Y-52332200D01*
X93610020Y-52332200D02*
X93610020Y-57413610D01*
X106414980Y-58154980D02*
X109220000Y-60960000D01*
X94351390Y-58154980D02*
X106414980Y-58154980D01*
X93610020Y-57413610D02*
X94351390Y-58154980D01*
X89395000Y-46355000D02*
X87376000Y-46355000D01*
X107234970Y-57704970D02*
X108585000Y-59055000D01*
X94060030Y-52145800D02*
X94060030Y-57227210D01*
X94060030Y-57227210D02*
X94537790Y-57704970D01*
X91890010Y-48213600D02*
X91890010Y-49975780D01*
X108585000Y-59055000D02*
X114935000Y-59055000D01*
X91440000Y-47763590D02*
X91890010Y-48213600D01*
X114935000Y-59055000D02*
X116840000Y-60960000D01*
X91890010Y-49975780D02*
X94060030Y-52145800D01*
X91440000Y-45720000D02*
X91440000Y-47763590D01*
X89535000Y-43815000D02*
X91440000Y-45720000D01*
X94537790Y-57704970D02*
X107234970Y-57704970D01*
X89395000Y-43815000D02*
X89535000Y-43815000D01*
X89395000Y-43815000D02*
X87376000Y-43815000D01*
X101970000Y-69220000D02*
X100695000Y-67945000D01*
X101970000Y-72065000D02*
X101970000Y-69220000D01*
X100695000Y-67945000D02*
X100695000Y-66405000D01*
X99060000Y-64770000D02*
X99060000Y-63500000D01*
X100695000Y-66405000D02*
X99060000Y-64770000D01*
X113400000Y-72065000D02*
X113400000Y-69585000D01*
X113030000Y-69215000D02*
X113030000Y-67945000D01*
X113400000Y-69585000D02*
X113030000Y-69215000D01*
X113030000Y-66871998D02*
X110928002Y-64770000D01*
X113030000Y-67945000D02*
X113030000Y-66871998D01*
X110490000Y-64770000D02*
X109220000Y-63500000D01*
X110928002Y-64770000D02*
X110490000Y-64770000D01*
X102870000Y-64770000D02*
X102870000Y-62230000D01*
X104140000Y-66040000D02*
X102870000Y-64770000D01*
X104140000Y-74295000D02*
X104140000Y-66040000D01*
X102870000Y-62230000D02*
X101600000Y-60960000D01*
X103505000Y-74930000D02*
X104140000Y-74295000D01*
X100020000Y-77145000D02*
X102235000Y-74930000D01*
X102235000Y-74930000D02*
X103505000Y-74930000D01*
X100020000Y-79065000D02*
X100020000Y-77145000D01*
X101600000Y-64770000D02*
X101600000Y-63500000D01*
X103505000Y-73660000D02*
X103505000Y-66675000D01*
X102870000Y-74295000D02*
X103505000Y-73660000D01*
X101600000Y-74295000D02*
X102870000Y-74295000D01*
X103505000Y-66675000D02*
X101600000Y-64770000D01*
X99370000Y-76525000D02*
X101600000Y-74295000D01*
X99370000Y-79065000D02*
X99370000Y-76525000D01*
X91980000Y-74295000D02*
X91980000Y-69850000D01*
X95250000Y-62230000D02*
X96520000Y-60960000D01*
X93345000Y-62230000D02*
X95250000Y-62230000D01*
X92710000Y-62865000D02*
X93345000Y-62230000D01*
X92710000Y-67945000D02*
X92710000Y-62865000D01*
X91980000Y-68675000D02*
X92710000Y-67945000D01*
X91980000Y-69850000D02*
X91980000Y-68675000D01*
X94615000Y-65405000D02*
X96520000Y-63500000D01*
X95250000Y-67310000D02*
X94615000Y-66675000D01*
X95250000Y-71120000D02*
X95250000Y-67310000D01*
X94615000Y-71755000D02*
X95250000Y-71120000D01*
X93980000Y-71755000D02*
X94615000Y-71755000D01*
X92964000Y-72771000D02*
X93980000Y-71755000D01*
X92964000Y-75438000D02*
X92964000Y-72771000D01*
X93726000Y-76200000D02*
X92964000Y-75438000D01*
X96520000Y-76200000D02*
X93726000Y-76200000D01*
X94615000Y-66675000D02*
X94615000Y-65405000D01*
X98070000Y-77750000D02*
X96520000Y-76200000D01*
X98070000Y-79065000D02*
X98070000Y-77750000D01*
X100330000Y-62230000D02*
X99060000Y-60960000D01*
X100330000Y-64770000D02*
X100330000Y-62230000D01*
X102620000Y-67060000D02*
X100330000Y-64770000D01*
X102620000Y-72065000D02*
X102620000Y-67060000D01*
X114050000Y-72065000D02*
X114050000Y-69465000D01*
X114050000Y-69465000D02*
X114300000Y-69215000D01*
X114300000Y-69215000D02*
X114300000Y-67310000D01*
X111760000Y-64770000D02*
X111760000Y-63500000D01*
X114300000Y-67310000D02*
X111760000Y-64770000D01*
X104140000Y-64770000D02*
X104140000Y-63500000D01*
X105410000Y-66040000D02*
X104140000Y-64770000D01*
X105410000Y-73660000D02*
X105410000Y-66040000D01*
X107315000Y-75565000D02*
X105410000Y-73660000D01*
X107950000Y-75565000D02*
X107315000Y-75565000D01*
X109500000Y-77115000D02*
X107950000Y-75565000D01*
X109500000Y-79065000D02*
X109500000Y-77115000D01*
X118840000Y-81280000D02*
X118840000Y-83820000D01*
X115570000Y-62230000D02*
X114300000Y-60960000D01*
X115570000Y-64770000D02*
X115570000Y-62230000D01*
X116205000Y-65405000D02*
X115570000Y-64770000D01*
X116205000Y-70485000D02*
X116205000Y-65405000D01*
X121920000Y-76200000D02*
X116205000Y-70485000D01*
X120015000Y-81280000D02*
X121920000Y-79375000D01*
X121920000Y-79375000D02*
X121920000Y-76200000D01*
X118840000Y-81280000D02*
X120015000Y-81280000D01*
X110800000Y-79065000D02*
X110800000Y-76525000D01*
X110800000Y-76525000D02*
X113030000Y-74295000D01*
X113030000Y-74295000D02*
X114300000Y-74295000D01*
X114300000Y-74295000D02*
X114935000Y-73660000D01*
X114935000Y-73660000D02*
X114935000Y-66675000D01*
X114935000Y-66675000D02*
X113030000Y-64770000D01*
X113030000Y-64770000D02*
X113030000Y-62230000D01*
X113030000Y-62230000D02*
X111760000Y-60960000D01*
X111450000Y-79065000D02*
X111450000Y-77145000D01*
X111450000Y-77145000D02*
X113665000Y-74930000D01*
X113665000Y-74930000D02*
X114935000Y-74930000D01*
X114935000Y-74930000D02*
X115570000Y-74295000D01*
X115570000Y-74295000D02*
X115570000Y-66040000D01*
X115570000Y-66040000D02*
X114300000Y-64770000D01*
X114300000Y-64770000D02*
X114300000Y-63500000D01*
X139910000Y-63710000D02*
X139700000Y-63500000D01*
X139910000Y-68580000D02*
X139910000Y-63710000D01*
X147110000Y-71120000D02*
X145796000Y-71120000D01*
X145796000Y-71120000D02*
X144780000Y-70104000D01*
X144780000Y-70104000D02*
X144780000Y-63500000D01*
X145288000Y-65532000D02*
X147320000Y-63500000D01*
X145288000Y-69342000D02*
X145288000Y-65532000D01*
X145796000Y-69850000D02*
X145288000Y-69342000D01*
X147110000Y-69850000D02*
X145796000Y-69850000D01*
X138176000Y-64516000D02*
X137160000Y-63500000D01*
X138176000Y-70612000D02*
X138176000Y-64516000D01*
X138684000Y-71120000D02*
X138176000Y-70612000D01*
X139910000Y-71120000D02*
X138684000Y-71120000D01*
X139910000Y-69850000D02*
X141224000Y-69850000D01*
X141224000Y-69850000D02*
X141732000Y-69342000D01*
X141732000Y-69342000D02*
X141732000Y-66040000D01*
X142240000Y-65532000D02*
X142240000Y-63500000D01*
X141732000Y-66040000D02*
X142240000Y-65532000D01*
X147110000Y-72390000D02*
X148082000Y-72390000D01*
X148082000Y-72390000D02*
X148590000Y-71882000D01*
X148590000Y-62230000D02*
X149860000Y-60960000D01*
X148590000Y-71882000D02*
X148590000Y-62230000D01*
X98720000Y-79065000D02*
X98720000Y-77130000D01*
X95885000Y-74295000D02*
X93980000Y-74295000D01*
X98720000Y-77130000D02*
X95885000Y-74295000D01*
X110150000Y-79065000D02*
X110150000Y-80940000D01*
X110150000Y-80940000D02*
X110490000Y-81280000D01*
X110490000Y-81280000D02*
X115570000Y-81280000D01*
X115570000Y-81280000D02*
X116840000Y-81280000D01*
D44*
X97970000Y-71965000D02*
X97970000Y-69584800D01*
X98070000Y-72065000D02*
X97970000Y-71965000D01*
X97970000Y-69584800D02*
X96745000Y-68359800D01*
X96745000Y-65815000D02*
X97155000Y-65405000D01*
X96745000Y-68359800D02*
X96745000Y-65815000D01*
X97520000Y-71965000D02*
X97520000Y-69771200D01*
X97420000Y-72065000D02*
X97520000Y-71965000D01*
X97520000Y-69771200D02*
X96295000Y-68546200D01*
X96295000Y-65815000D02*
X95885000Y-65405000D01*
X96295000Y-68546200D02*
X96295000Y-65815000D01*
X109400000Y-72165000D02*
X109400000Y-73798200D01*
X109500000Y-72065000D02*
X109400000Y-72165000D01*
X109400000Y-73798200D02*
X108678200Y-74520000D01*
X108678200Y-74520000D02*
X107221800Y-74520000D01*
X107221800Y-74520000D02*
X106455000Y-73753200D01*
X106455000Y-73753200D02*
X106455000Y-68486800D01*
X106455000Y-68486800D02*
X107221800Y-67720000D01*
X107221800Y-67720000D02*
X108491800Y-67720000D01*
X108995000Y-65815000D02*
X108585000Y-65405000D01*
X108995000Y-67216800D02*
X108995000Y-65815000D01*
X108491800Y-67720000D02*
X108995000Y-67216800D01*
X108950000Y-72165000D02*
X108950000Y-73611800D01*
X108850000Y-72065000D02*
X108950000Y-72165000D01*
X108950000Y-73611800D02*
X108491800Y-74070000D01*
X108491800Y-74070000D02*
X107408200Y-74070000D01*
X107408200Y-74070000D02*
X106905000Y-73566800D01*
X106905000Y-73566800D02*
X106905000Y-68673200D01*
X106905000Y-68673200D02*
X107408200Y-68170000D01*
X107408200Y-68170000D02*
X108678200Y-68170000D01*
X109445000Y-67403200D02*
X109445000Y-65815000D01*
X108678200Y-68170000D02*
X109445000Y-67403200D01*
X109445000Y-65815000D02*
X109855000Y-65405000D01*
D43*
X141007500Y-113262500D02*
X140970000Y-113300000D01*
X143510000Y-113262500D02*
X141007500Y-113262500D01*
X140870000Y-113200000D02*
X140970000Y-113300000D01*
X138745000Y-113200000D02*
X140870000Y-113200000D01*
X140970000Y-111125000D02*
X140970000Y-113300000D01*
X124460000Y-71755000D02*
X124460000Y-69215000D01*
X127270000Y-68920000D02*
X126025000Y-68920000D01*
X125730000Y-69215000D02*
X124460000Y-69215000D01*
X126025000Y-68920000D02*
X125730000Y-69215000D01*
X127270000Y-73320000D02*
X126705000Y-73320000D01*
X125730000Y-74295000D02*
X124460000Y-74295000D01*
X126705000Y-73320000D02*
X125730000Y-74295000D01*
X129270000Y-73320000D02*
X129270000Y-74660000D01*
X130175000Y-75565000D02*
X130175000Y-77470000D01*
X129270000Y-74660000D02*
X130175000Y-75565000D01*
X130175000Y-79545000D02*
X130175000Y-81915000D01*
X132640000Y-79545000D02*
X132715000Y-79470000D01*
X130175000Y-79545000D02*
X132640000Y-79545000D01*
X127635000Y-79545000D02*
X127635000Y-81915000D01*
X125170000Y-79545000D02*
X125095000Y-79470000D01*
X127635000Y-79545000D02*
X125170000Y-79545000D01*
X145723000Y-90297000D02*
X143510000Y-92510000D01*
X148528000Y-90297000D02*
X145723000Y-90297000D01*
X143310000Y-92710000D02*
X143510000Y-92510000D01*
X140970000Y-92710000D02*
X143310000Y-92710000D01*
X144907000Y-89027000D02*
X143510000Y-87630000D01*
X148528000Y-89027000D02*
X144907000Y-89027000D01*
X140970000Y-87630000D02*
X143510000Y-87630000D01*
X132640000Y-83915000D02*
X132715000Y-83990000D01*
X130175000Y-83915000D02*
X132640000Y-83915000D01*
X130175000Y-83915000D02*
X130175000Y-86360000D01*
X125170000Y-83915000D02*
X125095000Y-83990000D01*
X127635000Y-83915000D02*
X125170000Y-83915000D01*
X127635000Y-83915000D02*
X127635000Y-86360000D01*
X80010000Y-71755000D02*
X81280000Y-73025000D01*
X81280000Y-73025000D02*
X88265000Y-73025000D01*
X81280000Y-90805000D02*
X80010000Y-89535000D01*
X95810611Y-118664971D02*
X93875040Y-116729400D01*
X93875039Y-104664399D02*
X90436428Y-101225788D01*
X90436428Y-98687198D02*
X89890021Y-98140791D01*
X88068002Y-90805000D02*
X81280000Y-90805000D01*
X93875040Y-116729400D02*
X93875039Y-104664399D01*
X89440011Y-94080599D02*
X88990001Y-93630589D01*
X90436428Y-101225788D02*
X90436428Y-98687198D01*
X89890021Y-98140791D02*
X89890021Y-96434199D01*
X88990001Y-91726999D02*
X88068002Y-90805000D01*
X89890021Y-96434199D02*
X89440011Y-95984189D01*
X89440011Y-95984189D02*
X89440011Y-94080599D01*
X88990001Y-93630589D02*
X88990001Y-91726999D01*
X97714203Y-118664973D02*
X98164211Y-119114981D01*
X95810611Y-118664971D02*
X97714203Y-118664973D01*
X100067802Y-119114982D02*
X100517810Y-119564990D01*
X98164211Y-119114981D02*
X100067802Y-119114982D01*
X100517810Y-119564990D02*
X102421401Y-119564991D01*
X102421401Y-119564991D02*
X102871410Y-120015000D01*
X104775000Y-120015000D02*
X106680000Y-121920000D01*
X102871410Y-120015000D02*
X104775000Y-120015000D01*
X105597810Y-119564990D02*
X107501401Y-119564991D01*
X105147802Y-119114982D02*
X105597810Y-119564990D01*
X100890612Y-118664972D02*
X102794203Y-118664973D01*
X100440604Y-118214964D02*
X100890612Y-118664972D01*
X98537013Y-118214963D02*
X100440604Y-118214964D01*
X102794203Y-118664973D02*
X103244211Y-119114981D01*
X98087005Y-117764955D02*
X98537013Y-118214963D01*
X107951410Y-120015000D02*
X109855000Y-120015000D01*
X96183411Y-117764951D02*
X98087005Y-117764955D01*
X94775058Y-116356598D02*
X96183411Y-117764951D01*
X91336448Y-100852989D02*
X94775058Y-104291600D01*
X80010000Y-84455000D02*
X81280000Y-85725000D01*
X81280000Y-85725000D02*
X88068002Y-85725000D01*
X109855000Y-120015000D02*
X111760000Y-121920000D01*
X88068002Y-85725000D02*
X88990001Y-86646999D01*
X88990001Y-86646999D02*
X88990001Y-88550589D01*
X90340031Y-95611389D02*
X90805000Y-96076358D01*
X107501401Y-119564991D02*
X107951410Y-120015000D01*
X88990001Y-88550589D02*
X89440011Y-89000599D01*
X89440011Y-89000599D02*
X89440011Y-90904189D01*
X89440011Y-90904189D02*
X89890021Y-91354199D01*
X91336448Y-98314398D02*
X91336448Y-100852989D01*
X89890021Y-91354199D02*
X89890021Y-93257789D01*
X90805000Y-96076358D02*
X90805000Y-97782950D01*
X90805000Y-97782950D02*
X91336448Y-98314398D01*
X103244211Y-119114981D02*
X105147802Y-119114982D01*
X89890021Y-93257789D02*
X90340030Y-93707798D01*
X94775058Y-104291600D02*
X94775058Y-116356598D01*
X90340030Y-93707798D02*
X90340031Y-95611389D01*
X81280000Y-80645000D02*
X88265000Y-80645000D01*
X80010000Y-79375000D02*
X81280000Y-80645000D01*
X108137810Y-119564990D02*
X110041400Y-119564990D01*
X90790039Y-95424987D02*
X91255010Y-95889958D01*
X90790039Y-93521399D02*
X90790039Y-95424987D01*
X90340031Y-93071389D02*
X90790039Y-93521399D01*
X96369812Y-117314942D02*
X98273406Y-117314946D01*
X89890021Y-90717789D02*
X90340031Y-91167799D01*
X90340031Y-91167799D02*
X90340031Y-93071389D01*
X95250000Y-116195130D02*
X96369812Y-117314942D01*
X103430612Y-118664972D02*
X105334203Y-118664973D01*
X89440011Y-88364189D02*
X89890021Y-88814199D01*
X88990001Y-84106999D02*
X88990001Y-86010589D01*
X100627005Y-117764955D02*
X101077013Y-118214963D01*
X89890021Y-88814199D02*
X89890021Y-90717789D01*
X89440011Y-86460599D02*
X89440011Y-88364189D01*
X88990001Y-86010589D02*
X89440011Y-86460599D01*
X88068002Y-83185000D02*
X88990001Y-84106999D01*
X101077013Y-118214963D02*
X102980604Y-118214964D01*
X112394295Y-120014295D02*
X114300000Y-121920000D01*
X81280000Y-83185000D02*
X88068002Y-83185000D01*
X80010000Y-81915000D02*
X81280000Y-83185000D01*
X91255010Y-95889958D02*
X91255010Y-97596550D01*
X91255010Y-97596550D02*
X91786458Y-98127998D01*
X95250000Y-104130131D02*
X95250000Y-116195130D01*
X105784211Y-119114981D02*
X107687801Y-119114981D01*
X110041400Y-119564990D02*
X110490705Y-120014295D01*
X91786458Y-98127998D02*
X91786458Y-100666589D01*
X98273406Y-117314946D02*
X98723414Y-117764954D01*
X91786458Y-100666589D02*
X95250000Y-104130131D01*
X102980604Y-118214964D02*
X103430612Y-118664972D01*
X98723414Y-117764954D02*
X100627005Y-117764955D01*
X110490705Y-120014295D02*
X112394295Y-120014295D01*
X105334203Y-118664973D02*
X105784211Y-119114981D01*
X107687801Y-119114981D02*
X108137810Y-119564990D01*
X82060000Y-81915000D02*
X83185000Y-81915000D01*
X82060000Y-99695000D02*
X83185000Y-99695000D01*
X92075000Y-117475000D02*
X96520000Y-121920000D01*
X92075000Y-105410000D02*
X92075000Y-117475000D01*
X87630000Y-100965000D02*
X92075000Y-105410000D01*
X81280000Y-100965000D02*
X87630000Y-100965000D01*
X80010000Y-99695000D02*
X81280000Y-100965000D01*
X81280000Y-93345000D02*
X80010000Y-92075000D01*
X88990001Y-94266999D02*
X88068002Y-93345000D01*
X88990001Y-96170589D02*
X88990001Y-94266999D01*
X88068002Y-93345000D02*
X81280000Y-93345000D01*
X89440011Y-98327191D02*
X89440011Y-96620599D01*
X89986419Y-101412189D02*
X89986419Y-98873599D01*
X89440011Y-96620599D02*
X88990001Y-96170589D01*
X93425030Y-116915800D02*
X93425030Y-104850800D01*
X89986419Y-98873599D02*
X89440011Y-98327191D01*
X95624211Y-119114981D02*
X93425030Y-116915800D01*
X93425030Y-104850800D02*
X89986419Y-101412189D01*
X97527802Y-119114982D02*
X97977810Y-119564990D01*
X95624211Y-119114981D02*
X97527802Y-119114982D01*
X97977810Y-119564990D02*
X99881401Y-119564991D01*
X99881401Y-119564991D02*
X100331410Y-120015000D01*
X102235000Y-120015000D02*
X104140000Y-121920000D01*
X100331410Y-120015000D02*
X102235000Y-120015000D01*
X82060000Y-92075000D02*
X83185000Y-92075000D01*
X82060000Y-86995000D02*
X83185000Y-86995000D01*
X107315000Y-120015000D02*
X109220000Y-121920000D01*
X104961401Y-119564991D02*
X105411410Y-120015000D01*
X100704211Y-119114981D02*
X102607802Y-119114982D01*
X97900604Y-118214964D02*
X98350612Y-118664972D01*
X94325048Y-116542998D02*
X95997011Y-118214961D01*
X94325048Y-104478000D02*
X94325048Y-116542998D01*
X102607802Y-119114982D02*
X103057810Y-119564990D01*
X100254203Y-118664973D02*
X100704211Y-119114981D01*
X80010000Y-86995000D02*
X81280000Y-88265000D01*
X103057810Y-119564990D02*
X104961401Y-119564991D01*
X95997011Y-118214961D02*
X97900604Y-118214964D01*
X90340031Y-96247799D02*
X90340031Y-97954391D01*
X81280000Y-88265000D02*
X88068002Y-88265000D01*
X89440011Y-93444189D02*
X89890021Y-93894199D01*
X88990001Y-89186999D02*
X88990001Y-91090589D01*
X105411410Y-120015000D02*
X107315000Y-120015000D01*
X90886438Y-101039388D02*
X94325048Y-104478000D01*
X88990001Y-91090589D02*
X89440011Y-91540599D01*
X98350612Y-118664972D02*
X100254203Y-118664973D01*
X89890021Y-95797789D02*
X90340031Y-96247799D01*
X89440011Y-91540599D02*
X89440011Y-93444189D01*
X90340031Y-97954391D02*
X90886438Y-98500798D01*
X90886438Y-98500798D02*
X90886438Y-101039388D01*
X88068002Y-88265000D02*
X88990001Y-89186999D01*
X89890021Y-93894199D02*
X89890021Y-95797789D01*
X82060000Y-94615000D02*
X83185000Y-94615000D01*
X92975020Y-117102200D02*
X95437810Y-119564990D01*
X92975020Y-105037200D02*
X92975020Y-117102200D01*
X89536410Y-101598590D02*
X92975020Y-105037200D01*
X81280000Y-95885000D02*
X88068002Y-95885000D01*
X80010000Y-94615000D02*
X81280000Y-95885000D01*
X88990001Y-96806999D02*
X88990001Y-98513591D01*
X88068002Y-95885000D02*
X88990001Y-96806999D01*
X88990001Y-98513591D02*
X89536410Y-99060000D01*
X89536410Y-99060000D02*
X89536410Y-101598590D01*
X95437810Y-119564990D02*
X97341401Y-119564991D01*
X97341401Y-119564991D02*
X97791410Y-120015000D01*
X99695000Y-120015000D02*
X101600000Y-121920000D01*
X97791410Y-120015000D02*
X99695000Y-120015000D01*
X82060000Y-97155000D02*
X83185000Y-97155000D01*
X95251410Y-120015000D02*
X97155000Y-120015000D01*
X92525010Y-117288600D02*
X95251410Y-120015000D01*
X97155000Y-120015000D02*
X99060000Y-121920000D01*
X92525010Y-105223600D02*
X92525010Y-117288600D01*
X80010000Y-97155000D02*
X81280000Y-98425000D01*
X81280000Y-98425000D02*
X88265000Y-98425000D01*
X89086400Y-101784990D02*
X92525010Y-105223600D01*
X89086400Y-99246400D02*
X89086400Y-101784990D01*
X88265000Y-98425000D02*
X89086400Y-99246400D01*
X142875000Y-82280000D02*
X142875000Y-83185000D01*
X143637000Y-83947000D02*
X148528000Y-83947000D01*
X142875000Y-83185000D02*
X143637000Y-83947000D01*
X138700000Y-82280000D02*
X142875000Y-82280000D01*
X137795000Y-84455000D02*
X137795000Y-83185000D01*
X137795000Y-83185000D02*
X138700000Y-82280000D01*
X136525000Y-85725000D02*
X137795000Y-84455000D01*
X114300000Y-90805000D02*
X132715000Y-90805000D01*
X80010000Y-76835000D02*
X81280000Y-78105000D01*
X81280000Y-78105000D02*
X88068002Y-78105000D01*
X88990001Y-83470589D02*
X89440011Y-83920599D01*
X89440011Y-83920599D02*
X89440011Y-85824189D01*
X89440011Y-85824189D02*
X89890021Y-86274199D01*
X88068002Y-78105000D02*
X88990001Y-79026999D01*
X89890021Y-88177789D02*
X90340030Y-88627798D01*
X89890021Y-86274199D02*
X89890021Y-88177789D01*
X88990001Y-79026999D02*
X88990001Y-83470589D01*
X90340030Y-88627798D02*
X90340030Y-89705030D01*
X132715000Y-90805000D02*
X136525000Y-86995000D01*
X90340030Y-89705030D02*
X92710000Y-92075000D01*
X92710000Y-92075000D02*
X113030000Y-92075000D01*
X136525000Y-86995000D02*
X136525000Y-85725000D01*
X113030000Y-92075000D02*
X114300000Y-90805000D01*
X82060000Y-76835000D02*
X83185000Y-76835000D01*
X145415000Y-82280000D02*
X146415000Y-82280000D01*
X146812000Y-82677000D02*
X148528000Y-82677000D01*
X146415000Y-82280000D02*
X146812000Y-82677000D01*
X81280000Y-75565000D02*
X80010000Y-74295000D01*
X88265000Y-75565000D02*
X81280000Y-75565000D01*
X89440011Y-76740011D02*
X88265000Y-75565000D01*
X89440011Y-83284189D02*
X89440011Y-76740011D01*
X89890021Y-85637789D02*
X89890021Y-83734199D01*
X89890021Y-83734199D02*
X89440011Y-83284189D01*
X90340030Y-86087798D02*
X89890021Y-85637789D01*
X90340031Y-87991389D02*
X90340030Y-86087798D01*
X145415000Y-82280000D02*
X144415000Y-81280000D01*
X112395000Y-91440000D02*
X93345000Y-91440000D01*
X144415000Y-81280000D02*
X138430000Y-81280000D01*
X135890000Y-85090000D02*
X135890000Y-86360000D01*
X137160000Y-83820000D02*
X135890000Y-85090000D01*
X137160000Y-82550000D02*
X137160000Y-83820000D01*
X135890000Y-86360000D02*
X132080000Y-90170000D01*
X132080000Y-90170000D02*
X113665000Y-90170000D01*
X113665000Y-90170000D02*
X112395000Y-91440000D01*
X93345000Y-91440000D02*
X90790040Y-88885040D01*
X90790040Y-88885040D02*
X90790039Y-88441397D01*
X138430000Y-81280000D02*
X137160000Y-82550000D01*
X90790039Y-88441397D02*
X90340031Y-87991389D01*
X82060000Y-74295000D02*
X83185000Y-74295000D01*
X127770000Y-66810000D02*
X127770000Y-68920000D01*
X124460000Y-63500000D02*
X127770000Y-66810000D01*
X127000000Y-63500000D02*
X127000000Y-65403590D01*
X128270000Y-66673590D02*
X128270000Y-68920000D01*
X127000000Y-65403590D02*
X128270000Y-66673590D01*
X128770000Y-68920000D02*
X128770000Y-66810000D01*
X129540000Y-66040000D02*
X129540000Y-63500000D01*
X128770000Y-66810000D02*
X129540000Y-66040000D01*
X129270000Y-68920000D02*
X129270000Y-66946410D01*
X129990009Y-66226401D02*
X129990009Y-65589991D01*
X129270000Y-66946410D02*
X129990009Y-66226401D01*
X129990009Y-65589991D02*
X132080000Y-63500000D01*
D44*
X157699999Y-110474000D02*
X157424999Y-110199000D01*
X159650000Y-110474000D02*
X157699999Y-110474000D01*
X157424999Y-110199000D02*
X156819200Y-110199000D01*
X156819200Y-110199000D02*
X154657000Y-112361200D01*
X154657000Y-112361200D02*
X154657000Y-113885200D01*
X154657000Y-113885200D02*
X154657000Y-114075000D01*
X153416000Y-115316000D02*
X152908000Y-115316000D01*
X154657000Y-114075000D02*
X153416000Y-115316000D01*
X150622000Y-114064000D02*
X150538000Y-113980000D01*
X150622000Y-115316000D02*
X150622000Y-114064000D01*
X158271000Y-121129000D02*
X157480000Y-121920000D01*
X158271000Y-118457200D02*
X158271000Y-121129000D01*
X156624800Y-116811000D02*
X158271000Y-118457200D01*
X151638000Y-115888200D02*
X152560800Y-116811000D01*
X151638000Y-114808000D02*
X151638000Y-115888200D01*
X150810000Y-113980000D02*
X151638000Y-114808000D01*
X152560800Y-116811000D02*
X156624800Y-116811000D01*
X150538000Y-113980000D02*
X150810000Y-113980000D01*
X154207000Y-113763000D02*
X153990000Y-113980000D01*
X154207000Y-112174800D02*
X154207000Y-113763000D01*
X156632800Y-109749000D02*
X154207000Y-112174800D01*
X157424999Y-109749000D02*
X156632800Y-109749000D01*
X157699999Y-109474000D02*
X157424999Y-109749000D01*
X153990000Y-113980000D02*
X152738000Y-113980000D01*
X159650000Y-109474000D02*
X157699999Y-109474000D01*
X156811200Y-116361000D02*
X158721000Y-118270800D01*
X152747200Y-116361000D02*
X156811200Y-116361000D01*
X158721000Y-118270800D02*
X158721000Y-123219000D01*
X152146000Y-115759800D02*
X152747200Y-116361000D01*
X158721000Y-123219000D02*
X157480000Y-124460000D01*
X152146000Y-114572000D02*
X152146000Y-115759800D01*
X152738000Y-113980000D02*
X152146000Y-114572000D01*
X153160200Y-112080000D02*
X152738000Y-112080000D01*
X156541200Y-108699000D02*
X153160200Y-112080000D01*
X157424999Y-108699000D02*
X156541200Y-108699000D01*
X157699999Y-108974000D02*
X157424999Y-108699000D01*
X159650000Y-108974000D02*
X157699999Y-108974000D01*
X155731000Y-121129000D02*
X154940000Y-121920000D01*
X155731000Y-119981200D02*
X155731000Y-121129000D01*
X153410800Y-117661000D02*
X155731000Y-119981200D01*
X147857000Y-114393200D02*
X151124800Y-117661000D01*
X149098000Y-111441800D02*
X147857000Y-112682800D01*
X150285999Y-110043999D02*
X149098000Y-111231998D01*
X151124800Y-117661000D02*
X153410800Y-117661000D01*
X147857000Y-112682800D02*
X147857000Y-114393200D01*
X150958001Y-110043999D02*
X150285999Y-110043999D01*
X149098000Y-111231998D02*
X149098000Y-111441800D01*
X152738000Y-111823998D02*
X150958001Y-110043999D01*
X152738000Y-112080000D02*
X152738000Y-111823998D01*
X156354800Y-108249000D02*
X154018900Y-110584900D01*
X157424999Y-108249000D02*
X156354800Y-108249000D01*
X157699999Y-107974000D02*
X157424999Y-108249000D01*
X159650000Y-107974000D02*
X157699999Y-107974000D01*
X153067100Y-110584900D02*
X152908000Y-110744000D01*
X154018900Y-110584900D02*
X153067100Y-110584900D01*
X150622000Y-111996000D02*
X150538000Y-112080000D01*
X150622000Y-110744000D02*
X150622000Y-111996000D01*
X156181000Y-123219000D02*
X154940000Y-124460000D01*
X156181000Y-119794800D02*
X156181000Y-123219000D01*
X153597200Y-117211000D02*
X156181000Y-119794800D01*
X148307000Y-112869200D02*
X148307000Y-114206800D01*
X151311200Y-117211000D02*
X153597200Y-117211000D01*
X149096200Y-112080000D02*
X148307000Y-112869200D01*
X148307000Y-114206800D02*
X151311200Y-117211000D01*
X150538000Y-112080000D02*
X149096200Y-112080000D01*
X156453000Y-107199000D02*
X154739200Y-107199000D01*
X157699999Y-107474000D02*
X157424999Y-107199000D01*
X157424999Y-107199000D02*
X156453000Y-107199000D01*
X159650000Y-107474000D02*
X157699999Y-107474000D01*
X153480200Y-108458000D02*
X152908000Y-108458000D01*
X154739200Y-107199000D02*
X153480200Y-108458000D01*
X150622000Y-107206000D02*
X150538000Y-107122000D01*
X150622000Y-108458000D02*
X150622000Y-107206000D01*
X146841000Y-111477000D02*
X146841000Y-114901200D01*
X149860000Y-108458000D02*
X146841000Y-111477000D01*
X149860000Y-107696000D02*
X149860000Y-108458000D01*
X146841000Y-114901200D02*
X151544800Y-119605000D01*
X150434000Y-107122000D02*
X149860000Y-107696000D01*
X150538000Y-107122000D02*
X150434000Y-107122000D01*
X151544800Y-119605000D02*
X152306800Y-119605000D01*
X152306800Y-119605000D02*
X153256900Y-120555100D01*
X153256900Y-121063100D02*
X152400000Y-121920000D01*
X153256900Y-120555100D02*
X153256900Y-121063100D01*
X154109000Y-106749000D02*
X153736000Y-107122000D01*
X153736000Y-107122000D02*
X152738000Y-107122000D01*
X157424999Y-106749000D02*
X154109000Y-106749000D01*
X157699999Y-106474000D02*
X157424999Y-106749000D01*
X159650000Y-106474000D02*
X157699999Y-106474000D01*
X153670000Y-120331800D02*
X153670000Y-123190000D01*
X151731200Y-119155000D02*
X152493200Y-119155000D01*
X147291000Y-114714800D02*
X151731200Y-119155000D01*
X152493200Y-119155000D02*
X153670000Y-120331800D01*
X147291000Y-111789000D02*
X147291000Y-114714800D01*
X149921999Y-109158001D02*
X147291000Y-111789000D01*
X150958001Y-109158001D02*
X149921999Y-109158001D01*
X153670000Y-123190000D02*
X152400000Y-124460000D01*
X152738000Y-107378002D02*
X150958001Y-109158001D01*
X152738000Y-107122000D02*
X152738000Y-107378002D01*
X157424999Y-105699000D02*
X154402800Y-105699000D01*
X157699999Y-105974000D02*
X157424999Y-105699000D01*
X159650000Y-105974000D02*
X157699999Y-105974000D01*
X153925800Y-105222000D02*
X152738000Y-105222000D01*
X154402800Y-105699000D02*
X153925800Y-105222000D01*
X150651000Y-121129000D02*
X149860000Y-121920000D01*
X147857000Y-105614998D02*
X147857000Y-109126800D01*
X145825000Y-111158800D02*
X145825000Y-115155200D01*
X150285999Y-103185999D02*
X147857000Y-105614998D01*
X150651000Y-119981200D02*
X150651000Y-121129000D01*
X150958001Y-103185999D02*
X150285999Y-103185999D01*
X147857000Y-109126800D02*
X145825000Y-111158800D01*
X152738000Y-104965998D02*
X150958001Y-103185999D01*
X145825000Y-115155200D02*
X150651000Y-119981200D01*
X152738000Y-105222000D02*
X152738000Y-104965998D01*
X154589200Y-105249000D02*
X154083100Y-104742900D01*
X157424999Y-105249000D02*
X154589200Y-105249000D01*
X157699999Y-104974000D02*
X157424999Y-105249000D01*
X159650000Y-104974000D02*
X157699999Y-104974000D01*
X153226200Y-103886000D02*
X152908000Y-103886000D01*
X154083100Y-104742900D02*
X153226200Y-103886000D01*
X150622000Y-105138000D02*
X150538000Y-105222000D01*
X150622000Y-103886000D02*
X150622000Y-105138000D01*
X149096200Y-105222000D02*
X150538000Y-105222000D01*
X148307000Y-106011200D02*
X149096200Y-105222000D01*
X148307000Y-109313200D02*
X148307000Y-106011200D01*
X146275000Y-111345200D02*
X148307000Y-109313200D01*
X146275000Y-114968800D02*
X146275000Y-111345200D01*
X151130000Y-119823800D02*
X146275000Y-114968800D01*
X151130000Y-123190000D02*
X151130000Y-119823800D01*
X149860000Y-124460000D02*
X151130000Y-123190000D01*
D43*
X130175000Y-88360000D02*
X131350000Y-88360000D01*
X131350000Y-88360000D02*
X132715000Y-86995000D01*
X135890000Y-108585000D02*
X135890000Y-104775000D01*
X142970000Y-109760000D02*
X143510000Y-109220000D01*
X142970000Y-111125000D02*
X142970000Y-109760000D01*
D44*
X164349499Y-89635000D02*
X161517000Y-89635000D01*
X164449499Y-89535000D02*
X164349499Y-89635000D01*
X161517000Y-89635000D02*
X160528000Y-88646000D01*
X165462000Y-89535000D02*
X164449499Y-89535000D01*
X161629000Y-90085000D02*
X160528000Y-91186000D01*
X164349499Y-90085000D02*
X161629000Y-90085000D01*
X164449499Y-90185000D02*
X164349499Y-90085000D01*
X165462000Y-90185000D02*
X164449499Y-90185000D01*
D43*
X116205000Y-118205000D02*
X116205000Y-119380000D01*
X116840000Y-120015000D02*
X116840000Y-121920000D01*
X116205000Y-119380000D02*
X116840000Y-120015000D01*
X118745000Y-116205000D02*
X118745000Y-115570000D01*
X118475000Y-115300000D02*
X118475000Y-113665000D01*
X118745000Y-115570000D02*
X118475000Y-115300000D01*
X118475000Y-113665000D02*
X118475000Y-112665000D01*
X119015000Y-112125000D02*
X119015000Y-111125000D01*
X118475000Y-112665000D02*
X119015000Y-112125000D01*
X118745000Y-118205000D02*
X118745000Y-119380000D01*
X119380000Y-120015000D02*
X119380000Y-121920000D01*
X118745000Y-119380000D02*
X119380000Y-120015000D01*
X121015000Y-111125000D02*
X121015000Y-112125000D01*
X121555000Y-112665000D02*
X121555000Y-113665000D01*
X121015000Y-112125000D02*
X121555000Y-112665000D01*
X121285000Y-116205000D02*
X121285000Y-115570000D01*
X121555000Y-115300000D02*
X121555000Y-113665000D01*
X121285000Y-115570000D02*
X121555000Y-115300000D01*
X121285000Y-118205000D02*
X121285000Y-119380000D01*
X121920000Y-120015000D02*
X121920000Y-121920000D01*
X121285000Y-119380000D02*
X121920000Y-120015000D01*
X123555000Y-113665000D02*
X123555000Y-112665000D01*
X124095000Y-112125000D02*
X124095000Y-111125000D01*
X123555000Y-112665000D02*
X124095000Y-112125000D01*
X123825000Y-116205000D02*
X123825000Y-115570000D01*
X123555000Y-115300000D02*
X123555000Y-113665000D01*
X123825000Y-115570000D02*
X123555000Y-115300000D01*
X123825000Y-118205000D02*
X123825000Y-119380000D01*
X124460000Y-120015000D02*
X124460000Y-121920000D01*
X123825000Y-119380000D02*
X124460000Y-120015000D01*
X126095000Y-111125000D02*
X126095000Y-112125000D01*
X126635000Y-112665000D02*
X126635000Y-113665000D01*
X126095000Y-112125000D02*
X126635000Y-112665000D01*
X126365000Y-116205000D02*
X126365000Y-115570000D01*
X126635000Y-115300000D02*
X126635000Y-113665000D01*
X126365000Y-115570000D02*
X126635000Y-115300000D01*
X126365000Y-118205000D02*
X126365000Y-119380000D01*
X127000000Y-120015000D02*
X127000000Y-121920000D01*
X126365000Y-119380000D02*
X127000000Y-120015000D01*
X128635000Y-113665000D02*
X128635000Y-112665000D01*
X129175000Y-112125000D02*
X129175000Y-111125000D01*
X128635000Y-112665000D02*
X129175000Y-112125000D01*
X128905000Y-116205000D02*
X128905000Y-115570000D01*
X128635000Y-115300000D02*
X128635000Y-113665000D01*
X128905000Y-115570000D02*
X128635000Y-115300000D01*
X128905000Y-118205000D02*
X128905000Y-119380000D01*
X129540000Y-120015000D02*
X129540000Y-121920000D01*
X128905000Y-119380000D02*
X129540000Y-120015000D01*
X131175000Y-111125000D02*
X131175000Y-112125000D01*
X131715000Y-112665000D02*
X131715000Y-113665000D01*
X131175000Y-112125000D02*
X131715000Y-112665000D01*
X131445000Y-116205000D02*
X131445000Y-115570000D01*
X131715000Y-115300000D02*
X131715000Y-113665000D01*
X131445000Y-115570000D02*
X131715000Y-115300000D01*
X131445000Y-118205000D02*
X131445000Y-119380000D01*
X132080000Y-120015000D02*
X132080000Y-121920000D01*
X131445000Y-119380000D02*
X132080000Y-120015000D01*
X133985000Y-116205000D02*
X133985000Y-115570000D01*
X133715000Y-115300000D02*
X133715000Y-113665000D01*
X133985000Y-115570000D02*
X133715000Y-115300000D01*
X133715000Y-113665000D02*
X133715000Y-112665000D01*
X133985000Y-112395000D02*
X133985000Y-111125000D01*
X133715000Y-112665000D02*
X133985000Y-112395000D01*
X133715000Y-113665000D02*
X135255000Y-113665000D01*
X135720000Y-113200000D02*
X136845000Y-113200000D01*
X135255000Y-113665000D02*
X135720000Y-113200000D01*
X133985000Y-118205000D02*
X133985000Y-119380000D01*
X134620000Y-120015000D02*
X134620000Y-121920000D01*
X133985000Y-119380000D02*
X134620000Y-120015000D01*
X151949990Y-65589990D02*
X149860000Y-63500000D01*
X151949990Y-76648600D02*
X151949990Y-65589990D01*
X150943600Y-77654990D02*
X151949990Y-76648600D01*
X144595010Y-77654990D02*
X150943600Y-77654990D01*
X142875000Y-79375000D02*
X144595010Y-77654990D01*
X142875000Y-80280000D02*
X142875000Y-79375000D01*
X146685000Y-78105000D02*
X151130000Y-78105000D01*
X151130000Y-78105000D02*
X152400000Y-76835000D01*
X152400000Y-76835000D02*
X152400000Y-76200000D01*
X152400000Y-76200000D02*
X152400000Y-63500000D01*
X145415000Y-79375000D02*
X146685000Y-78105000D01*
X145415000Y-80280000D02*
X145415000Y-79375000D01*
D44*
X150905000Y-88040000D02*
X150622000Y-87757000D01*
X151671800Y-91665000D02*
X150905000Y-90898200D01*
X150622000Y-87757000D02*
X148528000Y-87757000D01*
X155033200Y-91665000D02*
X151671800Y-91665000D01*
X156557200Y-90141000D02*
X155033200Y-91665000D01*
X150905000Y-90898200D02*
X150905000Y-88040000D01*
X157483000Y-90141000D02*
X156557200Y-90141000D01*
X158528000Y-91186000D02*
X157483000Y-90141000D01*
X151355000Y-87855000D02*
X149987000Y-86487000D01*
X151355000Y-90711800D02*
X151355000Y-87855000D01*
X151858200Y-91215000D02*
X151355000Y-90711800D01*
X154846800Y-91215000D02*
X151858200Y-91215000D01*
X156370800Y-89691000D02*
X154846800Y-91215000D01*
X149987000Y-86487000D02*
X148528000Y-86487000D01*
X157483000Y-89691000D02*
X156370800Y-89691000D01*
X158528000Y-88646000D02*
X157483000Y-89691000D01*
D43*
X152850010Y-65589990D02*
X154940000Y-63500000D01*
X152850010Y-77021400D02*
X152850010Y-65589990D01*
X151765000Y-78106410D02*
X152850010Y-77021400D01*
X151765000Y-84479000D02*
X151765000Y-78106410D01*
X152503000Y-85217000D02*
X151765000Y-84479000D01*
X153478000Y-85217000D02*
X152503000Y-85217000D01*
D42*
X157160000Y-95885000D02*
X152400000Y-95885000D01*
X163774999Y-90860001D02*
X165462000Y-90860001D01*
X161610000Y-93025000D02*
X163774999Y-90860001D01*
X161610000Y-95885000D02*
X161610000Y-93025000D01*
M02*
