M48
; DRILL file {KiCad (5.1.6)-1} date 10/25/20 12:15:00
; FORMAT={-:-/ absolute / inch / decimal}
; #@! TF.CreationDate,2020-10-25T12:15:00+01:00
; #@! TF.GenerationSoftware,Kicad,Pcbnew,(5.1.6)-1
FMAT,2
INCH
T1C0.0157
T2C0.0236
T3C0.0276
T4C0.0315
T5C0.0354
T6C0.0362
T7C0.0390
T8C0.0394
T9C0.0512
T10C0.0591
T11C0.0906
T12C0.1260
T13C0.0315
T14C0.0394
T15C0.1260
%
G90
G05
T1
X2.65Y-4.04
X2.65Y-4.14
X2.65Y-4.24
X2.69Y-5.63
X2.69Y-5.95
X2.7593Y-2.3107
X2.8287Y-2.1187
X2.8307Y-2.3107
X2.91Y-4.59
X2.91Y-5.04
X3.0387Y-2.1187
X3.06Y-1.23
X3.07Y-5.26
X3.0707Y-5.3107
X3.1193Y-1.9793
X3.1193Y-2.1693
X3.12Y-5.67
X3.12Y-5.73
X3.1793Y-3.9093
X3.1796Y-4.3704
X3.18Y-4.89
X3.25Y-4.14
X3.33Y-3.02
X3.41Y-1.61
X3.4916Y-1.8216
X3.594Y-1.824
X3.6693Y-5.2207
X3.75Y-5.22
X3.98Y-1.88
X3.98Y-2.07
X4.0607Y-5.6093
X4.1417Y-5.0817
X4.2007Y-5.6093
X4.34Y-4.16
X4.34Y-4.22
X4.34Y-4.28
X4.3496Y-2.2004
X4.35Y-3.02
X4.41Y-1.41
X4.4116Y-1.7684
X4.47Y-3.02
X4.514Y-1.776
X4.54Y-4.35
X4.59Y-4.35
X4.62Y-5.23
X4.63Y-4.16
X4.665Y-3.865
X4.6843Y-5.0943
X4.735Y-3.415
X4.7522Y-5.1322
X4.785Y-3.375
X4.79Y-5.66
X4.79Y-5.72
X4.81Y-5.2863
X4.81Y-5.515
X4.8396Y-4.2096
X4.84Y-5.66
X4.84Y-5.75
X4.8872Y-4.4772
X4.9Y-5.9
X4.93Y-5.38
X4.94Y-5.57
X4.9492Y-5.2192
X4.984Y-5.306
X5.006Y-4.554
X5.0407Y-6.0607
X5.1Y-5.9
X5.12Y-3.87
X5.13Y-4.23
X5.21Y-4.41
X5.26Y-2.91
X5.27Y-1.82
X5.285Y-3.375
X5.285Y-3.905
X5.2943Y-4.1607
X5.32Y-2.11
X5.3293Y-3.0693
X5.33Y-2.74
X5.34Y-4.3
X5.37Y-3.52
X5.37Y-3.84
X5.38Y-4.64
X5.38Y-4.68
X5.38Y-4.72
X5.38Y-5.5
X5.38Y-5.6
X5.42Y-4.39
X5.43Y-4.14
X5.46Y-2.86
X5.5Y-3.26
X5.51Y-3.9
X5.55Y-3.9
X5.58Y-3.48
X5.58Y-3.58
X5.58Y-3.87
X5.58Y-3.95
X5.59Y-3.75
X5.6128Y-2.9772
X5.68Y-1.82
X5.7404Y-3.0796
X5.7472Y-3.0028
X5.75Y-2.89
X5.76Y-5.05
X5.76Y-5.23
X5.7675Y-3.7325
X5.7893Y-3.9707
X5.8257Y-5.4793
X5.8822Y-5.1322
X5.8896Y-3.8096
X5.89Y-3.62
X5.895Y-4.06
X5.895Y-4.665
X5.8972Y-3.7328
X5.945Y-5.515
X5.96Y-5.285
X5.985Y-3.535
X6.055Y-3.535
X6.06Y-5.37
X6.07Y-2.99
X6.07Y-3.1
X6.07Y-5.57
X6.08Y-3.44
X6.08Y-5.21
X6.1Y-5.305
X6.15Y-3.29
X6.1772Y-3.7072
X6.44Y-5.62
X6.45Y-4.69
X6.45Y-5.52
X6.53Y-5.31
X6.53Y-5.41
T2
X3.2713Y-2.46
X3.35Y-2.46
X4.0Y-1.6
X4.0787Y-1.6
X5.64Y-4.47
X5.7187Y-4.47
X4.0Y-1.2
X4.0787Y-1.2
X5.64Y-4.25
X5.7187Y-4.25
X3.5113Y-5.07
X3.59Y-5.07
T3
X3.44Y-1.82
X3.7693Y-1.9407
X3.85Y-2.17
X4.16Y-1.4
X4.3348Y-1.6048
X4.44Y-1.17
X4.61Y-2.24
X4.66Y-2.02
X5.4Y-4.03
X6.223Y-3.483
X6.223Y-3.633
X6.2748Y-4.2752
X6.2852Y-3.9248
X6.2948Y-3.7452
X6.2952Y-3.3948
X6.4348Y-4.2752
X6.4352Y-3.3948
X6.4352Y-3.9248
X6.4448Y-3.7452
X6.45Y-4.12
X6.46Y-3.55
X6.5722Y-4.0078
X6.5722Y-4.1878
X6.5722Y-4.3578
X6.5822Y-3.3178
X6.5822Y-3.4678
X6.5822Y-3.6678
X6.5822Y-3.8222
T4
X3.31Y-1.9079
X3.31Y-2.1
X6.2513Y-2.94
X6.33Y-2.94
X2.8837Y-1.3361
X2.8837Y-1.4188
X2.8837Y-1.5212
X2.8837Y-1.6039
X2.9939Y-1.3361
X2.9939Y-1.6039
X4.22Y-1.8779
X4.22Y-2.07
T5
X6.6Y-2.9125
X6.6Y-2.9913
X6.6Y-3.07
T6
X3.4744Y-1.3719
X3.4744Y-1.475
X3.5728Y-1.3719
X3.5728Y-1.475
X3.6516Y-1.3719
X3.6516Y-1.475
X3.75Y-1.3719
X3.75Y-1.475
T7
X2.66Y-5.01
X2.66Y-5.1872
X2.66Y-4.57
X2.66Y-4.7472
T8
X5.725Y-0.95
X5.825Y-0.95
X5.925Y-0.95
X6.025Y-0.95
X6.125Y-0.95
X6.225Y-0.95
X6.325Y-0.95
X5.6Y-2.1
X3.4Y-4.0
X3.4Y-4.1
X3.5Y-4.0
X3.5Y-4.1
X3.6Y-4.0
X3.6Y-4.1
X3.7Y-4.0
X3.7Y-4.1
X3.8Y-4.0
X3.8Y-4.1
X3.9Y-4.0
X3.9Y-4.1
X4.0Y-4.0
X4.0Y-4.1
X4.1Y-4.0
X4.1Y-4.1
X4.2Y-4.0
X4.2Y-4.1
X4.3Y-4.0
X4.3Y-4.1
X4.225Y-0.95
X4.325Y-0.95
X4.425Y-0.95
X4.525Y-0.95
X4.625Y-0.95
X4.725Y-0.95
X4.825Y-0.95
X4.925Y-0.95
X5.025Y-0.95
X5.125Y-0.95
X5.95Y-2.1
X6.05Y-2.1
X6.15Y-2.1
X6.25Y-2.1
X6.35Y-2.1
X6.45Y-2.1
X3.5Y-4.8
X3.5Y-4.9
X3.6Y-4.8
X3.6Y-4.9
X3.7Y-4.8
X3.7Y-4.9
X3.8Y-4.8
X3.8Y-4.9
X3.9Y-4.8
X3.9Y-4.9
X4.0Y-4.8
X4.0Y-4.9
X4.1Y-4.8
X4.1Y-4.9
X4.2Y-4.8
X4.2Y-4.9
X4.3Y-4.8
X4.3Y-4.9
X4.4Y-4.8
X4.4Y-4.9
X4.5Y-4.8
X4.5Y-4.9
X4.6Y-4.8
X4.6Y-4.9
X4.7Y-4.8
X4.7Y-4.9
X4.8Y-4.8
X4.8Y-4.9
X4.9Y-4.8
X4.9Y-4.9
X5.0Y-4.8
X5.0Y-4.9
X5.1Y-4.8
X5.1Y-4.9
X5.2Y-4.8
X5.2Y-4.9
X5.3Y-4.8
X5.3Y-4.9
X5.4Y-4.8
X5.4Y-4.9
X5.5Y-4.8
X5.5Y-4.9
X5.6Y-4.8
X5.6Y-4.9
X5.7Y-4.8
X5.7Y-4.9
X5.8Y-4.8
X5.8Y-4.9
X5.9Y-4.8
X5.9Y-4.9
X6.0Y-4.8
X6.0Y-4.9
X6.1Y-4.8
X6.1Y-4.9
X6.2Y-4.8
X6.2Y-4.9
X6.3Y-4.8
X6.3Y-4.9
X6.4Y-4.8
X6.4Y-4.9
X6.5Y-4.8
X6.5Y-4.9
X6.6Y-4.8
X6.6Y-4.9
X4.0138Y-5.84
X4.0683Y-5.9518
X4.1228Y-5.84
X4.1774Y-5.9518
X4.2319Y-5.84
X4.2864Y-5.9518
X4.3409Y-5.84
X4.3955Y-5.9518
X4.45Y-5.84
X3.5Y-2.4
X3.5Y-2.5
X3.6Y-2.4
X3.6Y-2.5
X3.7Y-2.4
X3.7Y-2.5
X3.8Y-2.4
X3.8Y-2.5
X3.9Y-2.4
X3.9Y-2.5
X4.0Y-2.4
X4.0Y-2.5
X4.1Y-2.4
X4.1Y-2.5
X4.2Y-2.4
X4.2Y-2.5
X4.3Y-2.4
X4.3Y-2.5
X4.4Y-2.4
X4.4Y-2.5
X4.5Y-2.4
X4.5Y-2.5
X4.6Y-2.4
X4.6Y-2.5
X4.7Y-2.4
X4.7Y-2.5
X4.8Y-2.4
X4.8Y-2.5
X4.9Y-2.4
X4.9Y-2.5
X5.0Y-2.4
X5.0Y-2.5
X5.1Y-2.4
X5.1Y-2.5
X5.2Y-2.4
X5.2Y-2.5
X5.3Y-2.4
X5.3Y-2.5
X5.4Y-2.4
X5.4Y-2.5
X5.5Y-2.4
X5.5Y-2.5
X5.6Y-2.4
X5.6Y-2.5
X5.7Y-2.4
X5.7Y-2.5
X5.8Y-2.4
X5.8Y-2.5
X5.9Y-2.4
X5.9Y-2.5
X6.0Y-2.4
X6.0Y-2.5
X6.1Y-2.4
X6.1Y-2.5
X6.2Y-2.4
X6.2Y-2.5
X6.3Y-2.4
X6.3Y-2.5
X6.4Y-2.4
X6.4Y-2.5
X6.5Y-2.4
X6.5Y-2.5
X6.6Y-2.4
X6.6Y-2.5
X3.4Y-3.2
X3.4Y-3.3
X3.5Y-3.2
X3.5Y-3.3
X3.6Y-3.2
X3.6Y-3.3
X3.7Y-3.2
X3.7Y-3.3
X3.8Y-3.2
X3.8Y-3.3
X3.9Y-3.2
X3.9Y-3.3
X4.0Y-3.2
X4.0Y-3.3
X4.1Y-3.2
X4.1Y-3.3
X4.2Y-3.2
X4.2Y-3.3
X4.3Y-3.2
X4.3Y-3.3
X3.4Y-3.6
X3.4Y-3.7
X3.5Y-3.6
X3.5Y-3.7
X3.6Y-3.6
X3.6Y-3.7
X3.7Y-3.6
X3.7Y-3.7
X3.8Y-3.6
X3.8Y-3.7
X3.9Y-3.6
X3.9Y-3.7
X4.0Y-3.6
X4.0Y-3.7
X4.1Y-3.6
X4.1Y-3.7
X4.2Y-3.6
X4.2Y-3.7
X4.3Y-3.6
X4.3Y-3.7
X5.325Y-0.95
X5.425Y-0.95
X5.525Y-0.95
X5.5794Y-5.72
X5.5794Y-5.9199
X5.6244Y-5.82
X5.6695Y-5.72
X5.6695Y-5.9199
X5.7146Y-5.82
X5.7597Y-5.72
X5.7597Y-5.9199
X5.8048Y-5.82
X5.8498Y-5.72
X5.8498Y-5.9199
X5.8949Y-5.82
X5.94Y-5.72
X5.94Y-5.9199
X5.9851Y-5.82
X5.95Y-1.3
X6.05Y-1.3
X6.15Y-1.3
X6.25Y-1.3
X6.35Y-1.3
X6.45Y-1.3
X3.4Y-3.4
X3.4Y-3.5
X3.5Y-3.4
X3.5Y-3.5
X3.6Y-3.4
X3.6Y-3.5
X3.7Y-3.4
X3.7Y-3.5
X3.8Y-3.4
X3.8Y-3.5
X3.9Y-3.4
X3.9Y-3.5
X4.0Y-3.4
X4.0Y-3.5
X4.1Y-3.4
X4.1Y-3.5
X4.2Y-3.4
X4.2Y-3.5
X4.3Y-3.4
X4.3Y-3.5
X3.4Y-3.8
X3.4Y-3.9
X3.5Y-3.8
X3.5Y-3.9
X3.6Y-3.8
X3.6Y-3.9
X3.7Y-3.8
X3.7Y-3.9
X3.8Y-3.8
X3.8Y-3.9
X3.9Y-3.8
X3.9Y-3.9
X4.0Y-3.8
X4.0Y-3.9
X4.1Y-3.8
X4.1Y-3.9
X4.2Y-3.8
X4.2Y-3.9
X4.3Y-3.8
X4.3Y-3.9
T9
X2.758Y-4.9604
X2.758Y-5.2364
X3.13Y-2.42
X3.13Y-2.5775
X3.13Y-2.735
X3.13Y-2.8924
X3.13Y-3.1483
X3.13Y-3.3058
X3.13Y-3.4633
X2.758Y-4.5204
X2.758Y-4.7964
T10
X6.6Y-2.8298
X6.6Y-3.1527
T11
X3.3535Y-1.2652
X3.3535Y-1.4888
X3.8709Y-1.2652
X3.8709Y-1.4888
T12
X4.9901Y-3.68
X3.7398Y-5.8959
X4.724Y-5.8959
X5.278Y-5.8199
X6.2622Y-5.8199
T13
X6.3514Y-4.49
X6.627Y-4.49
T14
X6.46Y-4.0134
X6.46Y-4.1866
X6.47Y-3.4834
X6.47Y-3.6566
T15
X6.55Y-1.0
X2.7Y-6.12
X2.7Y-1.0
X6.55Y-6.12
T5
G00X6.253Y-4.3994
M15
G01X6.2372Y-4.3994
M16
G05
G00X6.2963Y-4.5806
M15
G01X6.2806Y-4.5806
M16
G05
G00X6.4538Y-4.5806
M15
G01X6.438Y-4.5806
M16
G05
G00X6.5719Y-4.5806
M15
G01X6.5561Y-4.5806
M16
G05
T8
G00X2.74Y-1.4306
M15
G01X2.74Y-1.5094
M16
G05
G00X2.801Y-1.2003
M15
G01X2.742Y-1.2003
M16
G05
G00X2.801Y-1.7397
M15
G01X2.742Y-1.7397
M16
G05
T0
M30
