G04 #@! TF.GenerationSoftware,KiCad,Pcbnew,5.1.10-88a1d61d58~90~ubuntu20.04.1*
G04 #@! TF.CreationDate,2021-11-05T20:40:26+01:00*
G04 #@! TF.ProjectId,FPGC4IOboard,46504743-3449-44f6-926f-6172642e6b69,rev?*
G04 #@! TF.SameCoordinates,Original*
G04 #@! TF.FileFunction,Soldermask,Bot*
G04 #@! TF.FilePolarity,Negative*
%FSLAX46Y46*%
G04 Gerber Fmt 4.6, Leading zero omitted, Abs format (unit mm)*
G04 Created by KiCad (PCBNEW 5.1.10-88a1d61d58~90~ubuntu20.04.1) date 2021-11-05 20:40:26*
%MOMM*%
%LPD*%
G01*
G04 APERTURE LIST*
%ADD10C,2.202000*%
%ADD11C,1.852000*%
%ADD12O,1.802000X1.802000*%
%ADD13C,1.702000*%
%ADD14C,1.302000*%
%ADD15O,2.102000X1.702000*%
%ADD16C,0.902000*%
%ADD17O,2.702000X1.902000*%
%ADD18O,4.102000X2.102000*%
%ADD19O,2.102000X3.602000*%
%ADD20C,1.602000*%
%ADD21C,3.102000*%
%ADD22O,2.402000X1.602000*%
%ADD23O,3.602000X1.802000*%
%ADD24C,6.502000*%
%ADD25C,0.652000*%
%ADD26O,2.002000X1.302000*%
%ADD27C,2.652000*%
%ADD28C,3.718000*%
G04 APERTURE END LIST*
D10*
X83770000Y-66020000D03*
D11*
X81280000Y-64770000D03*
X81280000Y-60270000D03*
D10*
X83770000Y-59010000D03*
G36*
G01*
X131865000Y-101969000D02*
X133565000Y-101969000D01*
G75*
G02*
X133616000Y-102020000I0J-51000D01*
G01*
X133616000Y-103720000D01*
G75*
G02*
X133565000Y-103771000I-51000J0D01*
G01*
X131865000Y-103771000D01*
G75*
G02*
X131814000Y-103720000I0J51000D01*
G01*
X131814000Y-102020000D01*
G75*
G02*
X131865000Y-101969000I51000J0D01*
G01*
G37*
D12*
X132715000Y-100330000D03*
X130175000Y-102870000D03*
X130175000Y-100330000D03*
X127635000Y-102870000D03*
X127635000Y-100330000D03*
X125095000Y-102870000D03*
X125095000Y-100330000D03*
X122555000Y-102870000D03*
X122555000Y-100330000D03*
X120015000Y-102870000D03*
X120015000Y-100330000D03*
X117475000Y-102870000D03*
X117475000Y-100330000D03*
X114935000Y-102870000D03*
X114935000Y-100330000D03*
X112395000Y-102870000D03*
X112395000Y-100330000D03*
X109855000Y-102870000D03*
X109855000Y-100330000D03*
X109855000Y-95250000D03*
X109855000Y-97790000D03*
X112395000Y-95250000D03*
X112395000Y-97790000D03*
X114935000Y-95250000D03*
X114935000Y-97790000D03*
X117475000Y-95250000D03*
X117475000Y-97790000D03*
X120015000Y-95250000D03*
X120015000Y-97790000D03*
X122555000Y-95250000D03*
X122555000Y-97790000D03*
X125095000Y-95250000D03*
X125095000Y-97790000D03*
X127635000Y-95250000D03*
X127635000Y-97790000D03*
X130175000Y-95250000D03*
X130175000Y-97790000D03*
X132715000Y-95250000D03*
G36*
G01*
X131865000Y-96889000D02*
X133565000Y-96889000D01*
G75*
G02*
X133616000Y-96940000I0J-51000D01*
G01*
X133616000Y-98640000D01*
G75*
G02*
X133565000Y-98691000I-51000J0D01*
G01*
X131865000Y-98691000D01*
G75*
G02*
X131814000Y-98640000I0J51000D01*
G01*
X131814000Y-96940000D01*
G75*
G02*
X131865000Y-96889000I51000J0D01*
G01*
G37*
G36*
G01*
X133084000Y-57365000D02*
X133084000Y-55665000D01*
G75*
G02*
X133135000Y-55614000I51000J0D01*
G01*
X134835000Y-55614000D01*
G75*
G02*
X134886000Y-55665000I0J-51000D01*
G01*
X134886000Y-57365000D01*
G75*
G02*
X134835000Y-57416000I-51000J0D01*
G01*
X133135000Y-57416000D01*
G75*
G02*
X133084000Y-57365000I0J51000D01*
G01*
G37*
G36*
G01*
X153505000Y-98209000D02*
X155105000Y-98209000D01*
G75*
G02*
X155156000Y-98260000I0J-51000D01*
G01*
X155156000Y-99860000D01*
G75*
G02*
X155105000Y-99911000I-51000J0D01*
G01*
X153505000Y-99911000D01*
G75*
G02*
X153454000Y-99860000I0J51000D01*
G01*
X153454000Y-98260000D01*
G75*
G02*
X153505000Y-98209000I51000J0D01*
G01*
G37*
D13*
X154305000Y-101060000D03*
G36*
G01*
X104791000Y-50834999D02*
X104791000Y-52035001D01*
G75*
G02*
X104740001Y-52086000I-50999J0D01*
G01*
X103539999Y-52086000D01*
G75*
G02*
X103489000Y-52035001I0J50999D01*
G01*
X103489000Y-50834999D01*
G75*
G02*
X103539999Y-50784000I50999J0D01*
G01*
X104740001Y-50784000D01*
G75*
G02*
X104791000Y-50834999I0J-50999D01*
G01*
G37*
D14*
X102140000Y-51435000D03*
D15*
X163980000Y-75960000D03*
D16*
X168580000Y-73660000D03*
X161580000Y-73660000D03*
D15*
X166980000Y-75960000D03*
X159980000Y-75960000D03*
X158880000Y-71360000D03*
G36*
G01*
X103290000Y-133084000D02*
X104990000Y-133084000D01*
G75*
G02*
X105041000Y-133135000I0J-51000D01*
G01*
X105041000Y-134835000D01*
G75*
G02*
X104990000Y-134886000I-51000J0D01*
G01*
X103290000Y-134886000D01*
G75*
G02*
X103239000Y-134835000I0J51000D01*
G01*
X103239000Y-133135000D01*
G75*
G02*
X103290000Y-133084000I51000J0D01*
G01*
G37*
D12*
X101600000Y-133985000D03*
X99060000Y-133985000D03*
X96520000Y-133985000D03*
X93980000Y-133985000D03*
X91440000Y-133985000D03*
X88900000Y-133985000D03*
G36*
G01*
X130595000Y-133084000D02*
X132295000Y-133084000D01*
G75*
G02*
X132346000Y-133135000I0J-51000D01*
G01*
X132346000Y-134835000D01*
G75*
G02*
X132295000Y-134886000I-51000J0D01*
G01*
X130595000Y-134886000D01*
G75*
G02*
X130544000Y-134835000I0J51000D01*
G01*
X130544000Y-133135000D01*
G75*
G02*
X130595000Y-133084000I51000J0D01*
G01*
G37*
X128905000Y-133985000D03*
X126365000Y-133985000D03*
X123825000Y-133985000D03*
X121285000Y-133985000D03*
X118745000Y-133985000D03*
X116205000Y-133985000D03*
X113665000Y-133985000D03*
X111125000Y-133985000D03*
X108585000Y-133985000D03*
X143510000Y-56515000D03*
X146050000Y-56515000D03*
X148590000Y-56515000D03*
X151130000Y-56515000D03*
X153670000Y-56515000D03*
G36*
G01*
X155360000Y-55614000D02*
X157060000Y-55614000D01*
G75*
G02*
X157111000Y-55665000I0J-51000D01*
G01*
X157111000Y-57365000D01*
G75*
G02*
X157060000Y-57416000I-51000J0D01*
G01*
X155360000Y-57416000D01*
G75*
G02*
X155309000Y-57365000I0J51000D01*
G01*
X155309000Y-55665000D01*
G75*
G02*
X155360000Y-55614000I51000J0D01*
G01*
G37*
G36*
G01*
X155360000Y-35294000D02*
X157060000Y-35294000D01*
G75*
G02*
X157111000Y-35345000I0J-51000D01*
G01*
X157111000Y-37045000D01*
G75*
G02*
X157060000Y-37096000I-51000J0D01*
G01*
X155360000Y-37096000D01*
G75*
G02*
X155309000Y-37045000I0J51000D01*
G01*
X155309000Y-35345000D01*
G75*
G02*
X155360000Y-35294000I51000J0D01*
G01*
G37*
X153670000Y-36195000D03*
X151130000Y-36195000D03*
X148590000Y-36195000D03*
X146050000Y-36195000D03*
X143510000Y-36195000D03*
G36*
G01*
X129755000Y-37096000D02*
X128055000Y-37096000D01*
G75*
G02*
X128004000Y-37045000I0J51000D01*
G01*
X128004000Y-35345000D01*
G75*
G02*
X128055000Y-35294000I51000J0D01*
G01*
X129755000Y-35294000D01*
G75*
G02*
X129806000Y-35345000I0J-51000D01*
G01*
X129806000Y-37045000D01*
G75*
G02*
X129755000Y-37096000I-51000J0D01*
G01*
G37*
X131445000Y-36195000D03*
X133985000Y-36195000D03*
D10*
X83770000Y-119970000D03*
D11*
X81280000Y-121230000D03*
X81280000Y-125730000D03*
D10*
X83770000Y-126980000D03*
D17*
X89535000Y-105690000D03*
X89535000Y-110490000D03*
X89535000Y-115290000D03*
D18*
X118140000Y-38895000D03*
D13*
X121540000Y-45345000D03*
X114740000Y-45345000D03*
X121540000Y-42545000D03*
X114740000Y-42545000D03*
X119440000Y-42545000D03*
G36*
G01*
X117691000Y-41745000D02*
X117691000Y-43345000D01*
G75*
G02*
X117640000Y-43396000I-51000J0D01*
G01*
X116040000Y-43396000D01*
G75*
G02*
X115989000Y-43345000I0J51000D01*
G01*
X115989000Y-41745000D01*
G75*
G02*
X116040000Y-41694000I51000J0D01*
G01*
X117640000Y-41694000D01*
G75*
G02*
X117691000Y-41745000I0J-51000D01*
G01*
G37*
D19*
X111290000Y-39695000D03*
X124990000Y-39695000D03*
D20*
X97140000Y-43735000D03*
X99640000Y-43735000D03*
X101640000Y-43735000D03*
X104140000Y-43735000D03*
D21*
X94070000Y-41025000D03*
X107210000Y-41025000D03*
D20*
X97140000Y-46355000D03*
X99640000Y-46355000D03*
X101640000Y-46355000D03*
G36*
G01*
X104941000Y-45605000D02*
X104941000Y-47105000D01*
G75*
G02*
X104890000Y-47156000I-51000J0D01*
G01*
X103390000Y-47156000D01*
G75*
G02*
X103339000Y-47105000I0J51000D01*
G01*
X103339000Y-45605000D01*
G75*
G02*
X103390000Y-45554000I51000J0D01*
G01*
X104890000Y-45554000D01*
G75*
G02*
X104941000Y-45605000I0J-51000D01*
G01*
G37*
D21*
X107210000Y-46705000D03*
X94070000Y-46705000D03*
D22*
X166370000Y-116724000D03*
X166370000Y-102224000D03*
D23*
X160410000Y-116724000D03*
X160410000Y-102224000D03*
D24*
X166370000Y-37465000D03*
X82550000Y-37465000D03*
X82550000Y-132715000D03*
X166370000Y-132715000D03*
D12*
X167640000Y-121920000D03*
X167640000Y-124460000D03*
X165100000Y-121920000D03*
X165100000Y-124460000D03*
X162560000Y-121920000D03*
X162560000Y-124460000D03*
X160020000Y-121920000D03*
X160020000Y-124460000D03*
X157480000Y-121920000D03*
X157480000Y-124460000D03*
X154940000Y-121920000D03*
X154940000Y-124460000D03*
X152400000Y-121920000D03*
X152400000Y-124460000D03*
X149860000Y-121920000D03*
X149860000Y-124460000D03*
X147320000Y-121920000D03*
X147320000Y-124460000D03*
X144780000Y-121920000D03*
X144780000Y-124460000D03*
X142240000Y-121920000D03*
X142240000Y-124460000D03*
X139700000Y-121920000D03*
X139700000Y-124460000D03*
X137160000Y-121920000D03*
X137160000Y-124460000D03*
X134620000Y-121920000D03*
X134620000Y-124460000D03*
X132080000Y-121920000D03*
X132080000Y-124460000D03*
X129540000Y-121920000D03*
X129540000Y-124460000D03*
X127000000Y-121920000D03*
X127000000Y-124460000D03*
X124460000Y-121920000D03*
X124460000Y-124460000D03*
X121920000Y-121920000D03*
X121920000Y-124460000D03*
X119380000Y-121920000D03*
X119380000Y-124460000D03*
X116840000Y-121920000D03*
X116840000Y-124460000D03*
X114300000Y-121920000D03*
X114300000Y-124460000D03*
X111760000Y-121920000D03*
X111760000Y-124460000D03*
X109220000Y-121920000D03*
X109220000Y-124460000D03*
X106680000Y-121920000D03*
X106680000Y-124460000D03*
X104140000Y-121920000D03*
X104140000Y-124460000D03*
X101600000Y-121920000D03*
X101600000Y-124460000D03*
X99060000Y-121920000D03*
X99060000Y-124460000D03*
X96520000Y-121920000D03*
X96520000Y-124460000D03*
X93980000Y-121920000D03*
X93980000Y-124460000D03*
X91440000Y-121920000D03*
X91440000Y-124460000D03*
X88900000Y-121920000D03*
G36*
G01*
X89750000Y-125361000D02*
X88050000Y-125361000D01*
G75*
G02*
X87999000Y-125310000I0J51000D01*
G01*
X87999000Y-123610000D01*
G75*
G02*
X88050000Y-123559000I51000J0D01*
G01*
X89750000Y-123559000D01*
G75*
G02*
X89801000Y-123610000I0J-51000D01*
G01*
X89801000Y-125310000D01*
G75*
G02*
X89750000Y-125361000I-51000J0D01*
G01*
G37*
G36*
G01*
X89750000Y-64401000D02*
X88050000Y-64401000D01*
G75*
G02*
X87999000Y-64350000I0J51000D01*
G01*
X87999000Y-62650000D01*
G75*
G02*
X88050000Y-62599000I51000J0D01*
G01*
X89750000Y-62599000D01*
G75*
G02*
X89801000Y-62650000I0J-51000D01*
G01*
X89801000Y-64350000D01*
G75*
G02*
X89750000Y-64401000I-51000J0D01*
G01*
G37*
X88900000Y-60960000D03*
X91440000Y-63500000D03*
X91440000Y-60960000D03*
X93980000Y-63500000D03*
X93980000Y-60960000D03*
X96520000Y-63500000D03*
X96520000Y-60960000D03*
X99060000Y-63500000D03*
X99060000Y-60960000D03*
X101600000Y-63500000D03*
X101600000Y-60960000D03*
X104140000Y-63500000D03*
X104140000Y-60960000D03*
X106680000Y-63500000D03*
X106680000Y-60960000D03*
X109220000Y-63500000D03*
X109220000Y-60960000D03*
X111760000Y-63500000D03*
X111760000Y-60960000D03*
X114300000Y-63500000D03*
X114300000Y-60960000D03*
X116840000Y-63500000D03*
X116840000Y-60960000D03*
X119380000Y-63500000D03*
X119380000Y-60960000D03*
X121920000Y-63500000D03*
X121920000Y-60960000D03*
X124460000Y-63500000D03*
X124460000Y-60960000D03*
X127000000Y-63500000D03*
X127000000Y-60960000D03*
X129540000Y-63500000D03*
X129540000Y-60960000D03*
X132080000Y-63500000D03*
X132080000Y-60960000D03*
X134620000Y-63500000D03*
X134620000Y-60960000D03*
X137160000Y-63500000D03*
X137160000Y-60960000D03*
X139700000Y-63500000D03*
X139700000Y-60960000D03*
X142240000Y-63500000D03*
X142240000Y-60960000D03*
X144780000Y-63500000D03*
X144780000Y-60960000D03*
X147320000Y-63500000D03*
X147320000Y-60960000D03*
X149860000Y-63500000D03*
X149860000Y-60960000D03*
X152400000Y-63500000D03*
X152400000Y-60960000D03*
X154940000Y-63500000D03*
X154940000Y-60960000D03*
X157480000Y-63500000D03*
X157480000Y-60960000D03*
X160020000Y-63500000D03*
X160020000Y-60960000D03*
X162560000Y-63500000D03*
X162560000Y-60960000D03*
X165100000Y-63500000D03*
X165100000Y-60960000D03*
X167640000Y-63500000D03*
X167640000Y-60960000D03*
G36*
G01*
X123016500Y-43684298D02*
X123016500Y-42675702D01*
G75*
G02*
X123288202Y-42404000I271702J0D01*
G01*
X124021798Y-42404000D01*
G75*
G02*
X124293500Y-42675702I0J-271702D01*
G01*
X124293500Y-43684298D01*
G75*
G02*
X124021798Y-43956000I-271702J0D01*
G01*
X123288202Y-43956000D01*
G75*
G02*
X123016500Y-43684298I0J271702D01*
G01*
G37*
G36*
G01*
X125091500Y-43684298D02*
X125091500Y-42675702D01*
G75*
G02*
X125363202Y-42404000I271702J0D01*
G01*
X126096798Y-42404000D01*
G75*
G02*
X126368500Y-42675702I0J-271702D01*
G01*
X126368500Y-43684298D01*
G75*
G02*
X126096798Y-43956000I-271702J0D01*
G01*
X125363202Y-43956000D01*
G75*
G02*
X125091500Y-43684298I0J271702D01*
G01*
G37*
G36*
G01*
X103501500Y-41906298D02*
X103501500Y-40897702D01*
G75*
G02*
X103773202Y-40626000I271702J0D01*
G01*
X104506798Y-40626000D01*
G75*
G02*
X104778500Y-40897702I0J-271702D01*
G01*
X104778500Y-41906298D01*
G75*
G02*
X104506798Y-42178000I-271702J0D01*
G01*
X103773202Y-42178000D01*
G75*
G02*
X103501500Y-41906298I0J271702D01*
G01*
G37*
G36*
G01*
X101426500Y-41906298D02*
X101426500Y-40897702D01*
G75*
G02*
X101698202Y-40626000I271702J0D01*
G01*
X102431798Y-40626000D01*
G75*
G02*
X102703500Y-40897702I0J-271702D01*
G01*
X102703500Y-41906298D01*
G75*
G02*
X102431798Y-42178000I-271702J0D01*
G01*
X101698202Y-42178000D01*
G75*
G02*
X101426500Y-41906298I0J271702D01*
G01*
G37*
G36*
G01*
X164694000Y-127504298D02*
X164694000Y-126495702D01*
G75*
G02*
X164965702Y-126224000I271702J0D01*
G01*
X165699298Y-126224000D01*
G75*
G02*
X165971000Y-126495702I0J-271702D01*
G01*
X165971000Y-127504298D01*
G75*
G02*
X165699298Y-127776000I-271702J0D01*
G01*
X164965702Y-127776000D01*
G75*
G02*
X164694000Y-127504298I0J271702D01*
G01*
G37*
G36*
G01*
X166769000Y-127504298D02*
X166769000Y-126495702D01*
G75*
G02*
X167040702Y-126224000I271702J0D01*
G01*
X167774298Y-126224000D01*
G75*
G02*
X168046000Y-126495702I0J-271702D01*
G01*
X168046000Y-127504298D01*
G75*
G02*
X167774298Y-127776000I-271702J0D01*
G01*
X167040702Y-127776000D01*
G75*
G02*
X166769000Y-127504298I0J271702D01*
G01*
G37*
D25*
X166012000Y-87535000D03*
X166012000Y-91535000D03*
D26*
X168362000Y-86235000D03*
X168362000Y-92835000D03*
G36*
G01*
X116285000Y-50126000D02*
X115485000Y-50126000D01*
G75*
G02*
X115434000Y-50075000I0J51000D01*
G01*
X115434000Y-49175000D01*
G75*
G02*
X115485000Y-49124000I51000J0D01*
G01*
X116285000Y-49124000D01*
G75*
G02*
X116336000Y-49175000I0J-51000D01*
G01*
X116336000Y-50075000D01*
G75*
G02*
X116285000Y-50126000I-51000J0D01*
G01*
G37*
G36*
G01*
X114385000Y-50126000D02*
X113585000Y-50126000D01*
G75*
G02*
X113534000Y-50075000I0J51000D01*
G01*
X113534000Y-49175000D01*
G75*
G02*
X113585000Y-49124000I51000J0D01*
G01*
X114385000Y-49124000D01*
G75*
G02*
X114436000Y-49175000I0J-51000D01*
G01*
X114436000Y-50075000D01*
G75*
G02*
X114385000Y-50126000I-51000J0D01*
G01*
G37*
G36*
G01*
X115335000Y-48126000D02*
X114535000Y-48126000D01*
G75*
G02*
X114484000Y-48075000I0J51000D01*
G01*
X114484000Y-47175000D01*
G75*
G02*
X114535000Y-47124000I51000J0D01*
G01*
X115335000Y-47124000D01*
G75*
G02*
X115386000Y-47175000I0J-51000D01*
G01*
X115386000Y-48075000D01*
G75*
G02*
X115335000Y-48126000I-51000J0D01*
G01*
G37*
G36*
G01*
X122955000Y-48126000D02*
X122155000Y-48126000D01*
G75*
G02*
X122104000Y-48075000I0J51000D01*
G01*
X122104000Y-47175000D01*
G75*
G02*
X122155000Y-47124000I51000J0D01*
G01*
X122955000Y-47124000D01*
G75*
G02*
X123006000Y-47175000I0J-51000D01*
G01*
X123006000Y-48075000D01*
G75*
G02*
X122955000Y-48126000I-51000J0D01*
G01*
G37*
G36*
G01*
X122005000Y-50126000D02*
X121205000Y-50126000D01*
G75*
G02*
X121154000Y-50075000I0J51000D01*
G01*
X121154000Y-49175000D01*
G75*
G02*
X121205000Y-49124000I51000J0D01*
G01*
X122005000Y-49124000D01*
G75*
G02*
X122056000Y-49175000I0J-51000D01*
G01*
X122056000Y-50075000D01*
G75*
G02*
X122005000Y-50126000I-51000J0D01*
G01*
G37*
G36*
G01*
X123905000Y-50126000D02*
X123105000Y-50126000D01*
G75*
G02*
X123054000Y-50075000I0J51000D01*
G01*
X123054000Y-49175000D01*
G75*
G02*
X123105000Y-49124000I51000J0D01*
G01*
X123905000Y-49124000D01*
G75*
G02*
X123956000Y-49175000I0J-51000D01*
G01*
X123956000Y-50075000D01*
G75*
G02*
X123905000Y-50126000I-51000J0D01*
G01*
G37*
G36*
G01*
X85804000Y-72234752D02*
X85804000Y-71275248D01*
G75*
G02*
X86075248Y-71004000I271248J0D01*
G01*
X86834752Y-71004000D01*
G75*
G02*
X87106000Y-71275248I0J-271248D01*
G01*
X87106000Y-72234752D01*
G75*
G02*
X86834752Y-72506000I-271248J0D01*
G01*
X86075248Y-72506000D01*
G75*
G02*
X85804000Y-72234752I0J271248D01*
G01*
G37*
G36*
G01*
X83804000Y-72234752D02*
X83804000Y-71275248D01*
G75*
G02*
X84075248Y-71004000I271248J0D01*
G01*
X84834752Y-71004000D01*
G75*
G02*
X85106000Y-71275248I0J-271248D01*
G01*
X85106000Y-72234752D01*
G75*
G02*
X84834752Y-72506000I-271248J0D01*
G01*
X84075248Y-72506000D01*
G75*
G02*
X83804000Y-72234752I0J271248D01*
G01*
G37*
G36*
G01*
X83804000Y-90014752D02*
X83804000Y-89055248D01*
G75*
G02*
X84075248Y-88784000I271248J0D01*
G01*
X84834752Y-88784000D01*
G75*
G02*
X85106000Y-89055248I0J-271248D01*
G01*
X85106000Y-90014752D01*
G75*
G02*
X84834752Y-90286000I-271248J0D01*
G01*
X84075248Y-90286000D01*
G75*
G02*
X83804000Y-90014752I0J271248D01*
G01*
G37*
G36*
G01*
X85804000Y-90014752D02*
X85804000Y-89055248D01*
G75*
G02*
X86075248Y-88784000I271248J0D01*
G01*
X86834752Y-88784000D01*
G75*
G02*
X87106000Y-89055248I0J-271248D01*
G01*
X87106000Y-90014752D01*
G75*
G02*
X86834752Y-90286000I-271248J0D01*
G01*
X86075248Y-90286000D01*
G75*
G02*
X85804000Y-90014752I0J271248D01*
G01*
G37*
G36*
G01*
X113820248Y-37354000D02*
X114779752Y-37354000D01*
G75*
G02*
X115051000Y-37625248I0J-271248D01*
G01*
X115051000Y-38384752D01*
G75*
G02*
X114779752Y-38656000I-271248J0D01*
G01*
X113820248Y-38656000D01*
G75*
G02*
X113549000Y-38384752I0J271248D01*
G01*
X113549000Y-37625248D01*
G75*
G02*
X113820248Y-37354000I271248J0D01*
G01*
G37*
G36*
G01*
X113820248Y-39354000D02*
X114779752Y-39354000D01*
G75*
G02*
X115051000Y-39625248I0J-271248D01*
G01*
X115051000Y-40384752D01*
G75*
G02*
X114779752Y-40656000I-271248J0D01*
G01*
X113820248Y-40656000D01*
G75*
G02*
X113549000Y-40384752I0J271248D01*
G01*
X113549000Y-39625248D01*
G75*
G02*
X113820248Y-39354000I271248J0D01*
G01*
G37*
G36*
G01*
X121440248Y-39354000D02*
X122399752Y-39354000D01*
G75*
G02*
X122671000Y-39625248I0J-271248D01*
G01*
X122671000Y-40384752D01*
G75*
G02*
X122399752Y-40656000I-271248J0D01*
G01*
X121440248Y-40656000D01*
G75*
G02*
X121169000Y-40384752I0J271248D01*
G01*
X121169000Y-39625248D01*
G75*
G02*
X121440248Y-39354000I271248J0D01*
G01*
G37*
G36*
G01*
X121440248Y-37354000D02*
X122399752Y-37354000D01*
G75*
G02*
X122671000Y-37625248I0J-271248D01*
G01*
X122671000Y-38384752D01*
G75*
G02*
X122399752Y-38656000I-271248J0D01*
G01*
X121440248Y-38656000D01*
G75*
G02*
X121169000Y-38384752I0J271248D01*
G01*
X121169000Y-37625248D01*
G75*
G02*
X121440248Y-37354000I271248J0D01*
G01*
G37*
G36*
G01*
X84376000Y-50955248D02*
X84376000Y-51914752D01*
G75*
G02*
X84104752Y-52186000I-271248J0D01*
G01*
X83345248Y-52186000D01*
G75*
G02*
X83074000Y-51914752I0J271248D01*
G01*
X83074000Y-50955248D01*
G75*
G02*
X83345248Y-50684000I271248J0D01*
G01*
X84104752Y-50684000D01*
G75*
G02*
X84376000Y-50955248I0J-271248D01*
G01*
G37*
G36*
G01*
X86376000Y-50955248D02*
X86376000Y-51914752D01*
G75*
G02*
X86104752Y-52186000I-271248J0D01*
G01*
X85345248Y-52186000D01*
G75*
G02*
X85074000Y-51914752I0J271248D01*
G01*
X85074000Y-50955248D01*
G75*
G02*
X85345248Y-50684000I271248J0D01*
G01*
X86104752Y-50684000D01*
G75*
G02*
X86376000Y-50955248I0J-271248D01*
G01*
G37*
G36*
G01*
X83340248Y-60849000D02*
X84299752Y-60849000D01*
G75*
G02*
X84571000Y-61120248I0J-271248D01*
G01*
X84571000Y-61879752D01*
G75*
G02*
X84299752Y-62151000I-271248J0D01*
G01*
X83340248Y-62151000D01*
G75*
G02*
X83069000Y-61879752I0J271248D01*
G01*
X83069000Y-61120248D01*
G75*
G02*
X83340248Y-60849000I271248J0D01*
G01*
G37*
G36*
G01*
X83340248Y-62849000D02*
X84299752Y-62849000D01*
G75*
G02*
X84571000Y-63120248I0J-271248D01*
G01*
X84571000Y-63879752D01*
G75*
G02*
X84299752Y-64151000I-271248J0D01*
G01*
X83340248Y-64151000D01*
G75*
G02*
X83069000Y-63879752I0J271248D01*
G01*
X83069000Y-63120248D01*
G75*
G02*
X83340248Y-62849000I271248J0D01*
G01*
G37*
G36*
G01*
X86376000Y-48415248D02*
X86376000Y-49374752D01*
G75*
G02*
X86104752Y-49646000I-271248J0D01*
G01*
X85345248Y-49646000D01*
G75*
G02*
X85074000Y-49374752I0J271248D01*
G01*
X85074000Y-48415248D01*
G75*
G02*
X85345248Y-48144000I271248J0D01*
G01*
X86104752Y-48144000D01*
G75*
G02*
X86376000Y-48415248I0J-271248D01*
G01*
G37*
G36*
G01*
X84376000Y-48415248D02*
X84376000Y-49374752D01*
G75*
G02*
X84104752Y-49646000I-271248J0D01*
G01*
X83345248Y-49646000D01*
G75*
G02*
X83074000Y-49374752I0J271248D01*
G01*
X83074000Y-48415248D01*
G75*
G02*
X83345248Y-48144000I271248J0D01*
G01*
X84104752Y-48144000D01*
G75*
G02*
X84376000Y-48415248I0J-271248D01*
G01*
G37*
G36*
G01*
X110645248Y-48974000D02*
X111604752Y-48974000D01*
G75*
G02*
X111876000Y-49245248I0J-271248D01*
G01*
X111876000Y-50004752D01*
G75*
G02*
X111604752Y-50276000I-271248J0D01*
G01*
X110645248Y-50276000D01*
G75*
G02*
X110374000Y-50004752I0J271248D01*
G01*
X110374000Y-49245248D01*
G75*
G02*
X110645248Y-48974000I271248J0D01*
G01*
G37*
G36*
G01*
X110645248Y-46974000D02*
X111604752Y-46974000D01*
G75*
G02*
X111876000Y-47245248I0J-271248D01*
G01*
X111876000Y-48004752D01*
G75*
G02*
X111604752Y-48276000I-271248J0D01*
G01*
X110645248Y-48276000D01*
G75*
G02*
X110374000Y-48004752I0J271248D01*
G01*
X110374000Y-47245248D01*
G75*
G02*
X110645248Y-46974000I271248J0D01*
G01*
G37*
G36*
G01*
X118265248Y-46974000D02*
X119224752Y-46974000D01*
G75*
G02*
X119496000Y-47245248I0J-271248D01*
G01*
X119496000Y-48004752D01*
G75*
G02*
X119224752Y-48276000I-271248J0D01*
G01*
X118265248Y-48276000D01*
G75*
G02*
X117994000Y-48004752I0J271248D01*
G01*
X117994000Y-47245248D01*
G75*
G02*
X118265248Y-46974000I271248J0D01*
G01*
G37*
G36*
G01*
X118265248Y-48974000D02*
X119224752Y-48974000D01*
G75*
G02*
X119496000Y-49245248I0J-271248D01*
G01*
X119496000Y-50004752D01*
G75*
G02*
X119224752Y-50276000I-271248J0D01*
G01*
X118265248Y-50276000D01*
G75*
G02*
X117994000Y-50004752I0J271248D01*
G01*
X117994000Y-49245248D01*
G75*
G02*
X118265248Y-48974000I271248J0D01*
G01*
G37*
G36*
G01*
X85804000Y-84934752D02*
X85804000Y-83975248D01*
G75*
G02*
X86075248Y-83704000I271248J0D01*
G01*
X86834752Y-83704000D01*
G75*
G02*
X87106000Y-83975248I0J-271248D01*
G01*
X87106000Y-84934752D01*
G75*
G02*
X86834752Y-85206000I-271248J0D01*
G01*
X86075248Y-85206000D01*
G75*
G02*
X85804000Y-84934752I0J271248D01*
G01*
G37*
G36*
G01*
X83804000Y-84934752D02*
X83804000Y-83975248D01*
G75*
G02*
X84075248Y-83704000I271248J0D01*
G01*
X84834752Y-83704000D01*
G75*
G02*
X85106000Y-83975248I0J-271248D01*
G01*
X85106000Y-84934752D01*
G75*
G02*
X84834752Y-85206000I-271248J0D01*
G01*
X84075248Y-85206000D01*
G75*
G02*
X83804000Y-84934752I0J271248D01*
G01*
G37*
G36*
G01*
X84376000Y-45875248D02*
X84376000Y-46834752D01*
G75*
G02*
X84104752Y-47106000I-271248J0D01*
G01*
X83345248Y-47106000D01*
G75*
G02*
X83074000Y-46834752I0J271248D01*
G01*
X83074000Y-45875248D01*
G75*
G02*
X83345248Y-45604000I271248J0D01*
G01*
X84104752Y-45604000D01*
G75*
G02*
X84376000Y-45875248I0J-271248D01*
G01*
G37*
G36*
G01*
X86376000Y-45875248D02*
X86376000Y-46834752D01*
G75*
G02*
X86104752Y-47106000I-271248J0D01*
G01*
X85345248Y-47106000D01*
G75*
G02*
X85074000Y-46834752I0J271248D01*
G01*
X85074000Y-45875248D01*
G75*
G02*
X85345248Y-45604000I271248J0D01*
G01*
X86104752Y-45604000D01*
G75*
G02*
X86376000Y-45875248I0J-271248D01*
G01*
G37*
G36*
G01*
X83804000Y-79854752D02*
X83804000Y-78895248D01*
G75*
G02*
X84075248Y-78624000I271248J0D01*
G01*
X84834752Y-78624000D01*
G75*
G02*
X85106000Y-78895248I0J-271248D01*
G01*
X85106000Y-79854752D01*
G75*
G02*
X84834752Y-80126000I-271248J0D01*
G01*
X84075248Y-80126000D01*
G75*
G02*
X83804000Y-79854752I0J271248D01*
G01*
G37*
G36*
G01*
X85804000Y-79854752D02*
X85804000Y-78895248D01*
G75*
G02*
X86075248Y-78624000I271248J0D01*
G01*
X86834752Y-78624000D01*
G75*
G02*
X87106000Y-78895248I0J-271248D01*
G01*
X87106000Y-79854752D01*
G75*
G02*
X86834752Y-80126000I-271248J0D01*
G01*
X86075248Y-80126000D01*
G75*
G02*
X85804000Y-79854752I0J271248D01*
G01*
G37*
G36*
G01*
X86376000Y-43335248D02*
X86376000Y-44294752D01*
G75*
G02*
X86104752Y-44566000I-271248J0D01*
G01*
X85345248Y-44566000D01*
G75*
G02*
X85074000Y-44294752I0J271248D01*
G01*
X85074000Y-43335248D01*
G75*
G02*
X85345248Y-43064000I271248J0D01*
G01*
X86104752Y-43064000D01*
G75*
G02*
X86376000Y-43335248I0J-271248D01*
G01*
G37*
G36*
G01*
X84376000Y-43335248D02*
X84376000Y-44294752D01*
G75*
G02*
X84104752Y-44566000I-271248J0D01*
G01*
X83345248Y-44566000D01*
G75*
G02*
X83074000Y-44294752I0J271248D01*
G01*
X83074000Y-43335248D01*
G75*
G02*
X83345248Y-43064000I271248J0D01*
G01*
X84104752Y-43064000D01*
G75*
G02*
X84376000Y-43335248I0J-271248D01*
G01*
G37*
G36*
G01*
X83340248Y-121809000D02*
X84299752Y-121809000D01*
G75*
G02*
X84571000Y-122080248I0J-271248D01*
G01*
X84571000Y-122839752D01*
G75*
G02*
X84299752Y-123111000I-271248J0D01*
G01*
X83340248Y-123111000D01*
G75*
G02*
X83069000Y-122839752I0J271248D01*
G01*
X83069000Y-122080248D01*
G75*
G02*
X83340248Y-121809000I271248J0D01*
G01*
G37*
G36*
G01*
X83340248Y-123809000D02*
X84299752Y-123809000D01*
G75*
G02*
X84571000Y-124080248I0J-271248D01*
G01*
X84571000Y-124839752D01*
G75*
G02*
X84299752Y-125111000I-271248J0D01*
G01*
X83340248Y-125111000D01*
G75*
G02*
X83069000Y-124839752I0J271248D01*
G01*
X83069000Y-124080248D01*
G75*
G02*
X83340248Y-123809000I271248J0D01*
G01*
G37*
G36*
G01*
X92173752Y-52816000D02*
X91214248Y-52816000D01*
G75*
G02*
X90943000Y-52544752I0J271248D01*
G01*
X90943000Y-51785248D01*
G75*
G02*
X91214248Y-51514000I271248J0D01*
G01*
X92173752Y-51514000D01*
G75*
G02*
X92445000Y-51785248I0J-271248D01*
G01*
X92445000Y-52544752D01*
G75*
G02*
X92173752Y-52816000I-271248J0D01*
G01*
G37*
G36*
G01*
X92173752Y-50816000D02*
X91214248Y-50816000D01*
G75*
G02*
X90943000Y-50544752I0J271248D01*
G01*
X90943000Y-49785248D01*
G75*
G02*
X91214248Y-49514000I271248J0D01*
G01*
X92173752Y-49514000D01*
G75*
G02*
X92445000Y-49785248I0J-271248D01*
G01*
X92445000Y-50544752D01*
G75*
G02*
X92173752Y-50816000I-271248J0D01*
G01*
G37*
G36*
G01*
X85804000Y-82394752D02*
X85804000Y-81435248D01*
G75*
G02*
X86075248Y-81164000I271248J0D01*
G01*
X86834752Y-81164000D01*
G75*
G02*
X87106000Y-81435248I0J-271248D01*
G01*
X87106000Y-82394752D01*
G75*
G02*
X86834752Y-82666000I-271248J0D01*
G01*
X86075248Y-82666000D01*
G75*
G02*
X85804000Y-82394752I0J271248D01*
G01*
G37*
G36*
G01*
X83804000Y-82394752D02*
X83804000Y-81435248D01*
G75*
G02*
X84075248Y-81164000I271248J0D01*
G01*
X84834752Y-81164000D01*
G75*
G02*
X85106000Y-81435248I0J-271248D01*
G01*
X85106000Y-82394752D01*
G75*
G02*
X84834752Y-82666000I-271248J0D01*
G01*
X84075248Y-82666000D01*
G75*
G02*
X83804000Y-82394752I0J271248D01*
G01*
G37*
G36*
G01*
X89633752Y-50832000D02*
X88674248Y-50832000D01*
G75*
G02*
X88403000Y-50560752I0J271248D01*
G01*
X88403000Y-49801248D01*
G75*
G02*
X88674248Y-49530000I271248J0D01*
G01*
X89633752Y-49530000D01*
G75*
G02*
X89905000Y-49801248I0J-271248D01*
G01*
X89905000Y-50560752D01*
G75*
G02*
X89633752Y-50832000I-271248J0D01*
G01*
G37*
G36*
G01*
X89633752Y-52832000D02*
X88674248Y-52832000D01*
G75*
G02*
X88403000Y-52560752I0J271248D01*
G01*
X88403000Y-51801248D01*
G75*
G02*
X88674248Y-51530000I271248J0D01*
G01*
X89633752Y-51530000D01*
G75*
G02*
X89905000Y-51801248I0J-271248D01*
G01*
X89905000Y-52560752D01*
G75*
G02*
X89633752Y-52832000I-271248J0D01*
G01*
G37*
G36*
G01*
X106778752Y-55356000D02*
X105819248Y-55356000D01*
G75*
G02*
X105548000Y-55084752I0J271248D01*
G01*
X105548000Y-54325248D01*
G75*
G02*
X105819248Y-54054000I271248J0D01*
G01*
X106778752Y-54054000D01*
G75*
G02*
X107050000Y-54325248I0J-271248D01*
G01*
X107050000Y-55084752D01*
G75*
G02*
X106778752Y-55356000I-271248J0D01*
G01*
G37*
G36*
G01*
X106778752Y-53356000D02*
X105819248Y-53356000D01*
G75*
G02*
X105548000Y-53084752I0J271248D01*
G01*
X105548000Y-52325248D01*
G75*
G02*
X105819248Y-52054000I271248J0D01*
G01*
X106778752Y-52054000D01*
G75*
G02*
X107050000Y-52325248I0J-271248D01*
G01*
X107050000Y-53084752D01*
G75*
G02*
X106778752Y-53356000I-271248J0D01*
G01*
G37*
G36*
G01*
X109318752Y-55356000D02*
X108359248Y-55356000D01*
G75*
G02*
X108088000Y-55084752I0J271248D01*
G01*
X108088000Y-54325248D01*
G75*
G02*
X108359248Y-54054000I271248J0D01*
G01*
X109318752Y-54054000D01*
G75*
G02*
X109590000Y-54325248I0J-271248D01*
G01*
X109590000Y-55084752D01*
G75*
G02*
X109318752Y-55356000I-271248J0D01*
G01*
G37*
G36*
G01*
X109318752Y-53356000D02*
X108359248Y-53356000D01*
G75*
G02*
X108088000Y-53084752I0J271248D01*
G01*
X108088000Y-52325248D01*
G75*
G02*
X108359248Y-52054000I271248J0D01*
G01*
X109318752Y-52054000D01*
G75*
G02*
X109590000Y-52325248I0J-271248D01*
G01*
X109590000Y-53084752D01*
G75*
G02*
X109318752Y-53356000I-271248J0D01*
G01*
G37*
G36*
G01*
X83804000Y-100174752D02*
X83804000Y-99215248D01*
G75*
G02*
X84075248Y-98944000I271248J0D01*
G01*
X84834752Y-98944000D01*
G75*
G02*
X85106000Y-99215248I0J-271248D01*
G01*
X85106000Y-100174752D01*
G75*
G02*
X84834752Y-100446000I-271248J0D01*
G01*
X84075248Y-100446000D01*
G75*
G02*
X83804000Y-100174752I0J271248D01*
G01*
G37*
G36*
G01*
X85804000Y-100174752D02*
X85804000Y-99215248D01*
G75*
G02*
X86075248Y-98944000I271248J0D01*
G01*
X86834752Y-98944000D01*
G75*
G02*
X87106000Y-99215248I0J-271248D01*
G01*
X87106000Y-100174752D01*
G75*
G02*
X86834752Y-100446000I-271248J0D01*
G01*
X86075248Y-100446000D01*
G75*
G02*
X85804000Y-100174752I0J271248D01*
G01*
G37*
G36*
G01*
X85804000Y-92554752D02*
X85804000Y-91595248D01*
G75*
G02*
X86075248Y-91324000I271248J0D01*
G01*
X86834752Y-91324000D01*
G75*
G02*
X87106000Y-91595248I0J-271248D01*
G01*
X87106000Y-92554752D01*
G75*
G02*
X86834752Y-92826000I-271248J0D01*
G01*
X86075248Y-92826000D01*
G75*
G02*
X85804000Y-92554752I0J271248D01*
G01*
G37*
G36*
G01*
X83804000Y-92554752D02*
X83804000Y-91595248D01*
G75*
G02*
X84075248Y-91324000I271248J0D01*
G01*
X84834752Y-91324000D01*
G75*
G02*
X85106000Y-91595248I0J-271248D01*
G01*
X85106000Y-92554752D01*
G75*
G02*
X84834752Y-92826000I-271248J0D01*
G01*
X84075248Y-92826000D01*
G75*
G02*
X83804000Y-92554752I0J271248D01*
G01*
G37*
G36*
G01*
X132096000Y-38890248D02*
X132096000Y-39849752D01*
G75*
G02*
X131824752Y-40121000I-271248J0D01*
G01*
X131065248Y-40121000D01*
G75*
G02*
X130794000Y-39849752I0J271248D01*
G01*
X130794000Y-38890248D01*
G75*
G02*
X131065248Y-38619000I271248J0D01*
G01*
X131824752Y-38619000D01*
G75*
G02*
X132096000Y-38890248I0J-271248D01*
G01*
G37*
G36*
G01*
X130096000Y-38890248D02*
X130096000Y-39849752D01*
G75*
G02*
X129824752Y-40121000I-271248J0D01*
G01*
X129065248Y-40121000D01*
G75*
G02*
X128794000Y-39849752I0J271248D01*
G01*
X128794000Y-38890248D01*
G75*
G02*
X129065248Y-38619000I271248J0D01*
G01*
X129824752Y-38619000D01*
G75*
G02*
X130096000Y-38890248I0J-271248D01*
G01*
G37*
G36*
G01*
X135334000Y-39849752D02*
X135334000Y-38890248D01*
G75*
G02*
X135605248Y-38619000I271248J0D01*
G01*
X136364752Y-38619000D01*
G75*
G02*
X136636000Y-38890248I0J-271248D01*
G01*
X136636000Y-39849752D01*
G75*
G02*
X136364752Y-40121000I-271248J0D01*
G01*
X135605248Y-40121000D01*
G75*
G02*
X135334000Y-39849752I0J271248D01*
G01*
G37*
G36*
G01*
X133334000Y-39849752D02*
X133334000Y-38890248D01*
G75*
G02*
X133605248Y-38619000I271248J0D01*
G01*
X134364752Y-38619000D01*
G75*
G02*
X134636000Y-38890248I0J-271248D01*
G01*
X134636000Y-39849752D01*
G75*
G02*
X134364752Y-40121000I-271248J0D01*
G01*
X133605248Y-40121000D01*
G75*
G02*
X133334000Y-39849752I0J271248D01*
G01*
G37*
G36*
G01*
X83804000Y-87474752D02*
X83804000Y-86515248D01*
G75*
G02*
X84075248Y-86244000I271248J0D01*
G01*
X84834752Y-86244000D01*
G75*
G02*
X85106000Y-86515248I0J-271248D01*
G01*
X85106000Y-87474752D01*
G75*
G02*
X84834752Y-87746000I-271248J0D01*
G01*
X84075248Y-87746000D01*
G75*
G02*
X83804000Y-87474752I0J271248D01*
G01*
G37*
G36*
G01*
X85804000Y-87474752D02*
X85804000Y-86515248D01*
G75*
G02*
X86075248Y-86244000I271248J0D01*
G01*
X86834752Y-86244000D01*
G75*
G02*
X87106000Y-86515248I0J-271248D01*
G01*
X87106000Y-87474752D01*
G75*
G02*
X86834752Y-87746000I-271248J0D01*
G01*
X86075248Y-87746000D01*
G75*
G02*
X85804000Y-87474752I0J271248D01*
G01*
G37*
G36*
G01*
X85804000Y-95094752D02*
X85804000Y-94135248D01*
G75*
G02*
X86075248Y-93864000I271248J0D01*
G01*
X86834752Y-93864000D01*
G75*
G02*
X87106000Y-94135248I0J-271248D01*
G01*
X87106000Y-95094752D01*
G75*
G02*
X86834752Y-95366000I-271248J0D01*
G01*
X86075248Y-95366000D01*
G75*
G02*
X85804000Y-95094752I0J271248D01*
G01*
G37*
G36*
G01*
X83804000Y-95094752D02*
X83804000Y-94135248D01*
G75*
G02*
X84075248Y-93864000I271248J0D01*
G01*
X84834752Y-93864000D01*
G75*
G02*
X85106000Y-94135248I0J-271248D01*
G01*
X85106000Y-95094752D01*
G75*
G02*
X84834752Y-95366000I-271248J0D01*
G01*
X84075248Y-95366000D01*
G75*
G02*
X83804000Y-95094752I0J271248D01*
G01*
G37*
G36*
G01*
X83804000Y-97634752D02*
X83804000Y-96675248D01*
G75*
G02*
X84075248Y-96404000I271248J0D01*
G01*
X84834752Y-96404000D01*
G75*
G02*
X85106000Y-96675248I0J-271248D01*
G01*
X85106000Y-97634752D01*
G75*
G02*
X84834752Y-97906000I-271248J0D01*
G01*
X84075248Y-97906000D01*
G75*
G02*
X83804000Y-97634752I0J271248D01*
G01*
G37*
G36*
G01*
X85804000Y-97634752D02*
X85804000Y-96675248D01*
G75*
G02*
X86075248Y-96404000I271248J0D01*
G01*
X86834752Y-96404000D01*
G75*
G02*
X87106000Y-96675248I0J-271248D01*
G01*
X87106000Y-97634752D01*
G75*
G02*
X86834752Y-97906000I-271248J0D01*
G01*
X86075248Y-97906000D01*
G75*
G02*
X85804000Y-97634752I0J271248D01*
G01*
G37*
G36*
G01*
X83804000Y-77314752D02*
X83804000Y-76355248D01*
G75*
G02*
X84075248Y-76084000I271248J0D01*
G01*
X84834752Y-76084000D01*
G75*
G02*
X85106000Y-76355248I0J-271248D01*
G01*
X85106000Y-77314752D01*
G75*
G02*
X84834752Y-77586000I-271248J0D01*
G01*
X84075248Y-77586000D01*
G75*
G02*
X83804000Y-77314752I0J271248D01*
G01*
G37*
G36*
G01*
X85804000Y-77314752D02*
X85804000Y-76355248D01*
G75*
G02*
X86075248Y-76084000I271248J0D01*
G01*
X86834752Y-76084000D01*
G75*
G02*
X87106000Y-76355248I0J-271248D01*
G01*
X87106000Y-77314752D01*
G75*
G02*
X86834752Y-77586000I-271248J0D01*
G01*
X86075248Y-77586000D01*
G75*
G02*
X85804000Y-77314752I0J271248D01*
G01*
G37*
G36*
G01*
X87106000Y-73815248D02*
X87106000Y-74774752D01*
G75*
G02*
X86834752Y-75046000I-271248J0D01*
G01*
X86075248Y-75046000D01*
G75*
G02*
X85804000Y-74774752I0J271248D01*
G01*
X85804000Y-73815248D01*
G75*
G02*
X86075248Y-73544000I271248J0D01*
G01*
X86834752Y-73544000D01*
G75*
G02*
X87106000Y-73815248I0J-271248D01*
G01*
G37*
G36*
G01*
X85106000Y-73815248D02*
X85106000Y-74774752D01*
G75*
G02*
X84834752Y-75046000I-271248J0D01*
G01*
X84075248Y-75046000D01*
G75*
G02*
X83804000Y-74774752I0J271248D01*
G01*
X83804000Y-73815248D01*
G75*
G02*
X84075248Y-73544000I271248J0D01*
G01*
X84834752Y-73544000D01*
G75*
G02*
X85106000Y-73815248I0J-271248D01*
G01*
G37*
D20*
X93980000Y-83820000D03*
X98860000Y-83820000D03*
X111560000Y-83820000D03*
X106680000Y-83820000D03*
X143510000Y-92510000D03*
X143510000Y-87630000D03*
G36*
G01*
X89771000Y-65535702D02*
X89771000Y-66544298D01*
G75*
G02*
X89499298Y-66816000I-271702J0D01*
G01*
X88765702Y-66816000D01*
G75*
G02*
X88494000Y-66544298I0J271702D01*
G01*
X88494000Y-65535702D01*
G75*
G02*
X88765702Y-65264000I271702J0D01*
G01*
X89499298Y-65264000D01*
G75*
G02*
X89771000Y-65535702I0J-271702D01*
G01*
G37*
G36*
G01*
X91846000Y-65535702D02*
X91846000Y-66544298D01*
G75*
G02*
X91574298Y-66816000I-271702J0D01*
G01*
X90840702Y-66816000D01*
G75*
G02*
X90569000Y-66544298I0J271702D01*
G01*
X90569000Y-65535702D01*
G75*
G02*
X90840702Y-65264000I271702J0D01*
G01*
X91574298Y-65264000D01*
G75*
G02*
X91846000Y-65535702I0J-271702D01*
G01*
G37*
G36*
G01*
X88494000Y-127504298D02*
X88494000Y-126495702D01*
G75*
G02*
X88765702Y-126224000I271702J0D01*
G01*
X89499298Y-126224000D01*
G75*
G02*
X89771000Y-126495702I0J-271702D01*
G01*
X89771000Y-127504298D01*
G75*
G02*
X89499298Y-127776000I-271702J0D01*
G01*
X88765702Y-127776000D01*
G75*
G02*
X88494000Y-127504298I0J271702D01*
G01*
G37*
G36*
G01*
X90569000Y-127504298D02*
X90569000Y-126495702D01*
G75*
G02*
X90840702Y-126224000I271702J0D01*
G01*
X91574298Y-126224000D01*
G75*
G02*
X91846000Y-126495702I0J-271702D01*
G01*
X91846000Y-127504298D01*
G75*
G02*
X91574298Y-127776000I-271702J0D01*
G01*
X90840702Y-127776000D01*
G75*
G02*
X90569000Y-127504298I0J271702D01*
G01*
G37*
D27*
X141605000Y-128670000D03*
D28*
X136605000Y-128670000D03*
X146605000Y-128670000D03*
X141605000Y-133858000D03*
D27*
X156210000Y-128670000D03*
D28*
X151210000Y-128670000D03*
X161210000Y-128670000D03*
X156210000Y-133858000D03*
G36*
G01*
X88494000Y-58924298D02*
X88494000Y-57915702D01*
G75*
G02*
X88765702Y-57644000I271702J0D01*
G01*
X89499298Y-57644000D01*
G75*
G02*
X89771000Y-57915702I0J-271702D01*
G01*
X89771000Y-58924298D01*
G75*
G02*
X89499298Y-59196000I-271702J0D01*
G01*
X88765702Y-59196000D01*
G75*
G02*
X88494000Y-58924298I0J271702D01*
G01*
G37*
G36*
G01*
X90569000Y-58924298D02*
X90569000Y-57915702D01*
G75*
G02*
X90840702Y-57644000I271702J0D01*
G01*
X91574298Y-57644000D01*
G75*
G02*
X91846000Y-57915702I0J-271702D01*
G01*
X91846000Y-58924298D01*
G75*
G02*
X91574298Y-59196000I-271702J0D01*
G01*
X90840702Y-59196000D01*
G75*
G02*
X90569000Y-58924298I0J271702D01*
G01*
G37*
G36*
G01*
X89771000Y-118875702D02*
X89771000Y-119884298D01*
G75*
G02*
X89499298Y-120156000I-271702J0D01*
G01*
X88765702Y-120156000D01*
G75*
G02*
X88494000Y-119884298I0J271702D01*
G01*
X88494000Y-118875702D01*
G75*
G02*
X88765702Y-118604000I271702J0D01*
G01*
X89499298Y-118604000D01*
G75*
G02*
X89771000Y-118875702I0J-271702D01*
G01*
G37*
G36*
G01*
X91846000Y-118875702D02*
X91846000Y-119884298D01*
G75*
G02*
X91574298Y-120156000I-271702J0D01*
G01*
X90840702Y-120156000D01*
G75*
G02*
X90569000Y-119884298I0J271702D01*
G01*
X90569000Y-118875702D01*
G75*
G02*
X90840702Y-118604000I271702J0D01*
G01*
X91574298Y-118604000D01*
G75*
G02*
X91846000Y-118875702I0J-271702D01*
G01*
G37*
G36*
G01*
X164694000Y-119884298D02*
X164694000Y-118875702D01*
G75*
G02*
X164965702Y-118604000I271702J0D01*
G01*
X165699298Y-118604000D01*
G75*
G02*
X165971000Y-118875702I0J-271702D01*
G01*
X165971000Y-119884298D01*
G75*
G02*
X165699298Y-120156000I-271702J0D01*
G01*
X164965702Y-120156000D01*
G75*
G02*
X164694000Y-119884298I0J271702D01*
G01*
G37*
G36*
G01*
X166769000Y-119884298D02*
X166769000Y-118875702D01*
G75*
G02*
X167040702Y-118604000I271702J0D01*
G01*
X167774298Y-118604000D01*
G75*
G02*
X168046000Y-118875702I0J-271702D01*
G01*
X168046000Y-119884298D01*
G75*
G02*
X167774298Y-120156000I-271702J0D01*
G01*
X167040702Y-120156000D01*
G75*
G02*
X166769000Y-119884298I0J271702D01*
G01*
G37*
G36*
G01*
X104778500Y-38611702D02*
X104778500Y-39620298D01*
G75*
G02*
X104506798Y-39892000I-271702J0D01*
G01*
X103773202Y-39892000D01*
G75*
G02*
X103501500Y-39620298I0J271702D01*
G01*
X103501500Y-38611702D01*
G75*
G02*
X103773202Y-38340000I271702J0D01*
G01*
X104506798Y-38340000D01*
G75*
G02*
X104778500Y-38611702I0J-271702D01*
G01*
G37*
G36*
G01*
X102703500Y-38611702D02*
X102703500Y-39620298D01*
G75*
G02*
X102431798Y-39892000I-271702J0D01*
G01*
X101698202Y-39892000D01*
G75*
G02*
X101426500Y-39620298I0J271702D01*
G01*
X101426500Y-38611702D01*
G75*
G02*
X101698202Y-38340000I271702J0D01*
G01*
X102431798Y-38340000D01*
G75*
G02*
X102703500Y-38611702I0J-271702D01*
G01*
G37*
G36*
G01*
X102703500Y-36325702D02*
X102703500Y-37334298D01*
G75*
G02*
X102431798Y-37606000I-271702J0D01*
G01*
X101698202Y-37606000D01*
G75*
G02*
X101426500Y-37334298I0J271702D01*
G01*
X101426500Y-36325702D01*
G75*
G02*
X101698202Y-36054000I271702J0D01*
G01*
X102431798Y-36054000D01*
G75*
G02*
X102703500Y-36325702I0J-271702D01*
G01*
G37*
G36*
G01*
X104778500Y-36325702D02*
X104778500Y-37334298D01*
G75*
G02*
X104506798Y-37606000I-271702J0D01*
G01*
X103773202Y-37606000D01*
G75*
G02*
X103501500Y-37334298I0J271702D01*
G01*
X103501500Y-36325702D01*
G75*
G02*
X103773202Y-36054000I271702J0D01*
G01*
X104506798Y-36054000D01*
G75*
G02*
X104778500Y-36325702I0J-271702D01*
G01*
G37*
M02*
