G04 #@! TF.GenerationSoftware,KiCad,Pcbnew,5.1.10-88a1d61d58~90~ubuntu20.04.1*
G04 #@! TF.CreationDate,2021-11-05T20:40:26+01:00*
G04 #@! TF.ProjectId,FPGC4IOboard,46504743-3449-44f6-926f-6172642e6b69,rev?*
G04 #@! TF.SameCoordinates,Original*
G04 #@! TF.FileFunction,Paste,Top*
G04 #@! TF.FilePolarity,Positive*
%FSLAX46Y46*%
G04 Gerber Fmt 4.6, Leading zero omitted, Abs format (unit mm)*
G04 Created by KiCad (PCBNEW 5.1.10-88a1d61d58~90~ubuntu20.04.1) date 2021-11-05 20:40:26*
%MOMM*%
%LPD*%
G01*
G04 APERTURE LIST*
%ADD10R,2.440000X1.120000*%
%ADD11R,0.300000X1.400000*%
%ADD12R,3.000000X1.500000*%
%ADD13R,2.600000X0.300000*%
%ADD14R,1.350000X0.450000*%
%ADD15R,2.500000X2.200000*%
%ADD16R,1.200000X2.000000*%
%ADD17R,1.060000X0.650000*%
%ADD18R,0.650000X1.060000*%
G04 APERTURE END LIST*
D10*
X80785000Y-51435000D03*
X89395000Y-43815000D03*
X80785000Y-48895000D03*
X89395000Y-46355000D03*
X80785000Y-46355000D03*
X89395000Y-48895000D03*
X80785000Y-43815000D03*
X89395000Y-51435000D03*
D11*
X129270000Y-73320000D03*
X128770000Y-73320000D03*
X128270000Y-73320000D03*
X127770000Y-73320000D03*
X127270000Y-73320000D03*
X127270000Y-68920000D03*
X127770000Y-68920000D03*
X128270000Y-68920000D03*
X128770000Y-68920000D03*
X129270000Y-68920000D03*
D12*
X82035000Y-103990000D03*
X82035000Y-116990000D03*
D13*
X159650000Y-113974000D03*
X159650000Y-113474000D03*
X159650000Y-112974000D03*
X159650000Y-112474000D03*
X159650000Y-111974000D03*
X159650000Y-111474000D03*
X159650000Y-110974000D03*
X159650000Y-110474000D03*
X159650000Y-109974000D03*
X159650000Y-109474000D03*
X159650000Y-108974000D03*
X159650000Y-108474000D03*
X159650000Y-107974000D03*
X159650000Y-107474000D03*
X159650000Y-106974000D03*
X159650000Y-106474000D03*
X159650000Y-105974000D03*
X159650000Y-105474000D03*
X159650000Y-104974000D03*
G36*
G01*
X139652500Y-117635000D02*
X139652500Y-118585000D01*
G75*
G02*
X139402500Y-118835000I-250000J0D01*
G01*
X138727500Y-118835000D01*
G75*
G02*
X138477500Y-118585000I0J250000D01*
G01*
X138477500Y-117635000D01*
G75*
G02*
X138727500Y-117385000I250000J0D01*
G01*
X139402500Y-117385000D01*
G75*
G02*
X139652500Y-117635000I0J-250000D01*
G01*
G37*
G36*
G01*
X137577500Y-117635000D02*
X137577500Y-118585000D01*
G75*
G02*
X137327500Y-118835000I-250000J0D01*
G01*
X136652500Y-118835000D01*
G75*
G02*
X136402500Y-118585000I0J250000D01*
G01*
X136402500Y-117635000D01*
G75*
G02*
X136652500Y-117385000I250000J0D01*
G01*
X137327500Y-117385000D01*
G75*
G02*
X137577500Y-117635000I0J-250000D01*
G01*
G37*
G36*
G01*
X143035000Y-114750000D02*
X143985000Y-114750000D01*
G75*
G02*
X144235000Y-115000000I0J-250000D01*
G01*
X144235000Y-115675000D01*
G75*
G02*
X143985000Y-115925000I-250000J0D01*
G01*
X143035000Y-115925000D01*
G75*
G02*
X142785000Y-115675000I0J250000D01*
G01*
X142785000Y-115000000D01*
G75*
G02*
X143035000Y-114750000I250000J0D01*
G01*
G37*
G36*
G01*
X143035000Y-112675000D02*
X143985000Y-112675000D01*
G75*
G02*
X144235000Y-112925000I0J-250000D01*
G01*
X144235000Y-113600000D01*
G75*
G02*
X143985000Y-113850000I-250000J0D01*
G01*
X143035000Y-113850000D01*
G75*
G02*
X142785000Y-113600000I0J250000D01*
G01*
X142785000Y-112925000D01*
G75*
G02*
X143035000Y-112675000I250000J0D01*
G01*
G37*
G36*
G01*
X122972500Y-71280000D02*
X122972500Y-72230000D01*
G75*
G02*
X122722500Y-72480000I-250000J0D01*
G01*
X122047500Y-72480000D01*
G75*
G02*
X121797500Y-72230000I0J250000D01*
G01*
X121797500Y-71280000D01*
G75*
G02*
X122047500Y-71030000I250000J0D01*
G01*
X122722500Y-71030000D01*
G75*
G02*
X122972500Y-71280000I0J-250000D01*
G01*
G37*
G36*
G01*
X125047500Y-71280000D02*
X125047500Y-72230000D01*
G75*
G02*
X124797500Y-72480000I-250000J0D01*
G01*
X124122500Y-72480000D01*
G75*
G02*
X123872500Y-72230000I0J250000D01*
G01*
X123872500Y-71280000D01*
G75*
G02*
X124122500Y-71030000I250000J0D01*
G01*
X124797500Y-71030000D01*
G75*
G02*
X125047500Y-71280000I0J-250000D01*
G01*
G37*
G36*
G01*
X125047500Y-68740000D02*
X125047500Y-69690000D01*
G75*
G02*
X124797500Y-69940000I-250000J0D01*
G01*
X124122500Y-69940000D01*
G75*
G02*
X123872500Y-69690000I0J250000D01*
G01*
X123872500Y-68740000D01*
G75*
G02*
X124122500Y-68490000I250000J0D01*
G01*
X124797500Y-68490000D01*
G75*
G02*
X125047500Y-68740000I0J-250000D01*
G01*
G37*
G36*
G01*
X122972500Y-68740000D02*
X122972500Y-69690000D01*
G75*
G02*
X122722500Y-69940000I-250000J0D01*
G01*
X122047500Y-69940000D01*
G75*
G02*
X121797500Y-69690000I0J250000D01*
G01*
X121797500Y-68740000D01*
G75*
G02*
X122047500Y-68490000I250000J0D01*
G01*
X122722500Y-68490000D01*
G75*
G02*
X122972500Y-68740000I0J-250000D01*
G01*
G37*
G36*
G01*
X122972500Y-73820000D02*
X122972500Y-74770000D01*
G75*
G02*
X122722500Y-75020000I-250000J0D01*
G01*
X122047500Y-75020000D01*
G75*
G02*
X121797500Y-74770000I0J250000D01*
G01*
X121797500Y-73820000D01*
G75*
G02*
X122047500Y-73570000I250000J0D01*
G01*
X122722500Y-73570000D01*
G75*
G02*
X122972500Y-73820000I0J-250000D01*
G01*
G37*
G36*
G01*
X125047500Y-73820000D02*
X125047500Y-74770000D01*
G75*
G02*
X124797500Y-75020000I-250000J0D01*
G01*
X124122500Y-75020000D01*
G75*
G02*
X123872500Y-74770000I0J250000D01*
G01*
X123872500Y-73820000D01*
G75*
G02*
X124122500Y-73570000I250000J0D01*
G01*
X124797500Y-73570000D01*
G75*
G02*
X125047500Y-73820000I0J-250000D01*
G01*
G37*
G36*
G01*
X102075000Y-85212500D02*
X101125000Y-85212500D01*
G75*
G02*
X100875000Y-84962500I0J250000D01*
G01*
X100875000Y-84287500D01*
G75*
G02*
X101125000Y-84037500I250000J0D01*
G01*
X102075000Y-84037500D01*
G75*
G02*
X102325000Y-84287500I0J-250000D01*
G01*
X102325000Y-84962500D01*
G75*
G02*
X102075000Y-85212500I-250000J0D01*
G01*
G37*
G36*
G01*
X102075000Y-83137500D02*
X101125000Y-83137500D01*
G75*
G02*
X100875000Y-82887500I0J250000D01*
G01*
X100875000Y-82212500D01*
G75*
G02*
X101125000Y-81962500I250000J0D01*
G01*
X102075000Y-81962500D01*
G75*
G02*
X102325000Y-82212500I0J-250000D01*
G01*
X102325000Y-82887500D01*
G75*
G02*
X102075000Y-83137500I-250000J0D01*
G01*
G37*
G36*
G01*
X104615000Y-85212500D02*
X103665000Y-85212500D01*
G75*
G02*
X103415000Y-84962500I0J250000D01*
G01*
X103415000Y-84287500D01*
G75*
G02*
X103665000Y-84037500I250000J0D01*
G01*
X104615000Y-84037500D01*
G75*
G02*
X104865000Y-84287500I0J-250000D01*
G01*
X104865000Y-84962500D01*
G75*
G02*
X104615000Y-85212500I-250000J0D01*
G01*
G37*
G36*
G01*
X104615000Y-83137500D02*
X103665000Y-83137500D01*
G75*
G02*
X103415000Y-82887500I0J250000D01*
G01*
X103415000Y-82212500D01*
G75*
G02*
X103665000Y-81962500I250000J0D01*
G01*
X104615000Y-81962500D01*
G75*
G02*
X104865000Y-82212500I0J-250000D01*
G01*
X104865000Y-82887500D01*
G75*
G02*
X104615000Y-83137500I-250000J0D01*
G01*
G37*
G36*
G01*
X98585000Y-87847500D02*
X99535000Y-87847500D01*
G75*
G02*
X99785000Y-88097500I0J-250000D01*
G01*
X99785000Y-88772500D01*
G75*
G02*
X99535000Y-89022500I-250000J0D01*
G01*
X98585000Y-89022500D01*
G75*
G02*
X98335000Y-88772500I0J250000D01*
G01*
X98335000Y-88097500D01*
G75*
G02*
X98585000Y-87847500I250000J0D01*
G01*
G37*
G36*
G01*
X98585000Y-85772500D02*
X99535000Y-85772500D01*
G75*
G02*
X99785000Y-86022500I0J-250000D01*
G01*
X99785000Y-86697500D01*
G75*
G02*
X99535000Y-86947500I-250000J0D01*
G01*
X98585000Y-86947500D01*
G75*
G02*
X98335000Y-86697500I0J250000D01*
G01*
X98335000Y-86022500D01*
G75*
G02*
X98585000Y-85772500I250000J0D01*
G01*
G37*
G36*
G01*
X94455000Y-86947500D02*
X93505000Y-86947500D01*
G75*
G02*
X93255000Y-86697500I0J250000D01*
G01*
X93255000Y-86022500D01*
G75*
G02*
X93505000Y-85772500I250000J0D01*
G01*
X94455000Y-85772500D01*
G75*
G02*
X94705000Y-86022500I0J-250000D01*
G01*
X94705000Y-86697500D01*
G75*
G02*
X94455000Y-86947500I-250000J0D01*
G01*
G37*
G36*
G01*
X94455000Y-89022500D02*
X93505000Y-89022500D01*
G75*
G02*
X93255000Y-88772500I0J250000D01*
G01*
X93255000Y-88097500D01*
G75*
G02*
X93505000Y-87847500I250000J0D01*
G01*
X94455000Y-87847500D01*
G75*
G02*
X94705000Y-88097500I0J-250000D01*
G01*
X94705000Y-88772500D01*
G75*
G02*
X94455000Y-89022500I-250000J0D01*
G01*
G37*
G36*
G01*
X111285000Y-85772500D02*
X112235000Y-85772500D01*
G75*
G02*
X112485000Y-86022500I0J-250000D01*
G01*
X112485000Y-86697500D01*
G75*
G02*
X112235000Y-86947500I-250000J0D01*
G01*
X111285000Y-86947500D01*
G75*
G02*
X111035000Y-86697500I0J250000D01*
G01*
X111035000Y-86022500D01*
G75*
G02*
X111285000Y-85772500I250000J0D01*
G01*
G37*
G36*
G01*
X111285000Y-87847500D02*
X112235000Y-87847500D01*
G75*
G02*
X112485000Y-88097500I0J-250000D01*
G01*
X112485000Y-88772500D01*
G75*
G02*
X112235000Y-89022500I-250000J0D01*
G01*
X111285000Y-89022500D01*
G75*
G02*
X111035000Y-88772500I0J250000D01*
G01*
X111035000Y-88097500D01*
G75*
G02*
X111285000Y-87847500I250000J0D01*
G01*
G37*
G36*
G01*
X107155000Y-86947500D02*
X106205000Y-86947500D01*
G75*
G02*
X105955000Y-86697500I0J250000D01*
G01*
X105955000Y-86022500D01*
G75*
G02*
X106205000Y-85772500I250000J0D01*
G01*
X107155000Y-85772500D01*
G75*
G02*
X107405000Y-86022500I0J-250000D01*
G01*
X107405000Y-86697500D01*
G75*
G02*
X107155000Y-86947500I-250000J0D01*
G01*
G37*
G36*
G01*
X107155000Y-89022500D02*
X106205000Y-89022500D01*
G75*
G02*
X105955000Y-88772500I0J250000D01*
G01*
X105955000Y-88097500D01*
G75*
G02*
X106205000Y-87847500I250000J0D01*
G01*
X107155000Y-87847500D01*
G75*
G02*
X107405000Y-88097500I0J-250000D01*
G01*
X107405000Y-88772500D01*
G75*
G02*
X107155000Y-89022500I-250000J0D01*
G01*
G37*
G36*
G01*
X155735000Y-78617500D02*
X156685000Y-78617500D01*
G75*
G02*
X156935000Y-78867500I0J-250000D01*
G01*
X156935000Y-79542500D01*
G75*
G02*
X156685000Y-79792500I-250000J0D01*
G01*
X155735000Y-79792500D01*
G75*
G02*
X155485000Y-79542500I0J250000D01*
G01*
X155485000Y-78867500D01*
G75*
G02*
X155735000Y-78617500I250000J0D01*
G01*
G37*
G36*
G01*
X155735000Y-80692500D02*
X156685000Y-80692500D01*
G75*
G02*
X156935000Y-80942500I0J-250000D01*
G01*
X156935000Y-81617500D01*
G75*
G02*
X156685000Y-81867500I-250000J0D01*
G01*
X155735000Y-81867500D01*
G75*
G02*
X155485000Y-81617500I0J250000D01*
G01*
X155485000Y-80942500D01*
G75*
G02*
X155735000Y-80692500I250000J0D01*
G01*
G37*
G36*
G01*
X132555000Y-69802500D02*
X131605000Y-69802500D01*
G75*
G02*
X131355000Y-69552500I0J250000D01*
G01*
X131355000Y-68877500D01*
G75*
G02*
X131605000Y-68627500I250000J0D01*
G01*
X132555000Y-68627500D01*
G75*
G02*
X132805000Y-68877500I0J-250000D01*
G01*
X132805000Y-69552500D01*
G75*
G02*
X132555000Y-69802500I-250000J0D01*
G01*
G37*
G36*
G01*
X132555000Y-71877500D02*
X131605000Y-71877500D01*
G75*
G02*
X131355000Y-71627500I0J250000D01*
G01*
X131355000Y-70952500D01*
G75*
G02*
X131605000Y-70702500I250000J0D01*
G01*
X132555000Y-70702500D01*
G75*
G02*
X132805000Y-70952500I0J-250000D01*
G01*
X132805000Y-71627500D01*
G75*
G02*
X132555000Y-71877500I-250000J0D01*
G01*
G37*
G36*
G01*
X119502500Y-75725000D02*
X119502500Y-76675000D01*
G75*
G02*
X119252500Y-76925000I-250000J0D01*
G01*
X118577500Y-76925000D01*
G75*
G02*
X118327500Y-76675000I0J250000D01*
G01*
X118327500Y-75725000D01*
G75*
G02*
X118577500Y-75475000I250000J0D01*
G01*
X119252500Y-75475000D01*
G75*
G02*
X119502500Y-75725000I0J-250000D01*
G01*
G37*
G36*
G01*
X117427500Y-75725000D02*
X117427500Y-76675000D01*
G75*
G02*
X117177500Y-76925000I-250000J0D01*
G01*
X116502500Y-76925000D01*
G75*
G02*
X116252500Y-76675000I0J250000D01*
G01*
X116252500Y-75725000D01*
G75*
G02*
X116502500Y-75475000I250000J0D01*
G01*
X117177500Y-75475000D01*
G75*
G02*
X117427500Y-75725000I0J-250000D01*
G01*
G37*
G36*
G01*
X119502500Y-78265000D02*
X119502500Y-79215000D01*
G75*
G02*
X119252500Y-79465000I-250000J0D01*
G01*
X118577500Y-79465000D01*
G75*
G02*
X118327500Y-79215000I0J250000D01*
G01*
X118327500Y-78265000D01*
G75*
G02*
X118577500Y-78015000I250000J0D01*
G01*
X119252500Y-78015000D01*
G75*
G02*
X119502500Y-78265000I0J-250000D01*
G01*
G37*
G36*
G01*
X117427500Y-78265000D02*
X117427500Y-79215000D01*
G75*
G02*
X117177500Y-79465000I-250000J0D01*
G01*
X116502500Y-79465000D01*
G75*
G02*
X116252500Y-79215000I0J250000D01*
G01*
X116252500Y-78265000D01*
G75*
G02*
X116502500Y-78015000I250000J0D01*
G01*
X117177500Y-78015000D01*
G75*
G02*
X117427500Y-78265000I0J-250000D01*
G01*
G37*
G36*
G01*
X135095000Y-69802500D02*
X134145000Y-69802500D01*
G75*
G02*
X133895000Y-69552500I0J250000D01*
G01*
X133895000Y-68877500D01*
G75*
G02*
X134145000Y-68627500I250000J0D01*
G01*
X135095000Y-68627500D01*
G75*
G02*
X135345000Y-68877500I0J-250000D01*
G01*
X135345000Y-69552500D01*
G75*
G02*
X135095000Y-69802500I-250000J0D01*
G01*
G37*
G36*
G01*
X135095000Y-71877500D02*
X134145000Y-71877500D01*
G75*
G02*
X133895000Y-71627500I0J250000D01*
G01*
X133895000Y-70952500D01*
G75*
G02*
X134145000Y-70702500I250000J0D01*
G01*
X135095000Y-70702500D01*
G75*
G02*
X135345000Y-70952500I0J-250000D01*
G01*
X135345000Y-71627500D01*
G75*
G02*
X135095000Y-71877500I-250000J0D01*
G01*
G37*
G36*
G01*
X129700000Y-76882500D02*
X130650000Y-76882500D01*
G75*
G02*
X130900000Y-77132500I0J-250000D01*
G01*
X130900000Y-77807500D01*
G75*
G02*
X130650000Y-78057500I-250000J0D01*
G01*
X129700000Y-78057500D01*
G75*
G02*
X129450000Y-77807500I0J250000D01*
G01*
X129450000Y-77132500D01*
G75*
G02*
X129700000Y-76882500I250000J0D01*
G01*
G37*
G36*
G01*
X129700000Y-78957500D02*
X130650000Y-78957500D01*
G75*
G02*
X130900000Y-79207500I0J-250000D01*
G01*
X130900000Y-79882500D01*
G75*
G02*
X130650000Y-80132500I-250000J0D01*
G01*
X129700000Y-80132500D01*
G75*
G02*
X129450000Y-79882500I0J250000D01*
G01*
X129450000Y-79207500D01*
G75*
G02*
X129700000Y-78957500I250000J0D01*
G01*
G37*
G36*
G01*
X137635000Y-72977500D02*
X136685000Y-72977500D01*
G75*
G02*
X136435000Y-72727500I0J250000D01*
G01*
X136435000Y-72052500D01*
G75*
G02*
X136685000Y-71802500I250000J0D01*
G01*
X137635000Y-71802500D01*
G75*
G02*
X137885000Y-72052500I0J-250000D01*
G01*
X137885000Y-72727500D01*
G75*
G02*
X137635000Y-72977500I-250000J0D01*
G01*
G37*
G36*
G01*
X137635000Y-75052500D02*
X136685000Y-75052500D01*
G75*
G02*
X136435000Y-74802500I0J250000D01*
G01*
X136435000Y-74127500D01*
G75*
G02*
X136685000Y-73877500I250000J0D01*
G01*
X137635000Y-73877500D01*
G75*
G02*
X137885000Y-74127500I0J-250000D01*
G01*
X137885000Y-74802500D01*
G75*
G02*
X137635000Y-75052500I-250000J0D01*
G01*
G37*
G36*
G01*
X127160000Y-78957500D02*
X128110000Y-78957500D01*
G75*
G02*
X128360000Y-79207500I0J-250000D01*
G01*
X128360000Y-79882500D01*
G75*
G02*
X128110000Y-80132500I-250000J0D01*
G01*
X127160000Y-80132500D01*
G75*
G02*
X126910000Y-79882500I0J250000D01*
G01*
X126910000Y-79207500D01*
G75*
G02*
X127160000Y-78957500I250000J0D01*
G01*
G37*
G36*
G01*
X127160000Y-76882500D02*
X128110000Y-76882500D01*
G75*
G02*
X128360000Y-77132500I0J-250000D01*
G01*
X128360000Y-77807500D01*
G75*
G02*
X128110000Y-78057500I-250000J0D01*
G01*
X127160000Y-78057500D01*
G75*
G02*
X126910000Y-77807500I0J250000D01*
G01*
X126910000Y-77132500D01*
G75*
G02*
X127160000Y-76882500I250000J0D01*
G01*
G37*
G36*
G01*
X141557500Y-92235000D02*
X141557500Y-93185000D01*
G75*
G02*
X141307500Y-93435000I-250000J0D01*
G01*
X140632500Y-93435000D01*
G75*
G02*
X140382500Y-93185000I0J250000D01*
G01*
X140382500Y-92235000D01*
G75*
G02*
X140632500Y-91985000I250000J0D01*
G01*
X141307500Y-91985000D01*
G75*
G02*
X141557500Y-92235000I0J-250000D01*
G01*
G37*
G36*
G01*
X139482500Y-92235000D02*
X139482500Y-93185000D01*
G75*
G02*
X139232500Y-93435000I-250000J0D01*
G01*
X138557500Y-93435000D01*
G75*
G02*
X138307500Y-93185000I0J250000D01*
G01*
X138307500Y-92235000D01*
G75*
G02*
X138557500Y-91985000I250000J0D01*
G01*
X139232500Y-91985000D01*
G75*
G02*
X139482500Y-92235000I0J-250000D01*
G01*
G37*
G36*
G01*
X140382500Y-88105000D02*
X140382500Y-87155000D01*
G75*
G02*
X140632500Y-86905000I250000J0D01*
G01*
X141307500Y-86905000D01*
G75*
G02*
X141557500Y-87155000I0J-250000D01*
G01*
X141557500Y-88105000D01*
G75*
G02*
X141307500Y-88355000I-250000J0D01*
G01*
X140632500Y-88355000D01*
G75*
G02*
X140382500Y-88105000I0J250000D01*
G01*
G37*
G36*
G01*
X138307500Y-88105000D02*
X138307500Y-87155000D01*
G75*
G02*
X138557500Y-86905000I250000J0D01*
G01*
X139232500Y-86905000D01*
G75*
G02*
X139482500Y-87155000I0J-250000D01*
G01*
X139482500Y-88105000D01*
G75*
G02*
X139232500Y-88355000I-250000J0D01*
G01*
X138557500Y-88355000D01*
G75*
G02*
X138307500Y-88105000I0J250000D01*
G01*
G37*
G36*
G01*
X132240000Y-81327500D02*
X133190000Y-81327500D01*
G75*
G02*
X133440000Y-81577500I0J-250000D01*
G01*
X133440000Y-82252500D01*
G75*
G02*
X133190000Y-82502500I-250000J0D01*
G01*
X132240000Y-82502500D01*
G75*
G02*
X131990000Y-82252500I0J250000D01*
G01*
X131990000Y-81577500D01*
G75*
G02*
X132240000Y-81327500I250000J0D01*
G01*
G37*
G36*
G01*
X132240000Y-83402500D02*
X133190000Y-83402500D01*
G75*
G02*
X133440000Y-83652500I0J-250000D01*
G01*
X133440000Y-84327500D01*
G75*
G02*
X133190000Y-84577500I-250000J0D01*
G01*
X132240000Y-84577500D01*
G75*
G02*
X131990000Y-84327500I0J250000D01*
G01*
X131990000Y-83652500D01*
G75*
G02*
X132240000Y-83402500I250000J0D01*
G01*
G37*
G36*
G01*
X125570000Y-84577500D02*
X124620000Y-84577500D01*
G75*
G02*
X124370000Y-84327500I0J250000D01*
G01*
X124370000Y-83652500D01*
G75*
G02*
X124620000Y-83402500I250000J0D01*
G01*
X125570000Y-83402500D01*
G75*
G02*
X125820000Y-83652500I0J-250000D01*
G01*
X125820000Y-84327500D01*
G75*
G02*
X125570000Y-84577500I-250000J0D01*
G01*
G37*
G36*
G01*
X125570000Y-82502500D02*
X124620000Y-82502500D01*
G75*
G02*
X124370000Y-82252500I0J250000D01*
G01*
X124370000Y-81577500D01*
G75*
G02*
X124620000Y-81327500I250000J0D01*
G01*
X125570000Y-81327500D01*
G75*
G02*
X125820000Y-81577500I0J-250000D01*
G01*
X125820000Y-82252500D01*
G75*
G02*
X125570000Y-82502500I-250000J0D01*
G01*
G37*
G36*
G01*
X81485000Y-72205001D02*
X81485000Y-71304999D01*
G75*
G02*
X81734999Y-71055000I249999J0D01*
G01*
X82385001Y-71055000D01*
G75*
G02*
X82635000Y-71304999I0J-249999D01*
G01*
X82635000Y-72205001D01*
G75*
G02*
X82385001Y-72455000I-249999J0D01*
G01*
X81734999Y-72455000D01*
G75*
G02*
X81485000Y-72205001I0J249999D01*
G01*
G37*
G36*
G01*
X79435000Y-72205001D02*
X79435000Y-71304999D01*
G75*
G02*
X79684999Y-71055000I249999J0D01*
G01*
X80335001Y-71055000D01*
G75*
G02*
X80585000Y-71304999I0J-249999D01*
G01*
X80585000Y-72205001D01*
G75*
G02*
X80335001Y-72455000I-249999J0D01*
G01*
X79684999Y-72455000D01*
G75*
G02*
X79435000Y-72205001I0J249999D01*
G01*
G37*
G36*
G01*
X79435000Y-89985001D02*
X79435000Y-89084999D01*
G75*
G02*
X79684999Y-88835000I249999J0D01*
G01*
X80335001Y-88835000D01*
G75*
G02*
X80585000Y-89084999I0J-249999D01*
G01*
X80585000Y-89985001D01*
G75*
G02*
X80335001Y-90235000I-249999J0D01*
G01*
X79684999Y-90235000D01*
G75*
G02*
X79435000Y-89985001I0J249999D01*
G01*
G37*
G36*
G01*
X81485000Y-89985001D02*
X81485000Y-89084999D01*
G75*
G02*
X81734999Y-88835000I249999J0D01*
G01*
X82385001Y-88835000D01*
G75*
G02*
X82635000Y-89084999I0J-249999D01*
G01*
X82635000Y-89985001D01*
G75*
G02*
X82385001Y-90235000I-249999J0D01*
G01*
X81734999Y-90235000D01*
G75*
G02*
X81485000Y-89985001I0J249999D01*
G01*
G37*
G36*
G01*
X81485000Y-84905001D02*
X81485000Y-84004999D01*
G75*
G02*
X81734999Y-83755000I249999J0D01*
G01*
X82385001Y-83755000D01*
G75*
G02*
X82635000Y-84004999I0J-249999D01*
G01*
X82635000Y-84905001D01*
G75*
G02*
X82385001Y-85155000I-249999J0D01*
G01*
X81734999Y-85155000D01*
G75*
G02*
X81485000Y-84905001I0J249999D01*
G01*
G37*
G36*
G01*
X79435000Y-84905001D02*
X79435000Y-84004999D01*
G75*
G02*
X79684999Y-83755000I249999J0D01*
G01*
X80335001Y-83755000D01*
G75*
G02*
X80585000Y-84004999I0J-249999D01*
G01*
X80585000Y-84905001D01*
G75*
G02*
X80335001Y-85155000I-249999J0D01*
G01*
X79684999Y-85155000D01*
G75*
G02*
X79435000Y-84905001I0J249999D01*
G01*
G37*
G36*
G01*
X79435000Y-79825001D02*
X79435000Y-78924999D01*
G75*
G02*
X79684999Y-78675000I249999J0D01*
G01*
X80335001Y-78675000D01*
G75*
G02*
X80585000Y-78924999I0J-249999D01*
G01*
X80585000Y-79825001D01*
G75*
G02*
X80335001Y-80075000I-249999J0D01*
G01*
X79684999Y-80075000D01*
G75*
G02*
X79435000Y-79825001I0J249999D01*
G01*
G37*
G36*
G01*
X81485000Y-79825001D02*
X81485000Y-78924999D01*
G75*
G02*
X81734999Y-78675000I249999J0D01*
G01*
X82385001Y-78675000D01*
G75*
G02*
X82635000Y-78924999I0J-249999D01*
G01*
X82635000Y-79825001D01*
G75*
G02*
X82385001Y-80075000I-249999J0D01*
G01*
X81734999Y-80075000D01*
G75*
G02*
X81485000Y-79825001I0J249999D01*
G01*
G37*
G36*
G01*
X79435000Y-82365001D02*
X79435000Y-81464999D01*
G75*
G02*
X79684999Y-81215000I249999J0D01*
G01*
X80335001Y-81215000D01*
G75*
G02*
X80585000Y-81464999I0J-249999D01*
G01*
X80585000Y-82365001D01*
G75*
G02*
X80335001Y-82615000I-249999J0D01*
G01*
X79684999Y-82615000D01*
G75*
G02*
X79435000Y-82365001I0J249999D01*
G01*
G37*
G36*
G01*
X81485000Y-82365001D02*
X81485000Y-81464999D01*
G75*
G02*
X81734999Y-81215000I249999J0D01*
G01*
X82385001Y-81215000D01*
G75*
G02*
X82635000Y-81464999I0J-249999D01*
G01*
X82635000Y-82365001D01*
G75*
G02*
X82385001Y-82615000I-249999J0D01*
G01*
X81734999Y-82615000D01*
G75*
G02*
X81485000Y-82365001I0J249999D01*
G01*
G37*
G36*
G01*
X81485000Y-100145001D02*
X81485000Y-99244999D01*
G75*
G02*
X81734999Y-98995000I249999J0D01*
G01*
X82385001Y-98995000D01*
G75*
G02*
X82635000Y-99244999I0J-249999D01*
G01*
X82635000Y-100145001D01*
G75*
G02*
X82385001Y-100395000I-249999J0D01*
G01*
X81734999Y-100395000D01*
G75*
G02*
X81485000Y-100145001I0J249999D01*
G01*
G37*
G36*
G01*
X79435000Y-100145001D02*
X79435000Y-99244999D01*
G75*
G02*
X79684999Y-98995000I249999J0D01*
G01*
X80335001Y-98995000D01*
G75*
G02*
X80585000Y-99244999I0J-249999D01*
G01*
X80585000Y-100145001D01*
G75*
G02*
X80335001Y-100395000I-249999J0D01*
G01*
X79684999Y-100395000D01*
G75*
G02*
X79435000Y-100145001I0J249999D01*
G01*
G37*
G36*
G01*
X79435000Y-92525001D02*
X79435000Y-91624999D01*
G75*
G02*
X79684999Y-91375000I249999J0D01*
G01*
X80335001Y-91375000D01*
G75*
G02*
X80585000Y-91624999I0J-249999D01*
G01*
X80585000Y-92525001D01*
G75*
G02*
X80335001Y-92775000I-249999J0D01*
G01*
X79684999Y-92775000D01*
G75*
G02*
X79435000Y-92525001I0J249999D01*
G01*
G37*
G36*
G01*
X81485000Y-92525001D02*
X81485000Y-91624999D01*
G75*
G02*
X81734999Y-91375000I249999J0D01*
G01*
X82385001Y-91375000D01*
G75*
G02*
X82635000Y-91624999I0J-249999D01*
G01*
X82635000Y-92525001D01*
G75*
G02*
X82385001Y-92775000I-249999J0D01*
G01*
X81734999Y-92775000D01*
G75*
G02*
X81485000Y-92525001I0J249999D01*
G01*
G37*
G36*
G01*
X81485000Y-87445001D02*
X81485000Y-86544999D01*
G75*
G02*
X81734999Y-86295000I249999J0D01*
G01*
X82385001Y-86295000D01*
G75*
G02*
X82635000Y-86544999I0J-249999D01*
G01*
X82635000Y-87445001D01*
G75*
G02*
X82385001Y-87695000I-249999J0D01*
G01*
X81734999Y-87695000D01*
G75*
G02*
X81485000Y-87445001I0J249999D01*
G01*
G37*
G36*
G01*
X79435000Y-87445001D02*
X79435000Y-86544999D01*
G75*
G02*
X79684999Y-86295000I249999J0D01*
G01*
X80335001Y-86295000D01*
G75*
G02*
X80585000Y-86544999I0J-249999D01*
G01*
X80585000Y-87445001D01*
G75*
G02*
X80335001Y-87695000I-249999J0D01*
G01*
X79684999Y-87695000D01*
G75*
G02*
X79435000Y-87445001I0J249999D01*
G01*
G37*
G36*
G01*
X81485000Y-95065001D02*
X81485000Y-94164999D01*
G75*
G02*
X81734999Y-93915000I249999J0D01*
G01*
X82385001Y-93915000D01*
G75*
G02*
X82635000Y-94164999I0J-249999D01*
G01*
X82635000Y-95065001D01*
G75*
G02*
X82385001Y-95315000I-249999J0D01*
G01*
X81734999Y-95315000D01*
G75*
G02*
X81485000Y-95065001I0J249999D01*
G01*
G37*
G36*
G01*
X79435000Y-95065001D02*
X79435000Y-94164999D01*
G75*
G02*
X79684999Y-93915000I249999J0D01*
G01*
X80335001Y-93915000D01*
G75*
G02*
X80585000Y-94164999I0J-249999D01*
G01*
X80585000Y-95065001D01*
G75*
G02*
X80335001Y-95315000I-249999J0D01*
G01*
X79684999Y-95315000D01*
G75*
G02*
X79435000Y-95065001I0J249999D01*
G01*
G37*
G36*
G01*
X81485000Y-97605001D02*
X81485000Y-96704999D01*
G75*
G02*
X81734999Y-96455000I249999J0D01*
G01*
X82385001Y-96455000D01*
G75*
G02*
X82635000Y-96704999I0J-249999D01*
G01*
X82635000Y-97605001D01*
G75*
G02*
X82385001Y-97855000I-249999J0D01*
G01*
X81734999Y-97855000D01*
G75*
G02*
X81485000Y-97605001I0J249999D01*
G01*
G37*
G36*
G01*
X79435000Y-97605001D02*
X79435000Y-96704999D01*
G75*
G02*
X79684999Y-96455000I249999J0D01*
G01*
X80335001Y-96455000D01*
G75*
G02*
X80585000Y-96704999I0J-249999D01*
G01*
X80585000Y-97605001D01*
G75*
G02*
X80335001Y-97855000I-249999J0D01*
G01*
X79684999Y-97855000D01*
G75*
G02*
X79435000Y-97605001I0J249999D01*
G01*
G37*
G36*
G01*
X79435000Y-77285001D02*
X79435000Y-76384999D01*
G75*
G02*
X79684999Y-76135000I249999J0D01*
G01*
X80335001Y-76135000D01*
G75*
G02*
X80585000Y-76384999I0J-249999D01*
G01*
X80585000Y-77285001D01*
G75*
G02*
X80335001Y-77535000I-249999J0D01*
G01*
X79684999Y-77535000D01*
G75*
G02*
X79435000Y-77285001I0J249999D01*
G01*
G37*
G36*
G01*
X81485000Y-77285001D02*
X81485000Y-76384999D01*
G75*
G02*
X81734999Y-76135000I249999J0D01*
G01*
X82385001Y-76135000D01*
G75*
G02*
X82635000Y-76384999I0J-249999D01*
G01*
X82635000Y-77285001D01*
G75*
G02*
X82385001Y-77535000I-249999J0D01*
G01*
X81734999Y-77535000D01*
G75*
G02*
X81485000Y-77285001I0J249999D01*
G01*
G37*
G36*
G01*
X79435000Y-74745001D02*
X79435000Y-73844999D01*
G75*
G02*
X79684999Y-73595000I249999J0D01*
G01*
X80335001Y-73595000D01*
G75*
G02*
X80585000Y-73844999I0J-249999D01*
G01*
X80585000Y-74745001D01*
G75*
G02*
X80335001Y-74995000I-249999J0D01*
G01*
X79684999Y-74995000D01*
G75*
G02*
X79435000Y-74745001I0J249999D01*
G01*
G37*
G36*
G01*
X81485000Y-74745001D02*
X81485000Y-73844999D01*
G75*
G02*
X81734999Y-73595000I249999J0D01*
G01*
X82385001Y-73595000D01*
G75*
G02*
X82635000Y-73844999I0J-249999D01*
G01*
X82635000Y-74745001D01*
G75*
G02*
X82385001Y-74995000I-249999J0D01*
G01*
X81734999Y-74995000D01*
G75*
G02*
X81485000Y-74745001I0J249999D01*
G01*
G37*
G36*
G01*
X156510000Y-97335001D02*
X156510000Y-94434999D01*
G75*
G02*
X156759999Y-94185000I249999J0D01*
G01*
X157560001Y-94185000D01*
G75*
G02*
X157810000Y-94434999I0J-249999D01*
G01*
X157810000Y-97335001D01*
G75*
G02*
X157560001Y-97585000I-249999J0D01*
G01*
X156759999Y-97585000D01*
G75*
G02*
X156510000Y-97335001I0J249999D01*
G01*
G37*
G36*
G01*
X160960000Y-97335001D02*
X160960000Y-94434999D01*
G75*
G02*
X161209999Y-94185000I249999J0D01*
G01*
X162010001Y-94185000D01*
G75*
G02*
X162260000Y-94434999I0J-249999D01*
G01*
X162260000Y-97335001D01*
G75*
G02*
X162010001Y-97585000I-249999J0D01*
G01*
X161209999Y-97585000D01*
G75*
G02*
X160960000Y-97335001I0J249999D01*
G01*
G37*
D14*
X165462000Y-88235000D03*
X165462000Y-88885000D03*
X165462000Y-89535000D03*
X165462000Y-90185000D03*
X165462000Y-90835000D03*
D15*
X168162000Y-93485000D03*
X168162000Y-85585000D03*
D16*
X165662000Y-86035000D03*
X165662000Y-93035000D03*
G36*
G01*
X116655001Y-116805000D02*
X115754999Y-116805000D01*
G75*
G02*
X115505000Y-116555001I0J249999D01*
G01*
X115505000Y-115854999D01*
G75*
G02*
X115754999Y-115605000I249999J0D01*
G01*
X116655001Y-115605000D01*
G75*
G02*
X116905000Y-115854999I0J-249999D01*
G01*
X116905000Y-116555001D01*
G75*
G02*
X116655001Y-116805000I-249999J0D01*
G01*
G37*
G36*
G01*
X116655001Y-118805000D02*
X115754999Y-118805000D01*
G75*
G02*
X115505000Y-118555001I0J249999D01*
G01*
X115505000Y-117854999D01*
G75*
G02*
X115754999Y-117605000I249999J0D01*
G01*
X116655001Y-117605000D01*
G75*
G02*
X116905000Y-117854999I0J-249999D01*
G01*
X116905000Y-118555001D01*
G75*
G02*
X116655001Y-118805000I-249999J0D01*
G01*
G37*
G36*
G01*
X114115001Y-116805000D02*
X113214999Y-116805000D01*
G75*
G02*
X112965000Y-116555001I0J249999D01*
G01*
X112965000Y-115854999D01*
G75*
G02*
X113214999Y-115605000I249999J0D01*
G01*
X114115001Y-115605000D01*
G75*
G02*
X114365000Y-115854999I0J-249999D01*
G01*
X114365000Y-116555001D01*
G75*
G02*
X114115001Y-116805000I-249999J0D01*
G01*
G37*
G36*
G01*
X114115001Y-114805000D02*
X113214999Y-114805000D01*
G75*
G02*
X112965000Y-114555001I0J249999D01*
G01*
X112965000Y-113854999D01*
G75*
G02*
X113214999Y-113605000I249999J0D01*
G01*
X114115001Y-113605000D01*
G75*
G02*
X114365000Y-113854999I0J-249999D01*
G01*
X114365000Y-114555001D01*
G75*
G02*
X114115001Y-114805000I-249999J0D01*
G01*
G37*
G36*
G01*
X117875000Y-114115001D02*
X117875000Y-113214999D01*
G75*
G02*
X118124999Y-112965000I249999J0D01*
G01*
X118825001Y-112965000D01*
G75*
G02*
X119075000Y-113214999I0J-249999D01*
G01*
X119075000Y-114115001D01*
G75*
G02*
X118825001Y-114365000I-249999J0D01*
G01*
X118124999Y-114365000D01*
G75*
G02*
X117875000Y-114115001I0J249999D01*
G01*
G37*
G36*
G01*
X115875000Y-114115001D02*
X115875000Y-113214999D01*
G75*
G02*
X116124999Y-112965000I249999J0D01*
G01*
X116825001Y-112965000D01*
G75*
G02*
X117075000Y-113214999I0J-249999D01*
G01*
X117075000Y-114115001D01*
G75*
G02*
X116825001Y-114365000I-249999J0D01*
G01*
X116124999Y-114365000D01*
G75*
G02*
X115875000Y-114115001I0J249999D01*
G01*
G37*
G36*
G01*
X119195001Y-118805000D02*
X118294999Y-118805000D01*
G75*
G02*
X118045000Y-118555001I0J249999D01*
G01*
X118045000Y-117854999D01*
G75*
G02*
X118294999Y-117605000I249999J0D01*
G01*
X119195001Y-117605000D01*
G75*
G02*
X119445000Y-117854999I0J-249999D01*
G01*
X119445000Y-118555001D01*
G75*
G02*
X119195001Y-118805000I-249999J0D01*
G01*
G37*
G36*
G01*
X119195001Y-116805000D02*
X118294999Y-116805000D01*
G75*
G02*
X118045000Y-116555001I0J249999D01*
G01*
X118045000Y-115854999D01*
G75*
G02*
X118294999Y-115605000I249999J0D01*
G01*
X119195001Y-115605000D01*
G75*
G02*
X119445000Y-115854999I0J-249999D01*
G01*
X119445000Y-116555001D01*
G75*
G02*
X119195001Y-116805000I-249999J0D01*
G01*
G37*
G36*
G01*
X99295000Y-67494999D02*
X99295000Y-68395001D01*
G75*
G02*
X99045001Y-68645000I-249999J0D01*
G01*
X98344999Y-68645000D01*
G75*
G02*
X98095000Y-68395001I0J249999D01*
G01*
X98095000Y-67494999D01*
G75*
G02*
X98344999Y-67245000I249999J0D01*
G01*
X99045001Y-67245000D01*
G75*
G02*
X99295000Y-67494999I0J-249999D01*
G01*
G37*
G36*
G01*
X101295000Y-67494999D02*
X101295000Y-68395001D01*
G75*
G02*
X101045001Y-68645000I-249999J0D01*
G01*
X100344999Y-68645000D01*
G75*
G02*
X100095000Y-68395001I0J249999D01*
G01*
X100095000Y-67494999D01*
G75*
G02*
X100344999Y-67245000I249999J0D01*
G01*
X101045001Y-67245000D01*
G75*
G02*
X101295000Y-67494999I0J-249999D01*
G01*
G37*
G36*
G01*
X118415000Y-111575001D02*
X118415000Y-110674999D01*
G75*
G02*
X118664999Y-110425000I249999J0D01*
G01*
X119365001Y-110425000D01*
G75*
G02*
X119615000Y-110674999I0J-249999D01*
G01*
X119615000Y-111575001D01*
G75*
G02*
X119365001Y-111825000I-249999J0D01*
G01*
X118664999Y-111825000D01*
G75*
G02*
X118415000Y-111575001I0J249999D01*
G01*
G37*
G36*
G01*
X120415000Y-111575001D02*
X120415000Y-110674999D01*
G75*
G02*
X120664999Y-110425000I249999J0D01*
G01*
X121365001Y-110425000D01*
G75*
G02*
X121615000Y-110674999I0J-249999D01*
G01*
X121615000Y-111575001D01*
G75*
G02*
X121365001Y-111825000I-249999J0D01*
G01*
X120664999Y-111825000D01*
G75*
G02*
X120415000Y-111575001I0J249999D01*
G01*
G37*
G36*
G01*
X121735001Y-116805000D02*
X120834999Y-116805000D01*
G75*
G02*
X120585000Y-116555001I0J249999D01*
G01*
X120585000Y-115854999D01*
G75*
G02*
X120834999Y-115605000I249999J0D01*
G01*
X121735001Y-115605000D01*
G75*
G02*
X121985000Y-115854999I0J-249999D01*
G01*
X121985000Y-116555001D01*
G75*
G02*
X121735001Y-116805000I-249999J0D01*
G01*
G37*
G36*
G01*
X121735001Y-118805000D02*
X120834999Y-118805000D01*
G75*
G02*
X120585000Y-118555001I0J249999D01*
G01*
X120585000Y-117854999D01*
G75*
G02*
X120834999Y-117605000I249999J0D01*
G01*
X121735001Y-117605000D01*
G75*
G02*
X121985000Y-117854999I0J-249999D01*
G01*
X121985000Y-118555001D01*
G75*
G02*
X121735001Y-118805000I-249999J0D01*
G01*
G37*
G36*
G01*
X122955000Y-114115001D02*
X122955000Y-113214999D01*
G75*
G02*
X123204999Y-112965000I249999J0D01*
G01*
X123905001Y-112965000D01*
G75*
G02*
X124155000Y-113214999I0J-249999D01*
G01*
X124155000Y-114115001D01*
G75*
G02*
X123905001Y-114365000I-249999J0D01*
G01*
X123204999Y-114365000D01*
G75*
G02*
X122955000Y-114115001I0J249999D01*
G01*
G37*
G36*
G01*
X120955000Y-114115001D02*
X120955000Y-113214999D01*
G75*
G02*
X121204999Y-112965000I249999J0D01*
G01*
X121905001Y-112965000D01*
G75*
G02*
X122155000Y-113214999I0J-249999D01*
G01*
X122155000Y-114115001D01*
G75*
G02*
X121905001Y-114365000I-249999J0D01*
G01*
X121204999Y-114365000D01*
G75*
G02*
X120955000Y-114115001I0J249999D01*
G01*
G37*
G36*
G01*
X124275001Y-118805000D02*
X123374999Y-118805000D01*
G75*
G02*
X123125000Y-118555001I0J249999D01*
G01*
X123125000Y-117854999D01*
G75*
G02*
X123374999Y-117605000I249999J0D01*
G01*
X124275001Y-117605000D01*
G75*
G02*
X124525000Y-117854999I0J-249999D01*
G01*
X124525000Y-118555001D01*
G75*
G02*
X124275001Y-118805000I-249999J0D01*
G01*
G37*
G36*
G01*
X124275001Y-116805000D02*
X123374999Y-116805000D01*
G75*
G02*
X123125000Y-116555001I0J249999D01*
G01*
X123125000Y-115854999D01*
G75*
G02*
X123374999Y-115605000I249999J0D01*
G01*
X124275001Y-115605000D01*
G75*
G02*
X124525000Y-115854999I0J-249999D01*
G01*
X124525000Y-116555001D01*
G75*
G02*
X124275001Y-116805000I-249999J0D01*
G01*
G37*
G36*
G01*
X123495000Y-111575001D02*
X123495000Y-110674999D01*
G75*
G02*
X123744999Y-110425000I249999J0D01*
G01*
X124445001Y-110425000D01*
G75*
G02*
X124695000Y-110674999I0J-249999D01*
G01*
X124695000Y-111575001D01*
G75*
G02*
X124445001Y-111825000I-249999J0D01*
G01*
X123744999Y-111825000D01*
G75*
G02*
X123495000Y-111575001I0J249999D01*
G01*
G37*
G36*
G01*
X125495000Y-111575001D02*
X125495000Y-110674999D01*
G75*
G02*
X125744999Y-110425000I249999J0D01*
G01*
X126445001Y-110425000D01*
G75*
G02*
X126695000Y-110674999I0J-249999D01*
G01*
X126695000Y-111575001D01*
G75*
G02*
X126445001Y-111825000I-249999J0D01*
G01*
X125744999Y-111825000D01*
G75*
G02*
X125495000Y-111575001I0J249999D01*
G01*
G37*
G36*
G01*
X111630000Y-67494999D02*
X111630000Y-68395001D01*
G75*
G02*
X111380001Y-68645000I-249999J0D01*
G01*
X110679999Y-68645000D01*
G75*
G02*
X110430000Y-68395001I0J249999D01*
G01*
X110430000Y-67494999D01*
G75*
G02*
X110679999Y-67245000I249999J0D01*
G01*
X111380001Y-67245000D01*
G75*
G02*
X111630000Y-67494999I0J-249999D01*
G01*
G37*
G36*
G01*
X113630000Y-67494999D02*
X113630000Y-68395001D01*
G75*
G02*
X113380001Y-68645000I-249999J0D01*
G01*
X112679999Y-68645000D01*
G75*
G02*
X112430000Y-68395001I0J249999D01*
G01*
X112430000Y-67494999D01*
G75*
G02*
X112679999Y-67245000I249999J0D01*
G01*
X113380001Y-67245000D01*
G75*
G02*
X113630000Y-67494999I0J-249999D01*
G01*
G37*
G36*
G01*
X126815001Y-116805000D02*
X125914999Y-116805000D01*
G75*
G02*
X125665000Y-116555001I0J249999D01*
G01*
X125665000Y-115854999D01*
G75*
G02*
X125914999Y-115605000I249999J0D01*
G01*
X126815001Y-115605000D01*
G75*
G02*
X127065000Y-115854999I0J-249999D01*
G01*
X127065000Y-116555001D01*
G75*
G02*
X126815001Y-116805000I-249999J0D01*
G01*
G37*
G36*
G01*
X126815001Y-118805000D02*
X125914999Y-118805000D01*
G75*
G02*
X125665000Y-118555001I0J249999D01*
G01*
X125665000Y-117854999D01*
G75*
G02*
X125914999Y-117605000I249999J0D01*
G01*
X126815001Y-117605000D01*
G75*
G02*
X127065000Y-117854999I0J-249999D01*
G01*
X127065000Y-118555001D01*
G75*
G02*
X126815001Y-118805000I-249999J0D01*
G01*
G37*
G36*
G01*
X128035000Y-114115001D02*
X128035000Y-113214999D01*
G75*
G02*
X128284999Y-112965000I249999J0D01*
G01*
X128985001Y-112965000D01*
G75*
G02*
X129235000Y-113214999I0J-249999D01*
G01*
X129235000Y-114115001D01*
G75*
G02*
X128985001Y-114365000I-249999J0D01*
G01*
X128284999Y-114365000D01*
G75*
G02*
X128035000Y-114115001I0J249999D01*
G01*
G37*
G36*
G01*
X126035000Y-114115001D02*
X126035000Y-113214999D01*
G75*
G02*
X126284999Y-112965000I249999J0D01*
G01*
X126985001Y-112965000D01*
G75*
G02*
X127235000Y-113214999I0J-249999D01*
G01*
X127235000Y-114115001D01*
G75*
G02*
X126985001Y-114365000I-249999J0D01*
G01*
X126284999Y-114365000D01*
G75*
G02*
X126035000Y-114115001I0J249999D01*
G01*
G37*
G36*
G01*
X129355001Y-118805000D02*
X128454999Y-118805000D01*
G75*
G02*
X128205000Y-118555001I0J249999D01*
G01*
X128205000Y-117854999D01*
G75*
G02*
X128454999Y-117605000I249999J0D01*
G01*
X129355001Y-117605000D01*
G75*
G02*
X129605000Y-117854999I0J-249999D01*
G01*
X129605000Y-118555001D01*
G75*
G02*
X129355001Y-118805000I-249999J0D01*
G01*
G37*
G36*
G01*
X129355001Y-116805000D02*
X128454999Y-116805000D01*
G75*
G02*
X128205000Y-116555001I0J249999D01*
G01*
X128205000Y-115854999D01*
G75*
G02*
X128454999Y-115605000I249999J0D01*
G01*
X129355001Y-115605000D01*
G75*
G02*
X129605000Y-115854999I0J-249999D01*
G01*
X129605000Y-116555001D01*
G75*
G02*
X129355001Y-116805000I-249999J0D01*
G01*
G37*
G36*
G01*
X128575000Y-111575001D02*
X128575000Y-110674999D01*
G75*
G02*
X128824999Y-110425000I249999J0D01*
G01*
X129525001Y-110425000D01*
G75*
G02*
X129775000Y-110674999I0J-249999D01*
G01*
X129775000Y-111575001D01*
G75*
G02*
X129525001Y-111825000I-249999J0D01*
G01*
X128824999Y-111825000D01*
G75*
G02*
X128575000Y-111575001I0J249999D01*
G01*
G37*
G36*
G01*
X130575000Y-111575001D02*
X130575000Y-110674999D01*
G75*
G02*
X130824999Y-110425000I249999J0D01*
G01*
X131525001Y-110425000D01*
G75*
G02*
X131775000Y-110674999I0J-249999D01*
G01*
X131775000Y-111575001D01*
G75*
G02*
X131525001Y-111825000I-249999J0D01*
G01*
X130824999Y-111825000D01*
G75*
G02*
X130575000Y-111575001I0J249999D01*
G01*
G37*
G36*
G01*
X131895001Y-116805000D02*
X130994999Y-116805000D01*
G75*
G02*
X130745000Y-116555001I0J249999D01*
G01*
X130745000Y-115854999D01*
G75*
G02*
X130994999Y-115605000I249999J0D01*
G01*
X131895001Y-115605000D01*
G75*
G02*
X132145000Y-115854999I0J-249999D01*
G01*
X132145000Y-116555001D01*
G75*
G02*
X131895001Y-116805000I-249999J0D01*
G01*
G37*
G36*
G01*
X131895001Y-118805000D02*
X130994999Y-118805000D01*
G75*
G02*
X130745000Y-118555001I0J249999D01*
G01*
X130745000Y-117854999D01*
G75*
G02*
X130994999Y-117605000I249999J0D01*
G01*
X131895001Y-117605000D01*
G75*
G02*
X132145000Y-117854999I0J-249999D01*
G01*
X132145000Y-118555001D01*
G75*
G02*
X131895001Y-118805000I-249999J0D01*
G01*
G37*
G36*
G01*
X131115000Y-114115001D02*
X131115000Y-113214999D01*
G75*
G02*
X131364999Y-112965000I249999J0D01*
G01*
X132065001Y-112965000D01*
G75*
G02*
X132315000Y-113214999I0J-249999D01*
G01*
X132315000Y-114115001D01*
G75*
G02*
X132065001Y-114365000I-249999J0D01*
G01*
X131364999Y-114365000D01*
G75*
G02*
X131115000Y-114115001I0J249999D01*
G01*
G37*
G36*
G01*
X133115000Y-114115001D02*
X133115000Y-113214999D01*
G75*
G02*
X133364999Y-112965000I249999J0D01*
G01*
X134065001Y-112965000D01*
G75*
G02*
X134315000Y-113214999I0J-249999D01*
G01*
X134315000Y-114115001D01*
G75*
G02*
X134065001Y-114365000I-249999J0D01*
G01*
X133364999Y-114365000D01*
G75*
G02*
X133115000Y-114115001I0J249999D01*
G01*
G37*
G36*
G01*
X134435001Y-116805000D02*
X133534999Y-116805000D01*
G75*
G02*
X133285000Y-116555001I0J249999D01*
G01*
X133285000Y-115854999D01*
G75*
G02*
X133534999Y-115605000I249999J0D01*
G01*
X134435001Y-115605000D01*
G75*
G02*
X134685000Y-115854999I0J-249999D01*
G01*
X134685000Y-116555001D01*
G75*
G02*
X134435001Y-116805000I-249999J0D01*
G01*
G37*
G36*
G01*
X134435001Y-118805000D02*
X133534999Y-118805000D01*
G75*
G02*
X133285000Y-118555001I0J249999D01*
G01*
X133285000Y-117854999D01*
G75*
G02*
X133534999Y-117605000I249999J0D01*
G01*
X134435001Y-117605000D01*
G75*
G02*
X134685000Y-117854999I0J-249999D01*
G01*
X134685000Y-118555001D01*
G75*
G02*
X134435001Y-118805000I-249999J0D01*
G01*
G37*
G36*
G01*
X134435001Y-111725000D02*
X133534999Y-111725000D01*
G75*
G02*
X133285000Y-111475001I0J249999D01*
G01*
X133285000Y-110774999D01*
G75*
G02*
X133534999Y-110525000I249999J0D01*
G01*
X134435001Y-110525000D01*
G75*
G02*
X134685000Y-110774999I0J-249999D01*
G01*
X134685000Y-111475001D01*
G75*
G02*
X134435001Y-111725000I-249999J0D01*
G01*
G37*
G36*
G01*
X134435001Y-109725000D02*
X133534999Y-109725000D01*
G75*
G02*
X133285000Y-109475001I0J249999D01*
G01*
X133285000Y-108774999D01*
G75*
G02*
X133534999Y-108525000I249999J0D01*
G01*
X134435001Y-108525000D01*
G75*
G02*
X134685000Y-108774999I0J-249999D01*
G01*
X134685000Y-109475001D01*
G75*
G02*
X134435001Y-109725000I-249999J0D01*
G01*
G37*
G36*
G01*
X141420001Y-115900000D02*
X140519999Y-115900000D01*
G75*
G02*
X140270000Y-115650001I0J249999D01*
G01*
X140270000Y-114949999D01*
G75*
G02*
X140519999Y-114700000I249999J0D01*
G01*
X141420001Y-114700000D01*
G75*
G02*
X141670000Y-114949999I0J-249999D01*
G01*
X141670000Y-115650001D01*
G75*
G02*
X141420001Y-115900000I-249999J0D01*
G01*
G37*
G36*
G01*
X141420001Y-113900000D02*
X140519999Y-113900000D01*
G75*
G02*
X140270000Y-113650001I0J249999D01*
G01*
X140270000Y-112949999D01*
G75*
G02*
X140519999Y-112700000I249999J0D01*
G01*
X141420001Y-112700000D01*
G75*
G02*
X141670000Y-112949999I0J-249999D01*
G01*
X141670000Y-113650001D01*
G75*
G02*
X141420001Y-113900000I-249999J0D01*
G01*
G37*
G36*
G01*
X142370000Y-111575001D02*
X142370000Y-110674999D01*
G75*
G02*
X142619999Y-110425000I249999J0D01*
G01*
X143320001Y-110425000D01*
G75*
G02*
X143570000Y-110674999I0J-249999D01*
G01*
X143570000Y-111575001D01*
G75*
G02*
X143320001Y-111825000I-249999J0D01*
G01*
X142619999Y-111825000D01*
G75*
G02*
X142370000Y-111575001I0J249999D01*
G01*
G37*
G36*
G01*
X140370000Y-111575001D02*
X140370000Y-110674999D01*
G75*
G02*
X140619999Y-110425000I249999J0D01*
G01*
X141320001Y-110425000D01*
G75*
G02*
X141570000Y-110674999I0J-249999D01*
G01*
X141570000Y-111575001D01*
G75*
G02*
X141320001Y-111825000I-249999J0D01*
G01*
X140619999Y-111825000D01*
G75*
G02*
X140370000Y-111575001I0J249999D01*
G01*
G37*
G36*
G01*
X142424999Y-79680000D02*
X143325001Y-79680000D01*
G75*
G02*
X143575000Y-79929999I0J-249999D01*
G01*
X143575000Y-80630001D01*
G75*
G02*
X143325001Y-80880000I-249999J0D01*
G01*
X142424999Y-80880000D01*
G75*
G02*
X142175000Y-80630001I0J249999D01*
G01*
X142175000Y-79929999D01*
G75*
G02*
X142424999Y-79680000I249999J0D01*
G01*
G37*
G36*
G01*
X142424999Y-81680000D02*
X143325001Y-81680000D01*
G75*
G02*
X143575000Y-81929999I0J-249999D01*
G01*
X143575000Y-82630001D01*
G75*
G02*
X143325001Y-82880000I-249999J0D01*
G01*
X142424999Y-82880000D01*
G75*
G02*
X142175000Y-82630001I0J249999D01*
G01*
X142175000Y-81929999D01*
G75*
G02*
X142424999Y-81680000I249999J0D01*
G01*
G37*
G36*
G01*
X145865001Y-80880000D02*
X144964999Y-80880000D01*
G75*
G02*
X144715000Y-80630001I0J249999D01*
G01*
X144715000Y-79929999D01*
G75*
G02*
X144964999Y-79680000I249999J0D01*
G01*
X145865001Y-79680000D01*
G75*
G02*
X146115000Y-79929999I0J-249999D01*
G01*
X146115000Y-80630001D01*
G75*
G02*
X145865001Y-80880000I-249999J0D01*
G01*
G37*
G36*
G01*
X145865001Y-82880000D02*
X144964999Y-82880000D01*
G75*
G02*
X144715000Y-82630001I0J249999D01*
G01*
X144715000Y-81929999D01*
G75*
G02*
X144964999Y-81680000I249999J0D01*
G01*
X145865001Y-81680000D01*
G75*
G02*
X146115000Y-81929999I0J-249999D01*
G01*
X146115000Y-82630001D01*
G75*
G02*
X145865001Y-82880000I-249999J0D01*
G01*
G37*
G36*
G01*
X159928000Y-91636001D02*
X159928000Y-90735999D01*
G75*
G02*
X160177999Y-90486000I249999J0D01*
G01*
X160878001Y-90486000D01*
G75*
G02*
X161128000Y-90735999I0J-249999D01*
G01*
X161128000Y-91636001D01*
G75*
G02*
X160878001Y-91886000I-249999J0D01*
G01*
X160177999Y-91886000D01*
G75*
G02*
X159928000Y-91636001I0J249999D01*
G01*
G37*
G36*
G01*
X157928000Y-91636001D02*
X157928000Y-90735999D01*
G75*
G02*
X158177999Y-90486000I249999J0D01*
G01*
X158878001Y-90486000D01*
G75*
G02*
X159128000Y-90735999I0J-249999D01*
G01*
X159128000Y-91636001D01*
G75*
G02*
X158878001Y-91886000I-249999J0D01*
G01*
X158177999Y-91886000D01*
G75*
G02*
X157928000Y-91636001I0J249999D01*
G01*
G37*
G36*
G01*
X157928000Y-89096001D02*
X157928000Y-88195999D01*
G75*
G02*
X158177999Y-87946000I249999J0D01*
G01*
X158878001Y-87946000D01*
G75*
G02*
X159128000Y-88195999I0J-249999D01*
G01*
X159128000Y-89096001D01*
G75*
G02*
X158878001Y-89346000I-249999J0D01*
G01*
X158177999Y-89346000D01*
G75*
G02*
X157928000Y-89096001I0J249999D01*
G01*
G37*
G36*
G01*
X159928000Y-89096001D02*
X159928000Y-88195999D01*
G75*
G02*
X160177999Y-87946000I249999J0D01*
G01*
X160878001Y-87946000D01*
G75*
G02*
X161128000Y-88195999I0J-249999D01*
G01*
X161128000Y-89096001D01*
G75*
G02*
X160878001Y-89346000I-249999J0D01*
G01*
X160177999Y-89346000D01*
G75*
G02*
X159928000Y-89096001I0J249999D01*
G01*
G37*
G36*
G01*
X132264999Y-78870000D02*
X133165001Y-78870000D01*
G75*
G02*
X133415000Y-79119999I0J-249999D01*
G01*
X133415000Y-79820001D01*
G75*
G02*
X133165001Y-80070000I-249999J0D01*
G01*
X132264999Y-80070000D01*
G75*
G02*
X132015000Y-79820001I0J249999D01*
G01*
X132015000Y-79119999D01*
G75*
G02*
X132264999Y-78870000I249999J0D01*
G01*
G37*
G36*
G01*
X132264999Y-76870000D02*
X133165001Y-76870000D01*
G75*
G02*
X133415000Y-77119999I0J-249999D01*
G01*
X133415000Y-77820001D01*
G75*
G02*
X133165001Y-78070000I-249999J0D01*
G01*
X132264999Y-78070000D01*
G75*
G02*
X132015000Y-77820001I0J249999D01*
G01*
X132015000Y-77119999D01*
G75*
G02*
X132264999Y-76870000I249999J0D01*
G01*
G37*
G36*
G01*
X125545001Y-80070000D02*
X124644999Y-80070000D01*
G75*
G02*
X124395000Y-79820001I0J249999D01*
G01*
X124395000Y-79119999D01*
G75*
G02*
X124644999Y-78870000I249999J0D01*
G01*
X125545001Y-78870000D01*
G75*
G02*
X125795000Y-79119999I0J-249999D01*
G01*
X125795000Y-79820001D01*
G75*
G02*
X125545001Y-80070000I-249999J0D01*
G01*
G37*
G36*
G01*
X125545001Y-78070000D02*
X124644999Y-78070000D01*
G75*
G02*
X124395000Y-77820001I0J249999D01*
G01*
X124395000Y-77119999D01*
G75*
G02*
X124644999Y-76870000I249999J0D01*
G01*
X125545001Y-76870000D01*
G75*
G02*
X125795000Y-77119999I0J-249999D01*
G01*
X125795000Y-77820001D01*
G75*
G02*
X125545001Y-78070000I-249999J0D01*
G01*
G37*
G36*
G01*
X130625001Y-82515000D02*
X129724999Y-82515000D01*
G75*
G02*
X129475000Y-82265001I0J249999D01*
G01*
X129475000Y-81564999D01*
G75*
G02*
X129724999Y-81315000I249999J0D01*
G01*
X130625001Y-81315000D01*
G75*
G02*
X130875000Y-81564999I0J-249999D01*
G01*
X130875000Y-82265001D01*
G75*
G02*
X130625001Y-82515000I-249999J0D01*
G01*
G37*
G36*
G01*
X130625001Y-84515000D02*
X129724999Y-84515000D01*
G75*
G02*
X129475000Y-84265001I0J249999D01*
G01*
X129475000Y-83564999D01*
G75*
G02*
X129724999Y-83315000I249999J0D01*
G01*
X130625001Y-83315000D01*
G75*
G02*
X130875000Y-83564999I0J-249999D01*
G01*
X130875000Y-84265001D01*
G75*
G02*
X130625001Y-84515000I-249999J0D01*
G01*
G37*
G36*
G01*
X128085001Y-84515000D02*
X127184999Y-84515000D01*
G75*
G02*
X126935000Y-84265001I0J249999D01*
G01*
X126935000Y-83564999D01*
G75*
G02*
X127184999Y-83315000I249999J0D01*
G01*
X128085001Y-83315000D01*
G75*
G02*
X128335000Y-83564999I0J-249999D01*
G01*
X128335000Y-84265001D01*
G75*
G02*
X128085001Y-84515000I-249999J0D01*
G01*
G37*
G36*
G01*
X128085001Y-82515000D02*
X127184999Y-82515000D01*
G75*
G02*
X126935000Y-82265001I0J249999D01*
G01*
X126935000Y-81564999D01*
G75*
G02*
X127184999Y-81315000I249999J0D01*
G01*
X128085001Y-81315000D01*
G75*
G02*
X128335000Y-81564999I0J-249999D01*
G01*
X128335000Y-82265001D01*
G75*
G02*
X128085001Y-82515000I-249999J0D01*
G01*
G37*
G36*
G01*
X130625001Y-86960000D02*
X129724999Y-86960000D01*
G75*
G02*
X129475000Y-86710001I0J249999D01*
G01*
X129475000Y-86009999D01*
G75*
G02*
X129724999Y-85760000I249999J0D01*
G01*
X130625001Y-85760000D01*
G75*
G02*
X130875000Y-86009999I0J-249999D01*
G01*
X130875000Y-86710001D01*
G75*
G02*
X130625001Y-86960000I-249999J0D01*
G01*
G37*
G36*
G01*
X130625001Y-88960000D02*
X129724999Y-88960000D01*
G75*
G02*
X129475000Y-88710001I0J249999D01*
G01*
X129475000Y-88009999D01*
G75*
G02*
X129724999Y-87760000I249999J0D01*
G01*
X130625001Y-87760000D01*
G75*
G02*
X130875000Y-88009999I0J-249999D01*
G01*
X130875000Y-88710001D01*
G75*
G02*
X130625001Y-88960000I-249999J0D01*
G01*
G37*
G36*
G01*
X128085001Y-88960000D02*
X127184999Y-88960000D01*
G75*
G02*
X126935000Y-88710001I0J249999D01*
G01*
X126935000Y-88009999D01*
G75*
G02*
X127184999Y-87760000I249999J0D01*
G01*
X128085001Y-87760000D01*
G75*
G02*
X128335000Y-88009999I0J-249999D01*
G01*
X128335000Y-88710001D01*
G75*
G02*
X128085001Y-88960000I-249999J0D01*
G01*
G37*
G36*
G01*
X128085001Y-86960000D02*
X127184999Y-86960000D01*
G75*
G02*
X126935000Y-86710001I0J249999D01*
G01*
X126935000Y-86009999D01*
G75*
G02*
X127184999Y-85760000I249999J0D01*
G01*
X128085001Y-85760000D01*
G75*
G02*
X128335000Y-86009999I0J-249999D01*
G01*
X128335000Y-86710001D01*
G75*
G02*
X128085001Y-86960000I-249999J0D01*
G01*
G37*
G36*
G01*
X93380000Y-70300001D02*
X93380000Y-69399999D01*
G75*
G02*
X93629999Y-69150000I249999J0D01*
G01*
X94330001Y-69150000D01*
G75*
G02*
X94580000Y-69399999I0J-249999D01*
G01*
X94580000Y-70300001D01*
G75*
G02*
X94330001Y-70550000I-249999J0D01*
G01*
X93629999Y-70550000D01*
G75*
G02*
X93380000Y-70300001I0J249999D01*
G01*
G37*
G36*
G01*
X91380000Y-70300001D02*
X91380000Y-69399999D01*
G75*
G02*
X91629999Y-69150000I249999J0D01*
G01*
X92330001Y-69150000D01*
G75*
G02*
X92580000Y-69399999I0J-249999D01*
G01*
X92580000Y-70300001D01*
G75*
G02*
X92330001Y-70550000I-249999J0D01*
G01*
X91629999Y-70550000D01*
G75*
G02*
X91380000Y-70300001I0J249999D01*
G01*
G37*
G36*
G01*
X91380000Y-74745001D02*
X91380000Y-73844999D01*
G75*
G02*
X91629999Y-73595000I249999J0D01*
G01*
X92330001Y-73595000D01*
G75*
G02*
X92580000Y-73844999I0J-249999D01*
G01*
X92580000Y-74745001D01*
G75*
G02*
X92330001Y-74995000I-249999J0D01*
G01*
X91629999Y-74995000D01*
G75*
G02*
X91380000Y-74745001I0J249999D01*
G01*
G37*
G36*
G01*
X93380000Y-74745001D02*
X93380000Y-73844999D01*
G75*
G02*
X93629999Y-73595000I249999J0D01*
G01*
X94330001Y-73595000D01*
G75*
G02*
X94580000Y-73844999I0J-249999D01*
G01*
X94580000Y-74745001D01*
G75*
G02*
X94330001Y-74995000I-249999J0D01*
G01*
X93629999Y-74995000D01*
G75*
G02*
X93380000Y-74745001I0J249999D01*
G01*
G37*
G36*
G01*
X119440000Y-80829999D02*
X119440000Y-81730001D01*
G75*
G02*
X119190001Y-81980000I-249999J0D01*
G01*
X118489999Y-81980000D01*
G75*
G02*
X118240000Y-81730001I0J249999D01*
G01*
X118240000Y-80829999D01*
G75*
G02*
X118489999Y-80580000I249999J0D01*
G01*
X119190001Y-80580000D01*
G75*
G02*
X119440000Y-80829999I0J-249999D01*
G01*
G37*
G36*
G01*
X117440000Y-80829999D02*
X117440000Y-81730001D01*
G75*
G02*
X117190001Y-81980000I-249999J0D01*
G01*
X116489999Y-81980000D01*
G75*
G02*
X116240000Y-81730001I0J249999D01*
G01*
X116240000Y-80829999D01*
G75*
G02*
X116489999Y-80580000I249999J0D01*
G01*
X117190001Y-80580000D01*
G75*
G02*
X117440000Y-80829999I0J-249999D01*
G01*
G37*
G36*
G01*
X117440000Y-83369999D02*
X117440000Y-84270001D01*
G75*
G02*
X117190001Y-84520000I-249999J0D01*
G01*
X116489999Y-84520000D01*
G75*
G02*
X116240000Y-84270001I0J249999D01*
G01*
X116240000Y-83369999D01*
G75*
G02*
X116489999Y-83120000I249999J0D01*
G01*
X117190001Y-83120000D01*
G75*
G02*
X117440000Y-83369999I0J-249999D01*
G01*
G37*
G36*
G01*
X119440000Y-83369999D02*
X119440000Y-84270001D01*
G75*
G02*
X119190001Y-84520000I-249999J0D01*
G01*
X118489999Y-84520000D01*
G75*
G02*
X118240000Y-84270001I0J249999D01*
G01*
X118240000Y-83369999D01*
G75*
G02*
X118489999Y-83120000I249999J0D01*
G01*
X119190001Y-83120000D01*
G75*
G02*
X119440000Y-83369999I0J-249999D01*
G01*
G37*
D17*
X152738000Y-113030000D03*
X152738000Y-112080000D03*
X152738000Y-113980000D03*
X150538000Y-113980000D03*
X150538000Y-113030000D03*
X150538000Y-112080000D03*
G36*
G01*
X102520000Y-71115000D02*
X102720000Y-71115000D01*
G75*
G02*
X102820000Y-71215000I0J-100000D01*
G01*
X102820000Y-72915000D01*
G75*
G02*
X102720000Y-73015000I-100000J0D01*
G01*
X102520000Y-73015000D01*
G75*
G02*
X102420000Y-72915000I0J100000D01*
G01*
X102420000Y-71215000D01*
G75*
G02*
X102520000Y-71115000I100000J0D01*
G01*
G37*
G36*
G01*
X101870000Y-71115000D02*
X102070000Y-71115000D01*
G75*
G02*
X102170000Y-71215000I0J-100000D01*
G01*
X102170000Y-72915000D01*
G75*
G02*
X102070000Y-73015000I-100000J0D01*
G01*
X101870000Y-73015000D01*
G75*
G02*
X101770000Y-72915000I0J100000D01*
G01*
X101770000Y-71215000D01*
G75*
G02*
X101870000Y-71115000I100000J0D01*
G01*
G37*
G36*
G01*
X101220000Y-71115000D02*
X101420000Y-71115000D01*
G75*
G02*
X101520000Y-71215000I0J-100000D01*
G01*
X101520000Y-72915000D01*
G75*
G02*
X101420000Y-73015000I-100000J0D01*
G01*
X101220000Y-73015000D01*
G75*
G02*
X101120000Y-72915000I0J100000D01*
G01*
X101120000Y-71215000D01*
G75*
G02*
X101220000Y-71115000I100000J0D01*
G01*
G37*
G36*
G01*
X100570000Y-71115000D02*
X100770000Y-71115000D01*
G75*
G02*
X100870000Y-71215000I0J-100000D01*
G01*
X100870000Y-72915000D01*
G75*
G02*
X100770000Y-73015000I-100000J0D01*
G01*
X100570000Y-73015000D01*
G75*
G02*
X100470000Y-72915000I0J100000D01*
G01*
X100470000Y-71215000D01*
G75*
G02*
X100570000Y-71115000I100000J0D01*
G01*
G37*
G36*
G01*
X99920000Y-71115000D02*
X100120000Y-71115000D01*
G75*
G02*
X100220000Y-71215000I0J-100000D01*
G01*
X100220000Y-72915000D01*
G75*
G02*
X100120000Y-73015000I-100000J0D01*
G01*
X99920000Y-73015000D01*
G75*
G02*
X99820000Y-72915000I0J100000D01*
G01*
X99820000Y-71215000D01*
G75*
G02*
X99920000Y-71115000I100000J0D01*
G01*
G37*
G36*
G01*
X99270000Y-71115000D02*
X99470000Y-71115000D01*
G75*
G02*
X99570000Y-71215000I0J-100000D01*
G01*
X99570000Y-72915000D01*
G75*
G02*
X99470000Y-73015000I-100000J0D01*
G01*
X99270000Y-73015000D01*
G75*
G02*
X99170000Y-72915000I0J100000D01*
G01*
X99170000Y-71215000D01*
G75*
G02*
X99270000Y-71115000I100000J0D01*
G01*
G37*
G36*
G01*
X98620000Y-71115000D02*
X98820000Y-71115000D01*
G75*
G02*
X98920000Y-71215000I0J-100000D01*
G01*
X98920000Y-72915000D01*
G75*
G02*
X98820000Y-73015000I-100000J0D01*
G01*
X98620000Y-73015000D01*
G75*
G02*
X98520000Y-72915000I0J100000D01*
G01*
X98520000Y-71215000D01*
G75*
G02*
X98620000Y-71115000I100000J0D01*
G01*
G37*
G36*
G01*
X97970000Y-71115000D02*
X98170000Y-71115000D01*
G75*
G02*
X98270000Y-71215000I0J-100000D01*
G01*
X98270000Y-72915000D01*
G75*
G02*
X98170000Y-73015000I-100000J0D01*
G01*
X97970000Y-73015000D01*
G75*
G02*
X97870000Y-72915000I0J100000D01*
G01*
X97870000Y-71215000D01*
G75*
G02*
X97970000Y-71115000I100000J0D01*
G01*
G37*
G36*
G01*
X97320000Y-71115000D02*
X97520000Y-71115000D01*
G75*
G02*
X97620000Y-71215000I0J-100000D01*
G01*
X97620000Y-72915000D01*
G75*
G02*
X97520000Y-73015000I-100000J0D01*
G01*
X97320000Y-73015000D01*
G75*
G02*
X97220000Y-72915000I0J100000D01*
G01*
X97220000Y-71215000D01*
G75*
G02*
X97320000Y-71115000I100000J0D01*
G01*
G37*
G36*
G01*
X96670000Y-71115000D02*
X96870000Y-71115000D01*
G75*
G02*
X96970000Y-71215000I0J-100000D01*
G01*
X96970000Y-72915000D01*
G75*
G02*
X96870000Y-73015000I-100000J0D01*
G01*
X96670000Y-73015000D01*
G75*
G02*
X96570000Y-72915000I0J100000D01*
G01*
X96570000Y-71215000D01*
G75*
G02*
X96670000Y-71115000I100000J0D01*
G01*
G37*
G36*
G01*
X96670000Y-78115000D02*
X96870000Y-78115000D01*
G75*
G02*
X96970000Y-78215000I0J-100000D01*
G01*
X96970000Y-79915000D01*
G75*
G02*
X96870000Y-80015000I-100000J0D01*
G01*
X96670000Y-80015000D01*
G75*
G02*
X96570000Y-79915000I0J100000D01*
G01*
X96570000Y-78215000D01*
G75*
G02*
X96670000Y-78115000I100000J0D01*
G01*
G37*
G36*
G01*
X97320000Y-78115000D02*
X97520000Y-78115000D01*
G75*
G02*
X97620000Y-78215000I0J-100000D01*
G01*
X97620000Y-79915000D01*
G75*
G02*
X97520000Y-80015000I-100000J0D01*
G01*
X97320000Y-80015000D01*
G75*
G02*
X97220000Y-79915000I0J100000D01*
G01*
X97220000Y-78215000D01*
G75*
G02*
X97320000Y-78115000I100000J0D01*
G01*
G37*
G36*
G01*
X97970000Y-78115000D02*
X98170000Y-78115000D01*
G75*
G02*
X98270000Y-78215000I0J-100000D01*
G01*
X98270000Y-79915000D01*
G75*
G02*
X98170000Y-80015000I-100000J0D01*
G01*
X97970000Y-80015000D01*
G75*
G02*
X97870000Y-79915000I0J100000D01*
G01*
X97870000Y-78215000D01*
G75*
G02*
X97970000Y-78115000I100000J0D01*
G01*
G37*
G36*
G01*
X98620000Y-78115000D02*
X98820000Y-78115000D01*
G75*
G02*
X98920000Y-78215000I0J-100000D01*
G01*
X98920000Y-79915000D01*
G75*
G02*
X98820000Y-80015000I-100000J0D01*
G01*
X98620000Y-80015000D01*
G75*
G02*
X98520000Y-79915000I0J100000D01*
G01*
X98520000Y-78215000D01*
G75*
G02*
X98620000Y-78115000I100000J0D01*
G01*
G37*
G36*
G01*
X99270000Y-78115000D02*
X99470000Y-78115000D01*
G75*
G02*
X99570000Y-78215000I0J-100000D01*
G01*
X99570000Y-79915000D01*
G75*
G02*
X99470000Y-80015000I-100000J0D01*
G01*
X99270000Y-80015000D01*
G75*
G02*
X99170000Y-79915000I0J100000D01*
G01*
X99170000Y-78215000D01*
G75*
G02*
X99270000Y-78115000I100000J0D01*
G01*
G37*
G36*
G01*
X99920000Y-78115000D02*
X100120000Y-78115000D01*
G75*
G02*
X100220000Y-78215000I0J-100000D01*
G01*
X100220000Y-79915000D01*
G75*
G02*
X100120000Y-80015000I-100000J0D01*
G01*
X99920000Y-80015000D01*
G75*
G02*
X99820000Y-79915000I0J100000D01*
G01*
X99820000Y-78215000D01*
G75*
G02*
X99920000Y-78115000I100000J0D01*
G01*
G37*
G36*
G01*
X100570000Y-78115000D02*
X100770000Y-78115000D01*
G75*
G02*
X100870000Y-78215000I0J-100000D01*
G01*
X100870000Y-79915000D01*
G75*
G02*
X100770000Y-80015000I-100000J0D01*
G01*
X100570000Y-80015000D01*
G75*
G02*
X100470000Y-79915000I0J100000D01*
G01*
X100470000Y-78215000D01*
G75*
G02*
X100570000Y-78115000I100000J0D01*
G01*
G37*
G36*
G01*
X101220000Y-78115000D02*
X101420000Y-78115000D01*
G75*
G02*
X101520000Y-78215000I0J-100000D01*
G01*
X101520000Y-79915000D01*
G75*
G02*
X101420000Y-80015000I-100000J0D01*
G01*
X101220000Y-80015000D01*
G75*
G02*
X101120000Y-79915000I0J100000D01*
G01*
X101120000Y-78215000D01*
G75*
G02*
X101220000Y-78115000I100000J0D01*
G01*
G37*
G36*
G01*
X101870000Y-78115000D02*
X102070000Y-78115000D01*
G75*
G02*
X102170000Y-78215000I0J-100000D01*
G01*
X102170000Y-79915000D01*
G75*
G02*
X102070000Y-80015000I-100000J0D01*
G01*
X101870000Y-80015000D01*
G75*
G02*
X101770000Y-79915000I0J100000D01*
G01*
X101770000Y-78215000D01*
G75*
G02*
X101870000Y-78115000I100000J0D01*
G01*
G37*
G36*
G01*
X102520000Y-78115000D02*
X102720000Y-78115000D01*
G75*
G02*
X102820000Y-78215000I0J-100000D01*
G01*
X102820000Y-79915000D01*
G75*
G02*
X102720000Y-80015000I-100000J0D01*
G01*
X102520000Y-80015000D01*
G75*
G02*
X102420000Y-79915000I0J100000D01*
G01*
X102420000Y-78215000D01*
G75*
G02*
X102520000Y-78115000I100000J0D01*
G01*
G37*
G36*
G01*
X113950000Y-78115000D02*
X114150000Y-78115000D01*
G75*
G02*
X114250000Y-78215000I0J-100000D01*
G01*
X114250000Y-79915000D01*
G75*
G02*
X114150000Y-80015000I-100000J0D01*
G01*
X113950000Y-80015000D01*
G75*
G02*
X113850000Y-79915000I0J100000D01*
G01*
X113850000Y-78215000D01*
G75*
G02*
X113950000Y-78115000I100000J0D01*
G01*
G37*
G36*
G01*
X113300000Y-78115000D02*
X113500000Y-78115000D01*
G75*
G02*
X113600000Y-78215000I0J-100000D01*
G01*
X113600000Y-79915000D01*
G75*
G02*
X113500000Y-80015000I-100000J0D01*
G01*
X113300000Y-80015000D01*
G75*
G02*
X113200000Y-79915000I0J100000D01*
G01*
X113200000Y-78215000D01*
G75*
G02*
X113300000Y-78115000I100000J0D01*
G01*
G37*
G36*
G01*
X112650000Y-78115000D02*
X112850000Y-78115000D01*
G75*
G02*
X112950000Y-78215000I0J-100000D01*
G01*
X112950000Y-79915000D01*
G75*
G02*
X112850000Y-80015000I-100000J0D01*
G01*
X112650000Y-80015000D01*
G75*
G02*
X112550000Y-79915000I0J100000D01*
G01*
X112550000Y-78215000D01*
G75*
G02*
X112650000Y-78115000I100000J0D01*
G01*
G37*
G36*
G01*
X112000000Y-78115000D02*
X112200000Y-78115000D01*
G75*
G02*
X112300000Y-78215000I0J-100000D01*
G01*
X112300000Y-79915000D01*
G75*
G02*
X112200000Y-80015000I-100000J0D01*
G01*
X112000000Y-80015000D01*
G75*
G02*
X111900000Y-79915000I0J100000D01*
G01*
X111900000Y-78215000D01*
G75*
G02*
X112000000Y-78115000I100000J0D01*
G01*
G37*
G36*
G01*
X111350000Y-78115000D02*
X111550000Y-78115000D01*
G75*
G02*
X111650000Y-78215000I0J-100000D01*
G01*
X111650000Y-79915000D01*
G75*
G02*
X111550000Y-80015000I-100000J0D01*
G01*
X111350000Y-80015000D01*
G75*
G02*
X111250000Y-79915000I0J100000D01*
G01*
X111250000Y-78215000D01*
G75*
G02*
X111350000Y-78115000I100000J0D01*
G01*
G37*
G36*
G01*
X110700000Y-78115000D02*
X110900000Y-78115000D01*
G75*
G02*
X111000000Y-78215000I0J-100000D01*
G01*
X111000000Y-79915000D01*
G75*
G02*
X110900000Y-80015000I-100000J0D01*
G01*
X110700000Y-80015000D01*
G75*
G02*
X110600000Y-79915000I0J100000D01*
G01*
X110600000Y-78215000D01*
G75*
G02*
X110700000Y-78115000I100000J0D01*
G01*
G37*
G36*
G01*
X110050000Y-78115000D02*
X110250000Y-78115000D01*
G75*
G02*
X110350000Y-78215000I0J-100000D01*
G01*
X110350000Y-79915000D01*
G75*
G02*
X110250000Y-80015000I-100000J0D01*
G01*
X110050000Y-80015000D01*
G75*
G02*
X109950000Y-79915000I0J100000D01*
G01*
X109950000Y-78215000D01*
G75*
G02*
X110050000Y-78115000I100000J0D01*
G01*
G37*
G36*
G01*
X109400000Y-78115000D02*
X109600000Y-78115000D01*
G75*
G02*
X109700000Y-78215000I0J-100000D01*
G01*
X109700000Y-79915000D01*
G75*
G02*
X109600000Y-80015000I-100000J0D01*
G01*
X109400000Y-80015000D01*
G75*
G02*
X109300000Y-79915000I0J100000D01*
G01*
X109300000Y-78215000D01*
G75*
G02*
X109400000Y-78115000I100000J0D01*
G01*
G37*
G36*
G01*
X108750000Y-78115000D02*
X108950000Y-78115000D01*
G75*
G02*
X109050000Y-78215000I0J-100000D01*
G01*
X109050000Y-79915000D01*
G75*
G02*
X108950000Y-80015000I-100000J0D01*
G01*
X108750000Y-80015000D01*
G75*
G02*
X108650000Y-79915000I0J100000D01*
G01*
X108650000Y-78215000D01*
G75*
G02*
X108750000Y-78115000I100000J0D01*
G01*
G37*
G36*
G01*
X108100000Y-78115000D02*
X108300000Y-78115000D01*
G75*
G02*
X108400000Y-78215000I0J-100000D01*
G01*
X108400000Y-79915000D01*
G75*
G02*
X108300000Y-80015000I-100000J0D01*
G01*
X108100000Y-80015000D01*
G75*
G02*
X108000000Y-79915000I0J100000D01*
G01*
X108000000Y-78215000D01*
G75*
G02*
X108100000Y-78115000I100000J0D01*
G01*
G37*
G36*
G01*
X108100000Y-71115000D02*
X108300000Y-71115000D01*
G75*
G02*
X108400000Y-71215000I0J-100000D01*
G01*
X108400000Y-72915000D01*
G75*
G02*
X108300000Y-73015000I-100000J0D01*
G01*
X108100000Y-73015000D01*
G75*
G02*
X108000000Y-72915000I0J100000D01*
G01*
X108000000Y-71215000D01*
G75*
G02*
X108100000Y-71115000I100000J0D01*
G01*
G37*
G36*
G01*
X108750000Y-71115000D02*
X108950000Y-71115000D01*
G75*
G02*
X109050000Y-71215000I0J-100000D01*
G01*
X109050000Y-72915000D01*
G75*
G02*
X108950000Y-73015000I-100000J0D01*
G01*
X108750000Y-73015000D01*
G75*
G02*
X108650000Y-72915000I0J100000D01*
G01*
X108650000Y-71215000D01*
G75*
G02*
X108750000Y-71115000I100000J0D01*
G01*
G37*
G36*
G01*
X109400000Y-71115000D02*
X109600000Y-71115000D01*
G75*
G02*
X109700000Y-71215000I0J-100000D01*
G01*
X109700000Y-72915000D01*
G75*
G02*
X109600000Y-73015000I-100000J0D01*
G01*
X109400000Y-73015000D01*
G75*
G02*
X109300000Y-72915000I0J100000D01*
G01*
X109300000Y-71215000D01*
G75*
G02*
X109400000Y-71115000I100000J0D01*
G01*
G37*
G36*
G01*
X110050000Y-71115000D02*
X110250000Y-71115000D01*
G75*
G02*
X110350000Y-71215000I0J-100000D01*
G01*
X110350000Y-72915000D01*
G75*
G02*
X110250000Y-73015000I-100000J0D01*
G01*
X110050000Y-73015000D01*
G75*
G02*
X109950000Y-72915000I0J100000D01*
G01*
X109950000Y-71215000D01*
G75*
G02*
X110050000Y-71115000I100000J0D01*
G01*
G37*
G36*
G01*
X110700000Y-71115000D02*
X110900000Y-71115000D01*
G75*
G02*
X111000000Y-71215000I0J-100000D01*
G01*
X111000000Y-72915000D01*
G75*
G02*
X110900000Y-73015000I-100000J0D01*
G01*
X110700000Y-73015000D01*
G75*
G02*
X110600000Y-72915000I0J100000D01*
G01*
X110600000Y-71215000D01*
G75*
G02*
X110700000Y-71115000I100000J0D01*
G01*
G37*
G36*
G01*
X111350000Y-71115000D02*
X111550000Y-71115000D01*
G75*
G02*
X111650000Y-71215000I0J-100000D01*
G01*
X111650000Y-72915000D01*
G75*
G02*
X111550000Y-73015000I-100000J0D01*
G01*
X111350000Y-73015000D01*
G75*
G02*
X111250000Y-72915000I0J100000D01*
G01*
X111250000Y-71215000D01*
G75*
G02*
X111350000Y-71115000I100000J0D01*
G01*
G37*
G36*
G01*
X112000000Y-71115000D02*
X112200000Y-71115000D01*
G75*
G02*
X112300000Y-71215000I0J-100000D01*
G01*
X112300000Y-72915000D01*
G75*
G02*
X112200000Y-73015000I-100000J0D01*
G01*
X112000000Y-73015000D01*
G75*
G02*
X111900000Y-72915000I0J100000D01*
G01*
X111900000Y-71215000D01*
G75*
G02*
X112000000Y-71115000I100000J0D01*
G01*
G37*
G36*
G01*
X112650000Y-71115000D02*
X112850000Y-71115000D01*
G75*
G02*
X112950000Y-71215000I0J-100000D01*
G01*
X112950000Y-72915000D01*
G75*
G02*
X112850000Y-73015000I-100000J0D01*
G01*
X112650000Y-73015000D01*
G75*
G02*
X112550000Y-72915000I0J100000D01*
G01*
X112550000Y-71215000D01*
G75*
G02*
X112650000Y-71115000I100000J0D01*
G01*
G37*
G36*
G01*
X113300000Y-71115000D02*
X113500000Y-71115000D01*
G75*
G02*
X113600000Y-71215000I0J-100000D01*
G01*
X113600000Y-72915000D01*
G75*
G02*
X113500000Y-73015000I-100000J0D01*
G01*
X113300000Y-73015000D01*
G75*
G02*
X113200000Y-72915000I0J100000D01*
G01*
X113200000Y-71215000D01*
G75*
G02*
X113300000Y-71115000I100000J0D01*
G01*
G37*
G36*
G01*
X113950000Y-71115000D02*
X114150000Y-71115000D01*
G75*
G02*
X114250000Y-71215000I0J-100000D01*
G01*
X114250000Y-72915000D01*
G75*
G02*
X114150000Y-73015000I-100000J0D01*
G01*
X113950000Y-73015000D01*
G75*
G02*
X113850000Y-72915000I0J100000D01*
G01*
X113850000Y-71215000D01*
G75*
G02*
X113950000Y-71115000I100000J0D01*
G01*
G37*
X152738000Y-106172000D03*
X152738000Y-105222000D03*
X152738000Y-107122000D03*
X150538000Y-107122000D03*
X150538000Y-106172000D03*
X150538000Y-105222000D03*
G36*
G01*
X147910000Y-72240000D02*
X147910000Y-72540000D01*
G75*
G02*
X147760000Y-72690000I-150000J0D01*
G01*
X146460000Y-72690000D01*
G75*
G02*
X146310000Y-72540000I0J150000D01*
G01*
X146310000Y-72240000D01*
G75*
G02*
X146460000Y-72090000I150000J0D01*
G01*
X147760000Y-72090000D01*
G75*
G02*
X147910000Y-72240000I0J-150000D01*
G01*
G37*
G36*
G01*
X147910000Y-70970000D02*
X147910000Y-71270000D01*
G75*
G02*
X147760000Y-71420000I-150000J0D01*
G01*
X146460000Y-71420000D01*
G75*
G02*
X146310000Y-71270000I0J150000D01*
G01*
X146310000Y-70970000D01*
G75*
G02*
X146460000Y-70820000I150000J0D01*
G01*
X147760000Y-70820000D01*
G75*
G02*
X147910000Y-70970000I0J-150000D01*
G01*
G37*
G36*
G01*
X147910000Y-69700000D02*
X147910000Y-70000000D01*
G75*
G02*
X147760000Y-70150000I-150000J0D01*
G01*
X146460000Y-70150000D01*
G75*
G02*
X146310000Y-70000000I0J150000D01*
G01*
X146310000Y-69700000D01*
G75*
G02*
X146460000Y-69550000I150000J0D01*
G01*
X147760000Y-69550000D01*
G75*
G02*
X147910000Y-69700000I0J-150000D01*
G01*
G37*
G36*
G01*
X147910000Y-68430000D02*
X147910000Y-68730000D01*
G75*
G02*
X147760000Y-68880000I-150000J0D01*
G01*
X146460000Y-68880000D01*
G75*
G02*
X146310000Y-68730000I0J150000D01*
G01*
X146310000Y-68430000D01*
G75*
G02*
X146460000Y-68280000I150000J0D01*
G01*
X147760000Y-68280000D01*
G75*
G02*
X147910000Y-68430000I0J-150000D01*
G01*
G37*
G36*
G01*
X140710000Y-68430000D02*
X140710000Y-68730000D01*
G75*
G02*
X140560000Y-68880000I-150000J0D01*
G01*
X139260000Y-68880000D01*
G75*
G02*
X139110000Y-68730000I0J150000D01*
G01*
X139110000Y-68430000D01*
G75*
G02*
X139260000Y-68280000I150000J0D01*
G01*
X140560000Y-68280000D01*
G75*
G02*
X140710000Y-68430000I0J-150000D01*
G01*
G37*
G36*
G01*
X140710000Y-69700000D02*
X140710000Y-70000000D01*
G75*
G02*
X140560000Y-70150000I-150000J0D01*
G01*
X139260000Y-70150000D01*
G75*
G02*
X139110000Y-70000000I0J150000D01*
G01*
X139110000Y-69700000D01*
G75*
G02*
X139260000Y-69550000I150000J0D01*
G01*
X140560000Y-69550000D01*
G75*
G02*
X140710000Y-69700000I0J-150000D01*
G01*
G37*
G36*
G01*
X140710000Y-70970000D02*
X140710000Y-71270000D01*
G75*
G02*
X140560000Y-71420000I-150000J0D01*
G01*
X139260000Y-71420000D01*
G75*
G02*
X139110000Y-71270000I0J150000D01*
G01*
X139110000Y-70970000D01*
G75*
G02*
X139260000Y-70820000I150000J0D01*
G01*
X140560000Y-70820000D01*
G75*
G02*
X140710000Y-70970000I0J-150000D01*
G01*
G37*
G36*
G01*
X140710000Y-72240000D02*
X140710000Y-72540000D01*
G75*
G02*
X140560000Y-72690000I-150000J0D01*
G01*
X139260000Y-72690000D01*
G75*
G02*
X139110000Y-72540000I0J150000D01*
G01*
X139110000Y-72240000D01*
G75*
G02*
X139260000Y-72090000I150000J0D01*
G01*
X140560000Y-72090000D01*
G75*
G02*
X140710000Y-72240000I0J-150000D01*
G01*
G37*
D18*
X137795000Y-115400000D03*
X138745000Y-115400000D03*
X136845000Y-115400000D03*
X136845000Y-113200000D03*
X137795000Y-113200000D03*
X138745000Y-113200000D03*
G36*
G01*
X152503000Y-81557000D02*
X152503000Y-81257000D01*
G75*
G02*
X152653000Y-81107000I150000J0D01*
G01*
X154303000Y-81107000D01*
G75*
G02*
X154453000Y-81257000I0J-150000D01*
G01*
X154453000Y-81557000D01*
G75*
G02*
X154303000Y-81707000I-150000J0D01*
G01*
X152653000Y-81707000D01*
G75*
G02*
X152503000Y-81557000I0J150000D01*
G01*
G37*
G36*
G01*
X152503000Y-82827000D02*
X152503000Y-82527000D01*
G75*
G02*
X152653000Y-82377000I150000J0D01*
G01*
X154303000Y-82377000D01*
G75*
G02*
X154453000Y-82527000I0J-150000D01*
G01*
X154453000Y-82827000D01*
G75*
G02*
X154303000Y-82977000I-150000J0D01*
G01*
X152653000Y-82977000D01*
G75*
G02*
X152503000Y-82827000I0J150000D01*
G01*
G37*
G36*
G01*
X152503000Y-84097000D02*
X152503000Y-83797000D01*
G75*
G02*
X152653000Y-83647000I150000J0D01*
G01*
X154303000Y-83647000D01*
G75*
G02*
X154453000Y-83797000I0J-150000D01*
G01*
X154453000Y-84097000D01*
G75*
G02*
X154303000Y-84247000I-150000J0D01*
G01*
X152653000Y-84247000D01*
G75*
G02*
X152503000Y-84097000I0J150000D01*
G01*
G37*
G36*
G01*
X152503000Y-85367000D02*
X152503000Y-85067000D01*
G75*
G02*
X152653000Y-84917000I150000J0D01*
G01*
X154303000Y-84917000D01*
G75*
G02*
X154453000Y-85067000I0J-150000D01*
G01*
X154453000Y-85367000D01*
G75*
G02*
X154303000Y-85517000I-150000J0D01*
G01*
X152653000Y-85517000D01*
G75*
G02*
X152503000Y-85367000I0J150000D01*
G01*
G37*
G36*
G01*
X152503000Y-86637000D02*
X152503000Y-86337000D01*
G75*
G02*
X152653000Y-86187000I150000J0D01*
G01*
X154303000Y-86187000D01*
G75*
G02*
X154453000Y-86337000I0J-150000D01*
G01*
X154453000Y-86637000D01*
G75*
G02*
X154303000Y-86787000I-150000J0D01*
G01*
X152653000Y-86787000D01*
G75*
G02*
X152503000Y-86637000I0J150000D01*
G01*
G37*
G36*
G01*
X152503000Y-87907000D02*
X152503000Y-87607000D01*
G75*
G02*
X152653000Y-87457000I150000J0D01*
G01*
X154303000Y-87457000D01*
G75*
G02*
X154453000Y-87607000I0J-150000D01*
G01*
X154453000Y-87907000D01*
G75*
G02*
X154303000Y-88057000I-150000J0D01*
G01*
X152653000Y-88057000D01*
G75*
G02*
X152503000Y-87907000I0J150000D01*
G01*
G37*
G36*
G01*
X152503000Y-89177000D02*
X152503000Y-88877000D01*
G75*
G02*
X152653000Y-88727000I150000J0D01*
G01*
X154303000Y-88727000D01*
G75*
G02*
X154453000Y-88877000I0J-150000D01*
G01*
X154453000Y-89177000D01*
G75*
G02*
X154303000Y-89327000I-150000J0D01*
G01*
X152653000Y-89327000D01*
G75*
G02*
X152503000Y-89177000I0J150000D01*
G01*
G37*
G36*
G01*
X152503000Y-90447000D02*
X152503000Y-90147000D01*
G75*
G02*
X152653000Y-89997000I150000J0D01*
G01*
X154303000Y-89997000D01*
G75*
G02*
X154453000Y-90147000I0J-150000D01*
G01*
X154453000Y-90447000D01*
G75*
G02*
X154303000Y-90597000I-150000J0D01*
G01*
X152653000Y-90597000D01*
G75*
G02*
X152503000Y-90447000I0J150000D01*
G01*
G37*
G36*
G01*
X147553000Y-90447000D02*
X147553000Y-90147000D01*
G75*
G02*
X147703000Y-89997000I150000J0D01*
G01*
X149353000Y-89997000D01*
G75*
G02*
X149503000Y-90147000I0J-150000D01*
G01*
X149503000Y-90447000D01*
G75*
G02*
X149353000Y-90597000I-150000J0D01*
G01*
X147703000Y-90597000D01*
G75*
G02*
X147553000Y-90447000I0J150000D01*
G01*
G37*
G36*
G01*
X147553000Y-89177000D02*
X147553000Y-88877000D01*
G75*
G02*
X147703000Y-88727000I150000J0D01*
G01*
X149353000Y-88727000D01*
G75*
G02*
X149503000Y-88877000I0J-150000D01*
G01*
X149503000Y-89177000D01*
G75*
G02*
X149353000Y-89327000I-150000J0D01*
G01*
X147703000Y-89327000D01*
G75*
G02*
X147553000Y-89177000I0J150000D01*
G01*
G37*
G36*
G01*
X147553000Y-87907000D02*
X147553000Y-87607000D01*
G75*
G02*
X147703000Y-87457000I150000J0D01*
G01*
X149353000Y-87457000D01*
G75*
G02*
X149503000Y-87607000I0J-150000D01*
G01*
X149503000Y-87907000D01*
G75*
G02*
X149353000Y-88057000I-150000J0D01*
G01*
X147703000Y-88057000D01*
G75*
G02*
X147553000Y-87907000I0J150000D01*
G01*
G37*
G36*
G01*
X147553000Y-86637000D02*
X147553000Y-86337000D01*
G75*
G02*
X147703000Y-86187000I150000J0D01*
G01*
X149353000Y-86187000D01*
G75*
G02*
X149503000Y-86337000I0J-150000D01*
G01*
X149503000Y-86637000D01*
G75*
G02*
X149353000Y-86787000I-150000J0D01*
G01*
X147703000Y-86787000D01*
G75*
G02*
X147553000Y-86637000I0J150000D01*
G01*
G37*
G36*
G01*
X147553000Y-85367000D02*
X147553000Y-85067000D01*
G75*
G02*
X147703000Y-84917000I150000J0D01*
G01*
X149353000Y-84917000D01*
G75*
G02*
X149503000Y-85067000I0J-150000D01*
G01*
X149503000Y-85367000D01*
G75*
G02*
X149353000Y-85517000I-150000J0D01*
G01*
X147703000Y-85517000D01*
G75*
G02*
X147553000Y-85367000I0J150000D01*
G01*
G37*
G36*
G01*
X147553000Y-84097000D02*
X147553000Y-83797000D01*
G75*
G02*
X147703000Y-83647000I150000J0D01*
G01*
X149353000Y-83647000D01*
G75*
G02*
X149503000Y-83797000I0J-150000D01*
G01*
X149503000Y-84097000D01*
G75*
G02*
X149353000Y-84247000I-150000J0D01*
G01*
X147703000Y-84247000D01*
G75*
G02*
X147553000Y-84097000I0J150000D01*
G01*
G37*
G36*
G01*
X147553000Y-82827000D02*
X147553000Y-82527000D01*
G75*
G02*
X147703000Y-82377000I150000J0D01*
G01*
X149353000Y-82377000D01*
G75*
G02*
X149503000Y-82527000I0J-150000D01*
G01*
X149503000Y-82827000D01*
G75*
G02*
X149353000Y-82977000I-150000J0D01*
G01*
X147703000Y-82977000D01*
G75*
G02*
X147553000Y-82827000I0J150000D01*
G01*
G37*
G36*
G01*
X147553000Y-81557000D02*
X147553000Y-81257000D01*
G75*
G02*
X147703000Y-81107000I150000J0D01*
G01*
X149353000Y-81107000D01*
G75*
G02*
X149503000Y-81257000I0J-150000D01*
G01*
X149503000Y-81557000D01*
G75*
G02*
X149353000Y-81707000I-150000J0D01*
G01*
X147703000Y-81707000D01*
G75*
G02*
X147553000Y-81557000I0J150000D01*
G01*
G37*
M02*
