G04 #@! TF.GenerationSoftware,KiCad,Pcbnew,5.1.10-88a1d61d58~90~ubuntu20.04.1*
G04 #@! TF.CreationDate,2021-11-05T20:40:26+01:00*
G04 #@! TF.ProjectId,FPGC4IOboard,46504743-3449-44f6-926f-6172642e6b69,rev?*
G04 #@! TF.SameCoordinates,Original*
G04 #@! TF.FileFunction,Legend,Bot*
G04 #@! TF.FilePolarity,Positive*
%FSLAX46Y46*%
G04 Gerber Fmt 4.6, Leading zero omitted, Abs format (unit mm)*
G04 Created by KiCad (PCBNEW 5.1.10-88a1d61d58~90~ubuntu20.04.1) date 2021-11-05 20:40:26*
%MOMM*%
%LPD*%
G01*
G04 APERTURE LIST*
%ADD10C,0.120000*%
%ADD11C,0.150000*%
%ADD12C,2.202000*%
%ADD13C,1.852000*%
%ADD14O,1.802000X1.802000*%
%ADD15C,1.702000*%
%ADD16C,1.302000*%
%ADD17O,2.102000X1.702000*%
%ADD18C,0.902000*%
%ADD19O,2.702000X1.902000*%
%ADD20O,4.102000X2.102000*%
%ADD21O,2.102000X3.602000*%
%ADD22C,1.602000*%
%ADD23C,3.102000*%
%ADD24O,2.402000X1.602000*%
%ADD25O,3.602000X1.802000*%
%ADD26C,6.502000*%
%ADD27C,0.652000*%
%ADD28O,2.002000X1.302000*%
%ADD29C,2.652000*%
%ADD30C,3.718000*%
G04 APERTURE END LIST*
D10*
X131445000Y-94234000D02*
X131445000Y-103886000D01*
D11*
X134672404Y-103497000D02*
X134577166Y-103544619D01*
X134434309Y-103544619D01*
X134291452Y-103497000D01*
X134196214Y-103401761D01*
X134148595Y-103306523D01*
X134100976Y-103116047D01*
X134100976Y-102973190D01*
X134148595Y-102782714D01*
X134196214Y-102687476D01*
X134291452Y-102592238D01*
X134434309Y-102544619D01*
X134529547Y-102544619D01*
X134672404Y-102592238D01*
X134720023Y-102639857D01*
X134720023Y-102973190D01*
X134529547Y-102973190D01*
X135148595Y-102544619D02*
X135148595Y-103544619D01*
X135720023Y-102544619D01*
X135720023Y-103544619D01*
X136196214Y-102544619D02*
X136196214Y-103544619D01*
X136434309Y-103544619D01*
X136577166Y-103497000D01*
X136672404Y-103401761D01*
X136720023Y-103306523D01*
X136767642Y-103116047D01*
X136767642Y-102973190D01*
X136720023Y-102782714D01*
X136672404Y-102687476D01*
X136577166Y-102592238D01*
X136434309Y-102544619D01*
X136196214Y-102544619D01*
X134672404Y-98290000D02*
X134577166Y-98337619D01*
X134434309Y-98337619D01*
X134291452Y-98290000D01*
X134196214Y-98194761D01*
X134148595Y-98099523D01*
X134100976Y-97909047D01*
X134100976Y-97766190D01*
X134148595Y-97575714D01*
X134196214Y-97480476D01*
X134291452Y-97385238D01*
X134434309Y-97337619D01*
X134529547Y-97337619D01*
X134672404Y-97385238D01*
X134720023Y-97432857D01*
X134720023Y-97766190D01*
X134529547Y-97766190D01*
X135148595Y-97337619D02*
X135148595Y-98337619D01*
X135720023Y-97337619D01*
X135720023Y-98337619D01*
X136196214Y-97337619D02*
X136196214Y-98337619D01*
X136434309Y-98337619D01*
X136577166Y-98290000D01*
X136672404Y-98194761D01*
X136720023Y-98099523D01*
X136767642Y-97909047D01*
X136767642Y-97766190D01*
X136720023Y-97575714D01*
X136672404Y-97480476D01*
X136577166Y-97385238D01*
X136434309Y-97337619D01*
X136196214Y-97337619D01*
X134053357Y-95924619D02*
X134672405Y-95924619D01*
X134339071Y-95543666D01*
X134481928Y-95543666D01*
X134577166Y-95496047D01*
X134624785Y-95448428D01*
X134672405Y-95353190D01*
X134672405Y-95115095D01*
X134624785Y-95019857D01*
X134577166Y-94972238D01*
X134481928Y-94924619D01*
X134196214Y-94924619D01*
X134100976Y-94972238D01*
X134053357Y-95019857D01*
X134958119Y-95924619D02*
X135291452Y-94924619D01*
X135624785Y-95924619D01*
X135862881Y-95924619D02*
X136481928Y-95924619D01*
X136148595Y-95543666D01*
X136291452Y-95543666D01*
X136386690Y-95496047D01*
X136434309Y-95448428D01*
X136481928Y-95353190D01*
X136481928Y-95115095D01*
X136434309Y-95019857D01*
X136386690Y-94972238D01*
X136291452Y-94924619D01*
X136005738Y-94924619D01*
X135910500Y-94972238D01*
X135862881Y-95019857D01*
X134624785Y-101004619D02*
X134148595Y-101004619D01*
X134100976Y-100528428D01*
X134148595Y-100576047D01*
X134243833Y-100623666D01*
X134481928Y-100623666D01*
X134577166Y-100576047D01*
X134624785Y-100528428D01*
X134672404Y-100433190D01*
X134672404Y-100195095D01*
X134624785Y-100099857D01*
X134577166Y-100052238D01*
X134481928Y-100004619D01*
X134243833Y-100004619D01*
X134148595Y-100052238D01*
X134100976Y-100099857D01*
X134958119Y-101004619D02*
X135291452Y-100004619D01*
X135624785Y-101004619D01*
X92162380Y-125970357D02*
X92162380Y-126589404D01*
X92543333Y-126256071D01*
X92543333Y-126398928D01*
X92590952Y-126494166D01*
X92638571Y-126541785D01*
X92733809Y-126589404D01*
X92971904Y-126589404D01*
X93067142Y-126541785D01*
X93114761Y-126494166D01*
X93162380Y-126398928D01*
X93162380Y-126113214D01*
X93114761Y-126017976D01*
X93067142Y-125970357D01*
X92162380Y-126875119D02*
X93162380Y-127208452D01*
X92162380Y-127541785D01*
X92162380Y-127779880D02*
X92162380Y-128398928D01*
X92543333Y-128065595D01*
X92543333Y-128208452D01*
X92590952Y-128303690D01*
X92638571Y-128351309D01*
X92733809Y-128398928D01*
X92971904Y-128398928D01*
X93067142Y-128351309D01*
X93114761Y-128303690D01*
X93162380Y-128208452D01*
X93162380Y-127922738D01*
X93114761Y-127827500D01*
X93067142Y-127779880D01*
X87257000Y-126589404D02*
X87209380Y-126494166D01*
X87209380Y-126351309D01*
X87257000Y-126208452D01*
X87352238Y-126113214D01*
X87447476Y-126065595D01*
X87637952Y-126017976D01*
X87780809Y-126017976D01*
X87971285Y-126065595D01*
X88066523Y-126113214D01*
X88161761Y-126208452D01*
X88209380Y-126351309D01*
X88209380Y-126446547D01*
X88161761Y-126589404D01*
X88114142Y-126637023D01*
X87780809Y-126637023D01*
X87780809Y-126446547D01*
X88209380Y-127065595D02*
X87209380Y-127065595D01*
X88209380Y-127637023D01*
X87209380Y-127637023D01*
X88209380Y-128113214D02*
X87209380Y-128113214D01*
X87209380Y-128351309D01*
X87257000Y-128494166D01*
X87352238Y-128589404D01*
X87447476Y-128637023D01*
X87637952Y-128684642D01*
X87780809Y-128684642D01*
X87971285Y-128637023D01*
X88066523Y-128589404D01*
X88161761Y-128494166D01*
X88209380Y-128351309D01*
X88209380Y-128113214D01*
X140152380Y-117885833D02*
X139152380Y-117885833D01*
X140152380Y-118457261D02*
X139580952Y-118028690D01*
X139152380Y-118457261D02*
X139723809Y-117885833D01*
X139247619Y-118838214D02*
X139200000Y-118885833D01*
X139152380Y-118981071D01*
X139152380Y-119219166D01*
X139200000Y-119314404D01*
X139247619Y-119362023D01*
X139342857Y-119409642D01*
X139438095Y-119409642D01*
X139580952Y-119362023D01*
X140152380Y-118790595D01*
X140152380Y-119409642D01*
X140152380Y-120362023D02*
X140152380Y-119790595D01*
X140152380Y-120076309D02*
X139152380Y-120076309D01*
X139295238Y-119981071D01*
X139390476Y-119885833D01*
X139438095Y-119790595D01*
X114466666Y-126017976D02*
X114466666Y-126494166D01*
X114752380Y-125922738D02*
X113752380Y-126256071D01*
X114752380Y-126589404D01*
X114466666Y-126875119D02*
X114466666Y-127351309D01*
X114752380Y-126779880D02*
X113752380Y-127113214D01*
X114752380Y-127446547D01*
X113847619Y-127732261D02*
X113800000Y-127779880D01*
X113752380Y-127875119D01*
X113752380Y-128113214D01*
X113800000Y-128208452D01*
X113847619Y-128256071D01*
X113942857Y-128303690D01*
X114038095Y-128303690D01*
X114180952Y-128256071D01*
X114752380Y-127684642D01*
X114752380Y-128303690D01*
X113752380Y-128922738D02*
X113752380Y-129017976D01*
X113800000Y-129113214D01*
X113847619Y-129160833D01*
X113942857Y-129208452D01*
X114133333Y-129256071D01*
X114371428Y-129256071D01*
X114561904Y-129208452D01*
X114657142Y-129160833D01*
X114704761Y-129113214D01*
X114752380Y-129017976D01*
X114752380Y-128922738D01*
X114704761Y-128827500D01*
X114657142Y-128779880D01*
X114561904Y-128732261D01*
X114371428Y-128684642D01*
X114133333Y-128684642D01*
X113942857Y-128732261D01*
X113847619Y-128779880D01*
X113800000Y-128827500D01*
X113752380Y-128922738D01*
X111926666Y-126017976D02*
X111926666Y-126494166D01*
X112212380Y-125922738D02*
X111212380Y-126256071D01*
X112212380Y-126589404D01*
X111926666Y-126875119D02*
X111926666Y-127351309D01*
X112212380Y-126779880D02*
X111212380Y-127113214D01*
X112212380Y-127446547D01*
X112212380Y-128303690D02*
X112212380Y-127732261D01*
X112212380Y-128017976D02*
X111212380Y-128017976D01*
X111355238Y-127922738D01*
X111450476Y-127827500D01*
X111498095Y-127732261D01*
X112212380Y-128779880D02*
X112212380Y-128970357D01*
X112164761Y-129065595D01*
X112117142Y-129113214D01*
X111974285Y-129208452D01*
X111783809Y-129256071D01*
X111402857Y-129256071D01*
X111307619Y-129208452D01*
X111260000Y-129160833D01*
X111212380Y-129065595D01*
X111212380Y-128875119D01*
X111260000Y-128779880D01*
X111307619Y-128732261D01*
X111402857Y-128684642D01*
X111640952Y-128684642D01*
X111736190Y-128732261D01*
X111783809Y-128779880D01*
X111831428Y-128875119D01*
X111831428Y-129065595D01*
X111783809Y-129160833D01*
X111736190Y-129208452D01*
X111640952Y-129256071D01*
X99226666Y-116981071D02*
X99226666Y-117457261D01*
X99512380Y-116885833D02*
X98512380Y-117219166D01*
X99512380Y-117552500D01*
X98988571Y-118219166D02*
X99036190Y-118362023D01*
X99083809Y-118409642D01*
X99179047Y-118457261D01*
X99321904Y-118457261D01*
X99417142Y-118409642D01*
X99464761Y-118362023D01*
X99512380Y-118266785D01*
X99512380Y-117885833D01*
X98512380Y-117885833D01*
X98512380Y-118219166D01*
X98560000Y-118314404D01*
X98607619Y-118362023D01*
X98702857Y-118409642D01*
X98798095Y-118409642D01*
X98893333Y-118362023D01*
X98940952Y-118314404D01*
X98988571Y-118219166D01*
X98988571Y-117885833D01*
X99512380Y-119409642D02*
X99512380Y-118838214D01*
X99512380Y-119123928D02*
X98512380Y-119123928D01*
X98655238Y-119028690D01*
X98750476Y-118933452D01*
X98798095Y-118838214D01*
X98845714Y-120266785D02*
X99512380Y-120266785D01*
X98464761Y-120028690D02*
X99179047Y-119790595D01*
X99179047Y-120409642D01*
X86447380Y-61468095D02*
X87256904Y-61468095D01*
X87352142Y-61515714D01*
X87399761Y-61563333D01*
X87447380Y-61658571D01*
X87447380Y-61849047D01*
X87399761Y-61944285D01*
X87352142Y-61991904D01*
X87256904Y-62039523D01*
X86447380Y-62039523D01*
X86447380Y-62420476D02*
X86447380Y-63087142D01*
X87447380Y-62658571D01*
X86447380Y-122428095D02*
X87256904Y-122428095D01*
X87352142Y-122475714D01*
X87399761Y-122523333D01*
X87447380Y-122618571D01*
X87447380Y-122809047D01*
X87399761Y-122904285D01*
X87352142Y-122951904D01*
X87256904Y-122999523D01*
X86447380Y-122999523D01*
X86875952Y-123618571D02*
X86828333Y-123523333D01*
X86780714Y-123475714D01*
X86685476Y-123428095D01*
X86637857Y-123428095D01*
X86542619Y-123475714D01*
X86495000Y-123523333D01*
X86447380Y-123618571D01*
X86447380Y-123809047D01*
X86495000Y-123904285D01*
X86542619Y-123951904D01*
X86637857Y-123999523D01*
X86685476Y-123999523D01*
X86780714Y-123951904D01*
X86828333Y-123904285D01*
X86875952Y-123809047D01*
X86875952Y-123618571D01*
X86923571Y-123523333D01*
X86971190Y-123475714D01*
X87066428Y-123428095D01*
X87256904Y-123428095D01*
X87352142Y-123475714D01*
X87399761Y-123523333D01*
X87447380Y-123618571D01*
X87447380Y-123809047D01*
X87399761Y-123904285D01*
X87352142Y-123951904D01*
X87256904Y-123999523D01*
X87066428Y-123999523D01*
X86971190Y-123951904D01*
X86923571Y-123904285D01*
X86875952Y-123809047D01*
X163457000Y-127478404D02*
X163409380Y-127383166D01*
X163409380Y-127240309D01*
X163457000Y-127097452D01*
X163552238Y-127002214D01*
X163647476Y-126954595D01*
X163837952Y-126906976D01*
X163980809Y-126906976D01*
X164171285Y-126954595D01*
X164266523Y-127002214D01*
X164361761Y-127097452D01*
X164409380Y-127240309D01*
X164409380Y-127335547D01*
X164361761Y-127478404D01*
X164314142Y-127526023D01*
X163980809Y-127526023D01*
X163980809Y-127335547D01*
X164409380Y-127954595D02*
X163409380Y-127954595D01*
X164409380Y-128526023D01*
X163409380Y-128526023D01*
X164409380Y-129002214D02*
X163409380Y-129002214D01*
X163409380Y-129240309D01*
X163457000Y-129383166D01*
X163552238Y-129478404D01*
X163647476Y-129526023D01*
X163837952Y-129573642D01*
X163980809Y-129573642D01*
X164171285Y-129526023D01*
X164266523Y-129478404D01*
X164361761Y-129383166D01*
X164409380Y-129240309D01*
X164409380Y-129002214D01*
X163621404Y-126563380D02*
X163621404Y-125563380D01*
X163288071Y-126277666D01*
X162954738Y-125563380D01*
X162954738Y-126563380D01*
X162526166Y-125658619D02*
X162478547Y-125611000D01*
X162383309Y-125563380D01*
X162145214Y-125563380D01*
X162049976Y-125611000D01*
X162002357Y-125658619D01*
X161954738Y-125753857D01*
X161954738Y-125849095D01*
X162002357Y-125991952D01*
X162573785Y-126563380D01*
X161954738Y-126563380D01*
X161335690Y-125563380D02*
X161240452Y-125563380D01*
X161145214Y-125611000D01*
X161097595Y-125658619D01*
X161049976Y-125753857D01*
X161002357Y-125944333D01*
X161002357Y-126182428D01*
X161049976Y-126372904D01*
X161097595Y-126468142D01*
X161145214Y-126515761D01*
X161240452Y-126563380D01*
X161335690Y-126563380D01*
X161430928Y-126515761D01*
X161478547Y-126468142D01*
X161526166Y-126372904D01*
X161573785Y-126182428D01*
X161573785Y-125944333D01*
X161526166Y-125753857D01*
X161478547Y-125658619D01*
X161430928Y-125611000D01*
X161335690Y-125563380D01*
X154535142Y-126129023D02*
X154582761Y-126081404D01*
X154630380Y-125938547D01*
X154630380Y-125843309D01*
X154582761Y-125700452D01*
X154487523Y-125605214D01*
X154392285Y-125557595D01*
X154201809Y-125509976D01*
X154058952Y-125509976D01*
X153868476Y-125557595D01*
X153773238Y-125605214D01*
X153678000Y-125700452D01*
X153630380Y-125843309D01*
X153630380Y-125938547D01*
X153678000Y-126081404D01*
X153725619Y-126129023D01*
X153725619Y-126509976D02*
X153678000Y-126557595D01*
X153630380Y-126652833D01*
X153630380Y-126890928D01*
X153678000Y-126986166D01*
X153725619Y-127033785D01*
X153820857Y-127081404D01*
X153916095Y-127081404D01*
X154058952Y-127033785D01*
X154630380Y-126462357D01*
X154630380Y-127081404D01*
X153725619Y-127462357D02*
X153678000Y-127509976D01*
X153630380Y-127605214D01*
X153630380Y-127843309D01*
X153678000Y-127938547D01*
X153725619Y-127986166D01*
X153820857Y-128033785D01*
X153916095Y-128033785D01*
X154058952Y-127986166D01*
X154630380Y-127414738D01*
X154630380Y-128033785D01*
X168362380Y-126795785D02*
X168362380Y-126319595D01*
X168838571Y-126271976D01*
X168790952Y-126319595D01*
X168743333Y-126414833D01*
X168743333Y-126652928D01*
X168790952Y-126748166D01*
X168838571Y-126795785D01*
X168933809Y-126843404D01*
X169171904Y-126843404D01*
X169267142Y-126795785D01*
X169314761Y-126748166D01*
X169362380Y-126652928D01*
X169362380Y-126414833D01*
X169314761Y-126319595D01*
X169267142Y-126271976D01*
X168362380Y-127129119D02*
X169362380Y-127462452D01*
X168362380Y-127795785D01*
X157573071Y-126166571D02*
X157430214Y-126214190D01*
X157382595Y-126261809D01*
X157334976Y-126357047D01*
X157334976Y-126499904D01*
X157382595Y-126595142D01*
X157430214Y-126642761D01*
X157525452Y-126690380D01*
X157906404Y-126690380D01*
X157906404Y-125690380D01*
X157573071Y-125690380D01*
X157477833Y-125738000D01*
X157430214Y-125785619D01*
X157382595Y-125880857D01*
X157382595Y-125976095D01*
X157430214Y-126071333D01*
X157477833Y-126118952D01*
X157573071Y-126166571D01*
X157906404Y-126166571D01*
X156954023Y-125785619D02*
X156906404Y-125738000D01*
X156811166Y-125690380D01*
X156573071Y-125690380D01*
X156477833Y-125738000D01*
X156430214Y-125785619D01*
X156382595Y-125880857D01*
X156382595Y-125976095D01*
X156430214Y-126118952D01*
X157001642Y-126690380D01*
X156382595Y-126690380D01*
X156001642Y-125785619D02*
X155954023Y-125738000D01*
X155858785Y-125690380D01*
X155620690Y-125690380D01*
X155525452Y-125738000D01*
X155477833Y-125785619D01*
X155430214Y-125880857D01*
X155430214Y-125976095D01*
X155477833Y-126118952D01*
X156049261Y-126690380D01*
X155430214Y-126690380D01*
X153207404Y-126563380D02*
X153207404Y-125563380D01*
X152969309Y-125563380D01*
X152826452Y-125611000D01*
X152731214Y-125706238D01*
X152683595Y-125801476D01*
X152635976Y-125991952D01*
X152635976Y-126134809D01*
X152683595Y-126325285D01*
X152731214Y-126420523D01*
X152826452Y-126515761D01*
X152969309Y-126563380D01*
X153207404Y-126563380D01*
X152255023Y-125658619D02*
X152207404Y-125611000D01*
X152112166Y-125563380D01*
X151874071Y-125563380D01*
X151778833Y-125611000D01*
X151731214Y-125658619D01*
X151683595Y-125753857D01*
X151683595Y-125849095D01*
X151731214Y-125991952D01*
X152302642Y-126563380D01*
X151683595Y-126563380D01*
X151302642Y-125658619D02*
X151255023Y-125611000D01*
X151159785Y-125563380D01*
X150921690Y-125563380D01*
X150826452Y-125611000D01*
X150778833Y-125658619D01*
X150731214Y-125753857D01*
X150731214Y-125849095D01*
X150778833Y-125991952D01*
X151350261Y-126563380D01*
X150731214Y-126563380D01*
X159329380Y-125430595D02*
X158329380Y-125430595D01*
X159329380Y-126002023D01*
X158329380Y-126002023D01*
X158424619Y-126430595D02*
X158377000Y-126478214D01*
X158329380Y-126573452D01*
X158329380Y-126811547D01*
X158377000Y-126906785D01*
X158424619Y-126954404D01*
X158519857Y-127002023D01*
X158615095Y-127002023D01*
X158757952Y-126954404D01*
X159329380Y-126382976D01*
X159329380Y-127002023D01*
X158329380Y-127621071D02*
X158329380Y-127716309D01*
X158377000Y-127811547D01*
X158424619Y-127859166D01*
X158519857Y-127906785D01*
X158710333Y-127954404D01*
X158948428Y-127954404D01*
X159138904Y-127906785D01*
X159234142Y-127859166D01*
X159281761Y-127811547D01*
X159329380Y-127716309D01*
X159329380Y-127621071D01*
X159281761Y-127525833D01*
X159234142Y-127478214D01*
X159138904Y-127430595D01*
X158948428Y-127382976D01*
X158710333Y-127382976D01*
X158519857Y-127430595D01*
X158424619Y-127478214D01*
X158377000Y-127525833D01*
X158329380Y-127621071D01*
X144597380Y-125684595D02*
X143597380Y-125684595D01*
X144073571Y-125684595D02*
X144073571Y-126256023D01*
X144597380Y-126256023D02*
X143597380Y-126256023D01*
X143692619Y-126684595D02*
X143645000Y-126732214D01*
X143597380Y-126827452D01*
X143597380Y-127065547D01*
X143645000Y-127160785D01*
X143692619Y-127208404D01*
X143787857Y-127256023D01*
X143883095Y-127256023D01*
X144025952Y-127208404D01*
X144597380Y-126636976D01*
X144597380Y-127256023D01*
X143692619Y-127636976D02*
X143645000Y-127684595D01*
X143597380Y-127779833D01*
X143597380Y-128017928D01*
X143645000Y-128113166D01*
X143692619Y-128160785D01*
X143787857Y-128208404D01*
X143883095Y-128208404D01*
X144025952Y-128160785D01*
X144597380Y-127589357D01*
X144597380Y-128208404D01*
X93861000Y-126589404D02*
X93813380Y-126494166D01*
X93813380Y-126351309D01*
X93861000Y-126208452D01*
X93956238Y-126113214D01*
X94051476Y-126065595D01*
X94241952Y-126017976D01*
X94384809Y-126017976D01*
X94575285Y-126065595D01*
X94670523Y-126113214D01*
X94765761Y-126208452D01*
X94813380Y-126351309D01*
X94813380Y-126446547D01*
X94765761Y-126589404D01*
X94718142Y-126637023D01*
X94384809Y-126637023D01*
X94384809Y-126446547D01*
X94813380Y-127065595D02*
X93813380Y-127065595D01*
X94813380Y-127637023D01*
X93813380Y-127637023D01*
X94813380Y-128113214D02*
X93813380Y-128113214D01*
X93813380Y-128351309D01*
X93861000Y-128494166D01*
X93956238Y-128589404D01*
X94051476Y-128637023D01*
X94241952Y-128684642D01*
X94384809Y-128684642D01*
X94575285Y-128637023D01*
X94670523Y-128589404D01*
X94765761Y-128494166D01*
X94813380Y-128351309D01*
X94813380Y-128113214D01*
X150413404Y-126166571D02*
X150080071Y-126166571D01*
X149937214Y-126690380D02*
X150413404Y-126690380D01*
X150413404Y-125690380D01*
X149937214Y-125690380D01*
X149556261Y-125785619D02*
X149508642Y-125738000D01*
X149413404Y-125690380D01*
X149175309Y-125690380D01*
X149080071Y-125738000D01*
X149032452Y-125785619D01*
X148984833Y-125880857D01*
X148984833Y-125976095D01*
X149032452Y-126118952D01*
X149603880Y-126690380D01*
X148984833Y-126690380D01*
X148603880Y-125785619D02*
X148556261Y-125738000D01*
X148461023Y-125690380D01*
X148222928Y-125690380D01*
X148127690Y-125738000D01*
X148080071Y-125785619D01*
X148032452Y-125880857D01*
X148032452Y-125976095D01*
X148080071Y-126118952D01*
X148651500Y-126690380D01*
X148032452Y-126690380D01*
X139898380Y-125938595D02*
X138898380Y-125938595D01*
X139898380Y-126510023D02*
X139326952Y-126081452D01*
X138898380Y-126510023D02*
X139469809Y-125938595D01*
X138993619Y-126890976D02*
X138946000Y-126938595D01*
X138898380Y-127033833D01*
X138898380Y-127271928D01*
X138946000Y-127367166D01*
X138993619Y-127414785D01*
X139088857Y-127462404D01*
X139184095Y-127462404D01*
X139326952Y-127414785D01*
X139898380Y-126843357D01*
X139898380Y-127462404D01*
X138993619Y-127843357D02*
X138946000Y-127890976D01*
X138898380Y-127986214D01*
X138898380Y-128224309D01*
X138946000Y-128319547D01*
X138993619Y-128367166D01*
X139088857Y-128414785D01*
X139184095Y-128414785D01*
X139326952Y-128367166D01*
X139898380Y-127795738D01*
X139898380Y-128414785D01*
X147286071Y-126039571D02*
X147619404Y-126039571D01*
X147619404Y-126563380D02*
X147619404Y-125563380D01*
X147143214Y-125563380D01*
X146809880Y-125658619D02*
X146762261Y-125611000D01*
X146667023Y-125563380D01*
X146428928Y-125563380D01*
X146333690Y-125611000D01*
X146286071Y-125658619D01*
X146238452Y-125753857D01*
X146238452Y-125849095D01*
X146286071Y-125991952D01*
X146857500Y-126563380D01*
X146238452Y-126563380D01*
X145857500Y-125658619D02*
X145809880Y-125611000D01*
X145714642Y-125563380D01*
X145476547Y-125563380D01*
X145381309Y-125611000D01*
X145333690Y-125658619D01*
X145286071Y-125753857D01*
X145286071Y-125849095D01*
X145333690Y-125991952D01*
X145905119Y-126563380D01*
X145286071Y-126563380D01*
X142761690Y-125690380D02*
X142761690Y-126404666D01*
X142809309Y-126547523D01*
X142904547Y-126642761D01*
X143047404Y-126690380D01*
X143142642Y-126690380D01*
X142333119Y-125785619D02*
X142285500Y-125738000D01*
X142190261Y-125690380D01*
X141952166Y-125690380D01*
X141856928Y-125738000D01*
X141809309Y-125785619D01*
X141761690Y-125880857D01*
X141761690Y-125976095D01*
X141809309Y-126118952D01*
X142380738Y-126690380D01*
X141761690Y-126690380D01*
X141380738Y-125785619D02*
X141333119Y-125738000D01*
X141237880Y-125690380D01*
X140999785Y-125690380D01*
X140904547Y-125738000D01*
X140856928Y-125785619D01*
X140809309Y-125880857D01*
X140809309Y-125976095D01*
X140856928Y-126118952D01*
X141428357Y-126690380D01*
X140809309Y-126690380D01*
X132532380Y-126065595D02*
X131532380Y-126065595D01*
X132532380Y-126637023D01*
X131532380Y-126637023D01*
X131627619Y-127065595D02*
X131580000Y-127113214D01*
X131532380Y-127208452D01*
X131532380Y-127446547D01*
X131580000Y-127541785D01*
X131627619Y-127589404D01*
X131722857Y-127637023D01*
X131818095Y-127637023D01*
X131960952Y-127589404D01*
X132532380Y-127017976D01*
X132532380Y-127637023D01*
X131627619Y-128017976D02*
X131580000Y-128065595D01*
X131532380Y-128160833D01*
X131532380Y-128398928D01*
X131580000Y-128494166D01*
X131627619Y-128541785D01*
X131722857Y-128589404D01*
X131818095Y-128589404D01*
X131960952Y-128541785D01*
X132532380Y-127970357D01*
X132532380Y-128589404D01*
X127452380Y-126637023D02*
X126976190Y-126303690D01*
X127452380Y-126065595D02*
X126452380Y-126065595D01*
X126452380Y-126446547D01*
X126500000Y-126541785D01*
X126547619Y-126589404D01*
X126642857Y-126637023D01*
X126785714Y-126637023D01*
X126880952Y-126589404D01*
X126928571Y-126541785D01*
X126976190Y-126446547D01*
X126976190Y-126065595D01*
X126547619Y-127017976D02*
X126500000Y-127065595D01*
X126452380Y-127160833D01*
X126452380Y-127398928D01*
X126500000Y-127494166D01*
X126547619Y-127541785D01*
X126642857Y-127589404D01*
X126738095Y-127589404D01*
X126880952Y-127541785D01*
X127452380Y-126970357D01*
X127452380Y-127589404D01*
X126547619Y-127970357D02*
X126500000Y-128017976D01*
X126452380Y-128113214D01*
X126452380Y-128351309D01*
X126500000Y-128446547D01*
X126547619Y-128494166D01*
X126642857Y-128541785D01*
X126738095Y-128541785D01*
X126880952Y-128494166D01*
X127452380Y-127922738D01*
X127452380Y-128541785D01*
X134437380Y-125938595D02*
X133437380Y-125938595D01*
X134151666Y-126271928D01*
X133437380Y-126605261D01*
X134437380Y-126605261D01*
X133532619Y-127033833D02*
X133485000Y-127081452D01*
X133437380Y-127176690D01*
X133437380Y-127414785D01*
X133485000Y-127510023D01*
X133532619Y-127557642D01*
X133627857Y-127605261D01*
X133723095Y-127605261D01*
X133865952Y-127557642D01*
X134437380Y-126986214D01*
X134437380Y-127605261D01*
X133532619Y-127986214D02*
X133485000Y-128033833D01*
X133437380Y-128129071D01*
X133437380Y-128367166D01*
X133485000Y-128462404D01*
X133532619Y-128510023D01*
X133627857Y-128557642D01*
X133723095Y-128557642D01*
X133865952Y-128510023D01*
X134437380Y-127938595D01*
X134437380Y-128557642D01*
X109386666Y-126017976D02*
X109386666Y-126494166D01*
X109672380Y-125922738D02*
X108672380Y-126256071D01*
X109672380Y-126589404D01*
X109386666Y-126875119D02*
X109386666Y-127351309D01*
X109672380Y-126779880D02*
X108672380Y-127113214D01*
X109672380Y-127446547D01*
X109672380Y-128303690D02*
X109672380Y-127732261D01*
X109672380Y-128017976D02*
X108672380Y-128017976D01*
X108815238Y-127922738D01*
X108910476Y-127827500D01*
X108958095Y-127732261D01*
X109100952Y-128875119D02*
X109053333Y-128779880D01*
X109005714Y-128732261D01*
X108910476Y-128684642D01*
X108862857Y-128684642D01*
X108767619Y-128732261D01*
X108720000Y-128779880D01*
X108672380Y-128875119D01*
X108672380Y-129065595D01*
X108720000Y-129160833D01*
X108767619Y-129208452D01*
X108862857Y-129256071D01*
X108910476Y-129256071D01*
X109005714Y-129208452D01*
X109053333Y-129160833D01*
X109100952Y-129065595D01*
X109100952Y-128875119D01*
X109148571Y-128779880D01*
X109196190Y-128732261D01*
X109291428Y-128684642D01*
X109481904Y-128684642D01*
X109577142Y-128732261D01*
X109624761Y-128779880D01*
X109672380Y-128875119D01*
X109672380Y-129065595D01*
X109624761Y-129160833D01*
X109577142Y-129208452D01*
X109481904Y-129256071D01*
X109291428Y-129256071D01*
X109196190Y-129208452D01*
X109148571Y-129160833D01*
X109100952Y-129065595D01*
X123912380Y-126065595D02*
X124721904Y-126065595D01*
X124817142Y-126113214D01*
X124864761Y-126160833D01*
X124912380Y-126256071D01*
X124912380Y-126446547D01*
X124864761Y-126541785D01*
X124817142Y-126589404D01*
X124721904Y-126637023D01*
X123912380Y-126637023D01*
X124007619Y-127065595D02*
X123960000Y-127113214D01*
X123912380Y-127208452D01*
X123912380Y-127446547D01*
X123960000Y-127541785D01*
X124007619Y-127589404D01*
X124102857Y-127637023D01*
X124198095Y-127637023D01*
X124340952Y-127589404D01*
X124912380Y-127017976D01*
X124912380Y-127637023D01*
X124007619Y-128017976D02*
X123960000Y-128065595D01*
X123912380Y-128160833D01*
X123912380Y-128398928D01*
X123960000Y-128494166D01*
X124007619Y-128541785D01*
X124102857Y-128589404D01*
X124198095Y-128589404D01*
X124340952Y-128541785D01*
X124912380Y-127970357D01*
X124912380Y-128589404D01*
X137618214Y-126563380D02*
X138094404Y-126563380D01*
X138094404Y-125563380D01*
X137332500Y-125658619D02*
X137284880Y-125611000D01*
X137189642Y-125563380D01*
X136951547Y-125563380D01*
X136856309Y-125611000D01*
X136808690Y-125658619D01*
X136761071Y-125753857D01*
X136761071Y-125849095D01*
X136808690Y-125991952D01*
X137380119Y-126563380D01*
X136761071Y-126563380D01*
X136380119Y-125658619D02*
X136332500Y-125611000D01*
X136237261Y-125563380D01*
X135999166Y-125563380D01*
X135903928Y-125611000D01*
X135856309Y-125658619D01*
X135808690Y-125753857D01*
X135808690Y-125849095D01*
X135856309Y-125991952D01*
X136427738Y-126563380D01*
X135808690Y-126563380D01*
X129992380Y-126065595D02*
X128992380Y-126065595D01*
X128992380Y-126446547D01*
X129040000Y-126541785D01*
X129087619Y-126589404D01*
X129182857Y-126637023D01*
X129325714Y-126637023D01*
X129420952Y-126589404D01*
X129468571Y-126541785D01*
X129516190Y-126446547D01*
X129516190Y-126065595D01*
X129087619Y-127017976D02*
X129040000Y-127065595D01*
X128992380Y-127160833D01*
X128992380Y-127398928D01*
X129040000Y-127494166D01*
X129087619Y-127541785D01*
X129182857Y-127589404D01*
X129278095Y-127589404D01*
X129420952Y-127541785D01*
X129992380Y-126970357D01*
X129992380Y-127589404D01*
X129087619Y-127970357D02*
X129040000Y-128017976D01*
X128992380Y-128113214D01*
X128992380Y-128351309D01*
X129040000Y-128446547D01*
X129087619Y-128494166D01*
X129182857Y-128541785D01*
X129278095Y-128541785D01*
X129420952Y-128494166D01*
X129992380Y-127922738D01*
X129992380Y-128541785D01*
X118832380Y-125970357D02*
X119832380Y-126208452D01*
X119118095Y-126398928D01*
X119832380Y-126589404D01*
X118832380Y-126827500D01*
X118927619Y-127160833D02*
X118880000Y-127208452D01*
X118832380Y-127303690D01*
X118832380Y-127541785D01*
X118880000Y-127637023D01*
X118927619Y-127684642D01*
X119022857Y-127732261D01*
X119118095Y-127732261D01*
X119260952Y-127684642D01*
X119832380Y-127113214D01*
X119832380Y-127732261D01*
X118927619Y-128113214D02*
X118880000Y-128160833D01*
X118832380Y-128256071D01*
X118832380Y-128494166D01*
X118880000Y-128589404D01*
X118927619Y-128637023D01*
X119022857Y-128684642D01*
X119118095Y-128684642D01*
X119260952Y-128637023D01*
X119832380Y-128065595D01*
X119832380Y-128684642D01*
X121372380Y-125922738D02*
X122372380Y-126256071D01*
X121372380Y-126589404D01*
X121467619Y-126875119D02*
X121420000Y-126922738D01*
X121372380Y-127017976D01*
X121372380Y-127256071D01*
X121420000Y-127351309D01*
X121467619Y-127398928D01*
X121562857Y-127446547D01*
X121658095Y-127446547D01*
X121800952Y-127398928D01*
X122372380Y-126827500D01*
X122372380Y-127446547D01*
X121467619Y-127827500D02*
X121420000Y-127875119D01*
X121372380Y-127970357D01*
X121372380Y-128208452D01*
X121420000Y-128303690D01*
X121467619Y-128351309D01*
X121562857Y-128398928D01*
X121658095Y-128398928D01*
X121800952Y-128351309D01*
X122372380Y-127779880D01*
X122372380Y-128398928D01*
X96686666Y-126017976D02*
X96686666Y-126494166D01*
X96972380Y-125922738D02*
X95972380Y-126256071D01*
X96972380Y-126589404D01*
X96686666Y-126875119D02*
X96686666Y-127351309D01*
X96972380Y-126779880D02*
X95972380Y-127113214D01*
X96972380Y-127446547D01*
X96972380Y-128303690D02*
X96972380Y-127732261D01*
X96972380Y-128017976D02*
X95972380Y-128017976D01*
X96115238Y-127922738D01*
X96210476Y-127827500D01*
X96258095Y-127732261D01*
X95972380Y-128637023D02*
X95972380Y-129256071D01*
X96353333Y-128922738D01*
X96353333Y-129065595D01*
X96400952Y-129160833D01*
X96448571Y-129208452D01*
X96543809Y-129256071D01*
X96781904Y-129256071D01*
X96877142Y-129208452D01*
X96924761Y-129160833D01*
X96972380Y-129065595D01*
X96972380Y-128779880D01*
X96924761Y-128684642D01*
X96877142Y-128637023D01*
X116816190Y-126256071D02*
X117292380Y-126256071D01*
X116292380Y-125922738D02*
X116816190Y-126256071D01*
X116292380Y-126589404D01*
X116387619Y-126875119D02*
X116340000Y-126922738D01*
X116292380Y-127017976D01*
X116292380Y-127256071D01*
X116340000Y-127351309D01*
X116387619Y-127398928D01*
X116482857Y-127446547D01*
X116578095Y-127446547D01*
X116720952Y-127398928D01*
X117292380Y-126827500D01*
X117292380Y-127446547D01*
X116387619Y-127827500D02*
X116340000Y-127875119D01*
X116292380Y-127970357D01*
X116292380Y-128208452D01*
X116340000Y-128303690D01*
X116387619Y-128351309D01*
X116482857Y-128398928D01*
X116578095Y-128398928D01*
X116720952Y-128351309D01*
X117292380Y-127779880D01*
X117292380Y-128398928D01*
X106846666Y-126017976D02*
X106846666Y-126494166D01*
X107132380Y-125922738D02*
X106132380Y-126256071D01*
X107132380Y-126589404D01*
X106846666Y-126875119D02*
X106846666Y-127351309D01*
X107132380Y-126779880D02*
X106132380Y-127113214D01*
X107132380Y-127446547D01*
X107132380Y-128303690D02*
X107132380Y-127732261D01*
X107132380Y-128017976D02*
X106132380Y-128017976D01*
X106275238Y-127922738D01*
X106370476Y-127827500D01*
X106418095Y-127732261D01*
X106132380Y-128637023D02*
X106132380Y-129303690D01*
X107132380Y-128875119D01*
X101766666Y-126017976D02*
X101766666Y-126494166D01*
X102052380Y-125922738D02*
X101052380Y-126256071D01*
X102052380Y-126589404D01*
X101766666Y-126875119D02*
X101766666Y-127351309D01*
X102052380Y-126779880D02*
X101052380Y-127113214D01*
X102052380Y-127446547D01*
X102052380Y-128303690D02*
X102052380Y-127732261D01*
X102052380Y-128017976D02*
X101052380Y-128017976D01*
X101195238Y-127922738D01*
X101290476Y-127827500D01*
X101338095Y-127732261D01*
X101052380Y-129208452D02*
X101052380Y-128732261D01*
X101528571Y-128684642D01*
X101480952Y-128732261D01*
X101433333Y-128827500D01*
X101433333Y-129065595D01*
X101480952Y-129160833D01*
X101528571Y-129208452D01*
X101623809Y-129256071D01*
X101861904Y-129256071D01*
X101957142Y-129208452D01*
X102004761Y-129160833D01*
X102052380Y-129065595D01*
X102052380Y-128827500D01*
X102004761Y-128732261D01*
X101957142Y-128684642D01*
X104306666Y-126017976D02*
X104306666Y-126494166D01*
X104592380Y-125922738D02*
X103592380Y-126256071D01*
X104592380Y-126589404D01*
X104306666Y-126875119D02*
X104306666Y-127351309D01*
X104592380Y-126779880D02*
X103592380Y-127113214D01*
X104592380Y-127446547D01*
X104592380Y-128303690D02*
X104592380Y-127732261D01*
X104592380Y-128017976D02*
X103592380Y-128017976D01*
X103735238Y-127922738D01*
X103830476Y-127827500D01*
X103878095Y-127732261D01*
X103592380Y-129160833D02*
X103592380Y-128970357D01*
X103640000Y-128875119D01*
X103687619Y-128827500D01*
X103830476Y-128732261D01*
X104020952Y-128684642D01*
X104401904Y-128684642D01*
X104497142Y-128732261D01*
X104544761Y-128779880D01*
X104592380Y-128875119D01*
X104592380Y-129065595D01*
X104544761Y-129160833D01*
X104497142Y-129208452D01*
X104401904Y-129256071D01*
X104163809Y-129256071D01*
X104068571Y-129208452D01*
X104020952Y-129160833D01*
X103973333Y-129065595D01*
X103973333Y-128875119D01*
X104020952Y-128779880D01*
X104068571Y-128732261D01*
X104163809Y-128684642D01*
X99226666Y-126017976D02*
X99226666Y-126494166D01*
X99512380Y-125922738D02*
X98512380Y-126256071D01*
X99512380Y-126589404D01*
X99226666Y-126875119D02*
X99226666Y-127351309D01*
X99512380Y-126779880D02*
X98512380Y-127113214D01*
X99512380Y-127446547D01*
X99512380Y-128303690D02*
X99512380Y-127732261D01*
X99512380Y-128017976D02*
X98512380Y-128017976D01*
X98655238Y-127922738D01*
X98750476Y-127827500D01*
X98798095Y-127732261D01*
X98845714Y-129160833D02*
X99512380Y-129160833D01*
X98464761Y-128922738D02*
X99179047Y-128684642D01*
X99179047Y-129303690D01*
X167092380Y-65581785D02*
X167092380Y-65105595D01*
X167568571Y-65057976D01*
X167520952Y-65105595D01*
X167473333Y-65200833D01*
X167473333Y-65438928D01*
X167520952Y-65534166D01*
X167568571Y-65581785D01*
X167663809Y-65629404D01*
X167901904Y-65629404D01*
X167997142Y-65581785D01*
X168044761Y-65534166D01*
X168092380Y-65438928D01*
X168092380Y-65200833D01*
X168044761Y-65105595D01*
X167997142Y-65057976D01*
X167092380Y-65915119D02*
X168092380Y-66248452D01*
X167092380Y-66581785D01*
X164600000Y-65629404D02*
X164552380Y-65534166D01*
X164552380Y-65391309D01*
X164600000Y-65248452D01*
X164695238Y-65153214D01*
X164790476Y-65105595D01*
X164980952Y-65057976D01*
X165123809Y-65057976D01*
X165314285Y-65105595D01*
X165409523Y-65153214D01*
X165504761Y-65248452D01*
X165552380Y-65391309D01*
X165552380Y-65486547D01*
X165504761Y-65629404D01*
X165457142Y-65677023D01*
X165123809Y-65677023D01*
X165123809Y-65486547D01*
X165552380Y-66105595D02*
X164552380Y-66105595D01*
X165552380Y-66677023D01*
X164552380Y-66677023D01*
X165552380Y-67153214D02*
X164552380Y-67153214D01*
X164552380Y-67391309D01*
X164600000Y-67534166D01*
X164695238Y-67629404D01*
X164790476Y-67677023D01*
X164980952Y-67724642D01*
X165123809Y-67724642D01*
X165314285Y-67677023D01*
X165409523Y-67629404D01*
X165504761Y-67534166D01*
X165552380Y-67391309D01*
X165552380Y-67153214D01*
X157408571Y-65438928D02*
X157456190Y-65581785D01*
X157503809Y-65629404D01*
X157599047Y-65677023D01*
X157741904Y-65677023D01*
X157837142Y-65629404D01*
X157884761Y-65581785D01*
X157932380Y-65486547D01*
X157932380Y-65105595D01*
X156932380Y-65105595D01*
X156932380Y-65438928D01*
X156980000Y-65534166D01*
X157027619Y-65581785D01*
X157122857Y-65629404D01*
X157218095Y-65629404D01*
X157313333Y-65581785D01*
X157360952Y-65534166D01*
X157408571Y-65438928D01*
X157408571Y-65105595D01*
X157932380Y-66629404D02*
X157932380Y-66057976D01*
X157932380Y-66343690D02*
X156932380Y-66343690D01*
X157075238Y-66248452D01*
X157170476Y-66153214D01*
X157218095Y-66057976D01*
X157360952Y-67200833D02*
X157313333Y-67105595D01*
X157265714Y-67057976D01*
X157170476Y-67010357D01*
X157122857Y-67010357D01*
X157027619Y-67057976D01*
X156980000Y-67105595D01*
X156932380Y-67200833D01*
X156932380Y-67391309D01*
X156980000Y-67486547D01*
X157027619Y-67534166D01*
X157122857Y-67581785D01*
X157170476Y-67581785D01*
X157265714Y-67534166D01*
X157313333Y-67486547D01*
X157360952Y-67391309D01*
X157360952Y-67200833D01*
X157408571Y-67105595D01*
X157456190Y-67057976D01*
X157551428Y-67010357D01*
X157741904Y-67010357D01*
X157837142Y-67057976D01*
X157884761Y-67105595D01*
X157932380Y-67200833D01*
X157932380Y-67391309D01*
X157884761Y-67486547D01*
X157837142Y-67534166D01*
X157741904Y-67581785D01*
X157551428Y-67581785D01*
X157456190Y-67534166D01*
X157408571Y-67486547D01*
X157360952Y-67391309D01*
X152328571Y-65438928D02*
X152376190Y-65581785D01*
X152423809Y-65629404D01*
X152519047Y-65677023D01*
X152661904Y-65677023D01*
X152757142Y-65629404D01*
X152804761Y-65581785D01*
X152852380Y-65486547D01*
X152852380Y-65105595D01*
X151852380Y-65105595D01*
X151852380Y-65438928D01*
X151900000Y-65534166D01*
X151947619Y-65581785D01*
X152042857Y-65629404D01*
X152138095Y-65629404D01*
X152233333Y-65581785D01*
X152280952Y-65534166D01*
X152328571Y-65438928D01*
X152328571Y-65105595D01*
X152852380Y-66629404D02*
X152852380Y-66057976D01*
X152852380Y-66343690D02*
X151852380Y-66343690D01*
X151995238Y-66248452D01*
X152090476Y-66153214D01*
X152138095Y-66057976D01*
X151852380Y-67486547D02*
X151852380Y-67296071D01*
X151900000Y-67200833D01*
X151947619Y-67153214D01*
X152090476Y-67057976D01*
X152280952Y-67010357D01*
X152661904Y-67010357D01*
X152757142Y-67057976D01*
X152804761Y-67105595D01*
X152852380Y-67200833D01*
X152852380Y-67391309D01*
X152804761Y-67486547D01*
X152757142Y-67534166D01*
X152661904Y-67581785D01*
X152423809Y-67581785D01*
X152328571Y-67534166D01*
X152280952Y-67486547D01*
X152233333Y-67391309D01*
X152233333Y-67200833D01*
X152280952Y-67105595D01*
X152328571Y-67057976D01*
X152423809Y-67010357D01*
X159948571Y-65438928D02*
X159996190Y-65581785D01*
X160043809Y-65629404D01*
X160139047Y-65677023D01*
X160281904Y-65677023D01*
X160377142Y-65629404D01*
X160424761Y-65581785D01*
X160472380Y-65486547D01*
X160472380Y-65105595D01*
X159472380Y-65105595D01*
X159472380Y-65438928D01*
X159520000Y-65534166D01*
X159567619Y-65581785D01*
X159662857Y-65629404D01*
X159758095Y-65629404D01*
X159853333Y-65581785D01*
X159900952Y-65534166D01*
X159948571Y-65438928D01*
X159948571Y-65105595D01*
X160472380Y-66629404D02*
X160472380Y-66057976D01*
X160472380Y-66343690D02*
X159472380Y-66343690D01*
X159615238Y-66248452D01*
X159710476Y-66153214D01*
X159758095Y-66057976D01*
X160472380Y-67105595D02*
X160472380Y-67296071D01*
X160424761Y-67391309D01*
X160377142Y-67438928D01*
X160234285Y-67534166D01*
X160043809Y-67581785D01*
X159662857Y-67581785D01*
X159567619Y-67534166D01*
X159520000Y-67486547D01*
X159472380Y-67391309D01*
X159472380Y-67200833D01*
X159520000Y-67105595D01*
X159567619Y-67057976D01*
X159662857Y-67010357D01*
X159900952Y-67010357D01*
X159996190Y-67057976D01*
X160043809Y-67105595D01*
X160091428Y-67200833D01*
X160091428Y-67391309D01*
X160043809Y-67486547D01*
X159996190Y-67534166D01*
X159900952Y-67581785D01*
X162488571Y-65438928D02*
X162536190Y-65581785D01*
X162583809Y-65629404D01*
X162679047Y-65677023D01*
X162821904Y-65677023D01*
X162917142Y-65629404D01*
X162964761Y-65581785D01*
X163012380Y-65486547D01*
X163012380Y-65105595D01*
X162012380Y-65105595D01*
X162012380Y-65438928D01*
X162060000Y-65534166D01*
X162107619Y-65581785D01*
X162202857Y-65629404D01*
X162298095Y-65629404D01*
X162393333Y-65581785D01*
X162440952Y-65534166D01*
X162488571Y-65438928D01*
X162488571Y-65105595D01*
X162107619Y-66057976D02*
X162060000Y-66105595D01*
X162012380Y-66200833D01*
X162012380Y-66438928D01*
X162060000Y-66534166D01*
X162107619Y-66581785D01*
X162202857Y-66629404D01*
X162298095Y-66629404D01*
X162440952Y-66581785D01*
X163012380Y-66010357D01*
X163012380Y-66629404D01*
X162012380Y-67248452D02*
X162012380Y-67343690D01*
X162060000Y-67438928D01*
X162107619Y-67486547D01*
X162202857Y-67534166D01*
X162393333Y-67581785D01*
X162631428Y-67581785D01*
X162821904Y-67534166D01*
X162917142Y-67486547D01*
X162964761Y-67438928D01*
X163012380Y-67343690D01*
X163012380Y-67248452D01*
X162964761Y-67153214D01*
X162917142Y-67105595D01*
X162821904Y-67057976D01*
X162631428Y-67010357D01*
X162393333Y-67010357D01*
X162202857Y-67057976D01*
X162107619Y-67105595D01*
X162060000Y-67153214D01*
X162012380Y-67248452D01*
X154868571Y-65438928D02*
X154916190Y-65581785D01*
X154963809Y-65629404D01*
X155059047Y-65677023D01*
X155201904Y-65677023D01*
X155297142Y-65629404D01*
X155344761Y-65581785D01*
X155392380Y-65486547D01*
X155392380Y-65105595D01*
X154392380Y-65105595D01*
X154392380Y-65438928D01*
X154440000Y-65534166D01*
X154487619Y-65581785D01*
X154582857Y-65629404D01*
X154678095Y-65629404D01*
X154773333Y-65581785D01*
X154820952Y-65534166D01*
X154868571Y-65438928D01*
X154868571Y-65105595D01*
X155392380Y-66629404D02*
X155392380Y-66057976D01*
X155392380Y-66343690D02*
X154392380Y-66343690D01*
X154535238Y-66248452D01*
X154630476Y-66153214D01*
X154678095Y-66057976D01*
X154392380Y-66962738D02*
X154392380Y-67629404D01*
X155392380Y-67200833D01*
X144708571Y-65438928D02*
X144756190Y-65581785D01*
X144803809Y-65629404D01*
X144899047Y-65677023D01*
X145041904Y-65677023D01*
X145137142Y-65629404D01*
X145184761Y-65581785D01*
X145232380Y-65486547D01*
X145232380Y-65105595D01*
X144232380Y-65105595D01*
X144232380Y-65438928D01*
X144280000Y-65534166D01*
X144327619Y-65581785D01*
X144422857Y-65629404D01*
X144518095Y-65629404D01*
X144613333Y-65581785D01*
X144660952Y-65534166D01*
X144708571Y-65438928D01*
X144708571Y-65105595D01*
X145232380Y-66629404D02*
X145232380Y-66057976D01*
X145232380Y-66343690D02*
X144232380Y-66343690D01*
X144375238Y-66248452D01*
X144470476Y-66153214D01*
X144518095Y-66057976D01*
X144232380Y-66962738D02*
X144232380Y-67581785D01*
X144613333Y-67248452D01*
X144613333Y-67391309D01*
X144660952Y-67486547D01*
X144708571Y-67534166D01*
X144803809Y-67581785D01*
X145041904Y-67581785D01*
X145137142Y-67534166D01*
X145184761Y-67486547D01*
X145232380Y-67391309D01*
X145232380Y-67105595D01*
X145184761Y-67010357D01*
X145137142Y-66962738D01*
X139628571Y-65438928D02*
X139676190Y-65581785D01*
X139723809Y-65629404D01*
X139819047Y-65677023D01*
X139961904Y-65677023D01*
X140057142Y-65629404D01*
X140104761Y-65581785D01*
X140152380Y-65486547D01*
X140152380Y-65105595D01*
X139152380Y-65105595D01*
X139152380Y-65438928D01*
X139200000Y-65534166D01*
X139247619Y-65581785D01*
X139342857Y-65629404D01*
X139438095Y-65629404D01*
X139533333Y-65581785D01*
X139580952Y-65534166D01*
X139628571Y-65438928D01*
X139628571Y-65105595D01*
X140152380Y-66153214D02*
X140152380Y-66343690D01*
X140104761Y-66438928D01*
X140057142Y-66486547D01*
X139914285Y-66581785D01*
X139723809Y-66629404D01*
X139342857Y-66629404D01*
X139247619Y-66581785D01*
X139200000Y-66534166D01*
X139152380Y-66438928D01*
X139152380Y-66248452D01*
X139200000Y-66153214D01*
X139247619Y-66105595D01*
X139342857Y-66057976D01*
X139580952Y-66057976D01*
X139676190Y-66105595D01*
X139723809Y-66153214D01*
X139771428Y-66248452D01*
X139771428Y-66438928D01*
X139723809Y-66534166D01*
X139676190Y-66581785D01*
X139580952Y-66629404D01*
X147248571Y-68105928D02*
X147296190Y-68248785D01*
X147343809Y-68296404D01*
X147439047Y-68344023D01*
X147581904Y-68344023D01*
X147677142Y-68296404D01*
X147724761Y-68248785D01*
X147772380Y-68153547D01*
X147772380Y-67772595D01*
X146772380Y-67772595D01*
X146772380Y-68105928D01*
X146820000Y-68201166D01*
X146867619Y-68248785D01*
X146962857Y-68296404D01*
X147058095Y-68296404D01*
X147153333Y-68248785D01*
X147200952Y-68201166D01*
X147248571Y-68105928D01*
X147248571Y-67772595D01*
X147772380Y-69296404D02*
X147772380Y-68724976D01*
X147772380Y-69010690D02*
X146772380Y-69010690D01*
X146915238Y-68915452D01*
X147010476Y-68820214D01*
X147058095Y-68724976D01*
X147105714Y-70153547D02*
X147772380Y-70153547D01*
X146724761Y-69915452D02*
X147439047Y-69677357D01*
X147439047Y-70296404D01*
X149788571Y-65438928D02*
X149836190Y-65581785D01*
X149883809Y-65629404D01*
X149979047Y-65677023D01*
X150121904Y-65677023D01*
X150217142Y-65629404D01*
X150264761Y-65581785D01*
X150312380Y-65486547D01*
X150312380Y-65105595D01*
X149312380Y-65105595D01*
X149312380Y-65438928D01*
X149360000Y-65534166D01*
X149407619Y-65581785D01*
X149502857Y-65629404D01*
X149598095Y-65629404D01*
X149693333Y-65581785D01*
X149740952Y-65534166D01*
X149788571Y-65438928D01*
X149788571Y-65105595D01*
X150312380Y-66629404D02*
X150312380Y-66057976D01*
X150312380Y-66343690D02*
X149312380Y-66343690D01*
X149455238Y-66248452D01*
X149550476Y-66153214D01*
X149598095Y-66057976D01*
X149312380Y-67534166D02*
X149312380Y-67057976D01*
X149788571Y-67010357D01*
X149740952Y-67057976D01*
X149693333Y-67153214D01*
X149693333Y-67391309D01*
X149740952Y-67486547D01*
X149788571Y-67534166D01*
X149883809Y-67581785D01*
X150121904Y-67581785D01*
X150217142Y-67534166D01*
X150264761Y-67486547D01*
X150312380Y-67391309D01*
X150312380Y-67153214D01*
X150264761Y-67057976D01*
X150217142Y-67010357D01*
X142168571Y-65438928D02*
X142216190Y-65581785D01*
X142263809Y-65629404D01*
X142359047Y-65677023D01*
X142501904Y-65677023D01*
X142597142Y-65629404D01*
X142644761Y-65581785D01*
X142692380Y-65486547D01*
X142692380Y-65105595D01*
X141692380Y-65105595D01*
X141692380Y-65438928D01*
X141740000Y-65534166D01*
X141787619Y-65581785D01*
X141882857Y-65629404D01*
X141978095Y-65629404D01*
X142073333Y-65581785D01*
X142120952Y-65534166D01*
X142168571Y-65438928D01*
X142168571Y-65105595D01*
X142692380Y-66629404D02*
X142692380Y-66057976D01*
X142692380Y-66343690D02*
X141692380Y-66343690D01*
X141835238Y-66248452D01*
X141930476Y-66153214D01*
X141978095Y-66057976D01*
X141692380Y-67248452D02*
X141692380Y-67343690D01*
X141740000Y-67438928D01*
X141787619Y-67486547D01*
X141882857Y-67534166D01*
X142073333Y-67581785D01*
X142311428Y-67581785D01*
X142501904Y-67534166D01*
X142597142Y-67486547D01*
X142644761Y-67438928D01*
X142692380Y-67343690D01*
X142692380Y-67248452D01*
X142644761Y-67153214D01*
X142597142Y-67105595D01*
X142501904Y-67057976D01*
X142311428Y-67010357D01*
X142073333Y-67010357D01*
X141882857Y-67057976D01*
X141787619Y-67105595D01*
X141740000Y-67153214D01*
X141692380Y-67248452D01*
X132008571Y-65438928D02*
X132056190Y-65581785D01*
X132103809Y-65629404D01*
X132199047Y-65677023D01*
X132341904Y-65677023D01*
X132437142Y-65629404D01*
X132484761Y-65581785D01*
X132532380Y-65486547D01*
X132532380Y-65105595D01*
X131532380Y-65105595D01*
X131532380Y-65438928D01*
X131580000Y-65534166D01*
X131627619Y-65581785D01*
X131722857Y-65629404D01*
X131818095Y-65629404D01*
X131913333Y-65581785D01*
X131960952Y-65534166D01*
X132008571Y-65438928D01*
X132008571Y-65105595D01*
X131532380Y-66534166D02*
X131532380Y-66343690D01*
X131580000Y-66248452D01*
X131627619Y-66200833D01*
X131770476Y-66105595D01*
X131960952Y-66057976D01*
X132341904Y-66057976D01*
X132437142Y-66105595D01*
X132484761Y-66153214D01*
X132532380Y-66248452D01*
X132532380Y-66438928D01*
X132484761Y-66534166D01*
X132437142Y-66581785D01*
X132341904Y-66629404D01*
X132103809Y-66629404D01*
X132008571Y-66581785D01*
X131960952Y-66534166D01*
X131913333Y-66438928D01*
X131913333Y-66248452D01*
X131960952Y-66153214D01*
X132008571Y-66105595D01*
X132103809Y-66057976D01*
X127357142Y-65677023D02*
X127404761Y-65629404D01*
X127452380Y-65486547D01*
X127452380Y-65391309D01*
X127404761Y-65248452D01*
X127309523Y-65153214D01*
X127214285Y-65105595D01*
X127023809Y-65057976D01*
X126880952Y-65057976D01*
X126690476Y-65105595D01*
X126595238Y-65153214D01*
X126500000Y-65248452D01*
X126452380Y-65391309D01*
X126452380Y-65486547D01*
X126500000Y-65629404D01*
X126547619Y-65677023D01*
X126785714Y-66534166D02*
X127452380Y-66534166D01*
X126404761Y-66296071D02*
X127119047Y-66057976D01*
X127119047Y-66677023D01*
X134675571Y-65438928D02*
X134723190Y-65581785D01*
X134770809Y-65629404D01*
X134866047Y-65677023D01*
X135008904Y-65677023D01*
X135104142Y-65629404D01*
X135151761Y-65581785D01*
X135199380Y-65486547D01*
X135199380Y-65105595D01*
X134199380Y-65105595D01*
X134199380Y-65438928D01*
X134247000Y-65534166D01*
X134294619Y-65581785D01*
X134389857Y-65629404D01*
X134485095Y-65629404D01*
X134580333Y-65581785D01*
X134627952Y-65534166D01*
X134675571Y-65438928D01*
X134675571Y-65105595D01*
X134199380Y-66010357D02*
X134199380Y-66677023D01*
X135199380Y-66248452D01*
X137088571Y-65438928D02*
X137136190Y-65581785D01*
X137183809Y-65629404D01*
X137279047Y-65677023D01*
X137421904Y-65677023D01*
X137517142Y-65629404D01*
X137564761Y-65581785D01*
X137612380Y-65486547D01*
X137612380Y-65105595D01*
X136612380Y-65105595D01*
X136612380Y-65438928D01*
X136660000Y-65534166D01*
X136707619Y-65581785D01*
X136802857Y-65629404D01*
X136898095Y-65629404D01*
X136993333Y-65581785D01*
X137040952Y-65534166D01*
X137088571Y-65438928D01*
X137088571Y-65105595D01*
X137040952Y-66248452D02*
X136993333Y-66153214D01*
X136945714Y-66105595D01*
X136850476Y-66057976D01*
X136802857Y-66057976D01*
X136707619Y-66105595D01*
X136660000Y-66153214D01*
X136612380Y-66248452D01*
X136612380Y-66438928D01*
X136660000Y-66534166D01*
X136707619Y-66581785D01*
X136802857Y-66629404D01*
X136850476Y-66629404D01*
X136945714Y-66581785D01*
X136993333Y-66534166D01*
X137040952Y-66438928D01*
X137040952Y-66248452D01*
X137088571Y-66153214D01*
X137136190Y-66105595D01*
X137231428Y-66057976D01*
X137421904Y-66057976D01*
X137517142Y-66105595D01*
X137564761Y-66153214D01*
X137612380Y-66248452D01*
X137612380Y-66438928D01*
X137564761Y-66534166D01*
X137517142Y-66581785D01*
X137421904Y-66629404D01*
X137231428Y-66629404D01*
X137136190Y-66581785D01*
X137088571Y-66534166D01*
X137040952Y-66438928D01*
X129468571Y-65438928D02*
X129516190Y-65581785D01*
X129563809Y-65629404D01*
X129659047Y-65677023D01*
X129801904Y-65677023D01*
X129897142Y-65629404D01*
X129944761Y-65581785D01*
X129992380Y-65486547D01*
X129992380Y-65105595D01*
X128992380Y-65105595D01*
X128992380Y-65438928D01*
X129040000Y-65534166D01*
X129087619Y-65581785D01*
X129182857Y-65629404D01*
X129278095Y-65629404D01*
X129373333Y-65581785D01*
X129420952Y-65534166D01*
X129468571Y-65438928D01*
X129468571Y-65105595D01*
X128992380Y-66581785D02*
X128992380Y-66105595D01*
X129468571Y-66057976D01*
X129420952Y-66105595D01*
X129373333Y-66200833D01*
X129373333Y-66438928D01*
X129420952Y-66534166D01*
X129468571Y-66581785D01*
X129563809Y-66629404D01*
X129801904Y-66629404D01*
X129897142Y-66581785D01*
X129944761Y-66534166D01*
X129992380Y-66438928D01*
X129992380Y-66200833D01*
X129944761Y-66105595D01*
X129897142Y-66057976D01*
X119308571Y-65438928D02*
X119356190Y-65581785D01*
X119403809Y-65629404D01*
X119499047Y-65677023D01*
X119641904Y-65677023D01*
X119737142Y-65629404D01*
X119784761Y-65581785D01*
X119832380Y-65486547D01*
X119832380Y-65105595D01*
X118832380Y-65105595D01*
X118832380Y-65438928D01*
X118880000Y-65534166D01*
X118927619Y-65581785D01*
X119022857Y-65629404D01*
X119118095Y-65629404D01*
X119213333Y-65581785D01*
X119260952Y-65534166D01*
X119308571Y-65438928D01*
X119308571Y-65105595D01*
X119832380Y-66629404D02*
X119832380Y-66057976D01*
X119832380Y-66343690D02*
X118832380Y-66343690D01*
X118975238Y-66248452D01*
X119070476Y-66153214D01*
X119118095Y-66057976D01*
X114228571Y-65105595D02*
X114228571Y-65438928D01*
X114752380Y-65581785D02*
X114752380Y-65105595D01*
X113752380Y-65105595D01*
X113752380Y-65581785D01*
X114752380Y-66534166D02*
X114752380Y-65962738D01*
X114752380Y-66248452D02*
X113752380Y-66248452D01*
X113895238Y-66153214D01*
X113990476Y-66057976D01*
X114038095Y-65962738D01*
X121848571Y-65438928D02*
X121896190Y-65581785D01*
X121943809Y-65629404D01*
X122039047Y-65677023D01*
X122181904Y-65677023D01*
X122277142Y-65629404D01*
X122324761Y-65581785D01*
X122372380Y-65486547D01*
X122372380Y-65105595D01*
X121372380Y-65105595D01*
X121372380Y-65438928D01*
X121420000Y-65534166D01*
X121467619Y-65581785D01*
X121562857Y-65629404D01*
X121658095Y-65629404D01*
X121753333Y-65581785D01*
X121800952Y-65534166D01*
X121848571Y-65438928D01*
X121848571Y-65105595D01*
X121372380Y-66010357D02*
X121372380Y-66629404D01*
X121753333Y-66296071D01*
X121753333Y-66438928D01*
X121800952Y-66534166D01*
X121848571Y-66581785D01*
X121943809Y-66629404D01*
X122181904Y-66629404D01*
X122277142Y-66581785D01*
X122324761Y-66534166D01*
X122372380Y-66438928D01*
X122372380Y-66153214D01*
X122324761Y-66057976D01*
X122277142Y-66010357D01*
X124388571Y-65438928D02*
X124436190Y-65581785D01*
X124483809Y-65629404D01*
X124579047Y-65677023D01*
X124721904Y-65677023D01*
X124817142Y-65629404D01*
X124864761Y-65581785D01*
X124912380Y-65486547D01*
X124912380Y-65105595D01*
X123912380Y-65105595D01*
X123912380Y-65438928D01*
X123960000Y-65534166D01*
X124007619Y-65581785D01*
X124102857Y-65629404D01*
X124198095Y-65629404D01*
X124293333Y-65581785D01*
X124340952Y-65534166D01*
X124388571Y-65438928D01*
X124388571Y-65105595D01*
X124245714Y-66534166D02*
X124912380Y-66534166D01*
X123864761Y-66296071D02*
X124579047Y-66057976D01*
X124579047Y-66677023D01*
X117197142Y-65677023D02*
X117244761Y-65629404D01*
X117292380Y-65486547D01*
X117292380Y-65391309D01*
X117244761Y-65248452D01*
X117149523Y-65153214D01*
X117054285Y-65105595D01*
X116863809Y-65057976D01*
X116720952Y-65057976D01*
X116530476Y-65105595D01*
X116435238Y-65153214D01*
X116340000Y-65248452D01*
X116292380Y-65391309D01*
X116292380Y-65486547D01*
X116340000Y-65629404D01*
X116387619Y-65677023D01*
X117292380Y-66629404D02*
X117292380Y-66057976D01*
X117292380Y-66343690D02*
X116292380Y-66343690D01*
X116435238Y-66248452D01*
X116530476Y-66153214D01*
X116578095Y-66057976D01*
X105751380Y-65391309D02*
X106465666Y-65391309D01*
X106608523Y-65343690D01*
X106703761Y-65248452D01*
X106751380Y-65105595D01*
X106751380Y-65010357D01*
X106751380Y-66391309D02*
X106751380Y-65819880D01*
X106751380Y-66105595D02*
X105751380Y-66105595D01*
X105894238Y-66010357D01*
X105989476Y-65915119D01*
X106037095Y-65819880D01*
X102052380Y-65105595D02*
X101052380Y-65105595D01*
X102052380Y-65677023D01*
X101052380Y-65677023D01*
X102052380Y-66677023D02*
X102052380Y-66105595D01*
X102052380Y-66391309D02*
X101052380Y-66391309D01*
X101195238Y-66296071D01*
X101290476Y-66200833D01*
X101338095Y-66105595D01*
X109672380Y-65994595D02*
X108672380Y-65994595D01*
X109148571Y-65994595D02*
X109148571Y-66566023D01*
X109672380Y-66566023D02*
X108672380Y-66566023D01*
X109672380Y-67566023D02*
X109672380Y-66994595D01*
X109672380Y-67280309D02*
X108672380Y-67280309D01*
X108815238Y-67185071D01*
X108910476Y-67089833D01*
X108958095Y-66994595D01*
X112069571Y-65438928D02*
X112069571Y-65105595D01*
X112593380Y-65105595D02*
X111593380Y-65105595D01*
X111593380Y-65581785D01*
X112593380Y-66486547D02*
X112593380Y-65915119D01*
X112593380Y-66200833D02*
X111593380Y-66200833D01*
X111736238Y-66105595D01*
X111831476Y-66010357D01*
X111879095Y-65915119D01*
X104592380Y-65105595D02*
X103592380Y-65105595D01*
X104306666Y-65438928D01*
X103592380Y-65772261D01*
X104592380Y-65772261D01*
X104592380Y-66772261D02*
X104592380Y-66200833D01*
X104592380Y-66486547D02*
X103592380Y-66486547D01*
X103735238Y-66391309D01*
X103830476Y-66296071D01*
X103878095Y-66200833D01*
X99766380Y-65105595D02*
X98766380Y-65105595D01*
X98766380Y-65486547D01*
X98814000Y-65581785D01*
X98861619Y-65629404D01*
X98956857Y-65677023D01*
X99099714Y-65677023D01*
X99194952Y-65629404D01*
X99242571Y-65581785D01*
X99290190Y-65486547D01*
X99290190Y-65105595D01*
X99766380Y-66629404D02*
X99766380Y-66057976D01*
X99766380Y-66343690D02*
X98766380Y-66343690D01*
X98909238Y-66248452D01*
X99004476Y-66153214D01*
X99052095Y-66057976D01*
X96972380Y-66566023D02*
X96496190Y-66232690D01*
X96972380Y-65994595D02*
X95972380Y-65994595D01*
X95972380Y-66375547D01*
X96020000Y-66470785D01*
X96067619Y-66518404D01*
X96162857Y-66566023D01*
X96305714Y-66566023D01*
X96400952Y-66518404D01*
X96448571Y-66470785D01*
X96496190Y-66375547D01*
X96496190Y-65994595D01*
X96972380Y-67518404D02*
X96972380Y-66946976D01*
X96972380Y-67232690D02*
X95972380Y-67232690D01*
X96115238Y-67137452D01*
X96210476Y-67042214D01*
X96258095Y-66946976D01*
X93988000Y-65502404D02*
X93940380Y-65407166D01*
X93940380Y-65264309D01*
X93988000Y-65121452D01*
X94083238Y-65026214D01*
X94178476Y-64978595D01*
X94368952Y-64930976D01*
X94511809Y-64930976D01*
X94702285Y-64978595D01*
X94797523Y-65026214D01*
X94892761Y-65121452D01*
X94940380Y-65264309D01*
X94940380Y-65359547D01*
X94892761Y-65502404D01*
X94845142Y-65550023D01*
X94511809Y-65550023D01*
X94511809Y-65359547D01*
X94940380Y-65978595D02*
X93940380Y-65978595D01*
X94940380Y-66550023D01*
X93940380Y-66550023D01*
X94940380Y-67026214D02*
X93940380Y-67026214D01*
X93940380Y-67264309D01*
X93988000Y-67407166D01*
X94083238Y-67502404D01*
X94178476Y-67550023D01*
X94368952Y-67597642D01*
X94511809Y-67597642D01*
X94702285Y-67550023D01*
X94797523Y-67502404D01*
X94892761Y-67407166D01*
X94940380Y-67264309D01*
X94940380Y-67026214D01*
X92162380Y-65264357D02*
X92162380Y-65883404D01*
X92543333Y-65550071D01*
X92543333Y-65692928D01*
X92590952Y-65788166D01*
X92638571Y-65835785D01*
X92733809Y-65883404D01*
X92971904Y-65883404D01*
X93067142Y-65835785D01*
X93114761Y-65788166D01*
X93162380Y-65692928D01*
X93162380Y-65407214D01*
X93114761Y-65311976D01*
X93067142Y-65264357D01*
X92162380Y-66169119D02*
X93162380Y-66502452D01*
X92162380Y-66835785D01*
X92162380Y-67073880D02*
X92162380Y-67692928D01*
X92543333Y-67359595D01*
X92543333Y-67502452D01*
X92590952Y-67597690D01*
X92638571Y-67645309D01*
X92733809Y-67692928D01*
X92971904Y-67692928D01*
X93067142Y-67645309D01*
X93114761Y-67597690D01*
X93162380Y-67502452D01*
X93162380Y-67216738D01*
X93114761Y-67121500D01*
X93067142Y-67073880D01*
X87130000Y-65756404D02*
X87082380Y-65661166D01*
X87082380Y-65518309D01*
X87130000Y-65375452D01*
X87225238Y-65280214D01*
X87320476Y-65232595D01*
X87510952Y-65184976D01*
X87653809Y-65184976D01*
X87844285Y-65232595D01*
X87939523Y-65280214D01*
X88034761Y-65375452D01*
X88082380Y-65518309D01*
X88082380Y-65613547D01*
X88034761Y-65756404D01*
X87987142Y-65804023D01*
X87653809Y-65804023D01*
X87653809Y-65613547D01*
X88082380Y-66232595D02*
X87082380Y-66232595D01*
X88082380Y-66804023D01*
X87082380Y-66804023D01*
X88082380Y-67280214D02*
X87082380Y-67280214D01*
X87082380Y-67518309D01*
X87130000Y-67661166D01*
X87225238Y-67756404D01*
X87320476Y-67804023D01*
X87510952Y-67851642D01*
X87653809Y-67851642D01*
X87844285Y-67804023D01*
X87939523Y-67756404D01*
X88034761Y-67661166D01*
X88082380Y-67518309D01*
X88082380Y-67280214D01*
X168362380Y-119203261D02*
X168362380Y-118727071D01*
X168838571Y-118679452D01*
X168790952Y-118727071D01*
X168743333Y-118822309D01*
X168743333Y-119060404D01*
X168790952Y-119155642D01*
X168838571Y-119203261D01*
X168933809Y-119250880D01*
X169171904Y-119250880D01*
X169267142Y-119203261D01*
X169314761Y-119155642D01*
X169362380Y-119060404D01*
X169362380Y-118822309D01*
X169314761Y-118727071D01*
X169267142Y-118679452D01*
X168362380Y-119536595D02*
X169362380Y-119869928D01*
X168362380Y-120203261D01*
X93861000Y-118266785D02*
X93813380Y-118171547D01*
X93813380Y-118028690D01*
X93861000Y-117885833D01*
X93956238Y-117790595D01*
X94051476Y-117742976D01*
X94241952Y-117695357D01*
X94384809Y-117695357D01*
X94575285Y-117742976D01*
X94670523Y-117790595D01*
X94765761Y-117885833D01*
X94813380Y-118028690D01*
X94813380Y-118123928D01*
X94765761Y-118266785D01*
X94718142Y-118314404D01*
X94384809Y-118314404D01*
X94384809Y-118123928D01*
X94813380Y-118742976D02*
X93813380Y-118742976D01*
X94813380Y-119314404D01*
X93813380Y-119314404D01*
X94813380Y-119790595D02*
X93813380Y-119790595D01*
X93813380Y-120028690D01*
X93861000Y-120171547D01*
X93956238Y-120266785D01*
X94051476Y-120314404D01*
X94241952Y-120362023D01*
X94384809Y-120362023D01*
X94575285Y-120314404D01*
X94670523Y-120266785D01*
X94765761Y-120171547D01*
X94813380Y-120028690D01*
X94813380Y-119790595D01*
X96686666Y-116981071D02*
X96686666Y-117457261D01*
X96972380Y-116885833D02*
X95972380Y-117219166D01*
X96972380Y-117552500D01*
X96448571Y-118219166D02*
X96496190Y-118362023D01*
X96543809Y-118409642D01*
X96639047Y-118457261D01*
X96781904Y-118457261D01*
X96877142Y-118409642D01*
X96924761Y-118362023D01*
X96972380Y-118266785D01*
X96972380Y-117885833D01*
X95972380Y-117885833D01*
X95972380Y-118219166D01*
X96020000Y-118314404D01*
X96067619Y-118362023D01*
X96162857Y-118409642D01*
X96258095Y-118409642D01*
X96353333Y-118362023D01*
X96400952Y-118314404D01*
X96448571Y-118219166D01*
X96448571Y-117885833D01*
X96972380Y-119409642D02*
X96972380Y-118838214D01*
X96972380Y-119123928D02*
X95972380Y-119123928D01*
X96115238Y-119028690D01*
X96210476Y-118933452D01*
X96258095Y-118838214D01*
X95972380Y-119742976D02*
X95972380Y-120362023D01*
X96353333Y-120028690D01*
X96353333Y-120171547D01*
X96400952Y-120266785D01*
X96448571Y-120314404D01*
X96543809Y-120362023D01*
X96781904Y-120362023D01*
X96877142Y-120314404D01*
X96924761Y-120266785D01*
X96972380Y-120171547D01*
X96972380Y-119885833D01*
X96924761Y-119790595D01*
X96877142Y-119742976D01*
X87257000Y-118393785D02*
X87209380Y-118298547D01*
X87209380Y-118155690D01*
X87257000Y-118012833D01*
X87352238Y-117917595D01*
X87447476Y-117869976D01*
X87637952Y-117822357D01*
X87780809Y-117822357D01*
X87971285Y-117869976D01*
X88066523Y-117917595D01*
X88161761Y-118012833D01*
X88209380Y-118155690D01*
X88209380Y-118250928D01*
X88161761Y-118393785D01*
X88114142Y-118441404D01*
X87780809Y-118441404D01*
X87780809Y-118250928D01*
X88209380Y-118869976D02*
X87209380Y-118869976D01*
X88209380Y-119441404D01*
X87209380Y-119441404D01*
X88209380Y-119917595D02*
X87209380Y-119917595D01*
X87209380Y-120155690D01*
X87257000Y-120298547D01*
X87352238Y-120393785D01*
X87447476Y-120441404D01*
X87637952Y-120489023D01*
X87780809Y-120489023D01*
X87971285Y-120441404D01*
X88066523Y-120393785D01*
X88161761Y-120298547D01*
X88209380Y-120155690D01*
X88209380Y-119917595D01*
X92162380Y-117933452D02*
X92162380Y-118552500D01*
X92543333Y-118219166D01*
X92543333Y-118362023D01*
X92590952Y-118457261D01*
X92638571Y-118504880D01*
X92733809Y-118552500D01*
X92971904Y-118552500D01*
X93067142Y-118504880D01*
X93114761Y-118457261D01*
X93162380Y-118362023D01*
X93162380Y-118076309D01*
X93114761Y-117981071D01*
X93067142Y-117933452D01*
X92162380Y-118838214D02*
X93162380Y-119171547D01*
X92162380Y-119504880D01*
X92162380Y-119742976D02*
X92162380Y-120362023D01*
X92543333Y-120028690D01*
X92543333Y-120171547D01*
X92590952Y-120266785D01*
X92638571Y-120314404D01*
X92733809Y-120362023D01*
X92971904Y-120362023D01*
X93067142Y-120314404D01*
X93114761Y-120266785D01*
X93162380Y-120171547D01*
X93162380Y-119885833D01*
X93114761Y-119790595D01*
X93067142Y-119742976D01*
X116816190Y-118219166D02*
X117292380Y-118219166D01*
X116292380Y-117885833D02*
X116816190Y-118219166D01*
X116292380Y-118552500D01*
X116387619Y-118838214D02*
X116340000Y-118885833D01*
X116292380Y-118981071D01*
X116292380Y-119219166D01*
X116340000Y-119314404D01*
X116387619Y-119362023D01*
X116482857Y-119409642D01*
X116578095Y-119409642D01*
X116720952Y-119362023D01*
X117292380Y-118790595D01*
X117292380Y-119409642D01*
X117292380Y-120362023D02*
X117292380Y-119790595D01*
X117292380Y-120076309D02*
X116292380Y-120076309D01*
X116435238Y-119981071D01*
X116530476Y-119885833D01*
X116578095Y-119790595D01*
X101766666Y-116981071D02*
X101766666Y-117457261D01*
X102052380Y-116885833D02*
X101052380Y-117219166D01*
X102052380Y-117552500D01*
X101528571Y-118219166D02*
X101576190Y-118362023D01*
X101623809Y-118409642D01*
X101719047Y-118457261D01*
X101861904Y-118457261D01*
X101957142Y-118409642D01*
X102004761Y-118362023D01*
X102052380Y-118266785D01*
X102052380Y-117885833D01*
X101052380Y-117885833D01*
X101052380Y-118219166D01*
X101100000Y-118314404D01*
X101147619Y-118362023D01*
X101242857Y-118409642D01*
X101338095Y-118409642D01*
X101433333Y-118362023D01*
X101480952Y-118314404D01*
X101528571Y-118219166D01*
X101528571Y-117885833D01*
X102052380Y-119409642D02*
X102052380Y-118838214D01*
X102052380Y-119123928D02*
X101052380Y-119123928D01*
X101195238Y-119028690D01*
X101290476Y-118933452D01*
X101338095Y-118838214D01*
X101052380Y-120314404D02*
X101052380Y-119838214D01*
X101528571Y-119790595D01*
X101480952Y-119838214D01*
X101433333Y-119933452D01*
X101433333Y-120171547D01*
X101480952Y-120266785D01*
X101528571Y-120314404D01*
X101623809Y-120362023D01*
X101861904Y-120362023D01*
X101957142Y-120314404D01*
X102004761Y-120266785D01*
X102052380Y-120171547D01*
X102052380Y-119933452D01*
X102004761Y-119838214D01*
X101957142Y-119790595D01*
X104306666Y-116981071D02*
X104306666Y-117457261D01*
X104592380Y-116885833D02*
X103592380Y-117219166D01*
X104592380Y-117552500D01*
X104068571Y-118219166D02*
X104116190Y-118362023D01*
X104163809Y-118409642D01*
X104259047Y-118457261D01*
X104401904Y-118457261D01*
X104497142Y-118409642D01*
X104544761Y-118362023D01*
X104592380Y-118266785D01*
X104592380Y-117885833D01*
X103592380Y-117885833D01*
X103592380Y-118219166D01*
X103640000Y-118314404D01*
X103687619Y-118362023D01*
X103782857Y-118409642D01*
X103878095Y-118409642D01*
X103973333Y-118362023D01*
X104020952Y-118314404D01*
X104068571Y-118219166D01*
X104068571Y-117885833D01*
X104592380Y-119409642D02*
X104592380Y-118838214D01*
X104592380Y-119123928D02*
X103592380Y-119123928D01*
X103735238Y-119028690D01*
X103830476Y-118933452D01*
X103878095Y-118838214D01*
X103592380Y-120266785D02*
X103592380Y-120076309D01*
X103640000Y-119981071D01*
X103687619Y-119933452D01*
X103830476Y-119838214D01*
X104020952Y-119790595D01*
X104401904Y-119790595D01*
X104497142Y-119838214D01*
X104544761Y-119885833D01*
X104592380Y-119981071D01*
X104592380Y-120171547D01*
X104544761Y-120266785D01*
X104497142Y-120314404D01*
X104401904Y-120362023D01*
X104163809Y-120362023D01*
X104068571Y-120314404D01*
X104020952Y-120266785D01*
X103973333Y-120171547D01*
X103973333Y-119981071D01*
X104020952Y-119885833D01*
X104068571Y-119838214D01*
X104163809Y-119790595D01*
X109386666Y-116981071D02*
X109386666Y-117457261D01*
X109672380Y-116885833D02*
X108672380Y-117219166D01*
X109672380Y-117552500D01*
X109148571Y-118219166D02*
X109196190Y-118362023D01*
X109243809Y-118409642D01*
X109339047Y-118457261D01*
X109481904Y-118457261D01*
X109577142Y-118409642D01*
X109624761Y-118362023D01*
X109672380Y-118266785D01*
X109672380Y-117885833D01*
X108672380Y-117885833D01*
X108672380Y-118219166D01*
X108720000Y-118314404D01*
X108767619Y-118362023D01*
X108862857Y-118409642D01*
X108958095Y-118409642D01*
X109053333Y-118362023D01*
X109100952Y-118314404D01*
X109148571Y-118219166D01*
X109148571Y-117885833D01*
X109672380Y-119409642D02*
X109672380Y-118838214D01*
X109672380Y-119123928D02*
X108672380Y-119123928D01*
X108815238Y-119028690D01*
X108910476Y-118933452D01*
X108958095Y-118838214D01*
X109100952Y-119981071D02*
X109053333Y-119885833D01*
X109005714Y-119838214D01*
X108910476Y-119790595D01*
X108862857Y-119790595D01*
X108767619Y-119838214D01*
X108720000Y-119885833D01*
X108672380Y-119981071D01*
X108672380Y-120171547D01*
X108720000Y-120266785D01*
X108767619Y-120314404D01*
X108862857Y-120362023D01*
X108910476Y-120362023D01*
X109005714Y-120314404D01*
X109053333Y-120266785D01*
X109100952Y-120171547D01*
X109100952Y-119981071D01*
X109148571Y-119885833D01*
X109196190Y-119838214D01*
X109291428Y-119790595D01*
X109481904Y-119790595D01*
X109577142Y-119838214D01*
X109624761Y-119885833D01*
X109672380Y-119981071D01*
X109672380Y-120171547D01*
X109624761Y-120266785D01*
X109577142Y-120314404D01*
X109481904Y-120362023D01*
X109291428Y-120362023D01*
X109196190Y-120314404D01*
X109148571Y-120266785D01*
X109100952Y-120171547D01*
X106846666Y-116981071D02*
X106846666Y-117457261D01*
X107132380Y-116885833D02*
X106132380Y-117219166D01*
X107132380Y-117552500D01*
X106608571Y-118219166D02*
X106656190Y-118362023D01*
X106703809Y-118409642D01*
X106799047Y-118457261D01*
X106941904Y-118457261D01*
X107037142Y-118409642D01*
X107084761Y-118362023D01*
X107132380Y-118266785D01*
X107132380Y-117885833D01*
X106132380Y-117885833D01*
X106132380Y-118219166D01*
X106180000Y-118314404D01*
X106227619Y-118362023D01*
X106322857Y-118409642D01*
X106418095Y-118409642D01*
X106513333Y-118362023D01*
X106560952Y-118314404D01*
X106608571Y-118219166D01*
X106608571Y-117885833D01*
X107132380Y-119409642D02*
X107132380Y-118838214D01*
X107132380Y-119123928D02*
X106132380Y-119123928D01*
X106275238Y-119028690D01*
X106370476Y-118933452D01*
X106418095Y-118838214D01*
X106132380Y-119742976D02*
X106132380Y-120409642D01*
X107132380Y-119981071D01*
X111926666Y-116981071D02*
X111926666Y-117457261D01*
X112212380Y-116885833D02*
X111212380Y-117219166D01*
X112212380Y-117552500D01*
X111688571Y-118219166D02*
X111736190Y-118362023D01*
X111783809Y-118409642D01*
X111879047Y-118457261D01*
X112021904Y-118457261D01*
X112117142Y-118409642D01*
X112164761Y-118362023D01*
X112212380Y-118266785D01*
X112212380Y-117885833D01*
X111212380Y-117885833D01*
X111212380Y-118219166D01*
X111260000Y-118314404D01*
X111307619Y-118362023D01*
X111402857Y-118409642D01*
X111498095Y-118409642D01*
X111593333Y-118362023D01*
X111640952Y-118314404D01*
X111688571Y-118219166D01*
X111688571Y-117885833D01*
X112212380Y-119409642D02*
X112212380Y-118838214D01*
X112212380Y-119123928D02*
X111212380Y-119123928D01*
X111355238Y-119028690D01*
X111450476Y-118933452D01*
X111498095Y-118838214D01*
X112212380Y-119885833D02*
X112212380Y-120076309D01*
X112164761Y-120171547D01*
X112117142Y-120219166D01*
X111974285Y-120314404D01*
X111783809Y-120362023D01*
X111402857Y-120362023D01*
X111307619Y-120314404D01*
X111260000Y-120266785D01*
X111212380Y-120171547D01*
X111212380Y-119981071D01*
X111260000Y-119885833D01*
X111307619Y-119838214D01*
X111402857Y-119790595D01*
X111640952Y-119790595D01*
X111736190Y-119838214D01*
X111783809Y-119885833D01*
X111831428Y-119981071D01*
X111831428Y-120171547D01*
X111783809Y-120266785D01*
X111736190Y-120314404D01*
X111640952Y-120362023D01*
X114466666Y-116981071D02*
X114466666Y-117457261D01*
X114752380Y-116885833D02*
X113752380Y-117219166D01*
X114752380Y-117552500D01*
X114228571Y-118219166D02*
X114276190Y-118362023D01*
X114323809Y-118409642D01*
X114419047Y-118457261D01*
X114561904Y-118457261D01*
X114657142Y-118409642D01*
X114704761Y-118362023D01*
X114752380Y-118266785D01*
X114752380Y-117885833D01*
X113752380Y-117885833D01*
X113752380Y-118219166D01*
X113800000Y-118314404D01*
X113847619Y-118362023D01*
X113942857Y-118409642D01*
X114038095Y-118409642D01*
X114133333Y-118362023D01*
X114180952Y-118314404D01*
X114228571Y-118219166D01*
X114228571Y-117885833D01*
X113847619Y-118838214D02*
X113800000Y-118885833D01*
X113752380Y-118981071D01*
X113752380Y-119219166D01*
X113800000Y-119314404D01*
X113847619Y-119362023D01*
X113942857Y-119409642D01*
X114038095Y-119409642D01*
X114180952Y-119362023D01*
X114752380Y-118790595D01*
X114752380Y-119409642D01*
X113752380Y-120028690D02*
X113752380Y-120123928D01*
X113800000Y-120219166D01*
X113847619Y-120266785D01*
X113942857Y-120314404D01*
X114133333Y-120362023D01*
X114371428Y-120362023D01*
X114561904Y-120314404D01*
X114657142Y-120266785D01*
X114704761Y-120219166D01*
X114752380Y-120123928D01*
X114752380Y-120028690D01*
X114704761Y-119933452D01*
X114657142Y-119885833D01*
X114561904Y-119838214D01*
X114371428Y-119790595D01*
X114133333Y-119790595D01*
X113942857Y-119838214D01*
X113847619Y-119885833D01*
X113800000Y-119933452D01*
X113752380Y-120028690D01*
X118832380Y-117647738D02*
X119832380Y-117885833D01*
X119118095Y-118076309D01*
X119832380Y-118266785D01*
X118832380Y-118504880D01*
X118927619Y-118838214D02*
X118880000Y-118885833D01*
X118832380Y-118981071D01*
X118832380Y-119219166D01*
X118880000Y-119314404D01*
X118927619Y-119362023D01*
X119022857Y-119409642D01*
X119118095Y-119409642D01*
X119260952Y-119362023D01*
X119832380Y-118790595D01*
X119832380Y-119409642D01*
X119832380Y-120362023D02*
X119832380Y-119790595D01*
X119832380Y-120076309D02*
X118832380Y-120076309D01*
X118975238Y-119981071D01*
X119070476Y-119885833D01*
X119118095Y-119790595D01*
X121372380Y-117885833D02*
X122372380Y-118219166D01*
X121372380Y-118552500D01*
X121467619Y-118838214D02*
X121420000Y-118885833D01*
X121372380Y-118981071D01*
X121372380Y-119219166D01*
X121420000Y-119314404D01*
X121467619Y-119362023D01*
X121562857Y-119409642D01*
X121658095Y-119409642D01*
X121800952Y-119362023D01*
X122372380Y-118790595D01*
X122372380Y-119409642D01*
X122372380Y-120362023D02*
X122372380Y-119790595D01*
X122372380Y-120076309D02*
X121372380Y-120076309D01*
X121515238Y-119981071D01*
X121610476Y-119885833D01*
X121658095Y-119790595D01*
X132532380Y-117838214D02*
X131532380Y-117838214D01*
X132532380Y-118409642D01*
X131532380Y-118409642D01*
X131627619Y-118838214D02*
X131580000Y-118885833D01*
X131532380Y-118981071D01*
X131532380Y-119219166D01*
X131580000Y-119314404D01*
X131627619Y-119362023D01*
X131722857Y-119409642D01*
X131818095Y-119409642D01*
X131960952Y-119362023D01*
X132532380Y-118790595D01*
X132532380Y-119409642D01*
X132532380Y-120362023D02*
X132532380Y-119790595D01*
X132532380Y-120076309D02*
X131532380Y-120076309D01*
X131675238Y-119981071D01*
X131770476Y-119885833D01*
X131818095Y-119790595D01*
X135072380Y-117742976D02*
X134072380Y-117742976D01*
X134786666Y-118076309D01*
X134072380Y-118409642D01*
X135072380Y-118409642D01*
X134167619Y-118838214D02*
X134120000Y-118885833D01*
X134072380Y-118981071D01*
X134072380Y-119219166D01*
X134120000Y-119314404D01*
X134167619Y-119362023D01*
X134262857Y-119409642D01*
X134358095Y-119409642D01*
X134500952Y-119362023D01*
X135072380Y-118790595D01*
X135072380Y-119409642D01*
X135072380Y-120362023D02*
X135072380Y-119790595D01*
X135072380Y-120076309D02*
X134072380Y-120076309D01*
X134215238Y-119981071D01*
X134310476Y-119885833D01*
X134358095Y-119790595D01*
X137612380Y-118552500D02*
X137612380Y-118076309D01*
X136612380Y-118076309D01*
X136707619Y-118838214D02*
X136660000Y-118885833D01*
X136612380Y-118981071D01*
X136612380Y-119219166D01*
X136660000Y-119314404D01*
X136707619Y-119362023D01*
X136802857Y-119409642D01*
X136898095Y-119409642D01*
X137040952Y-119362023D01*
X137612380Y-118790595D01*
X137612380Y-119409642D01*
X137612380Y-120362023D02*
X137612380Y-119790595D01*
X137612380Y-120076309D02*
X136612380Y-120076309D01*
X136755238Y-119981071D01*
X136850476Y-119885833D01*
X136898095Y-119790595D01*
X141692380Y-118409642D02*
X142406666Y-118409642D01*
X142549523Y-118362023D01*
X142644761Y-118266785D01*
X142692380Y-118123928D01*
X142692380Y-118028690D01*
X141787619Y-118838214D02*
X141740000Y-118885833D01*
X141692380Y-118981071D01*
X141692380Y-119219166D01*
X141740000Y-119314404D01*
X141787619Y-119362023D01*
X141882857Y-119409642D01*
X141978095Y-119409642D01*
X142120952Y-119362023D01*
X142692380Y-118790595D01*
X142692380Y-119409642D01*
X142692380Y-120362023D02*
X142692380Y-119790595D01*
X142692380Y-120076309D02*
X141692380Y-120076309D01*
X141835238Y-119981071D01*
X141930476Y-119885833D01*
X141978095Y-119790595D01*
X149788571Y-117981071D02*
X149788571Y-118314404D01*
X150312380Y-118457261D02*
X150312380Y-117981071D01*
X149312380Y-117981071D01*
X149312380Y-118457261D01*
X149407619Y-118838214D02*
X149360000Y-118885833D01*
X149312380Y-118981071D01*
X149312380Y-119219166D01*
X149360000Y-119314404D01*
X149407619Y-119362023D01*
X149502857Y-119409642D01*
X149598095Y-119409642D01*
X149740952Y-119362023D01*
X150312380Y-118790595D01*
X150312380Y-119409642D01*
X150312380Y-120362023D02*
X150312380Y-119790595D01*
X150312380Y-120076309D02*
X149312380Y-120076309D01*
X149455238Y-119981071D01*
X149550476Y-119885833D01*
X149598095Y-119790595D01*
X145232380Y-117838214D02*
X144232380Y-117838214D01*
X144708571Y-117838214D02*
X144708571Y-118409642D01*
X145232380Y-118409642D02*
X144232380Y-118409642D01*
X144327619Y-118838214D02*
X144280000Y-118885833D01*
X144232380Y-118981071D01*
X144232380Y-119219166D01*
X144280000Y-119314404D01*
X144327619Y-119362023D01*
X144422857Y-119409642D01*
X144518095Y-119409642D01*
X144660952Y-119362023D01*
X145232380Y-118790595D01*
X145232380Y-119409642D01*
X145232380Y-120362023D02*
X145232380Y-119790595D01*
X145232380Y-120076309D02*
X144232380Y-120076309D01*
X144375238Y-119981071D01*
X144470476Y-119885833D01*
X144518095Y-119790595D01*
X152852380Y-117885833D02*
X151852380Y-117885833D01*
X151852380Y-118123928D01*
X151900000Y-118266785D01*
X151995238Y-118362023D01*
X152090476Y-118409642D01*
X152280952Y-118457261D01*
X152423809Y-118457261D01*
X152614285Y-118409642D01*
X152709523Y-118362023D01*
X152804761Y-118266785D01*
X152852380Y-118123928D01*
X152852380Y-117885833D01*
X151947619Y-118838214D02*
X151900000Y-118885833D01*
X151852380Y-118981071D01*
X151852380Y-119219166D01*
X151900000Y-119314404D01*
X151947619Y-119362023D01*
X152042857Y-119409642D01*
X152138095Y-119409642D01*
X152280952Y-119362023D01*
X152852380Y-118790595D01*
X152852380Y-119409642D01*
X152852380Y-120362023D02*
X152852380Y-119790595D01*
X152852380Y-120076309D02*
X151852380Y-120076309D01*
X151995238Y-119981071D01*
X152090476Y-119885833D01*
X152138095Y-119790595D01*
X147248571Y-118362023D02*
X147248571Y-118028690D01*
X147772380Y-118028690D02*
X146772380Y-118028690D01*
X146772380Y-118504880D01*
X146867619Y-118838214D02*
X146820000Y-118885833D01*
X146772380Y-118981071D01*
X146772380Y-119219166D01*
X146820000Y-119314404D01*
X146867619Y-119362023D01*
X146962857Y-119409642D01*
X147058095Y-119409642D01*
X147200952Y-119362023D01*
X147772380Y-118790595D01*
X147772380Y-119409642D01*
X147772380Y-120362023D02*
X147772380Y-119790595D01*
X147772380Y-120076309D02*
X146772380Y-120076309D01*
X146915238Y-119981071D01*
X147010476Y-119885833D01*
X147058095Y-119790595D01*
X123912380Y-117838214D02*
X124721904Y-117838214D01*
X124817142Y-117885833D01*
X124864761Y-117933452D01*
X124912380Y-118028690D01*
X124912380Y-118219166D01*
X124864761Y-118314404D01*
X124817142Y-118362023D01*
X124721904Y-118409642D01*
X123912380Y-118409642D01*
X124007619Y-118838214D02*
X123960000Y-118885833D01*
X123912380Y-118981071D01*
X123912380Y-119219166D01*
X123960000Y-119314404D01*
X124007619Y-119362023D01*
X124102857Y-119409642D01*
X124198095Y-119409642D01*
X124340952Y-119362023D01*
X124912380Y-118790595D01*
X124912380Y-119409642D01*
X124912380Y-120362023D02*
X124912380Y-119790595D01*
X124912380Y-120076309D02*
X123912380Y-120076309D01*
X124055238Y-119981071D01*
X124150476Y-119885833D01*
X124198095Y-119790595D01*
X127452380Y-118457261D02*
X126976190Y-118123928D01*
X127452380Y-117885833D02*
X126452380Y-117885833D01*
X126452380Y-118266785D01*
X126500000Y-118362023D01*
X126547619Y-118409642D01*
X126642857Y-118457261D01*
X126785714Y-118457261D01*
X126880952Y-118409642D01*
X126928571Y-118362023D01*
X126976190Y-118266785D01*
X126976190Y-117885833D01*
X126547619Y-118838214D02*
X126500000Y-118885833D01*
X126452380Y-118981071D01*
X126452380Y-119219166D01*
X126500000Y-119314404D01*
X126547619Y-119362023D01*
X126642857Y-119409642D01*
X126738095Y-119409642D01*
X126880952Y-119362023D01*
X127452380Y-118790595D01*
X127452380Y-119409642D01*
X127452380Y-120362023D02*
X127452380Y-119790595D01*
X127452380Y-120076309D02*
X126452380Y-120076309D01*
X126595238Y-119981071D01*
X126690476Y-119885833D01*
X126738095Y-119790595D01*
X129992380Y-117885833D02*
X128992380Y-117885833D01*
X128992380Y-118266785D01*
X129040000Y-118362023D01*
X129087619Y-118409642D01*
X129182857Y-118457261D01*
X129325714Y-118457261D01*
X129420952Y-118409642D01*
X129468571Y-118362023D01*
X129516190Y-118266785D01*
X129516190Y-117885833D01*
X129087619Y-118838214D02*
X129040000Y-118885833D01*
X128992380Y-118981071D01*
X128992380Y-119219166D01*
X129040000Y-119314404D01*
X129087619Y-119362023D01*
X129182857Y-119409642D01*
X129278095Y-119409642D01*
X129420952Y-119362023D01*
X129992380Y-118790595D01*
X129992380Y-119409642D01*
X129992380Y-120362023D02*
X129992380Y-119790595D01*
X129992380Y-120076309D02*
X128992380Y-120076309D01*
X129135238Y-119981071D01*
X129230476Y-119885833D01*
X129278095Y-119790595D01*
X160472380Y-117838214D02*
X159472380Y-117838214D01*
X160472380Y-118409642D01*
X159472380Y-118409642D01*
X160472380Y-119409642D02*
X160472380Y-118838214D01*
X160472380Y-119123928D02*
X159472380Y-119123928D01*
X159615238Y-119028690D01*
X159710476Y-118933452D01*
X159758095Y-118838214D01*
X160472380Y-119885833D02*
X160472380Y-120076309D01*
X160424761Y-120171547D01*
X160377142Y-120219166D01*
X160234285Y-120314404D01*
X160043809Y-120362023D01*
X159662857Y-120362023D01*
X159567619Y-120314404D01*
X159520000Y-120266785D01*
X159472380Y-120171547D01*
X159472380Y-119981071D01*
X159520000Y-119885833D01*
X159567619Y-119838214D01*
X159662857Y-119790595D01*
X159900952Y-119790595D01*
X159996190Y-119838214D01*
X160043809Y-119885833D01*
X160091428Y-119981071D01*
X160091428Y-120171547D01*
X160043809Y-120266785D01*
X159996190Y-120314404D01*
X159900952Y-120362023D01*
X163012380Y-117742976D02*
X162012380Y-117742976D01*
X162726666Y-118076309D01*
X162012380Y-118409642D01*
X163012380Y-118409642D01*
X163012380Y-119409642D02*
X163012380Y-118838214D01*
X163012380Y-119123928D02*
X162012380Y-119123928D01*
X162155238Y-119028690D01*
X162250476Y-118933452D01*
X162298095Y-118838214D01*
X163012380Y-119885833D02*
X163012380Y-120076309D01*
X162964761Y-120171547D01*
X162917142Y-120219166D01*
X162774285Y-120314404D01*
X162583809Y-120362023D01*
X162202857Y-120362023D01*
X162107619Y-120314404D01*
X162060000Y-120266785D01*
X162012380Y-120171547D01*
X162012380Y-119981071D01*
X162060000Y-119885833D01*
X162107619Y-119838214D01*
X162202857Y-119790595D01*
X162440952Y-119790595D01*
X162536190Y-119838214D01*
X162583809Y-119885833D01*
X162631428Y-119981071D01*
X162631428Y-120171547D01*
X162583809Y-120266785D01*
X162536190Y-120314404D01*
X162440952Y-120362023D01*
X163457000Y-118266785D02*
X163409380Y-118171547D01*
X163409380Y-118028690D01*
X163457000Y-117885833D01*
X163552238Y-117790595D01*
X163647476Y-117742976D01*
X163837952Y-117695357D01*
X163980809Y-117695357D01*
X164171285Y-117742976D01*
X164266523Y-117790595D01*
X164361761Y-117885833D01*
X164409380Y-118028690D01*
X164409380Y-118123928D01*
X164361761Y-118266785D01*
X164314142Y-118314404D01*
X163980809Y-118314404D01*
X163980809Y-118123928D01*
X164409380Y-118742976D02*
X163409380Y-118742976D01*
X164409380Y-119314404D01*
X163409380Y-119314404D01*
X164409380Y-119790595D02*
X163409380Y-119790595D01*
X163409380Y-120028690D01*
X163457000Y-120171547D01*
X163552238Y-120266785D01*
X163647476Y-120314404D01*
X163837952Y-120362023D01*
X163980809Y-120362023D01*
X164171285Y-120314404D01*
X164266523Y-120266785D01*
X164361761Y-120171547D01*
X164409380Y-120028690D01*
X164409380Y-119790595D01*
X155297142Y-118457261D02*
X155344761Y-118409642D01*
X155392380Y-118266785D01*
X155392380Y-118171547D01*
X155344761Y-118028690D01*
X155249523Y-117933452D01*
X155154285Y-117885833D01*
X154963809Y-117838214D01*
X154820952Y-117838214D01*
X154630476Y-117885833D01*
X154535238Y-117933452D01*
X154440000Y-118028690D01*
X154392380Y-118171547D01*
X154392380Y-118266785D01*
X154440000Y-118409642D01*
X154487619Y-118457261D01*
X154487619Y-118838214D02*
X154440000Y-118885833D01*
X154392380Y-118981071D01*
X154392380Y-119219166D01*
X154440000Y-119314404D01*
X154487619Y-119362023D01*
X154582857Y-119409642D01*
X154678095Y-119409642D01*
X154820952Y-119362023D01*
X155392380Y-118790595D01*
X155392380Y-119409642D01*
X155392380Y-120362023D02*
X155392380Y-119790595D01*
X155392380Y-120076309D02*
X154392380Y-120076309D01*
X154535238Y-119981071D01*
X154630476Y-119885833D01*
X154678095Y-119790595D01*
X157408571Y-118219166D02*
X157456190Y-118362023D01*
X157503809Y-118409642D01*
X157599047Y-118457261D01*
X157741904Y-118457261D01*
X157837142Y-118409642D01*
X157884761Y-118362023D01*
X157932380Y-118266785D01*
X157932380Y-117885833D01*
X156932380Y-117885833D01*
X156932380Y-118219166D01*
X156980000Y-118314404D01*
X157027619Y-118362023D01*
X157122857Y-118409642D01*
X157218095Y-118409642D01*
X157313333Y-118362023D01*
X157360952Y-118314404D01*
X157408571Y-118219166D01*
X157408571Y-117885833D01*
X157027619Y-118838214D02*
X156980000Y-118885833D01*
X156932380Y-118981071D01*
X156932380Y-119219166D01*
X156980000Y-119314404D01*
X157027619Y-119362023D01*
X157122857Y-119409642D01*
X157218095Y-119409642D01*
X157360952Y-119362023D01*
X157932380Y-118790595D01*
X157932380Y-119409642D01*
X157932380Y-120362023D02*
X157932380Y-119790595D01*
X157932380Y-120076309D02*
X156932380Y-120076309D01*
X157075238Y-119981071D01*
X157170476Y-119885833D01*
X157218095Y-119790595D01*
X87130000Y-57814785D02*
X87082380Y-57719547D01*
X87082380Y-57576690D01*
X87130000Y-57433833D01*
X87225238Y-57338595D01*
X87320476Y-57290976D01*
X87510952Y-57243357D01*
X87653809Y-57243357D01*
X87844285Y-57290976D01*
X87939523Y-57338595D01*
X88034761Y-57433833D01*
X88082380Y-57576690D01*
X88082380Y-57671928D01*
X88034761Y-57814785D01*
X87987142Y-57862404D01*
X87653809Y-57862404D01*
X87653809Y-57671928D01*
X88082380Y-58290976D02*
X87082380Y-58290976D01*
X88082380Y-58862404D01*
X87082380Y-58862404D01*
X88082380Y-59338595D02*
X87082380Y-59338595D01*
X87082380Y-59576690D01*
X87130000Y-59719547D01*
X87225238Y-59814785D01*
X87320476Y-59862404D01*
X87510952Y-59910023D01*
X87653809Y-59910023D01*
X87844285Y-59862404D01*
X87939523Y-59814785D01*
X88034761Y-59719547D01*
X88082380Y-59576690D01*
X88082380Y-59338595D01*
X92162380Y-56973452D02*
X92162380Y-57592500D01*
X92543333Y-57259166D01*
X92543333Y-57402023D01*
X92590952Y-57497261D01*
X92638571Y-57544880D01*
X92733809Y-57592500D01*
X92971904Y-57592500D01*
X93067142Y-57544880D01*
X93114761Y-57497261D01*
X93162380Y-57402023D01*
X93162380Y-57116309D01*
X93114761Y-57021071D01*
X93067142Y-56973452D01*
X92162380Y-57878214D02*
X93162380Y-58211547D01*
X92162380Y-58544880D01*
X92162380Y-58782976D02*
X92162380Y-59402023D01*
X92543333Y-59068690D01*
X92543333Y-59211547D01*
X92590952Y-59306785D01*
X92638571Y-59354404D01*
X92733809Y-59402023D01*
X92971904Y-59402023D01*
X93067142Y-59354404D01*
X93114761Y-59306785D01*
X93162380Y-59211547D01*
X93162380Y-58925833D01*
X93114761Y-58830595D01*
X93067142Y-58782976D01*
X93861000Y-57306785D02*
X93813380Y-57211547D01*
X93813380Y-57068690D01*
X93861000Y-56925833D01*
X93956238Y-56830595D01*
X94051476Y-56782976D01*
X94241952Y-56735357D01*
X94384809Y-56735357D01*
X94575285Y-56782976D01*
X94670523Y-56830595D01*
X94765761Y-56925833D01*
X94813380Y-57068690D01*
X94813380Y-57163928D01*
X94765761Y-57306785D01*
X94718142Y-57354404D01*
X94384809Y-57354404D01*
X94384809Y-57163928D01*
X94813380Y-57782976D02*
X93813380Y-57782976D01*
X94813380Y-58354404D01*
X93813380Y-58354404D01*
X94813380Y-58830595D02*
X93813380Y-58830595D01*
X93813380Y-59068690D01*
X93861000Y-59211547D01*
X93956238Y-59306785D01*
X94051476Y-59354404D01*
X94241952Y-59402023D01*
X94384809Y-59402023D01*
X94575285Y-59354404D01*
X94670523Y-59306785D01*
X94765761Y-59211547D01*
X94813380Y-59068690D01*
X94813380Y-58830595D01*
X96972380Y-58449642D02*
X96496190Y-58116309D01*
X96972380Y-57878214D02*
X95972380Y-57878214D01*
X95972380Y-58259166D01*
X96020000Y-58354404D01*
X96067619Y-58402023D01*
X96162857Y-58449642D01*
X96305714Y-58449642D01*
X96400952Y-58402023D01*
X96448571Y-58354404D01*
X96496190Y-58259166D01*
X96496190Y-57878214D01*
X96067619Y-58830595D02*
X96020000Y-58878214D01*
X95972380Y-58973452D01*
X95972380Y-59211547D01*
X96020000Y-59306785D01*
X96067619Y-59354404D01*
X96162857Y-59402023D01*
X96258095Y-59402023D01*
X96400952Y-59354404D01*
X96972380Y-58782976D01*
X96972380Y-59402023D01*
X99512380Y-57878214D02*
X98512380Y-57878214D01*
X98512380Y-58259166D01*
X98560000Y-58354404D01*
X98607619Y-58402023D01*
X98702857Y-58449642D01*
X98845714Y-58449642D01*
X98940952Y-58402023D01*
X98988571Y-58354404D01*
X99036190Y-58259166D01*
X99036190Y-57878214D01*
X98607619Y-58830595D02*
X98560000Y-58878214D01*
X98512380Y-58973452D01*
X98512380Y-59211547D01*
X98560000Y-59306785D01*
X98607619Y-59354404D01*
X98702857Y-59402023D01*
X98798095Y-59402023D01*
X98940952Y-59354404D01*
X99512380Y-58782976D01*
X99512380Y-59402023D01*
X102052380Y-57830595D02*
X101052380Y-57830595D01*
X102052380Y-58402023D01*
X101052380Y-58402023D01*
X101147619Y-58830595D02*
X101100000Y-58878214D01*
X101052380Y-58973452D01*
X101052380Y-59211547D01*
X101100000Y-59306785D01*
X101147619Y-59354404D01*
X101242857Y-59402023D01*
X101338095Y-59402023D01*
X101480952Y-59354404D01*
X102052380Y-58782976D01*
X102052380Y-59402023D01*
X104592380Y-57735357D02*
X103592380Y-57735357D01*
X104306666Y-58068690D01*
X103592380Y-58402023D01*
X104592380Y-58402023D01*
X103687619Y-58830595D02*
X103640000Y-58878214D01*
X103592380Y-58973452D01*
X103592380Y-59211547D01*
X103640000Y-59306785D01*
X103687619Y-59354404D01*
X103782857Y-59402023D01*
X103878095Y-59402023D01*
X104020952Y-59354404D01*
X104592380Y-58782976D01*
X104592380Y-59402023D01*
X106132380Y-58402023D02*
X106846666Y-58402023D01*
X106989523Y-58354404D01*
X107084761Y-58259166D01*
X107132380Y-58116309D01*
X107132380Y-58021071D01*
X106227619Y-58830595D02*
X106180000Y-58878214D01*
X106132380Y-58973452D01*
X106132380Y-59211547D01*
X106180000Y-59306785D01*
X106227619Y-59354404D01*
X106322857Y-59402023D01*
X106418095Y-59402023D01*
X106560952Y-59354404D01*
X107132380Y-58782976D01*
X107132380Y-59402023D01*
X109672380Y-57830595D02*
X108672380Y-57830595D01*
X109148571Y-57830595D02*
X109148571Y-58402023D01*
X109672380Y-58402023D02*
X108672380Y-58402023D01*
X108767619Y-58830595D02*
X108720000Y-58878214D01*
X108672380Y-58973452D01*
X108672380Y-59211547D01*
X108720000Y-59306785D01*
X108767619Y-59354404D01*
X108862857Y-59402023D01*
X108958095Y-59402023D01*
X109100952Y-59354404D01*
X109672380Y-58782976D01*
X109672380Y-59402023D01*
X111688571Y-58354404D02*
X111688571Y-58021071D01*
X112212380Y-58021071D02*
X111212380Y-58021071D01*
X111212380Y-58497261D01*
X111307619Y-58830595D02*
X111260000Y-58878214D01*
X111212380Y-58973452D01*
X111212380Y-59211547D01*
X111260000Y-59306785D01*
X111307619Y-59354404D01*
X111402857Y-59402023D01*
X111498095Y-59402023D01*
X111640952Y-59354404D01*
X112212380Y-58782976D01*
X112212380Y-59402023D01*
X114752380Y-57878214D02*
X113752380Y-57878214D01*
X113752380Y-58116309D01*
X113800000Y-58259166D01*
X113895238Y-58354404D01*
X113990476Y-58402023D01*
X114180952Y-58449642D01*
X114323809Y-58449642D01*
X114514285Y-58402023D01*
X114609523Y-58354404D01*
X114704761Y-58259166D01*
X114752380Y-58116309D01*
X114752380Y-57878214D01*
X113847619Y-58830595D02*
X113800000Y-58878214D01*
X113752380Y-58973452D01*
X113752380Y-59211547D01*
X113800000Y-59306785D01*
X113847619Y-59354404D01*
X113942857Y-59402023D01*
X114038095Y-59402023D01*
X114180952Y-59354404D01*
X114752380Y-58782976D01*
X114752380Y-59402023D01*
X117197142Y-58449642D02*
X117244761Y-58402023D01*
X117292380Y-58259166D01*
X117292380Y-58163928D01*
X117244761Y-58021071D01*
X117149523Y-57925833D01*
X117054285Y-57878214D01*
X116863809Y-57830595D01*
X116720952Y-57830595D01*
X116530476Y-57878214D01*
X116435238Y-57925833D01*
X116340000Y-58021071D01*
X116292380Y-58163928D01*
X116292380Y-58259166D01*
X116340000Y-58402023D01*
X116387619Y-58449642D01*
X116387619Y-58830595D02*
X116340000Y-58878214D01*
X116292380Y-58973452D01*
X116292380Y-59211547D01*
X116340000Y-59306785D01*
X116387619Y-59354404D01*
X116482857Y-59402023D01*
X116578095Y-59402023D01*
X116720952Y-59354404D01*
X117292380Y-58782976D01*
X117292380Y-59402023D01*
X119308571Y-58211547D02*
X119356190Y-58354404D01*
X119403809Y-58402023D01*
X119499047Y-58449642D01*
X119641904Y-58449642D01*
X119737142Y-58402023D01*
X119784761Y-58354404D01*
X119832380Y-58259166D01*
X119832380Y-57878214D01*
X118832380Y-57878214D01*
X118832380Y-58211547D01*
X118880000Y-58306785D01*
X118927619Y-58354404D01*
X119022857Y-58402023D01*
X119118095Y-58402023D01*
X119213333Y-58354404D01*
X119260952Y-58306785D01*
X119308571Y-58211547D01*
X119308571Y-57878214D01*
X118927619Y-58830595D02*
X118880000Y-58878214D01*
X118832380Y-58973452D01*
X118832380Y-59211547D01*
X118880000Y-59306785D01*
X118927619Y-59354404D01*
X119022857Y-59402023D01*
X119118095Y-59402023D01*
X119260952Y-59354404D01*
X119832380Y-58782976D01*
X119832380Y-59402023D01*
X122086666Y-57973452D02*
X122086666Y-58449642D01*
X122372380Y-57878214D02*
X121372380Y-58211547D01*
X122372380Y-58544880D01*
X121372380Y-58782976D02*
X121372380Y-59402023D01*
X121753333Y-59068690D01*
X121753333Y-59211547D01*
X121800952Y-59306785D01*
X121848571Y-59354404D01*
X121943809Y-59402023D01*
X122181904Y-59402023D01*
X122277142Y-59354404D01*
X122324761Y-59306785D01*
X122372380Y-59211547D01*
X122372380Y-58925833D01*
X122324761Y-58830595D01*
X122277142Y-58782976D01*
X124626666Y-57973452D02*
X124626666Y-58449642D01*
X124912380Y-57878214D02*
X123912380Y-58211547D01*
X124912380Y-58544880D01*
X124245714Y-59306785D02*
X124912380Y-59306785D01*
X123864761Y-59068690D02*
X124579047Y-58830595D01*
X124579047Y-59449642D01*
X127357142Y-58449642D02*
X127404761Y-58402023D01*
X127452380Y-58259166D01*
X127452380Y-58163928D01*
X127404761Y-58021071D01*
X127309523Y-57925833D01*
X127214285Y-57878214D01*
X127023809Y-57830595D01*
X126880952Y-57830595D01*
X126690476Y-57878214D01*
X126595238Y-57925833D01*
X126500000Y-58021071D01*
X126452380Y-58163928D01*
X126452380Y-58259166D01*
X126500000Y-58402023D01*
X126547619Y-58449642D01*
X126452380Y-58782976D02*
X126452380Y-59402023D01*
X126833333Y-59068690D01*
X126833333Y-59211547D01*
X126880952Y-59306785D01*
X126928571Y-59354404D01*
X127023809Y-59402023D01*
X127261904Y-59402023D01*
X127357142Y-59354404D01*
X127404761Y-59306785D01*
X127452380Y-59211547D01*
X127452380Y-58925833D01*
X127404761Y-58830595D01*
X127357142Y-58782976D01*
X129706666Y-57973452D02*
X129706666Y-58449642D01*
X129992380Y-57878214D02*
X128992380Y-58211547D01*
X129992380Y-58544880D01*
X128992380Y-59354404D02*
X128992380Y-58878214D01*
X129468571Y-58830595D01*
X129420952Y-58878214D01*
X129373333Y-58973452D01*
X129373333Y-59211547D01*
X129420952Y-59306785D01*
X129468571Y-59354404D01*
X129563809Y-59402023D01*
X129801904Y-59402023D01*
X129897142Y-59354404D01*
X129944761Y-59306785D01*
X129992380Y-59211547D01*
X129992380Y-58973452D01*
X129944761Y-58878214D01*
X129897142Y-58830595D01*
X132246666Y-57973452D02*
X132246666Y-58449642D01*
X132532380Y-57878214D02*
X131532380Y-58211547D01*
X132532380Y-58544880D01*
X131532380Y-59306785D02*
X131532380Y-59116309D01*
X131580000Y-59021071D01*
X131627619Y-58973452D01*
X131770476Y-58878214D01*
X131960952Y-58830595D01*
X132341904Y-58830595D01*
X132437142Y-58878214D01*
X132484761Y-58925833D01*
X132532380Y-59021071D01*
X132532380Y-59211547D01*
X132484761Y-59306785D01*
X132437142Y-59354404D01*
X132341904Y-59402023D01*
X132103809Y-59402023D01*
X132008571Y-59354404D01*
X131960952Y-59306785D01*
X131913333Y-59211547D01*
X131913333Y-59021071D01*
X131960952Y-58925833D01*
X132008571Y-58878214D01*
X132103809Y-58830595D01*
X134786666Y-57973452D02*
X134786666Y-58449642D01*
X135072380Y-57878214D02*
X134072380Y-58211547D01*
X135072380Y-58544880D01*
X134072380Y-58782976D02*
X134072380Y-59449642D01*
X135072380Y-59021071D01*
X137326666Y-57973452D02*
X137326666Y-58449642D01*
X137612380Y-57878214D02*
X136612380Y-58211547D01*
X137612380Y-58544880D01*
X137040952Y-59021071D02*
X136993333Y-58925833D01*
X136945714Y-58878214D01*
X136850476Y-58830595D01*
X136802857Y-58830595D01*
X136707619Y-58878214D01*
X136660000Y-58925833D01*
X136612380Y-59021071D01*
X136612380Y-59211547D01*
X136660000Y-59306785D01*
X136707619Y-59354404D01*
X136802857Y-59402023D01*
X136850476Y-59402023D01*
X136945714Y-59354404D01*
X136993333Y-59306785D01*
X137040952Y-59211547D01*
X137040952Y-59021071D01*
X137088571Y-58925833D01*
X137136190Y-58878214D01*
X137231428Y-58830595D01*
X137421904Y-58830595D01*
X137517142Y-58878214D01*
X137564761Y-58925833D01*
X137612380Y-59021071D01*
X137612380Y-59211547D01*
X137564761Y-59306785D01*
X137517142Y-59354404D01*
X137421904Y-59402023D01*
X137231428Y-59402023D01*
X137136190Y-59354404D01*
X137088571Y-59306785D01*
X137040952Y-59211547D01*
X139866666Y-57973452D02*
X139866666Y-58449642D01*
X140152380Y-57878214D02*
X139152380Y-58211547D01*
X140152380Y-58544880D01*
X140152380Y-58925833D02*
X140152380Y-59116309D01*
X140104761Y-59211547D01*
X140057142Y-59259166D01*
X139914285Y-59354404D01*
X139723809Y-59402023D01*
X139342857Y-59402023D01*
X139247619Y-59354404D01*
X139200000Y-59306785D01*
X139152380Y-59211547D01*
X139152380Y-59021071D01*
X139200000Y-58925833D01*
X139247619Y-58878214D01*
X139342857Y-58830595D01*
X139580952Y-58830595D01*
X139676190Y-58878214D01*
X139723809Y-58925833D01*
X139771428Y-59021071D01*
X139771428Y-59211547D01*
X139723809Y-59306785D01*
X139676190Y-59354404D01*
X139580952Y-59402023D01*
X142152666Y-57148071D02*
X142152666Y-57624261D01*
X142438380Y-57052833D02*
X141438380Y-57386166D01*
X142438380Y-57719500D01*
X142438380Y-58576642D02*
X142438380Y-58005214D01*
X142438380Y-58290928D02*
X141438380Y-58290928D01*
X141581238Y-58195690D01*
X141676476Y-58100452D01*
X141724095Y-58005214D01*
X141438380Y-59195690D02*
X141438380Y-59290928D01*
X141486000Y-59386166D01*
X141533619Y-59433785D01*
X141628857Y-59481404D01*
X141819333Y-59529023D01*
X142057428Y-59529023D01*
X142247904Y-59481404D01*
X142343142Y-59433785D01*
X142390761Y-59386166D01*
X142438380Y-59290928D01*
X142438380Y-59195690D01*
X142390761Y-59100452D01*
X142343142Y-59052833D01*
X142247904Y-59005214D01*
X142057428Y-58957595D01*
X141819333Y-58957595D01*
X141628857Y-59005214D01*
X141533619Y-59052833D01*
X141486000Y-59100452D01*
X141438380Y-59195690D01*
X144819666Y-57275071D02*
X144819666Y-57751261D01*
X145105380Y-57179833D02*
X144105380Y-57513166D01*
X145105380Y-57846500D01*
X145105380Y-58703642D02*
X145105380Y-58132214D01*
X145105380Y-58417928D02*
X144105380Y-58417928D01*
X144248238Y-58322690D01*
X144343476Y-58227452D01*
X144391095Y-58132214D01*
X144105380Y-59036976D02*
X144105380Y-59656023D01*
X144486333Y-59322690D01*
X144486333Y-59465547D01*
X144533952Y-59560785D01*
X144581571Y-59608404D01*
X144676809Y-59656023D01*
X144914904Y-59656023D01*
X145010142Y-59608404D01*
X145057761Y-59560785D01*
X145105380Y-59465547D01*
X145105380Y-59179833D01*
X145057761Y-59084595D01*
X145010142Y-59036976D01*
X147359666Y-57275071D02*
X147359666Y-57751261D01*
X147645380Y-57179833D02*
X146645380Y-57513166D01*
X147645380Y-57846500D01*
X147645380Y-58703642D02*
X147645380Y-58132214D01*
X147645380Y-58417928D02*
X146645380Y-58417928D01*
X146788238Y-58322690D01*
X146883476Y-58227452D01*
X146931095Y-58132214D01*
X146978714Y-59560785D02*
X147645380Y-59560785D01*
X146597761Y-59322690D02*
X147312047Y-59084595D01*
X147312047Y-59703642D01*
X149899666Y-57275071D02*
X149899666Y-57751261D01*
X150185380Y-57179833D02*
X149185380Y-57513166D01*
X150185380Y-57846500D01*
X150185380Y-58703642D02*
X150185380Y-58132214D01*
X150185380Y-58417928D02*
X149185380Y-58417928D01*
X149328238Y-58322690D01*
X149423476Y-58227452D01*
X149471095Y-58132214D01*
X149185380Y-59608404D02*
X149185380Y-59132214D01*
X149661571Y-59084595D01*
X149613952Y-59132214D01*
X149566333Y-59227452D01*
X149566333Y-59465547D01*
X149613952Y-59560785D01*
X149661571Y-59608404D01*
X149756809Y-59656023D01*
X149994904Y-59656023D01*
X150090142Y-59608404D01*
X150137761Y-59560785D01*
X150185380Y-59465547D01*
X150185380Y-59227452D01*
X150137761Y-59132214D01*
X150090142Y-59084595D01*
X152439666Y-57275071D02*
X152439666Y-57751261D01*
X152725380Y-57179833D02*
X151725380Y-57513166D01*
X152725380Y-57846500D01*
X152725380Y-58703642D02*
X152725380Y-58132214D01*
X152725380Y-58417928D02*
X151725380Y-58417928D01*
X151868238Y-58322690D01*
X151963476Y-58227452D01*
X152011095Y-58132214D01*
X151725380Y-59560785D02*
X151725380Y-59370309D01*
X151773000Y-59275071D01*
X151820619Y-59227452D01*
X151963476Y-59132214D01*
X152153952Y-59084595D01*
X152534904Y-59084595D01*
X152630142Y-59132214D01*
X152677761Y-59179833D01*
X152725380Y-59275071D01*
X152725380Y-59465547D01*
X152677761Y-59560785D01*
X152630142Y-59608404D01*
X152534904Y-59656023D01*
X152296809Y-59656023D01*
X152201571Y-59608404D01*
X152153952Y-59560785D01*
X152106333Y-59465547D01*
X152106333Y-59275071D01*
X152153952Y-59179833D01*
X152201571Y-59132214D01*
X152296809Y-59084595D01*
X154725666Y-57402071D02*
X154725666Y-57878261D01*
X155011380Y-57306833D02*
X154011380Y-57640166D01*
X155011380Y-57973500D01*
X155011380Y-58830642D02*
X155011380Y-58259214D01*
X155011380Y-58544928D02*
X154011380Y-58544928D01*
X154154238Y-58449690D01*
X154249476Y-58354452D01*
X154297095Y-58259214D01*
X154011380Y-59163976D02*
X154011380Y-59830642D01*
X155011380Y-59402071D01*
X157646666Y-57402071D02*
X157646666Y-57878261D01*
X157932380Y-57306833D02*
X156932380Y-57640166D01*
X157932380Y-57973500D01*
X157932380Y-58830642D02*
X157932380Y-58259214D01*
X157932380Y-58544928D02*
X156932380Y-58544928D01*
X157075238Y-58449690D01*
X157170476Y-58354452D01*
X157218095Y-58259214D01*
X157360952Y-59402071D02*
X157313333Y-59306833D01*
X157265714Y-59259214D01*
X157170476Y-59211595D01*
X157122857Y-59211595D01*
X157027619Y-59259214D01*
X156980000Y-59306833D01*
X156932380Y-59402071D01*
X156932380Y-59592547D01*
X156980000Y-59687785D01*
X157027619Y-59735404D01*
X157122857Y-59783023D01*
X157170476Y-59783023D01*
X157265714Y-59735404D01*
X157313333Y-59687785D01*
X157360952Y-59592547D01*
X157360952Y-59402071D01*
X157408571Y-59306833D01*
X157456190Y-59259214D01*
X157551428Y-59211595D01*
X157741904Y-59211595D01*
X157837142Y-59259214D01*
X157884761Y-59306833D01*
X157932380Y-59402071D01*
X157932380Y-59592547D01*
X157884761Y-59687785D01*
X157837142Y-59735404D01*
X157741904Y-59783023D01*
X157551428Y-59783023D01*
X157456190Y-59735404D01*
X157408571Y-59687785D01*
X157360952Y-59592547D01*
X160186666Y-57021071D02*
X160186666Y-57497261D01*
X160472380Y-56925833D02*
X159472380Y-57259166D01*
X160472380Y-57592500D01*
X160472380Y-58449642D02*
X160472380Y-57878214D01*
X160472380Y-58163928D02*
X159472380Y-58163928D01*
X159615238Y-58068690D01*
X159710476Y-57973452D01*
X159758095Y-57878214D01*
X160472380Y-58925833D02*
X160472380Y-59116309D01*
X160424761Y-59211547D01*
X160377142Y-59259166D01*
X160234285Y-59354404D01*
X160043809Y-59402023D01*
X159662857Y-59402023D01*
X159567619Y-59354404D01*
X159520000Y-59306785D01*
X159472380Y-59211547D01*
X159472380Y-59021071D01*
X159520000Y-58925833D01*
X159567619Y-58878214D01*
X159662857Y-58830595D01*
X159900952Y-58830595D01*
X159996190Y-58878214D01*
X160043809Y-58925833D01*
X160091428Y-59021071D01*
X160091428Y-59211547D01*
X160043809Y-59306785D01*
X159996190Y-59354404D01*
X159900952Y-59402023D01*
X162726666Y-57021071D02*
X162726666Y-57497261D01*
X163012380Y-56925833D02*
X162012380Y-57259166D01*
X163012380Y-57592500D01*
X162107619Y-57878214D02*
X162060000Y-57925833D01*
X162012380Y-58021071D01*
X162012380Y-58259166D01*
X162060000Y-58354404D01*
X162107619Y-58402023D01*
X162202857Y-58449642D01*
X162298095Y-58449642D01*
X162440952Y-58402023D01*
X163012380Y-57830595D01*
X163012380Y-58449642D01*
X162012380Y-59068690D02*
X162012380Y-59163928D01*
X162060000Y-59259166D01*
X162107619Y-59306785D01*
X162202857Y-59354404D01*
X162393333Y-59402023D01*
X162631428Y-59402023D01*
X162821904Y-59354404D01*
X162917142Y-59306785D01*
X162964761Y-59259166D01*
X163012380Y-59163928D01*
X163012380Y-59068690D01*
X162964761Y-58973452D01*
X162917142Y-58925833D01*
X162821904Y-58878214D01*
X162631428Y-58830595D01*
X162393333Y-58830595D01*
X162202857Y-58878214D01*
X162107619Y-58925833D01*
X162060000Y-58973452D01*
X162012380Y-59068690D01*
X164600000Y-57306785D02*
X164552380Y-57211547D01*
X164552380Y-57068690D01*
X164600000Y-56925833D01*
X164695238Y-56830595D01*
X164790476Y-56782976D01*
X164980952Y-56735357D01*
X165123809Y-56735357D01*
X165314285Y-56782976D01*
X165409523Y-56830595D01*
X165504761Y-56925833D01*
X165552380Y-57068690D01*
X165552380Y-57163928D01*
X165504761Y-57306785D01*
X165457142Y-57354404D01*
X165123809Y-57354404D01*
X165123809Y-57163928D01*
X165552380Y-57782976D02*
X164552380Y-57782976D01*
X165552380Y-58354404D01*
X164552380Y-58354404D01*
X165552380Y-58830595D02*
X164552380Y-58830595D01*
X164552380Y-59068690D01*
X164600000Y-59211547D01*
X164695238Y-59306785D01*
X164790476Y-59354404D01*
X164980952Y-59402023D01*
X165123809Y-59402023D01*
X165314285Y-59354404D01*
X165409523Y-59306785D01*
X165504761Y-59211547D01*
X165552380Y-59068690D01*
X165552380Y-58830595D01*
X167092380Y-58497261D02*
X167092380Y-58021071D01*
X167568571Y-57973452D01*
X167520952Y-58021071D01*
X167473333Y-58116309D01*
X167473333Y-58354404D01*
X167520952Y-58449642D01*
X167568571Y-58497261D01*
X167663809Y-58544880D01*
X167901904Y-58544880D01*
X167997142Y-58497261D01*
X168044761Y-58449642D01*
X168092380Y-58354404D01*
X168092380Y-58116309D01*
X168044761Y-58021071D01*
X167997142Y-57973452D01*
X167092380Y-58830595D02*
X168092380Y-59163928D01*
X167092380Y-59497261D01*
D10*
X105260000Y-51435000D02*
G75*
G03*
X105260000Y-51435000I-2120000J0D01*
G01*
X103140000Y-49355000D02*
X103140000Y-53515000D01*
X103100000Y-49355000D02*
X103100000Y-53515000D01*
X103060000Y-49356000D02*
X103060000Y-53514000D01*
X103020000Y-49358000D02*
X103020000Y-53512000D01*
X102980000Y-49361000D02*
X102980000Y-53509000D01*
X102940000Y-49364000D02*
X102940000Y-50595000D01*
X102940000Y-52275000D02*
X102940000Y-53506000D01*
X102900000Y-49368000D02*
X102900000Y-50595000D01*
X102900000Y-52275000D02*
X102900000Y-53502000D01*
X102860000Y-49373000D02*
X102860000Y-50595000D01*
X102860000Y-52275000D02*
X102860000Y-53497000D01*
X102820000Y-49379000D02*
X102820000Y-50595000D01*
X102820000Y-52275000D02*
X102820000Y-53491000D01*
X102780000Y-49385000D02*
X102780000Y-50595000D01*
X102780000Y-52275000D02*
X102780000Y-53485000D01*
X102740000Y-49393000D02*
X102740000Y-50595000D01*
X102740000Y-52275000D02*
X102740000Y-53477000D01*
X102700000Y-49401000D02*
X102700000Y-50595000D01*
X102700000Y-52275000D02*
X102700000Y-53469000D01*
X102660000Y-49410000D02*
X102660000Y-50595000D01*
X102660000Y-52275000D02*
X102660000Y-53460000D01*
X102620000Y-49419000D02*
X102620000Y-50595000D01*
X102620000Y-52275000D02*
X102620000Y-53451000D01*
X102580000Y-49430000D02*
X102580000Y-50595000D01*
X102580000Y-52275000D02*
X102580000Y-53440000D01*
X102540000Y-49441000D02*
X102540000Y-50595000D01*
X102540000Y-52275000D02*
X102540000Y-53429000D01*
X102500000Y-49453000D02*
X102500000Y-50595000D01*
X102500000Y-52275000D02*
X102500000Y-53417000D01*
X102460000Y-49467000D02*
X102460000Y-50595000D01*
X102460000Y-52275000D02*
X102460000Y-53403000D01*
X102419000Y-49481000D02*
X102419000Y-50595000D01*
X102419000Y-52275000D02*
X102419000Y-53389000D01*
X102379000Y-49495000D02*
X102379000Y-50595000D01*
X102379000Y-52275000D02*
X102379000Y-53375000D01*
X102339000Y-49511000D02*
X102339000Y-50595000D01*
X102339000Y-52275000D02*
X102339000Y-53359000D01*
X102299000Y-49528000D02*
X102299000Y-50595000D01*
X102299000Y-52275000D02*
X102299000Y-53342000D01*
X102259000Y-49546000D02*
X102259000Y-50595000D01*
X102259000Y-52275000D02*
X102259000Y-53324000D01*
X102219000Y-49565000D02*
X102219000Y-50595000D01*
X102219000Y-52275000D02*
X102219000Y-53305000D01*
X102179000Y-49584000D02*
X102179000Y-50595000D01*
X102179000Y-52275000D02*
X102179000Y-53286000D01*
X102139000Y-49605000D02*
X102139000Y-50595000D01*
X102139000Y-52275000D02*
X102139000Y-53265000D01*
X102099000Y-49627000D02*
X102099000Y-50595000D01*
X102099000Y-52275000D02*
X102099000Y-53243000D01*
X102059000Y-49650000D02*
X102059000Y-50595000D01*
X102059000Y-52275000D02*
X102059000Y-53220000D01*
X102019000Y-49675000D02*
X102019000Y-50595000D01*
X102019000Y-52275000D02*
X102019000Y-53195000D01*
X101979000Y-49700000D02*
X101979000Y-50595000D01*
X101979000Y-52275000D02*
X101979000Y-53170000D01*
X101939000Y-49727000D02*
X101939000Y-50595000D01*
X101939000Y-52275000D02*
X101939000Y-53143000D01*
X101899000Y-49755000D02*
X101899000Y-50595000D01*
X101899000Y-52275000D02*
X101899000Y-53115000D01*
X101859000Y-49785000D02*
X101859000Y-50595000D01*
X101859000Y-52275000D02*
X101859000Y-53085000D01*
X101819000Y-49816000D02*
X101819000Y-50595000D01*
X101819000Y-52275000D02*
X101819000Y-53054000D01*
X101779000Y-49848000D02*
X101779000Y-50595000D01*
X101779000Y-52275000D02*
X101779000Y-53022000D01*
X101739000Y-49883000D02*
X101739000Y-50595000D01*
X101739000Y-52275000D02*
X101739000Y-52987000D01*
X101699000Y-49919000D02*
X101699000Y-50595000D01*
X101699000Y-52275000D02*
X101699000Y-52951000D01*
X101659000Y-49957000D02*
X101659000Y-50595000D01*
X101659000Y-52275000D02*
X101659000Y-52913000D01*
X101619000Y-49997000D02*
X101619000Y-50595000D01*
X101619000Y-52275000D02*
X101619000Y-52873000D01*
X101579000Y-50039000D02*
X101579000Y-50595000D01*
X101579000Y-52275000D02*
X101579000Y-52831000D01*
X101539000Y-50084000D02*
X101539000Y-50595000D01*
X101539000Y-52275000D02*
X101539000Y-52786000D01*
X101499000Y-50131000D02*
X101499000Y-50595000D01*
X101499000Y-52275000D02*
X101499000Y-52739000D01*
X101459000Y-50181000D02*
X101459000Y-50595000D01*
X101459000Y-52275000D02*
X101459000Y-52689000D01*
X101419000Y-50235000D02*
X101419000Y-50595000D01*
X101419000Y-52275000D02*
X101419000Y-52635000D01*
X101379000Y-50293000D02*
X101379000Y-50595000D01*
X101379000Y-52275000D02*
X101379000Y-52577000D01*
X101339000Y-50355000D02*
X101339000Y-50595000D01*
X101339000Y-52275000D02*
X101339000Y-52515000D01*
X101299000Y-50422000D02*
X101299000Y-52448000D01*
X101259000Y-50495000D02*
X101259000Y-52375000D01*
X101219000Y-50576000D02*
X101219000Y-52294000D01*
X101179000Y-50667000D02*
X101179000Y-52203000D01*
X101139000Y-50771000D02*
X101139000Y-52099000D01*
X101099000Y-50898000D02*
X101099000Y-51972000D01*
X101059000Y-51065000D02*
X101059000Y-51805000D01*
X124431248Y-43915000D02*
X124953752Y-43915000D01*
X124431248Y-42445000D02*
X124953752Y-42445000D01*
X102841248Y-40667000D02*
X103363752Y-40667000D01*
X102841248Y-42137000D02*
X103363752Y-42137000D01*
X166108748Y-127735000D02*
X166631252Y-127735000D01*
X166108748Y-126265000D02*
X166631252Y-126265000D01*
X113355000Y-47865000D02*
X114285000Y-47865000D01*
X116515000Y-47865000D02*
X115585000Y-47865000D01*
X116515000Y-47865000D02*
X116515000Y-50025000D01*
X113355000Y-47865000D02*
X113355000Y-49325000D01*
X120975000Y-47865000D02*
X120975000Y-49325000D01*
X124135000Y-47865000D02*
X124135000Y-50025000D01*
X124135000Y-47865000D02*
X123205000Y-47865000D01*
X120975000Y-47865000D02*
X121905000Y-47865000D01*
X85227936Y-71020000D02*
X85682064Y-71020000D01*
X85227936Y-72490000D02*
X85682064Y-72490000D01*
X85227936Y-90270000D02*
X85682064Y-90270000D01*
X85227936Y-88800000D02*
X85682064Y-88800000D01*
X113565000Y-38777936D02*
X113565000Y-39232064D01*
X115035000Y-38777936D02*
X115035000Y-39232064D01*
X122655000Y-38777936D02*
X122655000Y-39232064D01*
X121185000Y-38777936D02*
X121185000Y-39232064D01*
X84952064Y-52170000D02*
X84497936Y-52170000D01*
X84952064Y-50700000D02*
X84497936Y-50700000D01*
X83085000Y-62272936D02*
X83085000Y-62727064D01*
X84555000Y-62272936D02*
X84555000Y-62727064D01*
X84952064Y-48160000D02*
X84497936Y-48160000D01*
X84952064Y-49630000D02*
X84497936Y-49630000D01*
X111860000Y-48397936D02*
X111860000Y-48852064D01*
X110390000Y-48397936D02*
X110390000Y-48852064D01*
X118010000Y-48397936D02*
X118010000Y-48852064D01*
X119480000Y-48397936D02*
X119480000Y-48852064D01*
X85227936Y-83720000D02*
X85682064Y-83720000D01*
X85227936Y-85190000D02*
X85682064Y-85190000D01*
X84952064Y-47090000D02*
X84497936Y-47090000D01*
X84952064Y-45620000D02*
X84497936Y-45620000D01*
X85227936Y-80110000D02*
X85682064Y-80110000D01*
X85227936Y-78640000D02*
X85682064Y-78640000D01*
X84952064Y-43080000D02*
X84497936Y-43080000D01*
X84952064Y-44550000D02*
X84497936Y-44550000D01*
X83085000Y-123232936D02*
X83085000Y-123687064D01*
X84555000Y-123232936D02*
X84555000Y-123687064D01*
X92429000Y-51392064D02*
X92429000Y-50937936D01*
X90959000Y-51392064D02*
X90959000Y-50937936D01*
X85227936Y-81180000D02*
X85682064Y-81180000D01*
X85227936Y-82650000D02*
X85682064Y-82650000D01*
X88419000Y-51408064D02*
X88419000Y-50953936D01*
X89889000Y-51408064D02*
X89889000Y-50953936D01*
X107034000Y-53932064D02*
X107034000Y-53477936D01*
X105564000Y-53932064D02*
X105564000Y-53477936D01*
X109574000Y-53932064D02*
X109574000Y-53477936D01*
X108104000Y-53932064D02*
X108104000Y-53477936D01*
X85227936Y-100430000D02*
X85682064Y-100430000D01*
X85227936Y-98960000D02*
X85682064Y-98960000D01*
X85227936Y-91340000D02*
X85682064Y-91340000D01*
X85227936Y-92810000D02*
X85682064Y-92810000D01*
X130672064Y-38635000D02*
X130217936Y-38635000D01*
X130672064Y-40105000D02*
X130217936Y-40105000D01*
X134757936Y-38635000D02*
X135212064Y-38635000D01*
X134757936Y-40105000D02*
X135212064Y-40105000D01*
X85227936Y-87730000D02*
X85682064Y-87730000D01*
X85227936Y-86260000D02*
X85682064Y-86260000D01*
X85227936Y-93880000D02*
X85682064Y-93880000D01*
X85227936Y-95350000D02*
X85682064Y-95350000D01*
X85227936Y-97890000D02*
X85682064Y-97890000D01*
X85227936Y-96420000D02*
X85682064Y-96420000D01*
X85227936Y-77570000D02*
X85682064Y-77570000D01*
X85227936Y-76100000D02*
X85682064Y-76100000D01*
X85682064Y-73560000D02*
X85227936Y-73560000D01*
X85682064Y-75030000D02*
X85227936Y-75030000D01*
X93220000Y-86345000D02*
X99620000Y-86345000D01*
X93220000Y-81295000D02*
X99620000Y-81295000D01*
X93220000Y-81295000D02*
G75*
G03*
X93220000Y-86345000I0J-2525000D01*
G01*
X99620000Y-81295000D02*
G75*
G02*
X99620000Y-86345000I0J-2525000D01*
G01*
X105920000Y-81295000D02*
X112320000Y-81295000D01*
X105920000Y-86345000D02*
X112320000Y-86345000D01*
X112320000Y-81295000D02*
G75*
G02*
X112320000Y-86345000I0J-2525000D01*
G01*
X105920000Y-81295000D02*
G75*
G03*
X105920000Y-86345000I0J-2525000D01*
G01*
X146035000Y-86870000D02*
X146035000Y-93270000D01*
X140985000Y-86870000D02*
X140985000Y-93270000D01*
X146035000Y-93270000D02*
G75*
G02*
X140985000Y-93270000I-2525000J0D01*
G01*
X146035000Y-86870000D02*
G75*
G03*
X140985000Y-86870000I-2525000J0D01*
G01*
X90431252Y-65305000D02*
X89908748Y-65305000D01*
X90431252Y-66775000D02*
X89908748Y-66775000D01*
X89908748Y-126265000D02*
X90431252Y-126265000D01*
X89908748Y-127735000D02*
X90431252Y-127735000D01*
X89908748Y-57685000D02*
X90431252Y-57685000D01*
X89908748Y-59155000D02*
X90431252Y-59155000D01*
X90431252Y-118645000D02*
X89908748Y-118645000D01*
X90431252Y-120115000D02*
X89908748Y-120115000D01*
X166108748Y-118645000D02*
X166631252Y-118645000D01*
X166108748Y-120115000D02*
X166631252Y-120115000D01*
X103363752Y-39851000D02*
X102841248Y-39851000D01*
X103363752Y-38381000D02*
X102841248Y-38381000D01*
X103363752Y-36095000D02*
X102841248Y-36095000D01*
X103363752Y-37565000D02*
X102841248Y-37565000D01*
D11*
X99956857Y-51792142D02*
X100004476Y-51839761D01*
X100147333Y-51887380D01*
X100242571Y-51887380D01*
X100385428Y-51839761D01*
X100480666Y-51744523D01*
X100528285Y-51649285D01*
X100575904Y-51458809D01*
X100575904Y-51315952D01*
X100528285Y-51125476D01*
X100480666Y-51030238D01*
X100385428Y-50935000D01*
X100242571Y-50887380D01*
X100147333Y-50887380D01*
X100004476Y-50935000D01*
X99956857Y-50982619D01*
X99004476Y-51887380D02*
X99575904Y-51887380D01*
X99290190Y-51887380D02*
X99290190Y-50887380D01*
X99385428Y-51030238D01*
X99480666Y-51125476D01*
X99575904Y-51173095D01*
X98147333Y-50887380D02*
X98337809Y-50887380D01*
X98433047Y-50935000D01*
X98480666Y-50982619D01*
X98575904Y-51125476D01*
X98623523Y-51315952D01*
X98623523Y-51696904D01*
X98575904Y-51792142D01*
X98528285Y-51839761D01*
X98433047Y-51887380D01*
X98242571Y-51887380D01*
X98147333Y-51839761D01*
X98099714Y-51792142D01*
X98052095Y-51696904D01*
X98052095Y-51458809D01*
X98099714Y-51363571D01*
X98147333Y-51315952D01*
X98242571Y-51268333D01*
X98433047Y-51268333D01*
X98528285Y-51315952D01*
X98575904Y-51363571D01*
X98623523Y-51458809D01*
X124245666Y-45315142D02*
X124293285Y-45362761D01*
X124436142Y-45410380D01*
X124531380Y-45410380D01*
X124674238Y-45362761D01*
X124769476Y-45267523D01*
X124817095Y-45172285D01*
X124864714Y-44981809D01*
X124864714Y-44838952D01*
X124817095Y-44648476D01*
X124769476Y-44553238D01*
X124674238Y-44458000D01*
X124531380Y-44410380D01*
X124436142Y-44410380D01*
X124293285Y-44458000D01*
X124245666Y-44505619D01*
X123293285Y-45410380D02*
X123864714Y-45410380D01*
X123579000Y-45410380D02*
X123579000Y-44410380D01*
X123674238Y-44553238D01*
X123769476Y-44648476D01*
X123864714Y-44696095D01*
X100210857Y-42267142D02*
X100258476Y-42314761D01*
X100401333Y-42362380D01*
X100496571Y-42362380D01*
X100639428Y-42314761D01*
X100734666Y-42219523D01*
X100782285Y-42124285D01*
X100829904Y-41933809D01*
X100829904Y-41790952D01*
X100782285Y-41600476D01*
X100734666Y-41505238D01*
X100639428Y-41410000D01*
X100496571Y-41362380D01*
X100401333Y-41362380D01*
X100258476Y-41410000D01*
X100210857Y-41457619D01*
X99258476Y-42362380D02*
X99829904Y-42362380D01*
X99544190Y-42362380D02*
X99544190Y-41362380D01*
X99639428Y-41505238D01*
X99734666Y-41600476D01*
X99829904Y-41648095D01*
X98925142Y-41362380D02*
X98258476Y-41362380D01*
X98687047Y-42362380D01*
X167012857Y-129008142D02*
X167060476Y-129055761D01*
X167203333Y-129103380D01*
X167298571Y-129103380D01*
X167441428Y-129055761D01*
X167536666Y-128960523D01*
X167584285Y-128865285D01*
X167631904Y-128674809D01*
X167631904Y-128531952D01*
X167584285Y-128341476D01*
X167536666Y-128246238D01*
X167441428Y-128151000D01*
X167298571Y-128103380D01*
X167203333Y-128103380D01*
X167060476Y-128151000D01*
X167012857Y-128198619D01*
X166679523Y-128103380D02*
X166060476Y-128103380D01*
X166393809Y-128484333D01*
X166250952Y-128484333D01*
X166155714Y-128531952D01*
X166108095Y-128579571D01*
X166060476Y-128674809D01*
X166060476Y-128912904D01*
X166108095Y-129008142D01*
X166155714Y-129055761D01*
X166250952Y-129103380D01*
X166536666Y-129103380D01*
X166631904Y-129055761D01*
X166679523Y-129008142D01*
X165108095Y-129103380D02*
X165679523Y-129103380D01*
X165393809Y-129103380D02*
X165393809Y-128103380D01*
X165489047Y-128246238D01*
X165584285Y-128341476D01*
X165679523Y-128389095D01*
X115030238Y-51982619D02*
X115125476Y-51935000D01*
X115220714Y-51839761D01*
X115363571Y-51696904D01*
X115458809Y-51649285D01*
X115554047Y-51649285D01*
X115506428Y-51887380D02*
X115601666Y-51839761D01*
X115696904Y-51744523D01*
X115744523Y-51554047D01*
X115744523Y-51220714D01*
X115696904Y-51030238D01*
X115601666Y-50935000D01*
X115506428Y-50887380D01*
X115315952Y-50887380D01*
X115220714Y-50935000D01*
X115125476Y-51030238D01*
X115077857Y-51220714D01*
X115077857Y-51554047D01*
X115125476Y-51744523D01*
X115220714Y-51839761D01*
X115315952Y-51887380D01*
X115506428Y-51887380D01*
X114125476Y-51887380D02*
X114696904Y-51887380D01*
X114411190Y-51887380D02*
X114411190Y-50887380D01*
X114506428Y-51030238D01*
X114601666Y-51125476D01*
X114696904Y-51173095D01*
X122650238Y-51982619D02*
X122745476Y-51935000D01*
X122840714Y-51839761D01*
X122983571Y-51696904D01*
X123078809Y-51649285D01*
X123174047Y-51649285D01*
X123126428Y-51887380D02*
X123221666Y-51839761D01*
X123316904Y-51744523D01*
X123364523Y-51554047D01*
X123364523Y-51220714D01*
X123316904Y-51030238D01*
X123221666Y-50935000D01*
X123126428Y-50887380D01*
X122935952Y-50887380D01*
X122840714Y-50935000D01*
X122745476Y-51030238D01*
X122697857Y-51220714D01*
X122697857Y-51554047D01*
X122745476Y-51744523D01*
X122840714Y-51839761D01*
X122935952Y-51887380D01*
X123126428Y-51887380D01*
X122316904Y-50982619D02*
X122269285Y-50935000D01*
X122174047Y-50887380D01*
X121935952Y-50887380D01*
X121840714Y-50935000D01*
X121793095Y-50982619D01*
X121745476Y-51077857D01*
X121745476Y-51173095D01*
X121793095Y-51315952D01*
X122364523Y-51887380D01*
X121745476Y-51887380D01*
X82023976Y-72207380D02*
X82357309Y-71731190D01*
X82595404Y-72207380D02*
X82595404Y-71207380D01*
X82214452Y-71207380D01*
X82119214Y-71255000D01*
X82071595Y-71302619D01*
X82023976Y-71397857D01*
X82023976Y-71540714D01*
X82071595Y-71635952D01*
X82119214Y-71683571D01*
X82214452Y-71731190D01*
X82595404Y-71731190D01*
X81071595Y-72207380D02*
X81643023Y-72207380D01*
X81357309Y-72207380D02*
X81357309Y-71207380D01*
X81452547Y-71350238D01*
X81547785Y-71445476D01*
X81643023Y-71493095D01*
X82023976Y-89987380D02*
X82357309Y-89511190D01*
X82595404Y-89987380D02*
X82595404Y-88987380D01*
X82214452Y-88987380D01*
X82119214Y-89035000D01*
X82071595Y-89082619D01*
X82023976Y-89177857D01*
X82023976Y-89320714D01*
X82071595Y-89415952D01*
X82119214Y-89463571D01*
X82214452Y-89511190D01*
X82595404Y-89511190D01*
X81643023Y-89082619D02*
X81595404Y-89035000D01*
X81500166Y-88987380D01*
X81262071Y-88987380D01*
X81166833Y-89035000D01*
X81119214Y-89082619D01*
X81071595Y-89177857D01*
X81071595Y-89273095D01*
X81119214Y-89415952D01*
X81690642Y-89987380D01*
X81071595Y-89987380D01*
X114466666Y-36901380D02*
X114800000Y-36425190D01*
X115038095Y-36901380D02*
X115038095Y-35901380D01*
X114657142Y-35901380D01*
X114561904Y-35949000D01*
X114514285Y-35996619D01*
X114466666Y-36091857D01*
X114466666Y-36234714D01*
X114514285Y-36329952D01*
X114561904Y-36377571D01*
X114657142Y-36425190D01*
X115038095Y-36425190D01*
X113609523Y-36234714D02*
X113609523Y-36901380D01*
X113847619Y-35853761D02*
X114085714Y-36568047D01*
X113466666Y-36568047D01*
X122086666Y-36917380D02*
X122420000Y-36441190D01*
X122658095Y-36917380D02*
X122658095Y-35917380D01*
X122277142Y-35917380D01*
X122181904Y-35965000D01*
X122134285Y-36012619D01*
X122086666Y-36107857D01*
X122086666Y-36250714D01*
X122134285Y-36345952D01*
X122181904Y-36393571D01*
X122277142Y-36441190D01*
X122658095Y-36441190D01*
X121181904Y-35917380D02*
X121658095Y-35917380D01*
X121705714Y-36393571D01*
X121658095Y-36345952D01*
X121562857Y-36298333D01*
X121324761Y-36298333D01*
X121229523Y-36345952D01*
X121181904Y-36393571D01*
X121134285Y-36488809D01*
X121134285Y-36726904D01*
X121181904Y-36822142D01*
X121229523Y-36869761D01*
X121324761Y-36917380D01*
X121562857Y-36917380D01*
X121658095Y-36869761D01*
X121705714Y-36822142D01*
X82081666Y-51887380D02*
X82415000Y-51411190D01*
X82653095Y-51887380D02*
X82653095Y-50887380D01*
X82272142Y-50887380D01*
X82176904Y-50935000D01*
X82129285Y-50982619D01*
X82081666Y-51077857D01*
X82081666Y-51220714D01*
X82129285Y-51315952D01*
X82176904Y-51363571D01*
X82272142Y-51411190D01*
X82653095Y-51411190D01*
X81224523Y-50887380D02*
X81415000Y-50887380D01*
X81510238Y-50935000D01*
X81557857Y-50982619D01*
X81653095Y-51125476D01*
X81700714Y-51315952D01*
X81700714Y-51696904D01*
X81653095Y-51792142D01*
X81605476Y-51839761D01*
X81510238Y-51887380D01*
X81319761Y-51887380D01*
X81224523Y-51839761D01*
X81176904Y-51792142D01*
X81129285Y-51696904D01*
X81129285Y-51458809D01*
X81176904Y-51363571D01*
X81224523Y-51315952D01*
X81319761Y-51268333D01*
X81510238Y-51268333D01*
X81605476Y-51315952D01*
X81653095Y-51363571D01*
X81700714Y-51458809D01*
X85923380Y-62317333D02*
X85447190Y-61984000D01*
X85923380Y-61745904D02*
X84923380Y-61745904D01*
X84923380Y-62126857D01*
X84971000Y-62222095D01*
X85018619Y-62269714D01*
X85113857Y-62317333D01*
X85256714Y-62317333D01*
X85351952Y-62269714D01*
X85399571Y-62222095D01*
X85447190Y-62126857D01*
X85447190Y-61745904D01*
X84923380Y-62650666D02*
X84923380Y-63317333D01*
X85923380Y-62888761D01*
X82081666Y-49347380D02*
X82415000Y-48871190D01*
X82653095Y-49347380D02*
X82653095Y-48347380D01*
X82272142Y-48347380D01*
X82176904Y-48395000D01*
X82129285Y-48442619D01*
X82081666Y-48537857D01*
X82081666Y-48680714D01*
X82129285Y-48775952D01*
X82176904Y-48823571D01*
X82272142Y-48871190D01*
X82653095Y-48871190D01*
X81510238Y-48775952D02*
X81605476Y-48728333D01*
X81653095Y-48680714D01*
X81700714Y-48585476D01*
X81700714Y-48537857D01*
X81653095Y-48442619D01*
X81605476Y-48395000D01*
X81510238Y-48347380D01*
X81319761Y-48347380D01*
X81224523Y-48395000D01*
X81176904Y-48442619D01*
X81129285Y-48537857D01*
X81129285Y-48585476D01*
X81176904Y-48680714D01*
X81224523Y-48728333D01*
X81319761Y-48775952D01*
X81510238Y-48775952D01*
X81605476Y-48823571D01*
X81653095Y-48871190D01*
X81700714Y-48966428D01*
X81700714Y-49156904D01*
X81653095Y-49252142D01*
X81605476Y-49299761D01*
X81510238Y-49347380D01*
X81319761Y-49347380D01*
X81224523Y-49299761D01*
X81176904Y-49252142D01*
X81129285Y-49156904D01*
X81129285Y-48966428D01*
X81176904Y-48871190D01*
X81224523Y-48823571D01*
X81319761Y-48775952D01*
X109926380Y-47998142D02*
X109450190Y-47664809D01*
X109926380Y-47426714D02*
X108926380Y-47426714D01*
X108926380Y-47807666D01*
X108974000Y-47902904D01*
X109021619Y-47950523D01*
X109116857Y-47998142D01*
X109259714Y-47998142D01*
X109354952Y-47950523D01*
X109402571Y-47902904D01*
X109450190Y-47807666D01*
X109450190Y-47426714D01*
X109926380Y-48950523D02*
X109926380Y-48379095D01*
X109926380Y-48664809D02*
X108926380Y-48664809D01*
X109069238Y-48569571D01*
X109164476Y-48474333D01*
X109212095Y-48379095D01*
X108926380Y-49569571D02*
X108926380Y-49664809D01*
X108974000Y-49760047D01*
X109021619Y-49807666D01*
X109116857Y-49855285D01*
X109307333Y-49902904D01*
X109545428Y-49902904D01*
X109735904Y-49855285D01*
X109831142Y-49807666D01*
X109878761Y-49760047D01*
X109926380Y-49664809D01*
X109926380Y-49569571D01*
X109878761Y-49474333D01*
X109831142Y-49426714D01*
X109735904Y-49379095D01*
X109545428Y-49331476D01*
X109307333Y-49331476D01*
X109116857Y-49379095D01*
X109021619Y-49426714D01*
X108974000Y-49474333D01*
X108926380Y-49569571D01*
X119197380Y-44696142D02*
X118721190Y-44362809D01*
X119197380Y-44124714D02*
X118197380Y-44124714D01*
X118197380Y-44505666D01*
X118245000Y-44600904D01*
X118292619Y-44648523D01*
X118387857Y-44696142D01*
X118530714Y-44696142D01*
X118625952Y-44648523D01*
X118673571Y-44600904D01*
X118721190Y-44505666D01*
X118721190Y-44124714D01*
X119197380Y-45648523D02*
X119197380Y-45077095D01*
X119197380Y-45362809D02*
X118197380Y-45362809D01*
X118340238Y-45267571D01*
X118435476Y-45172333D01*
X118483095Y-45077095D01*
X119197380Y-46600904D02*
X119197380Y-46029476D01*
X119197380Y-46315190D02*
X118197380Y-46315190D01*
X118340238Y-46219952D01*
X118435476Y-46124714D01*
X118483095Y-46029476D01*
X82023976Y-84907380D02*
X82357309Y-84431190D01*
X82595404Y-84907380D02*
X82595404Y-83907380D01*
X82214452Y-83907380D01*
X82119214Y-83955000D01*
X82071595Y-84002619D01*
X82023976Y-84097857D01*
X82023976Y-84240714D01*
X82071595Y-84335952D01*
X82119214Y-84383571D01*
X82214452Y-84431190D01*
X82595404Y-84431190D01*
X81071595Y-84907380D02*
X81643023Y-84907380D01*
X81357309Y-84907380D02*
X81357309Y-83907380D01*
X81452547Y-84050238D01*
X81547785Y-84145476D01*
X81643023Y-84193095D01*
X80690642Y-84002619D02*
X80643023Y-83955000D01*
X80547785Y-83907380D01*
X80309690Y-83907380D01*
X80214452Y-83955000D01*
X80166833Y-84002619D01*
X80119214Y-84097857D01*
X80119214Y-84193095D01*
X80166833Y-84335952D01*
X80738261Y-84907380D01*
X80119214Y-84907380D01*
X81922857Y-46807380D02*
X82256190Y-46331190D01*
X82494285Y-46807380D02*
X82494285Y-45807380D01*
X82113333Y-45807380D01*
X82018095Y-45855000D01*
X81970476Y-45902619D01*
X81922857Y-45997857D01*
X81922857Y-46140714D01*
X81970476Y-46235952D01*
X82018095Y-46283571D01*
X82113333Y-46331190D01*
X82494285Y-46331190D01*
X80970476Y-46807380D02*
X81541904Y-46807380D01*
X81256190Y-46807380D02*
X81256190Y-45807380D01*
X81351428Y-45950238D01*
X81446666Y-46045476D01*
X81541904Y-46093095D01*
X80065714Y-45807380D02*
X80541904Y-45807380D01*
X80589523Y-46283571D01*
X80541904Y-46235952D01*
X80446666Y-46188333D01*
X80208571Y-46188333D01*
X80113333Y-46235952D01*
X80065714Y-46283571D01*
X80018095Y-46378809D01*
X80018095Y-46616904D01*
X80065714Y-46712142D01*
X80113333Y-46759761D01*
X80208571Y-46807380D01*
X80446666Y-46807380D01*
X80541904Y-46759761D01*
X80589523Y-46712142D01*
X82023976Y-79827380D02*
X82357309Y-79351190D01*
X82595404Y-79827380D02*
X82595404Y-78827380D01*
X82214452Y-78827380D01*
X82119214Y-78875000D01*
X82071595Y-78922619D01*
X82023976Y-79017857D01*
X82023976Y-79160714D01*
X82071595Y-79255952D01*
X82119214Y-79303571D01*
X82214452Y-79351190D01*
X82595404Y-79351190D01*
X81071595Y-79827380D02*
X81643023Y-79827380D01*
X81357309Y-79827380D02*
X81357309Y-78827380D01*
X81452547Y-78970238D01*
X81547785Y-79065476D01*
X81643023Y-79113095D01*
X80214452Y-78827380D02*
X80404928Y-78827380D01*
X80500166Y-78875000D01*
X80547785Y-78922619D01*
X80643023Y-79065476D01*
X80690642Y-79255952D01*
X80690642Y-79636904D01*
X80643023Y-79732142D01*
X80595404Y-79779761D01*
X80500166Y-79827380D01*
X80309690Y-79827380D01*
X80214452Y-79779761D01*
X80166833Y-79732142D01*
X80119214Y-79636904D01*
X80119214Y-79398809D01*
X80166833Y-79303571D01*
X80214452Y-79255952D01*
X80309690Y-79208333D01*
X80500166Y-79208333D01*
X80595404Y-79255952D01*
X80643023Y-79303571D01*
X80690642Y-79398809D01*
X81922857Y-44267380D02*
X82256190Y-43791190D01*
X82494285Y-44267380D02*
X82494285Y-43267380D01*
X82113333Y-43267380D01*
X82018095Y-43315000D01*
X81970476Y-43362619D01*
X81922857Y-43457857D01*
X81922857Y-43600714D01*
X81970476Y-43695952D01*
X82018095Y-43743571D01*
X82113333Y-43791190D01*
X82494285Y-43791190D01*
X80970476Y-44267380D02*
X81541904Y-44267380D01*
X81256190Y-44267380D02*
X81256190Y-43267380D01*
X81351428Y-43410238D01*
X81446666Y-43505476D01*
X81541904Y-43553095D01*
X80637142Y-43267380D02*
X79970476Y-43267380D01*
X80399047Y-44267380D01*
X85923380Y-122674142D02*
X85447190Y-122340809D01*
X85923380Y-122102714D02*
X84923380Y-122102714D01*
X84923380Y-122483666D01*
X84971000Y-122578904D01*
X85018619Y-122626523D01*
X85113857Y-122674142D01*
X85256714Y-122674142D01*
X85351952Y-122626523D01*
X85399571Y-122578904D01*
X85447190Y-122483666D01*
X85447190Y-122102714D01*
X85923380Y-123626523D02*
X85923380Y-123055095D01*
X85923380Y-123340809D02*
X84923380Y-123340809D01*
X85066238Y-123245571D01*
X85161476Y-123150333D01*
X85209095Y-123055095D01*
X85351952Y-124197952D02*
X85304333Y-124102714D01*
X85256714Y-124055095D01*
X85161476Y-124007476D01*
X85113857Y-124007476D01*
X85018619Y-124055095D01*
X84971000Y-124102714D01*
X84923380Y-124197952D01*
X84923380Y-124388428D01*
X84971000Y-124483666D01*
X85018619Y-124531285D01*
X85113857Y-124578904D01*
X85161476Y-124578904D01*
X85256714Y-124531285D01*
X85304333Y-124483666D01*
X85351952Y-124388428D01*
X85351952Y-124197952D01*
X85399571Y-124102714D01*
X85447190Y-124055095D01*
X85542428Y-124007476D01*
X85732904Y-124007476D01*
X85828142Y-124055095D01*
X85875761Y-124102714D01*
X85923380Y-124197952D01*
X85923380Y-124388428D01*
X85875761Y-124483666D01*
X85828142Y-124531285D01*
X85732904Y-124578904D01*
X85542428Y-124578904D01*
X85447190Y-124531285D01*
X85399571Y-124483666D01*
X85351952Y-124388428D01*
X92146380Y-47236142D02*
X91670190Y-46902809D01*
X92146380Y-46664714D02*
X91146380Y-46664714D01*
X91146380Y-47045666D01*
X91194000Y-47140904D01*
X91241619Y-47188523D01*
X91336857Y-47236142D01*
X91479714Y-47236142D01*
X91574952Y-47188523D01*
X91622571Y-47140904D01*
X91670190Y-47045666D01*
X91670190Y-46664714D01*
X91241619Y-47617095D02*
X91194000Y-47664714D01*
X91146380Y-47759952D01*
X91146380Y-47998047D01*
X91194000Y-48093285D01*
X91241619Y-48140904D01*
X91336857Y-48188523D01*
X91432095Y-48188523D01*
X91574952Y-48140904D01*
X92146380Y-47569476D01*
X92146380Y-48188523D01*
X92146380Y-49140904D02*
X92146380Y-48569476D01*
X92146380Y-48855190D02*
X91146380Y-48855190D01*
X91289238Y-48759952D01*
X91384476Y-48664714D01*
X91432095Y-48569476D01*
X82023976Y-82367380D02*
X82357309Y-81891190D01*
X82595404Y-82367380D02*
X82595404Y-81367380D01*
X82214452Y-81367380D01*
X82119214Y-81415000D01*
X82071595Y-81462619D01*
X82023976Y-81557857D01*
X82023976Y-81700714D01*
X82071595Y-81795952D01*
X82119214Y-81843571D01*
X82214452Y-81891190D01*
X82595404Y-81891190D01*
X81643023Y-81462619D02*
X81595404Y-81415000D01*
X81500166Y-81367380D01*
X81262071Y-81367380D01*
X81166833Y-81415000D01*
X81119214Y-81462619D01*
X81071595Y-81557857D01*
X81071595Y-81653095D01*
X81119214Y-81795952D01*
X81690642Y-82367380D01*
X81071595Y-82367380D01*
X80690642Y-81462619D02*
X80643023Y-81415000D01*
X80547785Y-81367380D01*
X80309690Y-81367380D01*
X80214452Y-81415000D01*
X80166833Y-81462619D01*
X80119214Y-81557857D01*
X80119214Y-81653095D01*
X80166833Y-81795952D01*
X80738261Y-82367380D01*
X80119214Y-82367380D01*
X89606380Y-47236142D02*
X89130190Y-46902809D01*
X89606380Y-46664714D02*
X88606380Y-46664714D01*
X88606380Y-47045666D01*
X88654000Y-47140904D01*
X88701619Y-47188523D01*
X88796857Y-47236142D01*
X88939714Y-47236142D01*
X89034952Y-47188523D01*
X89082571Y-47140904D01*
X89130190Y-47045666D01*
X89130190Y-46664714D01*
X88701619Y-47617095D02*
X88654000Y-47664714D01*
X88606380Y-47759952D01*
X88606380Y-47998047D01*
X88654000Y-48093285D01*
X88701619Y-48140904D01*
X88796857Y-48188523D01*
X88892095Y-48188523D01*
X89034952Y-48140904D01*
X89606380Y-47569476D01*
X89606380Y-48188523D01*
X88606380Y-48521857D02*
X88606380Y-49140904D01*
X88987333Y-48807571D01*
X88987333Y-48950428D01*
X89034952Y-49045666D01*
X89082571Y-49093285D01*
X89177809Y-49140904D01*
X89415904Y-49140904D01*
X89511142Y-49093285D01*
X89558761Y-49045666D01*
X89606380Y-48950428D01*
X89606380Y-48664714D01*
X89558761Y-48569476D01*
X89511142Y-48521857D01*
X104973380Y-54348142D02*
X104497190Y-54014809D01*
X104973380Y-53776714D02*
X103973380Y-53776714D01*
X103973380Y-54157666D01*
X104021000Y-54252904D01*
X104068619Y-54300523D01*
X104163857Y-54348142D01*
X104306714Y-54348142D01*
X104401952Y-54300523D01*
X104449571Y-54252904D01*
X104497190Y-54157666D01*
X104497190Y-53776714D01*
X104068619Y-54729095D02*
X104021000Y-54776714D01*
X103973380Y-54871952D01*
X103973380Y-55110047D01*
X104021000Y-55205285D01*
X104068619Y-55252904D01*
X104163857Y-55300523D01*
X104259095Y-55300523D01*
X104401952Y-55252904D01*
X104973380Y-54681476D01*
X104973380Y-55300523D01*
X103973380Y-56205285D02*
X103973380Y-55729095D01*
X104449571Y-55681476D01*
X104401952Y-55729095D01*
X104354333Y-55824333D01*
X104354333Y-56062428D01*
X104401952Y-56157666D01*
X104449571Y-56205285D01*
X104544809Y-56252904D01*
X104782904Y-56252904D01*
X104878142Y-56205285D01*
X104925761Y-56157666D01*
X104973380Y-56062428D01*
X104973380Y-55824333D01*
X104925761Y-55729095D01*
X104878142Y-55681476D01*
X111069380Y-54348142D02*
X110593190Y-54014809D01*
X111069380Y-53776714D02*
X110069380Y-53776714D01*
X110069380Y-54157666D01*
X110117000Y-54252904D01*
X110164619Y-54300523D01*
X110259857Y-54348142D01*
X110402714Y-54348142D01*
X110497952Y-54300523D01*
X110545571Y-54252904D01*
X110593190Y-54157666D01*
X110593190Y-53776714D01*
X110164619Y-54729095D02*
X110117000Y-54776714D01*
X110069380Y-54871952D01*
X110069380Y-55110047D01*
X110117000Y-55205285D01*
X110164619Y-55252904D01*
X110259857Y-55300523D01*
X110355095Y-55300523D01*
X110497952Y-55252904D01*
X111069380Y-54681476D01*
X111069380Y-55300523D01*
X110069380Y-56157666D02*
X110069380Y-55967190D01*
X110117000Y-55871952D01*
X110164619Y-55824333D01*
X110307476Y-55729095D01*
X110497952Y-55681476D01*
X110878904Y-55681476D01*
X110974142Y-55729095D01*
X111021761Y-55776714D01*
X111069380Y-55871952D01*
X111069380Y-56062428D01*
X111021761Y-56157666D01*
X110974142Y-56205285D01*
X110878904Y-56252904D01*
X110640809Y-56252904D01*
X110545571Y-56205285D01*
X110497952Y-56157666D01*
X110450333Y-56062428D01*
X110450333Y-55871952D01*
X110497952Y-55776714D01*
X110545571Y-55729095D01*
X110640809Y-55681476D01*
X82023976Y-100147380D02*
X82357309Y-99671190D01*
X82595404Y-100147380D02*
X82595404Y-99147380D01*
X82214452Y-99147380D01*
X82119214Y-99195000D01*
X82071595Y-99242619D01*
X82023976Y-99337857D01*
X82023976Y-99480714D01*
X82071595Y-99575952D01*
X82119214Y-99623571D01*
X82214452Y-99671190D01*
X82595404Y-99671190D01*
X81690642Y-99147380D02*
X81071595Y-99147380D01*
X81404928Y-99528333D01*
X81262071Y-99528333D01*
X81166833Y-99575952D01*
X81119214Y-99623571D01*
X81071595Y-99718809D01*
X81071595Y-99956904D01*
X81119214Y-100052142D01*
X81166833Y-100099761D01*
X81262071Y-100147380D01*
X81547785Y-100147380D01*
X81643023Y-100099761D01*
X81690642Y-100052142D01*
X80452547Y-99147380D02*
X80357309Y-99147380D01*
X80262071Y-99195000D01*
X80214452Y-99242619D01*
X80166833Y-99337857D01*
X80119214Y-99528333D01*
X80119214Y-99766428D01*
X80166833Y-99956904D01*
X80214452Y-100052142D01*
X80262071Y-100099761D01*
X80357309Y-100147380D01*
X80452547Y-100147380D01*
X80547785Y-100099761D01*
X80595404Y-100052142D01*
X80643023Y-99956904D01*
X80690642Y-99766428D01*
X80690642Y-99528333D01*
X80643023Y-99337857D01*
X80595404Y-99242619D01*
X80547785Y-99195000D01*
X80452547Y-99147380D01*
X82023976Y-92527380D02*
X82357309Y-92051190D01*
X82595404Y-92527380D02*
X82595404Y-91527380D01*
X82214452Y-91527380D01*
X82119214Y-91575000D01*
X82071595Y-91622619D01*
X82023976Y-91717857D01*
X82023976Y-91860714D01*
X82071595Y-91955952D01*
X82119214Y-92003571D01*
X82214452Y-92051190D01*
X82595404Y-92051190D01*
X81690642Y-91527380D02*
X81071595Y-91527380D01*
X81404928Y-91908333D01*
X81262071Y-91908333D01*
X81166833Y-91955952D01*
X81119214Y-92003571D01*
X81071595Y-92098809D01*
X81071595Y-92336904D01*
X81119214Y-92432142D01*
X81166833Y-92479761D01*
X81262071Y-92527380D01*
X81547785Y-92527380D01*
X81643023Y-92479761D01*
X81690642Y-92432142D01*
X80214452Y-91860714D02*
X80214452Y-92527380D01*
X80452547Y-91479761D02*
X80690642Y-92194047D01*
X80071595Y-92194047D01*
X131087857Y-41727380D02*
X131421190Y-41251190D01*
X131659285Y-41727380D02*
X131659285Y-40727380D01*
X131278333Y-40727380D01*
X131183095Y-40775000D01*
X131135476Y-40822619D01*
X131087857Y-40917857D01*
X131087857Y-41060714D01*
X131135476Y-41155952D01*
X131183095Y-41203571D01*
X131278333Y-41251190D01*
X131659285Y-41251190D01*
X130754523Y-40727380D02*
X130135476Y-40727380D01*
X130468809Y-41108333D01*
X130325952Y-41108333D01*
X130230714Y-41155952D01*
X130183095Y-41203571D01*
X130135476Y-41298809D01*
X130135476Y-41536904D01*
X130183095Y-41632142D01*
X130230714Y-41679761D01*
X130325952Y-41727380D01*
X130611666Y-41727380D01*
X130706904Y-41679761D01*
X130754523Y-41632142D01*
X129230714Y-40727380D02*
X129706904Y-40727380D01*
X129754523Y-41203571D01*
X129706904Y-41155952D01*
X129611666Y-41108333D01*
X129373571Y-41108333D01*
X129278333Y-41155952D01*
X129230714Y-41203571D01*
X129183095Y-41298809D01*
X129183095Y-41536904D01*
X129230714Y-41632142D01*
X129278333Y-41679761D01*
X129373571Y-41727380D01*
X129611666Y-41727380D01*
X129706904Y-41679761D01*
X129754523Y-41632142D01*
X135627857Y-41727380D02*
X135961190Y-41251190D01*
X136199285Y-41727380D02*
X136199285Y-40727380D01*
X135818333Y-40727380D01*
X135723095Y-40775000D01*
X135675476Y-40822619D01*
X135627857Y-40917857D01*
X135627857Y-41060714D01*
X135675476Y-41155952D01*
X135723095Y-41203571D01*
X135818333Y-41251190D01*
X136199285Y-41251190D01*
X135294523Y-40727380D02*
X134675476Y-40727380D01*
X135008809Y-41108333D01*
X134865952Y-41108333D01*
X134770714Y-41155952D01*
X134723095Y-41203571D01*
X134675476Y-41298809D01*
X134675476Y-41536904D01*
X134723095Y-41632142D01*
X134770714Y-41679761D01*
X134865952Y-41727380D01*
X135151666Y-41727380D01*
X135246904Y-41679761D01*
X135294523Y-41632142D01*
X133818333Y-40727380D02*
X134008809Y-40727380D01*
X134104047Y-40775000D01*
X134151666Y-40822619D01*
X134246904Y-40965476D01*
X134294523Y-41155952D01*
X134294523Y-41536904D01*
X134246904Y-41632142D01*
X134199285Y-41679761D01*
X134104047Y-41727380D01*
X133913571Y-41727380D01*
X133818333Y-41679761D01*
X133770714Y-41632142D01*
X133723095Y-41536904D01*
X133723095Y-41298809D01*
X133770714Y-41203571D01*
X133818333Y-41155952D01*
X133913571Y-41108333D01*
X134104047Y-41108333D01*
X134199285Y-41155952D01*
X134246904Y-41203571D01*
X134294523Y-41298809D01*
X82023976Y-87447380D02*
X82357309Y-86971190D01*
X82595404Y-87447380D02*
X82595404Y-86447380D01*
X82214452Y-86447380D01*
X82119214Y-86495000D01*
X82071595Y-86542619D01*
X82023976Y-86637857D01*
X82023976Y-86780714D01*
X82071595Y-86875952D01*
X82119214Y-86923571D01*
X82214452Y-86971190D01*
X82595404Y-86971190D01*
X81690642Y-86447380D02*
X81071595Y-86447380D01*
X81404928Y-86828333D01*
X81262071Y-86828333D01*
X81166833Y-86875952D01*
X81119214Y-86923571D01*
X81071595Y-87018809D01*
X81071595Y-87256904D01*
X81119214Y-87352142D01*
X81166833Y-87399761D01*
X81262071Y-87447380D01*
X81547785Y-87447380D01*
X81643023Y-87399761D01*
X81690642Y-87352142D01*
X80595404Y-87447380D02*
X80404928Y-87447380D01*
X80309690Y-87399761D01*
X80262071Y-87352142D01*
X80166833Y-87209285D01*
X80119214Y-87018809D01*
X80119214Y-86637857D01*
X80166833Y-86542619D01*
X80214452Y-86495000D01*
X80309690Y-86447380D01*
X80500166Y-86447380D01*
X80595404Y-86495000D01*
X80643023Y-86542619D01*
X80690642Y-86637857D01*
X80690642Y-86875952D01*
X80643023Y-86971190D01*
X80595404Y-87018809D01*
X80500166Y-87066428D01*
X80309690Y-87066428D01*
X80214452Y-87018809D01*
X80166833Y-86971190D01*
X80119214Y-86875952D01*
X82023976Y-95067380D02*
X82357309Y-94591190D01*
X82595404Y-95067380D02*
X82595404Y-94067380D01*
X82214452Y-94067380D01*
X82119214Y-94115000D01*
X82071595Y-94162619D01*
X82023976Y-94257857D01*
X82023976Y-94400714D01*
X82071595Y-94495952D01*
X82119214Y-94543571D01*
X82214452Y-94591190D01*
X82595404Y-94591190D01*
X81166833Y-94400714D02*
X81166833Y-95067380D01*
X81404928Y-94019761D02*
X81643023Y-94734047D01*
X81023976Y-94734047D01*
X80119214Y-95067380D02*
X80690642Y-95067380D01*
X80404928Y-95067380D02*
X80404928Y-94067380D01*
X80500166Y-94210238D01*
X80595404Y-94305476D01*
X80690642Y-94353095D01*
X82023976Y-97607380D02*
X82357309Y-97131190D01*
X82595404Y-97607380D02*
X82595404Y-96607380D01*
X82214452Y-96607380D01*
X82119214Y-96655000D01*
X82071595Y-96702619D01*
X82023976Y-96797857D01*
X82023976Y-96940714D01*
X82071595Y-97035952D01*
X82119214Y-97083571D01*
X82214452Y-97131190D01*
X82595404Y-97131190D01*
X81166833Y-96940714D02*
X81166833Y-97607380D01*
X81404928Y-96559761D02*
X81643023Y-97274047D01*
X81023976Y-97274047D01*
X80214452Y-96940714D02*
X80214452Y-97607380D01*
X80452547Y-96559761D02*
X80690642Y-97274047D01*
X80071595Y-97274047D01*
X82023976Y-77287380D02*
X82357309Y-76811190D01*
X82595404Y-77287380D02*
X82595404Y-76287380D01*
X82214452Y-76287380D01*
X82119214Y-76335000D01*
X82071595Y-76382619D01*
X82023976Y-76477857D01*
X82023976Y-76620714D01*
X82071595Y-76715952D01*
X82119214Y-76763571D01*
X82214452Y-76811190D01*
X82595404Y-76811190D01*
X81119214Y-76287380D02*
X81595404Y-76287380D01*
X81643023Y-76763571D01*
X81595404Y-76715952D01*
X81500166Y-76668333D01*
X81262071Y-76668333D01*
X81166833Y-76715952D01*
X81119214Y-76763571D01*
X81071595Y-76858809D01*
X81071595Y-77096904D01*
X81119214Y-77192142D01*
X81166833Y-77239761D01*
X81262071Y-77287380D01*
X81500166Y-77287380D01*
X81595404Y-77239761D01*
X81643023Y-77192142D01*
X80690642Y-76382619D02*
X80643023Y-76335000D01*
X80547785Y-76287380D01*
X80309690Y-76287380D01*
X80214452Y-76335000D01*
X80166833Y-76382619D01*
X80119214Y-76477857D01*
X80119214Y-76573095D01*
X80166833Y-76715952D01*
X80738261Y-77287380D01*
X80119214Y-77287380D01*
X82023976Y-74747380D02*
X82357309Y-74271190D01*
X82595404Y-74747380D02*
X82595404Y-73747380D01*
X82214452Y-73747380D01*
X82119214Y-73795000D01*
X82071595Y-73842619D01*
X82023976Y-73937857D01*
X82023976Y-74080714D01*
X82071595Y-74175952D01*
X82119214Y-74223571D01*
X82214452Y-74271190D01*
X82595404Y-74271190D01*
X81119214Y-73747380D02*
X81595404Y-73747380D01*
X81643023Y-74223571D01*
X81595404Y-74175952D01*
X81500166Y-74128333D01*
X81262071Y-74128333D01*
X81166833Y-74175952D01*
X81119214Y-74223571D01*
X81071595Y-74318809D01*
X81071595Y-74556904D01*
X81119214Y-74652142D01*
X81166833Y-74699761D01*
X81262071Y-74747380D01*
X81500166Y-74747380D01*
X81595404Y-74699761D01*
X81643023Y-74652142D01*
X80738261Y-73747380D02*
X80119214Y-73747380D01*
X80452547Y-74128333D01*
X80309690Y-74128333D01*
X80214452Y-74175952D01*
X80166833Y-74223571D01*
X80119214Y-74318809D01*
X80119214Y-74556904D01*
X80166833Y-74652142D01*
X80214452Y-74699761D01*
X80309690Y-74747380D01*
X80595404Y-74747380D01*
X80690642Y-74699761D01*
X80738261Y-74652142D01*
X96896190Y-87321190D02*
X96896190Y-87797380D01*
X97229523Y-86797380D02*
X96896190Y-87321190D01*
X96562857Y-86797380D01*
X95705714Y-87797380D02*
X96277142Y-87797380D01*
X95991428Y-87797380D02*
X95991428Y-86797380D01*
X96086666Y-86940238D01*
X96181904Y-87035476D01*
X96277142Y-87083095D01*
X109596190Y-87321190D02*
X109596190Y-87797380D01*
X109929523Y-86797380D02*
X109596190Y-87321190D01*
X109262857Y-86797380D01*
X108977142Y-86892619D02*
X108929523Y-86845000D01*
X108834285Y-86797380D01*
X108596190Y-86797380D01*
X108500952Y-86845000D01*
X108453333Y-86892619D01*
X108405714Y-86987857D01*
X108405714Y-87083095D01*
X108453333Y-87225952D01*
X109024761Y-87797380D01*
X108405714Y-87797380D01*
X147042190Y-89593809D02*
X147518380Y-89593809D01*
X146518380Y-89260476D02*
X147042190Y-89593809D01*
X146518380Y-89927142D01*
X146518380Y-90165238D02*
X146518380Y-90784285D01*
X146899333Y-90450952D01*
X146899333Y-90593809D01*
X146946952Y-90689047D01*
X146994571Y-90736666D01*
X147089809Y-90784285D01*
X147327904Y-90784285D01*
X147423142Y-90736666D01*
X147470761Y-90689047D01*
X147518380Y-90593809D01*
X147518380Y-90308095D01*
X147470761Y-90212857D01*
X147423142Y-90165238D01*
X90336666Y-68175142D02*
X90384285Y-68222761D01*
X90527142Y-68270380D01*
X90622380Y-68270380D01*
X90765238Y-68222761D01*
X90860476Y-68127523D01*
X90908095Y-68032285D01*
X90955714Y-67841809D01*
X90955714Y-67698952D01*
X90908095Y-67508476D01*
X90860476Y-67413238D01*
X90765238Y-67318000D01*
X90622380Y-67270380D01*
X90527142Y-67270380D01*
X90384285Y-67318000D01*
X90336666Y-67365619D01*
X90003333Y-67270380D02*
X89336666Y-67270380D01*
X89765238Y-68270380D01*
X90812857Y-129262142D02*
X90860476Y-129309761D01*
X91003333Y-129357380D01*
X91098571Y-129357380D01*
X91241428Y-129309761D01*
X91336666Y-129214523D01*
X91384285Y-129119285D01*
X91431904Y-128928809D01*
X91431904Y-128785952D01*
X91384285Y-128595476D01*
X91336666Y-128500238D01*
X91241428Y-128405000D01*
X91098571Y-128357380D01*
X91003333Y-128357380D01*
X90860476Y-128405000D01*
X90812857Y-128452619D01*
X90431904Y-128452619D02*
X90384285Y-128405000D01*
X90289047Y-128357380D01*
X90050952Y-128357380D01*
X89955714Y-128405000D01*
X89908095Y-128452619D01*
X89860476Y-128547857D01*
X89860476Y-128643095D01*
X89908095Y-128785952D01*
X90479523Y-129357380D01*
X89860476Y-129357380D01*
X89003333Y-128690714D02*
X89003333Y-129357380D01*
X89241428Y-128309761D02*
X89479523Y-129024047D01*
X88860476Y-129024047D01*
X90812857Y-57126142D02*
X90860476Y-57173761D01*
X91003333Y-57221380D01*
X91098571Y-57221380D01*
X91241428Y-57173761D01*
X91336666Y-57078523D01*
X91384285Y-56983285D01*
X91431904Y-56792809D01*
X91431904Y-56649952D01*
X91384285Y-56459476D01*
X91336666Y-56364238D01*
X91241428Y-56269000D01*
X91098571Y-56221380D01*
X91003333Y-56221380D01*
X90860476Y-56269000D01*
X90812857Y-56316619D01*
X89860476Y-57221380D02*
X90431904Y-57221380D01*
X90146190Y-57221380D02*
X90146190Y-56221380D01*
X90241428Y-56364238D01*
X90336666Y-56459476D01*
X90431904Y-56507095D01*
X89241428Y-56221380D02*
X89146190Y-56221380D01*
X89050952Y-56269000D01*
X89003333Y-56316619D01*
X88955714Y-56411857D01*
X88908095Y-56602333D01*
X88908095Y-56840428D01*
X88955714Y-57030904D01*
X89003333Y-57126142D01*
X89050952Y-57173761D01*
X89146190Y-57221380D01*
X89241428Y-57221380D01*
X89336666Y-57173761D01*
X89384285Y-57126142D01*
X89431904Y-57030904D01*
X89479523Y-56840428D01*
X89479523Y-56602333D01*
X89431904Y-56411857D01*
X89384285Y-56316619D01*
X89336666Y-56269000D01*
X89241428Y-56221380D01*
X90812857Y-118057142D02*
X90860476Y-118104761D01*
X91003333Y-118152380D01*
X91098571Y-118152380D01*
X91241428Y-118104761D01*
X91336666Y-118009523D01*
X91384285Y-117914285D01*
X91431904Y-117723809D01*
X91431904Y-117580952D01*
X91384285Y-117390476D01*
X91336666Y-117295238D01*
X91241428Y-117200000D01*
X91098571Y-117152380D01*
X91003333Y-117152380D01*
X90860476Y-117200000D01*
X90812857Y-117247619D01*
X89860476Y-118152380D02*
X90431904Y-118152380D01*
X90146190Y-118152380D02*
X90146190Y-117152380D01*
X90241428Y-117295238D01*
X90336666Y-117390476D01*
X90431904Y-117438095D01*
X88908095Y-118152380D02*
X89479523Y-118152380D01*
X89193809Y-118152380D02*
X89193809Y-117152380D01*
X89289047Y-117295238D01*
X89384285Y-117390476D01*
X89479523Y-117438095D01*
X167012857Y-115419142D02*
X167060476Y-115466761D01*
X167203333Y-115514380D01*
X167298571Y-115514380D01*
X167441428Y-115466761D01*
X167536666Y-115371523D01*
X167584285Y-115276285D01*
X167631904Y-115085809D01*
X167631904Y-114942952D01*
X167584285Y-114752476D01*
X167536666Y-114657238D01*
X167441428Y-114562000D01*
X167298571Y-114514380D01*
X167203333Y-114514380D01*
X167060476Y-114562000D01*
X167012857Y-114609619D01*
X166679523Y-114514380D02*
X166060476Y-114514380D01*
X166393809Y-114895333D01*
X166250952Y-114895333D01*
X166155714Y-114942952D01*
X166108095Y-114990571D01*
X166060476Y-115085809D01*
X166060476Y-115323904D01*
X166108095Y-115419142D01*
X166155714Y-115466761D01*
X166250952Y-115514380D01*
X166536666Y-115514380D01*
X166631904Y-115466761D01*
X166679523Y-115419142D01*
X165727142Y-114514380D02*
X165108095Y-114514380D01*
X165441428Y-114895333D01*
X165298571Y-114895333D01*
X165203333Y-114942952D01*
X165155714Y-114990571D01*
X165108095Y-115085809D01*
X165108095Y-115323904D01*
X165155714Y-115419142D01*
X165203333Y-115466761D01*
X165298571Y-115514380D01*
X165584285Y-115514380D01*
X165679523Y-115466761D01*
X165727142Y-115419142D01*
X100210857Y-39473142D02*
X100258476Y-39520761D01*
X100401333Y-39568380D01*
X100496571Y-39568380D01*
X100639428Y-39520761D01*
X100734666Y-39425523D01*
X100782285Y-39330285D01*
X100829904Y-39139809D01*
X100829904Y-38996952D01*
X100782285Y-38806476D01*
X100734666Y-38711238D01*
X100639428Y-38616000D01*
X100496571Y-38568380D01*
X100401333Y-38568380D01*
X100258476Y-38616000D01*
X100210857Y-38663619D01*
X99877523Y-38568380D02*
X99258476Y-38568380D01*
X99591809Y-38949333D01*
X99448952Y-38949333D01*
X99353714Y-38996952D01*
X99306095Y-39044571D01*
X99258476Y-39139809D01*
X99258476Y-39377904D01*
X99306095Y-39473142D01*
X99353714Y-39520761D01*
X99448952Y-39568380D01*
X99734666Y-39568380D01*
X99829904Y-39520761D01*
X99877523Y-39473142D01*
X98401333Y-38901714D02*
X98401333Y-39568380D01*
X98639428Y-38520761D02*
X98877523Y-39235047D01*
X98258476Y-39235047D01*
X100210857Y-36679142D02*
X100258476Y-36726761D01*
X100401333Y-36774380D01*
X100496571Y-36774380D01*
X100639428Y-36726761D01*
X100734666Y-36631523D01*
X100782285Y-36536285D01*
X100829904Y-36345809D01*
X100829904Y-36202952D01*
X100782285Y-36012476D01*
X100734666Y-35917238D01*
X100639428Y-35822000D01*
X100496571Y-35774380D01*
X100401333Y-35774380D01*
X100258476Y-35822000D01*
X100210857Y-35869619D01*
X99877523Y-35774380D02*
X99258476Y-35774380D01*
X99591809Y-36155333D01*
X99448952Y-36155333D01*
X99353714Y-36202952D01*
X99306095Y-36250571D01*
X99258476Y-36345809D01*
X99258476Y-36583904D01*
X99306095Y-36679142D01*
X99353714Y-36726761D01*
X99448952Y-36774380D01*
X99734666Y-36774380D01*
X99829904Y-36726761D01*
X99877523Y-36679142D01*
X98353714Y-35774380D02*
X98829904Y-35774380D01*
X98877523Y-36250571D01*
X98829904Y-36202952D01*
X98734666Y-36155333D01*
X98496571Y-36155333D01*
X98401333Y-36202952D01*
X98353714Y-36250571D01*
X98306095Y-36345809D01*
X98306095Y-36583904D01*
X98353714Y-36679142D01*
X98401333Y-36726761D01*
X98496571Y-36774380D01*
X98734666Y-36774380D01*
X98829904Y-36726761D01*
X98877523Y-36679142D01*
%LPC*%
D12*
X83770000Y-66020000D03*
D13*
X81280000Y-64770000D03*
X81280000Y-60270000D03*
D12*
X83770000Y-59010000D03*
G36*
G01*
X131865000Y-101969000D02*
X133565000Y-101969000D01*
G75*
G02*
X133616000Y-102020000I0J-51000D01*
G01*
X133616000Y-103720000D01*
G75*
G02*
X133565000Y-103771000I-51000J0D01*
G01*
X131865000Y-103771000D01*
G75*
G02*
X131814000Y-103720000I0J51000D01*
G01*
X131814000Y-102020000D01*
G75*
G02*
X131865000Y-101969000I51000J0D01*
G01*
G37*
D14*
X132715000Y-100330000D03*
X130175000Y-102870000D03*
X130175000Y-100330000D03*
X127635000Y-102870000D03*
X127635000Y-100330000D03*
X125095000Y-102870000D03*
X125095000Y-100330000D03*
X122555000Y-102870000D03*
X122555000Y-100330000D03*
X120015000Y-102870000D03*
X120015000Y-100330000D03*
X117475000Y-102870000D03*
X117475000Y-100330000D03*
X114935000Y-102870000D03*
X114935000Y-100330000D03*
X112395000Y-102870000D03*
X112395000Y-100330000D03*
X109855000Y-102870000D03*
X109855000Y-100330000D03*
X109855000Y-95250000D03*
X109855000Y-97790000D03*
X112395000Y-95250000D03*
X112395000Y-97790000D03*
X114935000Y-95250000D03*
X114935000Y-97790000D03*
X117475000Y-95250000D03*
X117475000Y-97790000D03*
X120015000Y-95250000D03*
X120015000Y-97790000D03*
X122555000Y-95250000D03*
X122555000Y-97790000D03*
X125095000Y-95250000D03*
X125095000Y-97790000D03*
X127635000Y-95250000D03*
X127635000Y-97790000D03*
X130175000Y-95250000D03*
X130175000Y-97790000D03*
X132715000Y-95250000D03*
G36*
G01*
X131865000Y-96889000D02*
X133565000Y-96889000D01*
G75*
G02*
X133616000Y-96940000I0J-51000D01*
G01*
X133616000Y-98640000D01*
G75*
G02*
X133565000Y-98691000I-51000J0D01*
G01*
X131865000Y-98691000D01*
G75*
G02*
X131814000Y-98640000I0J51000D01*
G01*
X131814000Y-96940000D01*
G75*
G02*
X131865000Y-96889000I51000J0D01*
G01*
G37*
G36*
G01*
X133084000Y-57365000D02*
X133084000Y-55665000D01*
G75*
G02*
X133135000Y-55614000I51000J0D01*
G01*
X134835000Y-55614000D01*
G75*
G02*
X134886000Y-55665000I0J-51000D01*
G01*
X134886000Y-57365000D01*
G75*
G02*
X134835000Y-57416000I-51000J0D01*
G01*
X133135000Y-57416000D01*
G75*
G02*
X133084000Y-57365000I0J51000D01*
G01*
G37*
G36*
G01*
X153505000Y-98209000D02*
X155105000Y-98209000D01*
G75*
G02*
X155156000Y-98260000I0J-51000D01*
G01*
X155156000Y-99860000D01*
G75*
G02*
X155105000Y-99911000I-51000J0D01*
G01*
X153505000Y-99911000D01*
G75*
G02*
X153454000Y-99860000I0J51000D01*
G01*
X153454000Y-98260000D01*
G75*
G02*
X153505000Y-98209000I51000J0D01*
G01*
G37*
D15*
X154305000Y-101060000D03*
G36*
G01*
X104791000Y-50834999D02*
X104791000Y-52035001D01*
G75*
G02*
X104740001Y-52086000I-50999J0D01*
G01*
X103539999Y-52086000D01*
G75*
G02*
X103489000Y-52035001I0J50999D01*
G01*
X103489000Y-50834999D01*
G75*
G02*
X103539999Y-50784000I50999J0D01*
G01*
X104740001Y-50784000D01*
G75*
G02*
X104791000Y-50834999I0J-50999D01*
G01*
G37*
D16*
X102140000Y-51435000D03*
D17*
X163980000Y-75960000D03*
D18*
X168580000Y-73660000D03*
X161580000Y-73660000D03*
D17*
X166980000Y-75960000D03*
X159980000Y-75960000D03*
X158880000Y-71360000D03*
G36*
G01*
X103290000Y-133084000D02*
X104990000Y-133084000D01*
G75*
G02*
X105041000Y-133135000I0J-51000D01*
G01*
X105041000Y-134835000D01*
G75*
G02*
X104990000Y-134886000I-51000J0D01*
G01*
X103290000Y-134886000D01*
G75*
G02*
X103239000Y-134835000I0J51000D01*
G01*
X103239000Y-133135000D01*
G75*
G02*
X103290000Y-133084000I51000J0D01*
G01*
G37*
D14*
X101600000Y-133985000D03*
X99060000Y-133985000D03*
X96520000Y-133985000D03*
X93980000Y-133985000D03*
X91440000Y-133985000D03*
X88900000Y-133985000D03*
G36*
G01*
X130595000Y-133084000D02*
X132295000Y-133084000D01*
G75*
G02*
X132346000Y-133135000I0J-51000D01*
G01*
X132346000Y-134835000D01*
G75*
G02*
X132295000Y-134886000I-51000J0D01*
G01*
X130595000Y-134886000D01*
G75*
G02*
X130544000Y-134835000I0J51000D01*
G01*
X130544000Y-133135000D01*
G75*
G02*
X130595000Y-133084000I51000J0D01*
G01*
G37*
X128905000Y-133985000D03*
X126365000Y-133985000D03*
X123825000Y-133985000D03*
X121285000Y-133985000D03*
X118745000Y-133985000D03*
X116205000Y-133985000D03*
X113665000Y-133985000D03*
X111125000Y-133985000D03*
X108585000Y-133985000D03*
X143510000Y-56515000D03*
X146050000Y-56515000D03*
X148590000Y-56515000D03*
X151130000Y-56515000D03*
X153670000Y-56515000D03*
G36*
G01*
X155360000Y-55614000D02*
X157060000Y-55614000D01*
G75*
G02*
X157111000Y-55665000I0J-51000D01*
G01*
X157111000Y-57365000D01*
G75*
G02*
X157060000Y-57416000I-51000J0D01*
G01*
X155360000Y-57416000D01*
G75*
G02*
X155309000Y-57365000I0J51000D01*
G01*
X155309000Y-55665000D01*
G75*
G02*
X155360000Y-55614000I51000J0D01*
G01*
G37*
G36*
G01*
X155360000Y-35294000D02*
X157060000Y-35294000D01*
G75*
G02*
X157111000Y-35345000I0J-51000D01*
G01*
X157111000Y-37045000D01*
G75*
G02*
X157060000Y-37096000I-51000J0D01*
G01*
X155360000Y-37096000D01*
G75*
G02*
X155309000Y-37045000I0J51000D01*
G01*
X155309000Y-35345000D01*
G75*
G02*
X155360000Y-35294000I51000J0D01*
G01*
G37*
X153670000Y-36195000D03*
X151130000Y-36195000D03*
X148590000Y-36195000D03*
X146050000Y-36195000D03*
X143510000Y-36195000D03*
G36*
G01*
X129755000Y-37096000D02*
X128055000Y-37096000D01*
G75*
G02*
X128004000Y-37045000I0J51000D01*
G01*
X128004000Y-35345000D01*
G75*
G02*
X128055000Y-35294000I51000J0D01*
G01*
X129755000Y-35294000D01*
G75*
G02*
X129806000Y-35345000I0J-51000D01*
G01*
X129806000Y-37045000D01*
G75*
G02*
X129755000Y-37096000I-51000J0D01*
G01*
G37*
X131445000Y-36195000D03*
X133985000Y-36195000D03*
D12*
X83770000Y-119970000D03*
D13*
X81280000Y-121230000D03*
X81280000Y-125730000D03*
D12*
X83770000Y-126980000D03*
D19*
X89535000Y-105690000D03*
X89535000Y-110490000D03*
X89535000Y-115290000D03*
D20*
X118140000Y-38895000D03*
D15*
X121540000Y-45345000D03*
X114740000Y-45345000D03*
X121540000Y-42545000D03*
X114740000Y-42545000D03*
X119440000Y-42545000D03*
G36*
G01*
X117691000Y-41745000D02*
X117691000Y-43345000D01*
G75*
G02*
X117640000Y-43396000I-51000J0D01*
G01*
X116040000Y-43396000D01*
G75*
G02*
X115989000Y-43345000I0J51000D01*
G01*
X115989000Y-41745000D01*
G75*
G02*
X116040000Y-41694000I51000J0D01*
G01*
X117640000Y-41694000D01*
G75*
G02*
X117691000Y-41745000I0J-51000D01*
G01*
G37*
D21*
X111290000Y-39695000D03*
X124990000Y-39695000D03*
D22*
X97140000Y-43735000D03*
X99640000Y-43735000D03*
X101640000Y-43735000D03*
X104140000Y-43735000D03*
D23*
X94070000Y-41025000D03*
X107210000Y-41025000D03*
D22*
X97140000Y-46355000D03*
X99640000Y-46355000D03*
X101640000Y-46355000D03*
G36*
G01*
X104941000Y-45605000D02*
X104941000Y-47105000D01*
G75*
G02*
X104890000Y-47156000I-51000J0D01*
G01*
X103390000Y-47156000D01*
G75*
G02*
X103339000Y-47105000I0J51000D01*
G01*
X103339000Y-45605000D01*
G75*
G02*
X103390000Y-45554000I51000J0D01*
G01*
X104890000Y-45554000D01*
G75*
G02*
X104941000Y-45605000I0J-51000D01*
G01*
G37*
D23*
X107210000Y-46705000D03*
X94070000Y-46705000D03*
D24*
X166370000Y-116724000D03*
X166370000Y-102224000D03*
D25*
X160410000Y-116724000D03*
X160410000Y-102224000D03*
D26*
X166370000Y-37465000D03*
X82550000Y-37465000D03*
X82550000Y-132715000D03*
X166370000Y-132715000D03*
D14*
X167640000Y-121920000D03*
X167640000Y-124460000D03*
X165100000Y-121920000D03*
X165100000Y-124460000D03*
X162560000Y-121920000D03*
X162560000Y-124460000D03*
X160020000Y-121920000D03*
X160020000Y-124460000D03*
X157480000Y-121920000D03*
X157480000Y-124460000D03*
X154940000Y-121920000D03*
X154940000Y-124460000D03*
X152400000Y-121920000D03*
X152400000Y-124460000D03*
X149860000Y-121920000D03*
X149860000Y-124460000D03*
X147320000Y-121920000D03*
X147320000Y-124460000D03*
X144780000Y-121920000D03*
X144780000Y-124460000D03*
X142240000Y-121920000D03*
X142240000Y-124460000D03*
X139700000Y-121920000D03*
X139700000Y-124460000D03*
X137160000Y-121920000D03*
X137160000Y-124460000D03*
X134620000Y-121920000D03*
X134620000Y-124460000D03*
X132080000Y-121920000D03*
X132080000Y-124460000D03*
X129540000Y-121920000D03*
X129540000Y-124460000D03*
X127000000Y-121920000D03*
X127000000Y-124460000D03*
X124460000Y-121920000D03*
X124460000Y-124460000D03*
X121920000Y-121920000D03*
X121920000Y-124460000D03*
X119380000Y-121920000D03*
X119380000Y-124460000D03*
X116840000Y-121920000D03*
X116840000Y-124460000D03*
X114300000Y-121920000D03*
X114300000Y-124460000D03*
X111760000Y-121920000D03*
X111760000Y-124460000D03*
X109220000Y-121920000D03*
X109220000Y-124460000D03*
X106680000Y-121920000D03*
X106680000Y-124460000D03*
X104140000Y-121920000D03*
X104140000Y-124460000D03*
X101600000Y-121920000D03*
X101600000Y-124460000D03*
X99060000Y-121920000D03*
X99060000Y-124460000D03*
X96520000Y-121920000D03*
X96520000Y-124460000D03*
X93980000Y-121920000D03*
X93980000Y-124460000D03*
X91440000Y-121920000D03*
X91440000Y-124460000D03*
X88900000Y-121920000D03*
G36*
G01*
X89750000Y-125361000D02*
X88050000Y-125361000D01*
G75*
G02*
X87999000Y-125310000I0J51000D01*
G01*
X87999000Y-123610000D01*
G75*
G02*
X88050000Y-123559000I51000J0D01*
G01*
X89750000Y-123559000D01*
G75*
G02*
X89801000Y-123610000I0J-51000D01*
G01*
X89801000Y-125310000D01*
G75*
G02*
X89750000Y-125361000I-51000J0D01*
G01*
G37*
G36*
G01*
X89750000Y-64401000D02*
X88050000Y-64401000D01*
G75*
G02*
X87999000Y-64350000I0J51000D01*
G01*
X87999000Y-62650000D01*
G75*
G02*
X88050000Y-62599000I51000J0D01*
G01*
X89750000Y-62599000D01*
G75*
G02*
X89801000Y-62650000I0J-51000D01*
G01*
X89801000Y-64350000D01*
G75*
G02*
X89750000Y-64401000I-51000J0D01*
G01*
G37*
X88900000Y-60960000D03*
X91440000Y-63500000D03*
X91440000Y-60960000D03*
X93980000Y-63500000D03*
X93980000Y-60960000D03*
X96520000Y-63500000D03*
X96520000Y-60960000D03*
X99060000Y-63500000D03*
X99060000Y-60960000D03*
X101600000Y-63500000D03*
X101600000Y-60960000D03*
X104140000Y-63500000D03*
X104140000Y-60960000D03*
X106680000Y-63500000D03*
X106680000Y-60960000D03*
X109220000Y-63500000D03*
X109220000Y-60960000D03*
X111760000Y-63500000D03*
X111760000Y-60960000D03*
X114300000Y-63500000D03*
X114300000Y-60960000D03*
X116840000Y-63500000D03*
X116840000Y-60960000D03*
X119380000Y-63500000D03*
X119380000Y-60960000D03*
X121920000Y-63500000D03*
X121920000Y-60960000D03*
X124460000Y-63500000D03*
X124460000Y-60960000D03*
X127000000Y-63500000D03*
X127000000Y-60960000D03*
X129540000Y-63500000D03*
X129540000Y-60960000D03*
X132080000Y-63500000D03*
X132080000Y-60960000D03*
X134620000Y-63500000D03*
X134620000Y-60960000D03*
X137160000Y-63500000D03*
X137160000Y-60960000D03*
X139700000Y-63500000D03*
X139700000Y-60960000D03*
X142240000Y-63500000D03*
X142240000Y-60960000D03*
X144780000Y-63500000D03*
X144780000Y-60960000D03*
X147320000Y-63500000D03*
X147320000Y-60960000D03*
X149860000Y-63500000D03*
X149860000Y-60960000D03*
X152400000Y-63500000D03*
X152400000Y-60960000D03*
X154940000Y-63500000D03*
X154940000Y-60960000D03*
X157480000Y-63500000D03*
X157480000Y-60960000D03*
X160020000Y-63500000D03*
X160020000Y-60960000D03*
X162560000Y-63500000D03*
X162560000Y-60960000D03*
X165100000Y-63500000D03*
X165100000Y-60960000D03*
X167640000Y-63500000D03*
X167640000Y-60960000D03*
G36*
G01*
X123016500Y-43684298D02*
X123016500Y-42675702D01*
G75*
G02*
X123288202Y-42404000I271702J0D01*
G01*
X124021798Y-42404000D01*
G75*
G02*
X124293500Y-42675702I0J-271702D01*
G01*
X124293500Y-43684298D01*
G75*
G02*
X124021798Y-43956000I-271702J0D01*
G01*
X123288202Y-43956000D01*
G75*
G02*
X123016500Y-43684298I0J271702D01*
G01*
G37*
G36*
G01*
X125091500Y-43684298D02*
X125091500Y-42675702D01*
G75*
G02*
X125363202Y-42404000I271702J0D01*
G01*
X126096798Y-42404000D01*
G75*
G02*
X126368500Y-42675702I0J-271702D01*
G01*
X126368500Y-43684298D01*
G75*
G02*
X126096798Y-43956000I-271702J0D01*
G01*
X125363202Y-43956000D01*
G75*
G02*
X125091500Y-43684298I0J271702D01*
G01*
G37*
G36*
G01*
X103501500Y-41906298D02*
X103501500Y-40897702D01*
G75*
G02*
X103773202Y-40626000I271702J0D01*
G01*
X104506798Y-40626000D01*
G75*
G02*
X104778500Y-40897702I0J-271702D01*
G01*
X104778500Y-41906298D01*
G75*
G02*
X104506798Y-42178000I-271702J0D01*
G01*
X103773202Y-42178000D01*
G75*
G02*
X103501500Y-41906298I0J271702D01*
G01*
G37*
G36*
G01*
X101426500Y-41906298D02*
X101426500Y-40897702D01*
G75*
G02*
X101698202Y-40626000I271702J0D01*
G01*
X102431798Y-40626000D01*
G75*
G02*
X102703500Y-40897702I0J-271702D01*
G01*
X102703500Y-41906298D01*
G75*
G02*
X102431798Y-42178000I-271702J0D01*
G01*
X101698202Y-42178000D01*
G75*
G02*
X101426500Y-41906298I0J271702D01*
G01*
G37*
G36*
G01*
X164694000Y-127504298D02*
X164694000Y-126495702D01*
G75*
G02*
X164965702Y-126224000I271702J0D01*
G01*
X165699298Y-126224000D01*
G75*
G02*
X165971000Y-126495702I0J-271702D01*
G01*
X165971000Y-127504298D01*
G75*
G02*
X165699298Y-127776000I-271702J0D01*
G01*
X164965702Y-127776000D01*
G75*
G02*
X164694000Y-127504298I0J271702D01*
G01*
G37*
G36*
G01*
X166769000Y-127504298D02*
X166769000Y-126495702D01*
G75*
G02*
X167040702Y-126224000I271702J0D01*
G01*
X167774298Y-126224000D01*
G75*
G02*
X168046000Y-126495702I0J-271702D01*
G01*
X168046000Y-127504298D01*
G75*
G02*
X167774298Y-127776000I-271702J0D01*
G01*
X167040702Y-127776000D01*
G75*
G02*
X166769000Y-127504298I0J271702D01*
G01*
G37*
D27*
X166012000Y-87535000D03*
X166012000Y-91535000D03*
D28*
X168362000Y-86235000D03*
X168362000Y-92835000D03*
G36*
G01*
X116285000Y-50126000D02*
X115485000Y-50126000D01*
G75*
G02*
X115434000Y-50075000I0J51000D01*
G01*
X115434000Y-49175000D01*
G75*
G02*
X115485000Y-49124000I51000J0D01*
G01*
X116285000Y-49124000D01*
G75*
G02*
X116336000Y-49175000I0J-51000D01*
G01*
X116336000Y-50075000D01*
G75*
G02*
X116285000Y-50126000I-51000J0D01*
G01*
G37*
G36*
G01*
X114385000Y-50126000D02*
X113585000Y-50126000D01*
G75*
G02*
X113534000Y-50075000I0J51000D01*
G01*
X113534000Y-49175000D01*
G75*
G02*
X113585000Y-49124000I51000J0D01*
G01*
X114385000Y-49124000D01*
G75*
G02*
X114436000Y-49175000I0J-51000D01*
G01*
X114436000Y-50075000D01*
G75*
G02*
X114385000Y-50126000I-51000J0D01*
G01*
G37*
G36*
G01*
X115335000Y-48126000D02*
X114535000Y-48126000D01*
G75*
G02*
X114484000Y-48075000I0J51000D01*
G01*
X114484000Y-47175000D01*
G75*
G02*
X114535000Y-47124000I51000J0D01*
G01*
X115335000Y-47124000D01*
G75*
G02*
X115386000Y-47175000I0J-51000D01*
G01*
X115386000Y-48075000D01*
G75*
G02*
X115335000Y-48126000I-51000J0D01*
G01*
G37*
G36*
G01*
X122955000Y-48126000D02*
X122155000Y-48126000D01*
G75*
G02*
X122104000Y-48075000I0J51000D01*
G01*
X122104000Y-47175000D01*
G75*
G02*
X122155000Y-47124000I51000J0D01*
G01*
X122955000Y-47124000D01*
G75*
G02*
X123006000Y-47175000I0J-51000D01*
G01*
X123006000Y-48075000D01*
G75*
G02*
X122955000Y-48126000I-51000J0D01*
G01*
G37*
G36*
G01*
X122005000Y-50126000D02*
X121205000Y-50126000D01*
G75*
G02*
X121154000Y-50075000I0J51000D01*
G01*
X121154000Y-49175000D01*
G75*
G02*
X121205000Y-49124000I51000J0D01*
G01*
X122005000Y-49124000D01*
G75*
G02*
X122056000Y-49175000I0J-51000D01*
G01*
X122056000Y-50075000D01*
G75*
G02*
X122005000Y-50126000I-51000J0D01*
G01*
G37*
G36*
G01*
X123905000Y-50126000D02*
X123105000Y-50126000D01*
G75*
G02*
X123054000Y-50075000I0J51000D01*
G01*
X123054000Y-49175000D01*
G75*
G02*
X123105000Y-49124000I51000J0D01*
G01*
X123905000Y-49124000D01*
G75*
G02*
X123956000Y-49175000I0J-51000D01*
G01*
X123956000Y-50075000D01*
G75*
G02*
X123905000Y-50126000I-51000J0D01*
G01*
G37*
G36*
G01*
X85804000Y-72234752D02*
X85804000Y-71275248D01*
G75*
G02*
X86075248Y-71004000I271248J0D01*
G01*
X86834752Y-71004000D01*
G75*
G02*
X87106000Y-71275248I0J-271248D01*
G01*
X87106000Y-72234752D01*
G75*
G02*
X86834752Y-72506000I-271248J0D01*
G01*
X86075248Y-72506000D01*
G75*
G02*
X85804000Y-72234752I0J271248D01*
G01*
G37*
G36*
G01*
X83804000Y-72234752D02*
X83804000Y-71275248D01*
G75*
G02*
X84075248Y-71004000I271248J0D01*
G01*
X84834752Y-71004000D01*
G75*
G02*
X85106000Y-71275248I0J-271248D01*
G01*
X85106000Y-72234752D01*
G75*
G02*
X84834752Y-72506000I-271248J0D01*
G01*
X84075248Y-72506000D01*
G75*
G02*
X83804000Y-72234752I0J271248D01*
G01*
G37*
G36*
G01*
X83804000Y-90014752D02*
X83804000Y-89055248D01*
G75*
G02*
X84075248Y-88784000I271248J0D01*
G01*
X84834752Y-88784000D01*
G75*
G02*
X85106000Y-89055248I0J-271248D01*
G01*
X85106000Y-90014752D01*
G75*
G02*
X84834752Y-90286000I-271248J0D01*
G01*
X84075248Y-90286000D01*
G75*
G02*
X83804000Y-90014752I0J271248D01*
G01*
G37*
G36*
G01*
X85804000Y-90014752D02*
X85804000Y-89055248D01*
G75*
G02*
X86075248Y-88784000I271248J0D01*
G01*
X86834752Y-88784000D01*
G75*
G02*
X87106000Y-89055248I0J-271248D01*
G01*
X87106000Y-90014752D01*
G75*
G02*
X86834752Y-90286000I-271248J0D01*
G01*
X86075248Y-90286000D01*
G75*
G02*
X85804000Y-90014752I0J271248D01*
G01*
G37*
G36*
G01*
X113820248Y-37354000D02*
X114779752Y-37354000D01*
G75*
G02*
X115051000Y-37625248I0J-271248D01*
G01*
X115051000Y-38384752D01*
G75*
G02*
X114779752Y-38656000I-271248J0D01*
G01*
X113820248Y-38656000D01*
G75*
G02*
X113549000Y-38384752I0J271248D01*
G01*
X113549000Y-37625248D01*
G75*
G02*
X113820248Y-37354000I271248J0D01*
G01*
G37*
G36*
G01*
X113820248Y-39354000D02*
X114779752Y-39354000D01*
G75*
G02*
X115051000Y-39625248I0J-271248D01*
G01*
X115051000Y-40384752D01*
G75*
G02*
X114779752Y-40656000I-271248J0D01*
G01*
X113820248Y-40656000D01*
G75*
G02*
X113549000Y-40384752I0J271248D01*
G01*
X113549000Y-39625248D01*
G75*
G02*
X113820248Y-39354000I271248J0D01*
G01*
G37*
G36*
G01*
X121440248Y-39354000D02*
X122399752Y-39354000D01*
G75*
G02*
X122671000Y-39625248I0J-271248D01*
G01*
X122671000Y-40384752D01*
G75*
G02*
X122399752Y-40656000I-271248J0D01*
G01*
X121440248Y-40656000D01*
G75*
G02*
X121169000Y-40384752I0J271248D01*
G01*
X121169000Y-39625248D01*
G75*
G02*
X121440248Y-39354000I271248J0D01*
G01*
G37*
G36*
G01*
X121440248Y-37354000D02*
X122399752Y-37354000D01*
G75*
G02*
X122671000Y-37625248I0J-271248D01*
G01*
X122671000Y-38384752D01*
G75*
G02*
X122399752Y-38656000I-271248J0D01*
G01*
X121440248Y-38656000D01*
G75*
G02*
X121169000Y-38384752I0J271248D01*
G01*
X121169000Y-37625248D01*
G75*
G02*
X121440248Y-37354000I271248J0D01*
G01*
G37*
G36*
G01*
X84376000Y-50955248D02*
X84376000Y-51914752D01*
G75*
G02*
X84104752Y-52186000I-271248J0D01*
G01*
X83345248Y-52186000D01*
G75*
G02*
X83074000Y-51914752I0J271248D01*
G01*
X83074000Y-50955248D01*
G75*
G02*
X83345248Y-50684000I271248J0D01*
G01*
X84104752Y-50684000D01*
G75*
G02*
X84376000Y-50955248I0J-271248D01*
G01*
G37*
G36*
G01*
X86376000Y-50955248D02*
X86376000Y-51914752D01*
G75*
G02*
X86104752Y-52186000I-271248J0D01*
G01*
X85345248Y-52186000D01*
G75*
G02*
X85074000Y-51914752I0J271248D01*
G01*
X85074000Y-50955248D01*
G75*
G02*
X85345248Y-50684000I271248J0D01*
G01*
X86104752Y-50684000D01*
G75*
G02*
X86376000Y-50955248I0J-271248D01*
G01*
G37*
G36*
G01*
X83340248Y-60849000D02*
X84299752Y-60849000D01*
G75*
G02*
X84571000Y-61120248I0J-271248D01*
G01*
X84571000Y-61879752D01*
G75*
G02*
X84299752Y-62151000I-271248J0D01*
G01*
X83340248Y-62151000D01*
G75*
G02*
X83069000Y-61879752I0J271248D01*
G01*
X83069000Y-61120248D01*
G75*
G02*
X83340248Y-60849000I271248J0D01*
G01*
G37*
G36*
G01*
X83340248Y-62849000D02*
X84299752Y-62849000D01*
G75*
G02*
X84571000Y-63120248I0J-271248D01*
G01*
X84571000Y-63879752D01*
G75*
G02*
X84299752Y-64151000I-271248J0D01*
G01*
X83340248Y-64151000D01*
G75*
G02*
X83069000Y-63879752I0J271248D01*
G01*
X83069000Y-63120248D01*
G75*
G02*
X83340248Y-62849000I271248J0D01*
G01*
G37*
G36*
G01*
X86376000Y-48415248D02*
X86376000Y-49374752D01*
G75*
G02*
X86104752Y-49646000I-271248J0D01*
G01*
X85345248Y-49646000D01*
G75*
G02*
X85074000Y-49374752I0J271248D01*
G01*
X85074000Y-48415248D01*
G75*
G02*
X85345248Y-48144000I271248J0D01*
G01*
X86104752Y-48144000D01*
G75*
G02*
X86376000Y-48415248I0J-271248D01*
G01*
G37*
G36*
G01*
X84376000Y-48415248D02*
X84376000Y-49374752D01*
G75*
G02*
X84104752Y-49646000I-271248J0D01*
G01*
X83345248Y-49646000D01*
G75*
G02*
X83074000Y-49374752I0J271248D01*
G01*
X83074000Y-48415248D01*
G75*
G02*
X83345248Y-48144000I271248J0D01*
G01*
X84104752Y-48144000D01*
G75*
G02*
X84376000Y-48415248I0J-271248D01*
G01*
G37*
G36*
G01*
X110645248Y-48974000D02*
X111604752Y-48974000D01*
G75*
G02*
X111876000Y-49245248I0J-271248D01*
G01*
X111876000Y-50004752D01*
G75*
G02*
X111604752Y-50276000I-271248J0D01*
G01*
X110645248Y-50276000D01*
G75*
G02*
X110374000Y-50004752I0J271248D01*
G01*
X110374000Y-49245248D01*
G75*
G02*
X110645248Y-48974000I271248J0D01*
G01*
G37*
G36*
G01*
X110645248Y-46974000D02*
X111604752Y-46974000D01*
G75*
G02*
X111876000Y-47245248I0J-271248D01*
G01*
X111876000Y-48004752D01*
G75*
G02*
X111604752Y-48276000I-271248J0D01*
G01*
X110645248Y-48276000D01*
G75*
G02*
X110374000Y-48004752I0J271248D01*
G01*
X110374000Y-47245248D01*
G75*
G02*
X110645248Y-46974000I271248J0D01*
G01*
G37*
G36*
G01*
X118265248Y-46974000D02*
X119224752Y-46974000D01*
G75*
G02*
X119496000Y-47245248I0J-271248D01*
G01*
X119496000Y-48004752D01*
G75*
G02*
X119224752Y-48276000I-271248J0D01*
G01*
X118265248Y-48276000D01*
G75*
G02*
X117994000Y-48004752I0J271248D01*
G01*
X117994000Y-47245248D01*
G75*
G02*
X118265248Y-46974000I271248J0D01*
G01*
G37*
G36*
G01*
X118265248Y-48974000D02*
X119224752Y-48974000D01*
G75*
G02*
X119496000Y-49245248I0J-271248D01*
G01*
X119496000Y-50004752D01*
G75*
G02*
X119224752Y-50276000I-271248J0D01*
G01*
X118265248Y-50276000D01*
G75*
G02*
X117994000Y-50004752I0J271248D01*
G01*
X117994000Y-49245248D01*
G75*
G02*
X118265248Y-48974000I271248J0D01*
G01*
G37*
G36*
G01*
X85804000Y-84934752D02*
X85804000Y-83975248D01*
G75*
G02*
X86075248Y-83704000I271248J0D01*
G01*
X86834752Y-83704000D01*
G75*
G02*
X87106000Y-83975248I0J-271248D01*
G01*
X87106000Y-84934752D01*
G75*
G02*
X86834752Y-85206000I-271248J0D01*
G01*
X86075248Y-85206000D01*
G75*
G02*
X85804000Y-84934752I0J271248D01*
G01*
G37*
G36*
G01*
X83804000Y-84934752D02*
X83804000Y-83975248D01*
G75*
G02*
X84075248Y-83704000I271248J0D01*
G01*
X84834752Y-83704000D01*
G75*
G02*
X85106000Y-83975248I0J-271248D01*
G01*
X85106000Y-84934752D01*
G75*
G02*
X84834752Y-85206000I-271248J0D01*
G01*
X84075248Y-85206000D01*
G75*
G02*
X83804000Y-84934752I0J271248D01*
G01*
G37*
G36*
G01*
X84376000Y-45875248D02*
X84376000Y-46834752D01*
G75*
G02*
X84104752Y-47106000I-271248J0D01*
G01*
X83345248Y-47106000D01*
G75*
G02*
X83074000Y-46834752I0J271248D01*
G01*
X83074000Y-45875248D01*
G75*
G02*
X83345248Y-45604000I271248J0D01*
G01*
X84104752Y-45604000D01*
G75*
G02*
X84376000Y-45875248I0J-271248D01*
G01*
G37*
G36*
G01*
X86376000Y-45875248D02*
X86376000Y-46834752D01*
G75*
G02*
X86104752Y-47106000I-271248J0D01*
G01*
X85345248Y-47106000D01*
G75*
G02*
X85074000Y-46834752I0J271248D01*
G01*
X85074000Y-45875248D01*
G75*
G02*
X85345248Y-45604000I271248J0D01*
G01*
X86104752Y-45604000D01*
G75*
G02*
X86376000Y-45875248I0J-271248D01*
G01*
G37*
G36*
G01*
X83804000Y-79854752D02*
X83804000Y-78895248D01*
G75*
G02*
X84075248Y-78624000I271248J0D01*
G01*
X84834752Y-78624000D01*
G75*
G02*
X85106000Y-78895248I0J-271248D01*
G01*
X85106000Y-79854752D01*
G75*
G02*
X84834752Y-80126000I-271248J0D01*
G01*
X84075248Y-80126000D01*
G75*
G02*
X83804000Y-79854752I0J271248D01*
G01*
G37*
G36*
G01*
X85804000Y-79854752D02*
X85804000Y-78895248D01*
G75*
G02*
X86075248Y-78624000I271248J0D01*
G01*
X86834752Y-78624000D01*
G75*
G02*
X87106000Y-78895248I0J-271248D01*
G01*
X87106000Y-79854752D01*
G75*
G02*
X86834752Y-80126000I-271248J0D01*
G01*
X86075248Y-80126000D01*
G75*
G02*
X85804000Y-79854752I0J271248D01*
G01*
G37*
G36*
G01*
X86376000Y-43335248D02*
X86376000Y-44294752D01*
G75*
G02*
X86104752Y-44566000I-271248J0D01*
G01*
X85345248Y-44566000D01*
G75*
G02*
X85074000Y-44294752I0J271248D01*
G01*
X85074000Y-43335248D01*
G75*
G02*
X85345248Y-43064000I271248J0D01*
G01*
X86104752Y-43064000D01*
G75*
G02*
X86376000Y-43335248I0J-271248D01*
G01*
G37*
G36*
G01*
X84376000Y-43335248D02*
X84376000Y-44294752D01*
G75*
G02*
X84104752Y-44566000I-271248J0D01*
G01*
X83345248Y-44566000D01*
G75*
G02*
X83074000Y-44294752I0J271248D01*
G01*
X83074000Y-43335248D01*
G75*
G02*
X83345248Y-43064000I271248J0D01*
G01*
X84104752Y-43064000D01*
G75*
G02*
X84376000Y-43335248I0J-271248D01*
G01*
G37*
G36*
G01*
X83340248Y-121809000D02*
X84299752Y-121809000D01*
G75*
G02*
X84571000Y-122080248I0J-271248D01*
G01*
X84571000Y-122839752D01*
G75*
G02*
X84299752Y-123111000I-271248J0D01*
G01*
X83340248Y-123111000D01*
G75*
G02*
X83069000Y-122839752I0J271248D01*
G01*
X83069000Y-122080248D01*
G75*
G02*
X83340248Y-121809000I271248J0D01*
G01*
G37*
G36*
G01*
X83340248Y-123809000D02*
X84299752Y-123809000D01*
G75*
G02*
X84571000Y-124080248I0J-271248D01*
G01*
X84571000Y-124839752D01*
G75*
G02*
X84299752Y-125111000I-271248J0D01*
G01*
X83340248Y-125111000D01*
G75*
G02*
X83069000Y-124839752I0J271248D01*
G01*
X83069000Y-124080248D01*
G75*
G02*
X83340248Y-123809000I271248J0D01*
G01*
G37*
G36*
G01*
X92173752Y-52816000D02*
X91214248Y-52816000D01*
G75*
G02*
X90943000Y-52544752I0J271248D01*
G01*
X90943000Y-51785248D01*
G75*
G02*
X91214248Y-51514000I271248J0D01*
G01*
X92173752Y-51514000D01*
G75*
G02*
X92445000Y-51785248I0J-271248D01*
G01*
X92445000Y-52544752D01*
G75*
G02*
X92173752Y-52816000I-271248J0D01*
G01*
G37*
G36*
G01*
X92173752Y-50816000D02*
X91214248Y-50816000D01*
G75*
G02*
X90943000Y-50544752I0J271248D01*
G01*
X90943000Y-49785248D01*
G75*
G02*
X91214248Y-49514000I271248J0D01*
G01*
X92173752Y-49514000D01*
G75*
G02*
X92445000Y-49785248I0J-271248D01*
G01*
X92445000Y-50544752D01*
G75*
G02*
X92173752Y-50816000I-271248J0D01*
G01*
G37*
G36*
G01*
X85804000Y-82394752D02*
X85804000Y-81435248D01*
G75*
G02*
X86075248Y-81164000I271248J0D01*
G01*
X86834752Y-81164000D01*
G75*
G02*
X87106000Y-81435248I0J-271248D01*
G01*
X87106000Y-82394752D01*
G75*
G02*
X86834752Y-82666000I-271248J0D01*
G01*
X86075248Y-82666000D01*
G75*
G02*
X85804000Y-82394752I0J271248D01*
G01*
G37*
G36*
G01*
X83804000Y-82394752D02*
X83804000Y-81435248D01*
G75*
G02*
X84075248Y-81164000I271248J0D01*
G01*
X84834752Y-81164000D01*
G75*
G02*
X85106000Y-81435248I0J-271248D01*
G01*
X85106000Y-82394752D01*
G75*
G02*
X84834752Y-82666000I-271248J0D01*
G01*
X84075248Y-82666000D01*
G75*
G02*
X83804000Y-82394752I0J271248D01*
G01*
G37*
G36*
G01*
X89633752Y-50832000D02*
X88674248Y-50832000D01*
G75*
G02*
X88403000Y-50560752I0J271248D01*
G01*
X88403000Y-49801248D01*
G75*
G02*
X88674248Y-49530000I271248J0D01*
G01*
X89633752Y-49530000D01*
G75*
G02*
X89905000Y-49801248I0J-271248D01*
G01*
X89905000Y-50560752D01*
G75*
G02*
X89633752Y-50832000I-271248J0D01*
G01*
G37*
G36*
G01*
X89633752Y-52832000D02*
X88674248Y-52832000D01*
G75*
G02*
X88403000Y-52560752I0J271248D01*
G01*
X88403000Y-51801248D01*
G75*
G02*
X88674248Y-51530000I271248J0D01*
G01*
X89633752Y-51530000D01*
G75*
G02*
X89905000Y-51801248I0J-271248D01*
G01*
X89905000Y-52560752D01*
G75*
G02*
X89633752Y-52832000I-271248J0D01*
G01*
G37*
G36*
G01*
X106778752Y-55356000D02*
X105819248Y-55356000D01*
G75*
G02*
X105548000Y-55084752I0J271248D01*
G01*
X105548000Y-54325248D01*
G75*
G02*
X105819248Y-54054000I271248J0D01*
G01*
X106778752Y-54054000D01*
G75*
G02*
X107050000Y-54325248I0J-271248D01*
G01*
X107050000Y-55084752D01*
G75*
G02*
X106778752Y-55356000I-271248J0D01*
G01*
G37*
G36*
G01*
X106778752Y-53356000D02*
X105819248Y-53356000D01*
G75*
G02*
X105548000Y-53084752I0J271248D01*
G01*
X105548000Y-52325248D01*
G75*
G02*
X105819248Y-52054000I271248J0D01*
G01*
X106778752Y-52054000D01*
G75*
G02*
X107050000Y-52325248I0J-271248D01*
G01*
X107050000Y-53084752D01*
G75*
G02*
X106778752Y-53356000I-271248J0D01*
G01*
G37*
G36*
G01*
X109318752Y-55356000D02*
X108359248Y-55356000D01*
G75*
G02*
X108088000Y-55084752I0J271248D01*
G01*
X108088000Y-54325248D01*
G75*
G02*
X108359248Y-54054000I271248J0D01*
G01*
X109318752Y-54054000D01*
G75*
G02*
X109590000Y-54325248I0J-271248D01*
G01*
X109590000Y-55084752D01*
G75*
G02*
X109318752Y-55356000I-271248J0D01*
G01*
G37*
G36*
G01*
X109318752Y-53356000D02*
X108359248Y-53356000D01*
G75*
G02*
X108088000Y-53084752I0J271248D01*
G01*
X108088000Y-52325248D01*
G75*
G02*
X108359248Y-52054000I271248J0D01*
G01*
X109318752Y-52054000D01*
G75*
G02*
X109590000Y-52325248I0J-271248D01*
G01*
X109590000Y-53084752D01*
G75*
G02*
X109318752Y-53356000I-271248J0D01*
G01*
G37*
G36*
G01*
X83804000Y-100174752D02*
X83804000Y-99215248D01*
G75*
G02*
X84075248Y-98944000I271248J0D01*
G01*
X84834752Y-98944000D01*
G75*
G02*
X85106000Y-99215248I0J-271248D01*
G01*
X85106000Y-100174752D01*
G75*
G02*
X84834752Y-100446000I-271248J0D01*
G01*
X84075248Y-100446000D01*
G75*
G02*
X83804000Y-100174752I0J271248D01*
G01*
G37*
G36*
G01*
X85804000Y-100174752D02*
X85804000Y-99215248D01*
G75*
G02*
X86075248Y-98944000I271248J0D01*
G01*
X86834752Y-98944000D01*
G75*
G02*
X87106000Y-99215248I0J-271248D01*
G01*
X87106000Y-100174752D01*
G75*
G02*
X86834752Y-100446000I-271248J0D01*
G01*
X86075248Y-100446000D01*
G75*
G02*
X85804000Y-100174752I0J271248D01*
G01*
G37*
G36*
G01*
X85804000Y-92554752D02*
X85804000Y-91595248D01*
G75*
G02*
X86075248Y-91324000I271248J0D01*
G01*
X86834752Y-91324000D01*
G75*
G02*
X87106000Y-91595248I0J-271248D01*
G01*
X87106000Y-92554752D01*
G75*
G02*
X86834752Y-92826000I-271248J0D01*
G01*
X86075248Y-92826000D01*
G75*
G02*
X85804000Y-92554752I0J271248D01*
G01*
G37*
G36*
G01*
X83804000Y-92554752D02*
X83804000Y-91595248D01*
G75*
G02*
X84075248Y-91324000I271248J0D01*
G01*
X84834752Y-91324000D01*
G75*
G02*
X85106000Y-91595248I0J-271248D01*
G01*
X85106000Y-92554752D01*
G75*
G02*
X84834752Y-92826000I-271248J0D01*
G01*
X84075248Y-92826000D01*
G75*
G02*
X83804000Y-92554752I0J271248D01*
G01*
G37*
G36*
G01*
X132096000Y-38890248D02*
X132096000Y-39849752D01*
G75*
G02*
X131824752Y-40121000I-271248J0D01*
G01*
X131065248Y-40121000D01*
G75*
G02*
X130794000Y-39849752I0J271248D01*
G01*
X130794000Y-38890248D01*
G75*
G02*
X131065248Y-38619000I271248J0D01*
G01*
X131824752Y-38619000D01*
G75*
G02*
X132096000Y-38890248I0J-271248D01*
G01*
G37*
G36*
G01*
X130096000Y-38890248D02*
X130096000Y-39849752D01*
G75*
G02*
X129824752Y-40121000I-271248J0D01*
G01*
X129065248Y-40121000D01*
G75*
G02*
X128794000Y-39849752I0J271248D01*
G01*
X128794000Y-38890248D01*
G75*
G02*
X129065248Y-38619000I271248J0D01*
G01*
X129824752Y-38619000D01*
G75*
G02*
X130096000Y-38890248I0J-271248D01*
G01*
G37*
G36*
G01*
X135334000Y-39849752D02*
X135334000Y-38890248D01*
G75*
G02*
X135605248Y-38619000I271248J0D01*
G01*
X136364752Y-38619000D01*
G75*
G02*
X136636000Y-38890248I0J-271248D01*
G01*
X136636000Y-39849752D01*
G75*
G02*
X136364752Y-40121000I-271248J0D01*
G01*
X135605248Y-40121000D01*
G75*
G02*
X135334000Y-39849752I0J271248D01*
G01*
G37*
G36*
G01*
X133334000Y-39849752D02*
X133334000Y-38890248D01*
G75*
G02*
X133605248Y-38619000I271248J0D01*
G01*
X134364752Y-38619000D01*
G75*
G02*
X134636000Y-38890248I0J-271248D01*
G01*
X134636000Y-39849752D01*
G75*
G02*
X134364752Y-40121000I-271248J0D01*
G01*
X133605248Y-40121000D01*
G75*
G02*
X133334000Y-39849752I0J271248D01*
G01*
G37*
G36*
G01*
X83804000Y-87474752D02*
X83804000Y-86515248D01*
G75*
G02*
X84075248Y-86244000I271248J0D01*
G01*
X84834752Y-86244000D01*
G75*
G02*
X85106000Y-86515248I0J-271248D01*
G01*
X85106000Y-87474752D01*
G75*
G02*
X84834752Y-87746000I-271248J0D01*
G01*
X84075248Y-87746000D01*
G75*
G02*
X83804000Y-87474752I0J271248D01*
G01*
G37*
G36*
G01*
X85804000Y-87474752D02*
X85804000Y-86515248D01*
G75*
G02*
X86075248Y-86244000I271248J0D01*
G01*
X86834752Y-86244000D01*
G75*
G02*
X87106000Y-86515248I0J-271248D01*
G01*
X87106000Y-87474752D01*
G75*
G02*
X86834752Y-87746000I-271248J0D01*
G01*
X86075248Y-87746000D01*
G75*
G02*
X85804000Y-87474752I0J271248D01*
G01*
G37*
G36*
G01*
X85804000Y-95094752D02*
X85804000Y-94135248D01*
G75*
G02*
X86075248Y-93864000I271248J0D01*
G01*
X86834752Y-93864000D01*
G75*
G02*
X87106000Y-94135248I0J-271248D01*
G01*
X87106000Y-95094752D01*
G75*
G02*
X86834752Y-95366000I-271248J0D01*
G01*
X86075248Y-95366000D01*
G75*
G02*
X85804000Y-95094752I0J271248D01*
G01*
G37*
G36*
G01*
X83804000Y-95094752D02*
X83804000Y-94135248D01*
G75*
G02*
X84075248Y-93864000I271248J0D01*
G01*
X84834752Y-93864000D01*
G75*
G02*
X85106000Y-94135248I0J-271248D01*
G01*
X85106000Y-95094752D01*
G75*
G02*
X84834752Y-95366000I-271248J0D01*
G01*
X84075248Y-95366000D01*
G75*
G02*
X83804000Y-95094752I0J271248D01*
G01*
G37*
G36*
G01*
X83804000Y-97634752D02*
X83804000Y-96675248D01*
G75*
G02*
X84075248Y-96404000I271248J0D01*
G01*
X84834752Y-96404000D01*
G75*
G02*
X85106000Y-96675248I0J-271248D01*
G01*
X85106000Y-97634752D01*
G75*
G02*
X84834752Y-97906000I-271248J0D01*
G01*
X84075248Y-97906000D01*
G75*
G02*
X83804000Y-97634752I0J271248D01*
G01*
G37*
G36*
G01*
X85804000Y-97634752D02*
X85804000Y-96675248D01*
G75*
G02*
X86075248Y-96404000I271248J0D01*
G01*
X86834752Y-96404000D01*
G75*
G02*
X87106000Y-96675248I0J-271248D01*
G01*
X87106000Y-97634752D01*
G75*
G02*
X86834752Y-97906000I-271248J0D01*
G01*
X86075248Y-97906000D01*
G75*
G02*
X85804000Y-97634752I0J271248D01*
G01*
G37*
G36*
G01*
X83804000Y-77314752D02*
X83804000Y-76355248D01*
G75*
G02*
X84075248Y-76084000I271248J0D01*
G01*
X84834752Y-76084000D01*
G75*
G02*
X85106000Y-76355248I0J-271248D01*
G01*
X85106000Y-77314752D01*
G75*
G02*
X84834752Y-77586000I-271248J0D01*
G01*
X84075248Y-77586000D01*
G75*
G02*
X83804000Y-77314752I0J271248D01*
G01*
G37*
G36*
G01*
X85804000Y-77314752D02*
X85804000Y-76355248D01*
G75*
G02*
X86075248Y-76084000I271248J0D01*
G01*
X86834752Y-76084000D01*
G75*
G02*
X87106000Y-76355248I0J-271248D01*
G01*
X87106000Y-77314752D01*
G75*
G02*
X86834752Y-77586000I-271248J0D01*
G01*
X86075248Y-77586000D01*
G75*
G02*
X85804000Y-77314752I0J271248D01*
G01*
G37*
G36*
G01*
X87106000Y-73815248D02*
X87106000Y-74774752D01*
G75*
G02*
X86834752Y-75046000I-271248J0D01*
G01*
X86075248Y-75046000D01*
G75*
G02*
X85804000Y-74774752I0J271248D01*
G01*
X85804000Y-73815248D01*
G75*
G02*
X86075248Y-73544000I271248J0D01*
G01*
X86834752Y-73544000D01*
G75*
G02*
X87106000Y-73815248I0J-271248D01*
G01*
G37*
G36*
G01*
X85106000Y-73815248D02*
X85106000Y-74774752D01*
G75*
G02*
X84834752Y-75046000I-271248J0D01*
G01*
X84075248Y-75046000D01*
G75*
G02*
X83804000Y-74774752I0J271248D01*
G01*
X83804000Y-73815248D01*
G75*
G02*
X84075248Y-73544000I271248J0D01*
G01*
X84834752Y-73544000D01*
G75*
G02*
X85106000Y-73815248I0J-271248D01*
G01*
G37*
D22*
X93980000Y-83820000D03*
X98860000Y-83820000D03*
X111560000Y-83820000D03*
X106680000Y-83820000D03*
X143510000Y-92510000D03*
X143510000Y-87630000D03*
G36*
G01*
X89771000Y-65535702D02*
X89771000Y-66544298D01*
G75*
G02*
X89499298Y-66816000I-271702J0D01*
G01*
X88765702Y-66816000D01*
G75*
G02*
X88494000Y-66544298I0J271702D01*
G01*
X88494000Y-65535702D01*
G75*
G02*
X88765702Y-65264000I271702J0D01*
G01*
X89499298Y-65264000D01*
G75*
G02*
X89771000Y-65535702I0J-271702D01*
G01*
G37*
G36*
G01*
X91846000Y-65535702D02*
X91846000Y-66544298D01*
G75*
G02*
X91574298Y-66816000I-271702J0D01*
G01*
X90840702Y-66816000D01*
G75*
G02*
X90569000Y-66544298I0J271702D01*
G01*
X90569000Y-65535702D01*
G75*
G02*
X90840702Y-65264000I271702J0D01*
G01*
X91574298Y-65264000D01*
G75*
G02*
X91846000Y-65535702I0J-271702D01*
G01*
G37*
G36*
G01*
X88494000Y-127504298D02*
X88494000Y-126495702D01*
G75*
G02*
X88765702Y-126224000I271702J0D01*
G01*
X89499298Y-126224000D01*
G75*
G02*
X89771000Y-126495702I0J-271702D01*
G01*
X89771000Y-127504298D01*
G75*
G02*
X89499298Y-127776000I-271702J0D01*
G01*
X88765702Y-127776000D01*
G75*
G02*
X88494000Y-127504298I0J271702D01*
G01*
G37*
G36*
G01*
X90569000Y-127504298D02*
X90569000Y-126495702D01*
G75*
G02*
X90840702Y-126224000I271702J0D01*
G01*
X91574298Y-126224000D01*
G75*
G02*
X91846000Y-126495702I0J-271702D01*
G01*
X91846000Y-127504298D01*
G75*
G02*
X91574298Y-127776000I-271702J0D01*
G01*
X90840702Y-127776000D01*
G75*
G02*
X90569000Y-127504298I0J271702D01*
G01*
G37*
D29*
X141605000Y-128670000D03*
D30*
X136605000Y-128670000D03*
X146605000Y-128670000D03*
X141605000Y-133858000D03*
D29*
X156210000Y-128670000D03*
D30*
X151210000Y-128670000D03*
X161210000Y-128670000D03*
X156210000Y-133858000D03*
G36*
G01*
X88494000Y-58924298D02*
X88494000Y-57915702D01*
G75*
G02*
X88765702Y-57644000I271702J0D01*
G01*
X89499298Y-57644000D01*
G75*
G02*
X89771000Y-57915702I0J-271702D01*
G01*
X89771000Y-58924298D01*
G75*
G02*
X89499298Y-59196000I-271702J0D01*
G01*
X88765702Y-59196000D01*
G75*
G02*
X88494000Y-58924298I0J271702D01*
G01*
G37*
G36*
G01*
X90569000Y-58924298D02*
X90569000Y-57915702D01*
G75*
G02*
X90840702Y-57644000I271702J0D01*
G01*
X91574298Y-57644000D01*
G75*
G02*
X91846000Y-57915702I0J-271702D01*
G01*
X91846000Y-58924298D01*
G75*
G02*
X91574298Y-59196000I-271702J0D01*
G01*
X90840702Y-59196000D01*
G75*
G02*
X90569000Y-58924298I0J271702D01*
G01*
G37*
G36*
G01*
X89771000Y-118875702D02*
X89771000Y-119884298D01*
G75*
G02*
X89499298Y-120156000I-271702J0D01*
G01*
X88765702Y-120156000D01*
G75*
G02*
X88494000Y-119884298I0J271702D01*
G01*
X88494000Y-118875702D01*
G75*
G02*
X88765702Y-118604000I271702J0D01*
G01*
X89499298Y-118604000D01*
G75*
G02*
X89771000Y-118875702I0J-271702D01*
G01*
G37*
G36*
G01*
X91846000Y-118875702D02*
X91846000Y-119884298D01*
G75*
G02*
X91574298Y-120156000I-271702J0D01*
G01*
X90840702Y-120156000D01*
G75*
G02*
X90569000Y-119884298I0J271702D01*
G01*
X90569000Y-118875702D01*
G75*
G02*
X90840702Y-118604000I271702J0D01*
G01*
X91574298Y-118604000D01*
G75*
G02*
X91846000Y-118875702I0J-271702D01*
G01*
G37*
G36*
G01*
X164694000Y-119884298D02*
X164694000Y-118875702D01*
G75*
G02*
X164965702Y-118604000I271702J0D01*
G01*
X165699298Y-118604000D01*
G75*
G02*
X165971000Y-118875702I0J-271702D01*
G01*
X165971000Y-119884298D01*
G75*
G02*
X165699298Y-120156000I-271702J0D01*
G01*
X164965702Y-120156000D01*
G75*
G02*
X164694000Y-119884298I0J271702D01*
G01*
G37*
G36*
G01*
X166769000Y-119884298D02*
X166769000Y-118875702D01*
G75*
G02*
X167040702Y-118604000I271702J0D01*
G01*
X167774298Y-118604000D01*
G75*
G02*
X168046000Y-118875702I0J-271702D01*
G01*
X168046000Y-119884298D01*
G75*
G02*
X167774298Y-120156000I-271702J0D01*
G01*
X167040702Y-120156000D01*
G75*
G02*
X166769000Y-119884298I0J271702D01*
G01*
G37*
G36*
G01*
X104778500Y-38611702D02*
X104778500Y-39620298D01*
G75*
G02*
X104506798Y-39892000I-271702J0D01*
G01*
X103773202Y-39892000D01*
G75*
G02*
X103501500Y-39620298I0J271702D01*
G01*
X103501500Y-38611702D01*
G75*
G02*
X103773202Y-38340000I271702J0D01*
G01*
X104506798Y-38340000D01*
G75*
G02*
X104778500Y-38611702I0J-271702D01*
G01*
G37*
G36*
G01*
X102703500Y-38611702D02*
X102703500Y-39620298D01*
G75*
G02*
X102431798Y-39892000I-271702J0D01*
G01*
X101698202Y-39892000D01*
G75*
G02*
X101426500Y-39620298I0J271702D01*
G01*
X101426500Y-38611702D01*
G75*
G02*
X101698202Y-38340000I271702J0D01*
G01*
X102431798Y-38340000D01*
G75*
G02*
X102703500Y-38611702I0J-271702D01*
G01*
G37*
G36*
G01*
X102703500Y-36325702D02*
X102703500Y-37334298D01*
G75*
G02*
X102431798Y-37606000I-271702J0D01*
G01*
X101698202Y-37606000D01*
G75*
G02*
X101426500Y-37334298I0J271702D01*
G01*
X101426500Y-36325702D01*
G75*
G02*
X101698202Y-36054000I271702J0D01*
G01*
X102431798Y-36054000D01*
G75*
G02*
X102703500Y-36325702I0J-271702D01*
G01*
G37*
G36*
G01*
X104778500Y-36325702D02*
X104778500Y-37334298D01*
G75*
G02*
X104506798Y-37606000I-271702J0D01*
G01*
X103773202Y-37606000D01*
G75*
G02*
X103501500Y-37334298I0J271702D01*
G01*
X103501500Y-36325702D01*
G75*
G02*
X103773202Y-36054000I271702J0D01*
G01*
X104506798Y-36054000D01*
G75*
G02*
X104778500Y-36325702I0J-271702D01*
G01*
G37*
M02*
