M48
; DRILL file {KiCad 5.1.10-88a1d61d58~90~ubuntu20.04.1} date Fri Nov  5 20:40:47 2021
; FORMAT={-:-/ absolute / metric / decimal}
; #@! TF.CreationDate,2021-11-05T20:40:47+01:00
; #@! TF.GenerationSoftware,Kicad,Pcbnew,5.1.10-88a1d61d58~90~ubuntu20.04.1
; #@! TF.FileFunction,Plated,1,4,PTH
FMAT,2
METRIC
T1C0.400
T2C0.600
T3C0.700
T4C0.800
T5C0.900
T6C0.920
T7C0.990
T8C1.000
T9C1.200
T10C1.300
T11C1.700
T12C2.300
T13C2.600
T14C3.200
%
G90
G05
T1
X80.772Y-42.164
X80.772Y-53.086
X81.534Y-62.23
X81.534Y-123.19
X83.185Y-71.755
X83.185Y-74.295
X83.185Y-76.835
X83.185Y-79.375
X83.185Y-81.915
X83.185Y-84.455
X83.185Y-86.995
X83.185Y-89.535
X83.185Y-92.075
X83.185Y-94.615
X83.185Y-97.155
X83.185Y-99.695
X83.82Y-42.291
X83.82Y-52.959
X87.376Y-43.815
X87.376Y-46.355
X87.376Y-48.895
X87.376Y-51.435
X88.265Y-71.755
X88.265Y-73.025
X88.265Y-74.295
X88.265Y-76.835
X88.265Y-79.375
X88.265Y-80.645
X88.265Y-81.915
X88.265Y-84.455
X88.265Y-86.995
X88.265Y-89.535
X88.265Y-92.075
X88.265Y-94.615
X88.265Y-97.155
X88.265Y-99.695
X92.329Y-88.392
X93.98Y-67.945
X95.885Y-65.405
X97.155Y-65.405
X98.425Y-66.04
X98.67Y-69.85
X100.711Y-88.392
X100.965Y-69.85
X105.029Y-88.392
X106.172Y-67.31
X107.315Y-65.405
X108.585Y-65.405
X109.855Y-65.405
X110.49Y-69.85
X111.125Y-66.04
X112.395Y-46.355
X112.395Y-69.85
X113.284Y-88.392
X113.665Y-112.395
X116.84Y-85.344
X117.475Y-46.355
X120.65Y-70.485
X120.65Y-73.025
X123.19Y-46.355
X123.19Y-77.47
X123.19Y-81.915
X128.27Y-38.1
X128.27Y-71.12
X131.445Y-45.72
X131.445Y-48.26
X132.08Y-109.22
X132.715Y-86.995
X133.985Y-45.72
X133.985Y-48.26
X133.985Y-86.995
X134.62Y-77.47
X134.62Y-81.915
X135.509Y-119.38
X135.89Y-37.465
X135.89Y-104.775
X135.89Y-108.585
X137.16Y-87.63
X137.16Y-92.71
X143.51Y-109.22
X146.685Y-85.09
X149.225Y-106.172
X149.225Y-113.03
X150.622Y-103.886
X150.622Y-108.458
X150.622Y-110.744
X150.622Y-115.316
X151.668Y-106.172
X151.668Y-113.03
X152.908Y-103.886
X152.908Y-108.458
X152.908Y-110.744
X152.908Y-115.316
X155.575Y-113.03
X160.02Y-78.105
X162.052Y-105.41
X162.052Y-106.934
X162.052Y-108.458
X162.052Y-109.982
X162.052Y-113.03
T2
X102.14Y-51.435
X104.14Y-51.435
T3
X82.042Y-105.918
X82.042Y-115.062
X97.79Y-74.295
X100.076Y-37.592
X100.076Y-40.386
X102.87Y-86.36
X104.14Y-80.645
X108.585Y-69.85
X117.475Y-74.295
X120.65Y-77.47
X125.73Y-45.085
X133.35Y-66.675
X134.62Y-73.025
X137.033Y-70.485
X137.795Y-111.76
X139.065Y-74.549
X147.32Y-66.675
X147.32Y-99.06
X148.59Y-79.375
X149.86Y-46.99
X152.4Y-95.885
X154.305Y-79.375
X156.21Y-83.185
X161.925Y-46.99
X163.703Y-85.979
X163.703Y-88.138
X165.735Y-95.25
T4
X93.98Y-83.82
X98.86Y-83.82
X106.68Y-83.82
X111.56Y-83.82
X114.74Y-42.545
X114.74Y-45.345
X116.84Y-42.545
X119.44Y-42.545
X121.54Y-42.545
X121.54Y-45.345
X143.51Y-87.63
X143.51Y-92.51
X154.305Y-99.06
X154.305Y-101.06
T6
X97.14Y-43.735
X97.14Y-46.355
X99.64Y-43.735
X99.64Y-46.355
X101.64Y-43.735
X101.64Y-46.355
X104.14Y-43.735
X104.14Y-46.355
T7
X81.28Y-60.27
X81.28Y-64.77
X81.28Y-121.23
X81.28Y-125.73
T8
X88.9Y-60.96
X88.9Y-63.5
X88.9Y-121.92
X88.9Y-124.46
X88.9Y-133.985
X91.44Y-60.96
X91.44Y-63.5
X91.44Y-121.92
X91.44Y-124.46
X91.44Y-133.985
X93.98Y-60.96
X93.98Y-63.5
X93.98Y-121.92
X93.98Y-124.46
X93.98Y-133.985
X96.52Y-60.96
X96.52Y-63.5
X96.52Y-121.92
X96.52Y-124.46
X96.52Y-133.985
X99.06Y-60.96
X99.06Y-63.5
X99.06Y-121.92
X99.06Y-124.46
X99.06Y-133.985
X101.6Y-60.96
X101.6Y-63.5
X101.6Y-121.92
X101.6Y-124.46
X101.6Y-133.985
X104.14Y-60.96
X104.14Y-63.5
X104.14Y-121.92
X104.14Y-124.46
X104.14Y-133.985
X106.68Y-60.96
X106.68Y-63.5
X106.68Y-121.92
X106.68Y-124.46
X108.585Y-133.985
X109.22Y-60.96
X109.22Y-63.5
X109.22Y-121.92
X109.22Y-124.46
X109.855Y-95.25
X109.855Y-97.79
X109.855Y-100.33
X109.855Y-102.87
X111.125Y-133.985
X111.76Y-60.96
X111.76Y-63.5
X111.76Y-121.92
X111.76Y-124.46
X112.395Y-95.25
X112.395Y-97.79
X112.395Y-100.33
X112.395Y-102.87
X113.665Y-133.985
X114.3Y-60.96
X114.3Y-63.5
X114.3Y-121.92
X114.3Y-124.46
X114.935Y-95.25
X114.935Y-97.79
X114.935Y-100.33
X114.935Y-102.87
X116.205Y-133.985
X116.84Y-60.96
X116.84Y-63.5
X116.84Y-121.92
X116.84Y-124.46
X117.475Y-95.25
X117.475Y-97.79
X117.475Y-100.33
X117.475Y-102.87
X118.745Y-133.985
X119.38Y-60.96
X119.38Y-63.5
X119.38Y-121.92
X119.38Y-124.46
X120.015Y-95.25
X120.015Y-97.79
X120.015Y-100.33
X120.015Y-102.87
X121.285Y-133.985
X121.92Y-60.96
X121.92Y-63.5
X121.92Y-121.92
X121.92Y-124.46
X122.555Y-95.25
X122.555Y-97.79
X122.555Y-100.33
X122.555Y-102.87
X123.825Y-133.985
X124.46Y-60.96
X124.46Y-63.5
X124.46Y-121.92
X124.46Y-124.46
X125.095Y-95.25
X125.095Y-97.79
X125.095Y-100.33
X125.095Y-102.87
X126.365Y-133.985
X127.0Y-60.96
X127.0Y-63.5
X127.0Y-121.92
X127.0Y-124.46
X127.635Y-95.25
X127.635Y-97.79
X127.635Y-100.33
X127.635Y-102.87
X128.905Y-36.195
X128.905Y-133.985
X129.54Y-60.96
X129.54Y-63.5
X129.54Y-121.92
X129.54Y-124.46
X130.175Y-95.25
X130.175Y-97.79
X130.175Y-100.33
X130.175Y-102.87
X131.445Y-36.195
X131.445Y-133.985
X132.08Y-60.96
X132.08Y-63.5
X132.08Y-121.92
X132.08Y-124.46
X132.715Y-95.25
X132.715Y-97.79
X132.715Y-100.33
X132.715Y-102.87
X133.985Y-36.195
X133.985Y-56.515
X134.62Y-60.96
X134.62Y-63.5
X134.62Y-121.92
X134.62Y-124.46
X137.16Y-60.96
X137.16Y-63.5
X137.16Y-121.92
X137.16Y-124.46
X139.7Y-60.96
X139.7Y-63.5
X139.7Y-121.92
X139.7Y-124.46
X142.24Y-60.96
X142.24Y-63.5
X142.24Y-121.92
X142.24Y-124.46
X143.51Y-36.195
X143.51Y-56.515
X144.78Y-60.96
X144.78Y-63.5
X144.78Y-121.92
X144.78Y-124.46
X146.05Y-36.195
X146.05Y-56.515
X147.32Y-60.96
X147.32Y-63.5
X147.32Y-121.92
X147.32Y-124.46
X148.59Y-36.195
X148.59Y-56.515
X149.86Y-60.96
X149.86Y-63.5
X149.86Y-121.92
X149.86Y-124.46
X151.13Y-36.195
X151.13Y-56.515
X152.4Y-60.96
X152.4Y-63.5
X152.4Y-121.92
X152.4Y-124.46
X153.67Y-36.195
X153.67Y-56.515
X154.94Y-60.96
X154.94Y-63.5
X154.94Y-121.92
X154.94Y-124.46
X156.21Y-36.195
X156.21Y-56.515
X157.48Y-60.96
X157.48Y-63.5
X157.48Y-121.92
X157.48Y-124.46
X160.02Y-60.96
X160.02Y-63.5
X160.02Y-121.92
X160.02Y-124.46
X162.56Y-60.96
X162.56Y-63.5
X162.56Y-121.92
X162.56Y-124.46
X165.1Y-60.96
X165.1Y-63.5
X165.1Y-121.92
X165.1Y-124.46
X167.64Y-60.96
X167.64Y-63.5
X167.64Y-121.92
X167.64Y-124.46
T10
X83.77Y-59.01
X83.77Y-66.02
X83.77Y-119.97
X83.77Y-126.98
T11
X141.605Y-128.67
X156.21Y-128.67
T12
X94.07Y-41.025
X94.07Y-46.705
X107.21Y-41.025
X107.21Y-46.705
T13
X136.605Y-128.67
X141.605Y-133.858
X146.605Y-128.67
X151.21Y-128.67
X156.21Y-133.858
X161.21Y-128.67
T14
X82.55Y-37.465
X82.55Y-132.715
X166.37Y-37.465
X166.37Y-132.715
T2
X168.712Y-86.235G85X168.012Y-86.235
G05
X168.712Y-92.835G85X168.012Y-92.835
G05
T5
X159.08Y-71.36G85X158.68Y-71.36
G05
X160.18Y-75.96G85X159.78Y-75.96
G05
X164.18Y-75.96G85X163.78Y-75.96
G05
X167.18Y-75.96G85X166.78Y-75.96
G05
T8
X111.29Y-40.445G85X111.29Y-38.945
G05
X119.14Y-38.895G85X117.14Y-38.895
G05
X124.99Y-40.445G85X124.99Y-38.945
G05
X159.51Y-102.224G85X161.31Y-102.224
G05
X159.51Y-116.724G85X161.31Y-116.724
G05
X165.97Y-102.224G85X166.77Y-102.224
G05
X165.97Y-116.724G85X166.77Y-116.724
G05
T9
X89.935Y-105.69G85X89.135Y-105.69
G05
X89.935Y-110.49G85X89.135Y-110.49
G05
X89.935Y-115.29G85X89.135Y-115.29
G05
T0
M30
