G04 #@! TF.GenerationSoftware,KiCad,Pcbnew,(5.1.6)-1*
G04 #@! TF.CreationDate,2020-10-25T12:14:20+01:00*
G04 #@! TF.ProjectId,FPGC4IOboard,46504743-3449-44f6-926f-6172642e6b69,rev?*
G04 #@! TF.SameCoordinates,Original*
G04 #@! TF.FileFunction,Copper,L1,Top*
G04 #@! TF.FilePolarity,Positive*
%FSLAX46Y46*%
G04 Gerber Fmt 4.6, Leading zero omitted, Abs format (unit mm)*
G04 Created by KiCad (PCBNEW (5.1.6)-1) date 2020-10-25 12:14:20*
%MOMM*%
%LPD*%
G01*
G04 APERTURE LIST*
G04 #@! TA.AperFunction,NonConductor*
%ADD10C,0.150000*%
G04 #@! TD*
G04 #@! TA.AperFunction,NonConductor*
%ADD11C,1.000000*%
G04 #@! TD*
G04 #@! TA.AperFunction,ComponentPad*
%ADD12R,1.700000X1.700000*%
G04 #@! TD*
G04 #@! TA.AperFunction,ComponentPad*
%ADD13O,1.700000X1.700000*%
G04 #@! TD*
G04 #@! TA.AperFunction,ComponentPad*
%ADD14C,4.000000*%
G04 #@! TD*
G04 #@! TA.AperFunction,SMDPad,CuDef*
%ADD15R,2.000000X0.500000*%
G04 #@! TD*
G04 #@! TA.AperFunction,SMDPad,CuDef*
%ADD16R,1.700000X2.000000*%
G04 #@! TD*
G04 #@! TA.AperFunction,ComponentPad*
%ADD17O,2.000000X1.600000*%
G04 #@! TD*
G04 #@! TA.AperFunction,ComponentPad*
%ADD18C,2.200000*%
G04 #@! TD*
G04 #@! TA.AperFunction,ComponentPad*
%ADD19R,2.200000X2.200000*%
G04 #@! TD*
G04 #@! TA.AperFunction,ComponentPad*
%ADD20R,1.600000X1.600000*%
G04 #@! TD*
G04 #@! TA.AperFunction,ComponentPad*
%ADD21C,1.600000*%
G04 #@! TD*
G04 #@! TA.AperFunction,ComponentPad*
%ADD22R,1.200000X1.200000*%
G04 #@! TD*
G04 #@! TA.AperFunction,ComponentPad*
%ADD23C,1.200000*%
G04 #@! TD*
G04 #@! TA.AperFunction,ComponentPad*
%ADD24O,3.500000X2.000000*%
G04 #@! TD*
G04 #@! TA.AperFunction,ComponentPad*
%ADD25O,2.000000X4.000000*%
G04 #@! TD*
G04 #@! TA.AperFunction,ComponentPad*
%ADD26C,1.500000*%
G04 #@! TD*
G04 #@! TA.AperFunction,ComponentPad*
%ADD27C,3.000000*%
G04 #@! TD*
G04 #@! TA.AperFunction,ComponentPad*
%ADD28R,1.500000X1.500000*%
G04 #@! TD*
G04 #@! TA.AperFunction,SMDPad,CuDef*
%ADD29R,2.440000X1.120000*%
G04 #@! TD*
G04 #@! TA.AperFunction,ComponentPad*
%ADD30C,2.100000*%
G04 #@! TD*
G04 #@! TA.AperFunction,ComponentPad*
%ADD31C,1.750000*%
G04 #@! TD*
G04 #@! TA.AperFunction,ComponentPad*
%ADD32O,3.500000X2.200000*%
G04 #@! TD*
G04 #@! TA.AperFunction,ComponentPad*
%ADD33O,2.500000X1.500000*%
G04 #@! TD*
G04 #@! TA.AperFunction,ComponentPad*
%ADD34R,2.500000X1.500000*%
G04 #@! TD*
G04 #@! TA.AperFunction,SMDPad,CuDef*
%ADD35R,1.750000X0.400000*%
G04 #@! TD*
G04 #@! TA.AperFunction,ViaPad*
%ADD36C,0.800000*%
G04 #@! TD*
G04 #@! TA.AperFunction,ViaPad*
%ADD37C,1.400000*%
G04 #@! TD*
G04 #@! TA.AperFunction,Conductor*
%ADD38C,0.250000*%
G04 #@! TD*
G04 #@! TA.AperFunction,Conductor*
%ADD39C,0.500000*%
G04 #@! TD*
G04 #@! TA.AperFunction,Conductor*
%ADD40C,0.200000*%
G04 #@! TD*
G04 APERTURE END LIST*
D10*
X82605619Y-126849619D02*
X83605619Y-126849619D01*
X83605619Y-127087714D01*
X83558000Y-127230571D01*
X83462761Y-127325809D01*
X83367523Y-127373428D01*
X83177047Y-127421047D01*
X83034190Y-127421047D01*
X82843714Y-127373428D01*
X82748476Y-127325809D01*
X82653238Y-127230571D01*
X82605619Y-127087714D01*
X82605619Y-126849619D01*
X82653238Y-128230571D02*
X82605619Y-128135333D01*
X82605619Y-127944857D01*
X82653238Y-127849619D01*
X82748476Y-127802000D01*
X83129428Y-127802000D01*
X83224666Y-127849619D01*
X83272285Y-127944857D01*
X83272285Y-128135333D01*
X83224666Y-128230571D01*
X83129428Y-128278190D01*
X83034190Y-128278190D01*
X82938952Y-127802000D01*
X82653238Y-128659142D02*
X82605619Y-128754380D01*
X82605619Y-128944857D01*
X82653238Y-129040095D01*
X82748476Y-129087714D01*
X82796095Y-129087714D01*
X82891333Y-129040095D01*
X82938952Y-128944857D01*
X82938952Y-128802000D01*
X82986571Y-128706761D01*
X83081809Y-128659142D01*
X83129428Y-128659142D01*
X83224666Y-128706761D01*
X83272285Y-128802000D01*
X83272285Y-128944857D01*
X83224666Y-129040095D01*
X82605619Y-129516285D02*
X83272285Y-129516285D01*
X83605619Y-129516285D02*
X83558000Y-129468666D01*
X83510380Y-129516285D01*
X83558000Y-129563904D01*
X83605619Y-129516285D01*
X83510380Y-129516285D01*
X83272285Y-130421047D02*
X82462761Y-130421047D01*
X82367523Y-130373428D01*
X82319904Y-130325809D01*
X82272285Y-130230571D01*
X82272285Y-130087714D01*
X82319904Y-129992476D01*
X82653238Y-130421047D02*
X82605619Y-130325809D01*
X82605619Y-130135333D01*
X82653238Y-130040095D01*
X82700857Y-129992476D01*
X82796095Y-129944857D01*
X83081809Y-129944857D01*
X83177047Y-129992476D01*
X83224666Y-130040095D01*
X83272285Y-130135333D01*
X83272285Y-130325809D01*
X83224666Y-130421047D01*
X83272285Y-130897238D02*
X82605619Y-130897238D01*
X83177047Y-130897238D02*
X83224666Y-130944857D01*
X83272285Y-131040095D01*
X83272285Y-131182952D01*
X83224666Y-131278190D01*
X83129428Y-131325809D01*
X82605619Y-131325809D01*
X82605619Y-132563904D02*
X83605619Y-132563904D01*
X83224666Y-132563904D02*
X83272285Y-132659142D01*
X83272285Y-132849619D01*
X83224666Y-132944857D01*
X83177047Y-132992476D01*
X83081809Y-133040095D01*
X82796095Y-133040095D01*
X82700857Y-132992476D01*
X82653238Y-132944857D01*
X82605619Y-132849619D01*
X82605619Y-132659142D01*
X82653238Y-132563904D01*
X83272285Y-133373428D02*
X82605619Y-133611523D01*
X83272285Y-133849619D02*
X82605619Y-133611523D01*
X82367523Y-133516285D01*
X82319904Y-133468666D01*
X82272285Y-133373428D01*
D11*
X85447142Y-137081428D02*
X85209047Y-137795714D01*
X84970952Y-138033809D01*
X84494761Y-138271904D01*
X83780476Y-138271904D01*
X83304285Y-138033809D01*
X83066190Y-137795714D01*
X82828095Y-137319523D01*
X82828095Y-135414761D01*
X87828095Y-135414761D01*
X87828095Y-137081428D01*
X87590000Y-137557619D01*
X87351904Y-137795714D01*
X86875714Y-138033809D01*
X86399523Y-138033809D01*
X85923333Y-137795714D01*
X85685238Y-137557619D01*
X85447142Y-137081428D01*
X85447142Y-135414761D01*
X86161428Y-142557619D02*
X82828095Y-142557619D01*
X88066190Y-141367142D02*
X84494761Y-140176666D01*
X84494761Y-143271904D01*
X82828095Y-148033809D02*
X85209047Y-146367142D01*
X82828095Y-145176666D02*
X87828095Y-145176666D01*
X87828095Y-147081428D01*
X87590000Y-147557619D01*
X87351904Y-147795714D01*
X86875714Y-148033809D01*
X86161428Y-148033809D01*
X85685238Y-147795714D01*
X85447142Y-147557619D01*
X85209047Y-147081428D01*
X85209047Y-145176666D01*
X87828095Y-149462380D02*
X87828095Y-152319523D01*
X82828095Y-150890952D02*
X87828095Y-150890952D01*
D12*
X109220000Y-88900000D03*
D13*
X109220000Y-86360000D03*
X106680000Y-88900000D03*
X106680000Y-86360000D03*
X104140000Y-88900000D03*
X104140000Y-86360000D03*
X101600000Y-88900000D03*
X101600000Y-86360000D03*
X99060000Y-88900000D03*
X99060000Y-86360000D03*
X96520000Y-88900000D03*
X96520000Y-86360000D03*
X93980000Y-88900000D03*
X93980000Y-86360000D03*
X91440000Y-88900000D03*
X91440000Y-86360000D03*
X88900000Y-88900000D03*
X88900000Y-86360000D03*
X86360000Y-88900000D03*
X86360000Y-86360000D03*
D12*
X109220000Y-93980000D03*
D13*
X109220000Y-91440000D03*
X106680000Y-93980000D03*
X106680000Y-91440000D03*
X104140000Y-93980000D03*
X104140000Y-91440000D03*
X101600000Y-93980000D03*
X101600000Y-91440000D03*
X99060000Y-93980000D03*
X99060000Y-91440000D03*
X96520000Y-93980000D03*
X96520000Y-91440000D03*
X93980000Y-93980000D03*
X93980000Y-91440000D03*
X91440000Y-93980000D03*
X91440000Y-91440000D03*
X88900000Y-93980000D03*
X88900000Y-91440000D03*
X86360000Y-93980000D03*
X86360000Y-91440000D03*
D12*
X109220000Y-99060000D03*
D13*
X109220000Y-96520000D03*
X106680000Y-99060000D03*
X106680000Y-96520000D03*
X104140000Y-99060000D03*
X104140000Y-96520000D03*
X101600000Y-99060000D03*
X101600000Y-96520000D03*
X99060000Y-99060000D03*
X99060000Y-96520000D03*
X96520000Y-99060000D03*
X96520000Y-96520000D03*
X93980000Y-99060000D03*
X93980000Y-96520000D03*
X91440000Y-99060000D03*
X91440000Y-96520000D03*
X88900000Y-99060000D03*
X88900000Y-96520000D03*
X86360000Y-99060000D03*
X86360000Y-96520000D03*
D14*
X126748400Y-93472000D03*
D15*
X161638000Y-92278000D03*
X161638000Y-91478000D03*
X161638000Y-90678000D03*
X161638000Y-89878000D03*
X161638000Y-89078000D03*
D16*
X161738000Y-95128000D03*
X167188000Y-95128000D03*
X161738000Y-86228000D03*
X167188000Y-86228000D03*
D17*
X158626000Y-111746000D03*
X159726000Y-116346000D03*
X166726000Y-116346000D03*
X163726000Y-116346000D03*
D18*
X79502000Y-73468000D03*
X79502000Y-69468000D03*
X79502000Y-65468000D03*
X79502000Y-83968000D03*
X79502000Y-79968000D03*
D19*
X79502000Y-61468000D03*
D18*
X79502000Y-87968000D03*
D20*
X160782000Y-74676000D03*
D21*
X158782000Y-74676000D03*
D22*
X83090000Y-62484000D03*
D23*
X85090000Y-62484000D03*
X89186000Y-128778000D03*
D22*
X91186000Y-128778000D03*
D24*
X70396000Y-30488000D03*
X70396000Y-44188000D03*
D20*
X73246000Y-38638000D03*
D21*
X73246000Y-36038000D03*
X73246000Y-40738000D03*
X73246000Y-33938000D03*
X76046000Y-40738000D03*
X76046000Y-33938000D03*
D25*
X69596000Y-37338000D03*
D26*
X88250000Y-34845000D03*
X90750000Y-34845000D03*
X92750000Y-34845000D03*
X95250000Y-34845000D03*
D27*
X85180000Y-32135000D03*
X98320000Y-32135000D03*
D26*
X88250000Y-37465000D03*
X90750000Y-37465000D03*
X92750000Y-37465000D03*
D28*
X95250000Y-37465000D03*
D27*
X98320000Y-37815000D03*
X85180000Y-37815000D03*
D23*
X103600000Y-40640000D03*
D22*
X101600000Y-40640000D03*
D23*
X103600000Y-30480000D03*
D22*
X101600000Y-30480000D03*
D13*
X109220000Y-101600000D03*
X109220000Y-104140000D03*
X106680000Y-101600000D03*
X106680000Y-104140000D03*
X104140000Y-101600000D03*
X104140000Y-104140000D03*
X101600000Y-101600000D03*
X101600000Y-104140000D03*
X99060000Y-101600000D03*
X99060000Y-104140000D03*
X96520000Y-101600000D03*
X96520000Y-104140000D03*
X93980000Y-101600000D03*
X93980000Y-104140000D03*
X91440000Y-101600000D03*
X91440000Y-104140000D03*
X88900000Y-101600000D03*
X88900000Y-104140000D03*
X86360000Y-101600000D03*
D12*
X86360000Y-104140000D03*
X109220000Y-81280000D03*
D13*
X109220000Y-83820000D03*
X106680000Y-81280000D03*
X106680000Y-83820000D03*
X104140000Y-81280000D03*
X104140000Y-83820000D03*
X101600000Y-81280000D03*
X101600000Y-83820000D03*
X99060000Y-81280000D03*
X99060000Y-83820000D03*
X96520000Y-81280000D03*
X96520000Y-83820000D03*
X93980000Y-81280000D03*
X93980000Y-83820000D03*
X91440000Y-81280000D03*
X91440000Y-83820000D03*
X88900000Y-81280000D03*
X88900000Y-83820000D03*
X86360000Y-81280000D03*
X86360000Y-83820000D03*
D20*
X150876000Y-145288000D03*
D21*
X148586000Y-145288000D03*
X146296000Y-145288000D03*
X144006000Y-145288000D03*
X141716000Y-145288000D03*
X152021000Y-147826800D03*
X149731000Y-147826800D03*
X147441000Y-147826800D03*
X145151000Y-147826800D03*
X142861000Y-147826800D03*
X150876000Y-150365600D03*
X148586000Y-150365600D03*
X146296000Y-150365600D03*
X144006000Y-150365600D03*
X141716000Y-150365600D03*
D14*
X134061000Y-147825600D03*
X159061000Y-147825600D03*
D20*
X113030000Y-148336000D03*
D21*
X110260000Y-148336000D03*
X107490000Y-148336000D03*
X104720000Y-148336000D03*
X101950000Y-148336000D03*
X111645000Y-151176000D03*
X108875000Y-151176000D03*
X106105000Y-151176000D03*
X103335000Y-151176000D03*
D14*
X94990000Y-149756000D03*
X119990000Y-149756000D03*
D29*
X76187000Y-108966000D03*
X67577000Y-101346000D03*
X76187000Y-106426000D03*
X67577000Y-103886000D03*
X76187000Y-103886000D03*
X67577000Y-106426000D03*
X76187000Y-101346000D03*
X67577000Y-108966000D03*
D13*
X167640000Y-121920000D03*
X167640000Y-124460000D03*
X165100000Y-121920000D03*
X165100000Y-124460000D03*
X162560000Y-121920000D03*
X162560000Y-124460000D03*
X160020000Y-121920000D03*
X160020000Y-124460000D03*
X157480000Y-121920000D03*
X157480000Y-124460000D03*
X154940000Y-121920000D03*
X154940000Y-124460000D03*
X152400000Y-121920000D03*
X152400000Y-124460000D03*
X149860000Y-121920000D03*
X149860000Y-124460000D03*
X147320000Y-121920000D03*
X147320000Y-124460000D03*
X144780000Y-121920000D03*
X144780000Y-124460000D03*
X142240000Y-121920000D03*
X142240000Y-124460000D03*
X139700000Y-121920000D03*
X139700000Y-124460000D03*
X137160000Y-121920000D03*
X137160000Y-124460000D03*
X134620000Y-121920000D03*
X134620000Y-124460000D03*
X132080000Y-121920000D03*
X132080000Y-124460000D03*
X129540000Y-121920000D03*
X129540000Y-124460000D03*
X127000000Y-121920000D03*
X127000000Y-124460000D03*
X124460000Y-121920000D03*
X124460000Y-124460000D03*
X121920000Y-121920000D03*
X121920000Y-124460000D03*
X119380000Y-121920000D03*
X119380000Y-124460000D03*
X116840000Y-121920000D03*
X116840000Y-124460000D03*
X114300000Y-121920000D03*
X114300000Y-124460000D03*
X111760000Y-121920000D03*
X111760000Y-124460000D03*
X109220000Y-121920000D03*
X109220000Y-124460000D03*
X106680000Y-121920000D03*
X106680000Y-124460000D03*
X104140000Y-121920000D03*
X104140000Y-124460000D03*
X101600000Y-121920000D03*
X101600000Y-124460000D03*
X99060000Y-121920000D03*
X99060000Y-124460000D03*
X96520000Y-121920000D03*
X96520000Y-124460000D03*
X93980000Y-121920000D03*
X93980000Y-124460000D03*
X91440000Y-121920000D03*
X91440000Y-124460000D03*
X88900000Y-121920000D03*
D12*
X88900000Y-124460000D03*
X88900000Y-63500000D03*
D13*
X88900000Y-60960000D03*
X91440000Y-63500000D03*
X91440000Y-60960000D03*
X93980000Y-63500000D03*
X93980000Y-60960000D03*
X96520000Y-63500000D03*
X96520000Y-60960000D03*
X99060000Y-63500000D03*
X99060000Y-60960000D03*
X101600000Y-63500000D03*
X101600000Y-60960000D03*
X104140000Y-63500000D03*
X104140000Y-60960000D03*
X106680000Y-63500000D03*
X106680000Y-60960000D03*
X109220000Y-63500000D03*
X109220000Y-60960000D03*
X111760000Y-63500000D03*
X111760000Y-60960000D03*
X114300000Y-63500000D03*
X114300000Y-60960000D03*
X116840000Y-63500000D03*
X116840000Y-60960000D03*
X119380000Y-63500000D03*
X119380000Y-60960000D03*
X121920000Y-63500000D03*
X121920000Y-60960000D03*
X124460000Y-63500000D03*
X124460000Y-60960000D03*
X127000000Y-63500000D03*
X127000000Y-60960000D03*
X129540000Y-63500000D03*
X129540000Y-60960000D03*
X132080000Y-63500000D03*
X132080000Y-60960000D03*
X134620000Y-63500000D03*
X134620000Y-60960000D03*
X137160000Y-63500000D03*
X137160000Y-60960000D03*
X139700000Y-63500000D03*
X139700000Y-60960000D03*
X142240000Y-63500000D03*
X142240000Y-60960000D03*
X144780000Y-63500000D03*
X144780000Y-60960000D03*
X147320000Y-63500000D03*
X147320000Y-60960000D03*
X149860000Y-63500000D03*
X149860000Y-60960000D03*
X152400000Y-63500000D03*
X152400000Y-60960000D03*
X154940000Y-63500000D03*
X154940000Y-60960000D03*
X157480000Y-63500000D03*
X157480000Y-60960000D03*
X160020000Y-63500000D03*
X160020000Y-60960000D03*
X162560000Y-63500000D03*
X162560000Y-60960000D03*
X165100000Y-63500000D03*
X165100000Y-60960000D03*
X167640000Y-63500000D03*
X167640000Y-60960000D03*
D12*
X142240000Y-53340000D03*
D13*
X151130000Y-53340000D03*
X153670000Y-53340000D03*
X156210000Y-53340000D03*
X158750000Y-53340000D03*
X161290000Y-53340000D03*
D12*
X163830000Y-53340000D03*
X163830000Y-33020000D03*
D13*
X161290000Y-33020000D03*
X158750000Y-33020000D03*
X156210000Y-33020000D03*
X153670000Y-33020000D03*
X151130000Y-33020000D03*
D12*
X107315000Y-24130000D03*
D13*
X109855000Y-24130000D03*
X112395000Y-24130000D03*
X114935000Y-24130000D03*
X117475000Y-24130000D03*
X120015000Y-24130000D03*
X122555000Y-24130000D03*
X125095000Y-24130000D03*
X127635000Y-24130000D03*
X130175000Y-24130000D03*
D12*
X135255000Y-24130000D03*
D13*
X137795000Y-24130000D03*
X140335000Y-24130000D03*
D12*
X145415000Y-24130000D03*
D13*
X147955000Y-24130000D03*
X150495000Y-24130000D03*
X153035000Y-24130000D03*
X155575000Y-24130000D03*
X158115000Y-24130000D03*
X160655000Y-24130000D03*
G04 #@! TA.AperFunction,SMDPad,CuDef*
G36*
G01*
X106000000Y-134089000D02*
X106000000Y-134389000D01*
G75*
G02*
X105850000Y-134539000I-150000J0D01*
G01*
X104550000Y-134539000D01*
G75*
G02*
X104400000Y-134389000I0J150000D01*
G01*
X104400000Y-134089000D01*
G75*
G02*
X104550000Y-133939000I150000J0D01*
G01*
X105850000Y-133939000D01*
G75*
G02*
X106000000Y-134089000I0J-150000D01*
G01*
G37*
G04 #@! TD.AperFunction*
G04 #@! TA.AperFunction,SMDPad,CuDef*
G36*
G01*
X106000000Y-132819000D02*
X106000000Y-133119000D01*
G75*
G02*
X105850000Y-133269000I-150000J0D01*
G01*
X104550000Y-133269000D01*
G75*
G02*
X104400000Y-133119000I0J150000D01*
G01*
X104400000Y-132819000D01*
G75*
G02*
X104550000Y-132669000I150000J0D01*
G01*
X105850000Y-132669000D01*
G75*
G02*
X106000000Y-132819000I0J-150000D01*
G01*
G37*
G04 #@! TD.AperFunction*
G04 #@! TA.AperFunction,SMDPad,CuDef*
G36*
G01*
X106000000Y-131549000D02*
X106000000Y-131849000D01*
G75*
G02*
X105850000Y-131999000I-150000J0D01*
G01*
X104550000Y-131999000D01*
G75*
G02*
X104400000Y-131849000I0J150000D01*
G01*
X104400000Y-131549000D01*
G75*
G02*
X104550000Y-131399000I150000J0D01*
G01*
X105850000Y-131399000D01*
G75*
G02*
X106000000Y-131549000I0J-150000D01*
G01*
G37*
G04 #@! TD.AperFunction*
G04 #@! TA.AperFunction,SMDPad,CuDef*
G36*
G01*
X106000000Y-130279000D02*
X106000000Y-130579000D01*
G75*
G02*
X105850000Y-130729000I-150000J0D01*
G01*
X104550000Y-130729000D01*
G75*
G02*
X104400000Y-130579000I0J150000D01*
G01*
X104400000Y-130279000D01*
G75*
G02*
X104550000Y-130129000I150000J0D01*
G01*
X105850000Y-130129000D01*
G75*
G02*
X106000000Y-130279000I0J-150000D01*
G01*
G37*
G04 #@! TD.AperFunction*
G04 #@! TA.AperFunction,SMDPad,CuDef*
G36*
G01*
X98800000Y-130279000D02*
X98800000Y-130579000D01*
G75*
G02*
X98650000Y-130729000I-150000J0D01*
G01*
X97350000Y-130729000D01*
G75*
G02*
X97200000Y-130579000I0J150000D01*
G01*
X97200000Y-130279000D01*
G75*
G02*
X97350000Y-130129000I150000J0D01*
G01*
X98650000Y-130129000D01*
G75*
G02*
X98800000Y-130279000I0J-150000D01*
G01*
G37*
G04 #@! TD.AperFunction*
G04 #@! TA.AperFunction,SMDPad,CuDef*
G36*
G01*
X98800000Y-131549000D02*
X98800000Y-131849000D01*
G75*
G02*
X98650000Y-131999000I-150000J0D01*
G01*
X97350000Y-131999000D01*
G75*
G02*
X97200000Y-131849000I0J150000D01*
G01*
X97200000Y-131549000D01*
G75*
G02*
X97350000Y-131399000I150000J0D01*
G01*
X98650000Y-131399000D01*
G75*
G02*
X98800000Y-131549000I0J-150000D01*
G01*
G37*
G04 #@! TD.AperFunction*
G04 #@! TA.AperFunction,SMDPad,CuDef*
G36*
G01*
X98800000Y-132819000D02*
X98800000Y-133119000D01*
G75*
G02*
X98650000Y-133269000I-150000J0D01*
G01*
X97350000Y-133269000D01*
G75*
G02*
X97200000Y-133119000I0J150000D01*
G01*
X97200000Y-132819000D01*
G75*
G02*
X97350000Y-132669000I150000J0D01*
G01*
X98650000Y-132669000D01*
G75*
G02*
X98800000Y-132819000I0J-150000D01*
G01*
G37*
G04 #@! TD.AperFunction*
G04 #@! TA.AperFunction,SMDPad,CuDef*
G36*
G01*
X98800000Y-134089000D02*
X98800000Y-134389000D01*
G75*
G02*
X98650000Y-134539000I-150000J0D01*
G01*
X97350000Y-134539000D01*
G75*
G02*
X97200000Y-134389000I0J150000D01*
G01*
X97200000Y-134089000D01*
G75*
G02*
X97350000Y-133939000I150000J0D01*
G01*
X98650000Y-133939000D01*
G75*
G02*
X98800000Y-134089000I0J-150000D01*
G01*
G37*
G04 #@! TD.AperFunction*
G04 #@! TA.AperFunction,SMDPad,CuDef*
G36*
G01*
X126180001Y-147133000D02*
X125279999Y-147133000D01*
G75*
G02*
X125030000Y-146883001I0J249999D01*
G01*
X125030000Y-146232999D01*
G75*
G02*
X125279999Y-145983000I249999J0D01*
G01*
X126180001Y-145983000D01*
G75*
G02*
X126430000Y-146232999I0J-249999D01*
G01*
X126430000Y-146883001D01*
G75*
G02*
X126180001Y-147133000I-249999J0D01*
G01*
G37*
G04 #@! TD.AperFunction*
G04 #@! TA.AperFunction,SMDPad,CuDef*
G36*
G01*
X126180001Y-149183000D02*
X125279999Y-149183000D01*
G75*
G02*
X125030000Y-148933001I0J249999D01*
G01*
X125030000Y-148282999D01*
G75*
G02*
X125279999Y-148033000I249999J0D01*
G01*
X126180001Y-148033000D01*
G75*
G02*
X126430000Y-148282999I0J-249999D01*
G01*
X126430000Y-148933001D01*
G75*
G02*
X126180001Y-149183000I-249999J0D01*
G01*
G37*
G04 #@! TD.AperFunction*
G04 #@! TA.AperFunction,SMDPad,CuDef*
G36*
G01*
X128720001Y-147124000D02*
X127819999Y-147124000D01*
G75*
G02*
X127570000Y-146874001I0J249999D01*
G01*
X127570000Y-146223999D01*
G75*
G02*
X127819999Y-145974000I249999J0D01*
G01*
X128720001Y-145974000D01*
G75*
G02*
X128970000Y-146223999I0J-249999D01*
G01*
X128970000Y-146874001D01*
G75*
G02*
X128720001Y-147124000I-249999J0D01*
G01*
G37*
G04 #@! TD.AperFunction*
G04 #@! TA.AperFunction,SMDPad,CuDef*
G36*
G01*
X128720001Y-149174000D02*
X127819999Y-149174000D01*
G75*
G02*
X127570000Y-148924001I0J249999D01*
G01*
X127570000Y-148273999D01*
G75*
G02*
X127819999Y-148024000I249999J0D01*
G01*
X128720001Y-148024000D01*
G75*
G02*
X128970000Y-148273999I0J-249999D01*
G01*
X128970000Y-148924001D01*
G75*
G02*
X128720001Y-149174000I-249999J0D01*
G01*
G37*
G04 #@! TD.AperFunction*
G04 #@! TA.AperFunction,SMDPad,CuDef*
G36*
G01*
X121327000Y-141928001D02*
X121327000Y-141027999D01*
G75*
G02*
X121576999Y-140778000I249999J0D01*
G01*
X122227001Y-140778000D01*
G75*
G02*
X122477000Y-141027999I0J-249999D01*
G01*
X122477000Y-141928001D01*
G75*
G02*
X122227001Y-142178000I-249999J0D01*
G01*
X121576999Y-142178000D01*
G75*
G02*
X121327000Y-141928001I0J249999D01*
G01*
G37*
G04 #@! TD.AperFunction*
G04 #@! TA.AperFunction,SMDPad,CuDef*
G36*
G01*
X123377000Y-141928001D02*
X123377000Y-141027999D01*
G75*
G02*
X123626999Y-140778000I249999J0D01*
G01*
X124277001Y-140778000D01*
G75*
G02*
X124527000Y-141027999I0J-249999D01*
G01*
X124527000Y-141928001D01*
G75*
G02*
X124277001Y-142178000I-249999J0D01*
G01*
X123626999Y-142178000D01*
G75*
G02*
X123377000Y-141928001I0J249999D01*
G01*
G37*
G04 #@! TD.AperFunction*
G04 #@! TA.AperFunction,SMDPad,CuDef*
G36*
G01*
X117798001Y-132020000D02*
X116897999Y-132020000D01*
G75*
G02*
X116648000Y-131770001I0J249999D01*
G01*
X116648000Y-131119999D01*
G75*
G02*
X116897999Y-130870000I249999J0D01*
G01*
X117798001Y-130870000D01*
G75*
G02*
X118048000Y-131119999I0J-249999D01*
G01*
X118048000Y-131770001D01*
G75*
G02*
X117798001Y-132020000I-249999J0D01*
G01*
G37*
G04 #@! TD.AperFunction*
G04 #@! TA.AperFunction,SMDPad,CuDef*
G36*
G01*
X117798001Y-129970000D02*
X116897999Y-129970000D01*
G75*
G02*
X116648000Y-129720001I0J249999D01*
G01*
X116648000Y-129069999D01*
G75*
G02*
X116897999Y-128820000I249999J0D01*
G01*
X117798001Y-128820000D01*
G75*
G02*
X118048000Y-129069999I0J-249999D01*
G01*
X118048000Y-129720001D01*
G75*
G02*
X117798001Y-129970000I-249999J0D01*
G01*
G37*
G04 #@! TD.AperFunction*
G04 #@! TA.AperFunction,SMDPad,CuDef*
G36*
G01*
X98365000Y-52889999D02*
X98365000Y-53790001D01*
G75*
G02*
X98115001Y-54040000I-249999J0D01*
G01*
X97464999Y-54040000D01*
G75*
G02*
X97215000Y-53790001I0J249999D01*
G01*
X97215000Y-52889999D01*
G75*
G02*
X97464999Y-52640000I249999J0D01*
G01*
X98115001Y-52640000D01*
G75*
G02*
X98365000Y-52889999I0J-249999D01*
G01*
G37*
G04 #@! TD.AperFunction*
G04 #@! TA.AperFunction,SMDPad,CuDef*
G36*
G01*
X96315000Y-52889999D02*
X96315000Y-53790001D01*
G75*
G02*
X96065001Y-54040000I-249999J0D01*
G01*
X95414999Y-54040000D01*
G75*
G02*
X95165000Y-53790001I0J249999D01*
G01*
X95165000Y-52889999D01*
G75*
G02*
X95414999Y-52640000I249999J0D01*
G01*
X96065001Y-52640000D01*
G75*
G02*
X96315000Y-52889999I0J-249999D01*
G01*
G37*
G04 #@! TD.AperFunction*
G04 #@! TA.AperFunction,SMDPad,CuDef*
G36*
G01*
X96315000Y-50603999D02*
X96315000Y-51504001D01*
G75*
G02*
X96065001Y-51754000I-249999J0D01*
G01*
X95414999Y-51754000D01*
G75*
G02*
X95165000Y-51504001I0J249999D01*
G01*
X95165000Y-50603999D01*
G75*
G02*
X95414999Y-50354000I249999J0D01*
G01*
X96065001Y-50354000D01*
G75*
G02*
X96315000Y-50603999I0J-249999D01*
G01*
G37*
G04 #@! TD.AperFunction*
G04 #@! TA.AperFunction,SMDPad,CuDef*
G36*
G01*
X98365000Y-50603999D02*
X98365000Y-51504001D01*
G75*
G02*
X98115001Y-51754000I-249999J0D01*
G01*
X97464999Y-51754000D01*
G75*
G02*
X97215000Y-51504001I0J249999D01*
G01*
X97215000Y-50603999D01*
G75*
G02*
X97464999Y-50354000I249999J0D01*
G01*
X98115001Y-50354000D01*
G75*
G02*
X98365000Y-50603999I0J-249999D01*
G01*
G37*
G04 #@! TD.AperFunction*
G04 #@! TA.AperFunction,SMDPad,CuDef*
G36*
G01*
X104225000Y-33839999D02*
X104225000Y-34740001D01*
G75*
G02*
X103975001Y-34990000I-249999J0D01*
G01*
X103324999Y-34990000D01*
G75*
G02*
X103075000Y-34740001I0J249999D01*
G01*
X103075000Y-33839999D01*
G75*
G02*
X103324999Y-33590000I249999J0D01*
G01*
X103975001Y-33590000D01*
G75*
G02*
X104225000Y-33839999I0J-249999D01*
G01*
G37*
G04 #@! TD.AperFunction*
G04 #@! TA.AperFunction,SMDPad,CuDef*
G36*
G01*
X102175000Y-33839999D02*
X102175000Y-34740001D01*
G75*
G02*
X101925001Y-34990000I-249999J0D01*
G01*
X101274999Y-34990000D01*
G75*
G02*
X101025000Y-34740001I0J249999D01*
G01*
X101025000Y-33839999D01*
G75*
G02*
X101274999Y-33590000I249999J0D01*
G01*
X101925001Y-33590000D01*
G75*
G02*
X102175000Y-33839999I0J-249999D01*
G01*
G37*
G04 #@! TD.AperFunction*
G04 #@! TA.AperFunction,SMDPad,CuDef*
G36*
G01*
X81855000Y-52889999D02*
X81855000Y-53790001D01*
G75*
G02*
X81605001Y-54040000I-249999J0D01*
G01*
X80954999Y-54040000D01*
G75*
G02*
X80705000Y-53790001I0J249999D01*
G01*
X80705000Y-52889999D01*
G75*
G02*
X80954999Y-52640000I249999J0D01*
G01*
X81605001Y-52640000D01*
G75*
G02*
X81855000Y-52889999I0J-249999D01*
G01*
G37*
G04 #@! TD.AperFunction*
G04 #@! TA.AperFunction,SMDPad,CuDef*
G36*
G01*
X79805000Y-52889999D02*
X79805000Y-53790001D01*
G75*
G02*
X79555001Y-54040000I-249999J0D01*
G01*
X78904999Y-54040000D01*
G75*
G02*
X78655000Y-53790001I0J249999D01*
G01*
X78655000Y-52889999D01*
G75*
G02*
X78904999Y-52640000I249999J0D01*
G01*
X79555001Y-52640000D01*
G75*
G02*
X79805000Y-52889999I0J-249999D01*
G01*
G37*
G04 #@! TD.AperFunction*
G04 #@! TA.AperFunction,SMDPad,CuDef*
G36*
G01*
X78655000Y-48964001D02*
X78655000Y-48063999D01*
G75*
G02*
X78904999Y-47814000I249999J0D01*
G01*
X79555001Y-47814000D01*
G75*
G02*
X79805000Y-48063999I0J-249999D01*
G01*
X79805000Y-48964001D01*
G75*
G02*
X79555001Y-49214000I-249999J0D01*
G01*
X78904999Y-49214000D01*
G75*
G02*
X78655000Y-48964001I0J249999D01*
G01*
G37*
G04 #@! TD.AperFunction*
G04 #@! TA.AperFunction,SMDPad,CuDef*
G36*
G01*
X80705000Y-48964001D02*
X80705000Y-48063999D01*
G75*
G02*
X80954999Y-47814000I249999J0D01*
G01*
X81605001Y-47814000D01*
G75*
G02*
X81855000Y-48063999I0J-249999D01*
G01*
X81855000Y-48964001D01*
G75*
G02*
X81605001Y-49214000I-249999J0D01*
G01*
X80954999Y-49214000D01*
G75*
G02*
X80705000Y-48964001I0J249999D01*
G01*
G37*
G04 #@! TD.AperFunction*
G04 #@! TA.AperFunction,SMDPad,CuDef*
G36*
G01*
X103173000Y-47301999D02*
X103173000Y-48202001D01*
G75*
G02*
X102923001Y-48452000I-249999J0D01*
G01*
X102272999Y-48452000D01*
G75*
G02*
X102023000Y-48202001I0J249999D01*
G01*
X102023000Y-47301999D01*
G75*
G02*
X102272999Y-47052000I249999J0D01*
G01*
X102923001Y-47052000D01*
G75*
G02*
X103173000Y-47301999I0J-249999D01*
G01*
G37*
G04 #@! TD.AperFunction*
G04 #@! TA.AperFunction,SMDPad,CuDef*
G36*
G01*
X105223000Y-47301999D02*
X105223000Y-48202001D01*
G75*
G02*
X104973001Y-48452000I-249999J0D01*
G01*
X104322999Y-48452000D01*
G75*
G02*
X104073000Y-48202001I0J249999D01*
G01*
X104073000Y-47301999D01*
G75*
G02*
X104322999Y-47052000I249999J0D01*
G01*
X104973001Y-47052000D01*
G75*
G02*
X105223000Y-47301999I0J-249999D01*
G01*
G37*
G04 #@! TD.AperFunction*
G04 #@! TA.AperFunction,SMDPad,CuDef*
G36*
G01*
X102023000Y-53028001D02*
X102023000Y-52127999D01*
G75*
G02*
X102272999Y-51878000I249999J0D01*
G01*
X102923001Y-51878000D01*
G75*
G02*
X103173000Y-52127999I0J-249999D01*
G01*
X103173000Y-53028001D01*
G75*
G02*
X102923001Y-53278000I-249999J0D01*
G01*
X102272999Y-53278000D01*
G75*
G02*
X102023000Y-53028001I0J249999D01*
G01*
G37*
G04 #@! TD.AperFunction*
G04 #@! TA.AperFunction,SMDPad,CuDef*
G36*
G01*
X104073000Y-53028001D02*
X104073000Y-52127999D01*
G75*
G02*
X104322999Y-51878000I249999J0D01*
G01*
X104973001Y-51878000D01*
G75*
G02*
X105223000Y-52127999I0J-249999D01*
G01*
X105223000Y-53028001D01*
G75*
G02*
X104973001Y-53278000I-249999J0D01*
G01*
X104322999Y-53278000D01*
G75*
G02*
X104073000Y-53028001I0J249999D01*
G01*
G37*
G04 #@! TD.AperFunction*
G04 #@! TA.AperFunction,SMDPad,CuDef*
G36*
G01*
X104225000Y-36379999D02*
X104225000Y-37280001D01*
G75*
G02*
X103975001Y-37530000I-249999J0D01*
G01*
X103324999Y-37530000D01*
G75*
G02*
X103075000Y-37280001I0J249999D01*
G01*
X103075000Y-36379999D01*
G75*
G02*
X103324999Y-36130000I249999J0D01*
G01*
X103975001Y-36130000D01*
G75*
G02*
X104225000Y-36379999I0J-249999D01*
G01*
G37*
G04 #@! TD.AperFunction*
G04 #@! TA.AperFunction,SMDPad,CuDef*
G36*
G01*
X102175000Y-36379999D02*
X102175000Y-37280001D01*
G75*
G02*
X101925001Y-37530000I-249999J0D01*
G01*
X101274999Y-37530000D01*
G75*
G02*
X101025000Y-37280001I0J249999D01*
G01*
X101025000Y-36379999D01*
G75*
G02*
X101274999Y-36130000I249999J0D01*
G01*
X101925001Y-36130000D01*
G75*
G02*
X102175000Y-36379999I0J-249999D01*
G01*
G37*
G04 #@! TD.AperFunction*
G04 #@! TA.AperFunction,SMDPad,CuDef*
G36*
G01*
X162899000Y-141027999D02*
X162899000Y-141928001D01*
G75*
G02*
X162649001Y-142178000I-249999J0D01*
G01*
X161998999Y-142178000D01*
G75*
G02*
X161749000Y-141928001I0J249999D01*
G01*
X161749000Y-141027999D01*
G75*
G02*
X161998999Y-140778000I249999J0D01*
G01*
X162649001Y-140778000D01*
G75*
G02*
X162899000Y-141027999I0J-249999D01*
G01*
G37*
G04 #@! TD.AperFunction*
G04 #@! TA.AperFunction,SMDPad,CuDef*
G36*
G01*
X160849000Y-141027999D02*
X160849000Y-141928001D01*
G75*
G02*
X160599001Y-142178000I-249999J0D01*
G01*
X159948999Y-142178000D01*
G75*
G02*
X159699000Y-141928001I0J249999D01*
G01*
X159699000Y-141027999D01*
G75*
G02*
X159948999Y-140778000I249999J0D01*
G01*
X160599001Y-140778000D01*
G75*
G02*
X160849000Y-141027999I0J-249999D01*
G01*
G37*
G04 #@! TD.AperFunction*
G04 #@! TA.AperFunction,SMDPad,CuDef*
G36*
G01*
X162899000Y-138487999D02*
X162899000Y-139388001D01*
G75*
G02*
X162649001Y-139638000I-249999J0D01*
G01*
X161998999Y-139638000D01*
G75*
G02*
X161749000Y-139388001I0J249999D01*
G01*
X161749000Y-138487999D01*
G75*
G02*
X161998999Y-138238000I249999J0D01*
G01*
X162649001Y-138238000D01*
G75*
G02*
X162899000Y-138487999I0J-249999D01*
G01*
G37*
G04 #@! TD.AperFunction*
G04 #@! TA.AperFunction,SMDPad,CuDef*
G36*
G01*
X160849000Y-138487999D02*
X160849000Y-139388001D01*
G75*
G02*
X160599001Y-139638000I-249999J0D01*
G01*
X159948999Y-139638000D01*
G75*
G02*
X159699000Y-139388001I0J249999D01*
G01*
X159699000Y-138487999D01*
G75*
G02*
X159948999Y-138238000I249999J0D01*
G01*
X160599001Y-138238000D01*
G75*
G02*
X160849000Y-138487999I0J-249999D01*
G01*
G37*
G04 #@! TD.AperFunction*
G04 #@! TA.AperFunction,SMDPad,CuDef*
G36*
G01*
X118814001Y-55711000D02*
X117913999Y-55711000D01*
G75*
G02*
X117664000Y-55461001I0J249999D01*
G01*
X117664000Y-54810999D01*
G75*
G02*
X117913999Y-54561000I249999J0D01*
G01*
X118814001Y-54561000D01*
G75*
G02*
X119064000Y-54810999I0J-249999D01*
G01*
X119064000Y-55461001D01*
G75*
G02*
X118814001Y-55711000I-249999J0D01*
G01*
G37*
G04 #@! TD.AperFunction*
G04 #@! TA.AperFunction,SMDPad,CuDef*
G36*
G01*
X118814001Y-53661000D02*
X117913999Y-53661000D01*
G75*
G02*
X117664000Y-53411001I0J249999D01*
G01*
X117664000Y-52760999D01*
G75*
G02*
X117913999Y-52511000I249999J0D01*
G01*
X118814001Y-52511000D01*
G75*
G02*
X119064000Y-52760999I0J-249999D01*
G01*
X119064000Y-53411001D01*
G75*
G02*
X118814001Y-53661000I-249999J0D01*
G01*
G37*
G04 #@! TD.AperFunction*
G04 #@! TA.AperFunction,SMDPad,CuDef*
G36*
G01*
X116274001Y-53661000D02*
X115373999Y-53661000D01*
G75*
G02*
X115124000Y-53411001I0J249999D01*
G01*
X115124000Y-52760999D01*
G75*
G02*
X115373999Y-52511000I249999J0D01*
G01*
X116274001Y-52511000D01*
G75*
G02*
X116524000Y-52760999I0J-249999D01*
G01*
X116524000Y-53411001D01*
G75*
G02*
X116274001Y-53661000I-249999J0D01*
G01*
G37*
G04 #@! TD.AperFunction*
G04 #@! TA.AperFunction,SMDPad,CuDef*
G36*
G01*
X116274001Y-55711000D02*
X115373999Y-55711000D01*
G75*
G02*
X115124000Y-55461001I0J249999D01*
G01*
X115124000Y-54810999D01*
G75*
G02*
X115373999Y-54561000I249999J0D01*
G01*
X116274001Y-54561000D01*
G75*
G02*
X116524000Y-54810999I0J-249999D01*
G01*
X116524000Y-55461001D01*
G75*
G02*
X116274001Y-55711000I-249999J0D01*
G01*
G37*
G04 #@! TD.AperFunction*
G04 #@! TA.AperFunction,SMDPad,CuDef*
G36*
G01*
X152079000Y-141928001D02*
X152079000Y-141027999D01*
G75*
G02*
X152328999Y-140778000I249999J0D01*
G01*
X152979001Y-140778000D01*
G75*
G02*
X153229000Y-141027999I0J-249999D01*
G01*
X153229000Y-141928001D01*
G75*
G02*
X152979001Y-142178000I-249999J0D01*
G01*
X152328999Y-142178000D01*
G75*
G02*
X152079000Y-141928001I0J249999D01*
G01*
G37*
G04 #@! TD.AperFunction*
G04 #@! TA.AperFunction,SMDPad,CuDef*
G36*
G01*
X150029000Y-141928001D02*
X150029000Y-141027999D01*
G75*
G02*
X150278999Y-140778000I249999J0D01*
G01*
X150929001Y-140778000D01*
G75*
G02*
X151179000Y-141027999I0J-249999D01*
G01*
X151179000Y-141928001D01*
G75*
G02*
X150929001Y-142178000I-249999J0D01*
G01*
X150278999Y-142178000D01*
G75*
G02*
X150029000Y-141928001I0J249999D01*
G01*
G37*
G04 #@! TD.AperFunction*
G04 #@! TA.AperFunction,SMDPad,CuDef*
G36*
G01*
X146754001Y-129970000D02*
X145853999Y-129970000D01*
G75*
G02*
X145604000Y-129720001I0J249999D01*
G01*
X145604000Y-129069999D01*
G75*
G02*
X145853999Y-128820000I249999J0D01*
G01*
X146754001Y-128820000D01*
G75*
G02*
X147004000Y-129069999I0J-249999D01*
G01*
X147004000Y-129720001D01*
G75*
G02*
X146754001Y-129970000I-249999J0D01*
G01*
G37*
G04 #@! TD.AperFunction*
G04 #@! TA.AperFunction,SMDPad,CuDef*
G36*
G01*
X146754001Y-132020000D02*
X145853999Y-132020000D01*
G75*
G02*
X145604000Y-131770001I0J249999D01*
G01*
X145604000Y-131119999D01*
G75*
G02*
X145853999Y-130870000I249999J0D01*
G01*
X146754001Y-130870000D01*
G75*
G02*
X147004000Y-131119999I0J-249999D01*
G01*
X147004000Y-131770001D01*
G75*
G02*
X146754001Y-132020000I-249999J0D01*
G01*
G37*
G04 #@! TD.AperFunction*
G04 #@! TA.AperFunction,SMDPad,CuDef*
G36*
G01*
X92625000Y-134816001D02*
X92625000Y-133915999D01*
G75*
G02*
X92874999Y-133666000I249999J0D01*
G01*
X93525001Y-133666000D01*
G75*
G02*
X93775000Y-133915999I0J-249999D01*
G01*
X93775000Y-134816001D01*
G75*
G02*
X93525001Y-135066000I-249999J0D01*
G01*
X92874999Y-135066000D01*
G75*
G02*
X92625000Y-134816001I0J249999D01*
G01*
G37*
G04 #@! TD.AperFunction*
G04 #@! TA.AperFunction,SMDPad,CuDef*
G36*
G01*
X94675000Y-134816001D02*
X94675000Y-133915999D01*
G75*
G02*
X94924999Y-133666000I249999J0D01*
G01*
X95575001Y-133666000D01*
G75*
G02*
X95825000Y-133915999I0J-249999D01*
G01*
X95825000Y-134816001D01*
G75*
G02*
X95575001Y-135066000I-249999J0D01*
G01*
X94924999Y-135066000D01*
G75*
G02*
X94675000Y-134816001I0J249999D01*
G01*
G37*
G04 #@! TD.AperFunction*
D22*
X143256000Y-107950000D03*
D23*
X145256000Y-107950000D03*
D22*
X143256000Y-113538000D03*
D23*
X145256000Y-113538000D03*
G04 #@! TA.AperFunction,SMDPad,CuDef*
G36*
G01*
X151451000Y-76765999D02*
X151451000Y-77666001D01*
G75*
G02*
X151201001Y-77916000I-249999J0D01*
G01*
X150550999Y-77916000D01*
G75*
G02*
X150301000Y-77666001I0J249999D01*
G01*
X150301000Y-76765999D01*
G75*
G02*
X150550999Y-76516000I249999J0D01*
G01*
X151201001Y-76516000D01*
G75*
G02*
X151451000Y-76765999I0J-249999D01*
G01*
G37*
G04 #@! TD.AperFunction*
G04 #@! TA.AperFunction,SMDPad,CuDef*
G36*
G01*
X153501000Y-76765999D02*
X153501000Y-77666001D01*
G75*
G02*
X153251001Y-77916000I-249999J0D01*
G01*
X152600999Y-77916000D01*
G75*
G02*
X152351000Y-77666001I0J249999D01*
G01*
X152351000Y-76765999D01*
G75*
G02*
X152600999Y-76516000I249999J0D01*
G01*
X153251001Y-76516000D01*
G75*
G02*
X153501000Y-76765999I0J-249999D01*
G01*
G37*
G04 #@! TD.AperFunction*
G04 #@! TA.AperFunction,SMDPad,CuDef*
G36*
G01*
X152351000Y-75126001D02*
X152351000Y-74225999D01*
G75*
G02*
X152600999Y-73976000I249999J0D01*
G01*
X153251001Y-73976000D01*
G75*
G02*
X153501000Y-74225999I0J-249999D01*
G01*
X153501000Y-75126001D01*
G75*
G02*
X153251001Y-75376000I-249999J0D01*
G01*
X152600999Y-75376000D01*
G75*
G02*
X152351000Y-75126001I0J249999D01*
G01*
G37*
G04 #@! TD.AperFunction*
G04 #@! TA.AperFunction,SMDPad,CuDef*
G36*
G01*
X150301000Y-75126001D02*
X150301000Y-74225999D01*
G75*
G02*
X150550999Y-73976000I249999J0D01*
G01*
X151201001Y-73976000D01*
G75*
G02*
X151451000Y-74225999I0J-249999D01*
G01*
X151451000Y-75126001D01*
G75*
G02*
X151201001Y-75376000I-249999J0D01*
G01*
X150550999Y-75376000D01*
G75*
G02*
X150301000Y-75126001I0J249999D01*
G01*
G37*
G04 #@! TD.AperFunction*
G04 #@! TA.AperFunction,SMDPad,CuDef*
G36*
G01*
X134807000Y-74364001D02*
X134807000Y-73463999D01*
G75*
G02*
X135056999Y-73214000I249999J0D01*
G01*
X135707001Y-73214000D01*
G75*
G02*
X135957000Y-73463999I0J-249999D01*
G01*
X135957000Y-74364001D01*
G75*
G02*
X135707001Y-74614000I-249999J0D01*
G01*
X135056999Y-74614000D01*
G75*
G02*
X134807000Y-74364001I0J249999D01*
G01*
G37*
G04 #@! TD.AperFunction*
G04 #@! TA.AperFunction,SMDPad,CuDef*
G36*
G01*
X136857000Y-74364001D02*
X136857000Y-73463999D01*
G75*
G02*
X137106999Y-73214000I249999J0D01*
G01*
X137757001Y-73214000D01*
G75*
G02*
X138007000Y-73463999I0J-249999D01*
G01*
X138007000Y-74364001D01*
G75*
G02*
X137757001Y-74614000I-249999J0D01*
G01*
X137106999Y-74614000D01*
G75*
G02*
X136857000Y-74364001I0J249999D01*
G01*
G37*
G04 #@! TD.AperFunction*
G04 #@! TA.AperFunction,SMDPad,CuDef*
G36*
G01*
X153501000Y-79559999D02*
X153501000Y-80460001D01*
G75*
G02*
X153251001Y-80710000I-249999J0D01*
G01*
X152600999Y-80710000D01*
G75*
G02*
X152351000Y-80460001I0J249999D01*
G01*
X152351000Y-79559999D01*
G75*
G02*
X152600999Y-79310000I249999J0D01*
G01*
X153251001Y-79310000D01*
G75*
G02*
X153501000Y-79559999I0J-249999D01*
G01*
G37*
G04 #@! TD.AperFunction*
G04 #@! TA.AperFunction,SMDPad,CuDef*
G36*
G01*
X151451000Y-79559999D02*
X151451000Y-80460001D01*
G75*
G02*
X151201001Y-80710000I-249999J0D01*
G01*
X150550999Y-80710000D01*
G75*
G02*
X150301000Y-80460001I0J249999D01*
G01*
X150301000Y-79559999D01*
G75*
G02*
X150550999Y-79310000I249999J0D01*
G01*
X151201001Y-79310000D01*
G75*
G02*
X151451000Y-79559999I0J-249999D01*
G01*
G37*
G04 #@! TD.AperFunction*
G04 #@! TA.AperFunction,SMDPad,CuDef*
G36*
G01*
X158157000Y-71316001D02*
X158157000Y-70415999D01*
G75*
G02*
X158406999Y-70166000I249999J0D01*
G01*
X159057001Y-70166000D01*
G75*
G02*
X159307000Y-70415999I0J-249999D01*
G01*
X159307000Y-71316001D01*
G75*
G02*
X159057001Y-71566000I-249999J0D01*
G01*
X158406999Y-71566000D01*
G75*
G02*
X158157000Y-71316001I0J249999D01*
G01*
G37*
G04 #@! TD.AperFunction*
G04 #@! TA.AperFunction,SMDPad,CuDef*
G36*
G01*
X160207000Y-71316001D02*
X160207000Y-70415999D01*
G75*
G02*
X160456999Y-70166000I249999J0D01*
G01*
X161107001Y-70166000D01*
G75*
G02*
X161357000Y-70415999I0J-249999D01*
G01*
X161357000Y-71316001D01*
G75*
G02*
X161107001Y-71566000I-249999J0D01*
G01*
X160456999Y-71566000D01*
G75*
G02*
X160207000Y-71316001I0J249999D01*
G01*
G37*
G04 #@! TD.AperFunction*
G04 #@! TA.AperFunction,SMDPad,CuDef*
G36*
G01*
X69801000Y-138880001D02*
X69801000Y-137979999D01*
G75*
G02*
X70050999Y-137730000I249999J0D01*
G01*
X70701001Y-137730000D01*
G75*
G02*
X70951000Y-137979999I0J-249999D01*
G01*
X70951000Y-138880001D01*
G75*
G02*
X70701001Y-139130000I-249999J0D01*
G01*
X70050999Y-139130000D01*
G75*
G02*
X69801000Y-138880001I0J249999D01*
G01*
G37*
G04 #@! TD.AperFunction*
G04 #@! TA.AperFunction,SMDPad,CuDef*
G36*
G01*
X67751000Y-138880001D02*
X67751000Y-137979999D01*
G75*
G02*
X68000999Y-137730000I249999J0D01*
G01*
X68651001Y-137730000D01*
G75*
G02*
X68901000Y-137979999I0J-249999D01*
G01*
X68901000Y-138880001D01*
G75*
G02*
X68651001Y-139130000I-249999J0D01*
G01*
X68000999Y-139130000D01*
G75*
G02*
X67751000Y-138880001I0J249999D01*
G01*
G37*
G04 #@! TD.AperFunction*
G04 #@! TA.AperFunction,SMDPad,CuDef*
G36*
G01*
X67751000Y-141420001D02*
X67751000Y-140519999D01*
G75*
G02*
X68000999Y-140270000I249999J0D01*
G01*
X68651001Y-140270000D01*
G75*
G02*
X68901000Y-140519999I0J-249999D01*
G01*
X68901000Y-141420001D01*
G75*
G02*
X68651001Y-141670000I-249999J0D01*
G01*
X68000999Y-141670000D01*
G75*
G02*
X67751000Y-141420001I0J249999D01*
G01*
G37*
G04 #@! TD.AperFunction*
G04 #@! TA.AperFunction,SMDPad,CuDef*
G36*
G01*
X69801000Y-141420001D02*
X69801000Y-140519999D01*
G75*
G02*
X70050999Y-140270000I249999J0D01*
G01*
X70701001Y-140270000D01*
G75*
G02*
X70951000Y-140519999I0J-249999D01*
G01*
X70951000Y-141420001D01*
G75*
G02*
X70701001Y-141670000I-249999J0D01*
G01*
X70050999Y-141670000D01*
G75*
G02*
X69801000Y-141420001I0J249999D01*
G01*
G37*
G04 #@! TD.AperFunction*
G04 #@! TA.AperFunction,SMDPad,CuDef*
G36*
G01*
X69783000Y-147262001D02*
X69783000Y-146361999D01*
G75*
G02*
X70032999Y-146112000I249999J0D01*
G01*
X70683001Y-146112000D01*
G75*
G02*
X70933000Y-146361999I0J-249999D01*
G01*
X70933000Y-147262001D01*
G75*
G02*
X70683001Y-147512000I-249999J0D01*
G01*
X70032999Y-147512000D01*
G75*
G02*
X69783000Y-147262001I0J249999D01*
G01*
G37*
G04 #@! TD.AperFunction*
G04 #@! TA.AperFunction,SMDPad,CuDef*
G36*
G01*
X67733000Y-147262001D02*
X67733000Y-146361999D01*
G75*
G02*
X67982999Y-146112000I249999J0D01*
G01*
X68633001Y-146112000D01*
G75*
G02*
X68883000Y-146361999I0J-249999D01*
G01*
X68883000Y-147262001D01*
G75*
G02*
X68633001Y-147512000I-249999J0D01*
G01*
X67982999Y-147512000D01*
G75*
G02*
X67733000Y-147262001I0J249999D01*
G01*
G37*
G04 #@! TD.AperFunction*
G04 #@! TA.AperFunction,SMDPad,CuDef*
G36*
G01*
X67733000Y-149802001D02*
X67733000Y-148901999D01*
G75*
G02*
X67982999Y-148652000I249999J0D01*
G01*
X68633001Y-148652000D01*
G75*
G02*
X68883000Y-148901999I0J-249999D01*
G01*
X68883000Y-149802001D01*
G75*
G02*
X68633001Y-150052000I-249999J0D01*
G01*
X67982999Y-150052000D01*
G75*
G02*
X67733000Y-149802001I0J249999D01*
G01*
G37*
G04 #@! TD.AperFunction*
G04 #@! TA.AperFunction,SMDPad,CuDef*
G36*
G01*
X69783000Y-149802001D02*
X69783000Y-148901999D01*
G75*
G02*
X70032999Y-148652000I249999J0D01*
G01*
X70683001Y-148652000D01*
G75*
G02*
X70933000Y-148901999I0J-249999D01*
G01*
X70933000Y-149802001D01*
G75*
G02*
X70683001Y-150052000I-249999J0D01*
G01*
X70032999Y-150052000D01*
G75*
G02*
X69783000Y-149802001I0J249999D01*
G01*
G37*
G04 #@! TD.AperFunction*
G04 #@! TA.AperFunction,SMDPad,CuDef*
G36*
G01*
X162479000Y-69268000D02*
X162479000Y-66368000D01*
G75*
G02*
X162729000Y-66118000I250000J0D01*
G01*
X163529000Y-66118000D01*
G75*
G02*
X163779000Y-66368000I0J-250000D01*
G01*
X163779000Y-69268000D01*
G75*
G02*
X163529000Y-69518000I-250000J0D01*
G01*
X162729000Y-69518000D01*
G75*
G02*
X162479000Y-69268000I0J250000D01*
G01*
G37*
G04 #@! TD.AperFunction*
G04 #@! TA.AperFunction,SMDPad,CuDef*
G36*
G01*
X166929000Y-69268000D02*
X166929000Y-66368000D01*
G75*
G02*
X167179000Y-66118000I250000J0D01*
G01*
X167979000Y-66118000D01*
G75*
G02*
X168229000Y-66368000I0J-250000D01*
G01*
X168229000Y-69268000D01*
G75*
G02*
X167979000Y-69518000I-250000J0D01*
G01*
X167179000Y-69518000D01*
G75*
G02*
X166929000Y-69268000I0J250000D01*
G01*
G37*
G04 #@! TD.AperFunction*
G04 #@! TA.AperFunction,SMDPad,CuDef*
G36*
G01*
X78797999Y-108382000D02*
X79698001Y-108382000D01*
G75*
G02*
X79948000Y-108631999I0J-249999D01*
G01*
X79948000Y-109282001D01*
G75*
G02*
X79698001Y-109532000I-249999J0D01*
G01*
X78797999Y-109532000D01*
G75*
G02*
X78548000Y-109282001I0J249999D01*
G01*
X78548000Y-108631999D01*
G75*
G02*
X78797999Y-108382000I249999J0D01*
G01*
G37*
G04 #@! TD.AperFunction*
G04 #@! TA.AperFunction,SMDPad,CuDef*
G36*
G01*
X78797999Y-110432000D02*
X79698001Y-110432000D01*
G75*
G02*
X79948000Y-110681999I0J-249999D01*
G01*
X79948000Y-111332001D01*
G75*
G02*
X79698001Y-111582000I-249999J0D01*
G01*
X78797999Y-111582000D01*
G75*
G02*
X78548000Y-111332001I0J249999D01*
G01*
X78548000Y-110681999D01*
G75*
G02*
X78797999Y-110432000I249999J0D01*
G01*
G37*
G04 #@! TD.AperFunction*
G04 #@! TA.AperFunction,SMDPad,CuDef*
G36*
G01*
X73463999Y-117789000D02*
X74364001Y-117789000D01*
G75*
G02*
X74614000Y-118038999I0J-249999D01*
G01*
X74614000Y-118689001D01*
G75*
G02*
X74364001Y-118939000I-249999J0D01*
G01*
X73463999Y-118939000D01*
G75*
G02*
X73214000Y-118689001I0J249999D01*
G01*
X73214000Y-118038999D01*
G75*
G02*
X73463999Y-117789000I249999J0D01*
G01*
G37*
G04 #@! TD.AperFunction*
G04 #@! TA.AperFunction,SMDPad,CuDef*
G36*
G01*
X73463999Y-119839000D02*
X74364001Y-119839000D01*
G75*
G02*
X74614000Y-120088999I0J-249999D01*
G01*
X74614000Y-120739001D01*
G75*
G02*
X74364001Y-120989000I-249999J0D01*
G01*
X73463999Y-120989000D01*
G75*
G02*
X73214000Y-120739001I0J249999D01*
G01*
X73214000Y-120088999D01*
G75*
G02*
X73463999Y-119839000I249999J0D01*
G01*
G37*
G04 #@! TD.AperFunction*
G04 #@! TA.AperFunction,SMDPad,CuDef*
G36*
G01*
X80723000Y-106876001D02*
X80723000Y-105975999D01*
G75*
G02*
X80972999Y-105726000I249999J0D01*
G01*
X81623001Y-105726000D01*
G75*
G02*
X81873000Y-105975999I0J-249999D01*
G01*
X81873000Y-106876001D01*
G75*
G02*
X81623001Y-107126000I-249999J0D01*
G01*
X80972999Y-107126000D01*
G75*
G02*
X80723000Y-106876001I0J249999D01*
G01*
G37*
G04 #@! TD.AperFunction*
G04 #@! TA.AperFunction,SMDPad,CuDef*
G36*
G01*
X78673000Y-106876001D02*
X78673000Y-105975999D01*
G75*
G02*
X78922999Y-105726000I249999J0D01*
G01*
X79573001Y-105726000D01*
G75*
G02*
X79823000Y-105975999I0J-249999D01*
G01*
X79823000Y-106876001D01*
G75*
G02*
X79573001Y-107126000I-249999J0D01*
G01*
X78922999Y-107126000D01*
G75*
G02*
X78673000Y-106876001I0J249999D01*
G01*
G37*
G04 #@! TD.AperFunction*
G04 #@! TA.AperFunction,SMDPad,CuDef*
G36*
G01*
X113961000Y-136594001D02*
X113961000Y-135693999D01*
G75*
G02*
X114210999Y-135444000I249999J0D01*
G01*
X114861001Y-135444000D01*
G75*
G02*
X115111000Y-135693999I0J-249999D01*
G01*
X115111000Y-136594001D01*
G75*
G02*
X114861001Y-136844000I-249999J0D01*
G01*
X114210999Y-136844000D01*
G75*
G02*
X113961000Y-136594001I0J249999D01*
G01*
G37*
G04 #@! TD.AperFunction*
G04 #@! TA.AperFunction,SMDPad,CuDef*
G36*
G01*
X116011000Y-136594001D02*
X116011000Y-135693999D01*
G75*
G02*
X116260999Y-135444000I249999J0D01*
G01*
X116911001Y-135444000D01*
G75*
G02*
X117161000Y-135693999I0J-249999D01*
G01*
X117161000Y-136594001D01*
G75*
G02*
X116911001Y-136844000I-249999J0D01*
G01*
X116260999Y-136844000D01*
G75*
G02*
X116011000Y-136594001I0J249999D01*
G01*
G37*
G04 #@! TD.AperFunction*
G04 #@! TA.AperFunction,SMDPad,CuDef*
G36*
G01*
X132757000Y-141420001D02*
X132757000Y-140519999D01*
G75*
G02*
X133006999Y-140270000I249999J0D01*
G01*
X133657001Y-140270000D01*
G75*
G02*
X133907000Y-140519999I0J-249999D01*
G01*
X133907000Y-141420001D01*
G75*
G02*
X133657001Y-141670000I-249999J0D01*
G01*
X133006999Y-141670000D01*
G75*
G02*
X132757000Y-141420001I0J249999D01*
G01*
G37*
G04 #@! TD.AperFunction*
G04 #@! TA.AperFunction,SMDPad,CuDef*
G36*
G01*
X134807000Y-141420001D02*
X134807000Y-140519999D01*
G75*
G02*
X135056999Y-140270000I249999J0D01*
G01*
X135707001Y-140270000D01*
G75*
G02*
X135957000Y-140519999I0J-249999D01*
G01*
X135957000Y-141420001D01*
G75*
G02*
X135707001Y-141670000I-249999J0D01*
G01*
X135056999Y-141670000D01*
G75*
G02*
X134807000Y-141420001I0J249999D01*
G01*
G37*
G04 #@! TD.AperFunction*
G04 #@! TA.AperFunction,SMDPad,CuDef*
G36*
G01*
X133916000Y-137979999D02*
X133916000Y-138880001D01*
G75*
G02*
X133666001Y-139130000I-249999J0D01*
G01*
X133015999Y-139130000D01*
G75*
G02*
X132766000Y-138880001I0J249999D01*
G01*
X132766000Y-137979999D01*
G75*
G02*
X133015999Y-137730000I249999J0D01*
G01*
X133666001Y-137730000D01*
G75*
G02*
X133916000Y-137979999I0J-249999D01*
G01*
G37*
G04 #@! TD.AperFunction*
G04 #@! TA.AperFunction,SMDPad,CuDef*
G36*
G01*
X135966000Y-137979999D02*
X135966000Y-138880001D01*
G75*
G02*
X135716001Y-139130000I-249999J0D01*
G01*
X135065999Y-139130000D01*
G75*
G02*
X134816000Y-138880001I0J249999D01*
G01*
X134816000Y-137979999D01*
G75*
G02*
X135065999Y-137730000I249999J0D01*
G01*
X135716001Y-137730000D01*
G75*
G02*
X135966000Y-137979999I0J-249999D01*
G01*
G37*
G04 #@! TD.AperFunction*
G04 #@! TA.AperFunction,SMDPad,CuDef*
G36*
G01*
X78673000Y-104336001D02*
X78673000Y-103435999D01*
G75*
G02*
X78922999Y-103186000I249999J0D01*
G01*
X79573001Y-103186000D01*
G75*
G02*
X79823000Y-103435999I0J-249999D01*
G01*
X79823000Y-104336001D01*
G75*
G02*
X79573001Y-104586000I-249999J0D01*
G01*
X78922999Y-104586000D01*
G75*
G02*
X78673000Y-104336001I0J249999D01*
G01*
G37*
G04 #@! TD.AperFunction*
G04 #@! TA.AperFunction,SMDPad,CuDef*
G36*
G01*
X80723000Y-104336001D02*
X80723000Y-103435999D01*
G75*
G02*
X80972999Y-103186000I249999J0D01*
G01*
X81623001Y-103186000D01*
G75*
G02*
X81873000Y-103435999I0J-249999D01*
G01*
X81873000Y-104336001D01*
G75*
G02*
X81623001Y-104586000I-249999J0D01*
G01*
X80972999Y-104586000D01*
G75*
G02*
X80723000Y-104336001I0J249999D01*
G01*
G37*
G04 #@! TD.AperFunction*
G04 #@! TA.AperFunction,SMDPad,CuDef*
G36*
G01*
X128609000Y-154997999D02*
X128609000Y-155898001D01*
G75*
G02*
X128359001Y-156148000I-249999J0D01*
G01*
X127708999Y-156148000D01*
G75*
G02*
X127459000Y-155898001I0J249999D01*
G01*
X127459000Y-154997999D01*
G75*
G02*
X127708999Y-154748000I249999J0D01*
G01*
X128359001Y-154748000D01*
G75*
G02*
X128609000Y-154997999I0J-249999D01*
G01*
G37*
G04 #@! TD.AperFunction*
G04 #@! TA.AperFunction,SMDPad,CuDef*
G36*
G01*
X126559000Y-154997999D02*
X126559000Y-155898001D01*
G75*
G02*
X126309001Y-156148000I-249999J0D01*
G01*
X125658999Y-156148000D01*
G75*
G02*
X125409000Y-155898001I0J249999D01*
G01*
X125409000Y-154997999D01*
G75*
G02*
X125658999Y-154748000I249999J0D01*
G01*
X126309001Y-154748000D01*
G75*
G02*
X126559000Y-154997999I0J-249999D01*
G01*
G37*
G04 #@! TD.AperFunction*
G04 #@! TA.AperFunction,SMDPad,CuDef*
G36*
G01*
X79698001Y-99871000D02*
X78797999Y-99871000D01*
G75*
G02*
X78548000Y-99621001I0J249999D01*
G01*
X78548000Y-98970999D01*
G75*
G02*
X78797999Y-98721000I249999J0D01*
G01*
X79698001Y-98721000D01*
G75*
G02*
X79948000Y-98970999I0J-249999D01*
G01*
X79948000Y-99621001D01*
G75*
G02*
X79698001Y-99871000I-249999J0D01*
G01*
G37*
G04 #@! TD.AperFunction*
G04 #@! TA.AperFunction,SMDPad,CuDef*
G36*
G01*
X79698001Y-101921000D02*
X78797999Y-101921000D01*
G75*
G02*
X78548000Y-101671001I0J249999D01*
G01*
X78548000Y-101020999D01*
G75*
G02*
X78797999Y-100771000I249999J0D01*
G01*
X79698001Y-100771000D01*
G75*
G02*
X79948000Y-101020999I0J-249999D01*
G01*
X79948000Y-101671001D01*
G75*
G02*
X79698001Y-101921000I-249999J0D01*
G01*
G37*
G04 #@! TD.AperFunction*
G04 #@! TA.AperFunction,SMDPad,CuDef*
G36*
G01*
X73463999Y-131251000D02*
X74364001Y-131251000D01*
G75*
G02*
X74614000Y-131500999I0J-249999D01*
G01*
X74614000Y-132151001D01*
G75*
G02*
X74364001Y-132401000I-249999J0D01*
G01*
X73463999Y-132401000D01*
G75*
G02*
X73214000Y-132151001I0J249999D01*
G01*
X73214000Y-131500999D01*
G75*
G02*
X73463999Y-131251000I249999J0D01*
G01*
G37*
G04 #@! TD.AperFunction*
G04 #@! TA.AperFunction,SMDPad,CuDef*
G36*
G01*
X73463999Y-129201000D02*
X74364001Y-129201000D01*
G75*
G02*
X74614000Y-129450999I0J-249999D01*
G01*
X74614000Y-130101001D01*
G75*
G02*
X74364001Y-130351000I-249999J0D01*
G01*
X73463999Y-130351000D01*
G75*
G02*
X73214000Y-130101001I0J249999D01*
G01*
X73214000Y-129450999D01*
G75*
G02*
X73463999Y-129201000I249999J0D01*
G01*
G37*
G04 #@! TD.AperFunction*
G04 #@! TA.AperFunction,SMDPad,CuDef*
G36*
G01*
X91017000Y-40443999D02*
X91017000Y-41344001D01*
G75*
G02*
X90767001Y-41594000I-249999J0D01*
G01*
X90116999Y-41594000D01*
G75*
G02*
X89867000Y-41344001I0J249999D01*
G01*
X89867000Y-40443999D01*
G75*
G02*
X90116999Y-40194000I249999J0D01*
G01*
X90767001Y-40194000D01*
G75*
G02*
X91017000Y-40443999I0J-249999D01*
G01*
G37*
G04 #@! TD.AperFunction*
G04 #@! TA.AperFunction,SMDPad,CuDef*
G36*
G01*
X88967000Y-40443999D02*
X88967000Y-41344001D01*
G75*
G02*
X88717001Y-41594000I-249999J0D01*
G01*
X88066999Y-41594000D01*
G75*
G02*
X87817000Y-41344001I0J249999D01*
G01*
X87817000Y-40443999D01*
G75*
G02*
X88066999Y-40194000I249999J0D01*
G01*
X88717001Y-40194000D01*
G75*
G02*
X88967000Y-40443999I0J-249999D01*
G01*
G37*
G04 #@! TD.AperFunction*
G04 #@! TA.AperFunction,SMDPad,CuDef*
G36*
G01*
X140150001Y-130115000D02*
X139249999Y-130115000D01*
G75*
G02*
X139000000Y-129865001I0J249999D01*
G01*
X139000000Y-129214999D01*
G75*
G02*
X139249999Y-128965000I249999J0D01*
G01*
X140150001Y-128965000D01*
G75*
G02*
X140400000Y-129214999I0J-249999D01*
G01*
X140400000Y-129865001D01*
G75*
G02*
X140150001Y-130115000I-249999J0D01*
G01*
G37*
G04 #@! TD.AperFunction*
G04 #@! TA.AperFunction,SMDPad,CuDef*
G36*
G01*
X140150001Y-132165000D02*
X139249999Y-132165000D01*
G75*
G02*
X139000000Y-131915001I0J249999D01*
G01*
X139000000Y-131264999D01*
G75*
G02*
X139249999Y-131015000I249999J0D01*
G01*
X140150001Y-131015000D01*
G75*
G02*
X140400000Y-131264999I0J-249999D01*
G01*
X140400000Y-131915001D01*
G75*
G02*
X140150001Y-132165000I-249999J0D01*
G01*
G37*
G04 #@! TD.AperFunction*
G04 #@! TA.AperFunction,SMDPad,CuDef*
G36*
G01*
X83508001Y-43392000D02*
X82607999Y-43392000D01*
G75*
G02*
X82358000Y-43142001I0J249999D01*
G01*
X82358000Y-42491999D01*
G75*
G02*
X82607999Y-42242000I249999J0D01*
G01*
X83508001Y-42242000D01*
G75*
G02*
X83758000Y-42491999I0J-249999D01*
G01*
X83758000Y-43142001D01*
G75*
G02*
X83508001Y-43392000I-249999J0D01*
G01*
G37*
G04 #@! TD.AperFunction*
G04 #@! TA.AperFunction,SMDPad,CuDef*
G36*
G01*
X83508001Y-41342000D02*
X82607999Y-41342000D01*
G75*
G02*
X82358000Y-41092001I0J249999D01*
G01*
X82358000Y-40441999D01*
G75*
G02*
X82607999Y-40192000I249999J0D01*
G01*
X83508001Y-40192000D01*
G75*
G02*
X83758000Y-40441999I0J-249999D01*
G01*
X83758000Y-41092001D01*
G75*
G02*
X83508001Y-41342000I-249999J0D01*
G01*
G37*
G04 #@! TD.AperFunction*
G04 #@! TA.AperFunction,SMDPad,CuDef*
G36*
G01*
X137610001Y-130115000D02*
X136709999Y-130115000D01*
G75*
G02*
X136460000Y-129865001I0J249999D01*
G01*
X136460000Y-129214999D01*
G75*
G02*
X136709999Y-128965000I249999J0D01*
G01*
X137610001Y-128965000D01*
G75*
G02*
X137860000Y-129214999I0J-249999D01*
G01*
X137860000Y-129865001D01*
G75*
G02*
X137610001Y-130115000I-249999J0D01*
G01*
G37*
G04 #@! TD.AperFunction*
G04 #@! TA.AperFunction,SMDPad,CuDef*
G36*
G01*
X137610001Y-132165000D02*
X136709999Y-132165000D01*
G75*
G02*
X136460000Y-131915001I0J249999D01*
G01*
X136460000Y-131264999D01*
G75*
G02*
X136709999Y-131015000I249999J0D01*
G01*
X137610001Y-131015000D01*
G75*
G02*
X137860000Y-131264999I0J-249999D01*
G01*
X137860000Y-131915001D01*
G75*
G02*
X137610001Y-132165000I-249999J0D01*
G01*
G37*
G04 #@! TD.AperFunction*
G04 #@! TA.AperFunction,SMDPad,CuDef*
G36*
G01*
X80968001Y-43392000D02*
X80067999Y-43392000D01*
G75*
G02*
X79818000Y-43142001I0J249999D01*
G01*
X79818000Y-42491999D01*
G75*
G02*
X80067999Y-42242000I249999J0D01*
G01*
X80968001Y-42242000D01*
G75*
G02*
X81218000Y-42491999I0J-249999D01*
G01*
X81218000Y-43142001D01*
G75*
G02*
X80968001Y-43392000I-249999J0D01*
G01*
G37*
G04 #@! TD.AperFunction*
G04 #@! TA.AperFunction,SMDPad,CuDef*
G36*
G01*
X80968001Y-41342000D02*
X80067999Y-41342000D01*
G75*
G02*
X79818000Y-41092001I0J249999D01*
G01*
X79818000Y-40441999D01*
G75*
G02*
X80067999Y-40192000I249999J0D01*
G01*
X80968001Y-40192000D01*
G75*
G02*
X81218000Y-40441999I0J-249999D01*
G01*
X81218000Y-41092001D01*
G75*
G02*
X80968001Y-41342000I-249999J0D01*
G01*
G37*
G04 #@! TD.AperFunction*
G04 #@! TA.AperFunction,SMDPad,CuDef*
G36*
G01*
X109305000Y-31934999D02*
X109305000Y-32835001D01*
G75*
G02*
X109055001Y-33085000I-249999J0D01*
G01*
X108404999Y-33085000D01*
G75*
G02*
X108155000Y-32835001I0J249999D01*
G01*
X108155000Y-31934999D01*
G75*
G02*
X108404999Y-31685000I249999J0D01*
G01*
X109055001Y-31685000D01*
G75*
G02*
X109305000Y-31934999I0J-249999D01*
G01*
G37*
G04 #@! TD.AperFunction*
G04 #@! TA.AperFunction,SMDPad,CuDef*
G36*
G01*
X107255000Y-31934999D02*
X107255000Y-32835001D01*
G75*
G02*
X107005001Y-33085000I-249999J0D01*
G01*
X106354999Y-33085000D01*
G75*
G02*
X106105000Y-32835001I0J249999D01*
G01*
X106105000Y-31934999D01*
G75*
G02*
X106354999Y-31685000I249999J0D01*
G01*
X107005001Y-31685000D01*
G75*
G02*
X107255000Y-31934999I0J-249999D01*
G01*
G37*
G04 #@! TD.AperFunction*
G04 #@! TA.AperFunction,SMDPad,CuDef*
G36*
G01*
X98347000Y-45396999D02*
X98347000Y-46297001D01*
G75*
G02*
X98097001Y-46547000I-249999J0D01*
G01*
X97446999Y-46547000D01*
G75*
G02*
X97197000Y-46297001I0J249999D01*
G01*
X97197000Y-45396999D01*
G75*
G02*
X97446999Y-45147000I249999J0D01*
G01*
X98097001Y-45147000D01*
G75*
G02*
X98347000Y-45396999I0J-249999D01*
G01*
G37*
G04 #@! TD.AperFunction*
G04 #@! TA.AperFunction,SMDPad,CuDef*
G36*
G01*
X100397000Y-45396999D02*
X100397000Y-46297001D01*
G75*
G02*
X100147001Y-46547000I-249999J0D01*
G01*
X99496999Y-46547000D01*
G75*
G02*
X99247000Y-46297001I0J249999D01*
G01*
X99247000Y-45396999D01*
G75*
G02*
X99496999Y-45147000I249999J0D01*
G01*
X100147001Y-45147000D01*
G75*
G02*
X100397000Y-45396999I0J-249999D01*
G01*
G37*
G04 #@! TD.AperFunction*
G04 #@! TA.AperFunction,SMDPad,CuDef*
G36*
G01*
X98347000Y-42856999D02*
X98347000Y-43757001D01*
G75*
G02*
X98097001Y-44007000I-249999J0D01*
G01*
X97446999Y-44007000D01*
G75*
G02*
X97197000Y-43757001I0J249999D01*
G01*
X97197000Y-42856999D01*
G75*
G02*
X97446999Y-42607000I249999J0D01*
G01*
X98097001Y-42607000D01*
G75*
G02*
X98347000Y-42856999I0J-249999D01*
G01*
G37*
G04 #@! TD.AperFunction*
G04 #@! TA.AperFunction,SMDPad,CuDef*
G36*
G01*
X100397000Y-42856999D02*
X100397000Y-43757001D01*
G75*
G02*
X100147001Y-44007000I-249999J0D01*
G01*
X99496999Y-44007000D01*
G75*
G02*
X99247000Y-43757001I0J249999D01*
G01*
X99247000Y-42856999D01*
G75*
G02*
X99496999Y-42607000I249999J0D01*
G01*
X100147001Y-42607000D01*
G75*
G02*
X100397000Y-42856999I0J-249999D01*
G01*
G37*
G04 #@! TD.AperFunction*
G04 #@! TA.AperFunction,SMDPad,CuDef*
G36*
G01*
X107255000Y-38284999D02*
X107255000Y-39185001D01*
G75*
G02*
X107005001Y-39435000I-249999J0D01*
G01*
X106354999Y-39435000D01*
G75*
G02*
X106105000Y-39185001I0J249999D01*
G01*
X106105000Y-38284999D01*
G75*
G02*
X106354999Y-38035000I249999J0D01*
G01*
X107005001Y-38035000D01*
G75*
G02*
X107255000Y-38284999I0J-249999D01*
G01*
G37*
G04 #@! TD.AperFunction*
G04 #@! TA.AperFunction,SMDPad,CuDef*
G36*
G01*
X109305000Y-38284999D02*
X109305000Y-39185001D01*
G75*
G02*
X109055001Y-39435000I-249999J0D01*
G01*
X108404999Y-39435000D01*
G75*
G02*
X108155000Y-39185001I0J249999D01*
G01*
X108155000Y-38284999D01*
G75*
G02*
X108404999Y-38035000I249999J0D01*
G01*
X109055001Y-38035000D01*
G75*
G02*
X109305000Y-38284999I0J-249999D01*
G01*
G37*
G04 #@! TD.AperFunction*
G04 #@! TA.AperFunction,SMDPad,CuDef*
G36*
G01*
X143443000Y-137102001D02*
X143443000Y-136201999D01*
G75*
G02*
X143692999Y-135952000I249999J0D01*
G01*
X144343001Y-135952000D01*
G75*
G02*
X144593000Y-136201999I0J-249999D01*
G01*
X144593000Y-137102001D01*
G75*
G02*
X144343001Y-137352000I-249999J0D01*
G01*
X143692999Y-137352000D01*
G75*
G02*
X143443000Y-137102001I0J249999D01*
G01*
G37*
G04 #@! TD.AperFunction*
G04 #@! TA.AperFunction,SMDPad,CuDef*
G36*
G01*
X145493000Y-137102001D02*
X145493000Y-136201999D01*
G75*
G02*
X145742999Y-135952000I249999J0D01*
G01*
X146393001Y-135952000D01*
G75*
G02*
X146643000Y-136201999I0J-249999D01*
G01*
X146643000Y-137102001D01*
G75*
G02*
X146393001Y-137352000I-249999J0D01*
G01*
X145742999Y-137352000D01*
G75*
G02*
X145493000Y-137102001I0J249999D01*
G01*
G37*
G04 #@! TD.AperFunction*
G04 #@! TA.AperFunction,SMDPad,CuDef*
G36*
G01*
X164035000Y-136594001D02*
X164035000Y-135693999D01*
G75*
G02*
X164284999Y-135444000I249999J0D01*
G01*
X164935001Y-135444000D01*
G75*
G02*
X165185000Y-135693999I0J-249999D01*
G01*
X165185000Y-136594001D01*
G75*
G02*
X164935001Y-136844000I-249999J0D01*
G01*
X164284999Y-136844000D01*
G75*
G02*
X164035000Y-136594001I0J249999D01*
G01*
G37*
G04 #@! TD.AperFunction*
G04 #@! TA.AperFunction,SMDPad,CuDef*
G36*
G01*
X161985000Y-136594001D02*
X161985000Y-135693999D01*
G75*
G02*
X162234999Y-135444000I249999J0D01*
G01*
X162885001Y-135444000D01*
G75*
G02*
X163135000Y-135693999I0J-249999D01*
G01*
X163135000Y-136594001D01*
G75*
G02*
X162885001Y-136844000I-249999J0D01*
G01*
X162234999Y-136844000D01*
G75*
G02*
X161985000Y-136594001I0J249999D01*
G01*
G37*
G04 #@! TD.AperFunction*
G04 #@! TA.AperFunction,SMDPad,CuDef*
G36*
G01*
X112464001Y-39945000D02*
X111563999Y-39945000D01*
G75*
G02*
X111314000Y-39695001I0J249999D01*
G01*
X111314000Y-39044999D01*
G75*
G02*
X111563999Y-38795000I249999J0D01*
G01*
X112464001Y-38795000D01*
G75*
G02*
X112714000Y-39044999I0J-249999D01*
G01*
X112714000Y-39695001D01*
G75*
G02*
X112464001Y-39945000I-249999J0D01*
G01*
G37*
G04 #@! TD.AperFunction*
G04 #@! TA.AperFunction,SMDPad,CuDef*
G36*
G01*
X112464001Y-37895000D02*
X111563999Y-37895000D01*
G75*
G02*
X111314000Y-37645001I0J249999D01*
G01*
X111314000Y-36994999D01*
G75*
G02*
X111563999Y-36745000I249999J0D01*
G01*
X112464001Y-36745000D01*
G75*
G02*
X112714000Y-36994999I0J-249999D01*
G01*
X112714000Y-37645001D01*
G75*
G02*
X112464001Y-37895000I-249999J0D01*
G01*
G37*
G04 #@! TD.AperFunction*
G04 #@! TA.AperFunction,SMDPad,CuDef*
G36*
G01*
X165185000Y-133153999D02*
X165185000Y-134054001D01*
G75*
G02*
X164935001Y-134304000I-249999J0D01*
G01*
X164284999Y-134304000D01*
G75*
G02*
X164035000Y-134054001I0J249999D01*
G01*
X164035000Y-133153999D01*
G75*
G02*
X164284999Y-132904000I249999J0D01*
G01*
X164935001Y-132904000D01*
G75*
G02*
X165185000Y-133153999I0J-249999D01*
G01*
G37*
G04 #@! TD.AperFunction*
G04 #@! TA.AperFunction,SMDPad,CuDef*
G36*
G01*
X163135000Y-133153999D02*
X163135000Y-134054001D01*
G75*
G02*
X162885001Y-134304000I-249999J0D01*
G01*
X162234999Y-134304000D01*
G75*
G02*
X161985000Y-134054001I0J249999D01*
G01*
X161985000Y-133153999D01*
G75*
G02*
X162234999Y-132904000I249999J0D01*
G01*
X162885001Y-132904000D01*
G75*
G02*
X163135000Y-133153999I0J-249999D01*
G01*
G37*
G04 #@! TD.AperFunction*
G04 #@! TA.AperFunction,SMDPad,CuDef*
G36*
G01*
X136320000Y-45777999D02*
X136320000Y-46678001D01*
G75*
G02*
X136070001Y-46928000I-249999J0D01*
G01*
X135419999Y-46928000D01*
G75*
G02*
X135170000Y-46678001I0J249999D01*
G01*
X135170000Y-45777999D01*
G75*
G02*
X135419999Y-45528000I249999J0D01*
G01*
X136070001Y-45528000D01*
G75*
G02*
X136320000Y-45777999I0J-249999D01*
G01*
G37*
G04 #@! TD.AperFunction*
G04 #@! TA.AperFunction,SMDPad,CuDef*
G36*
G01*
X138370000Y-45777999D02*
X138370000Y-46678001D01*
G75*
G02*
X138120001Y-46928000I-249999J0D01*
G01*
X137469999Y-46928000D01*
G75*
G02*
X137220000Y-46678001I0J249999D01*
G01*
X137220000Y-45777999D01*
G75*
G02*
X137469999Y-45528000I249999J0D01*
G01*
X138120001Y-45528000D01*
G75*
G02*
X138370000Y-45777999I0J-249999D01*
G01*
G37*
G04 #@! TD.AperFunction*
G04 #@! TA.AperFunction,SMDPad,CuDef*
G36*
G01*
X139760000Y-46678001D02*
X139760000Y-45777999D01*
G75*
G02*
X140009999Y-45528000I249999J0D01*
G01*
X140660001Y-45528000D01*
G75*
G02*
X140910000Y-45777999I0J-249999D01*
G01*
X140910000Y-46678001D01*
G75*
G02*
X140660001Y-46928000I-249999J0D01*
G01*
X140009999Y-46928000D01*
G75*
G02*
X139760000Y-46678001I0J249999D01*
G01*
G37*
G04 #@! TD.AperFunction*
G04 #@! TA.AperFunction,SMDPad,CuDef*
G36*
G01*
X141810000Y-46678001D02*
X141810000Y-45777999D01*
G75*
G02*
X142059999Y-45528000I249999J0D01*
G01*
X142710001Y-45528000D01*
G75*
G02*
X142960000Y-45777999I0J-249999D01*
G01*
X142960000Y-46678001D01*
G75*
G02*
X142710001Y-46928000I-249999J0D01*
G01*
X142059999Y-46928000D01*
G75*
G02*
X141810000Y-46678001I0J249999D01*
G01*
G37*
G04 #@! TD.AperFunction*
G04 #@! TA.AperFunction,SMDPad,CuDef*
G36*
G01*
X76521000Y-137979999D02*
X76521000Y-138880001D01*
G75*
G02*
X76271001Y-139130000I-249999J0D01*
G01*
X75620999Y-139130000D01*
G75*
G02*
X75371000Y-138880001I0J249999D01*
G01*
X75371000Y-137979999D01*
G75*
G02*
X75620999Y-137730000I249999J0D01*
G01*
X76271001Y-137730000D01*
G75*
G02*
X76521000Y-137979999I0J-249999D01*
G01*
G37*
G04 #@! TD.AperFunction*
G04 #@! TA.AperFunction,SMDPad,CuDef*
G36*
G01*
X78571000Y-137979999D02*
X78571000Y-138880001D01*
G75*
G02*
X78321001Y-139130000I-249999J0D01*
G01*
X77670999Y-139130000D01*
G75*
G02*
X77421000Y-138880001I0J249999D01*
G01*
X77421000Y-137979999D01*
G75*
G02*
X77670999Y-137730000I249999J0D01*
G01*
X78321001Y-137730000D01*
G75*
G02*
X78571000Y-137979999I0J-249999D01*
G01*
G37*
G04 #@! TD.AperFunction*
G04 #@! TA.AperFunction,SMDPad,CuDef*
G36*
G01*
X78571000Y-140519999D02*
X78571000Y-141420001D01*
G75*
G02*
X78321001Y-141670000I-249999J0D01*
G01*
X77670999Y-141670000D01*
G75*
G02*
X77421000Y-141420001I0J249999D01*
G01*
X77421000Y-140519999D01*
G75*
G02*
X77670999Y-140270000I249999J0D01*
G01*
X78321001Y-140270000D01*
G75*
G02*
X78571000Y-140519999I0J-249999D01*
G01*
G37*
G04 #@! TD.AperFunction*
G04 #@! TA.AperFunction,SMDPad,CuDef*
G36*
G01*
X76521000Y-140519999D02*
X76521000Y-141420001D01*
G75*
G02*
X76271001Y-141670000I-249999J0D01*
G01*
X75620999Y-141670000D01*
G75*
G02*
X75371000Y-141420001I0J249999D01*
G01*
X75371000Y-140519999D01*
G75*
G02*
X75620999Y-140270000I249999J0D01*
G01*
X76271001Y-140270000D01*
G75*
G02*
X76521000Y-140519999I0J-249999D01*
G01*
G37*
G04 #@! TD.AperFunction*
G04 #@! TA.AperFunction,SMDPad,CuDef*
G36*
G01*
X152351000Y-70046001D02*
X152351000Y-69145999D01*
G75*
G02*
X152600999Y-68896000I249999J0D01*
G01*
X153251001Y-68896000D01*
G75*
G02*
X153501000Y-69145999I0J-249999D01*
G01*
X153501000Y-70046001D01*
G75*
G02*
X153251001Y-70296000I-249999J0D01*
G01*
X152600999Y-70296000D01*
G75*
G02*
X152351000Y-70046001I0J249999D01*
G01*
G37*
G04 #@! TD.AperFunction*
G04 #@! TA.AperFunction,SMDPad,CuDef*
G36*
G01*
X150301000Y-70046001D02*
X150301000Y-69145999D01*
G75*
G02*
X150550999Y-68896000I249999J0D01*
G01*
X151201001Y-68896000D01*
G75*
G02*
X151451000Y-69145999I0J-249999D01*
G01*
X151451000Y-70046001D01*
G75*
G02*
X151201001Y-70296000I-249999J0D01*
G01*
X150550999Y-70296000D01*
G75*
G02*
X150301000Y-70046001I0J249999D01*
G01*
G37*
G04 #@! TD.AperFunction*
G04 #@! TA.AperFunction,SMDPad,CuDef*
G36*
G01*
X151451000Y-71685999D02*
X151451000Y-72586001D01*
G75*
G02*
X151201001Y-72836000I-249999J0D01*
G01*
X150550999Y-72836000D01*
G75*
G02*
X150301000Y-72586001I0J249999D01*
G01*
X150301000Y-71685999D01*
G75*
G02*
X150550999Y-71436000I249999J0D01*
G01*
X151201001Y-71436000D01*
G75*
G02*
X151451000Y-71685999I0J-249999D01*
G01*
G37*
G04 #@! TD.AperFunction*
G04 #@! TA.AperFunction,SMDPad,CuDef*
G36*
G01*
X153501000Y-71685999D02*
X153501000Y-72586001D01*
G75*
G02*
X153251001Y-72836000I-249999J0D01*
G01*
X152600999Y-72836000D01*
G75*
G02*
X152351000Y-72586001I0J249999D01*
G01*
X152351000Y-71685999D01*
G75*
G02*
X152600999Y-71436000I249999J0D01*
G01*
X153251001Y-71436000D01*
G75*
G02*
X153501000Y-71685999I0J-249999D01*
G01*
G37*
G04 #@! TD.AperFunction*
G04 #@! TA.AperFunction,SMDPad,CuDef*
G36*
G01*
X150301000Y-67506001D02*
X150301000Y-66605999D01*
G75*
G02*
X150550999Y-66356000I249999J0D01*
G01*
X151201001Y-66356000D01*
G75*
G02*
X151451000Y-66605999I0J-249999D01*
G01*
X151451000Y-67506001D01*
G75*
G02*
X151201001Y-67756000I-249999J0D01*
G01*
X150550999Y-67756000D01*
G75*
G02*
X150301000Y-67506001I0J249999D01*
G01*
G37*
G04 #@! TD.AperFunction*
G04 #@! TA.AperFunction,SMDPad,CuDef*
G36*
G01*
X152351000Y-67506001D02*
X152351000Y-66605999D01*
G75*
G02*
X152600999Y-66356000I249999J0D01*
G01*
X153251001Y-66356000D01*
G75*
G02*
X153501000Y-66605999I0J-249999D01*
G01*
X153501000Y-67506001D01*
G75*
G02*
X153251001Y-67756000I-249999J0D01*
G01*
X152600999Y-67756000D01*
G75*
G02*
X152351000Y-67506001I0J249999D01*
G01*
G37*
G04 #@! TD.AperFunction*
G04 #@! TA.AperFunction,SMDPad,CuDef*
G36*
G01*
X135939000Y-76003999D02*
X135939000Y-76904001D01*
G75*
G02*
X135689001Y-77154000I-249999J0D01*
G01*
X135038999Y-77154000D01*
G75*
G02*
X134789000Y-76904001I0J249999D01*
G01*
X134789000Y-76003999D01*
G75*
G02*
X135038999Y-75754000I249999J0D01*
G01*
X135689001Y-75754000D01*
G75*
G02*
X135939000Y-76003999I0J-249999D01*
G01*
G37*
G04 #@! TD.AperFunction*
G04 #@! TA.AperFunction,SMDPad,CuDef*
G36*
G01*
X137989000Y-76003999D02*
X137989000Y-76904001D01*
G75*
G02*
X137739001Y-77154000I-249999J0D01*
G01*
X137088999Y-77154000D01*
G75*
G02*
X136839000Y-76904001I0J249999D01*
G01*
X136839000Y-76003999D01*
G75*
G02*
X137088999Y-75754000I249999J0D01*
G01*
X137739001Y-75754000D01*
G75*
G02*
X137989000Y-76003999I0J-249999D01*
G01*
G37*
G04 #@! TD.AperFunction*
G04 #@! TA.AperFunction,SMDPad,CuDef*
G36*
G01*
X134789000Y-71824001D02*
X134789000Y-70923999D01*
G75*
G02*
X135038999Y-70674000I249999J0D01*
G01*
X135689001Y-70674000D01*
G75*
G02*
X135939000Y-70923999I0J-249999D01*
G01*
X135939000Y-71824001D01*
G75*
G02*
X135689001Y-72074000I-249999J0D01*
G01*
X135038999Y-72074000D01*
G75*
G02*
X134789000Y-71824001I0J249999D01*
G01*
G37*
G04 #@! TD.AperFunction*
G04 #@! TA.AperFunction,SMDPad,CuDef*
G36*
G01*
X136839000Y-71824001D02*
X136839000Y-70923999D01*
G75*
G02*
X137088999Y-70674000I249999J0D01*
G01*
X137739001Y-70674000D01*
G75*
G02*
X137989000Y-70923999I0J-249999D01*
G01*
X137989000Y-71824001D01*
G75*
G02*
X137739001Y-72074000I-249999J0D01*
G01*
X137088999Y-72074000D01*
G75*
G02*
X136839000Y-71824001I0J249999D01*
G01*
G37*
G04 #@! TD.AperFunction*
G04 #@! TA.AperFunction,SMDPad,CuDef*
G36*
G01*
X76521000Y-146361999D02*
X76521000Y-147262001D01*
G75*
G02*
X76271001Y-147512000I-249999J0D01*
G01*
X75620999Y-147512000D01*
G75*
G02*
X75371000Y-147262001I0J249999D01*
G01*
X75371000Y-146361999D01*
G75*
G02*
X75620999Y-146112000I249999J0D01*
G01*
X76271001Y-146112000D01*
G75*
G02*
X76521000Y-146361999I0J-249999D01*
G01*
G37*
G04 #@! TD.AperFunction*
G04 #@! TA.AperFunction,SMDPad,CuDef*
G36*
G01*
X78571000Y-146361999D02*
X78571000Y-147262001D01*
G75*
G02*
X78321001Y-147512000I-249999J0D01*
G01*
X77670999Y-147512000D01*
G75*
G02*
X77421000Y-147262001I0J249999D01*
G01*
X77421000Y-146361999D01*
G75*
G02*
X77670999Y-146112000I249999J0D01*
G01*
X78321001Y-146112000D01*
G75*
G02*
X78571000Y-146361999I0J-249999D01*
G01*
G37*
G04 #@! TD.AperFunction*
G04 #@! TA.AperFunction,SMDPad,CuDef*
G36*
G01*
X78571000Y-148901999D02*
X78571000Y-149802001D01*
G75*
G02*
X78321001Y-150052000I-249999J0D01*
G01*
X77670999Y-150052000D01*
G75*
G02*
X77421000Y-149802001I0J249999D01*
G01*
X77421000Y-148901999D01*
G75*
G02*
X77670999Y-148652000I249999J0D01*
G01*
X78321001Y-148652000D01*
G75*
G02*
X78571000Y-148901999I0J-249999D01*
G01*
G37*
G04 #@! TD.AperFunction*
G04 #@! TA.AperFunction,SMDPad,CuDef*
G36*
G01*
X76521000Y-148901999D02*
X76521000Y-149802001D01*
G75*
G02*
X76271001Y-150052000I-249999J0D01*
G01*
X75620999Y-150052000D01*
G75*
G02*
X75371000Y-149802001I0J249999D01*
G01*
X75371000Y-148901999D01*
G75*
G02*
X75620999Y-148652000I249999J0D01*
G01*
X76271001Y-148652000D01*
G75*
G02*
X76521000Y-148901999I0J-249999D01*
G01*
G37*
G04 #@! TD.AperFunction*
G04 #@! TA.AperFunction,SMDPad,CuDef*
G36*
G01*
X152587000Y-86302001D02*
X152587000Y-85401999D01*
G75*
G02*
X152836999Y-85152000I249999J0D01*
G01*
X153487001Y-85152000D01*
G75*
G02*
X153737000Y-85401999I0J-249999D01*
G01*
X153737000Y-86302001D01*
G75*
G02*
X153487001Y-86552000I-249999J0D01*
G01*
X152836999Y-86552000D01*
G75*
G02*
X152587000Y-86302001I0J249999D01*
G01*
G37*
G04 #@! TD.AperFunction*
G04 #@! TA.AperFunction,SMDPad,CuDef*
G36*
G01*
X150537000Y-86302001D02*
X150537000Y-85401999D01*
G75*
G02*
X150786999Y-85152000I249999J0D01*
G01*
X151437001Y-85152000D01*
G75*
G02*
X151687000Y-85401999I0J-249999D01*
G01*
X151687000Y-86302001D01*
G75*
G02*
X151437001Y-86552000I-249999J0D01*
G01*
X150786999Y-86552000D01*
G75*
G02*
X150537000Y-86302001I0J249999D01*
G01*
G37*
G04 #@! TD.AperFunction*
G04 #@! TA.AperFunction,SMDPad,CuDef*
G36*
G01*
X150537000Y-83889001D02*
X150537000Y-82988999D01*
G75*
G02*
X150786999Y-82739000I249999J0D01*
G01*
X151437001Y-82739000D01*
G75*
G02*
X151687000Y-82988999I0J-249999D01*
G01*
X151687000Y-83889001D01*
G75*
G02*
X151437001Y-84139000I-249999J0D01*
G01*
X150786999Y-84139000D01*
G75*
G02*
X150537000Y-83889001I0J249999D01*
G01*
G37*
G04 #@! TD.AperFunction*
G04 #@! TA.AperFunction,SMDPad,CuDef*
G36*
G01*
X152587000Y-83889001D02*
X152587000Y-82988999D01*
G75*
G02*
X152836999Y-82739000I249999J0D01*
G01*
X153487001Y-82739000D01*
G75*
G02*
X153737000Y-82988999I0J-249999D01*
G01*
X153737000Y-83889001D01*
G75*
G02*
X153487001Y-84139000I-249999J0D01*
G01*
X152836999Y-84139000D01*
G75*
G02*
X152587000Y-83889001I0J249999D01*
G01*
G37*
G04 #@! TD.AperFunction*
D30*
X70054000Y-114818000D03*
D31*
X67564000Y-116078000D03*
X67564000Y-120578000D03*
D30*
X70054000Y-121828000D03*
X70054000Y-133004000D03*
D31*
X67564000Y-131754000D03*
X67564000Y-127254000D03*
D30*
X70054000Y-125994000D03*
D32*
X167640000Y-71878000D03*
X167640000Y-80078000D03*
D33*
X167640000Y-73978000D03*
X167640000Y-75978000D03*
D34*
X167640000Y-77978000D03*
G04 #@! TA.AperFunction,SMDPad,CuDef*
G36*
G01*
X127960000Y-131621500D02*
X129285000Y-131621500D01*
G75*
G02*
X129360000Y-131696500I0J-75000D01*
G01*
X129360000Y-131846500D01*
G75*
G02*
X129285000Y-131921500I-75000J0D01*
G01*
X127960000Y-131921500D01*
G75*
G02*
X127885000Y-131846500I0J75000D01*
G01*
X127885000Y-131696500D01*
G75*
G02*
X127960000Y-131621500I75000J0D01*
G01*
G37*
G04 #@! TD.AperFunction*
G04 #@! TA.AperFunction,SMDPad,CuDef*
G36*
G01*
X127960000Y-132121500D02*
X129285000Y-132121500D01*
G75*
G02*
X129360000Y-132196500I0J-75000D01*
G01*
X129360000Y-132346500D01*
G75*
G02*
X129285000Y-132421500I-75000J0D01*
G01*
X127960000Y-132421500D01*
G75*
G02*
X127885000Y-132346500I0J75000D01*
G01*
X127885000Y-132196500D01*
G75*
G02*
X127960000Y-132121500I75000J0D01*
G01*
G37*
G04 #@! TD.AperFunction*
G04 #@! TA.AperFunction,SMDPad,CuDef*
G36*
G01*
X127960000Y-132621500D02*
X129285000Y-132621500D01*
G75*
G02*
X129360000Y-132696500I0J-75000D01*
G01*
X129360000Y-132846500D01*
G75*
G02*
X129285000Y-132921500I-75000J0D01*
G01*
X127960000Y-132921500D01*
G75*
G02*
X127885000Y-132846500I0J75000D01*
G01*
X127885000Y-132696500D01*
G75*
G02*
X127960000Y-132621500I75000J0D01*
G01*
G37*
G04 #@! TD.AperFunction*
G04 #@! TA.AperFunction,SMDPad,CuDef*
G36*
G01*
X127960000Y-133121500D02*
X129285000Y-133121500D01*
G75*
G02*
X129360000Y-133196500I0J-75000D01*
G01*
X129360000Y-133346500D01*
G75*
G02*
X129285000Y-133421500I-75000J0D01*
G01*
X127960000Y-133421500D01*
G75*
G02*
X127885000Y-133346500I0J75000D01*
G01*
X127885000Y-133196500D01*
G75*
G02*
X127960000Y-133121500I75000J0D01*
G01*
G37*
G04 #@! TD.AperFunction*
G04 #@! TA.AperFunction,SMDPad,CuDef*
G36*
G01*
X127960000Y-133621500D02*
X129285000Y-133621500D01*
G75*
G02*
X129360000Y-133696500I0J-75000D01*
G01*
X129360000Y-133846500D01*
G75*
G02*
X129285000Y-133921500I-75000J0D01*
G01*
X127960000Y-133921500D01*
G75*
G02*
X127885000Y-133846500I0J75000D01*
G01*
X127885000Y-133696500D01*
G75*
G02*
X127960000Y-133621500I75000J0D01*
G01*
G37*
G04 #@! TD.AperFunction*
G04 #@! TA.AperFunction,SMDPad,CuDef*
G36*
G01*
X127960000Y-134121500D02*
X129285000Y-134121500D01*
G75*
G02*
X129360000Y-134196500I0J-75000D01*
G01*
X129360000Y-134346500D01*
G75*
G02*
X129285000Y-134421500I-75000J0D01*
G01*
X127960000Y-134421500D01*
G75*
G02*
X127885000Y-134346500I0J75000D01*
G01*
X127885000Y-134196500D01*
G75*
G02*
X127960000Y-134121500I75000J0D01*
G01*
G37*
G04 #@! TD.AperFunction*
G04 #@! TA.AperFunction,SMDPad,CuDef*
G36*
G01*
X127960000Y-134621500D02*
X129285000Y-134621500D01*
G75*
G02*
X129360000Y-134696500I0J-75000D01*
G01*
X129360000Y-134846500D01*
G75*
G02*
X129285000Y-134921500I-75000J0D01*
G01*
X127960000Y-134921500D01*
G75*
G02*
X127885000Y-134846500I0J75000D01*
G01*
X127885000Y-134696500D01*
G75*
G02*
X127960000Y-134621500I75000J0D01*
G01*
G37*
G04 #@! TD.AperFunction*
G04 #@! TA.AperFunction,SMDPad,CuDef*
G36*
G01*
X127960000Y-135121500D02*
X129285000Y-135121500D01*
G75*
G02*
X129360000Y-135196500I0J-75000D01*
G01*
X129360000Y-135346500D01*
G75*
G02*
X129285000Y-135421500I-75000J0D01*
G01*
X127960000Y-135421500D01*
G75*
G02*
X127885000Y-135346500I0J75000D01*
G01*
X127885000Y-135196500D01*
G75*
G02*
X127960000Y-135121500I75000J0D01*
G01*
G37*
G04 #@! TD.AperFunction*
G04 #@! TA.AperFunction,SMDPad,CuDef*
G36*
G01*
X127960000Y-135621500D02*
X129285000Y-135621500D01*
G75*
G02*
X129360000Y-135696500I0J-75000D01*
G01*
X129360000Y-135846500D01*
G75*
G02*
X129285000Y-135921500I-75000J0D01*
G01*
X127960000Y-135921500D01*
G75*
G02*
X127885000Y-135846500I0J75000D01*
G01*
X127885000Y-135696500D01*
G75*
G02*
X127960000Y-135621500I75000J0D01*
G01*
G37*
G04 #@! TD.AperFunction*
G04 #@! TA.AperFunction,SMDPad,CuDef*
G36*
G01*
X127960000Y-136121500D02*
X129285000Y-136121500D01*
G75*
G02*
X129360000Y-136196500I0J-75000D01*
G01*
X129360000Y-136346500D01*
G75*
G02*
X129285000Y-136421500I-75000J0D01*
G01*
X127960000Y-136421500D01*
G75*
G02*
X127885000Y-136346500I0J75000D01*
G01*
X127885000Y-136196500D01*
G75*
G02*
X127960000Y-136121500I75000J0D01*
G01*
G37*
G04 #@! TD.AperFunction*
G04 #@! TA.AperFunction,SMDPad,CuDef*
G36*
G01*
X127960000Y-136621500D02*
X129285000Y-136621500D01*
G75*
G02*
X129360000Y-136696500I0J-75000D01*
G01*
X129360000Y-136846500D01*
G75*
G02*
X129285000Y-136921500I-75000J0D01*
G01*
X127960000Y-136921500D01*
G75*
G02*
X127885000Y-136846500I0J75000D01*
G01*
X127885000Y-136696500D01*
G75*
G02*
X127960000Y-136621500I75000J0D01*
G01*
G37*
G04 #@! TD.AperFunction*
G04 #@! TA.AperFunction,SMDPad,CuDef*
G36*
G01*
X127960000Y-137121500D02*
X129285000Y-137121500D01*
G75*
G02*
X129360000Y-137196500I0J-75000D01*
G01*
X129360000Y-137346500D01*
G75*
G02*
X129285000Y-137421500I-75000J0D01*
G01*
X127960000Y-137421500D01*
G75*
G02*
X127885000Y-137346500I0J75000D01*
G01*
X127885000Y-137196500D01*
G75*
G02*
X127960000Y-137121500I75000J0D01*
G01*
G37*
G04 #@! TD.AperFunction*
G04 #@! TA.AperFunction,SMDPad,CuDef*
G36*
G01*
X127135000Y-137946500D02*
X127285000Y-137946500D01*
G75*
G02*
X127360000Y-138021500I0J-75000D01*
G01*
X127360000Y-139346500D01*
G75*
G02*
X127285000Y-139421500I-75000J0D01*
G01*
X127135000Y-139421500D01*
G75*
G02*
X127060000Y-139346500I0J75000D01*
G01*
X127060000Y-138021500D01*
G75*
G02*
X127135000Y-137946500I75000J0D01*
G01*
G37*
G04 #@! TD.AperFunction*
G04 #@! TA.AperFunction,SMDPad,CuDef*
G36*
G01*
X126635000Y-137946500D02*
X126785000Y-137946500D01*
G75*
G02*
X126860000Y-138021500I0J-75000D01*
G01*
X126860000Y-139346500D01*
G75*
G02*
X126785000Y-139421500I-75000J0D01*
G01*
X126635000Y-139421500D01*
G75*
G02*
X126560000Y-139346500I0J75000D01*
G01*
X126560000Y-138021500D01*
G75*
G02*
X126635000Y-137946500I75000J0D01*
G01*
G37*
G04 #@! TD.AperFunction*
G04 #@! TA.AperFunction,SMDPad,CuDef*
G36*
G01*
X126135000Y-137946500D02*
X126285000Y-137946500D01*
G75*
G02*
X126360000Y-138021500I0J-75000D01*
G01*
X126360000Y-139346500D01*
G75*
G02*
X126285000Y-139421500I-75000J0D01*
G01*
X126135000Y-139421500D01*
G75*
G02*
X126060000Y-139346500I0J75000D01*
G01*
X126060000Y-138021500D01*
G75*
G02*
X126135000Y-137946500I75000J0D01*
G01*
G37*
G04 #@! TD.AperFunction*
G04 #@! TA.AperFunction,SMDPad,CuDef*
G36*
G01*
X125635000Y-137946500D02*
X125785000Y-137946500D01*
G75*
G02*
X125860000Y-138021500I0J-75000D01*
G01*
X125860000Y-139346500D01*
G75*
G02*
X125785000Y-139421500I-75000J0D01*
G01*
X125635000Y-139421500D01*
G75*
G02*
X125560000Y-139346500I0J75000D01*
G01*
X125560000Y-138021500D01*
G75*
G02*
X125635000Y-137946500I75000J0D01*
G01*
G37*
G04 #@! TD.AperFunction*
G04 #@! TA.AperFunction,SMDPad,CuDef*
G36*
G01*
X125135000Y-137946500D02*
X125285000Y-137946500D01*
G75*
G02*
X125360000Y-138021500I0J-75000D01*
G01*
X125360000Y-139346500D01*
G75*
G02*
X125285000Y-139421500I-75000J0D01*
G01*
X125135000Y-139421500D01*
G75*
G02*
X125060000Y-139346500I0J75000D01*
G01*
X125060000Y-138021500D01*
G75*
G02*
X125135000Y-137946500I75000J0D01*
G01*
G37*
G04 #@! TD.AperFunction*
G04 #@! TA.AperFunction,SMDPad,CuDef*
G36*
G01*
X124635000Y-137946500D02*
X124785000Y-137946500D01*
G75*
G02*
X124860000Y-138021500I0J-75000D01*
G01*
X124860000Y-139346500D01*
G75*
G02*
X124785000Y-139421500I-75000J0D01*
G01*
X124635000Y-139421500D01*
G75*
G02*
X124560000Y-139346500I0J75000D01*
G01*
X124560000Y-138021500D01*
G75*
G02*
X124635000Y-137946500I75000J0D01*
G01*
G37*
G04 #@! TD.AperFunction*
G04 #@! TA.AperFunction,SMDPad,CuDef*
G36*
G01*
X124135000Y-137946500D02*
X124285000Y-137946500D01*
G75*
G02*
X124360000Y-138021500I0J-75000D01*
G01*
X124360000Y-139346500D01*
G75*
G02*
X124285000Y-139421500I-75000J0D01*
G01*
X124135000Y-139421500D01*
G75*
G02*
X124060000Y-139346500I0J75000D01*
G01*
X124060000Y-138021500D01*
G75*
G02*
X124135000Y-137946500I75000J0D01*
G01*
G37*
G04 #@! TD.AperFunction*
G04 #@! TA.AperFunction,SMDPad,CuDef*
G36*
G01*
X123635000Y-137946500D02*
X123785000Y-137946500D01*
G75*
G02*
X123860000Y-138021500I0J-75000D01*
G01*
X123860000Y-139346500D01*
G75*
G02*
X123785000Y-139421500I-75000J0D01*
G01*
X123635000Y-139421500D01*
G75*
G02*
X123560000Y-139346500I0J75000D01*
G01*
X123560000Y-138021500D01*
G75*
G02*
X123635000Y-137946500I75000J0D01*
G01*
G37*
G04 #@! TD.AperFunction*
G04 #@! TA.AperFunction,SMDPad,CuDef*
G36*
G01*
X123135000Y-137946500D02*
X123285000Y-137946500D01*
G75*
G02*
X123360000Y-138021500I0J-75000D01*
G01*
X123360000Y-139346500D01*
G75*
G02*
X123285000Y-139421500I-75000J0D01*
G01*
X123135000Y-139421500D01*
G75*
G02*
X123060000Y-139346500I0J75000D01*
G01*
X123060000Y-138021500D01*
G75*
G02*
X123135000Y-137946500I75000J0D01*
G01*
G37*
G04 #@! TD.AperFunction*
G04 #@! TA.AperFunction,SMDPad,CuDef*
G36*
G01*
X122635000Y-137946500D02*
X122785000Y-137946500D01*
G75*
G02*
X122860000Y-138021500I0J-75000D01*
G01*
X122860000Y-139346500D01*
G75*
G02*
X122785000Y-139421500I-75000J0D01*
G01*
X122635000Y-139421500D01*
G75*
G02*
X122560000Y-139346500I0J75000D01*
G01*
X122560000Y-138021500D01*
G75*
G02*
X122635000Y-137946500I75000J0D01*
G01*
G37*
G04 #@! TD.AperFunction*
G04 #@! TA.AperFunction,SMDPad,CuDef*
G36*
G01*
X122135000Y-137946500D02*
X122285000Y-137946500D01*
G75*
G02*
X122360000Y-138021500I0J-75000D01*
G01*
X122360000Y-139346500D01*
G75*
G02*
X122285000Y-139421500I-75000J0D01*
G01*
X122135000Y-139421500D01*
G75*
G02*
X122060000Y-139346500I0J75000D01*
G01*
X122060000Y-138021500D01*
G75*
G02*
X122135000Y-137946500I75000J0D01*
G01*
G37*
G04 #@! TD.AperFunction*
G04 #@! TA.AperFunction,SMDPad,CuDef*
G36*
G01*
X121635000Y-137946500D02*
X121785000Y-137946500D01*
G75*
G02*
X121860000Y-138021500I0J-75000D01*
G01*
X121860000Y-139346500D01*
G75*
G02*
X121785000Y-139421500I-75000J0D01*
G01*
X121635000Y-139421500D01*
G75*
G02*
X121560000Y-139346500I0J75000D01*
G01*
X121560000Y-138021500D01*
G75*
G02*
X121635000Y-137946500I75000J0D01*
G01*
G37*
G04 #@! TD.AperFunction*
G04 #@! TA.AperFunction,SMDPad,CuDef*
G36*
G01*
X119635000Y-137121500D02*
X120960000Y-137121500D01*
G75*
G02*
X121035000Y-137196500I0J-75000D01*
G01*
X121035000Y-137346500D01*
G75*
G02*
X120960000Y-137421500I-75000J0D01*
G01*
X119635000Y-137421500D01*
G75*
G02*
X119560000Y-137346500I0J75000D01*
G01*
X119560000Y-137196500D01*
G75*
G02*
X119635000Y-137121500I75000J0D01*
G01*
G37*
G04 #@! TD.AperFunction*
G04 #@! TA.AperFunction,SMDPad,CuDef*
G36*
G01*
X119635000Y-136621500D02*
X120960000Y-136621500D01*
G75*
G02*
X121035000Y-136696500I0J-75000D01*
G01*
X121035000Y-136846500D01*
G75*
G02*
X120960000Y-136921500I-75000J0D01*
G01*
X119635000Y-136921500D01*
G75*
G02*
X119560000Y-136846500I0J75000D01*
G01*
X119560000Y-136696500D01*
G75*
G02*
X119635000Y-136621500I75000J0D01*
G01*
G37*
G04 #@! TD.AperFunction*
G04 #@! TA.AperFunction,SMDPad,CuDef*
G36*
G01*
X119635000Y-136121500D02*
X120960000Y-136121500D01*
G75*
G02*
X121035000Y-136196500I0J-75000D01*
G01*
X121035000Y-136346500D01*
G75*
G02*
X120960000Y-136421500I-75000J0D01*
G01*
X119635000Y-136421500D01*
G75*
G02*
X119560000Y-136346500I0J75000D01*
G01*
X119560000Y-136196500D01*
G75*
G02*
X119635000Y-136121500I75000J0D01*
G01*
G37*
G04 #@! TD.AperFunction*
G04 #@! TA.AperFunction,SMDPad,CuDef*
G36*
G01*
X119635000Y-135621500D02*
X120960000Y-135621500D01*
G75*
G02*
X121035000Y-135696500I0J-75000D01*
G01*
X121035000Y-135846500D01*
G75*
G02*
X120960000Y-135921500I-75000J0D01*
G01*
X119635000Y-135921500D01*
G75*
G02*
X119560000Y-135846500I0J75000D01*
G01*
X119560000Y-135696500D01*
G75*
G02*
X119635000Y-135621500I75000J0D01*
G01*
G37*
G04 #@! TD.AperFunction*
G04 #@! TA.AperFunction,SMDPad,CuDef*
G36*
G01*
X119635000Y-135121500D02*
X120960000Y-135121500D01*
G75*
G02*
X121035000Y-135196500I0J-75000D01*
G01*
X121035000Y-135346500D01*
G75*
G02*
X120960000Y-135421500I-75000J0D01*
G01*
X119635000Y-135421500D01*
G75*
G02*
X119560000Y-135346500I0J75000D01*
G01*
X119560000Y-135196500D01*
G75*
G02*
X119635000Y-135121500I75000J0D01*
G01*
G37*
G04 #@! TD.AperFunction*
G04 #@! TA.AperFunction,SMDPad,CuDef*
G36*
G01*
X119635000Y-134621500D02*
X120960000Y-134621500D01*
G75*
G02*
X121035000Y-134696500I0J-75000D01*
G01*
X121035000Y-134846500D01*
G75*
G02*
X120960000Y-134921500I-75000J0D01*
G01*
X119635000Y-134921500D01*
G75*
G02*
X119560000Y-134846500I0J75000D01*
G01*
X119560000Y-134696500D01*
G75*
G02*
X119635000Y-134621500I75000J0D01*
G01*
G37*
G04 #@! TD.AperFunction*
G04 #@! TA.AperFunction,SMDPad,CuDef*
G36*
G01*
X119635000Y-134121500D02*
X120960000Y-134121500D01*
G75*
G02*
X121035000Y-134196500I0J-75000D01*
G01*
X121035000Y-134346500D01*
G75*
G02*
X120960000Y-134421500I-75000J0D01*
G01*
X119635000Y-134421500D01*
G75*
G02*
X119560000Y-134346500I0J75000D01*
G01*
X119560000Y-134196500D01*
G75*
G02*
X119635000Y-134121500I75000J0D01*
G01*
G37*
G04 #@! TD.AperFunction*
G04 #@! TA.AperFunction,SMDPad,CuDef*
G36*
G01*
X119635000Y-133621500D02*
X120960000Y-133621500D01*
G75*
G02*
X121035000Y-133696500I0J-75000D01*
G01*
X121035000Y-133846500D01*
G75*
G02*
X120960000Y-133921500I-75000J0D01*
G01*
X119635000Y-133921500D01*
G75*
G02*
X119560000Y-133846500I0J75000D01*
G01*
X119560000Y-133696500D01*
G75*
G02*
X119635000Y-133621500I75000J0D01*
G01*
G37*
G04 #@! TD.AperFunction*
G04 #@! TA.AperFunction,SMDPad,CuDef*
G36*
G01*
X119635000Y-133121500D02*
X120960000Y-133121500D01*
G75*
G02*
X121035000Y-133196500I0J-75000D01*
G01*
X121035000Y-133346500D01*
G75*
G02*
X120960000Y-133421500I-75000J0D01*
G01*
X119635000Y-133421500D01*
G75*
G02*
X119560000Y-133346500I0J75000D01*
G01*
X119560000Y-133196500D01*
G75*
G02*
X119635000Y-133121500I75000J0D01*
G01*
G37*
G04 #@! TD.AperFunction*
G04 #@! TA.AperFunction,SMDPad,CuDef*
G36*
G01*
X119635000Y-132621500D02*
X120960000Y-132621500D01*
G75*
G02*
X121035000Y-132696500I0J-75000D01*
G01*
X121035000Y-132846500D01*
G75*
G02*
X120960000Y-132921500I-75000J0D01*
G01*
X119635000Y-132921500D01*
G75*
G02*
X119560000Y-132846500I0J75000D01*
G01*
X119560000Y-132696500D01*
G75*
G02*
X119635000Y-132621500I75000J0D01*
G01*
G37*
G04 #@! TD.AperFunction*
G04 #@! TA.AperFunction,SMDPad,CuDef*
G36*
G01*
X119635000Y-132121500D02*
X120960000Y-132121500D01*
G75*
G02*
X121035000Y-132196500I0J-75000D01*
G01*
X121035000Y-132346500D01*
G75*
G02*
X120960000Y-132421500I-75000J0D01*
G01*
X119635000Y-132421500D01*
G75*
G02*
X119560000Y-132346500I0J75000D01*
G01*
X119560000Y-132196500D01*
G75*
G02*
X119635000Y-132121500I75000J0D01*
G01*
G37*
G04 #@! TD.AperFunction*
G04 #@! TA.AperFunction,SMDPad,CuDef*
G36*
G01*
X119635000Y-131621500D02*
X120960000Y-131621500D01*
G75*
G02*
X121035000Y-131696500I0J-75000D01*
G01*
X121035000Y-131846500D01*
G75*
G02*
X120960000Y-131921500I-75000J0D01*
G01*
X119635000Y-131921500D01*
G75*
G02*
X119560000Y-131846500I0J75000D01*
G01*
X119560000Y-131696500D01*
G75*
G02*
X119635000Y-131621500I75000J0D01*
G01*
G37*
G04 #@! TD.AperFunction*
G04 #@! TA.AperFunction,SMDPad,CuDef*
G36*
G01*
X121635000Y-129621500D02*
X121785000Y-129621500D01*
G75*
G02*
X121860000Y-129696500I0J-75000D01*
G01*
X121860000Y-131021500D01*
G75*
G02*
X121785000Y-131096500I-75000J0D01*
G01*
X121635000Y-131096500D01*
G75*
G02*
X121560000Y-131021500I0J75000D01*
G01*
X121560000Y-129696500D01*
G75*
G02*
X121635000Y-129621500I75000J0D01*
G01*
G37*
G04 #@! TD.AperFunction*
G04 #@! TA.AperFunction,SMDPad,CuDef*
G36*
G01*
X122135000Y-129621500D02*
X122285000Y-129621500D01*
G75*
G02*
X122360000Y-129696500I0J-75000D01*
G01*
X122360000Y-131021500D01*
G75*
G02*
X122285000Y-131096500I-75000J0D01*
G01*
X122135000Y-131096500D01*
G75*
G02*
X122060000Y-131021500I0J75000D01*
G01*
X122060000Y-129696500D01*
G75*
G02*
X122135000Y-129621500I75000J0D01*
G01*
G37*
G04 #@! TD.AperFunction*
G04 #@! TA.AperFunction,SMDPad,CuDef*
G36*
G01*
X122635000Y-129621500D02*
X122785000Y-129621500D01*
G75*
G02*
X122860000Y-129696500I0J-75000D01*
G01*
X122860000Y-131021500D01*
G75*
G02*
X122785000Y-131096500I-75000J0D01*
G01*
X122635000Y-131096500D01*
G75*
G02*
X122560000Y-131021500I0J75000D01*
G01*
X122560000Y-129696500D01*
G75*
G02*
X122635000Y-129621500I75000J0D01*
G01*
G37*
G04 #@! TD.AperFunction*
G04 #@! TA.AperFunction,SMDPad,CuDef*
G36*
G01*
X123135000Y-129621500D02*
X123285000Y-129621500D01*
G75*
G02*
X123360000Y-129696500I0J-75000D01*
G01*
X123360000Y-131021500D01*
G75*
G02*
X123285000Y-131096500I-75000J0D01*
G01*
X123135000Y-131096500D01*
G75*
G02*
X123060000Y-131021500I0J75000D01*
G01*
X123060000Y-129696500D01*
G75*
G02*
X123135000Y-129621500I75000J0D01*
G01*
G37*
G04 #@! TD.AperFunction*
G04 #@! TA.AperFunction,SMDPad,CuDef*
G36*
G01*
X123635000Y-129621500D02*
X123785000Y-129621500D01*
G75*
G02*
X123860000Y-129696500I0J-75000D01*
G01*
X123860000Y-131021500D01*
G75*
G02*
X123785000Y-131096500I-75000J0D01*
G01*
X123635000Y-131096500D01*
G75*
G02*
X123560000Y-131021500I0J75000D01*
G01*
X123560000Y-129696500D01*
G75*
G02*
X123635000Y-129621500I75000J0D01*
G01*
G37*
G04 #@! TD.AperFunction*
G04 #@! TA.AperFunction,SMDPad,CuDef*
G36*
G01*
X124135000Y-129621500D02*
X124285000Y-129621500D01*
G75*
G02*
X124360000Y-129696500I0J-75000D01*
G01*
X124360000Y-131021500D01*
G75*
G02*
X124285000Y-131096500I-75000J0D01*
G01*
X124135000Y-131096500D01*
G75*
G02*
X124060000Y-131021500I0J75000D01*
G01*
X124060000Y-129696500D01*
G75*
G02*
X124135000Y-129621500I75000J0D01*
G01*
G37*
G04 #@! TD.AperFunction*
G04 #@! TA.AperFunction,SMDPad,CuDef*
G36*
G01*
X124635000Y-129621500D02*
X124785000Y-129621500D01*
G75*
G02*
X124860000Y-129696500I0J-75000D01*
G01*
X124860000Y-131021500D01*
G75*
G02*
X124785000Y-131096500I-75000J0D01*
G01*
X124635000Y-131096500D01*
G75*
G02*
X124560000Y-131021500I0J75000D01*
G01*
X124560000Y-129696500D01*
G75*
G02*
X124635000Y-129621500I75000J0D01*
G01*
G37*
G04 #@! TD.AperFunction*
G04 #@! TA.AperFunction,SMDPad,CuDef*
G36*
G01*
X125135000Y-129621500D02*
X125285000Y-129621500D01*
G75*
G02*
X125360000Y-129696500I0J-75000D01*
G01*
X125360000Y-131021500D01*
G75*
G02*
X125285000Y-131096500I-75000J0D01*
G01*
X125135000Y-131096500D01*
G75*
G02*
X125060000Y-131021500I0J75000D01*
G01*
X125060000Y-129696500D01*
G75*
G02*
X125135000Y-129621500I75000J0D01*
G01*
G37*
G04 #@! TD.AperFunction*
G04 #@! TA.AperFunction,SMDPad,CuDef*
G36*
G01*
X125635000Y-129621500D02*
X125785000Y-129621500D01*
G75*
G02*
X125860000Y-129696500I0J-75000D01*
G01*
X125860000Y-131021500D01*
G75*
G02*
X125785000Y-131096500I-75000J0D01*
G01*
X125635000Y-131096500D01*
G75*
G02*
X125560000Y-131021500I0J75000D01*
G01*
X125560000Y-129696500D01*
G75*
G02*
X125635000Y-129621500I75000J0D01*
G01*
G37*
G04 #@! TD.AperFunction*
G04 #@! TA.AperFunction,SMDPad,CuDef*
G36*
G01*
X126135000Y-129621500D02*
X126285000Y-129621500D01*
G75*
G02*
X126360000Y-129696500I0J-75000D01*
G01*
X126360000Y-131021500D01*
G75*
G02*
X126285000Y-131096500I-75000J0D01*
G01*
X126135000Y-131096500D01*
G75*
G02*
X126060000Y-131021500I0J75000D01*
G01*
X126060000Y-129696500D01*
G75*
G02*
X126135000Y-129621500I75000J0D01*
G01*
G37*
G04 #@! TD.AperFunction*
G04 #@! TA.AperFunction,SMDPad,CuDef*
G36*
G01*
X126635000Y-129621500D02*
X126785000Y-129621500D01*
G75*
G02*
X126860000Y-129696500I0J-75000D01*
G01*
X126860000Y-131021500D01*
G75*
G02*
X126785000Y-131096500I-75000J0D01*
G01*
X126635000Y-131096500D01*
G75*
G02*
X126560000Y-131021500I0J75000D01*
G01*
X126560000Y-129696500D01*
G75*
G02*
X126635000Y-129621500I75000J0D01*
G01*
G37*
G04 #@! TD.AperFunction*
G04 #@! TA.AperFunction,SMDPad,CuDef*
G36*
G01*
X127135000Y-129621500D02*
X127285000Y-129621500D01*
G75*
G02*
X127360000Y-129696500I0J-75000D01*
G01*
X127360000Y-131021500D01*
G75*
G02*
X127285000Y-131096500I-75000J0D01*
G01*
X127135000Y-131096500D01*
G75*
G02*
X127060000Y-131021500I0J75000D01*
G01*
X127060000Y-129696500D01*
G75*
G02*
X127135000Y-129621500I75000J0D01*
G01*
G37*
G04 #@! TD.AperFunction*
G04 #@! TA.AperFunction,SMDPad,CuDef*
G36*
G01*
X92487000Y-50048000D02*
X92687000Y-50048000D01*
G75*
G02*
X92787000Y-50148000I0J-100000D01*
G01*
X92787000Y-51848000D01*
G75*
G02*
X92687000Y-51948000I-100000J0D01*
G01*
X92487000Y-51948000D01*
G75*
G02*
X92387000Y-51848000I0J100000D01*
G01*
X92387000Y-50148000D01*
G75*
G02*
X92487000Y-50048000I100000J0D01*
G01*
G37*
G04 #@! TD.AperFunction*
G04 #@! TA.AperFunction,SMDPad,CuDef*
G36*
G01*
X91837000Y-50048000D02*
X92037000Y-50048000D01*
G75*
G02*
X92137000Y-50148000I0J-100000D01*
G01*
X92137000Y-51848000D01*
G75*
G02*
X92037000Y-51948000I-100000J0D01*
G01*
X91837000Y-51948000D01*
G75*
G02*
X91737000Y-51848000I0J100000D01*
G01*
X91737000Y-50148000D01*
G75*
G02*
X91837000Y-50048000I100000J0D01*
G01*
G37*
G04 #@! TD.AperFunction*
G04 #@! TA.AperFunction,SMDPad,CuDef*
G36*
G01*
X91187000Y-50048000D02*
X91387000Y-50048000D01*
G75*
G02*
X91487000Y-50148000I0J-100000D01*
G01*
X91487000Y-51848000D01*
G75*
G02*
X91387000Y-51948000I-100000J0D01*
G01*
X91187000Y-51948000D01*
G75*
G02*
X91087000Y-51848000I0J100000D01*
G01*
X91087000Y-50148000D01*
G75*
G02*
X91187000Y-50048000I100000J0D01*
G01*
G37*
G04 #@! TD.AperFunction*
G04 #@! TA.AperFunction,SMDPad,CuDef*
G36*
G01*
X90537000Y-50048000D02*
X90737000Y-50048000D01*
G75*
G02*
X90837000Y-50148000I0J-100000D01*
G01*
X90837000Y-51848000D01*
G75*
G02*
X90737000Y-51948000I-100000J0D01*
G01*
X90537000Y-51948000D01*
G75*
G02*
X90437000Y-51848000I0J100000D01*
G01*
X90437000Y-50148000D01*
G75*
G02*
X90537000Y-50048000I100000J0D01*
G01*
G37*
G04 #@! TD.AperFunction*
G04 #@! TA.AperFunction,SMDPad,CuDef*
G36*
G01*
X89887000Y-50048000D02*
X90087000Y-50048000D01*
G75*
G02*
X90187000Y-50148000I0J-100000D01*
G01*
X90187000Y-51848000D01*
G75*
G02*
X90087000Y-51948000I-100000J0D01*
G01*
X89887000Y-51948000D01*
G75*
G02*
X89787000Y-51848000I0J100000D01*
G01*
X89787000Y-50148000D01*
G75*
G02*
X89887000Y-50048000I100000J0D01*
G01*
G37*
G04 #@! TD.AperFunction*
G04 #@! TA.AperFunction,SMDPad,CuDef*
G36*
G01*
X89237000Y-50048000D02*
X89437000Y-50048000D01*
G75*
G02*
X89537000Y-50148000I0J-100000D01*
G01*
X89537000Y-51848000D01*
G75*
G02*
X89437000Y-51948000I-100000J0D01*
G01*
X89237000Y-51948000D01*
G75*
G02*
X89137000Y-51848000I0J100000D01*
G01*
X89137000Y-50148000D01*
G75*
G02*
X89237000Y-50048000I100000J0D01*
G01*
G37*
G04 #@! TD.AperFunction*
G04 #@! TA.AperFunction,SMDPad,CuDef*
G36*
G01*
X88587000Y-50048000D02*
X88787000Y-50048000D01*
G75*
G02*
X88887000Y-50148000I0J-100000D01*
G01*
X88887000Y-51848000D01*
G75*
G02*
X88787000Y-51948000I-100000J0D01*
G01*
X88587000Y-51948000D01*
G75*
G02*
X88487000Y-51848000I0J100000D01*
G01*
X88487000Y-50148000D01*
G75*
G02*
X88587000Y-50048000I100000J0D01*
G01*
G37*
G04 #@! TD.AperFunction*
G04 #@! TA.AperFunction,SMDPad,CuDef*
G36*
G01*
X87937000Y-50048000D02*
X88137000Y-50048000D01*
G75*
G02*
X88237000Y-50148000I0J-100000D01*
G01*
X88237000Y-51848000D01*
G75*
G02*
X88137000Y-51948000I-100000J0D01*
G01*
X87937000Y-51948000D01*
G75*
G02*
X87837000Y-51848000I0J100000D01*
G01*
X87837000Y-50148000D01*
G75*
G02*
X87937000Y-50048000I100000J0D01*
G01*
G37*
G04 #@! TD.AperFunction*
G04 #@! TA.AperFunction,SMDPad,CuDef*
G36*
G01*
X87287000Y-50048000D02*
X87487000Y-50048000D01*
G75*
G02*
X87587000Y-50148000I0J-100000D01*
G01*
X87587000Y-51848000D01*
G75*
G02*
X87487000Y-51948000I-100000J0D01*
G01*
X87287000Y-51948000D01*
G75*
G02*
X87187000Y-51848000I0J100000D01*
G01*
X87187000Y-50148000D01*
G75*
G02*
X87287000Y-50048000I100000J0D01*
G01*
G37*
G04 #@! TD.AperFunction*
G04 #@! TA.AperFunction,SMDPad,CuDef*
G36*
G01*
X86637000Y-50048000D02*
X86837000Y-50048000D01*
G75*
G02*
X86937000Y-50148000I0J-100000D01*
G01*
X86937000Y-51848000D01*
G75*
G02*
X86837000Y-51948000I-100000J0D01*
G01*
X86637000Y-51948000D01*
G75*
G02*
X86537000Y-51848000I0J100000D01*
G01*
X86537000Y-50148000D01*
G75*
G02*
X86637000Y-50048000I100000J0D01*
G01*
G37*
G04 #@! TD.AperFunction*
G04 #@! TA.AperFunction,SMDPad,CuDef*
G36*
G01*
X86637000Y-43048000D02*
X86837000Y-43048000D01*
G75*
G02*
X86937000Y-43148000I0J-100000D01*
G01*
X86937000Y-44848000D01*
G75*
G02*
X86837000Y-44948000I-100000J0D01*
G01*
X86637000Y-44948000D01*
G75*
G02*
X86537000Y-44848000I0J100000D01*
G01*
X86537000Y-43148000D01*
G75*
G02*
X86637000Y-43048000I100000J0D01*
G01*
G37*
G04 #@! TD.AperFunction*
G04 #@! TA.AperFunction,SMDPad,CuDef*
G36*
G01*
X87287000Y-43048000D02*
X87487000Y-43048000D01*
G75*
G02*
X87587000Y-43148000I0J-100000D01*
G01*
X87587000Y-44848000D01*
G75*
G02*
X87487000Y-44948000I-100000J0D01*
G01*
X87287000Y-44948000D01*
G75*
G02*
X87187000Y-44848000I0J100000D01*
G01*
X87187000Y-43148000D01*
G75*
G02*
X87287000Y-43048000I100000J0D01*
G01*
G37*
G04 #@! TD.AperFunction*
G04 #@! TA.AperFunction,SMDPad,CuDef*
G36*
G01*
X87937000Y-43048000D02*
X88137000Y-43048000D01*
G75*
G02*
X88237000Y-43148000I0J-100000D01*
G01*
X88237000Y-44848000D01*
G75*
G02*
X88137000Y-44948000I-100000J0D01*
G01*
X87937000Y-44948000D01*
G75*
G02*
X87837000Y-44848000I0J100000D01*
G01*
X87837000Y-43148000D01*
G75*
G02*
X87937000Y-43048000I100000J0D01*
G01*
G37*
G04 #@! TD.AperFunction*
G04 #@! TA.AperFunction,SMDPad,CuDef*
G36*
G01*
X88587000Y-43048000D02*
X88787000Y-43048000D01*
G75*
G02*
X88887000Y-43148000I0J-100000D01*
G01*
X88887000Y-44848000D01*
G75*
G02*
X88787000Y-44948000I-100000J0D01*
G01*
X88587000Y-44948000D01*
G75*
G02*
X88487000Y-44848000I0J100000D01*
G01*
X88487000Y-43148000D01*
G75*
G02*
X88587000Y-43048000I100000J0D01*
G01*
G37*
G04 #@! TD.AperFunction*
G04 #@! TA.AperFunction,SMDPad,CuDef*
G36*
G01*
X89237000Y-43048000D02*
X89437000Y-43048000D01*
G75*
G02*
X89537000Y-43148000I0J-100000D01*
G01*
X89537000Y-44848000D01*
G75*
G02*
X89437000Y-44948000I-100000J0D01*
G01*
X89237000Y-44948000D01*
G75*
G02*
X89137000Y-44848000I0J100000D01*
G01*
X89137000Y-43148000D01*
G75*
G02*
X89237000Y-43048000I100000J0D01*
G01*
G37*
G04 #@! TD.AperFunction*
G04 #@! TA.AperFunction,SMDPad,CuDef*
G36*
G01*
X89887000Y-43048000D02*
X90087000Y-43048000D01*
G75*
G02*
X90187000Y-43148000I0J-100000D01*
G01*
X90187000Y-44848000D01*
G75*
G02*
X90087000Y-44948000I-100000J0D01*
G01*
X89887000Y-44948000D01*
G75*
G02*
X89787000Y-44848000I0J100000D01*
G01*
X89787000Y-43148000D01*
G75*
G02*
X89887000Y-43048000I100000J0D01*
G01*
G37*
G04 #@! TD.AperFunction*
G04 #@! TA.AperFunction,SMDPad,CuDef*
G36*
G01*
X90537000Y-43048000D02*
X90737000Y-43048000D01*
G75*
G02*
X90837000Y-43148000I0J-100000D01*
G01*
X90837000Y-44848000D01*
G75*
G02*
X90737000Y-44948000I-100000J0D01*
G01*
X90537000Y-44948000D01*
G75*
G02*
X90437000Y-44848000I0J100000D01*
G01*
X90437000Y-43148000D01*
G75*
G02*
X90537000Y-43048000I100000J0D01*
G01*
G37*
G04 #@! TD.AperFunction*
G04 #@! TA.AperFunction,SMDPad,CuDef*
G36*
G01*
X91187000Y-43048000D02*
X91387000Y-43048000D01*
G75*
G02*
X91487000Y-43148000I0J-100000D01*
G01*
X91487000Y-44848000D01*
G75*
G02*
X91387000Y-44948000I-100000J0D01*
G01*
X91187000Y-44948000D01*
G75*
G02*
X91087000Y-44848000I0J100000D01*
G01*
X91087000Y-43148000D01*
G75*
G02*
X91187000Y-43048000I100000J0D01*
G01*
G37*
G04 #@! TD.AperFunction*
G04 #@! TA.AperFunction,SMDPad,CuDef*
G36*
G01*
X91837000Y-43048000D02*
X92037000Y-43048000D01*
G75*
G02*
X92137000Y-43148000I0J-100000D01*
G01*
X92137000Y-44848000D01*
G75*
G02*
X92037000Y-44948000I-100000J0D01*
G01*
X91837000Y-44948000D01*
G75*
G02*
X91737000Y-44848000I0J100000D01*
G01*
X91737000Y-43148000D01*
G75*
G02*
X91837000Y-43048000I100000J0D01*
G01*
G37*
G04 #@! TD.AperFunction*
G04 #@! TA.AperFunction,SMDPad,CuDef*
G36*
G01*
X92487000Y-43048000D02*
X92687000Y-43048000D01*
G75*
G02*
X92787000Y-43148000I0J-100000D01*
G01*
X92787000Y-44848000D01*
G75*
G02*
X92687000Y-44948000I-100000J0D01*
G01*
X92487000Y-44948000D01*
G75*
G02*
X92387000Y-44848000I0J100000D01*
G01*
X92387000Y-43148000D01*
G75*
G02*
X92487000Y-43048000I100000J0D01*
G01*
G37*
G04 #@! TD.AperFunction*
G04 #@! TA.AperFunction,SMDPad,CuDef*
G36*
G01*
X115855000Y-42032000D02*
X116055000Y-42032000D01*
G75*
G02*
X116155000Y-42132000I0J-100000D01*
G01*
X116155000Y-43832000D01*
G75*
G02*
X116055000Y-43932000I-100000J0D01*
G01*
X115855000Y-43932000D01*
G75*
G02*
X115755000Y-43832000I0J100000D01*
G01*
X115755000Y-42132000D01*
G75*
G02*
X115855000Y-42032000I100000J0D01*
G01*
G37*
G04 #@! TD.AperFunction*
G04 #@! TA.AperFunction,SMDPad,CuDef*
G36*
G01*
X115205000Y-42032000D02*
X115405000Y-42032000D01*
G75*
G02*
X115505000Y-42132000I0J-100000D01*
G01*
X115505000Y-43832000D01*
G75*
G02*
X115405000Y-43932000I-100000J0D01*
G01*
X115205000Y-43932000D01*
G75*
G02*
X115105000Y-43832000I0J100000D01*
G01*
X115105000Y-42132000D01*
G75*
G02*
X115205000Y-42032000I100000J0D01*
G01*
G37*
G04 #@! TD.AperFunction*
G04 #@! TA.AperFunction,SMDPad,CuDef*
G36*
G01*
X114555000Y-42032000D02*
X114755000Y-42032000D01*
G75*
G02*
X114855000Y-42132000I0J-100000D01*
G01*
X114855000Y-43832000D01*
G75*
G02*
X114755000Y-43932000I-100000J0D01*
G01*
X114555000Y-43932000D01*
G75*
G02*
X114455000Y-43832000I0J100000D01*
G01*
X114455000Y-42132000D01*
G75*
G02*
X114555000Y-42032000I100000J0D01*
G01*
G37*
G04 #@! TD.AperFunction*
G04 #@! TA.AperFunction,SMDPad,CuDef*
G36*
G01*
X113905000Y-42032000D02*
X114105000Y-42032000D01*
G75*
G02*
X114205000Y-42132000I0J-100000D01*
G01*
X114205000Y-43832000D01*
G75*
G02*
X114105000Y-43932000I-100000J0D01*
G01*
X113905000Y-43932000D01*
G75*
G02*
X113805000Y-43832000I0J100000D01*
G01*
X113805000Y-42132000D01*
G75*
G02*
X113905000Y-42032000I100000J0D01*
G01*
G37*
G04 #@! TD.AperFunction*
G04 #@! TA.AperFunction,SMDPad,CuDef*
G36*
G01*
X113255000Y-42032000D02*
X113455000Y-42032000D01*
G75*
G02*
X113555000Y-42132000I0J-100000D01*
G01*
X113555000Y-43832000D01*
G75*
G02*
X113455000Y-43932000I-100000J0D01*
G01*
X113255000Y-43932000D01*
G75*
G02*
X113155000Y-43832000I0J100000D01*
G01*
X113155000Y-42132000D01*
G75*
G02*
X113255000Y-42032000I100000J0D01*
G01*
G37*
G04 #@! TD.AperFunction*
G04 #@! TA.AperFunction,SMDPad,CuDef*
G36*
G01*
X112605000Y-42032000D02*
X112805000Y-42032000D01*
G75*
G02*
X112905000Y-42132000I0J-100000D01*
G01*
X112905000Y-43832000D01*
G75*
G02*
X112805000Y-43932000I-100000J0D01*
G01*
X112605000Y-43932000D01*
G75*
G02*
X112505000Y-43832000I0J100000D01*
G01*
X112505000Y-42132000D01*
G75*
G02*
X112605000Y-42032000I100000J0D01*
G01*
G37*
G04 #@! TD.AperFunction*
G04 #@! TA.AperFunction,SMDPad,CuDef*
G36*
G01*
X111955000Y-42032000D02*
X112155000Y-42032000D01*
G75*
G02*
X112255000Y-42132000I0J-100000D01*
G01*
X112255000Y-43832000D01*
G75*
G02*
X112155000Y-43932000I-100000J0D01*
G01*
X111955000Y-43932000D01*
G75*
G02*
X111855000Y-43832000I0J100000D01*
G01*
X111855000Y-42132000D01*
G75*
G02*
X111955000Y-42032000I100000J0D01*
G01*
G37*
G04 #@! TD.AperFunction*
G04 #@! TA.AperFunction,SMDPad,CuDef*
G36*
G01*
X111305000Y-42032000D02*
X111505000Y-42032000D01*
G75*
G02*
X111605000Y-42132000I0J-100000D01*
G01*
X111605000Y-43832000D01*
G75*
G02*
X111505000Y-43932000I-100000J0D01*
G01*
X111305000Y-43932000D01*
G75*
G02*
X111205000Y-43832000I0J100000D01*
G01*
X111205000Y-42132000D01*
G75*
G02*
X111305000Y-42032000I100000J0D01*
G01*
G37*
G04 #@! TD.AperFunction*
G04 #@! TA.AperFunction,SMDPad,CuDef*
G36*
G01*
X110655000Y-42032000D02*
X110855000Y-42032000D01*
G75*
G02*
X110955000Y-42132000I0J-100000D01*
G01*
X110955000Y-43832000D01*
G75*
G02*
X110855000Y-43932000I-100000J0D01*
G01*
X110655000Y-43932000D01*
G75*
G02*
X110555000Y-43832000I0J100000D01*
G01*
X110555000Y-42132000D01*
G75*
G02*
X110655000Y-42032000I100000J0D01*
G01*
G37*
G04 #@! TD.AperFunction*
G04 #@! TA.AperFunction,SMDPad,CuDef*
G36*
G01*
X110005000Y-42032000D02*
X110205000Y-42032000D01*
G75*
G02*
X110305000Y-42132000I0J-100000D01*
G01*
X110305000Y-43832000D01*
G75*
G02*
X110205000Y-43932000I-100000J0D01*
G01*
X110005000Y-43932000D01*
G75*
G02*
X109905000Y-43832000I0J100000D01*
G01*
X109905000Y-42132000D01*
G75*
G02*
X110005000Y-42032000I100000J0D01*
G01*
G37*
G04 #@! TD.AperFunction*
G04 #@! TA.AperFunction,SMDPad,CuDef*
G36*
G01*
X110005000Y-49032000D02*
X110205000Y-49032000D01*
G75*
G02*
X110305000Y-49132000I0J-100000D01*
G01*
X110305000Y-50832000D01*
G75*
G02*
X110205000Y-50932000I-100000J0D01*
G01*
X110005000Y-50932000D01*
G75*
G02*
X109905000Y-50832000I0J100000D01*
G01*
X109905000Y-49132000D01*
G75*
G02*
X110005000Y-49032000I100000J0D01*
G01*
G37*
G04 #@! TD.AperFunction*
G04 #@! TA.AperFunction,SMDPad,CuDef*
G36*
G01*
X110655000Y-49032000D02*
X110855000Y-49032000D01*
G75*
G02*
X110955000Y-49132000I0J-100000D01*
G01*
X110955000Y-50832000D01*
G75*
G02*
X110855000Y-50932000I-100000J0D01*
G01*
X110655000Y-50932000D01*
G75*
G02*
X110555000Y-50832000I0J100000D01*
G01*
X110555000Y-49132000D01*
G75*
G02*
X110655000Y-49032000I100000J0D01*
G01*
G37*
G04 #@! TD.AperFunction*
G04 #@! TA.AperFunction,SMDPad,CuDef*
G36*
G01*
X111305000Y-49032000D02*
X111505000Y-49032000D01*
G75*
G02*
X111605000Y-49132000I0J-100000D01*
G01*
X111605000Y-50832000D01*
G75*
G02*
X111505000Y-50932000I-100000J0D01*
G01*
X111305000Y-50932000D01*
G75*
G02*
X111205000Y-50832000I0J100000D01*
G01*
X111205000Y-49132000D01*
G75*
G02*
X111305000Y-49032000I100000J0D01*
G01*
G37*
G04 #@! TD.AperFunction*
G04 #@! TA.AperFunction,SMDPad,CuDef*
G36*
G01*
X111955000Y-49032000D02*
X112155000Y-49032000D01*
G75*
G02*
X112255000Y-49132000I0J-100000D01*
G01*
X112255000Y-50832000D01*
G75*
G02*
X112155000Y-50932000I-100000J0D01*
G01*
X111955000Y-50932000D01*
G75*
G02*
X111855000Y-50832000I0J100000D01*
G01*
X111855000Y-49132000D01*
G75*
G02*
X111955000Y-49032000I100000J0D01*
G01*
G37*
G04 #@! TD.AperFunction*
G04 #@! TA.AperFunction,SMDPad,CuDef*
G36*
G01*
X112605000Y-49032000D02*
X112805000Y-49032000D01*
G75*
G02*
X112905000Y-49132000I0J-100000D01*
G01*
X112905000Y-50832000D01*
G75*
G02*
X112805000Y-50932000I-100000J0D01*
G01*
X112605000Y-50932000D01*
G75*
G02*
X112505000Y-50832000I0J100000D01*
G01*
X112505000Y-49132000D01*
G75*
G02*
X112605000Y-49032000I100000J0D01*
G01*
G37*
G04 #@! TD.AperFunction*
G04 #@! TA.AperFunction,SMDPad,CuDef*
G36*
G01*
X113255000Y-49032000D02*
X113455000Y-49032000D01*
G75*
G02*
X113555000Y-49132000I0J-100000D01*
G01*
X113555000Y-50832000D01*
G75*
G02*
X113455000Y-50932000I-100000J0D01*
G01*
X113255000Y-50932000D01*
G75*
G02*
X113155000Y-50832000I0J100000D01*
G01*
X113155000Y-49132000D01*
G75*
G02*
X113255000Y-49032000I100000J0D01*
G01*
G37*
G04 #@! TD.AperFunction*
G04 #@! TA.AperFunction,SMDPad,CuDef*
G36*
G01*
X113905000Y-49032000D02*
X114105000Y-49032000D01*
G75*
G02*
X114205000Y-49132000I0J-100000D01*
G01*
X114205000Y-50832000D01*
G75*
G02*
X114105000Y-50932000I-100000J0D01*
G01*
X113905000Y-50932000D01*
G75*
G02*
X113805000Y-50832000I0J100000D01*
G01*
X113805000Y-49132000D01*
G75*
G02*
X113905000Y-49032000I100000J0D01*
G01*
G37*
G04 #@! TD.AperFunction*
G04 #@! TA.AperFunction,SMDPad,CuDef*
G36*
G01*
X114555000Y-49032000D02*
X114755000Y-49032000D01*
G75*
G02*
X114855000Y-49132000I0J-100000D01*
G01*
X114855000Y-50832000D01*
G75*
G02*
X114755000Y-50932000I-100000J0D01*
G01*
X114555000Y-50932000D01*
G75*
G02*
X114455000Y-50832000I0J100000D01*
G01*
X114455000Y-49132000D01*
G75*
G02*
X114555000Y-49032000I100000J0D01*
G01*
G37*
G04 #@! TD.AperFunction*
G04 #@! TA.AperFunction,SMDPad,CuDef*
G36*
G01*
X115205000Y-49032000D02*
X115405000Y-49032000D01*
G75*
G02*
X115505000Y-49132000I0J-100000D01*
G01*
X115505000Y-50832000D01*
G75*
G02*
X115405000Y-50932000I-100000J0D01*
G01*
X115205000Y-50932000D01*
G75*
G02*
X115105000Y-50832000I0J100000D01*
G01*
X115105000Y-49132000D01*
G75*
G02*
X115205000Y-49032000I100000J0D01*
G01*
G37*
G04 #@! TD.AperFunction*
G04 #@! TA.AperFunction,SMDPad,CuDef*
G36*
G01*
X115855000Y-49032000D02*
X116055000Y-49032000D01*
G75*
G02*
X116155000Y-49132000I0J-100000D01*
G01*
X116155000Y-50832000D01*
G75*
G02*
X116055000Y-50932000I-100000J0D01*
G01*
X115855000Y-50932000D01*
G75*
G02*
X115755000Y-50832000I0J100000D01*
G01*
X115755000Y-49132000D01*
G75*
G02*
X115855000Y-49032000I100000J0D01*
G01*
G37*
G04 #@! TD.AperFunction*
G04 #@! TA.AperFunction,SMDPad,CuDef*
G36*
G01*
X155920000Y-129621500D02*
X156070000Y-129621500D01*
G75*
G02*
X156145000Y-129696500I0J-75000D01*
G01*
X156145000Y-131021500D01*
G75*
G02*
X156070000Y-131096500I-75000J0D01*
G01*
X155920000Y-131096500D01*
G75*
G02*
X155845000Y-131021500I0J75000D01*
G01*
X155845000Y-129696500D01*
G75*
G02*
X155920000Y-129621500I75000J0D01*
G01*
G37*
G04 #@! TD.AperFunction*
G04 #@! TA.AperFunction,SMDPad,CuDef*
G36*
G01*
X155420000Y-129621500D02*
X155570000Y-129621500D01*
G75*
G02*
X155645000Y-129696500I0J-75000D01*
G01*
X155645000Y-131021500D01*
G75*
G02*
X155570000Y-131096500I-75000J0D01*
G01*
X155420000Y-131096500D01*
G75*
G02*
X155345000Y-131021500I0J75000D01*
G01*
X155345000Y-129696500D01*
G75*
G02*
X155420000Y-129621500I75000J0D01*
G01*
G37*
G04 #@! TD.AperFunction*
G04 #@! TA.AperFunction,SMDPad,CuDef*
G36*
G01*
X154920000Y-129621500D02*
X155070000Y-129621500D01*
G75*
G02*
X155145000Y-129696500I0J-75000D01*
G01*
X155145000Y-131021500D01*
G75*
G02*
X155070000Y-131096500I-75000J0D01*
G01*
X154920000Y-131096500D01*
G75*
G02*
X154845000Y-131021500I0J75000D01*
G01*
X154845000Y-129696500D01*
G75*
G02*
X154920000Y-129621500I75000J0D01*
G01*
G37*
G04 #@! TD.AperFunction*
G04 #@! TA.AperFunction,SMDPad,CuDef*
G36*
G01*
X154420000Y-129621500D02*
X154570000Y-129621500D01*
G75*
G02*
X154645000Y-129696500I0J-75000D01*
G01*
X154645000Y-131021500D01*
G75*
G02*
X154570000Y-131096500I-75000J0D01*
G01*
X154420000Y-131096500D01*
G75*
G02*
X154345000Y-131021500I0J75000D01*
G01*
X154345000Y-129696500D01*
G75*
G02*
X154420000Y-129621500I75000J0D01*
G01*
G37*
G04 #@! TD.AperFunction*
G04 #@! TA.AperFunction,SMDPad,CuDef*
G36*
G01*
X153920000Y-129621500D02*
X154070000Y-129621500D01*
G75*
G02*
X154145000Y-129696500I0J-75000D01*
G01*
X154145000Y-131021500D01*
G75*
G02*
X154070000Y-131096500I-75000J0D01*
G01*
X153920000Y-131096500D01*
G75*
G02*
X153845000Y-131021500I0J75000D01*
G01*
X153845000Y-129696500D01*
G75*
G02*
X153920000Y-129621500I75000J0D01*
G01*
G37*
G04 #@! TD.AperFunction*
G04 #@! TA.AperFunction,SMDPad,CuDef*
G36*
G01*
X153420000Y-129621500D02*
X153570000Y-129621500D01*
G75*
G02*
X153645000Y-129696500I0J-75000D01*
G01*
X153645000Y-131021500D01*
G75*
G02*
X153570000Y-131096500I-75000J0D01*
G01*
X153420000Y-131096500D01*
G75*
G02*
X153345000Y-131021500I0J75000D01*
G01*
X153345000Y-129696500D01*
G75*
G02*
X153420000Y-129621500I75000J0D01*
G01*
G37*
G04 #@! TD.AperFunction*
G04 #@! TA.AperFunction,SMDPad,CuDef*
G36*
G01*
X152920000Y-129621500D02*
X153070000Y-129621500D01*
G75*
G02*
X153145000Y-129696500I0J-75000D01*
G01*
X153145000Y-131021500D01*
G75*
G02*
X153070000Y-131096500I-75000J0D01*
G01*
X152920000Y-131096500D01*
G75*
G02*
X152845000Y-131021500I0J75000D01*
G01*
X152845000Y-129696500D01*
G75*
G02*
X152920000Y-129621500I75000J0D01*
G01*
G37*
G04 #@! TD.AperFunction*
G04 #@! TA.AperFunction,SMDPad,CuDef*
G36*
G01*
X152420000Y-129621500D02*
X152570000Y-129621500D01*
G75*
G02*
X152645000Y-129696500I0J-75000D01*
G01*
X152645000Y-131021500D01*
G75*
G02*
X152570000Y-131096500I-75000J0D01*
G01*
X152420000Y-131096500D01*
G75*
G02*
X152345000Y-131021500I0J75000D01*
G01*
X152345000Y-129696500D01*
G75*
G02*
X152420000Y-129621500I75000J0D01*
G01*
G37*
G04 #@! TD.AperFunction*
G04 #@! TA.AperFunction,SMDPad,CuDef*
G36*
G01*
X151920000Y-129621500D02*
X152070000Y-129621500D01*
G75*
G02*
X152145000Y-129696500I0J-75000D01*
G01*
X152145000Y-131021500D01*
G75*
G02*
X152070000Y-131096500I-75000J0D01*
G01*
X151920000Y-131096500D01*
G75*
G02*
X151845000Y-131021500I0J75000D01*
G01*
X151845000Y-129696500D01*
G75*
G02*
X151920000Y-129621500I75000J0D01*
G01*
G37*
G04 #@! TD.AperFunction*
G04 #@! TA.AperFunction,SMDPad,CuDef*
G36*
G01*
X151420000Y-129621500D02*
X151570000Y-129621500D01*
G75*
G02*
X151645000Y-129696500I0J-75000D01*
G01*
X151645000Y-131021500D01*
G75*
G02*
X151570000Y-131096500I-75000J0D01*
G01*
X151420000Y-131096500D01*
G75*
G02*
X151345000Y-131021500I0J75000D01*
G01*
X151345000Y-129696500D01*
G75*
G02*
X151420000Y-129621500I75000J0D01*
G01*
G37*
G04 #@! TD.AperFunction*
G04 #@! TA.AperFunction,SMDPad,CuDef*
G36*
G01*
X150920000Y-129621500D02*
X151070000Y-129621500D01*
G75*
G02*
X151145000Y-129696500I0J-75000D01*
G01*
X151145000Y-131021500D01*
G75*
G02*
X151070000Y-131096500I-75000J0D01*
G01*
X150920000Y-131096500D01*
G75*
G02*
X150845000Y-131021500I0J75000D01*
G01*
X150845000Y-129696500D01*
G75*
G02*
X150920000Y-129621500I75000J0D01*
G01*
G37*
G04 #@! TD.AperFunction*
G04 #@! TA.AperFunction,SMDPad,CuDef*
G36*
G01*
X150420000Y-129621500D02*
X150570000Y-129621500D01*
G75*
G02*
X150645000Y-129696500I0J-75000D01*
G01*
X150645000Y-131021500D01*
G75*
G02*
X150570000Y-131096500I-75000J0D01*
G01*
X150420000Y-131096500D01*
G75*
G02*
X150345000Y-131021500I0J75000D01*
G01*
X150345000Y-129696500D01*
G75*
G02*
X150420000Y-129621500I75000J0D01*
G01*
G37*
G04 #@! TD.AperFunction*
G04 #@! TA.AperFunction,SMDPad,CuDef*
G36*
G01*
X148420000Y-131621500D02*
X149745000Y-131621500D01*
G75*
G02*
X149820000Y-131696500I0J-75000D01*
G01*
X149820000Y-131846500D01*
G75*
G02*
X149745000Y-131921500I-75000J0D01*
G01*
X148420000Y-131921500D01*
G75*
G02*
X148345000Y-131846500I0J75000D01*
G01*
X148345000Y-131696500D01*
G75*
G02*
X148420000Y-131621500I75000J0D01*
G01*
G37*
G04 #@! TD.AperFunction*
G04 #@! TA.AperFunction,SMDPad,CuDef*
G36*
G01*
X148420000Y-132121500D02*
X149745000Y-132121500D01*
G75*
G02*
X149820000Y-132196500I0J-75000D01*
G01*
X149820000Y-132346500D01*
G75*
G02*
X149745000Y-132421500I-75000J0D01*
G01*
X148420000Y-132421500D01*
G75*
G02*
X148345000Y-132346500I0J75000D01*
G01*
X148345000Y-132196500D01*
G75*
G02*
X148420000Y-132121500I75000J0D01*
G01*
G37*
G04 #@! TD.AperFunction*
G04 #@! TA.AperFunction,SMDPad,CuDef*
G36*
G01*
X148420000Y-132621500D02*
X149745000Y-132621500D01*
G75*
G02*
X149820000Y-132696500I0J-75000D01*
G01*
X149820000Y-132846500D01*
G75*
G02*
X149745000Y-132921500I-75000J0D01*
G01*
X148420000Y-132921500D01*
G75*
G02*
X148345000Y-132846500I0J75000D01*
G01*
X148345000Y-132696500D01*
G75*
G02*
X148420000Y-132621500I75000J0D01*
G01*
G37*
G04 #@! TD.AperFunction*
G04 #@! TA.AperFunction,SMDPad,CuDef*
G36*
G01*
X148420000Y-133121500D02*
X149745000Y-133121500D01*
G75*
G02*
X149820000Y-133196500I0J-75000D01*
G01*
X149820000Y-133346500D01*
G75*
G02*
X149745000Y-133421500I-75000J0D01*
G01*
X148420000Y-133421500D01*
G75*
G02*
X148345000Y-133346500I0J75000D01*
G01*
X148345000Y-133196500D01*
G75*
G02*
X148420000Y-133121500I75000J0D01*
G01*
G37*
G04 #@! TD.AperFunction*
G04 #@! TA.AperFunction,SMDPad,CuDef*
G36*
G01*
X148420000Y-133621500D02*
X149745000Y-133621500D01*
G75*
G02*
X149820000Y-133696500I0J-75000D01*
G01*
X149820000Y-133846500D01*
G75*
G02*
X149745000Y-133921500I-75000J0D01*
G01*
X148420000Y-133921500D01*
G75*
G02*
X148345000Y-133846500I0J75000D01*
G01*
X148345000Y-133696500D01*
G75*
G02*
X148420000Y-133621500I75000J0D01*
G01*
G37*
G04 #@! TD.AperFunction*
G04 #@! TA.AperFunction,SMDPad,CuDef*
G36*
G01*
X148420000Y-134121500D02*
X149745000Y-134121500D01*
G75*
G02*
X149820000Y-134196500I0J-75000D01*
G01*
X149820000Y-134346500D01*
G75*
G02*
X149745000Y-134421500I-75000J0D01*
G01*
X148420000Y-134421500D01*
G75*
G02*
X148345000Y-134346500I0J75000D01*
G01*
X148345000Y-134196500D01*
G75*
G02*
X148420000Y-134121500I75000J0D01*
G01*
G37*
G04 #@! TD.AperFunction*
G04 #@! TA.AperFunction,SMDPad,CuDef*
G36*
G01*
X148420000Y-134621500D02*
X149745000Y-134621500D01*
G75*
G02*
X149820000Y-134696500I0J-75000D01*
G01*
X149820000Y-134846500D01*
G75*
G02*
X149745000Y-134921500I-75000J0D01*
G01*
X148420000Y-134921500D01*
G75*
G02*
X148345000Y-134846500I0J75000D01*
G01*
X148345000Y-134696500D01*
G75*
G02*
X148420000Y-134621500I75000J0D01*
G01*
G37*
G04 #@! TD.AperFunction*
G04 #@! TA.AperFunction,SMDPad,CuDef*
G36*
G01*
X148420000Y-135121500D02*
X149745000Y-135121500D01*
G75*
G02*
X149820000Y-135196500I0J-75000D01*
G01*
X149820000Y-135346500D01*
G75*
G02*
X149745000Y-135421500I-75000J0D01*
G01*
X148420000Y-135421500D01*
G75*
G02*
X148345000Y-135346500I0J75000D01*
G01*
X148345000Y-135196500D01*
G75*
G02*
X148420000Y-135121500I75000J0D01*
G01*
G37*
G04 #@! TD.AperFunction*
G04 #@! TA.AperFunction,SMDPad,CuDef*
G36*
G01*
X148420000Y-135621500D02*
X149745000Y-135621500D01*
G75*
G02*
X149820000Y-135696500I0J-75000D01*
G01*
X149820000Y-135846500D01*
G75*
G02*
X149745000Y-135921500I-75000J0D01*
G01*
X148420000Y-135921500D01*
G75*
G02*
X148345000Y-135846500I0J75000D01*
G01*
X148345000Y-135696500D01*
G75*
G02*
X148420000Y-135621500I75000J0D01*
G01*
G37*
G04 #@! TD.AperFunction*
G04 #@! TA.AperFunction,SMDPad,CuDef*
G36*
G01*
X148420000Y-136121500D02*
X149745000Y-136121500D01*
G75*
G02*
X149820000Y-136196500I0J-75000D01*
G01*
X149820000Y-136346500D01*
G75*
G02*
X149745000Y-136421500I-75000J0D01*
G01*
X148420000Y-136421500D01*
G75*
G02*
X148345000Y-136346500I0J75000D01*
G01*
X148345000Y-136196500D01*
G75*
G02*
X148420000Y-136121500I75000J0D01*
G01*
G37*
G04 #@! TD.AperFunction*
G04 #@! TA.AperFunction,SMDPad,CuDef*
G36*
G01*
X148420000Y-136621500D02*
X149745000Y-136621500D01*
G75*
G02*
X149820000Y-136696500I0J-75000D01*
G01*
X149820000Y-136846500D01*
G75*
G02*
X149745000Y-136921500I-75000J0D01*
G01*
X148420000Y-136921500D01*
G75*
G02*
X148345000Y-136846500I0J75000D01*
G01*
X148345000Y-136696500D01*
G75*
G02*
X148420000Y-136621500I75000J0D01*
G01*
G37*
G04 #@! TD.AperFunction*
G04 #@! TA.AperFunction,SMDPad,CuDef*
G36*
G01*
X148420000Y-137121500D02*
X149745000Y-137121500D01*
G75*
G02*
X149820000Y-137196500I0J-75000D01*
G01*
X149820000Y-137346500D01*
G75*
G02*
X149745000Y-137421500I-75000J0D01*
G01*
X148420000Y-137421500D01*
G75*
G02*
X148345000Y-137346500I0J75000D01*
G01*
X148345000Y-137196500D01*
G75*
G02*
X148420000Y-137121500I75000J0D01*
G01*
G37*
G04 #@! TD.AperFunction*
G04 #@! TA.AperFunction,SMDPad,CuDef*
G36*
G01*
X150420000Y-137946500D02*
X150570000Y-137946500D01*
G75*
G02*
X150645000Y-138021500I0J-75000D01*
G01*
X150645000Y-139346500D01*
G75*
G02*
X150570000Y-139421500I-75000J0D01*
G01*
X150420000Y-139421500D01*
G75*
G02*
X150345000Y-139346500I0J75000D01*
G01*
X150345000Y-138021500D01*
G75*
G02*
X150420000Y-137946500I75000J0D01*
G01*
G37*
G04 #@! TD.AperFunction*
G04 #@! TA.AperFunction,SMDPad,CuDef*
G36*
G01*
X150920000Y-137946500D02*
X151070000Y-137946500D01*
G75*
G02*
X151145000Y-138021500I0J-75000D01*
G01*
X151145000Y-139346500D01*
G75*
G02*
X151070000Y-139421500I-75000J0D01*
G01*
X150920000Y-139421500D01*
G75*
G02*
X150845000Y-139346500I0J75000D01*
G01*
X150845000Y-138021500D01*
G75*
G02*
X150920000Y-137946500I75000J0D01*
G01*
G37*
G04 #@! TD.AperFunction*
G04 #@! TA.AperFunction,SMDPad,CuDef*
G36*
G01*
X151420000Y-137946500D02*
X151570000Y-137946500D01*
G75*
G02*
X151645000Y-138021500I0J-75000D01*
G01*
X151645000Y-139346500D01*
G75*
G02*
X151570000Y-139421500I-75000J0D01*
G01*
X151420000Y-139421500D01*
G75*
G02*
X151345000Y-139346500I0J75000D01*
G01*
X151345000Y-138021500D01*
G75*
G02*
X151420000Y-137946500I75000J0D01*
G01*
G37*
G04 #@! TD.AperFunction*
G04 #@! TA.AperFunction,SMDPad,CuDef*
G36*
G01*
X151920000Y-137946500D02*
X152070000Y-137946500D01*
G75*
G02*
X152145000Y-138021500I0J-75000D01*
G01*
X152145000Y-139346500D01*
G75*
G02*
X152070000Y-139421500I-75000J0D01*
G01*
X151920000Y-139421500D01*
G75*
G02*
X151845000Y-139346500I0J75000D01*
G01*
X151845000Y-138021500D01*
G75*
G02*
X151920000Y-137946500I75000J0D01*
G01*
G37*
G04 #@! TD.AperFunction*
G04 #@! TA.AperFunction,SMDPad,CuDef*
G36*
G01*
X152420000Y-137946500D02*
X152570000Y-137946500D01*
G75*
G02*
X152645000Y-138021500I0J-75000D01*
G01*
X152645000Y-139346500D01*
G75*
G02*
X152570000Y-139421500I-75000J0D01*
G01*
X152420000Y-139421500D01*
G75*
G02*
X152345000Y-139346500I0J75000D01*
G01*
X152345000Y-138021500D01*
G75*
G02*
X152420000Y-137946500I75000J0D01*
G01*
G37*
G04 #@! TD.AperFunction*
G04 #@! TA.AperFunction,SMDPad,CuDef*
G36*
G01*
X152920000Y-137946500D02*
X153070000Y-137946500D01*
G75*
G02*
X153145000Y-138021500I0J-75000D01*
G01*
X153145000Y-139346500D01*
G75*
G02*
X153070000Y-139421500I-75000J0D01*
G01*
X152920000Y-139421500D01*
G75*
G02*
X152845000Y-139346500I0J75000D01*
G01*
X152845000Y-138021500D01*
G75*
G02*
X152920000Y-137946500I75000J0D01*
G01*
G37*
G04 #@! TD.AperFunction*
G04 #@! TA.AperFunction,SMDPad,CuDef*
G36*
G01*
X153420000Y-137946500D02*
X153570000Y-137946500D01*
G75*
G02*
X153645000Y-138021500I0J-75000D01*
G01*
X153645000Y-139346500D01*
G75*
G02*
X153570000Y-139421500I-75000J0D01*
G01*
X153420000Y-139421500D01*
G75*
G02*
X153345000Y-139346500I0J75000D01*
G01*
X153345000Y-138021500D01*
G75*
G02*
X153420000Y-137946500I75000J0D01*
G01*
G37*
G04 #@! TD.AperFunction*
G04 #@! TA.AperFunction,SMDPad,CuDef*
G36*
G01*
X153920000Y-137946500D02*
X154070000Y-137946500D01*
G75*
G02*
X154145000Y-138021500I0J-75000D01*
G01*
X154145000Y-139346500D01*
G75*
G02*
X154070000Y-139421500I-75000J0D01*
G01*
X153920000Y-139421500D01*
G75*
G02*
X153845000Y-139346500I0J75000D01*
G01*
X153845000Y-138021500D01*
G75*
G02*
X153920000Y-137946500I75000J0D01*
G01*
G37*
G04 #@! TD.AperFunction*
G04 #@! TA.AperFunction,SMDPad,CuDef*
G36*
G01*
X154420000Y-137946500D02*
X154570000Y-137946500D01*
G75*
G02*
X154645000Y-138021500I0J-75000D01*
G01*
X154645000Y-139346500D01*
G75*
G02*
X154570000Y-139421500I-75000J0D01*
G01*
X154420000Y-139421500D01*
G75*
G02*
X154345000Y-139346500I0J75000D01*
G01*
X154345000Y-138021500D01*
G75*
G02*
X154420000Y-137946500I75000J0D01*
G01*
G37*
G04 #@! TD.AperFunction*
G04 #@! TA.AperFunction,SMDPad,CuDef*
G36*
G01*
X154920000Y-137946500D02*
X155070000Y-137946500D01*
G75*
G02*
X155145000Y-138021500I0J-75000D01*
G01*
X155145000Y-139346500D01*
G75*
G02*
X155070000Y-139421500I-75000J0D01*
G01*
X154920000Y-139421500D01*
G75*
G02*
X154845000Y-139346500I0J75000D01*
G01*
X154845000Y-138021500D01*
G75*
G02*
X154920000Y-137946500I75000J0D01*
G01*
G37*
G04 #@! TD.AperFunction*
G04 #@! TA.AperFunction,SMDPad,CuDef*
G36*
G01*
X155420000Y-137946500D02*
X155570000Y-137946500D01*
G75*
G02*
X155645000Y-138021500I0J-75000D01*
G01*
X155645000Y-139346500D01*
G75*
G02*
X155570000Y-139421500I-75000J0D01*
G01*
X155420000Y-139421500D01*
G75*
G02*
X155345000Y-139346500I0J75000D01*
G01*
X155345000Y-138021500D01*
G75*
G02*
X155420000Y-137946500I75000J0D01*
G01*
G37*
G04 #@! TD.AperFunction*
G04 #@! TA.AperFunction,SMDPad,CuDef*
G36*
G01*
X155920000Y-137946500D02*
X156070000Y-137946500D01*
G75*
G02*
X156145000Y-138021500I0J-75000D01*
G01*
X156145000Y-139346500D01*
G75*
G02*
X156070000Y-139421500I-75000J0D01*
G01*
X155920000Y-139421500D01*
G75*
G02*
X155845000Y-139346500I0J75000D01*
G01*
X155845000Y-138021500D01*
G75*
G02*
X155920000Y-137946500I75000J0D01*
G01*
G37*
G04 #@! TD.AperFunction*
G04 #@! TA.AperFunction,SMDPad,CuDef*
G36*
G01*
X156745000Y-137121500D02*
X158070000Y-137121500D01*
G75*
G02*
X158145000Y-137196500I0J-75000D01*
G01*
X158145000Y-137346500D01*
G75*
G02*
X158070000Y-137421500I-75000J0D01*
G01*
X156745000Y-137421500D01*
G75*
G02*
X156670000Y-137346500I0J75000D01*
G01*
X156670000Y-137196500D01*
G75*
G02*
X156745000Y-137121500I75000J0D01*
G01*
G37*
G04 #@! TD.AperFunction*
G04 #@! TA.AperFunction,SMDPad,CuDef*
G36*
G01*
X156745000Y-136621500D02*
X158070000Y-136621500D01*
G75*
G02*
X158145000Y-136696500I0J-75000D01*
G01*
X158145000Y-136846500D01*
G75*
G02*
X158070000Y-136921500I-75000J0D01*
G01*
X156745000Y-136921500D01*
G75*
G02*
X156670000Y-136846500I0J75000D01*
G01*
X156670000Y-136696500D01*
G75*
G02*
X156745000Y-136621500I75000J0D01*
G01*
G37*
G04 #@! TD.AperFunction*
G04 #@! TA.AperFunction,SMDPad,CuDef*
G36*
G01*
X156745000Y-136121500D02*
X158070000Y-136121500D01*
G75*
G02*
X158145000Y-136196500I0J-75000D01*
G01*
X158145000Y-136346500D01*
G75*
G02*
X158070000Y-136421500I-75000J0D01*
G01*
X156745000Y-136421500D01*
G75*
G02*
X156670000Y-136346500I0J75000D01*
G01*
X156670000Y-136196500D01*
G75*
G02*
X156745000Y-136121500I75000J0D01*
G01*
G37*
G04 #@! TD.AperFunction*
G04 #@! TA.AperFunction,SMDPad,CuDef*
G36*
G01*
X156745000Y-135621500D02*
X158070000Y-135621500D01*
G75*
G02*
X158145000Y-135696500I0J-75000D01*
G01*
X158145000Y-135846500D01*
G75*
G02*
X158070000Y-135921500I-75000J0D01*
G01*
X156745000Y-135921500D01*
G75*
G02*
X156670000Y-135846500I0J75000D01*
G01*
X156670000Y-135696500D01*
G75*
G02*
X156745000Y-135621500I75000J0D01*
G01*
G37*
G04 #@! TD.AperFunction*
G04 #@! TA.AperFunction,SMDPad,CuDef*
G36*
G01*
X156745000Y-135121500D02*
X158070000Y-135121500D01*
G75*
G02*
X158145000Y-135196500I0J-75000D01*
G01*
X158145000Y-135346500D01*
G75*
G02*
X158070000Y-135421500I-75000J0D01*
G01*
X156745000Y-135421500D01*
G75*
G02*
X156670000Y-135346500I0J75000D01*
G01*
X156670000Y-135196500D01*
G75*
G02*
X156745000Y-135121500I75000J0D01*
G01*
G37*
G04 #@! TD.AperFunction*
G04 #@! TA.AperFunction,SMDPad,CuDef*
G36*
G01*
X156745000Y-134621500D02*
X158070000Y-134621500D01*
G75*
G02*
X158145000Y-134696500I0J-75000D01*
G01*
X158145000Y-134846500D01*
G75*
G02*
X158070000Y-134921500I-75000J0D01*
G01*
X156745000Y-134921500D01*
G75*
G02*
X156670000Y-134846500I0J75000D01*
G01*
X156670000Y-134696500D01*
G75*
G02*
X156745000Y-134621500I75000J0D01*
G01*
G37*
G04 #@! TD.AperFunction*
G04 #@! TA.AperFunction,SMDPad,CuDef*
G36*
G01*
X156745000Y-134121500D02*
X158070000Y-134121500D01*
G75*
G02*
X158145000Y-134196500I0J-75000D01*
G01*
X158145000Y-134346500D01*
G75*
G02*
X158070000Y-134421500I-75000J0D01*
G01*
X156745000Y-134421500D01*
G75*
G02*
X156670000Y-134346500I0J75000D01*
G01*
X156670000Y-134196500D01*
G75*
G02*
X156745000Y-134121500I75000J0D01*
G01*
G37*
G04 #@! TD.AperFunction*
G04 #@! TA.AperFunction,SMDPad,CuDef*
G36*
G01*
X156745000Y-133621500D02*
X158070000Y-133621500D01*
G75*
G02*
X158145000Y-133696500I0J-75000D01*
G01*
X158145000Y-133846500D01*
G75*
G02*
X158070000Y-133921500I-75000J0D01*
G01*
X156745000Y-133921500D01*
G75*
G02*
X156670000Y-133846500I0J75000D01*
G01*
X156670000Y-133696500D01*
G75*
G02*
X156745000Y-133621500I75000J0D01*
G01*
G37*
G04 #@! TD.AperFunction*
G04 #@! TA.AperFunction,SMDPad,CuDef*
G36*
G01*
X156745000Y-133121500D02*
X158070000Y-133121500D01*
G75*
G02*
X158145000Y-133196500I0J-75000D01*
G01*
X158145000Y-133346500D01*
G75*
G02*
X158070000Y-133421500I-75000J0D01*
G01*
X156745000Y-133421500D01*
G75*
G02*
X156670000Y-133346500I0J75000D01*
G01*
X156670000Y-133196500D01*
G75*
G02*
X156745000Y-133121500I75000J0D01*
G01*
G37*
G04 #@! TD.AperFunction*
G04 #@! TA.AperFunction,SMDPad,CuDef*
G36*
G01*
X156745000Y-132621500D02*
X158070000Y-132621500D01*
G75*
G02*
X158145000Y-132696500I0J-75000D01*
G01*
X158145000Y-132846500D01*
G75*
G02*
X158070000Y-132921500I-75000J0D01*
G01*
X156745000Y-132921500D01*
G75*
G02*
X156670000Y-132846500I0J75000D01*
G01*
X156670000Y-132696500D01*
G75*
G02*
X156745000Y-132621500I75000J0D01*
G01*
G37*
G04 #@! TD.AperFunction*
G04 #@! TA.AperFunction,SMDPad,CuDef*
G36*
G01*
X156745000Y-132121500D02*
X158070000Y-132121500D01*
G75*
G02*
X158145000Y-132196500I0J-75000D01*
G01*
X158145000Y-132346500D01*
G75*
G02*
X158070000Y-132421500I-75000J0D01*
G01*
X156745000Y-132421500D01*
G75*
G02*
X156670000Y-132346500I0J75000D01*
G01*
X156670000Y-132196500D01*
G75*
G02*
X156745000Y-132121500I75000J0D01*
G01*
G37*
G04 #@! TD.AperFunction*
G04 #@! TA.AperFunction,SMDPad,CuDef*
G36*
G01*
X156745000Y-131621500D02*
X158070000Y-131621500D01*
G75*
G02*
X158145000Y-131696500I0J-75000D01*
G01*
X158145000Y-131846500D01*
G75*
G02*
X158070000Y-131921500I-75000J0D01*
G01*
X156745000Y-131921500D01*
G75*
G02*
X156670000Y-131846500I0J75000D01*
G01*
X156670000Y-131696500D01*
G75*
G02*
X156745000Y-131621500I75000J0D01*
G01*
G37*
G04 #@! TD.AperFunction*
D35*
X140672000Y-71721000D03*
X140672000Y-72371000D03*
X140672000Y-73021000D03*
X140672000Y-73671000D03*
X140672000Y-74321000D03*
X140672000Y-74971000D03*
X140672000Y-75621000D03*
X140672000Y-76271000D03*
X140672000Y-76921000D03*
X140672000Y-77571000D03*
X140672000Y-78221000D03*
X140672000Y-78871000D03*
X140672000Y-79521000D03*
X140672000Y-80171000D03*
X147872000Y-80171000D03*
X147872000Y-79521000D03*
X147872000Y-78871000D03*
X147872000Y-78221000D03*
X147872000Y-77571000D03*
X147872000Y-76921000D03*
X147872000Y-76271000D03*
X147872000Y-75621000D03*
X147872000Y-74971000D03*
X147872000Y-74321000D03*
X147872000Y-73671000D03*
X147872000Y-73021000D03*
X147872000Y-72371000D03*
X147872000Y-71721000D03*
D26*
X84074000Y-53340000D03*
X84074000Y-48460000D03*
X107188000Y-52578000D03*
X107188000Y-47698000D03*
G04 #@! TA.AperFunction,SMDPad,CuDef*
G36*
G01*
X91751999Y-55305000D02*
X92652001Y-55305000D01*
G75*
G02*
X92902000Y-55554999I0J-249999D01*
G01*
X92902000Y-56205001D01*
G75*
G02*
X92652001Y-56455000I-249999J0D01*
G01*
X91751999Y-56455000D01*
G75*
G02*
X91502000Y-56205001I0J249999D01*
G01*
X91502000Y-55554999D01*
G75*
G02*
X91751999Y-55305000I249999J0D01*
G01*
G37*
G04 #@! TD.AperFunction*
G04 #@! TA.AperFunction,SMDPad,CuDef*
G36*
G01*
X91751999Y-57355000D02*
X92652001Y-57355000D01*
G75*
G02*
X92902000Y-57604999I0J-249999D01*
G01*
X92902000Y-58255001D01*
G75*
G02*
X92652001Y-58505000I-249999J0D01*
G01*
X91751999Y-58505000D01*
G75*
G02*
X91502000Y-58255001I0J249999D01*
G01*
X91502000Y-57604999D01*
G75*
G02*
X91751999Y-57355000I249999J0D01*
G01*
G37*
G04 #@! TD.AperFunction*
G04 #@! TA.AperFunction,SMDPad,CuDef*
G36*
G01*
X89985001Y-54795000D02*
X89084999Y-54795000D01*
G75*
G02*
X88835000Y-54545001I0J249999D01*
G01*
X88835000Y-53894999D01*
G75*
G02*
X89084999Y-53645000I249999J0D01*
G01*
X89985001Y-53645000D01*
G75*
G02*
X90235000Y-53894999I0J-249999D01*
G01*
X90235000Y-54545001D01*
G75*
G02*
X89985001Y-54795000I-249999J0D01*
G01*
G37*
G04 #@! TD.AperFunction*
G04 #@! TA.AperFunction,SMDPad,CuDef*
G36*
G01*
X89985001Y-56845000D02*
X89084999Y-56845000D01*
G75*
G02*
X88835000Y-56595001I0J249999D01*
G01*
X88835000Y-55944999D01*
G75*
G02*
X89084999Y-55695000I249999J0D01*
G01*
X89985001Y-55695000D01*
G75*
G02*
X90235000Y-55944999I0J-249999D01*
G01*
X90235000Y-56595001D01*
G75*
G02*
X89985001Y-56845000I-249999J0D01*
G01*
G37*
G04 #@! TD.AperFunction*
G04 #@! TA.AperFunction,SMDPad,CuDef*
G36*
G01*
X112972001Y-54151000D02*
X112071999Y-54151000D01*
G75*
G02*
X111822000Y-53901001I0J249999D01*
G01*
X111822000Y-53250999D01*
G75*
G02*
X112071999Y-53001000I249999J0D01*
G01*
X112972001Y-53001000D01*
G75*
G02*
X113222000Y-53250999I0J-249999D01*
G01*
X113222000Y-53901001D01*
G75*
G02*
X112972001Y-54151000I-249999J0D01*
G01*
G37*
G04 #@! TD.AperFunction*
G04 #@! TA.AperFunction,SMDPad,CuDef*
G36*
G01*
X112972001Y-56201000D02*
X112071999Y-56201000D01*
G75*
G02*
X111822000Y-55951001I0J249999D01*
G01*
X111822000Y-55300999D01*
G75*
G02*
X112071999Y-55051000I249999J0D01*
G01*
X112972001Y-55051000D01*
G75*
G02*
X113222000Y-55300999I0J-249999D01*
G01*
X113222000Y-55951001D01*
G75*
G02*
X112972001Y-56201000I-249999J0D01*
G01*
G37*
G04 #@! TD.AperFunction*
G04 #@! TA.AperFunction,SMDPad,CuDef*
G36*
G01*
X113106000Y-57207999D02*
X113106000Y-58108001D01*
G75*
G02*
X112856001Y-58358000I-249999J0D01*
G01*
X112205999Y-58358000D01*
G75*
G02*
X111956000Y-58108001I0J249999D01*
G01*
X111956000Y-57207999D01*
G75*
G02*
X112205999Y-56958000I249999J0D01*
G01*
X112856001Y-56958000D01*
G75*
G02*
X113106000Y-57207999I0J-249999D01*
G01*
G37*
G04 #@! TD.AperFunction*
G04 #@! TA.AperFunction,SMDPad,CuDef*
G36*
G01*
X111056000Y-57207999D02*
X111056000Y-58108001D01*
G75*
G02*
X110806001Y-58358000I-249999J0D01*
G01*
X110155999Y-58358000D01*
G75*
G02*
X109906000Y-58108001I0J249999D01*
G01*
X109906000Y-57207999D01*
G75*
G02*
X110155999Y-56958000I249999J0D01*
G01*
X110806001Y-56958000D01*
G75*
G02*
X111056000Y-57207999I0J-249999D01*
G01*
G37*
G04 #@! TD.AperFunction*
D36*
X146304000Y-128270000D03*
X151003000Y-140081000D03*
X122174000Y-140081000D03*
X154940000Y-134747000D03*
X154432000Y-132334000D03*
X151384000Y-134239000D03*
X165862000Y-137414000D03*
X136652000Y-142240000D03*
X118981000Y-129395000D03*
X120707000Y-130359000D03*
X125222000Y-136652000D03*
X126594500Y-134771500D03*
X122174000Y-134271500D03*
X125710000Y-132568000D03*
D37*
X167188000Y-88082000D03*
X163698000Y-95128000D03*
X159888000Y-95128000D03*
X163454000Y-86228000D03*
X167188000Y-97084000D03*
X167188000Y-93162000D03*
X167188000Y-84272000D03*
X159898000Y-86228000D03*
X164084000Y-90170000D03*
D36*
X106698000Y-142476000D03*
X103142000Y-142476000D03*
D37*
X105664000Y-35560000D03*
D36*
X86614000Y-40894000D03*
D37*
X97790000Y-55118000D03*
D36*
X91287000Y-46329000D03*
D37*
X117094000Y-56896000D03*
D36*
X79230000Y-55100000D03*
X79230000Y-50274000D03*
X101092000Y-52578000D03*
X101092000Y-47752000D03*
D37*
X110105000Y-40763000D03*
D36*
X112014000Y-35814000D03*
D37*
X87376000Y-46228000D03*
D36*
X147973000Y-139174000D03*
X114655000Y-45111000D03*
X67310000Y-107696000D03*
X67310000Y-105156000D03*
X67310000Y-102616000D03*
D37*
X166934000Y-101798000D03*
X163454000Y-99690000D03*
X159644000Y-99690000D03*
X159380000Y-108590000D03*
X163444000Y-108590000D03*
X166934000Y-106370000D03*
X166934000Y-110688000D03*
X163830000Y-104648000D03*
D36*
X156901000Y-94163000D03*
X149606000Y-91948000D03*
X141986000Y-95250000D03*
X147048000Y-100856000D03*
X149733000Y-103124000D03*
X149733000Y-118491000D03*
X134239000Y-85725000D03*
X134239000Y-99187000D03*
X149789000Y-94813000D03*
X149595000Y-96763000D03*
X134475000Y-105682000D03*
X124135000Y-113721000D03*
X116586000Y-110490000D03*
X122927000Y-106925000D03*
X130302000Y-107442000D03*
X137922000Y-105156000D03*
X132334000Y-112014000D03*
X135636000Y-109220000D03*
X117602000Y-105664000D03*
X118491000Y-98171000D03*
X156210000Y-83566000D03*
X154178000Y-75946000D03*
X142565000Y-75621000D03*
X154178000Y-78740000D03*
X145807000Y-78221000D03*
X145979000Y-76271000D03*
X146050000Y-73406000D03*
X133604000Y-73914000D03*
X93200000Y-132606000D03*
X105200000Y-129076000D03*
X149409000Y-130359000D03*
X77724000Y-31242000D03*
X136398000Y-97536000D03*
X127153000Y-115671000D03*
X153924000Y-136398000D03*
X146304000Y-132842000D03*
X117348000Y-132842000D03*
X125476000Y-141478000D03*
X165862000Y-134874000D03*
X163830000Y-140208000D03*
X163576000Y-142748000D03*
X136652000Y-139700000D03*
X129540000Y-149860000D03*
X124460000Y-149860000D03*
X128034000Y-153942000D03*
X144272000Y-46228000D03*
X133858000Y-46228000D03*
X88687000Y-46269000D03*
D37*
X118364000Y-51308000D03*
D36*
X110481000Y-55889000D03*
D37*
X95740000Y-49294000D03*
D36*
X112055000Y-44917000D03*
X73914000Y-116586000D03*
X73914000Y-128016000D03*
X71850000Y-53816000D03*
X77184000Y-53816000D03*
X70086000Y-58692000D03*
X71900000Y-58692000D03*
X141732000Y-90932000D03*
X141732000Y-88392000D03*
D37*
X137160000Y-102362000D03*
D36*
X115316000Y-110490000D03*
X137668000Y-111506000D03*
X154432000Y-87376000D03*
X138684000Y-72644000D03*
X135382000Y-69596000D03*
X135364000Y-77960000D03*
X95250000Y-132588000D03*
X82550000Y-105156000D03*
X80754000Y-99296000D03*
X80763000Y-111007000D03*
X154178000Y-141478000D03*
X146494500Y-94805500D03*
D37*
X112776000Y-29718000D03*
D36*
X141732000Y-98298000D03*
X130048000Y-98298000D03*
X110236000Y-107188000D03*
X77978000Y-133604000D03*
X110236000Y-105664000D03*
X68326000Y-143002000D03*
X122936000Y-143764000D03*
X122936000Y-146050000D03*
X121666000Y-145288000D03*
X121666000Y-143764000D03*
X136398000Y-89408000D03*
X139700000Y-82804000D03*
X110236000Y-108712000D03*
X77996000Y-134892000D03*
X79248000Y-145542000D03*
X141732000Y-100330000D03*
X136652000Y-119888000D03*
X140970000Y-99060000D03*
X136652000Y-118872000D03*
X79248000Y-144018000D03*
X68326000Y-151130000D03*
X139954000Y-99060000D03*
X136652000Y-117856000D03*
X80772000Y-124206000D03*
X84582000Y-76708000D03*
X110490000Y-76708000D03*
X113538000Y-76708000D03*
X135128000Y-53594000D03*
D37*
X158064000Y-92278000D03*
X158064000Y-88468000D03*
D36*
X153797000Y-89789000D03*
X152019000Y-89789000D03*
X121539000Y-85725000D03*
X120269000Y-86741000D03*
X163830000Y-119126000D03*
D38*
X151495000Y-138684000D02*
X150495000Y-138684000D01*
X146304000Y-129395000D02*
X146304000Y-128270000D01*
X146304000Y-128270000D02*
X146304000Y-128270000D01*
X124210000Y-130359000D02*
X127210000Y-130359000D01*
X128622500Y-133271500D02*
X128622500Y-136271500D01*
X122710000Y-138684000D02*
X121710000Y-138684000D01*
X120297500Y-135771500D02*
X120297500Y-132271500D01*
D39*
X150995000Y-140073000D02*
X151003000Y-140081000D01*
X150995000Y-138684000D02*
X150995000Y-140073000D01*
D38*
X150604000Y-140480000D02*
X151003000Y-140081000D01*
X150604000Y-141478000D02*
X150604000Y-140480000D01*
X121902000Y-140353000D02*
X122174000Y-140081000D01*
X121902000Y-141478000D02*
X121902000Y-140353000D01*
D39*
X122210000Y-140045000D02*
X122174000Y-140081000D01*
X122210000Y-138684000D02*
X122210000Y-140045000D01*
D38*
X152995000Y-130359000D02*
X155995000Y-130359000D01*
X157407500Y-133271500D02*
X157407500Y-136271500D01*
X149082500Y-132271500D02*
X149082500Y-135771500D01*
X154964500Y-134771500D02*
X154940000Y-134747000D01*
X157407500Y-134771500D02*
X154964500Y-134771500D01*
X154495000Y-132271000D02*
X154432000Y-132334000D01*
X154495000Y-130359000D02*
X154495000Y-132271000D01*
X151351500Y-134271500D02*
X151384000Y-134239000D01*
X149082500Y-134271500D02*
X151351500Y-134271500D01*
X164610000Y-136144000D02*
X164610000Y-136162000D01*
X164610000Y-136162000D02*
X165862000Y-137414000D01*
X165862000Y-137414000D02*
X165862000Y-137414000D01*
X135382000Y-140970000D02*
X136652000Y-142240000D01*
X136652000Y-142240000D02*
X136652000Y-142240000D01*
X117348000Y-129395000D02*
X118981000Y-129395000D01*
X118981000Y-129395000D02*
X118981000Y-129395000D01*
X121710000Y-130359000D02*
X120707000Y-130359000D01*
X120707000Y-130359000D02*
X120707000Y-130359000D01*
X125710000Y-130359000D02*
X125710000Y-132568000D01*
X128622500Y-134771500D02*
X126594500Y-134771500D01*
X125710000Y-138684000D02*
X125710000Y-137140000D01*
X125710000Y-137140000D02*
X125222000Y-136652000D01*
X124710000Y-137164000D02*
X124710000Y-138684000D01*
X125222000Y-136652000D02*
X124710000Y-137164000D01*
X125222000Y-136652000D02*
X125222000Y-136652000D01*
X126594500Y-134771500D02*
X126594500Y-134771500D01*
X125710000Y-132568000D02*
X125710000Y-132568000D01*
D39*
X167188000Y-86228000D02*
X167188000Y-88082000D01*
X167188000Y-88082000D02*
X167188000Y-88082000D01*
X161738000Y-95128000D02*
X159888000Y-95128000D01*
X161738000Y-86228000D02*
X163454000Y-86228000D01*
X161738000Y-95128000D02*
X163698000Y-95128000D01*
X163698000Y-95128000D02*
X163698000Y-95128000D01*
X159888000Y-95128000D02*
X159888000Y-95128000D01*
X163454000Y-86228000D02*
X163454000Y-86228000D01*
X167188000Y-95128000D02*
X167188000Y-97084000D01*
X167188000Y-97084000D02*
X167188000Y-97084000D01*
X167188000Y-95128000D02*
X167188000Y-93162000D01*
X167188000Y-86228000D02*
X167188000Y-84272000D01*
X161738000Y-86228000D02*
X159898000Y-86228000D01*
X162992000Y-89078000D02*
X164084000Y-90170000D01*
X161638000Y-89078000D02*
X162992000Y-89078000D01*
D38*
X122174000Y-134271500D02*
X120297500Y-134271500D01*
D39*
X103650000Y-34290000D02*
X104394000Y-34290000D01*
X104394000Y-34290000D02*
X105664000Y-35560000D01*
X104394000Y-36830000D02*
X103650000Y-36830000D01*
X105664000Y-35560000D02*
X105664000Y-35560000D01*
X105664000Y-35560000D02*
X104394000Y-36830000D01*
D38*
X88392000Y-40894000D02*
X86614000Y-40894000D01*
X86614000Y-40894000D02*
X86614000Y-40894000D01*
D39*
X97790000Y-51054000D02*
X97790000Y-53340000D01*
X97790000Y-53340000D02*
X97790000Y-54864000D01*
X97790000Y-54864000D02*
X97790000Y-55118000D01*
X97790000Y-55118000D02*
X97790000Y-55118000D01*
D38*
X91287000Y-43998000D02*
X91287000Y-46329000D01*
X91287000Y-46329000D02*
X91287000Y-46329000D01*
D39*
X115824000Y-55626000D02*
X117094000Y-56896000D01*
X115824000Y-55136000D02*
X115824000Y-55626000D01*
X118364000Y-55626000D02*
X117094000Y-56896000D01*
X118364000Y-55136000D02*
X118364000Y-55626000D01*
D38*
X79230000Y-48514000D02*
X79230000Y-50274000D01*
X79230000Y-53340000D02*
X79230000Y-55100000D01*
X79230000Y-55100000D02*
X79230000Y-55100000D01*
X79230000Y-50274000D02*
X79230000Y-50274000D01*
X102598000Y-47752000D02*
X101092000Y-47752000D01*
X102598000Y-52578000D02*
X101092000Y-52578000D01*
X101092000Y-52578000D02*
X101092000Y-52578000D01*
X101092000Y-47752000D02*
X101092000Y-47752000D01*
D39*
X110105000Y-42982000D02*
X110105000Y-40763000D01*
X110105000Y-40763000D02*
X110105000Y-40763000D01*
D38*
X112014000Y-37320000D02*
X112014000Y-35814000D01*
X112014000Y-35814000D02*
X112014000Y-35814000D01*
D39*
X86736990Y-45588990D02*
X86736990Y-43998000D01*
X87376000Y-46228000D02*
X86736990Y-45588990D01*
D38*
X114655000Y-42982000D02*
X114655000Y-45111000D01*
X114655000Y-45111000D02*
X114655000Y-45111000D01*
X67310000Y-108699000D02*
X67577000Y-108966000D01*
X67310000Y-107696000D02*
X67310000Y-108699000D01*
X67310000Y-106693000D02*
X67577000Y-106426000D01*
X67310000Y-107696000D02*
X67310000Y-106693000D01*
X67310000Y-106159000D02*
X67577000Y-106426000D01*
X67310000Y-105156000D02*
X67310000Y-106159000D01*
X67310000Y-104153000D02*
X67577000Y-103886000D01*
X67310000Y-105156000D02*
X67310000Y-104153000D01*
X67310000Y-103619000D02*
X67577000Y-103886000D01*
X67310000Y-102616000D02*
X67310000Y-103619000D01*
X67310000Y-101613000D02*
X67577000Y-101346000D01*
X67310000Y-102616000D02*
X67310000Y-101613000D01*
X158732000Y-74626000D02*
X158782000Y-74676000D01*
X158732000Y-70866000D02*
X158732000Y-74626000D01*
X152926000Y-74694000D02*
X154178000Y-75946000D01*
X152926000Y-74676000D02*
X152926000Y-74694000D01*
X152926000Y-77198000D02*
X154178000Y-75946000D01*
X152926000Y-77216000D02*
X152926000Y-77198000D01*
X140672000Y-75621000D02*
X142565000Y-75621000D01*
X142565000Y-75621000D02*
X142565000Y-75621000D01*
X152926000Y-80010000D02*
X152926000Y-79992000D01*
X152926000Y-79992000D02*
X154178000Y-78740000D01*
X154178000Y-78740000D02*
X154178000Y-78740000D01*
X147872000Y-78221000D02*
X145807000Y-78221000D01*
X145807000Y-78221000D02*
X145807000Y-78221000D01*
X147872000Y-76271000D02*
X145979000Y-76271000D01*
X145979000Y-76271000D02*
X145979000Y-76271000D01*
X146050000Y-73406000D02*
X146304000Y-73406000D01*
X146689000Y-73021000D02*
X147872000Y-73021000D01*
X146304000Y-73406000D02*
X146689000Y-73021000D01*
X146569000Y-73671000D02*
X147872000Y-73671000D01*
X146304000Y-73406000D02*
X146569000Y-73671000D01*
X147872000Y-73021000D02*
X147872000Y-73671000D01*
X135382000Y-73914000D02*
X133604000Y-73914000D01*
X133604000Y-73914000D02*
X133604000Y-73914000D01*
X93200000Y-134366000D02*
X93200000Y-132606000D01*
X93200000Y-132606000D02*
X93200000Y-132606000D01*
X105200000Y-130429000D02*
X105200000Y-129076000D01*
X105200000Y-129076000D02*
X105200000Y-129076000D01*
X150495000Y-130359000D02*
X149409000Y-130359000D01*
X149409000Y-130359000D02*
X149409000Y-130359000D01*
X153495000Y-136827000D02*
X153495000Y-138684000D01*
X153924000Y-136398000D02*
X153495000Y-136827000D01*
X154495000Y-136969000D02*
X154495000Y-138684000D01*
X153924000Y-136398000D02*
X154495000Y-136969000D01*
X127210000Y-138684000D02*
X127210000Y-140032771D01*
X127715029Y-140537801D02*
X127715029Y-143463029D01*
X127210000Y-140032771D02*
X127715029Y-140537801D01*
X128270000Y-144018000D02*
X128270000Y-146549000D01*
X127715029Y-143463029D02*
X128270000Y-144018000D01*
X150385702Y-131771500D02*
X149082500Y-131771500D01*
X150995000Y-131162202D02*
X150385702Y-131771500D01*
X150995000Y-130359000D02*
X150995000Y-131162202D01*
D39*
X148982490Y-131671490D02*
X149082500Y-131671490D01*
X148857510Y-131546510D02*
X148982490Y-131671490D01*
X146304000Y-131445000D02*
X146405510Y-131546510D01*
X146405510Y-131546510D02*
X148857510Y-131546510D01*
D38*
X152495000Y-138684000D02*
X152995000Y-138684000D01*
D39*
X152654000Y-138924990D02*
X152894990Y-138684000D01*
X152654000Y-141478000D02*
X152654000Y-138924990D01*
D38*
X123710000Y-138684000D02*
X124210000Y-138684000D01*
D39*
X123952000Y-138841990D02*
X124109990Y-138684000D01*
X123952000Y-141478000D02*
X123952000Y-138841990D01*
X120071010Y-131445000D02*
X120297500Y-131671490D01*
X117348000Y-131445000D02*
X120071010Y-131445000D01*
D38*
X121600702Y-131771500D02*
X120297500Y-131771500D01*
X122210000Y-131162202D02*
X121600702Y-131771500D01*
X122210000Y-130359000D02*
X122210000Y-131162202D01*
D39*
X146304000Y-131445000D02*
X146304000Y-132842000D01*
X146304000Y-132842000D02*
X146304000Y-132842000D01*
X117348000Y-131445000D02*
X117348000Y-132842000D01*
X117348000Y-132842000D02*
X117348000Y-132842000D01*
X123952000Y-141478000D02*
X125476000Y-141478000D01*
X125476000Y-141478000D02*
X125476000Y-141478000D01*
D38*
X162324000Y-141478000D02*
X162324000Y-141496000D01*
X162324000Y-141496000D02*
X163576000Y-142748000D01*
X162324000Y-138938000D02*
X162560000Y-138938000D01*
X162560000Y-138938000D02*
X163830000Y-140208000D01*
X164610000Y-133604000D02*
X164610000Y-133622000D01*
X164610000Y-133622000D02*
X165862000Y-134874000D01*
X165862000Y-134874000D02*
X165862000Y-134874000D01*
X163830000Y-140208000D02*
X163830000Y-140208000D01*
X163576000Y-142748000D02*
X163576000Y-142748000D01*
X135391000Y-138430000D02*
X135391000Y-138439000D01*
X135391000Y-138439000D02*
X136652000Y-139700000D01*
X136652000Y-139700000D02*
X136652000Y-139700000D01*
X125730000Y-148608000D02*
X125712000Y-148608000D01*
X125712000Y-148608000D02*
X124460000Y-149860000D01*
X128270000Y-148599000D02*
X128279000Y-148599000D01*
X128279000Y-148599000D02*
X129540000Y-149860000D01*
X129540000Y-149860000D02*
X129540000Y-149860000D01*
X124460000Y-149860000D02*
X124460000Y-149860000D01*
X128034000Y-155448000D02*
X128034000Y-153942000D01*
X128034000Y-153942000D02*
X128034000Y-153942000D01*
X142385000Y-46228000D02*
X144018000Y-46228000D01*
X135745000Y-46228000D02*
X133858000Y-46228000D01*
X144018000Y-46228000D02*
X144272000Y-46228000D01*
X144272000Y-46228000D02*
X144272000Y-46228000D01*
X133858000Y-46228000D02*
X133858000Y-46228000D01*
X88687000Y-43998000D02*
X88687000Y-46269000D01*
X88687000Y-46269000D02*
X88687000Y-46269000D01*
X92202000Y-57930000D02*
X92202000Y-59182000D01*
X91440000Y-59944000D02*
X91440000Y-60960000D01*
X92202000Y-59182000D02*
X91440000Y-59944000D01*
D39*
X115955000Y-52955000D02*
X115824000Y-53086000D01*
X115955000Y-49982000D02*
X115955000Y-52955000D01*
X115824000Y-53086000D02*
X118364000Y-53086000D01*
X118364000Y-53086000D02*
X118364000Y-51308000D01*
X118364000Y-51308000D02*
X118364000Y-51308000D01*
D38*
X110481000Y-57658000D02*
X110481000Y-55889000D01*
X110481000Y-55889000D02*
X110481000Y-55889000D01*
D39*
X92587000Y-50998000D02*
X92587000Y-52455000D01*
X93472000Y-53340000D02*
X95740000Y-53340000D01*
X92587000Y-52455000D02*
X93472000Y-53340000D01*
X95740000Y-53340000D02*
X95740000Y-51054000D01*
X95740000Y-51054000D02*
X95740000Y-49294000D01*
X95740000Y-49294000D02*
X95740000Y-49294000D01*
D38*
X112055000Y-42982000D02*
X112055000Y-44917000D01*
X112055000Y-44917000D02*
X112055000Y-44917000D01*
X73914000Y-129776000D02*
X73914000Y-128270000D01*
X73914000Y-128270000D02*
X73914000Y-128270000D01*
X73914000Y-118364000D02*
X73914000Y-116586000D01*
X73914000Y-116586000D02*
X73914000Y-116586000D01*
X73914000Y-128270000D02*
X73914000Y-128016000D01*
X73914000Y-128016000D02*
X73914000Y-128016000D01*
X137675000Y-73671000D02*
X140672000Y-73671000D01*
X137432000Y-73914000D02*
X137675000Y-73671000D01*
X137432000Y-73914000D02*
X137432000Y-73896000D01*
X137432000Y-73896000D02*
X138684000Y-72644000D01*
X138684000Y-72644000D02*
X138684000Y-72644000D01*
X135364000Y-71374000D02*
X135382000Y-69596000D01*
X135382000Y-69596000D02*
X135364000Y-69614000D01*
X135364000Y-76454000D02*
X135364000Y-77960000D01*
X135364000Y-77960000D02*
X135364000Y-77960000D01*
X95377000Y-134239000D02*
X95250000Y-134366000D01*
X98000000Y-134239000D02*
X95377000Y-134239000D01*
X95250000Y-134366000D02*
X95250000Y-132588000D01*
X95250000Y-132588000D02*
X95250000Y-132588000D01*
X81298000Y-103886000D02*
X81298000Y-103904000D01*
X81298000Y-103904000D02*
X82550000Y-105156000D01*
X82550000Y-105156000D02*
X82550000Y-105156000D01*
X81298000Y-106408000D02*
X82550000Y-105156000D01*
X81298000Y-106426000D02*
X81298000Y-106408000D01*
X79248000Y-99296000D02*
X80754000Y-99296000D01*
X80754000Y-99296000D02*
X80754000Y-99296000D01*
X79248000Y-111007000D02*
X80763000Y-111007000D01*
X80763000Y-111007000D02*
X80763000Y-111007000D01*
D39*
X152654000Y-141478000D02*
X154178000Y-141478000D01*
X154178000Y-141478000D02*
X154178000Y-141478000D01*
X167579000Y-63561000D02*
X167640000Y-63500000D01*
X167579000Y-67818000D02*
X167579000Y-63561000D01*
X167640000Y-63500000D02*
X167640000Y-60960000D01*
X108730000Y-38735000D02*
X108730000Y-32385000D01*
X108730000Y-32385000D02*
X110109000Y-32385000D01*
X110109000Y-32385000D02*
X112776000Y-29718000D01*
X112776000Y-29718000D02*
X112776000Y-29718000D01*
D38*
X146494500Y-90233500D02*
X146494500Y-94805500D01*
X147066000Y-88392000D02*
X147066000Y-89662000D01*
X147066000Y-89662000D02*
X146494500Y-90233500D01*
X151638000Y-87630000D02*
X147828000Y-87630000D01*
X152146000Y-87122000D02*
X151638000Y-87630000D01*
X152146000Y-82042000D02*
X152146000Y-87122000D01*
X167640000Y-63500000D02*
X165862000Y-65278000D01*
X162306000Y-65278000D02*
X161544000Y-66040000D01*
X161544000Y-66040000D02*
X161544000Y-67310000D01*
X156718000Y-81026000D02*
X155956000Y-81788000D01*
X152400000Y-81788000D02*
X152146000Y-82042000D01*
X165862000Y-65278000D02*
X162306000Y-65278000D01*
X160782000Y-68072000D02*
X158750000Y-68072000D01*
X147828000Y-87630000D02*
X147066000Y-88392000D01*
X158750000Y-68072000D02*
X156718000Y-70104000D01*
X156718000Y-70104000D02*
X156718000Y-81026000D01*
X161544000Y-67310000D02*
X160782000Y-68072000D01*
X155956000Y-81788000D02*
X152400000Y-81788000D01*
X150876000Y-74676000D02*
X150876000Y-77216000D01*
X150876000Y-77216000D02*
X149860000Y-77216000D01*
X149565000Y-76921000D02*
X147872000Y-76921000D01*
X149860000Y-77216000D02*
X149565000Y-76921000D01*
X150876000Y-74676000D02*
X150876000Y-74422000D01*
X150876000Y-74422000D02*
X151892000Y-73406000D01*
X153416000Y-73406000D02*
X156718000Y-70104000D01*
X151892000Y-73406000D02*
X153416000Y-73406000D01*
X141732000Y-98298000D02*
X130048000Y-98298000D01*
X130048000Y-98298000D02*
X130048000Y-98298000D01*
X84074000Y-48460000D02*
X85290000Y-48460000D01*
X86737000Y-49907000D02*
X86737000Y-50998000D01*
X85290000Y-48460000D02*
X86737000Y-49907000D01*
X84020000Y-48514000D02*
X84074000Y-48460000D01*
X81280000Y-48514000D02*
X84020000Y-48514000D01*
X110182000Y-47698000D02*
X107188000Y-47698000D01*
X110744000Y-48260000D02*
X110182000Y-47698000D01*
X110755000Y-49982000D02*
X110755000Y-49032000D01*
X110744000Y-49021000D02*
X110744000Y-48260000D01*
X110755000Y-49032000D02*
X110744000Y-49021000D01*
X104702000Y-47698000D02*
X104648000Y-47752000D01*
X107188000Y-47698000D02*
X104702000Y-47698000D01*
X70376000Y-138430000D02*
X75946000Y-138430000D01*
X68326000Y-138430000D02*
X68326000Y-136652000D01*
X68326000Y-136652000D02*
X68326000Y-136652000D01*
X146327001Y-75545999D02*
X144800411Y-75545999D01*
X147872000Y-75621000D02*
X146402002Y-75621000D01*
X146402002Y-75621000D02*
X146327001Y-75545999D01*
X144800411Y-75545999D02*
X142944010Y-77402400D01*
X142944009Y-80450401D02*
X141918400Y-81476010D01*
X142944010Y-77402400D02*
X142944009Y-80450401D01*
X141918400Y-81476010D02*
X139954000Y-81476010D01*
X139954000Y-81476010D02*
X138243599Y-81476009D01*
X138243599Y-81476009D02*
X136719600Y-79952010D01*
X136719600Y-79952010D02*
X127819990Y-79952010D01*
X127819990Y-79952010D02*
X125916400Y-79952010D01*
X123386010Y-82482400D02*
X123386009Y-87562401D01*
X125916400Y-79952010D02*
X123386010Y-82482400D01*
X123386009Y-87562401D02*
X119698205Y-91250205D01*
X119698205Y-91250205D02*
X111448010Y-99500400D01*
X111448010Y-99500400D02*
X111448010Y-105975990D01*
X111448010Y-105975990D02*
X110236000Y-107188000D01*
X110236000Y-107188000D02*
X110236000Y-107188000D01*
X68326000Y-136652000D02*
X68326000Y-136398000D01*
X68326000Y-136398000D02*
X69088000Y-135636000D01*
X69088000Y-135636000D02*
X75184000Y-135636000D01*
X75184000Y-135636000D02*
X77216000Y-133604000D01*
X77216000Y-133604000D02*
X77978000Y-133604000D01*
X77978000Y-133604000D02*
X77978000Y-133604000D01*
X68326000Y-140970000D02*
X68326000Y-143002000D01*
X68326000Y-143002000D02*
X68326000Y-143002000D01*
X147872000Y-74971000D02*
X144739000Y-74971000D01*
X144739000Y-74971000D02*
X142494000Y-77216000D01*
X142494000Y-77216000D02*
X142494000Y-80009002D01*
X142494000Y-80009002D02*
X142494000Y-80264000D01*
X142494000Y-80264000D02*
X141732000Y-81026000D01*
X141732000Y-81026000D02*
X139954000Y-81026000D01*
X139954000Y-81026000D02*
X138430000Y-81026000D01*
X138430000Y-81026000D02*
X136906000Y-79502000D01*
X136906000Y-79502000D02*
X126238000Y-79502000D01*
X126238000Y-79502000D02*
X125730000Y-79502000D01*
X125730000Y-79502000D02*
X122936000Y-82296000D01*
X122936000Y-82296000D02*
X122936000Y-85401002D01*
X122936000Y-85401002D02*
X122936000Y-87376000D01*
X122936000Y-87376000D02*
X119126000Y-91186000D01*
X119126000Y-91186000D02*
X114046000Y-96266000D01*
X114046000Y-96266000D02*
X110998000Y-99314000D01*
X110998000Y-99314000D02*
X110998000Y-104902000D01*
X110998000Y-104902000D02*
X110236000Y-105664000D01*
X110236000Y-105664000D02*
X110236000Y-105664000D01*
X68326000Y-143002000D02*
X68326000Y-143002000D01*
X70376000Y-140970000D02*
X75946000Y-140970000D01*
X94372020Y-107072020D02*
X91440000Y-104140000D01*
X99315150Y-107072020D02*
X94372020Y-107072020D01*
X112233193Y-119990063D02*
X99315150Y-107072020D01*
X114300000Y-121920000D02*
X112370063Y-119990063D01*
X112370063Y-119990063D02*
X112233193Y-119990063D01*
X123210000Y-140188000D02*
X122936000Y-140462000D01*
X122936000Y-143256000D02*
X122936000Y-143764000D01*
X122936000Y-143002000D02*
X122936000Y-143256000D01*
X122936000Y-140462000D02*
X122936000Y-143002000D01*
X123210000Y-138684000D02*
X123210000Y-140188000D01*
X122936000Y-143764000D02*
X122936000Y-143764000D01*
X122936000Y-146050000D02*
X109776000Y-146050000D01*
X109776000Y-146050000D02*
X107490000Y-148336000D01*
X108530000Y-144526000D02*
X104720000Y-148336000D01*
X126365000Y-142172000D02*
X124011000Y-144526000D01*
X126365000Y-141097000D02*
X126365000Y-142172000D01*
X125210000Y-138684000D02*
X125210000Y-139942000D01*
X125210000Y-139942000D02*
X126365000Y-141097000D01*
X124011000Y-144526000D02*
X108530000Y-144526000D01*
X126210000Y-140305590D02*
X126815010Y-140910600D01*
X126210000Y-138684000D02*
X126210000Y-140305590D01*
X126815009Y-142358401D02*
X123885410Y-145288000D01*
X126815010Y-140910600D02*
X126815009Y-142358401D01*
X123885410Y-145288000D02*
X121666000Y-145288000D01*
X106522000Y-143764000D02*
X101950000Y-148336000D01*
X121666000Y-143764000D02*
X106522000Y-143764000D01*
X137160000Y-131590000D02*
X137160000Y-131954410D01*
X144573590Y-152088010D02*
X146296000Y-150365600D01*
X139757991Y-151062401D02*
X140783600Y-152088010D01*
X140783600Y-152088010D02*
X144573590Y-152088010D01*
X139757990Y-134552400D02*
X139757991Y-151062401D01*
X137160000Y-131954410D02*
X139757990Y-134552400D01*
X139700000Y-131590000D02*
X139700000Y-133858000D01*
X139700000Y-133858000D02*
X140208000Y-134366000D01*
X140208000Y-134366000D02*
X140208000Y-150876000D01*
X140208000Y-150876000D02*
X140970000Y-151638000D01*
X142733600Y-151638000D02*
X144006000Y-150365600D01*
X140970000Y-151638000D02*
X142733600Y-151638000D01*
X120142000Y-155448000D02*
X113030000Y-148336000D01*
X125984000Y-155448000D02*
X120142000Y-155448000D01*
X154995000Y-140388590D02*
X155517010Y-140910600D01*
X154995000Y-138684000D02*
X154995000Y-140388590D01*
X152274410Y-145288000D02*
X150876000Y-145288000D01*
X155517009Y-142045401D02*
X152274410Y-145288000D01*
X155517010Y-140910600D02*
X155517009Y-142045401D01*
X150364000Y-143510000D02*
X148586000Y-145288000D01*
X153995000Y-138684000D02*
X153995000Y-140025000D01*
X153416000Y-143510000D02*
X150364000Y-143510000D01*
X155067000Y-141097000D02*
X155067000Y-141859000D01*
X153995000Y-140025000D02*
X155067000Y-141097000D01*
X155067000Y-141859000D02*
X153416000Y-143510000D01*
X148524010Y-143059990D02*
X146296000Y-145288000D01*
X151995000Y-138684000D02*
X151995000Y-140162002D01*
X151995000Y-140162002D02*
X151638000Y-140519002D01*
X151638000Y-140519002D02*
X151638000Y-142494000D01*
X151638000Y-142494000D02*
X151072010Y-143059990D01*
X151072010Y-143059990D02*
X148524010Y-143059990D01*
X120297500Y-137271500D02*
X119221478Y-137271500D01*
X118093978Y-136144000D02*
X116586000Y-136144000D01*
X119221478Y-137271500D02*
X118093978Y-136144000D01*
X127265019Y-140724201D02*
X127265019Y-143498981D01*
X126710000Y-138684000D02*
X126710000Y-140169180D01*
X126710000Y-140169180D02*
X127265019Y-140724201D01*
X125730000Y-145034000D02*
X125730000Y-146558000D01*
X127265019Y-143498981D02*
X125730000Y-145034000D01*
X87387000Y-51948000D02*
X87387000Y-50998000D01*
X85995000Y-53340000D02*
X87387000Y-51948000D01*
X84074000Y-53340000D02*
X85995000Y-53340000D01*
X81280000Y-53340000D02*
X84074000Y-53340000D01*
X110105000Y-49982000D02*
X110105000Y-51185000D01*
X108712000Y-52578000D02*
X107188000Y-52578000D01*
X110105000Y-51185000D02*
X108712000Y-52578000D01*
X107188000Y-52578000D02*
X104648000Y-52578000D01*
X155495000Y-140252180D02*
X156720820Y-141478000D01*
X155495000Y-138684000D02*
X155495000Y-140252180D01*
X156720820Y-141478000D02*
X160274000Y-141478000D01*
X159004000Y-138938000D02*
X160274000Y-138938000D01*
X157226000Y-140716000D02*
X159004000Y-138938000D01*
X156718000Y-140716000D02*
X157226000Y-140716000D01*
X155995000Y-138684000D02*
X155995000Y-139993000D01*
X155995000Y-139993000D02*
X156718000Y-140716000D01*
X136398000Y-89408000D02*
X136398000Y-89408000D01*
X138430000Y-82804000D02*
X139700000Y-82804000D01*
X136398000Y-89408000D02*
X136398000Y-84836000D01*
X136398000Y-84836000D02*
X138430000Y-82804000D01*
X150136000Y-80010000D02*
X150876000Y-80010000D01*
X148997000Y-78871000D02*
X150136000Y-80010000D01*
X147872000Y-78871000D02*
X148997000Y-78871000D01*
X147872000Y-78871000D02*
X146427000Y-78871000D01*
X146427000Y-78871000D02*
X143371980Y-81926020D01*
X143371980Y-81926020D02*
X142104800Y-81926020D01*
X142104800Y-81926020D02*
X139954000Y-81926020D01*
X139954000Y-81926020D02*
X138057198Y-81926018D01*
X138057198Y-81926018D02*
X136533200Y-80402020D01*
X136533200Y-80402020D02*
X130048000Y-80402020D01*
X130048000Y-80402020D02*
X126102800Y-80402020D01*
X123836019Y-82668801D02*
X123836018Y-87748802D01*
X126102800Y-80402020D02*
X123836019Y-82668801D01*
X123836018Y-87748802D02*
X120397410Y-91187410D01*
X120397410Y-91187410D02*
X120148214Y-91436606D01*
X111898020Y-99686800D02*
X111898020Y-107049980D01*
X120148214Y-91436606D02*
X111898020Y-99686800D01*
X111898020Y-107049980D02*
X110236000Y-108712000D01*
X110236000Y-108712000D02*
X110236000Y-108712000D01*
X77996000Y-140970000D02*
X77996000Y-138430000D01*
X77996000Y-138430000D02*
X77996000Y-134892000D01*
X77996000Y-134892000D02*
X77996000Y-134892000D01*
D39*
X162084000Y-75978000D02*
X160782000Y-74676000D01*
X167640000Y-75978000D02*
X162084000Y-75978000D01*
X160782000Y-74676000D02*
X160782000Y-70866000D01*
X160782000Y-70165000D02*
X163129000Y-67818000D01*
X160782000Y-70866000D02*
X160782000Y-70165000D01*
D38*
X77996000Y-146812000D02*
X77996000Y-149352000D01*
X77996000Y-146812000D02*
X77996000Y-146794000D01*
X77996000Y-146794000D02*
X79248000Y-145542000D01*
X79248000Y-145542000D02*
X79248000Y-145542000D01*
X141732000Y-100330000D02*
X141732000Y-116332000D01*
X141732000Y-116332000D02*
X140970000Y-117094000D01*
X140970000Y-117094000D02*
X138176000Y-119888000D01*
X138176000Y-119888000D02*
X136652000Y-119888000D01*
X136652000Y-119888000D02*
X136652000Y-119888000D01*
X70358000Y-146812000D02*
X75946000Y-146812000D01*
X140970000Y-99060000D02*
X140970000Y-116078000D01*
X140970000Y-116078000D02*
X139954000Y-117094000D01*
X139954000Y-117094000D02*
X138176000Y-118872000D01*
X138176000Y-118872000D02*
X136652000Y-118872000D01*
X136652000Y-118872000D02*
X136652000Y-118872000D01*
X68308000Y-146812000D02*
X71102000Y-144018000D01*
X71102000Y-144018000D02*
X79248000Y-144018000D01*
X79248000Y-144018000D02*
X79248000Y-144018000D01*
X68308000Y-149352000D02*
X68326000Y-151130000D01*
X68326000Y-151130000D02*
X68308000Y-151112000D01*
X139954000Y-99060000D02*
X139954000Y-115824000D01*
X139954000Y-115824000D02*
X138684000Y-117094000D01*
X138684000Y-117094000D02*
X138176000Y-117602000D01*
X138176000Y-117602000D02*
X137922000Y-117856000D01*
X137922000Y-117856000D02*
X136652000Y-117856000D01*
X136652000Y-117856000D02*
X136652000Y-117856000D01*
X70358000Y-149352000D02*
X75946000Y-149352000D01*
X73914000Y-131826000D02*
X71628000Y-131826000D01*
X71628000Y-131826000D02*
X71120000Y-131318000D01*
X71120000Y-131318000D02*
X69342000Y-131318000D01*
X68906000Y-131754000D02*
X67564000Y-131754000D01*
X69342000Y-131318000D02*
X68906000Y-131754000D01*
X73914000Y-131826000D02*
X75692000Y-131826000D01*
X75692000Y-131826000D02*
X80772000Y-126746000D01*
X80772000Y-126746000D02*
X80772000Y-124206000D01*
X80772000Y-124206000D02*
X80772000Y-124206000D01*
X84582000Y-76708000D02*
X110490000Y-76708000D01*
X110490000Y-76708000D02*
X110490000Y-76708000D01*
X113538000Y-76708000D02*
X115570000Y-76708000D01*
X115570000Y-76708000D02*
X121158000Y-71120000D01*
X121158000Y-71120000D02*
X129032000Y-71120000D01*
X129032000Y-71120000D02*
X130810000Y-69342000D01*
X130810000Y-69342000D02*
X130810000Y-57912000D01*
X130810000Y-57912000D02*
X135128000Y-53594000D01*
X135128000Y-53594000D02*
X135128000Y-53594000D01*
X132080000Y-121920000D02*
X127000000Y-116840000D01*
X127000000Y-116840000D02*
X113538000Y-116840000D01*
X109220000Y-112522000D02*
X109220000Y-104140000D01*
X113538000Y-116840000D02*
X109220000Y-112522000D01*
X113351599Y-117290009D02*
X106680000Y-110618410D01*
X106680000Y-110618410D02*
X106680000Y-104140000D01*
X124910010Y-117290010D02*
X113351599Y-117290009D01*
X129540000Y-121920000D02*
X124910010Y-117290010D01*
X104140000Y-108714820D02*
X104140000Y-104140000D01*
X113165198Y-117740018D02*
X104140000Y-108714820D01*
X122820018Y-117740018D02*
X113165198Y-117740018D01*
X127000000Y-121920000D02*
X122820018Y-117740018D01*
X112978797Y-118190027D02*
X101600000Y-106811230D01*
X120730028Y-118190028D02*
X112978797Y-118190027D01*
X101600000Y-106811230D02*
X101600000Y-104140000D01*
X124460000Y-121920000D02*
X120730028Y-118190028D01*
X98552000Y-106172000D02*
X96520000Y-104140000D01*
X99687950Y-106172000D02*
X98552000Y-106172000D01*
X112605995Y-119090045D02*
X99687950Y-106172000D01*
X119380000Y-121920000D02*
X116550045Y-119090045D01*
X116550045Y-119090045D02*
X112605995Y-119090045D01*
X96462010Y-106622010D02*
X93980000Y-104140000D01*
X112419594Y-119540054D02*
X99501550Y-106622010D01*
X99501550Y-106622010D02*
X96462010Y-106622010D01*
X114460055Y-119540055D02*
X112419594Y-119540054D01*
X116840000Y-121920000D02*
X114460055Y-119540055D01*
X111760000Y-121920000D02*
X111760000Y-120153280D01*
X111760000Y-120153280D02*
X99128750Y-107522030D01*
X92282030Y-107522030D02*
X88900000Y-104140000D01*
X99128750Y-107522030D02*
X92282030Y-107522030D01*
X109220000Y-121920000D02*
X109220000Y-118249690D01*
X109220000Y-118249690D02*
X98942350Y-107972040D01*
X90192039Y-107972039D02*
X86360000Y-104140000D01*
X98942350Y-107972040D02*
X90192039Y-107972039D01*
X137795000Y-24130000D02*
X137795000Y-46228000D01*
X137795000Y-46228000D02*
X137795000Y-57023000D01*
X137795000Y-57023000D02*
X136398000Y-58420000D01*
X134620000Y-58420000D02*
X132080000Y-60960000D01*
X136398000Y-58420000D02*
X134620000Y-58420000D01*
X140335000Y-46228000D02*
X140335000Y-24130000D01*
X140335000Y-46228000D02*
X140335000Y-48387000D01*
X140335000Y-48387000D02*
X138430000Y-50292000D01*
X138430000Y-57150000D02*
X134620000Y-60960000D01*
X138430000Y-50292000D02*
X138430000Y-57150000D01*
X113538000Y-25273000D02*
X112395000Y-24130000D01*
X113538000Y-28194000D02*
X113538000Y-25273000D01*
X120650000Y-62230000D02*
X120650000Y-32512000D01*
X121920000Y-63500000D02*
X120650000Y-62230000D01*
X118110000Y-29972000D02*
X115316000Y-29972000D01*
X115316000Y-29972000D02*
X113538000Y-28194000D01*
X120650000Y-32512000D02*
X118110000Y-29972000D01*
X116078000Y-25273000D02*
X116078000Y-28194000D01*
X114935000Y-24130000D02*
X116078000Y-25273000D01*
X116078000Y-28194000D02*
X117094000Y-29210000D01*
X121920000Y-32512000D02*
X121920000Y-57404000D01*
X117094000Y-29210000D02*
X118618000Y-29210000D01*
X121920000Y-57404000D02*
X121920000Y-60960000D01*
X118618000Y-29210000D02*
X121920000Y-32512000D01*
X123190000Y-62230000D02*
X124460000Y-63500000D01*
X123190000Y-32512000D02*
X123190000Y-62230000D01*
X117475000Y-24130000D02*
X118618000Y-25273000D01*
X120142000Y-29464000D02*
X123190000Y-32512000D01*
X118618000Y-25273000D02*
X118618000Y-27940000D01*
X120142000Y-29464000D02*
X118618000Y-27940000D01*
X124460000Y-31750000D02*
X124460000Y-57404000D01*
X121158000Y-28448000D02*
X124460000Y-31750000D01*
X120015000Y-24130000D02*
X121158000Y-25273000D01*
X124460000Y-57404000D02*
X124460000Y-60960000D01*
X121158000Y-25273000D02*
X121158000Y-28448000D01*
X123698000Y-25273000D02*
X122555000Y-24130000D01*
X123698000Y-29464000D02*
X123698000Y-25273000D01*
X125730000Y-31496000D02*
X123698000Y-29464000D01*
X127000000Y-63500000D02*
X125730000Y-62230000D01*
X125730000Y-62230000D02*
X125730000Y-31496000D01*
X127000000Y-57404000D02*
X127000000Y-60960000D01*
X126238000Y-29210000D02*
X127000000Y-29972000D01*
X125095000Y-24130000D02*
X126238000Y-25273000D01*
X127000000Y-29972000D02*
X127000000Y-57404000D01*
X126238000Y-25273000D02*
X126238000Y-29210000D01*
X128270000Y-62230000D02*
X129540000Y-63500000D01*
X128270000Y-29718000D02*
X128270000Y-62230000D01*
X128778000Y-29210000D02*
X128270000Y-29718000D01*
X127635000Y-24130000D02*
X128778000Y-25273000D01*
X128778000Y-25273000D02*
X128778000Y-29210000D01*
X129540000Y-57404000D02*
X129540000Y-60960000D01*
X129540000Y-30988000D02*
X129540000Y-57404000D01*
X131318000Y-29210000D02*
X129540000Y-30988000D01*
X130175000Y-24130000D02*
X131318000Y-25273000D01*
X131318000Y-25273000D02*
X131318000Y-29210000D01*
X140092020Y-58027980D02*
X137160000Y-60960000D01*
X145802790Y-58027980D02*
X140092020Y-58027980D01*
X146281960Y-57548810D02*
X145802790Y-58027980D01*
X150495000Y-24130000D02*
X146281960Y-28343040D01*
X146281960Y-28343040D02*
X146281960Y-57548810D01*
X142182010Y-58477990D02*
X139700000Y-60960000D01*
X145989190Y-58477990D02*
X142182010Y-58477990D01*
X146731970Y-57735210D02*
X145989190Y-58477990D01*
X146731970Y-30433030D02*
X146731970Y-57735210D01*
X153035000Y-24130000D02*
X146731970Y-30433030D01*
X150495000Y-29210000D02*
X149603180Y-29210000D01*
X155575000Y-24130000D02*
X150495000Y-29210000D01*
X147181980Y-31631200D02*
X147181980Y-57921610D01*
X149603180Y-29210000D02*
X147181980Y-31631200D01*
X147181980Y-57921610D02*
X146175590Y-58928000D01*
X144272000Y-58928000D02*
X142240000Y-60960000D01*
X146175590Y-58928000D02*
X144272000Y-58928000D01*
X158115000Y-24130000D02*
X152273000Y-29972000D01*
X149477590Y-29972000D02*
X147631990Y-31817600D01*
X152273000Y-29972000D02*
X149477590Y-29972000D01*
X147631990Y-31817600D02*
X147631990Y-58108010D01*
X147368380Y-58371620D02*
X144780000Y-60960000D01*
X147631990Y-58108010D02*
X147368380Y-58371620D01*
X160655000Y-24130000D02*
X154051000Y-30734000D01*
X154051000Y-30734000D02*
X149352000Y-30734000D01*
X148082000Y-60198000D02*
X147320000Y-60960000D01*
X148082000Y-32004000D02*
X148082000Y-60198000D01*
X149352000Y-30734000D02*
X148082000Y-32004000D01*
X165608000Y-57912000D02*
X162560000Y-60960000D01*
X168656000Y-56134000D02*
X166878000Y-57912000D01*
X166878000Y-57912000D02*
X165608000Y-57912000D01*
X158750000Y-33020000D02*
X168656000Y-42926000D01*
X168656000Y-42926000D02*
X168656000Y-56134000D01*
X162306000Y-58674000D02*
X160020000Y-60960000D01*
X157988000Y-34798000D02*
X159891590Y-34798000D01*
X166566010Y-57461990D02*
X165296010Y-57461990D01*
X168205990Y-43112400D02*
X168205990Y-55822010D01*
X165296010Y-57461990D02*
X164084000Y-58674000D01*
X156210000Y-33020000D02*
X157988000Y-34798000D01*
X168205990Y-55822010D02*
X166566010Y-57461990D01*
X164084000Y-58674000D02*
X162306000Y-58674000D01*
X159891590Y-34798000D02*
X168205990Y-43112400D01*
X153670000Y-33020000D02*
X155898010Y-35248010D01*
X155898010Y-35248010D02*
X159705190Y-35248010D01*
X159705190Y-35248010D02*
X167755980Y-43298800D01*
X167755980Y-43298800D02*
X167755980Y-55635610D01*
X166379610Y-57011980D02*
X165109609Y-57011981D01*
X167755980Y-55635610D02*
X166379610Y-57011980D01*
X160216010Y-58223990D02*
X157480000Y-60960000D01*
X163897600Y-58223990D02*
X160216010Y-58223990D01*
X165109609Y-57011981D02*
X163897600Y-58223990D01*
X151130000Y-33020000D02*
X153808020Y-35698020D01*
X153808020Y-35698020D02*
X159518790Y-35698020D01*
X159518790Y-35698020D02*
X167305970Y-43485200D01*
X167305970Y-43485200D02*
X167305970Y-55449210D01*
X166193208Y-56561972D02*
X164923208Y-56561972D01*
X167305970Y-55449210D02*
X166193208Y-56561972D01*
X158126020Y-57773980D02*
X154940000Y-60960000D01*
X163711200Y-57773980D02*
X158126020Y-57773980D01*
X164923208Y-56561972D02*
X163711200Y-57773980D01*
X151130000Y-53340000D02*
X151130000Y-56134000D01*
X149860000Y-57404000D02*
X149860000Y-60960000D01*
X151130000Y-56134000D02*
X149860000Y-57404000D01*
X153670000Y-53340000D02*
X153670000Y-56388000D01*
X152400000Y-57658000D02*
X152400000Y-60960000D01*
X153670000Y-56388000D02*
X152400000Y-57658000D01*
D39*
X161638000Y-92278000D02*
X158064000Y-92278000D01*
X158064000Y-92278000D02*
X158064000Y-92278000D01*
X164084000Y-77978000D02*
X165890000Y-77978000D01*
X165890000Y-77978000D02*
X167640000Y-77978000D01*
X158064000Y-88468000D02*
X158064000Y-83998000D01*
X158064000Y-83998000D02*
X164084000Y-77978000D01*
D38*
X79239000Y-108966000D02*
X79248000Y-108957000D01*
X76187000Y-108966000D02*
X79239000Y-108966000D01*
X79248000Y-108957000D02*
X80509000Y-108957000D01*
X80509000Y-108957000D02*
X84328000Y-112776000D01*
X84328000Y-112776000D02*
X84328000Y-116078000D01*
X84328000Y-116078000D02*
X88138000Y-119888000D01*
X88138000Y-119888000D02*
X94234000Y-119888000D01*
X94234000Y-119888000D02*
X95250000Y-120904000D01*
X95250000Y-123190000D02*
X96520000Y-124460000D01*
X95250000Y-120904000D02*
X95250000Y-123190000D01*
X73914000Y-120414000D02*
X72662000Y-120414000D01*
X72662000Y-120414000D02*
X72390000Y-120142000D01*
X72390000Y-120142000D02*
X69088000Y-120142000D01*
X68652000Y-120578000D02*
X67564000Y-120578000D01*
X69088000Y-120142000D02*
X68652000Y-120578000D01*
X73914000Y-120414000D02*
X80282000Y-120414000D01*
X80282000Y-120414000D02*
X86106000Y-126238000D01*
X86106000Y-126238000D02*
X99568000Y-126238000D01*
X99568000Y-126238000D02*
X100330000Y-125476000D01*
X100330000Y-123190000D02*
X101600000Y-121920000D01*
X100330000Y-125476000D02*
X100330000Y-123190000D01*
X76187000Y-106426000D02*
X79248000Y-106426000D01*
X79248000Y-106426000D02*
X79248000Y-107059590D01*
X84778010Y-112589600D02*
X84778010Y-115891600D01*
X79248000Y-107059590D02*
X84778010Y-112589600D01*
X84778010Y-115891600D02*
X88324400Y-119437990D01*
X96520000Y-121537590D02*
X96520000Y-121920000D01*
X94420401Y-119437991D02*
X96520000Y-121537590D01*
X88324400Y-119437990D02*
X94420401Y-119437991D01*
X114536000Y-124696000D02*
X114300000Y-124460000D01*
X114536000Y-136144000D02*
X114536000Y-124696000D01*
X132334000Y-140970000D02*
X133332000Y-140970000D01*
X131826000Y-140462000D02*
X132334000Y-140970000D01*
X131826000Y-138812410D02*
X131826000Y-140462000D01*
X128622500Y-137271500D02*
X130285090Y-137271500D01*
X130285090Y-137271500D02*
X131826000Y-138812410D01*
X133341000Y-138430000D02*
X132080000Y-138430000D01*
X130421500Y-136771500D02*
X128622500Y-136771500D01*
X132080000Y-138430000D02*
X130421500Y-136771500D01*
X76187000Y-103886000D02*
X79248000Y-103886000D01*
X79248000Y-103886000D02*
X79248000Y-104394000D01*
X80264000Y-105410000D02*
X80264000Y-107439180D01*
X79248000Y-104394000D02*
X80264000Y-105410000D01*
X85228020Y-112403200D02*
X85228020Y-115705200D01*
X80264000Y-107439180D02*
X85228020Y-112403200D01*
X85228020Y-115705200D02*
X88510801Y-118987981D01*
X88510801Y-118987981D02*
X96127981Y-118987981D01*
X96127981Y-118987981D02*
X97790000Y-120650000D01*
X97790000Y-123190000D02*
X99060000Y-124460000D01*
X97790000Y-120650000D02*
X97790000Y-123190000D01*
X76187000Y-101346000D02*
X79248000Y-101346000D01*
X99060000Y-121283590D02*
X99060000Y-121920000D01*
X85678030Y-115518800D02*
X88697201Y-118537971D01*
X83312000Y-103124000D02*
X83312000Y-109850770D01*
X96314382Y-118537972D02*
X99060000Y-121283590D01*
X79248000Y-101346000D02*
X81534000Y-101346000D01*
X85678030Y-112216800D02*
X85678030Y-115518800D01*
X88697201Y-118537971D02*
X96314382Y-118537972D01*
X81534000Y-101346000D02*
X83312000Y-103124000D01*
X83312000Y-109850770D02*
X85678030Y-112216800D01*
X91937000Y-41645000D02*
X91937000Y-43998000D01*
X90442000Y-40894000D02*
X91186000Y-40894000D01*
X91186000Y-40894000D02*
X91937000Y-41645000D01*
X103747980Y-58027980D02*
X106680000Y-60960000D01*
X91948000Y-44910058D02*
X91948000Y-45720000D01*
X91937000Y-43998000D02*
X91937000Y-44899058D01*
X96774000Y-47540998D02*
X96774000Y-53346998D01*
X98667980Y-58027980D02*
X103747980Y-58027980D01*
X93218000Y-46990000D02*
X96223002Y-46990000D01*
X91937000Y-44899058D02*
X91948000Y-44910058D01*
X96774000Y-53346998D02*
X96764999Y-53355999D01*
X91948000Y-45720000D02*
X93218000Y-46990000D01*
X96764999Y-56124999D02*
X98667980Y-58027980D01*
X96223002Y-46990000D02*
X96774000Y-47540998D01*
X96764999Y-53355999D02*
X96764999Y-56124999D01*
X139700000Y-124460000D02*
X139700000Y-129540000D01*
X137160000Y-129540000D02*
X137160000Y-124460000D01*
X144018000Y-126238000D02*
X142240000Y-124460000D01*
X144018000Y-136652000D02*
X144018000Y-126238000D01*
X149082500Y-137271500D02*
X148006478Y-137271500D01*
X147386978Y-136652000D02*
X146068000Y-136652000D01*
X148006478Y-137271500D02*
X147386978Y-136652000D01*
X157407500Y-137271500D02*
X160036910Y-137271500D01*
X161164410Y-136144000D02*
X162560000Y-136144000D01*
X160036910Y-137271500D02*
X161164410Y-136144000D01*
X115305000Y-42982000D02*
X115305000Y-44559410D01*
X115305000Y-44559410D02*
X117423600Y-46678010D01*
X117423600Y-46678010D02*
X118431600Y-46678010D01*
X118431600Y-46678010D02*
X119691990Y-47938400D01*
X119691990Y-47938400D02*
X119691990Y-57404000D01*
X119691990Y-57404000D02*
X118110000Y-58985990D01*
X118110000Y-62230000D02*
X119380000Y-63500000D01*
X118110000Y-58985990D02*
X118110000Y-62230000D01*
X112014000Y-39370000D02*
X112014000Y-40640000D01*
X112014000Y-40640000D02*
X112522000Y-41148000D01*
X112522000Y-41148000D02*
X114808000Y-41148000D01*
X115305000Y-41645000D02*
X115305000Y-42982000D01*
X114808000Y-41148000D02*
X115305000Y-41645000D01*
X162560000Y-133604000D02*
X161544000Y-133604000D01*
X161544000Y-133604000D02*
X160782000Y-134366000D01*
X160782000Y-134366000D02*
X160782000Y-135890000D01*
X159900500Y-136771500D02*
X157407500Y-136771500D01*
X160782000Y-135890000D02*
X159900500Y-136771500D01*
X153924000Y-69596000D02*
X160020000Y-63500000D01*
X152926000Y-69596000D02*
X153924000Y-69596000D01*
X140672000Y-72371000D02*
X143529000Y-72371000D01*
X146304000Y-69596000D02*
X150876000Y-69596000D01*
X143529000Y-72371000D02*
X146304000Y-69596000D01*
X139547000Y-74321000D02*
X137414000Y-76454000D01*
X140672000Y-74321000D02*
X139547000Y-74321000D01*
X140672000Y-74321000D02*
X142849000Y-74321000D01*
X142849000Y-74321000D02*
X146304000Y-70866000D01*
X149606000Y-70866000D02*
X150876000Y-72136000D01*
X146304000Y-70866000D02*
X149606000Y-70866000D01*
X152926000Y-72136000D02*
X153924000Y-72136000D01*
X161995999Y-64064001D02*
X162560000Y-63500000D01*
X153924000Y-72136000D02*
X161995999Y-64064001D01*
X140672000Y-71721000D02*
X139031000Y-71721000D01*
X138684000Y-71374000D02*
X137414000Y-71374000D01*
X139031000Y-71721000D02*
X138684000Y-71374000D01*
X140672000Y-71721000D02*
X142841000Y-71721000D01*
X147506000Y-67056000D02*
X150876000Y-67056000D01*
X142841000Y-71721000D02*
X147506000Y-67056000D01*
X153924000Y-67056000D02*
X157480000Y-63500000D01*
X152926000Y-67056000D02*
X153924000Y-67056000D01*
X153797000Y-89789000D02*
X152146000Y-89789000D01*
X152146000Y-89789000D02*
X152019000Y-89789000D01*
X152019000Y-89789000D02*
X152019000Y-89789000D01*
X152019000Y-89789000D02*
X152019000Y-89789000D01*
X128622500Y-131771500D02*
X129848500Y-131771500D01*
X129848500Y-131771500D02*
X131629990Y-129990010D01*
X131629990Y-126549990D02*
X129540000Y-124460000D01*
X131629990Y-129990010D02*
X131629990Y-126549990D01*
X128622500Y-132271500D02*
X130110500Y-132271500D01*
X132080000Y-130302000D02*
X132080000Y-124460000D01*
X130110500Y-132271500D02*
X132080000Y-130302000D01*
X128622500Y-132771500D02*
X130246910Y-132771500D01*
X130246910Y-132771500D02*
X132530010Y-130488400D01*
X132530010Y-126549990D02*
X134620000Y-124460000D01*
X132530010Y-130488400D02*
X132530010Y-126549990D01*
X116840000Y-124460000D02*
X116840000Y-127379590D01*
X120272510Y-136796490D02*
X120297500Y-136771500D01*
X119382878Y-136796490D02*
X120272510Y-136796490D01*
X115627991Y-133041603D02*
X119382878Y-136796490D01*
X116840000Y-127379590D02*
X115627990Y-128591600D01*
X115627990Y-128591600D02*
X115627991Y-133041603D01*
X119494298Y-136271500D02*
X116078000Y-132855202D01*
X120297500Y-136271500D02*
X119494298Y-136271500D01*
X116078000Y-132855202D02*
X116078000Y-128778000D01*
X119380000Y-125476000D02*
X119380000Y-124460000D01*
X116078000Y-128778000D02*
X119380000Y-125476000D01*
X122710000Y-130359000D02*
X122710000Y-128367590D01*
X122710000Y-128367590D02*
X123952000Y-127125590D01*
X123952000Y-126492000D02*
X121920000Y-124460000D01*
X123952000Y-127125590D02*
X123952000Y-126492000D01*
X123210000Y-130359000D02*
X123210000Y-128504000D01*
X124460000Y-127254000D02*
X124460000Y-124460000D01*
X123210000Y-128504000D02*
X124460000Y-127254000D01*
X123710000Y-128640410D02*
X124968000Y-127382410D01*
X123710000Y-130359000D02*
X123710000Y-128640410D01*
X124968000Y-126492000D02*
X127000000Y-124460000D01*
X124968000Y-127382410D02*
X124968000Y-126492000D01*
X101657990Y-58477990D02*
X104140000Y-60960000D01*
X94234000Y-54356000D02*
X98355990Y-58477990D01*
X91440000Y-54102000D02*
X91694000Y-54356000D01*
X89987000Y-52141000D02*
X90227990Y-52381990D01*
X90227990Y-52381990D02*
X90735990Y-52381990D01*
X98355990Y-58477990D02*
X101657990Y-58477990D01*
X90735990Y-52381990D02*
X91440000Y-53086000D01*
X91694000Y-54356000D02*
X94234000Y-54356000D01*
X89987000Y-50998000D02*
X89987000Y-52141000D01*
X91440000Y-53086000D02*
X91440000Y-54102000D01*
X99568000Y-58928000D02*
X101600000Y-60960000D01*
X98044000Y-58928000D02*
X99568000Y-58928000D01*
X90932000Y-54356000D02*
X91440000Y-54864000D01*
X93980000Y-54864000D02*
X98044000Y-58928000D01*
X89337000Y-52253000D02*
X89916000Y-52832000D01*
X89337000Y-50998000D02*
X89337000Y-52253000D01*
X89916000Y-52832000D02*
X90424000Y-52832000D01*
X91440000Y-54864000D02*
X93980000Y-54864000D01*
X90932000Y-53340000D02*
X90932000Y-54356000D01*
X90424000Y-52832000D02*
X90932000Y-53340000D01*
X89535000Y-56270000D02*
X90542000Y-56270000D01*
X90932000Y-55880000D02*
X92202000Y-55880000D01*
X90542000Y-56270000D02*
X90932000Y-55880000D01*
X93980000Y-55880000D02*
X99060000Y-60960000D01*
X92202000Y-55880000D02*
X93980000Y-55880000D01*
X96520000Y-59182000D02*
X96520000Y-60960000D01*
X88037000Y-56795000D02*
X88646000Y-57404000D01*
X94234000Y-56896000D02*
X96520000Y-59182000D01*
X90932000Y-56896000D02*
X94234000Y-56896000D01*
X88037000Y-50998000D02*
X88037000Y-56795000D01*
X88646000Y-57404000D02*
X90424000Y-57404000D01*
X90424000Y-57404000D02*
X90932000Y-56896000D01*
X99995970Y-57577970D02*
X105837970Y-57577970D01*
X99060000Y-56642000D02*
X99995970Y-57577970D01*
X105837970Y-57577970D02*
X109220000Y-60960000D01*
X99060000Y-48768000D02*
X99060000Y-56642000D01*
X98552000Y-48260000D02*
X99060000Y-48768000D01*
X93404400Y-46539990D02*
X96409403Y-46539991D01*
X92587000Y-45722590D02*
X93404400Y-46539990D01*
X96409403Y-46539991D02*
X98129412Y-48260000D01*
X92587000Y-43998000D02*
X92587000Y-45722590D01*
X98129412Y-48260000D02*
X98552000Y-48260000D01*
X119380000Y-59182000D02*
X119380000Y-60960000D01*
X120142000Y-58420000D02*
X119380000Y-59182000D01*
X115955000Y-44573000D02*
X117610000Y-46228000D01*
X115955000Y-42982000D02*
X115955000Y-44573000D01*
X120142000Y-47752000D02*
X120142000Y-58420000D01*
X117610000Y-46228000D02*
X118618000Y-46228000D01*
X118618000Y-46228000D02*
X120142000Y-47752000D01*
X111405000Y-49982000D02*
X111405000Y-56541000D01*
X111405000Y-56541000D02*
X111506000Y-56642000D01*
X111506000Y-60706000D02*
X111760000Y-60960000D01*
X111506000Y-56642000D02*
X111506000Y-60706000D01*
X112522000Y-57649000D02*
X112531000Y-57658000D01*
X112522000Y-55626000D02*
X112522000Y-57649000D01*
X112531000Y-57658000D02*
X113284000Y-57658000D01*
X114300000Y-58674000D02*
X114300000Y-60960000D01*
X113284000Y-57658000D02*
X114300000Y-58674000D01*
X112705000Y-49982000D02*
X112705000Y-51624215D01*
X113849990Y-52769205D02*
X113849991Y-56574401D01*
X112705000Y-51624215D02*
X113849990Y-52769205D01*
X113849991Y-56574401D02*
X115570000Y-58294410D01*
X115570000Y-62230000D02*
X116840000Y-63500000D01*
X115570000Y-58294410D02*
X115570000Y-62230000D01*
X113355000Y-49982000D02*
X113355000Y-51633000D01*
X113355000Y-51633000D02*
X114300000Y-52578000D01*
X114300000Y-52578000D02*
X114300000Y-56388000D01*
X116840000Y-58928000D02*
X116840000Y-60960000D01*
X114300000Y-56388000D02*
X116840000Y-58928000D01*
X101600000Y-124460000D02*
X101600000Y-126492000D01*
X101600000Y-126492000D02*
X99568000Y-128524000D01*
X99568000Y-128524000D02*
X99568000Y-130048000D01*
X99187000Y-130429000D02*
X98000000Y-130429000D01*
X99568000Y-130048000D02*
X99187000Y-130429000D01*
X105200000Y-132969000D02*
X106299000Y-132969000D01*
X106299000Y-132969000D02*
X106680000Y-132588000D01*
X106680000Y-132588000D02*
X106680000Y-124460000D01*
X105200000Y-131699000D02*
X104013000Y-131699000D01*
X104013000Y-131699000D02*
X103378000Y-131064000D01*
X103378000Y-131064000D02*
X103378000Y-128270000D01*
X103378000Y-128270000D02*
X105410000Y-126238000D01*
X105410000Y-123190000D02*
X106680000Y-121920000D01*
X105410000Y-126238000D02*
X105410000Y-123190000D01*
X98000000Y-132969000D02*
X99187000Y-132969000D01*
X99187000Y-132969000D02*
X100838000Y-131318000D01*
X100838000Y-131318000D02*
X100838000Y-129032000D01*
X104140000Y-125730000D02*
X104140000Y-124460000D01*
X100838000Y-129032000D02*
X104140000Y-125730000D01*
X98000000Y-131699000D02*
X99187000Y-131699000D01*
X99187000Y-131699000D02*
X100076000Y-130810000D01*
X100076000Y-130810000D02*
X100076000Y-128778000D01*
X100076000Y-128778000D02*
X102870000Y-125984000D01*
X102870000Y-123190000D02*
X104140000Y-121920000D01*
X102870000Y-125984000D02*
X102870000Y-123190000D01*
X105200000Y-134239000D02*
X106299000Y-134239000D01*
X106299000Y-134239000D02*
X107442000Y-133096000D01*
X107442000Y-126238000D02*
X109220000Y-124460000D01*
X107442000Y-133096000D02*
X107442000Y-126238000D01*
X116713000Y-85725000D02*
X121539000Y-85725000D01*
X112210010Y-81222010D02*
X116713000Y-85725000D01*
X114300000Y-63500000D02*
X112210010Y-65589990D01*
X112210010Y-65589990D02*
X112210010Y-81222010D01*
X157407500Y-131771500D02*
X159058500Y-131771500D01*
X159058500Y-131771500D02*
X159512000Y-131318000D01*
X159512000Y-126492000D02*
X157480000Y-124460000D01*
X159512000Y-131318000D02*
X159512000Y-126492000D01*
X117092590Y-86741000D02*
X120269000Y-86741000D01*
X111760000Y-63500000D02*
X111760001Y-81408411D01*
X111760001Y-81408411D02*
X117092590Y-86741000D01*
X157442490Y-132296490D02*
X159295510Y-132296490D01*
X157407500Y-132271500D02*
X157417500Y-132271500D01*
X157417500Y-132271500D02*
X157442490Y-132296490D01*
X160020000Y-131572000D02*
X160020000Y-124460000D01*
X159295510Y-132296490D02*
X160020000Y-131572000D01*
X159456910Y-132771500D02*
X160528000Y-131700410D01*
X157407500Y-132771500D02*
X159456910Y-132771500D01*
X160528000Y-126492000D02*
X162560000Y-124460000D01*
X160528000Y-131700410D02*
X160528000Y-126492000D01*
X151520000Y-128767590D02*
X151892000Y-128395590D01*
X151520000Y-129404000D02*
X151520000Y-128767590D01*
X151495000Y-130359000D02*
X151495000Y-129429000D01*
X151495000Y-129429000D02*
X151520000Y-129404000D01*
X151892000Y-126492000D02*
X149860000Y-124460000D01*
X151892000Y-128395590D02*
X151892000Y-126492000D01*
X151970010Y-130126010D02*
X151970010Y-128953990D01*
X151995000Y-130359000D02*
X151995000Y-130151000D01*
X151995000Y-130151000D02*
X151970010Y-130126010D01*
X152400000Y-128524000D02*
X152400000Y-124460000D01*
X151970010Y-128953990D02*
X152400000Y-128524000D01*
X152495000Y-129065410D02*
X152908000Y-128652410D01*
X152495000Y-130359000D02*
X152495000Y-129065410D01*
X152908000Y-126492000D02*
X154940000Y-124460000D01*
X152908000Y-128652410D02*
X152908000Y-126492000D01*
X148142888Y-136771500D02*
X149082500Y-136771500D01*
X144583991Y-133212603D02*
X148142888Y-136771500D01*
X144583990Y-127829600D02*
X144583991Y-133212603D01*
X144780000Y-127633590D02*
X144583990Y-127829600D01*
X144780000Y-124460000D02*
X144780000Y-127633590D01*
X145034000Y-128016000D02*
X147320000Y-125730000D01*
X145034000Y-133026202D02*
X145034000Y-128016000D01*
X147320000Y-125730000D02*
X147320000Y-124460000D01*
X149082500Y-136271500D02*
X148279298Y-136271500D01*
X148279298Y-136271500D02*
X145034000Y-133026202D01*
X88687000Y-50998000D02*
X88687000Y-52365000D01*
X89535000Y-53213000D02*
X89535000Y-54220000D01*
X88687000Y-52365000D02*
X89535000Y-53213000D01*
X112055000Y-49982000D02*
X112055000Y-52111000D01*
X112522000Y-52578000D02*
X112522000Y-53576000D01*
X112055000Y-52111000D02*
X112522000Y-52578000D01*
D39*
X95250000Y-34845000D02*
X99775000Y-34845000D01*
X100330000Y-34290000D02*
X101600000Y-34290000D01*
X99775000Y-34845000D02*
X100330000Y-34290000D01*
X101600000Y-30480000D02*
X101600000Y-32385000D01*
X100330000Y-33655000D02*
X100330000Y-34290000D01*
X101600000Y-32385000D02*
X100330000Y-33655000D01*
X106680000Y-32385000D02*
X101600000Y-32385000D01*
X95250000Y-37465000D02*
X95250000Y-38100000D01*
X97790000Y-40640000D02*
X101600000Y-40640000D01*
X95250000Y-38100000D02*
X97790000Y-40640000D01*
X101600000Y-36830000D02*
X101600000Y-38100000D01*
X99060000Y-40640000D02*
X97790000Y-40640000D01*
X106680000Y-38735000D02*
X100965000Y-38735000D01*
X101600000Y-38100000D02*
X99695000Y-40005000D01*
X100965000Y-38735000D02*
X99695000Y-40005000D01*
X99695000Y-40005000D02*
X99060000Y-40640000D01*
D40*
X87723200Y-33245000D02*
X85183200Y-35785000D01*
X90750000Y-33481397D02*
X90513603Y-33245000D01*
X90750000Y-34845000D02*
X90750000Y-33481397D01*
X90513603Y-33245000D02*
X87723200Y-33245000D01*
X85183200Y-35785000D02*
X83913200Y-35785000D01*
X83913200Y-35785000D02*
X82013000Y-37685200D01*
X82013000Y-37685200D02*
X82013000Y-39722000D01*
X82013000Y-39722000D02*
X83058000Y-40767000D01*
X87536800Y-32795000D02*
X84996800Y-35335000D01*
X92750000Y-34845000D02*
X90700000Y-32795000D01*
X90700000Y-32795000D02*
X87536800Y-32795000D01*
X84996800Y-35335000D02*
X83726800Y-35335000D01*
X83726800Y-35335000D02*
X81563000Y-37498800D01*
X81563000Y-39722000D02*
X80518000Y-40767000D01*
X81563000Y-37498800D02*
X81563000Y-39722000D01*
X90750000Y-37465000D02*
X91525000Y-38240000D01*
X91525000Y-38240000D02*
X91525000Y-39265200D01*
X91525000Y-39265200D02*
X95025000Y-42765200D01*
X95025000Y-43100000D02*
X95550198Y-43625198D01*
X95025000Y-42765200D02*
X95025000Y-43100000D01*
X95550198Y-43625198D02*
X97772000Y-45847000D01*
X91975000Y-38240000D02*
X91975000Y-39078800D01*
X92750000Y-37465000D02*
X91975000Y-38240000D01*
X91975000Y-39078800D02*
X95475000Y-42578800D01*
X95868397Y-43307000D02*
X97772000Y-43307000D01*
X95475000Y-42913603D02*
X95868397Y-43307000D01*
X95475000Y-42578800D02*
X95475000Y-42913603D01*
X83058000Y-42817000D02*
X85395302Y-42817000D01*
X85940311Y-42271990D02*
X87229990Y-42271990D01*
X85395302Y-42817000D02*
X85940311Y-42271990D01*
X88037000Y-43079000D02*
X88037000Y-43998000D01*
X87229990Y-42271990D02*
X88037000Y-43079000D01*
X80518000Y-42817000D02*
X81643000Y-43942000D01*
X81643000Y-43942000D02*
X84836000Y-43942000D01*
X84836000Y-43942000D02*
X86106000Y-42672000D01*
X87387000Y-43048000D02*
X87387000Y-43998000D01*
X87011000Y-42672000D02*
X87387000Y-43048000D01*
X86106000Y-42672000D02*
X87011000Y-42672000D01*
X111405000Y-43932000D02*
X111405000Y-42982000D01*
X110535000Y-44802000D02*
X111405000Y-43932000D01*
X100867000Y-44802000D02*
X110535000Y-44802000D01*
X99822000Y-45847000D02*
X100867000Y-44802000D01*
X110335000Y-44352000D02*
X110755000Y-43932000D01*
X110755000Y-43932000D02*
X110755000Y-42982000D01*
X100867000Y-44352000D02*
X110335000Y-44352000D01*
X99822000Y-43307000D02*
X100867000Y-44352000D01*
D38*
X161050000Y-116346000D02*
X159726000Y-116346000D01*
X163830000Y-119126000D02*
X161050000Y-116346000D01*
D40*
X159962999Y-91303000D02*
X159056800Y-91303000D01*
X160137999Y-91478000D02*
X159962999Y-91303000D01*
X161638000Y-91478000D02*
X160137999Y-91478000D01*
X159056800Y-91303000D02*
X157894800Y-90141000D01*
X157894800Y-90141000D02*
X157132800Y-90141000D01*
X157132800Y-90141000D02*
X155985000Y-88993200D01*
X155985000Y-88993200D02*
X155985000Y-85945200D01*
X154143500Y-84870500D02*
X153162000Y-85852000D01*
X155985000Y-85945200D02*
X154910300Y-84870500D01*
X154910300Y-84870500D02*
X154143500Y-84870500D01*
X160137999Y-90678000D02*
X159962999Y-90853000D01*
X161638000Y-90678000D02*
X160137999Y-90678000D01*
X159962999Y-90853000D02*
X159243200Y-90853000D01*
X159243200Y-90853000D02*
X158081200Y-89691000D01*
X158081200Y-89691000D02*
X157319200Y-89691000D01*
X157319200Y-89691000D02*
X156435000Y-88806800D01*
X156435000Y-88806800D02*
X156435000Y-85758800D01*
X156435000Y-85758800D02*
X155096700Y-84420500D01*
X155096700Y-84420500D02*
X154143500Y-84420500D01*
X154143500Y-84420500D02*
X153162000Y-83439000D01*
X150130500Y-84870500D02*
X148814300Y-84870500D01*
X151112000Y-85852000D02*
X150130500Y-84870500D01*
X148814300Y-84870500D02*
X145571000Y-81627200D01*
X145571000Y-81627200D02*
X145571000Y-80424800D01*
X147197000Y-79521000D02*
X147872000Y-79521000D01*
X147097000Y-79621000D02*
X147197000Y-79521000D01*
X146374800Y-79621000D02*
X147097000Y-79621000D01*
X145571000Y-80424800D02*
X146374800Y-79621000D01*
X151112000Y-83439000D02*
X150130500Y-84420500D01*
X150130500Y-84420500D02*
X149000700Y-84420500D01*
X149000700Y-84420500D02*
X146021000Y-81440800D01*
X146021000Y-81440800D02*
X146021000Y-80611200D01*
X146561200Y-80071000D02*
X147097000Y-80071000D01*
X147097000Y-80071000D02*
X147197000Y-80171000D01*
X146021000Y-80611200D02*
X146561200Y-80071000D01*
X147197000Y-80171000D02*
X147872000Y-80171000D01*
D38*
X99060000Y-104907640D02*
X99060000Y-104140000D01*
X112792396Y-118640036D02*
X99060000Y-104907640D01*
X118640036Y-118640036D02*
X112792396Y-118640036D01*
X121920000Y-121920000D02*
X118640036Y-118640036D01*
M02*
