G04 #@! TF.GenerationSoftware,KiCad,Pcbnew,5.1.10-88a1d61d58~90~ubuntu20.04.1*
G04 #@! TF.CreationDate,2021-11-05T20:40:26+01:00*
G04 #@! TF.ProjectId,FPGC4IOboard,46504743-3449-44f6-926f-6172642e6b69,rev?*
G04 #@! TF.SameCoordinates,Original*
G04 #@! TF.FileFunction,Copper,L4,Bot*
G04 #@! TF.FilePolarity,Positive*
%FSLAX46Y46*%
G04 Gerber Fmt 4.6, Leading zero omitted, Abs format (unit mm)*
G04 Created by KiCad (PCBNEW 5.1.10-88a1d61d58~90~ubuntu20.04.1) date 2021-11-05 20:40:26*
%MOMM*%
%LPD*%
G01*
G04 APERTURE LIST*
G04 #@! TA.AperFunction,ComponentPad*
%ADD10C,2.100000*%
G04 #@! TD*
G04 #@! TA.AperFunction,ComponentPad*
%ADD11C,1.750000*%
G04 #@! TD*
G04 #@! TA.AperFunction,ComponentPad*
%ADD12R,1.700000X1.700000*%
G04 #@! TD*
G04 #@! TA.AperFunction,ComponentPad*
%ADD13O,1.700000X1.700000*%
G04 #@! TD*
G04 #@! TA.AperFunction,ComponentPad*
%ADD14R,1.600000X1.600000*%
G04 #@! TD*
G04 #@! TA.AperFunction,ComponentPad*
%ADD15C,1.600000*%
G04 #@! TD*
G04 #@! TA.AperFunction,ComponentPad*
%ADD16R,1.200000X1.200000*%
G04 #@! TD*
G04 #@! TA.AperFunction,ComponentPad*
%ADD17C,1.200000*%
G04 #@! TD*
G04 #@! TA.AperFunction,ComponentPad*
%ADD18O,2.000000X1.600000*%
G04 #@! TD*
G04 #@! TA.AperFunction,ComponentPad*
%ADD19O,2.600000X1.800000*%
G04 #@! TD*
G04 #@! TA.AperFunction,ComponentPad*
%ADD20O,4.000000X2.000000*%
G04 #@! TD*
G04 #@! TA.AperFunction,ComponentPad*
%ADD21O,2.000000X3.500000*%
G04 #@! TD*
G04 #@! TA.AperFunction,ComponentPad*
%ADD22C,1.500000*%
G04 #@! TD*
G04 #@! TA.AperFunction,ComponentPad*
%ADD23C,3.000000*%
G04 #@! TD*
G04 #@! TA.AperFunction,ComponentPad*
%ADD24R,1.500000X1.500000*%
G04 #@! TD*
G04 #@! TA.AperFunction,ComponentPad*
%ADD25O,2.300000X1.500000*%
G04 #@! TD*
G04 #@! TA.AperFunction,ComponentPad*
%ADD26O,3.500000X1.700000*%
G04 #@! TD*
G04 #@! TA.AperFunction,ComponentPad*
%ADD27C,6.400000*%
G04 #@! TD*
G04 #@! TA.AperFunction,ComponentPad*
%ADD28O,1.900000X1.200000*%
G04 #@! TD*
G04 #@! TA.AperFunction,SMDPad,CuDef*
%ADD29R,0.800000X0.900000*%
G04 #@! TD*
G04 #@! TA.AperFunction,ComponentPad*
%ADD30C,2.550000*%
G04 #@! TD*
G04 #@! TA.AperFunction,ComponentPad*
%ADD31C,3.616000*%
G04 #@! TD*
G04 #@! TA.AperFunction,ViaPad*
%ADD32C,1.400000*%
G04 #@! TD*
G04 #@! TA.AperFunction,ViaPad*
%ADD33C,0.800000*%
G04 #@! TD*
G04 #@! TA.AperFunction,Conductor*
%ADD34C,0.500000*%
G04 #@! TD*
G04 #@! TA.AperFunction,Conductor*
%ADD35C,0.250000*%
G04 #@! TD*
G04 #@! TA.AperFunction,Conductor*
%ADD36C,0.200000*%
G04 #@! TD*
G04 APERTURE END LIST*
D10*
X83770000Y-66020000D03*
D11*
X81280000Y-64770000D03*
X81280000Y-60270000D03*
D10*
X83770000Y-59010000D03*
D12*
X132715000Y-102870000D03*
D13*
X132715000Y-100330000D03*
X130175000Y-102870000D03*
X130175000Y-100330000D03*
X127635000Y-102870000D03*
X127635000Y-100330000D03*
X125095000Y-102870000D03*
X125095000Y-100330000D03*
X122555000Y-102870000D03*
X122555000Y-100330000D03*
X120015000Y-102870000D03*
X120015000Y-100330000D03*
X117475000Y-102870000D03*
X117475000Y-100330000D03*
X114935000Y-102870000D03*
X114935000Y-100330000D03*
X112395000Y-102870000D03*
X112395000Y-100330000D03*
X109855000Y-102870000D03*
X109855000Y-100330000D03*
X109855000Y-95250000D03*
X109855000Y-97790000D03*
X112395000Y-95250000D03*
X112395000Y-97790000D03*
X114935000Y-95250000D03*
X114935000Y-97790000D03*
X117475000Y-95250000D03*
X117475000Y-97790000D03*
X120015000Y-95250000D03*
X120015000Y-97790000D03*
X122555000Y-95250000D03*
X122555000Y-97790000D03*
X125095000Y-95250000D03*
X125095000Y-97790000D03*
X127635000Y-95250000D03*
X127635000Y-97790000D03*
X130175000Y-95250000D03*
X130175000Y-97790000D03*
X132715000Y-95250000D03*
D12*
X132715000Y-97790000D03*
X133985000Y-56515000D03*
D14*
X154305000Y-99060000D03*
D15*
X154305000Y-101060000D03*
D16*
X104140000Y-51435000D03*
D17*
X102140000Y-51435000D03*
D18*
X163980000Y-75960000D03*
X166980000Y-75960000D03*
X159980000Y-75960000D03*
X158880000Y-71360000D03*
D12*
X104140000Y-133985000D03*
D13*
X101600000Y-133985000D03*
X99060000Y-133985000D03*
X96520000Y-133985000D03*
X93980000Y-133985000D03*
X91440000Y-133985000D03*
X88900000Y-133985000D03*
D12*
X131445000Y-133985000D03*
D13*
X128905000Y-133985000D03*
X126365000Y-133985000D03*
X123825000Y-133985000D03*
X121285000Y-133985000D03*
X118745000Y-133985000D03*
X116205000Y-133985000D03*
X113665000Y-133985000D03*
X111125000Y-133985000D03*
X108585000Y-133985000D03*
X143510000Y-56515000D03*
X146050000Y-56515000D03*
X148590000Y-56515000D03*
X151130000Y-56515000D03*
X153670000Y-56515000D03*
D12*
X156210000Y-56515000D03*
X156210000Y-36195000D03*
D13*
X153670000Y-36195000D03*
X151130000Y-36195000D03*
X148590000Y-36195000D03*
X146050000Y-36195000D03*
X143510000Y-36195000D03*
D12*
X128905000Y-36195000D03*
D13*
X131445000Y-36195000D03*
X133985000Y-36195000D03*
D10*
X83770000Y-119970000D03*
D11*
X81280000Y-121230000D03*
X81280000Y-125730000D03*
D10*
X83770000Y-126980000D03*
D19*
X89535000Y-105690000D03*
X89535000Y-110490000D03*
X89535000Y-115290000D03*
D20*
X118140000Y-38895000D03*
D15*
X121540000Y-45345000D03*
X114740000Y-45345000D03*
X121540000Y-42545000D03*
X114740000Y-42545000D03*
X119440000Y-42545000D03*
D14*
X116840000Y-42545000D03*
D21*
X111290000Y-39695000D03*
X124990000Y-39695000D03*
D22*
X97140000Y-43735000D03*
X99640000Y-43735000D03*
X101640000Y-43735000D03*
X104140000Y-43735000D03*
D23*
X94070000Y-41025000D03*
X107210000Y-41025000D03*
D22*
X97140000Y-46355000D03*
X99640000Y-46355000D03*
X101640000Y-46355000D03*
D24*
X104140000Y-46355000D03*
D23*
X107210000Y-46705000D03*
X94070000Y-46705000D03*
D25*
X166370000Y-116724000D03*
X166370000Y-102224000D03*
D26*
X160410000Y-116724000D03*
X160410000Y-102224000D03*
D27*
X166370000Y-37465000D03*
X82550000Y-37465000D03*
X82550000Y-132715000D03*
X166370000Y-132715000D03*
D13*
X167640000Y-121920000D03*
X167640000Y-124460000D03*
X165100000Y-121920000D03*
X165100000Y-124460000D03*
X162560000Y-121920000D03*
X162560000Y-124460000D03*
X160020000Y-121920000D03*
X160020000Y-124460000D03*
X157480000Y-121920000D03*
X157480000Y-124460000D03*
X154940000Y-121920000D03*
X154940000Y-124460000D03*
X152400000Y-121920000D03*
X152400000Y-124460000D03*
X149860000Y-121920000D03*
X149860000Y-124460000D03*
X147320000Y-121920000D03*
X147320000Y-124460000D03*
X144780000Y-121920000D03*
X144780000Y-124460000D03*
X142240000Y-121920000D03*
X142240000Y-124460000D03*
X139700000Y-121920000D03*
X139700000Y-124460000D03*
X137160000Y-121920000D03*
X137160000Y-124460000D03*
X134620000Y-121920000D03*
X134620000Y-124460000D03*
X132080000Y-121920000D03*
X132080000Y-124460000D03*
X129540000Y-121920000D03*
X129540000Y-124460000D03*
X127000000Y-121920000D03*
X127000000Y-124460000D03*
X124460000Y-121920000D03*
X124460000Y-124460000D03*
X121920000Y-121920000D03*
X121920000Y-124460000D03*
X119380000Y-121920000D03*
X119380000Y-124460000D03*
X116840000Y-121920000D03*
X116840000Y-124460000D03*
X114300000Y-121920000D03*
X114300000Y-124460000D03*
X111760000Y-121920000D03*
X111760000Y-124460000D03*
X109220000Y-121920000D03*
X109220000Y-124460000D03*
X106680000Y-121920000D03*
X106680000Y-124460000D03*
X104140000Y-121920000D03*
X104140000Y-124460000D03*
X101600000Y-121920000D03*
X101600000Y-124460000D03*
X99060000Y-121920000D03*
X99060000Y-124460000D03*
X96520000Y-121920000D03*
X96520000Y-124460000D03*
X93980000Y-121920000D03*
X93980000Y-124460000D03*
X91440000Y-121920000D03*
X91440000Y-124460000D03*
X88900000Y-121920000D03*
D12*
X88900000Y-124460000D03*
X88900000Y-63500000D03*
D13*
X88900000Y-60960000D03*
X91440000Y-63500000D03*
X91440000Y-60960000D03*
X93980000Y-63500000D03*
X93980000Y-60960000D03*
X96520000Y-63500000D03*
X96520000Y-60960000D03*
X99060000Y-63500000D03*
X99060000Y-60960000D03*
X101600000Y-63500000D03*
X101600000Y-60960000D03*
X104140000Y-63500000D03*
X104140000Y-60960000D03*
X106680000Y-63500000D03*
X106680000Y-60960000D03*
X109220000Y-63500000D03*
X109220000Y-60960000D03*
X111760000Y-63500000D03*
X111760000Y-60960000D03*
X114300000Y-63500000D03*
X114300000Y-60960000D03*
X116840000Y-63500000D03*
X116840000Y-60960000D03*
X119380000Y-63500000D03*
X119380000Y-60960000D03*
X121920000Y-63500000D03*
X121920000Y-60960000D03*
X124460000Y-63500000D03*
X124460000Y-60960000D03*
X127000000Y-63500000D03*
X127000000Y-60960000D03*
X129540000Y-63500000D03*
X129540000Y-60960000D03*
X132080000Y-63500000D03*
X132080000Y-60960000D03*
X134620000Y-63500000D03*
X134620000Y-60960000D03*
X137160000Y-63500000D03*
X137160000Y-60960000D03*
X139700000Y-63500000D03*
X139700000Y-60960000D03*
X142240000Y-63500000D03*
X142240000Y-60960000D03*
X144780000Y-63500000D03*
X144780000Y-60960000D03*
X147320000Y-63500000D03*
X147320000Y-60960000D03*
X149860000Y-63500000D03*
X149860000Y-60960000D03*
X152400000Y-63500000D03*
X152400000Y-60960000D03*
X154940000Y-63500000D03*
X154940000Y-60960000D03*
X157480000Y-63500000D03*
X157480000Y-60960000D03*
X160020000Y-63500000D03*
X160020000Y-60960000D03*
X162560000Y-63500000D03*
X162560000Y-60960000D03*
X165100000Y-63500000D03*
X165100000Y-60960000D03*
X167640000Y-63500000D03*
X167640000Y-60960000D03*
G04 #@! TA.AperFunction,SMDPad,CuDef*
G36*
G01*
X123067500Y-43655000D02*
X123067500Y-42705000D01*
G75*
G02*
X123317500Y-42455000I250000J0D01*
G01*
X123992500Y-42455000D01*
G75*
G02*
X124242500Y-42705000I0J-250000D01*
G01*
X124242500Y-43655000D01*
G75*
G02*
X123992500Y-43905000I-250000J0D01*
G01*
X123317500Y-43905000D01*
G75*
G02*
X123067500Y-43655000I0J250000D01*
G01*
G37*
G04 #@! TD.AperFunction*
G04 #@! TA.AperFunction,SMDPad,CuDef*
G36*
G01*
X125142500Y-43655000D02*
X125142500Y-42705000D01*
G75*
G02*
X125392500Y-42455000I250000J0D01*
G01*
X126067500Y-42455000D01*
G75*
G02*
X126317500Y-42705000I0J-250000D01*
G01*
X126317500Y-43655000D01*
G75*
G02*
X126067500Y-43905000I-250000J0D01*
G01*
X125392500Y-43905000D01*
G75*
G02*
X125142500Y-43655000I0J250000D01*
G01*
G37*
G04 #@! TD.AperFunction*
G04 #@! TA.AperFunction,SMDPad,CuDef*
G36*
G01*
X103552500Y-41877000D02*
X103552500Y-40927000D01*
G75*
G02*
X103802500Y-40677000I250000J0D01*
G01*
X104477500Y-40677000D01*
G75*
G02*
X104727500Y-40927000I0J-250000D01*
G01*
X104727500Y-41877000D01*
G75*
G02*
X104477500Y-42127000I-250000J0D01*
G01*
X103802500Y-42127000D01*
G75*
G02*
X103552500Y-41877000I0J250000D01*
G01*
G37*
G04 #@! TD.AperFunction*
G04 #@! TA.AperFunction,SMDPad,CuDef*
G36*
G01*
X101477500Y-41877000D02*
X101477500Y-40927000D01*
G75*
G02*
X101727500Y-40677000I250000J0D01*
G01*
X102402500Y-40677000D01*
G75*
G02*
X102652500Y-40927000I0J-250000D01*
G01*
X102652500Y-41877000D01*
G75*
G02*
X102402500Y-42127000I-250000J0D01*
G01*
X101727500Y-42127000D01*
G75*
G02*
X101477500Y-41877000I0J250000D01*
G01*
G37*
G04 #@! TD.AperFunction*
G04 #@! TA.AperFunction,SMDPad,CuDef*
G36*
G01*
X164745000Y-127475000D02*
X164745000Y-126525000D01*
G75*
G02*
X164995000Y-126275000I250000J0D01*
G01*
X165670000Y-126275000D01*
G75*
G02*
X165920000Y-126525000I0J-250000D01*
G01*
X165920000Y-127475000D01*
G75*
G02*
X165670000Y-127725000I-250000J0D01*
G01*
X164995000Y-127725000D01*
G75*
G02*
X164745000Y-127475000I0J250000D01*
G01*
G37*
G04 #@! TD.AperFunction*
G04 #@! TA.AperFunction,SMDPad,CuDef*
G36*
G01*
X166820000Y-127475000D02*
X166820000Y-126525000D01*
G75*
G02*
X167070000Y-126275000I250000J0D01*
G01*
X167745000Y-126275000D01*
G75*
G02*
X167995000Y-126525000I0J-250000D01*
G01*
X167995000Y-127475000D01*
G75*
G02*
X167745000Y-127725000I-250000J0D01*
G01*
X167070000Y-127725000D01*
G75*
G02*
X166820000Y-127475000I0J250000D01*
G01*
G37*
G04 #@! TD.AperFunction*
D28*
X168362000Y-86235000D03*
X168362000Y-92835000D03*
D29*
X115885000Y-49625000D03*
X113985000Y-49625000D03*
X114935000Y-47625000D03*
X122555000Y-47625000D03*
X121605000Y-49625000D03*
X123505000Y-49625000D03*
G04 #@! TA.AperFunction,SMDPad,CuDef*
G36*
G01*
X85855000Y-72205001D02*
X85855000Y-71304999D01*
G75*
G02*
X86104999Y-71055000I249999J0D01*
G01*
X86805001Y-71055000D01*
G75*
G02*
X87055000Y-71304999I0J-249999D01*
G01*
X87055000Y-72205001D01*
G75*
G02*
X86805001Y-72455000I-249999J0D01*
G01*
X86104999Y-72455000D01*
G75*
G02*
X85855000Y-72205001I0J249999D01*
G01*
G37*
G04 #@! TD.AperFunction*
G04 #@! TA.AperFunction,SMDPad,CuDef*
G36*
G01*
X83855000Y-72205001D02*
X83855000Y-71304999D01*
G75*
G02*
X84104999Y-71055000I249999J0D01*
G01*
X84805001Y-71055000D01*
G75*
G02*
X85055000Y-71304999I0J-249999D01*
G01*
X85055000Y-72205001D01*
G75*
G02*
X84805001Y-72455000I-249999J0D01*
G01*
X84104999Y-72455000D01*
G75*
G02*
X83855000Y-72205001I0J249999D01*
G01*
G37*
G04 #@! TD.AperFunction*
G04 #@! TA.AperFunction,SMDPad,CuDef*
G36*
G01*
X83855000Y-89985001D02*
X83855000Y-89084999D01*
G75*
G02*
X84104999Y-88835000I249999J0D01*
G01*
X84805001Y-88835000D01*
G75*
G02*
X85055000Y-89084999I0J-249999D01*
G01*
X85055000Y-89985001D01*
G75*
G02*
X84805001Y-90235000I-249999J0D01*
G01*
X84104999Y-90235000D01*
G75*
G02*
X83855000Y-89985001I0J249999D01*
G01*
G37*
G04 #@! TD.AperFunction*
G04 #@! TA.AperFunction,SMDPad,CuDef*
G36*
G01*
X85855000Y-89985001D02*
X85855000Y-89084999D01*
G75*
G02*
X86104999Y-88835000I249999J0D01*
G01*
X86805001Y-88835000D01*
G75*
G02*
X87055000Y-89084999I0J-249999D01*
G01*
X87055000Y-89985001D01*
G75*
G02*
X86805001Y-90235000I-249999J0D01*
G01*
X86104999Y-90235000D01*
G75*
G02*
X85855000Y-89985001I0J249999D01*
G01*
G37*
G04 #@! TD.AperFunction*
G04 #@! TA.AperFunction,SMDPad,CuDef*
G36*
G01*
X113849999Y-37405000D02*
X114750001Y-37405000D01*
G75*
G02*
X115000000Y-37654999I0J-249999D01*
G01*
X115000000Y-38355001D01*
G75*
G02*
X114750001Y-38605000I-249999J0D01*
G01*
X113849999Y-38605000D01*
G75*
G02*
X113600000Y-38355001I0J249999D01*
G01*
X113600000Y-37654999D01*
G75*
G02*
X113849999Y-37405000I249999J0D01*
G01*
G37*
G04 #@! TD.AperFunction*
G04 #@! TA.AperFunction,SMDPad,CuDef*
G36*
G01*
X113849999Y-39405000D02*
X114750001Y-39405000D01*
G75*
G02*
X115000000Y-39654999I0J-249999D01*
G01*
X115000000Y-40355001D01*
G75*
G02*
X114750001Y-40605000I-249999J0D01*
G01*
X113849999Y-40605000D01*
G75*
G02*
X113600000Y-40355001I0J249999D01*
G01*
X113600000Y-39654999D01*
G75*
G02*
X113849999Y-39405000I249999J0D01*
G01*
G37*
G04 #@! TD.AperFunction*
G04 #@! TA.AperFunction,SMDPad,CuDef*
G36*
G01*
X121469999Y-39405000D02*
X122370001Y-39405000D01*
G75*
G02*
X122620000Y-39654999I0J-249999D01*
G01*
X122620000Y-40355001D01*
G75*
G02*
X122370001Y-40605000I-249999J0D01*
G01*
X121469999Y-40605000D01*
G75*
G02*
X121220000Y-40355001I0J249999D01*
G01*
X121220000Y-39654999D01*
G75*
G02*
X121469999Y-39405000I249999J0D01*
G01*
G37*
G04 #@! TD.AperFunction*
G04 #@! TA.AperFunction,SMDPad,CuDef*
G36*
G01*
X121469999Y-37405000D02*
X122370001Y-37405000D01*
G75*
G02*
X122620000Y-37654999I0J-249999D01*
G01*
X122620000Y-38355001D01*
G75*
G02*
X122370001Y-38605000I-249999J0D01*
G01*
X121469999Y-38605000D01*
G75*
G02*
X121220000Y-38355001I0J249999D01*
G01*
X121220000Y-37654999D01*
G75*
G02*
X121469999Y-37405000I249999J0D01*
G01*
G37*
G04 #@! TD.AperFunction*
G04 #@! TA.AperFunction,SMDPad,CuDef*
G36*
G01*
X84325000Y-50984999D02*
X84325000Y-51885001D01*
G75*
G02*
X84075001Y-52135000I-249999J0D01*
G01*
X83374999Y-52135000D01*
G75*
G02*
X83125000Y-51885001I0J249999D01*
G01*
X83125000Y-50984999D01*
G75*
G02*
X83374999Y-50735000I249999J0D01*
G01*
X84075001Y-50735000D01*
G75*
G02*
X84325000Y-50984999I0J-249999D01*
G01*
G37*
G04 #@! TD.AperFunction*
G04 #@! TA.AperFunction,SMDPad,CuDef*
G36*
G01*
X86325000Y-50984999D02*
X86325000Y-51885001D01*
G75*
G02*
X86075001Y-52135000I-249999J0D01*
G01*
X85374999Y-52135000D01*
G75*
G02*
X85125000Y-51885001I0J249999D01*
G01*
X85125000Y-50984999D01*
G75*
G02*
X85374999Y-50735000I249999J0D01*
G01*
X86075001Y-50735000D01*
G75*
G02*
X86325000Y-50984999I0J-249999D01*
G01*
G37*
G04 #@! TD.AperFunction*
G04 #@! TA.AperFunction,SMDPad,CuDef*
G36*
G01*
X83369999Y-60900000D02*
X84270001Y-60900000D01*
G75*
G02*
X84520000Y-61149999I0J-249999D01*
G01*
X84520000Y-61850001D01*
G75*
G02*
X84270001Y-62100000I-249999J0D01*
G01*
X83369999Y-62100000D01*
G75*
G02*
X83120000Y-61850001I0J249999D01*
G01*
X83120000Y-61149999D01*
G75*
G02*
X83369999Y-60900000I249999J0D01*
G01*
G37*
G04 #@! TD.AperFunction*
G04 #@! TA.AperFunction,SMDPad,CuDef*
G36*
G01*
X83369999Y-62900000D02*
X84270001Y-62900000D01*
G75*
G02*
X84520000Y-63149999I0J-249999D01*
G01*
X84520000Y-63850001D01*
G75*
G02*
X84270001Y-64100000I-249999J0D01*
G01*
X83369999Y-64100000D01*
G75*
G02*
X83120000Y-63850001I0J249999D01*
G01*
X83120000Y-63149999D01*
G75*
G02*
X83369999Y-62900000I249999J0D01*
G01*
G37*
G04 #@! TD.AperFunction*
G04 #@! TA.AperFunction,SMDPad,CuDef*
G36*
G01*
X86325000Y-48444999D02*
X86325000Y-49345001D01*
G75*
G02*
X86075001Y-49595000I-249999J0D01*
G01*
X85374999Y-49595000D01*
G75*
G02*
X85125000Y-49345001I0J249999D01*
G01*
X85125000Y-48444999D01*
G75*
G02*
X85374999Y-48195000I249999J0D01*
G01*
X86075001Y-48195000D01*
G75*
G02*
X86325000Y-48444999I0J-249999D01*
G01*
G37*
G04 #@! TD.AperFunction*
G04 #@! TA.AperFunction,SMDPad,CuDef*
G36*
G01*
X84325000Y-48444999D02*
X84325000Y-49345001D01*
G75*
G02*
X84075001Y-49595000I-249999J0D01*
G01*
X83374999Y-49595000D01*
G75*
G02*
X83125000Y-49345001I0J249999D01*
G01*
X83125000Y-48444999D01*
G75*
G02*
X83374999Y-48195000I249999J0D01*
G01*
X84075001Y-48195000D01*
G75*
G02*
X84325000Y-48444999I0J-249999D01*
G01*
G37*
G04 #@! TD.AperFunction*
G04 #@! TA.AperFunction,SMDPad,CuDef*
G36*
G01*
X110674999Y-49025000D02*
X111575001Y-49025000D01*
G75*
G02*
X111825000Y-49274999I0J-249999D01*
G01*
X111825000Y-49975001D01*
G75*
G02*
X111575001Y-50225000I-249999J0D01*
G01*
X110674999Y-50225000D01*
G75*
G02*
X110425000Y-49975001I0J249999D01*
G01*
X110425000Y-49274999D01*
G75*
G02*
X110674999Y-49025000I249999J0D01*
G01*
G37*
G04 #@! TD.AperFunction*
G04 #@! TA.AperFunction,SMDPad,CuDef*
G36*
G01*
X110674999Y-47025000D02*
X111575001Y-47025000D01*
G75*
G02*
X111825000Y-47274999I0J-249999D01*
G01*
X111825000Y-47975001D01*
G75*
G02*
X111575001Y-48225000I-249999J0D01*
G01*
X110674999Y-48225000D01*
G75*
G02*
X110425000Y-47975001I0J249999D01*
G01*
X110425000Y-47274999D01*
G75*
G02*
X110674999Y-47025000I249999J0D01*
G01*
G37*
G04 #@! TD.AperFunction*
G04 #@! TA.AperFunction,SMDPad,CuDef*
G36*
G01*
X118294999Y-47025000D02*
X119195001Y-47025000D01*
G75*
G02*
X119445000Y-47274999I0J-249999D01*
G01*
X119445000Y-47975001D01*
G75*
G02*
X119195001Y-48225000I-249999J0D01*
G01*
X118294999Y-48225000D01*
G75*
G02*
X118045000Y-47975001I0J249999D01*
G01*
X118045000Y-47274999D01*
G75*
G02*
X118294999Y-47025000I249999J0D01*
G01*
G37*
G04 #@! TD.AperFunction*
G04 #@! TA.AperFunction,SMDPad,CuDef*
G36*
G01*
X118294999Y-49025000D02*
X119195001Y-49025000D01*
G75*
G02*
X119445000Y-49274999I0J-249999D01*
G01*
X119445000Y-49975001D01*
G75*
G02*
X119195001Y-50225000I-249999J0D01*
G01*
X118294999Y-50225000D01*
G75*
G02*
X118045000Y-49975001I0J249999D01*
G01*
X118045000Y-49274999D01*
G75*
G02*
X118294999Y-49025000I249999J0D01*
G01*
G37*
G04 #@! TD.AperFunction*
G04 #@! TA.AperFunction,SMDPad,CuDef*
G36*
G01*
X85855000Y-84905001D02*
X85855000Y-84004999D01*
G75*
G02*
X86104999Y-83755000I249999J0D01*
G01*
X86805001Y-83755000D01*
G75*
G02*
X87055000Y-84004999I0J-249999D01*
G01*
X87055000Y-84905001D01*
G75*
G02*
X86805001Y-85155000I-249999J0D01*
G01*
X86104999Y-85155000D01*
G75*
G02*
X85855000Y-84905001I0J249999D01*
G01*
G37*
G04 #@! TD.AperFunction*
G04 #@! TA.AperFunction,SMDPad,CuDef*
G36*
G01*
X83855000Y-84905001D02*
X83855000Y-84004999D01*
G75*
G02*
X84104999Y-83755000I249999J0D01*
G01*
X84805001Y-83755000D01*
G75*
G02*
X85055000Y-84004999I0J-249999D01*
G01*
X85055000Y-84905001D01*
G75*
G02*
X84805001Y-85155000I-249999J0D01*
G01*
X84104999Y-85155000D01*
G75*
G02*
X83855000Y-84905001I0J249999D01*
G01*
G37*
G04 #@! TD.AperFunction*
G04 #@! TA.AperFunction,SMDPad,CuDef*
G36*
G01*
X84325000Y-45904999D02*
X84325000Y-46805001D01*
G75*
G02*
X84075001Y-47055000I-249999J0D01*
G01*
X83374999Y-47055000D01*
G75*
G02*
X83125000Y-46805001I0J249999D01*
G01*
X83125000Y-45904999D01*
G75*
G02*
X83374999Y-45655000I249999J0D01*
G01*
X84075001Y-45655000D01*
G75*
G02*
X84325000Y-45904999I0J-249999D01*
G01*
G37*
G04 #@! TD.AperFunction*
G04 #@! TA.AperFunction,SMDPad,CuDef*
G36*
G01*
X86325000Y-45904999D02*
X86325000Y-46805001D01*
G75*
G02*
X86075001Y-47055000I-249999J0D01*
G01*
X85374999Y-47055000D01*
G75*
G02*
X85125000Y-46805001I0J249999D01*
G01*
X85125000Y-45904999D01*
G75*
G02*
X85374999Y-45655000I249999J0D01*
G01*
X86075001Y-45655000D01*
G75*
G02*
X86325000Y-45904999I0J-249999D01*
G01*
G37*
G04 #@! TD.AperFunction*
G04 #@! TA.AperFunction,SMDPad,CuDef*
G36*
G01*
X83855000Y-79825001D02*
X83855000Y-78924999D01*
G75*
G02*
X84104999Y-78675000I249999J0D01*
G01*
X84805001Y-78675000D01*
G75*
G02*
X85055000Y-78924999I0J-249999D01*
G01*
X85055000Y-79825001D01*
G75*
G02*
X84805001Y-80075000I-249999J0D01*
G01*
X84104999Y-80075000D01*
G75*
G02*
X83855000Y-79825001I0J249999D01*
G01*
G37*
G04 #@! TD.AperFunction*
G04 #@! TA.AperFunction,SMDPad,CuDef*
G36*
G01*
X85855000Y-79825001D02*
X85855000Y-78924999D01*
G75*
G02*
X86104999Y-78675000I249999J0D01*
G01*
X86805001Y-78675000D01*
G75*
G02*
X87055000Y-78924999I0J-249999D01*
G01*
X87055000Y-79825001D01*
G75*
G02*
X86805001Y-80075000I-249999J0D01*
G01*
X86104999Y-80075000D01*
G75*
G02*
X85855000Y-79825001I0J249999D01*
G01*
G37*
G04 #@! TD.AperFunction*
G04 #@! TA.AperFunction,SMDPad,CuDef*
G36*
G01*
X86325000Y-43364999D02*
X86325000Y-44265001D01*
G75*
G02*
X86075001Y-44515000I-249999J0D01*
G01*
X85374999Y-44515000D01*
G75*
G02*
X85125000Y-44265001I0J249999D01*
G01*
X85125000Y-43364999D01*
G75*
G02*
X85374999Y-43115000I249999J0D01*
G01*
X86075001Y-43115000D01*
G75*
G02*
X86325000Y-43364999I0J-249999D01*
G01*
G37*
G04 #@! TD.AperFunction*
G04 #@! TA.AperFunction,SMDPad,CuDef*
G36*
G01*
X84325000Y-43364999D02*
X84325000Y-44265001D01*
G75*
G02*
X84075001Y-44515000I-249999J0D01*
G01*
X83374999Y-44515000D01*
G75*
G02*
X83125000Y-44265001I0J249999D01*
G01*
X83125000Y-43364999D01*
G75*
G02*
X83374999Y-43115000I249999J0D01*
G01*
X84075001Y-43115000D01*
G75*
G02*
X84325000Y-43364999I0J-249999D01*
G01*
G37*
G04 #@! TD.AperFunction*
G04 #@! TA.AperFunction,SMDPad,CuDef*
G36*
G01*
X83369999Y-121860000D02*
X84270001Y-121860000D01*
G75*
G02*
X84520000Y-122109999I0J-249999D01*
G01*
X84520000Y-122810001D01*
G75*
G02*
X84270001Y-123060000I-249999J0D01*
G01*
X83369999Y-123060000D01*
G75*
G02*
X83120000Y-122810001I0J249999D01*
G01*
X83120000Y-122109999D01*
G75*
G02*
X83369999Y-121860000I249999J0D01*
G01*
G37*
G04 #@! TD.AperFunction*
G04 #@! TA.AperFunction,SMDPad,CuDef*
G36*
G01*
X83369999Y-123860000D02*
X84270001Y-123860000D01*
G75*
G02*
X84520000Y-124109999I0J-249999D01*
G01*
X84520000Y-124810001D01*
G75*
G02*
X84270001Y-125060000I-249999J0D01*
G01*
X83369999Y-125060000D01*
G75*
G02*
X83120000Y-124810001I0J249999D01*
G01*
X83120000Y-124109999D01*
G75*
G02*
X83369999Y-123860000I249999J0D01*
G01*
G37*
G04 #@! TD.AperFunction*
G04 #@! TA.AperFunction,SMDPad,CuDef*
G36*
G01*
X92144001Y-52765000D02*
X91243999Y-52765000D01*
G75*
G02*
X90994000Y-52515001I0J249999D01*
G01*
X90994000Y-51814999D01*
G75*
G02*
X91243999Y-51565000I249999J0D01*
G01*
X92144001Y-51565000D01*
G75*
G02*
X92394000Y-51814999I0J-249999D01*
G01*
X92394000Y-52515001D01*
G75*
G02*
X92144001Y-52765000I-249999J0D01*
G01*
G37*
G04 #@! TD.AperFunction*
G04 #@! TA.AperFunction,SMDPad,CuDef*
G36*
G01*
X92144001Y-50765000D02*
X91243999Y-50765000D01*
G75*
G02*
X90994000Y-50515001I0J249999D01*
G01*
X90994000Y-49814999D01*
G75*
G02*
X91243999Y-49565000I249999J0D01*
G01*
X92144001Y-49565000D01*
G75*
G02*
X92394000Y-49814999I0J-249999D01*
G01*
X92394000Y-50515001D01*
G75*
G02*
X92144001Y-50765000I-249999J0D01*
G01*
G37*
G04 #@! TD.AperFunction*
G04 #@! TA.AperFunction,SMDPad,CuDef*
G36*
G01*
X85855000Y-82365001D02*
X85855000Y-81464999D01*
G75*
G02*
X86104999Y-81215000I249999J0D01*
G01*
X86805001Y-81215000D01*
G75*
G02*
X87055000Y-81464999I0J-249999D01*
G01*
X87055000Y-82365001D01*
G75*
G02*
X86805001Y-82615000I-249999J0D01*
G01*
X86104999Y-82615000D01*
G75*
G02*
X85855000Y-82365001I0J249999D01*
G01*
G37*
G04 #@! TD.AperFunction*
G04 #@! TA.AperFunction,SMDPad,CuDef*
G36*
G01*
X83855000Y-82365001D02*
X83855000Y-81464999D01*
G75*
G02*
X84104999Y-81215000I249999J0D01*
G01*
X84805001Y-81215000D01*
G75*
G02*
X85055000Y-81464999I0J-249999D01*
G01*
X85055000Y-82365001D01*
G75*
G02*
X84805001Y-82615000I-249999J0D01*
G01*
X84104999Y-82615000D01*
G75*
G02*
X83855000Y-82365001I0J249999D01*
G01*
G37*
G04 #@! TD.AperFunction*
G04 #@! TA.AperFunction,SMDPad,CuDef*
G36*
G01*
X89604001Y-50781000D02*
X88703999Y-50781000D01*
G75*
G02*
X88454000Y-50531001I0J249999D01*
G01*
X88454000Y-49830999D01*
G75*
G02*
X88703999Y-49581000I249999J0D01*
G01*
X89604001Y-49581000D01*
G75*
G02*
X89854000Y-49830999I0J-249999D01*
G01*
X89854000Y-50531001D01*
G75*
G02*
X89604001Y-50781000I-249999J0D01*
G01*
G37*
G04 #@! TD.AperFunction*
G04 #@! TA.AperFunction,SMDPad,CuDef*
G36*
G01*
X89604001Y-52781000D02*
X88703999Y-52781000D01*
G75*
G02*
X88454000Y-52531001I0J249999D01*
G01*
X88454000Y-51830999D01*
G75*
G02*
X88703999Y-51581000I249999J0D01*
G01*
X89604001Y-51581000D01*
G75*
G02*
X89854000Y-51830999I0J-249999D01*
G01*
X89854000Y-52531001D01*
G75*
G02*
X89604001Y-52781000I-249999J0D01*
G01*
G37*
G04 #@! TD.AperFunction*
G04 #@! TA.AperFunction,SMDPad,CuDef*
G36*
G01*
X106749001Y-55305000D02*
X105848999Y-55305000D01*
G75*
G02*
X105599000Y-55055001I0J249999D01*
G01*
X105599000Y-54354999D01*
G75*
G02*
X105848999Y-54105000I249999J0D01*
G01*
X106749001Y-54105000D01*
G75*
G02*
X106999000Y-54354999I0J-249999D01*
G01*
X106999000Y-55055001D01*
G75*
G02*
X106749001Y-55305000I-249999J0D01*
G01*
G37*
G04 #@! TD.AperFunction*
G04 #@! TA.AperFunction,SMDPad,CuDef*
G36*
G01*
X106749001Y-53305000D02*
X105848999Y-53305000D01*
G75*
G02*
X105599000Y-53055001I0J249999D01*
G01*
X105599000Y-52354999D01*
G75*
G02*
X105848999Y-52105000I249999J0D01*
G01*
X106749001Y-52105000D01*
G75*
G02*
X106999000Y-52354999I0J-249999D01*
G01*
X106999000Y-53055001D01*
G75*
G02*
X106749001Y-53305000I-249999J0D01*
G01*
G37*
G04 #@! TD.AperFunction*
G04 #@! TA.AperFunction,SMDPad,CuDef*
G36*
G01*
X109289001Y-55305000D02*
X108388999Y-55305000D01*
G75*
G02*
X108139000Y-55055001I0J249999D01*
G01*
X108139000Y-54354999D01*
G75*
G02*
X108388999Y-54105000I249999J0D01*
G01*
X109289001Y-54105000D01*
G75*
G02*
X109539000Y-54354999I0J-249999D01*
G01*
X109539000Y-55055001D01*
G75*
G02*
X109289001Y-55305000I-249999J0D01*
G01*
G37*
G04 #@! TD.AperFunction*
G04 #@! TA.AperFunction,SMDPad,CuDef*
G36*
G01*
X109289001Y-53305000D02*
X108388999Y-53305000D01*
G75*
G02*
X108139000Y-53055001I0J249999D01*
G01*
X108139000Y-52354999D01*
G75*
G02*
X108388999Y-52105000I249999J0D01*
G01*
X109289001Y-52105000D01*
G75*
G02*
X109539000Y-52354999I0J-249999D01*
G01*
X109539000Y-53055001D01*
G75*
G02*
X109289001Y-53305000I-249999J0D01*
G01*
G37*
G04 #@! TD.AperFunction*
G04 #@! TA.AperFunction,SMDPad,CuDef*
G36*
G01*
X83855000Y-100145001D02*
X83855000Y-99244999D01*
G75*
G02*
X84104999Y-98995000I249999J0D01*
G01*
X84805001Y-98995000D01*
G75*
G02*
X85055000Y-99244999I0J-249999D01*
G01*
X85055000Y-100145001D01*
G75*
G02*
X84805001Y-100395000I-249999J0D01*
G01*
X84104999Y-100395000D01*
G75*
G02*
X83855000Y-100145001I0J249999D01*
G01*
G37*
G04 #@! TD.AperFunction*
G04 #@! TA.AperFunction,SMDPad,CuDef*
G36*
G01*
X85855000Y-100145001D02*
X85855000Y-99244999D01*
G75*
G02*
X86104999Y-98995000I249999J0D01*
G01*
X86805001Y-98995000D01*
G75*
G02*
X87055000Y-99244999I0J-249999D01*
G01*
X87055000Y-100145001D01*
G75*
G02*
X86805001Y-100395000I-249999J0D01*
G01*
X86104999Y-100395000D01*
G75*
G02*
X85855000Y-100145001I0J249999D01*
G01*
G37*
G04 #@! TD.AperFunction*
G04 #@! TA.AperFunction,SMDPad,CuDef*
G36*
G01*
X85855000Y-92525001D02*
X85855000Y-91624999D01*
G75*
G02*
X86104999Y-91375000I249999J0D01*
G01*
X86805001Y-91375000D01*
G75*
G02*
X87055000Y-91624999I0J-249999D01*
G01*
X87055000Y-92525001D01*
G75*
G02*
X86805001Y-92775000I-249999J0D01*
G01*
X86104999Y-92775000D01*
G75*
G02*
X85855000Y-92525001I0J249999D01*
G01*
G37*
G04 #@! TD.AperFunction*
G04 #@! TA.AperFunction,SMDPad,CuDef*
G36*
G01*
X83855000Y-92525001D02*
X83855000Y-91624999D01*
G75*
G02*
X84104999Y-91375000I249999J0D01*
G01*
X84805001Y-91375000D01*
G75*
G02*
X85055000Y-91624999I0J-249999D01*
G01*
X85055000Y-92525001D01*
G75*
G02*
X84805001Y-92775000I-249999J0D01*
G01*
X84104999Y-92775000D01*
G75*
G02*
X83855000Y-92525001I0J249999D01*
G01*
G37*
G04 #@! TD.AperFunction*
G04 #@! TA.AperFunction,SMDPad,CuDef*
G36*
G01*
X132045000Y-38919999D02*
X132045000Y-39820001D01*
G75*
G02*
X131795001Y-40070000I-249999J0D01*
G01*
X131094999Y-40070000D01*
G75*
G02*
X130845000Y-39820001I0J249999D01*
G01*
X130845000Y-38919999D01*
G75*
G02*
X131094999Y-38670000I249999J0D01*
G01*
X131795001Y-38670000D01*
G75*
G02*
X132045000Y-38919999I0J-249999D01*
G01*
G37*
G04 #@! TD.AperFunction*
G04 #@! TA.AperFunction,SMDPad,CuDef*
G36*
G01*
X130045000Y-38919999D02*
X130045000Y-39820001D01*
G75*
G02*
X129795001Y-40070000I-249999J0D01*
G01*
X129094999Y-40070000D01*
G75*
G02*
X128845000Y-39820001I0J249999D01*
G01*
X128845000Y-38919999D01*
G75*
G02*
X129094999Y-38670000I249999J0D01*
G01*
X129795001Y-38670000D01*
G75*
G02*
X130045000Y-38919999I0J-249999D01*
G01*
G37*
G04 #@! TD.AperFunction*
G04 #@! TA.AperFunction,SMDPad,CuDef*
G36*
G01*
X135385000Y-39820001D02*
X135385000Y-38919999D01*
G75*
G02*
X135634999Y-38670000I249999J0D01*
G01*
X136335001Y-38670000D01*
G75*
G02*
X136585000Y-38919999I0J-249999D01*
G01*
X136585000Y-39820001D01*
G75*
G02*
X136335001Y-40070000I-249999J0D01*
G01*
X135634999Y-40070000D01*
G75*
G02*
X135385000Y-39820001I0J249999D01*
G01*
G37*
G04 #@! TD.AperFunction*
G04 #@! TA.AperFunction,SMDPad,CuDef*
G36*
G01*
X133385000Y-39820001D02*
X133385000Y-38919999D01*
G75*
G02*
X133634999Y-38670000I249999J0D01*
G01*
X134335001Y-38670000D01*
G75*
G02*
X134585000Y-38919999I0J-249999D01*
G01*
X134585000Y-39820001D01*
G75*
G02*
X134335001Y-40070000I-249999J0D01*
G01*
X133634999Y-40070000D01*
G75*
G02*
X133385000Y-39820001I0J249999D01*
G01*
G37*
G04 #@! TD.AperFunction*
G04 #@! TA.AperFunction,SMDPad,CuDef*
G36*
G01*
X83855000Y-87445001D02*
X83855000Y-86544999D01*
G75*
G02*
X84104999Y-86295000I249999J0D01*
G01*
X84805001Y-86295000D01*
G75*
G02*
X85055000Y-86544999I0J-249999D01*
G01*
X85055000Y-87445001D01*
G75*
G02*
X84805001Y-87695000I-249999J0D01*
G01*
X84104999Y-87695000D01*
G75*
G02*
X83855000Y-87445001I0J249999D01*
G01*
G37*
G04 #@! TD.AperFunction*
G04 #@! TA.AperFunction,SMDPad,CuDef*
G36*
G01*
X85855000Y-87445001D02*
X85855000Y-86544999D01*
G75*
G02*
X86104999Y-86295000I249999J0D01*
G01*
X86805001Y-86295000D01*
G75*
G02*
X87055000Y-86544999I0J-249999D01*
G01*
X87055000Y-87445001D01*
G75*
G02*
X86805001Y-87695000I-249999J0D01*
G01*
X86104999Y-87695000D01*
G75*
G02*
X85855000Y-87445001I0J249999D01*
G01*
G37*
G04 #@! TD.AperFunction*
G04 #@! TA.AperFunction,SMDPad,CuDef*
G36*
G01*
X85855000Y-95065001D02*
X85855000Y-94164999D01*
G75*
G02*
X86104999Y-93915000I249999J0D01*
G01*
X86805001Y-93915000D01*
G75*
G02*
X87055000Y-94164999I0J-249999D01*
G01*
X87055000Y-95065001D01*
G75*
G02*
X86805001Y-95315000I-249999J0D01*
G01*
X86104999Y-95315000D01*
G75*
G02*
X85855000Y-95065001I0J249999D01*
G01*
G37*
G04 #@! TD.AperFunction*
G04 #@! TA.AperFunction,SMDPad,CuDef*
G36*
G01*
X83855000Y-95065001D02*
X83855000Y-94164999D01*
G75*
G02*
X84104999Y-93915000I249999J0D01*
G01*
X84805001Y-93915000D01*
G75*
G02*
X85055000Y-94164999I0J-249999D01*
G01*
X85055000Y-95065001D01*
G75*
G02*
X84805001Y-95315000I-249999J0D01*
G01*
X84104999Y-95315000D01*
G75*
G02*
X83855000Y-95065001I0J249999D01*
G01*
G37*
G04 #@! TD.AperFunction*
G04 #@! TA.AperFunction,SMDPad,CuDef*
G36*
G01*
X83855000Y-97605001D02*
X83855000Y-96704999D01*
G75*
G02*
X84104999Y-96455000I249999J0D01*
G01*
X84805001Y-96455000D01*
G75*
G02*
X85055000Y-96704999I0J-249999D01*
G01*
X85055000Y-97605001D01*
G75*
G02*
X84805001Y-97855000I-249999J0D01*
G01*
X84104999Y-97855000D01*
G75*
G02*
X83855000Y-97605001I0J249999D01*
G01*
G37*
G04 #@! TD.AperFunction*
G04 #@! TA.AperFunction,SMDPad,CuDef*
G36*
G01*
X85855000Y-97605001D02*
X85855000Y-96704999D01*
G75*
G02*
X86104999Y-96455000I249999J0D01*
G01*
X86805001Y-96455000D01*
G75*
G02*
X87055000Y-96704999I0J-249999D01*
G01*
X87055000Y-97605001D01*
G75*
G02*
X86805001Y-97855000I-249999J0D01*
G01*
X86104999Y-97855000D01*
G75*
G02*
X85855000Y-97605001I0J249999D01*
G01*
G37*
G04 #@! TD.AperFunction*
G04 #@! TA.AperFunction,SMDPad,CuDef*
G36*
G01*
X83855000Y-77285001D02*
X83855000Y-76384999D01*
G75*
G02*
X84104999Y-76135000I249999J0D01*
G01*
X84805001Y-76135000D01*
G75*
G02*
X85055000Y-76384999I0J-249999D01*
G01*
X85055000Y-77285001D01*
G75*
G02*
X84805001Y-77535000I-249999J0D01*
G01*
X84104999Y-77535000D01*
G75*
G02*
X83855000Y-77285001I0J249999D01*
G01*
G37*
G04 #@! TD.AperFunction*
G04 #@! TA.AperFunction,SMDPad,CuDef*
G36*
G01*
X85855000Y-77285001D02*
X85855000Y-76384999D01*
G75*
G02*
X86104999Y-76135000I249999J0D01*
G01*
X86805001Y-76135000D01*
G75*
G02*
X87055000Y-76384999I0J-249999D01*
G01*
X87055000Y-77285001D01*
G75*
G02*
X86805001Y-77535000I-249999J0D01*
G01*
X86104999Y-77535000D01*
G75*
G02*
X85855000Y-77285001I0J249999D01*
G01*
G37*
G04 #@! TD.AperFunction*
G04 #@! TA.AperFunction,SMDPad,CuDef*
G36*
G01*
X87055000Y-73844999D02*
X87055000Y-74745001D01*
G75*
G02*
X86805001Y-74995000I-249999J0D01*
G01*
X86104999Y-74995000D01*
G75*
G02*
X85855000Y-74745001I0J249999D01*
G01*
X85855000Y-73844999D01*
G75*
G02*
X86104999Y-73595000I249999J0D01*
G01*
X86805001Y-73595000D01*
G75*
G02*
X87055000Y-73844999I0J-249999D01*
G01*
G37*
G04 #@! TD.AperFunction*
G04 #@! TA.AperFunction,SMDPad,CuDef*
G36*
G01*
X85055000Y-73844999D02*
X85055000Y-74745001D01*
G75*
G02*
X84805001Y-74995000I-249999J0D01*
G01*
X84104999Y-74995000D01*
G75*
G02*
X83855000Y-74745001I0J249999D01*
G01*
X83855000Y-73844999D01*
G75*
G02*
X84104999Y-73595000I249999J0D01*
G01*
X84805001Y-73595000D01*
G75*
G02*
X85055000Y-73844999I0J-249999D01*
G01*
G37*
G04 #@! TD.AperFunction*
D22*
X93980000Y-83820000D03*
X98860000Y-83820000D03*
X111560000Y-83820000D03*
X106680000Y-83820000D03*
X143510000Y-92510000D03*
X143510000Y-87630000D03*
G04 #@! TA.AperFunction,SMDPad,CuDef*
G36*
G01*
X89720000Y-65565000D02*
X89720000Y-66515000D01*
G75*
G02*
X89470000Y-66765000I-250000J0D01*
G01*
X88795000Y-66765000D01*
G75*
G02*
X88545000Y-66515000I0J250000D01*
G01*
X88545000Y-65565000D01*
G75*
G02*
X88795000Y-65315000I250000J0D01*
G01*
X89470000Y-65315000D01*
G75*
G02*
X89720000Y-65565000I0J-250000D01*
G01*
G37*
G04 #@! TD.AperFunction*
G04 #@! TA.AperFunction,SMDPad,CuDef*
G36*
G01*
X91795000Y-65565000D02*
X91795000Y-66515000D01*
G75*
G02*
X91545000Y-66765000I-250000J0D01*
G01*
X90870000Y-66765000D01*
G75*
G02*
X90620000Y-66515000I0J250000D01*
G01*
X90620000Y-65565000D01*
G75*
G02*
X90870000Y-65315000I250000J0D01*
G01*
X91545000Y-65315000D01*
G75*
G02*
X91795000Y-65565000I0J-250000D01*
G01*
G37*
G04 #@! TD.AperFunction*
G04 #@! TA.AperFunction,SMDPad,CuDef*
G36*
G01*
X88545000Y-127475000D02*
X88545000Y-126525000D01*
G75*
G02*
X88795000Y-126275000I250000J0D01*
G01*
X89470000Y-126275000D01*
G75*
G02*
X89720000Y-126525000I0J-250000D01*
G01*
X89720000Y-127475000D01*
G75*
G02*
X89470000Y-127725000I-250000J0D01*
G01*
X88795000Y-127725000D01*
G75*
G02*
X88545000Y-127475000I0J250000D01*
G01*
G37*
G04 #@! TD.AperFunction*
G04 #@! TA.AperFunction,SMDPad,CuDef*
G36*
G01*
X90620000Y-127475000D02*
X90620000Y-126525000D01*
G75*
G02*
X90870000Y-126275000I250000J0D01*
G01*
X91545000Y-126275000D01*
G75*
G02*
X91795000Y-126525000I0J-250000D01*
G01*
X91795000Y-127475000D01*
G75*
G02*
X91545000Y-127725000I-250000J0D01*
G01*
X90870000Y-127725000D01*
G75*
G02*
X90620000Y-127475000I0J250000D01*
G01*
G37*
G04 #@! TD.AperFunction*
D30*
X141605000Y-128670000D03*
D31*
X136605000Y-128670000D03*
X146605000Y-128670000D03*
X141605000Y-133858000D03*
D30*
X156210000Y-128670000D03*
D31*
X151210000Y-128670000D03*
X161210000Y-128670000D03*
X156210000Y-133858000D03*
G04 #@! TA.AperFunction,SMDPad,CuDef*
G36*
G01*
X88545000Y-58895000D02*
X88545000Y-57945000D01*
G75*
G02*
X88795000Y-57695000I250000J0D01*
G01*
X89470000Y-57695000D01*
G75*
G02*
X89720000Y-57945000I0J-250000D01*
G01*
X89720000Y-58895000D01*
G75*
G02*
X89470000Y-59145000I-250000J0D01*
G01*
X88795000Y-59145000D01*
G75*
G02*
X88545000Y-58895000I0J250000D01*
G01*
G37*
G04 #@! TD.AperFunction*
G04 #@! TA.AperFunction,SMDPad,CuDef*
G36*
G01*
X90620000Y-58895000D02*
X90620000Y-57945000D01*
G75*
G02*
X90870000Y-57695000I250000J0D01*
G01*
X91545000Y-57695000D01*
G75*
G02*
X91795000Y-57945000I0J-250000D01*
G01*
X91795000Y-58895000D01*
G75*
G02*
X91545000Y-59145000I-250000J0D01*
G01*
X90870000Y-59145000D01*
G75*
G02*
X90620000Y-58895000I0J250000D01*
G01*
G37*
G04 #@! TD.AperFunction*
G04 #@! TA.AperFunction,SMDPad,CuDef*
G36*
G01*
X89720000Y-118905000D02*
X89720000Y-119855000D01*
G75*
G02*
X89470000Y-120105000I-250000J0D01*
G01*
X88795000Y-120105000D01*
G75*
G02*
X88545000Y-119855000I0J250000D01*
G01*
X88545000Y-118905000D01*
G75*
G02*
X88795000Y-118655000I250000J0D01*
G01*
X89470000Y-118655000D01*
G75*
G02*
X89720000Y-118905000I0J-250000D01*
G01*
G37*
G04 #@! TD.AperFunction*
G04 #@! TA.AperFunction,SMDPad,CuDef*
G36*
G01*
X91795000Y-118905000D02*
X91795000Y-119855000D01*
G75*
G02*
X91545000Y-120105000I-250000J0D01*
G01*
X90870000Y-120105000D01*
G75*
G02*
X90620000Y-119855000I0J250000D01*
G01*
X90620000Y-118905000D01*
G75*
G02*
X90870000Y-118655000I250000J0D01*
G01*
X91545000Y-118655000D01*
G75*
G02*
X91795000Y-118905000I0J-250000D01*
G01*
G37*
G04 #@! TD.AperFunction*
G04 #@! TA.AperFunction,SMDPad,CuDef*
G36*
G01*
X164745000Y-119855000D02*
X164745000Y-118905000D01*
G75*
G02*
X164995000Y-118655000I250000J0D01*
G01*
X165670000Y-118655000D01*
G75*
G02*
X165920000Y-118905000I0J-250000D01*
G01*
X165920000Y-119855000D01*
G75*
G02*
X165670000Y-120105000I-250000J0D01*
G01*
X164995000Y-120105000D01*
G75*
G02*
X164745000Y-119855000I0J250000D01*
G01*
G37*
G04 #@! TD.AperFunction*
G04 #@! TA.AperFunction,SMDPad,CuDef*
G36*
G01*
X166820000Y-119855000D02*
X166820000Y-118905000D01*
G75*
G02*
X167070000Y-118655000I250000J0D01*
G01*
X167745000Y-118655000D01*
G75*
G02*
X167995000Y-118905000I0J-250000D01*
G01*
X167995000Y-119855000D01*
G75*
G02*
X167745000Y-120105000I-250000J0D01*
G01*
X167070000Y-120105000D01*
G75*
G02*
X166820000Y-119855000I0J250000D01*
G01*
G37*
G04 #@! TD.AperFunction*
G04 #@! TA.AperFunction,SMDPad,CuDef*
G36*
G01*
X104727500Y-38641000D02*
X104727500Y-39591000D01*
G75*
G02*
X104477500Y-39841000I-250000J0D01*
G01*
X103802500Y-39841000D01*
G75*
G02*
X103552500Y-39591000I0J250000D01*
G01*
X103552500Y-38641000D01*
G75*
G02*
X103802500Y-38391000I250000J0D01*
G01*
X104477500Y-38391000D01*
G75*
G02*
X104727500Y-38641000I0J-250000D01*
G01*
G37*
G04 #@! TD.AperFunction*
G04 #@! TA.AperFunction,SMDPad,CuDef*
G36*
G01*
X102652500Y-38641000D02*
X102652500Y-39591000D01*
G75*
G02*
X102402500Y-39841000I-250000J0D01*
G01*
X101727500Y-39841000D01*
G75*
G02*
X101477500Y-39591000I0J250000D01*
G01*
X101477500Y-38641000D01*
G75*
G02*
X101727500Y-38391000I250000J0D01*
G01*
X102402500Y-38391000D01*
G75*
G02*
X102652500Y-38641000I0J-250000D01*
G01*
G37*
G04 #@! TD.AperFunction*
G04 #@! TA.AperFunction,SMDPad,CuDef*
G36*
G01*
X102652500Y-36355000D02*
X102652500Y-37305000D01*
G75*
G02*
X102402500Y-37555000I-250000J0D01*
G01*
X101727500Y-37555000D01*
G75*
G02*
X101477500Y-37305000I0J250000D01*
G01*
X101477500Y-36355000D01*
G75*
G02*
X101727500Y-36105000I250000J0D01*
G01*
X102402500Y-36105000D01*
G75*
G02*
X102652500Y-36355000I0J-250000D01*
G01*
G37*
G04 #@! TD.AperFunction*
G04 #@! TA.AperFunction,SMDPad,CuDef*
G36*
G01*
X104727500Y-36355000D02*
X104727500Y-37305000D01*
G75*
G02*
X104477500Y-37555000I-250000J0D01*
G01*
X103802500Y-37555000D01*
G75*
G02*
X103552500Y-37305000I0J250000D01*
G01*
X103552500Y-36355000D01*
G75*
G02*
X103802500Y-36105000I250000J0D01*
G01*
X104477500Y-36105000D01*
G75*
G02*
X104727500Y-36355000I0J-250000D01*
G01*
G37*
G04 #@! TD.AperFunction*
D32*
X82042000Y-115062000D03*
X82042000Y-105918000D03*
D33*
X149225000Y-106172000D03*
X149225000Y-113030000D03*
X113665000Y-112395000D03*
X132080000Y-109220000D03*
X135509000Y-119380000D03*
D32*
X120650000Y-77470000D03*
X102870000Y-86360000D03*
X97790000Y-74295000D03*
D33*
X100965000Y-69850000D03*
D32*
X125730000Y-45085000D03*
X108585000Y-69850000D03*
D33*
X98425000Y-66040000D03*
X112395000Y-69850000D03*
X111125000Y-66040000D03*
X120650000Y-70485000D03*
X120650000Y-73025000D03*
X128270000Y-71120000D03*
D32*
X133350000Y-66675000D03*
X147320000Y-66675000D03*
D33*
X123190000Y-81915000D03*
X123190000Y-77470000D03*
X134620000Y-77470000D03*
X134620000Y-81915000D03*
X137160000Y-87630000D03*
X137160000Y-92710000D03*
D32*
X148590000Y-79375000D03*
X154305000Y-79375000D03*
X163703000Y-88138000D03*
X165735000Y-95250000D03*
X137795000Y-111760000D03*
D33*
X80772000Y-42164000D03*
X80772000Y-53086000D03*
X162052000Y-106934000D03*
X162052000Y-108458000D03*
X162052000Y-109982000D03*
X162052000Y-105410000D03*
X162052000Y-113030000D03*
D32*
X100076000Y-40386000D03*
X100076000Y-37592000D03*
X163703000Y-85979000D03*
D33*
X113284000Y-88392000D03*
X105029000Y-88392000D03*
X100711000Y-88392000D03*
X92329000Y-88392000D03*
D32*
X139065000Y-74549000D03*
X104140000Y-80645000D03*
D33*
X88265000Y-99695000D03*
X88265000Y-97155000D03*
X88265000Y-94615000D03*
X88265000Y-92075000D03*
X88265000Y-89535000D03*
X88265000Y-86995000D03*
X88265000Y-84455000D03*
X88265000Y-81915000D03*
X88265000Y-79375000D03*
X88265000Y-76835000D03*
X88265000Y-74295000D03*
X88265000Y-71755000D03*
X98670000Y-69850000D03*
X93980000Y-67945000D03*
X110490000Y-69850000D03*
D32*
X117475000Y-74295000D03*
D33*
X146685000Y-85090000D03*
D32*
X156210000Y-83185000D03*
D33*
X83820000Y-42291000D03*
X83820000Y-52959000D03*
X81534000Y-62230000D03*
X81534000Y-123190000D03*
X117475000Y-46355000D03*
X123190000Y-46355000D03*
X112395000Y-46355000D03*
X128270000Y-38100000D03*
X135890000Y-37465000D03*
X116840000Y-85344000D03*
D32*
X134620000Y-73025000D03*
X137033000Y-70485000D03*
D33*
X151668002Y-113030000D03*
X151668002Y-106172000D03*
X155575000Y-113030000D03*
D32*
X147320000Y-99060000D03*
X161925000Y-46990000D03*
X149860000Y-46990000D03*
D33*
X83185000Y-71755000D03*
X83185000Y-89535000D03*
X133985000Y-86995000D03*
X160020000Y-78105000D03*
X83185000Y-84455000D03*
X83185000Y-79375000D03*
X131445000Y-45720000D03*
X131445000Y-48260000D03*
X133985000Y-45720000D03*
X133985000Y-48260000D03*
X87376000Y-51435000D03*
X107315000Y-65405000D03*
X106172000Y-67310000D03*
X87376000Y-48895000D03*
X87376000Y-46355000D03*
X87376000Y-43815000D03*
X97155000Y-65405000D03*
X95885000Y-65405000D03*
X108585000Y-65405000D03*
X109855000Y-65405000D03*
X88265000Y-73025000D03*
X88265000Y-80645000D03*
X83185000Y-81915000D03*
X83185000Y-99695000D03*
X83185000Y-92075000D03*
X83185000Y-86995000D03*
X83185000Y-94615000D03*
X83185000Y-97155000D03*
X83185000Y-76835000D03*
X83185000Y-74295000D03*
X152908000Y-115316000D03*
X150622000Y-115316000D03*
X152908000Y-110744000D03*
X150622000Y-110744000D03*
X152908000Y-108458000D03*
X150622000Y-108458000D03*
X152908000Y-103886000D03*
X150622000Y-103886000D03*
X132715000Y-86995000D03*
X135890000Y-108585000D03*
X135890000Y-104775000D03*
X143510000Y-109220000D03*
D32*
X152400000Y-95885000D03*
D34*
X89132500Y-66040000D02*
X88900000Y-66040000D01*
X125730000Y-43180000D02*
X125730000Y-45085000D01*
X89132500Y-58420000D02*
X89132500Y-59457500D01*
X88900000Y-59690000D02*
X88900000Y-60960000D01*
X89132500Y-59457500D02*
X88900000Y-59690000D01*
X89132500Y-66040000D02*
X89132500Y-65002500D01*
X88900000Y-64770000D02*
X88900000Y-63500000D01*
X89132500Y-65002500D02*
X88900000Y-64770000D01*
X89132500Y-127000000D02*
X89132500Y-125962500D01*
X88900000Y-125730000D02*
X88900000Y-124460000D01*
X89132500Y-125962500D02*
X88900000Y-125730000D01*
X89132500Y-119380000D02*
X89132500Y-120417500D01*
X88900000Y-120650000D02*
X88900000Y-121920000D01*
X89132500Y-120417500D02*
X88900000Y-120650000D01*
X165332500Y-119380000D02*
X165332500Y-120417500D01*
X165100000Y-120650000D02*
X165100000Y-121920000D01*
X165332500Y-120417500D02*
X165100000Y-120650000D01*
X165332500Y-127000000D02*
X165332500Y-125962500D01*
X165100000Y-125730000D02*
X165100000Y-124460000D01*
X165332500Y-125962500D02*
X165100000Y-125730000D01*
X101092000Y-41402000D02*
X100076000Y-40386000D01*
X102065000Y-41402000D02*
X101092000Y-41402000D01*
X101346000Y-39116000D02*
X100076000Y-40386000D01*
X102065000Y-39116000D02*
X101346000Y-39116000D01*
X100838000Y-36830000D02*
X100076000Y-37592000D01*
X102065000Y-36830000D02*
X100838000Y-36830000D01*
X101600000Y-39116000D02*
X100076000Y-37592000D01*
X102065000Y-39116000D02*
X101600000Y-39116000D01*
D35*
X86455000Y-99695000D02*
X88265000Y-99695000D01*
X86455000Y-97155000D02*
X88265000Y-97155000D01*
X86455000Y-94615000D02*
X88265000Y-94615000D01*
X86455000Y-92075000D02*
X88265000Y-92075000D01*
X86455000Y-89535000D02*
X88265000Y-89535000D01*
X86455000Y-86995000D02*
X88265000Y-86995000D01*
X86455000Y-84455000D02*
X88265000Y-84455000D01*
X86455000Y-76835000D02*
X88265000Y-76835000D01*
X86455000Y-74295000D02*
X88265000Y-74295000D01*
X86455000Y-71755000D02*
X88265000Y-71755000D01*
X83725000Y-43815000D02*
X83725000Y-46355000D01*
X83725000Y-46355000D02*
X83725000Y-48895000D01*
X83725000Y-48895000D02*
X83725000Y-51435000D01*
X86455000Y-81915000D02*
X88265000Y-81915000D01*
X86455000Y-79375000D02*
X88265000Y-79375000D01*
X83725000Y-42386000D02*
X83820000Y-42291000D01*
X83725000Y-43815000D02*
X83725000Y-42386000D01*
X83725000Y-52864000D02*
X83820000Y-52959000D01*
X83725000Y-51435000D02*
X83725000Y-52864000D01*
X82264000Y-61500000D02*
X81534000Y-62230000D01*
X83820000Y-61500000D02*
X82264000Y-61500000D01*
X82264000Y-122460000D02*
X81534000Y-123190000D01*
X83820000Y-122460000D02*
X82264000Y-122460000D01*
D34*
X91207500Y-58420000D02*
X91207500Y-59457500D01*
X91440000Y-59690000D02*
X91440000Y-60960000D01*
X91207500Y-59457500D02*
X91440000Y-59690000D01*
X91207500Y-66040000D02*
X91207500Y-65002500D01*
X91440000Y-64770000D02*
X91440000Y-63500000D01*
X91207500Y-65002500D02*
X91440000Y-64770000D01*
X91207500Y-127000000D02*
X91207500Y-125962500D01*
X91440000Y-125730000D02*
X91440000Y-124460000D01*
X91207500Y-125962500D02*
X91440000Y-125730000D01*
X91207500Y-119380000D02*
X91207500Y-120417500D01*
X91440000Y-120650000D02*
X91440000Y-121920000D01*
X91207500Y-120417500D02*
X91440000Y-120650000D01*
D35*
X115885000Y-49625000D02*
X115885000Y-48580000D01*
X115885000Y-48580000D02*
X115885000Y-47310000D01*
X116840000Y-46355000D02*
X117475000Y-46355000D01*
X115885000Y-47310000D02*
X116840000Y-46355000D01*
X118745000Y-47625000D02*
X117475000Y-46355000D01*
X123505000Y-46670000D02*
X123190000Y-46355000D01*
X123505000Y-49625000D02*
X123505000Y-46670000D01*
X111125000Y-47625000D02*
X112395000Y-46355000D01*
X129445000Y-39275000D02*
X128270000Y-38100000D01*
X129445000Y-39370000D02*
X129445000Y-39275000D01*
X135985000Y-37560000D02*
X135890000Y-37465000D01*
X135985000Y-39370000D02*
X135985000Y-37560000D01*
D34*
X123020000Y-42545000D02*
X123655000Y-43180000D01*
X121540000Y-42545000D02*
X123020000Y-42545000D01*
X114300000Y-38005000D02*
X115475000Y-36830000D01*
X120745000Y-36830000D02*
X121920000Y-38005000D01*
X115475000Y-36830000D02*
X120745000Y-36830000D01*
X122620000Y-38005000D02*
X123190000Y-38575000D01*
X121920000Y-38005000D02*
X122620000Y-38005000D01*
X123190000Y-42715000D02*
X123655000Y-43180000D01*
X123190000Y-38575000D02*
X123190000Y-42715000D01*
D35*
X151668002Y-113030000D02*
X153670000Y-113030000D01*
X151668002Y-106172000D02*
X154813000Y-106172000D01*
X154813000Y-106172000D02*
X155575000Y-106934000D01*
X155575000Y-113030000D02*
X153670000Y-113030000D01*
X155575000Y-113030000D02*
X155575000Y-106934000D01*
D34*
X140335000Y-106045000D02*
X147320000Y-99060000D01*
X167005000Y-99060000D02*
X168910000Y-100965000D01*
X168910000Y-120650000D02*
X167640000Y-121920000D01*
X168910000Y-100965000D02*
X168910000Y-120650000D01*
X167640000Y-121920000D02*
X167640000Y-124460000D01*
D35*
X155575000Y-118110000D02*
X156845000Y-119380000D01*
X155575000Y-113030000D02*
X155575000Y-118110000D01*
D34*
X154305000Y-99060000D02*
X167005000Y-99060000D01*
X123655000Y-44915000D02*
X123655000Y-43180000D01*
X147320000Y-99060000D02*
X153670000Y-92710000D01*
X153670000Y-92710000D02*
X155575000Y-92710000D01*
X155575000Y-92710000D02*
X156845000Y-91440000D01*
X156845000Y-91440000D02*
X156845000Y-86360000D01*
X156845000Y-86360000D02*
X161925000Y-81280000D01*
X161925000Y-81280000D02*
X161925000Y-75565000D01*
X167640000Y-69850000D02*
X167640000Y-63500000D01*
X161925000Y-75565000D02*
X167640000Y-69850000D01*
D35*
X156845000Y-119380000D02*
X162052000Y-119380000D01*
X162052000Y-119380000D02*
X163830000Y-121158000D01*
X163830000Y-121158000D02*
X163830000Y-122682000D01*
X163830000Y-122682000D02*
X164338000Y-123190000D01*
X166370000Y-123190000D02*
X167640000Y-124460000D01*
X164338000Y-123190000D02*
X166370000Y-123190000D01*
D34*
X167407500Y-119380000D02*
X167407500Y-120417500D01*
X167640000Y-120650000D02*
X167640000Y-121920000D01*
X167407500Y-120417500D02*
X167640000Y-120650000D01*
X167407500Y-127000000D02*
X167407500Y-125962500D01*
X167640000Y-125730000D02*
X167640000Y-124460000D01*
X167407500Y-125962500D02*
X167640000Y-125730000D01*
X132715000Y-100330000D02*
X133985000Y-100330000D01*
X134620000Y-100965000D02*
X134620000Y-106045000D01*
X133985000Y-100330000D02*
X134620000Y-100965000D01*
X134620000Y-106045000D02*
X140335000Y-106045000D01*
X167640000Y-63500000D02*
X167640000Y-60960000D01*
X167640000Y-60960000D02*
X167640000Y-52705000D01*
X167640000Y-52705000D02*
X161925000Y-46990000D01*
X149860000Y-46990000D02*
X125730000Y-46990000D01*
X123655000Y-44915000D02*
X125730000Y-46990000D01*
X114300000Y-38005000D02*
X113125000Y-36830000D01*
X113125000Y-36830000D02*
X110490000Y-36830000D01*
X104140000Y-43735000D02*
X104140000Y-46355000D01*
X110490000Y-36830000D02*
X104140000Y-36830000D01*
X104140000Y-36830000D02*
X104140000Y-39116000D01*
X104140000Y-39116000D02*
X104140000Y-41402000D01*
X104140000Y-41402000D02*
X104140000Y-43735000D01*
X93091000Y-114046000D02*
X89535000Y-110490000D01*
X105664000Y-114046000D02*
X93091000Y-114046000D01*
X113665000Y-106045000D02*
X105664000Y-114046000D01*
X134620000Y-106045000D02*
X113665000Y-106045000D01*
D35*
X83185000Y-71755000D02*
X84455000Y-71755000D01*
X83185000Y-89535000D02*
X84455000Y-89535000D01*
X133985000Y-86995000D02*
X135255000Y-85725000D01*
X135255000Y-85725000D02*
X135255000Y-84455000D01*
X135255000Y-84455000D02*
X136525000Y-83185000D01*
X136525000Y-83185000D02*
X136525000Y-81915000D01*
X136525000Y-81915000D02*
X137795000Y-80645000D01*
X137795000Y-80645000D02*
X141605000Y-76835000D01*
X141605000Y-76835000D02*
X158115000Y-76835000D01*
X159385000Y-78105000D02*
X160020000Y-78105000D01*
X158115000Y-76835000D02*
X159385000Y-78105000D01*
X83185000Y-84455000D02*
X84455000Y-84455000D01*
X83185000Y-79375000D02*
X84455000Y-79375000D01*
X118745000Y-49625000D02*
X121605000Y-49625000D01*
X118745000Y-49625000D02*
X118745000Y-52070000D01*
X121920000Y-55245000D02*
X121920000Y-60960000D01*
X118745000Y-52070000D02*
X121920000Y-55245000D01*
X82550000Y-124460000D02*
X81280000Y-125730000D01*
X83820000Y-124460000D02*
X82550000Y-124460000D01*
X86360000Y-123190000D02*
X85090000Y-124460000D01*
X85090000Y-124460000D02*
X83820000Y-124460000D01*
X86360000Y-104775000D02*
X86360000Y-123190000D01*
X105410000Y-85725000D02*
X86360000Y-104775000D01*
X105410000Y-82550000D02*
X105410000Y-85725000D01*
X107442000Y-80518000D02*
X105410000Y-82550000D01*
X133985000Y-56515000D02*
X133985000Y-59309000D01*
X114808000Y-75184000D02*
X114808000Y-80010000D01*
X121158000Y-62230000D02*
X120555001Y-62832999D01*
X114808000Y-80010000D02*
X114300000Y-80518000D01*
X120555001Y-66134999D02*
X120142000Y-66548000D01*
X114300000Y-80518000D02*
X107442000Y-80518000D01*
X132842000Y-62230000D02*
X121158000Y-62230000D01*
X133350000Y-61722000D02*
X132842000Y-62230000D01*
X120555001Y-62832999D02*
X120555001Y-66134999D01*
X120142000Y-66548000D02*
X120142000Y-69850000D01*
X133985000Y-59309000D02*
X133350000Y-59944000D01*
X133350000Y-59944000D02*
X133350000Y-61722000D01*
X120142000Y-69850000D02*
X114808000Y-75184000D01*
X131445000Y-39370000D02*
X131445000Y-36195000D01*
X127000000Y-52705000D02*
X127000000Y-60960000D01*
X131445000Y-39370000D02*
X131445000Y-45720000D01*
X131445000Y-48260000D02*
X127000000Y-52705000D01*
X133985000Y-39370000D02*
X133985000Y-36195000D01*
X129540000Y-53340000D02*
X129540000Y-60960000D01*
X133985000Y-39370000D02*
X133985000Y-45720000D01*
X133985000Y-48260000D02*
X133985000Y-48895000D01*
X133985000Y-48895000D02*
X129540000Y-53340000D01*
X127000000Y-124460000D02*
X127000000Y-128905000D01*
X126365000Y-129540000D02*
X126365000Y-133985000D01*
X127000000Y-128905000D02*
X126365000Y-129540000D01*
X124460000Y-124460000D02*
X124460000Y-128905000D01*
X123825000Y-129540000D02*
X123825000Y-133985000D01*
X124460000Y-128905000D02*
X123825000Y-129540000D01*
X121920000Y-124460000D02*
X121920000Y-128905000D01*
X121285000Y-129540000D02*
X121285000Y-133985000D01*
X121920000Y-128905000D02*
X121285000Y-129540000D01*
X119380000Y-124460000D02*
X119380000Y-128905000D01*
X118745000Y-129540000D02*
X118745000Y-133985000D01*
X119380000Y-128905000D02*
X118745000Y-129540000D01*
X116840000Y-124460000D02*
X116840000Y-128905000D01*
X116205000Y-129540000D02*
X116205000Y-133985000D01*
X116840000Y-128905000D02*
X116205000Y-129540000D01*
X114300000Y-124460000D02*
X114300000Y-128905000D01*
X113665000Y-129540000D02*
X113665000Y-133985000D01*
X114300000Y-128905000D02*
X113665000Y-129540000D01*
X111760000Y-124460000D02*
X111760000Y-128905000D01*
X111125000Y-129540000D02*
X111125000Y-133985000D01*
X111760000Y-128905000D02*
X111125000Y-129540000D01*
X109220000Y-124460000D02*
X109220000Y-128905000D01*
X108585000Y-129540000D02*
X108585000Y-133985000D01*
X109220000Y-128905000D02*
X108585000Y-129540000D01*
X106680000Y-124460000D02*
X106680000Y-126365000D01*
X106680000Y-126365000D02*
X99060000Y-133985000D01*
X104140000Y-126365000D02*
X96520000Y-133985000D01*
X104140000Y-124460000D02*
X104140000Y-126365000D01*
X101600000Y-126365000D02*
X93980000Y-133985000D01*
X101600000Y-124460000D02*
X101600000Y-126365000D01*
X99060000Y-126365000D02*
X91440000Y-133985000D01*
X99060000Y-124460000D02*
X99060000Y-126365000D01*
X96520000Y-126365000D02*
X88900000Y-133985000D01*
X96520000Y-124460000D02*
X96520000Y-126365000D01*
X151130000Y-36195000D02*
X151130000Y-38100000D01*
X162560000Y-49530000D02*
X162560000Y-60960000D01*
X151130000Y-38100000D02*
X162560000Y-49530000D01*
X161290000Y-62230000D02*
X162560000Y-63500000D01*
X148590000Y-38100000D02*
X161290000Y-50800000D01*
X161290000Y-50800000D02*
X161290000Y-62230000D01*
X148590000Y-36195000D02*
X148590000Y-38100000D01*
X146050000Y-36195000D02*
X146050000Y-38100000D01*
X160020000Y-52070000D02*
X160020000Y-60960000D01*
X146050000Y-38100000D02*
X160020000Y-52070000D01*
X143510000Y-36195000D02*
X143510000Y-38100000D01*
X143510000Y-38100000D02*
X158750000Y-53340000D01*
X158750000Y-62230000D02*
X160020000Y-63500000D01*
X158750000Y-53340000D02*
X158750000Y-62230000D01*
X143510000Y-56515000D02*
X145415000Y-58420000D01*
X145415000Y-58420000D02*
X154940000Y-58420000D01*
X154940000Y-58420000D02*
X156210000Y-59690000D01*
X156210000Y-62230000D02*
X157480000Y-63500000D01*
X156210000Y-59690000D02*
X156210000Y-62230000D01*
X157480000Y-58420000D02*
X157480000Y-60960000D01*
X158115000Y-55245000D02*
X158115000Y-57785000D01*
X157480000Y-54610000D02*
X158115000Y-55245000D01*
X158115000Y-57785000D02*
X157480000Y-58420000D01*
X147955000Y-54610000D02*
X157480000Y-54610000D01*
X146050000Y-56515000D02*
X147955000Y-54610000D01*
X111125000Y-49625000D02*
X113985000Y-49625000D01*
X119380000Y-55020000D02*
X113985000Y-49625000D01*
X119380000Y-60960000D02*
X119380000Y-55020000D01*
X87376000Y-51435000D02*
X85725000Y-51435000D01*
X82550000Y-63500000D02*
X81280000Y-64770000D01*
X83820000Y-63500000D02*
X82550000Y-63500000D01*
X106680000Y-64770000D02*
X107315000Y-65405000D01*
X106680000Y-63500000D02*
X106680000Y-64770000D01*
X106172000Y-67310000D02*
X104775000Y-68707000D01*
X104775000Y-68707000D02*
X104775000Y-74295000D01*
X104775000Y-74295000D02*
X102870000Y-76200000D01*
X102870000Y-76200000D02*
X97155000Y-76200000D01*
X97155000Y-76200000D02*
X95250000Y-74295000D01*
X95250000Y-74295000D02*
X95250000Y-73025000D01*
X95250000Y-73025000D02*
X94615000Y-72390000D01*
X94615000Y-72390000D02*
X91440000Y-72390000D01*
X85969999Y-66919999D02*
X85969999Y-64379999D01*
X91440000Y-72390000D02*
X85969999Y-66919999D01*
X85090000Y-63500000D02*
X83820000Y-63500000D01*
X85969999Y-64379999D02*
X85090000Y-63500000D01*
X87376000Y-48895000D02*
X85725000Y-48895000D01*
X87376000Y-46355000D02*
X85725000Y-46355000D01*
X87376000Y-43815000D02*
X85725000Y-43815000D01*
D36*
X99640000Y-42371397D02*
X98768603Y-41500000D01*
X99640000Y-43735000D02*
X99640000Y-42371397D01*
X98768603Y-41500000D02*
X97248200Y-41500000D01*
X97248200Y-41500000D02*
X94708200Y-44040000D01*
X94708200Y-44040000D02*
X93438200Y-44040000D01*
X90657000Y-49128000D02*
X91694000Y-50165000D01*
X90657000Y-46821200D02*
X90657000Y-49128000D01*
X93438200Y-44040000D02*
X90657000Y-46821200D01*
X98955000Y-41050000D02*
X97061800Y-41050000D01*
X101640000Y-43735000D02*
X98955000Y-41050000D01*
X97061800Y-41050000D02*
X94521800Y-43590000D01*
X94521800Y-43590000D02*
X93251800Y-43590000D01*
X90207000Y-46634800D02*
X90207000Y-49128000D01*
X90207000Y-49128000D02*
X89154000Y-50181000D01*
X93251800Y-43590000D02*
X90207000Y-46634800D01*
X105252603Y-49755000D02*
X106299000Y-50801397D01*
X106299000Y-50801397D02*
X106299000Y-52705000D01*
X103040000Y-49755000D02*
X105252603Y-49755000D01*
X99640000Y-46355000D02*
X103040000Y-49755000D01*
X101640000Y-47718603D02*
X103226397Y-49305000D01*
X101640000Y-46355000D02*
X101640000Y-47718603D01*
X106617198Y-50483198D02*
X108839000Y-52705000D01*
X105439000Y-49305000D02*
X106617198Y-50483198D01*
X103226397Y-49305000D02*
X105439000Y-49305000D01*
X91694000Y-52165000D02*
X90641000Y-53218000D01*
X90641000Y-53218000D02*
X90641000Y-54508800D01*
X90641000Y-54508800D02*
X92168200Y-56036000D01*
X92168200Y-56036000D02*
X94835200Y-56036000D01*
X94835200Y-56036000D02*
X96745000Y-57945800D01*
X96745000Y-57945800D02*
X96745000Y-58928000D01*
X96745000Y-58928000D02*
X96745000Y-59280000D01*
X96745000Y-59280000D02*
X97790000Y-60325000D01*
X97790000Y-64135000D02*
X97790000Y-64770000D01*
X97790000Y-60325000D02*
X97790000Y-64135000D01*
X97790000Y-64135000D02*
X97790000Y-64262000D01*
X97790000Y-64770000D02*
X97155000Y-65405000D01*
X90191000Y-54695200D02*
X91981800Y-56486000D01*
X89154000Y-52181000D02*
X90191000Y-53218000D01*
X90191000Y-53218000D02*
X90191000Y-54695200D01*
X91981800Y-56486000D02*
X94648800Y-56486000D01*
X94648800Y-56486000D02*
X96295000Y-58132200D01*
X96295000Y-58132200D02*
X96295000Y-58928000D01*
X96295000Y-59280000D02*
X95250000Y-60325000D01*
X96295000Y-58928000D02*
X96295000Y-59280000D01*
X95250000Y-60325000D02*
X95250000Y-64262000D01*
X95250000Y-64262000D02*
X95250000Y-64770000D01*
X95250000Y-64770000D02*
X95885000Y-65405000D01*
X107344000Y-55750000D02*
X107344000Y-56227200D01*
X106299000Y-54705000D02*
X107344000Y-55750000D01*
X107344000Y-56227200D02*
X108995000Y-57878200D01*
X108995000Y-57878200D02*
X108995000Y-59055000D01*
X108995000Y-59055000D02*
X108995000Y-59280000D01*
X108995000Y-59280000D02*
X107950000Y-60325000D01*
X107950000Y-60325000D02*
X107950000Y-64770000D01*
X107950000Y-64770000D02*
X108585000Y-65405000D01*
X107794000Y-55750000D02*
X107794000Y-56040800D01*
X108839000Y-54705000D02*
X107794000Y-55750000D01*
X107794000Y-56040800D02*
X109445000Y-57691800D01*
X109445000Y-57691800D02*
X109445000Y-59055000D01*
X109445000Y-59055000D02*
X109445000Y-59280000D01*
X109445000Y-59280000D02*
X110490000Y-60325000D01*
X110490000Y-60325000D02*
X110490000Y-64770000D01*
X110490000Y-64770000D02*
X109855000Y-65405000D01*
D35*
X121920000Y-40005000D02*
X120650000Y-40005000D01*
X120650000Y-40005000D02*
X120015000Y-40640000D01*
X118745000Y-40640000D02*
X116840000Y-42545000D01*
X120015000Y-40640000D02*
X118745000Y-40640000D01*
X121285000Y-47625000D02*
X122555000Y-47625000D01*
X120015000Y-46355000D02*
X121285000Y-47625000D01*
X120015000Y-45720000D02*
X120015000Y-46355000D01*
X116840000Y-42545000D02*
X120015000Y-45720000D01*
X114300000Y-40005000D02*
X113030000Y-41275000D01*
X113030000Y-43635000D02*
X114740000Y-45345000D01*
X113030000Y-41275000D02*
X113030000Y-43635000D01*
X114935000Y-45540000D02*
X114740000Y-45345000D01*
X114935000Y-47625000D02*
X114935000Y-45540000D01*
X116840000Y-65405000D02*
X116840000Y-63500000D01*
X111125000Y-76835000D02*
X116840000Y-71120000D01*
X91313000Y-76835000D02*
X111125000Y-76835000D01*
X116840000Y-71120000D02*
X116840000Y-65405000D01*
X90297000Y-75819000D02*
X91313000Y-76835000D01*
X90297000Y-73914000D02*
X90297000Y-75819000D01*
X89408000Y-73025000D02*
X90297000Y-73914000D01*
X88265000Y-73025000D02*
X89408000Y-73025000D01*
X93345000Y-77470000D02*
X90170000Y-80645000D01*
X111760000Y-77470000D02*
X93345000Y-77470000D01*
X90170000Y-80645000D02*
X88265000Y-80645000D01*
X119380000Y-69850000D02*
X111760000Y-77470000D01*
X119380000Y-63500000D02*
X119380000Y-69850000D01*
X83185000Y-81915000D02*
X84455000Y-81915000D01*
X83185000Y-99695000D02*
X84455000Y-99695000D01*
X83185000Y-92075000D02*
X84455000Y-92075000D01*
X83185000Y-86995000D02*
X84455000Y-86995000D01*
X83185000Y-94615000D02*
X84455000Y-94615000D01*
X83185000Y-97155000D02*
X84455000Y-97155000D01*
X83185000Y-76835000D02*
X84455000Y-76835000D01*
X83185000Y-74295000D02*
X84455000Y-74295000D01*
D36*
X152908000Y-115316000D02*
X150622000Y-115316000D01*
X152908000Y-110744000D02*
X150622000Y-110744000D01*
X152908000Y-108458000D02*
X150622000Y-108458000D01*
X152908000Y-103886000D02*
X150622000Y-103886000D01*
D35*
X132715000Y-86995000D02*
X135255000Y-89535000D01*
X141605000Y-126365000D02*
X141605000Y-128670000D01*
X140970000Y-125730000D02*
X141605000Y-126365000D01*
X140335000Y-116840000D02*
X140970000Y-117475000D01*
X140970000Y-117475000D02*
X140970000Y-125730000D01*
X136525000Y-116840000D02*
X140335000Y-116840000D01*
X135890000Y-116205000D02*
X136525000Y-116840000D01*
X135890000Y-116205000D02*
X135890000Y-108585000D01*
X135890000Y-90170000D02*
X135255000Y-89535000D01*
X135890000Y-104775000D02*
X135890000Y-90170000D01*
X135890000Y-81280000D02*
X141210000Y-75960000D01*
X141210000Y-75960000D02*
X159980000Y-75960000D01*
X135890000Y-82550000D02*
X135890000Y-81280000D01*
X134620000Y-83820000D02*
X135890000Y-82550000D01*
X134620000Y-85090000D02*
X134620000Y-83820000D01*
X132715000Y-86995000D02*
X134620000Y-85090000D01*
X149225000Y-126365000D02*
X153905000Y-126365000D01*
X148590000Y-125730000D02*
X149225000Y-126365000D01*
X148590000Y-120015000D02*
X148590000Y-125730000D01*
X153905000Y-126365000D02*
X156210000Y-128670000D01*
X145415000Y-116840000D02*
X148590000Y-120015000D01*
X145415000Y-111125000D02*
X145415000Y-116840000D01*
X143510000Y-109220000D02*
X145415000Y-111125000D01*
D34*
X106325000Y-115290000D02*
X89535000Y-115290000D01*
X114300000Y-107315000D02*
X106325000Y-115290000D01*
X140970000Y-107315000D02*
X114300000Y-107315000D01*
X152400000Y-95885000D02*
X140970000Y-107315000D01*
M02*
